  0
SECTION
  2
HEADER
  9
$ACADVER
  1
AC1009
  9
$INSBASE
 10
0.0
 20
0.0
 30
0.0
  9
$EXTMIN
 10
-179.1968481569302
 20
15.999999999999989
 30
0.0
  9
$EXTMAX
 10
26.11852602868295
 20
171.35463826595071
 30
0.0
  9
$LIMMIN
 10
-215.17524414059989
 20
-3.1749999999999989
  9
$LIMMAX
 10
3.1749999999999989
 20
300.17500000000001
  9
$ORTHOMODE
 70
     0
  9
$REGENMODE
 70
     1
  9
$FILLMODE
 70
     1
  9
$QTEXTMODE
 70
     0
  9
$MIRRTEXT
 70
     0
  9
$DRAGMODE
 70
     2
  9
$LTSCALE
 40
1.0
  9
$OSMODE
 70
    39
  9
$ATTMODE
 70
     1
  9
$TEXTSIZE
 40
3.1999998092999991
  9
$TRACEWID
 40
0.05
  9
$TEXTSTYLE
  7
STANDARD
  9
$CLAYER
  8
0
  9
$CELTYPE
  6
BYLAYER
  9
$CECOLOR
 62
   256
  9
$DIMSCALE
 40
1.0
  9
$DIMASZ
 40
1.9727878464999999
  9
$DIMEXO
 40
2.5399999618999991
  9
$DIMDLI
 40
0.38
  9
$DIMRND
 40
0.0
  9
$DIMDLE
 40
0.0
  9
$DIMEXE
 40
3.8099999427999989
  9
$DIMTP
 40
0.0
  9
$DIMTM
 40
0.0
  9
$DIMTXT
 40
3.1999998092999991
  9
$DIMCEN
 40
0.09
  9
$DIMTSZ
 40
0.0
  9
$DIMTOL
 70
     0
  9
$DIMLIM
 70
     0
  9
$DIMTIH
 70
     0
  9
$DIMTOH
 70
     1
  9
$DIMSE1
 70
     0
  9
$DIMSE2
 70
     0
  9
$DIMTAD
 70
     0
  9
$DIMZIN
 70
     0
  9
$DIMBLK
  1

  9
$DIMASO
 70
     1
  9
$DIMSHO
 70
     0
  9
$DIMPOST
  1

  9
$DIMAPOST
  1

  9
$DIMALT
 70
     0
  9
$DIMALTD
 70
     2
  9
$DIMALTF
 40
25.399999999999999
  9
$DIMLFAC
 40
1.0
  9
$DIMTOFL
 70
     0
  9
$DIMTVP
 40
0.0
  9
$DIMTIX
 70
     0
  9
$DIMSOXD
 70
     0
  9
$DIMSAH
 70
     0
  9
$DIMBLK1
  1

  9
$DIMBLK2
  1

  9
$DIMSTYLE
  2
STANDARD
  9
$DIMCLRD
 70
     0
  9
$DIMCLRE
 70
     0
  9
$DIMCLRT
 70
     0
  9
$DIMTFAC
 40
1.0
  9
$DIMGAP
 40
0.09
  9
$LUNITS
 70
     2
  9
$LUPREC
 70
     3
  9
$SKETCHINC
 40
0.1
  9
$FILLETRAD
 40
0.0625
  9
$AUNITS
 70
     0
  9
$AUPREC
 70
     0
  9
$MENU
  1
ACAD
  9
$ELEVATION
 40
0.0
  9
$PELEVATION
 40
0.0
  9
$THICKNESS
 40
0.0
  9
$LIMCHECK
 70
     0
  9
$BLIPMODE
 70
     0
  9
$CHAMFERA
 40
0.0
  9
$CHAMFERB
 40
0.0
  9
$SKPOLY
 70
     0
  9
$TDCREATE
 40
2452011.402777778
  9
$TDUPDATE
 40
2452374.7954813889
  9
$TDINDWG
 40
0.083850544
  9
$TDUSRTIMER
 40
0.083850081
  9
$USRTIMER
 70
     1
  9
$ANGBASE
 50
0.0
  9
$ANGDIR
 70
     0
  9
$PDMODE
 70
     0
  9
$PDSIZE
 40
0.0
  9
$PLINEWID
 40
0.0
  9
$COORDS
 70
     1
  9
$SPLFRAME
 70
     0
  9
$SPLINETYPE
 70
     6
  9
$SPLINESEGS
 70
     8
  9
$ATTDIA
 70
     0
  9
$ATTREQ
 70
     1
  9
$HANDLING
 70
  4097
  9
$HANDSEED
  5
695
  9
$SURFTAB1
 70
     6
  9
$SURFTAB2
 70
     6
  9
$SURFTYPE
 70
     6
  9
$SURFU
 70
     6
  9
$SURFV
 70
     6
  9
$UCSNAME
  2

  9
$UCSORG
 10
0.0
 20
0.0
 30
0.0
  9
$UCSXDIR
 10
1.0
 20
0.0
 30
0.0
  9
$UCSYDIR
 10
0.0
 20
1.0
 30
0.0
  9
$PUCSNAME
  2

  9
$PUCSORG
 10
0.0
 20
0.0
 30
0.0
  9
$PUCSXDIR
 10
1.0
 20
0.0
 30
0.0
  9
$PUCSYDIR
 10
0.0
 20
1.0
 30
0.0
  9
$USERI1
 70
     0
  9
$USERI2
 70
     0
  9
$USERI3
 70
     0
  9
$USERI4
 70
     0
  9
$USERI5
 70
     0
  9
$USERR1
 40
0.0
  9
$USERR2
 40
0.0
  9
$USERR3
 40
0.0
  9
$USERR4
 40
0.0
  9
$USERR5
 40
0.0
  9
$WORLDVIEW
 70
     1
  9
$SHADEDGE
 70
     3
  9
$SHADEDIF
 70
    70
  9
$TILEMODE
 70
     1
  9
$MAXACTVP
 70
    64
  9
$PLIMCHECK
 70
     0
  9
$PEXTMIN
 10
1.0000000000000000E+020
 20
1.0000000000000000E+020
 30
1.0000000000000000E+020
  9
$PEXTMAX
 10
-1.0000000000000000E+020
 20
-1.0000000000000000E+020
 30
-1.0000000000000000E+020
  9
$PLIMMIN
 10
0.0
 20
0.0
  9
$PLIMMAX
 10
12.0
 20
9.0
  9
$UNITMODE
 70
     0
  9
$VISRETAIN
 70
     1
  9
$PLINEGEN
 70
     0
  9
$PSLTSCALE
 70
     1
  0
ENDSEC
  0
SECTION
  2
TABLES
  0
TABLE
  2
VPORT
 70
     2
  0
VPORT
  2
*ACTIVE
 70
     0
 10
0.0
 20
0.0
 11
1.0
 21
1.0
 12
-96.188351927963041
 22
88.637030918183214
 13
0.0
 23
0.0
 14
1.0
 24
1.0
 15
0.0
 25
0.0
 16
0.0
 26
0.0
 36
1.0
 17
0.0
 27
0.0
 37
0.0
 40
211.7283629566677
 41
1.565365025466892
 42
50.0
 43
0.0
 44
0.0
 50
0.0
 51
0.0
 71
     0
 72
   100
 73
     1
 74
     1
 75
     0
 76
     0
 77
     0
 78
     0
  0
ENDTAB
  0
TABLE
  2
LTYPE
 70
     7
  0
LTYPE
  2
CONTINUOUS
 70
     0
  3
Solid line
 72
    65
 73
     0
 40
0.0
  0
LTYPE
  2
SOLID
 70
     0
  3
Solid
 72
    65
 73
     0
 40
0.0
  0
LTYPE
  2
DASHED
 70
     0
  3
Dashed
 72
    65
 73
     2
 40
4.7625000000000002
 49
3.1749999999999989
 49
-1.587499999999999
  0
LTYPE
  2
CENTERLINE
 70
     0
  3
Centerline
 72
    65
 73
     4
 40
25.399999999999999
 49
19.050000000000001
 49
-1.587499999999999
 49
3.1749999999999989
 49
-1.587499999999999
  0
LTYPE
  2
PHANTOM
 70
     0
  3
Phantom
 72
    65
 73
     6
 40
30.162500000000001
 49
19.050000000000001
 49
-1.587499999999999
 49
3.1749999999999989
 49
-1.587499999999999
 49
3.1749999999999989
 49
-1.587499999999999
  0
LTYPE
  2
CONSTRUCTION
 70
     0
  3
Construction
 72
    65
 73
     2
 40
1.016
 49
0.254
 49
-0.762
  0
LTYPE
  2
GAP
 70
     0
  3
Gap
 72
    65
 73
     3
 40
2540.9999980092002
 49
0.0
 49
-0.9999980092000002
 49
2540.0
  0
ENDTAB
  0
TABLE
  2
LAYER
 70
    10
  0
LAYER
  2
0
 70
     0
 62
     7
  6
CONTINUOUS
  0
LAYER
  2
LAYER1$C$L1
 70
     0
 62
     3
  6
SOLID
  0
LAYER
  2
LAYER2$C$L2
 70
     0
 62
     3
  6
SOLID
  0
LAYER
  2
LAYER3$C$L3
 70
     0
 62
     3
  6
SOLID
  0
LAYER
  2
LAYER4$C$L4
 70
     0
 62
     3
  6
SOLID
  0
LAYER
  2
LAYER6$C$L6
 70
     0
 62
     6
  6
SOLID
  0
LAYER
  2
LAYER8$C$L8
 70
     0
 62
    32
  6
SOLID
  0
LAYER
  2
LAYER9$C$L9
 70
     0
 62
     1
  6
SOLID
  0
LAYER
  2
DEFPOINTS
 70
     0
 62
     7
  6
CONTINUOUS
  0
LAYER
  2
DIMENSIONS
 70
     0
 62
     5
  6
CONTINUOUS
  0
ENDTAB
  0
TABLE
  2
STYLE
 70
     1
  0
STYLE
  2
STANDARD
 70
     0
 40
0.0
 41
1.0
 50
0.0
 71
     0
 42
3.1999998092999991
  3
txt
  4

  0
ENDTAB
  0
TABLE
  2
VIEW
 70
     0
  0
ENDTAB
  0
TABLE
  2
UCS
 70
     0
  0
ENDTAB
  0
TABLE
  2
APPID
 70
     1
  0
APPID
  2
ACAD
 70
     0
  0
ENDTAB
  0
TABLE
  2
DIMSTYLE
 70
     1
  0
DIMSTYLE
  2
STANDARD
 70
     0
  3

  4

  5

  6

  7

 40
1.0
 41
0.18
 42
0.0625
 43
0.38
 44
0.18
 45
0.0
 46
0.0
 47
0.0
 48
0.0
140
0.18
141
0.09
142
0.0
143
25.399999999999999
144
1.0
145
0.0
146
1.0
147
0.09
 71
     0
 72
     0
 73
     1
 74
     1
 75
     0
 76
     0
 77
     0
 78
     0
170
     0
171
     2
172
     0
173
     0
174
     0
175
     0
176
     0
177
     0
178
     0
  0
ENDTAB
  0
ENDSEC
  0
SECTION
  2
BLOCKS
  0
BLOCK
  8
0
  2
$MODEL_SPACE
 70
     0
 10
0.0
 20
0.0
 30
0.0
  3
$MODEL_SPACE
  1

  0
ENDBLK
  5
20
  8
0
  0
BLOCK
 67
     1
  8
0
  2
$PAPER_SPACE
 70
     0
 10
0.0
 20
0.0
 30
0.0
  3
$PAPER_SPACE
  1

  0
ENDBLK
  5
1C
 67
     1
  8
0
  0
BLOCK
  8
LAYER8$C$L8
  2
CADRA_ATTR_0
 70
     2
 10
0.0
 20
0.0
 30
0.0
  3
CADRA_ATTR_0
  1

  0
TEXT
  5
B2
  8
LAYER8$C$L8
 62
     3
 10
-168.86666630240001
 20
4.5
 30
0.0
 40
2.0
  1
TW-HW
 41
0.9125003342624989
 72
     5
 11
-159.13332940359999
 21
4.5
 31
0.0
  0
ATTDEF
  5
B3
  8
LAYER8$C$L8
 62
     3
 10
-164.0
 20
5.5
 30
0.0
 40
0.156
  1
ç%f!<%6!<  é
  3

  2
50
 70
    11
  0
ENDBLK
  5
B4
  8
LAYER8$C$L8
  0
BLOCK
  8
LAYER8$C$L8
  2
CADRA_ATTR_1
 70
     2
 10
0.0
 20
0.0
 30
0.0
  3
CADRA_ATTR_1
  1

  0
TEXT
  5
B7
  8
LAYER8$C$L8
 62
     3
 10
-176.86666630239989
 20
4.5
 30
0.0
 40
2.0
  1
A
 41
1.3000026740999919
 72
     5
 11
-175.13332940359999
 21
4.5
 31
0.0
  0
ATTDEF
  5
B8
  8
LAYER8$C$L8
 62
     3
 10
-176.0
 20
5.5
 30
0.0
 40
0.156
  1
ç%0%k!<%W  é
  3

  2
40
 70
    11
  0
ENDBLK
  5
B9
  8
LAYER8$C$L8
  0
BLOCK
  8
LAYER8$C$L8
  2
CADRA_ATTR_2
 70
     2
 10
0.0
 20
0.0
 30
0.0
  3
CADRA_ATTR_2
  1

  0
TEXT
  5
BC
  8
LAYER8$C$L8
 62
     3
 10
-66.302666215299993
 20
3.4200000763
 30
0.0
 40
4.1599998473999991
  1
*
 41
1.3000029426755879
 72
     5
 11
-62.697324853199987
 21
3.4200000763
 31
0.0
  0
ATTDEF
  5
BD
  8
LAYER8$C$L8
 62
     3
 10
-64.499995999999996
 20
5.5
 30
0.0
 40
0.156
  1
ç5l?^HVé
  3

  2
110
 70
    11
  0
ENDBLK
  5
BE
  8
LAYER8$C$L8
  0
BLOCK
  8
LAYER8$C$L8
  2
CADRA_ATTR_3
 70
     2
 10
0.0
 20
0.0
 30
0.0
  3
CADRA_ATTR_3
  1

  0
TEXT
  5
C1
  8
LAYER8$C$L8
 62
     3
 10
-99.80577422559999
 20
275.91641426090001
 30
0.0
 40
4.1671714783000002
  1
ABW1
 41
1.0545460139879279
 72
     5
 11
-83.692702628100008
 21
275.91641426090001
 31
0.0
  0
ATTDEF
  5
C2
  8
LAYER8$C$L8
 62
     3
 10
-91.749236999999994
 20
278.0
 30
0.0
 40
0.156
  1
çL>>N!&7A<0é
  3

  2
10
 70
    11
  0
ENDBLK
  5
C3
  8
LAYER8$C$L8
  0
BLOCK
  8
LAYER8$C$L8
  2
CADRA_ATTR_4
 70
     2
 10
0.0
 20
0.0
 30
0.0
  3
CADRA_ATTR_4
  1

  0
TEXT
  5
C6
  8
LAYER8$C$L8
 62
     3
 10
-103.4484557311
 20
284.20000028610002
 30
0.0
 40
3.5999994277999989
  1
TWÉVÉäÅ[ÉY âüÉ{ÉCìÉXÉCÉbÉ`
 41
0.642822772588567
 72
     5
 11
-50.2227386207
 21
284.20000028610002
 31
0.0
  0
ATTDEF
  5
C7
  8
LAYER8$C$L8
 62
     3
 10
-76.835598000000005
 20
286.0
 30
0.0
 40
0.156
  1
ç@=IJL>é
  3

  2
0
 70
    11
  0
ENDBLK
  5
C8
  8
LAYER8$C$L8
  0
BLOCK
  8
LAYER8$C$L8
  2
CADRA_ATTR_5
 70
     2
 10
0.0
 20
0.0
 30
0.0
  3
CADRA_ATTR_5
  1

  0
TEXT
  5
CB
  8
LAYER8$C$L8
 62
     3
 10
-66.666666568699995
 20
16.0
 30
0.0
 40
5.0
  1
MA4-A02000
 41
1.0962965242199989
 72
     5
 11
-17.333322978799998
 21
16.0
 31
0.0
  0
ATTDEF
  5
CC
  8
LAYER8$C$L8
 62
     3
 10
-41.999992999999989
 20
18.5
 30
0.0
 40
0.156
  1
ç?^HV  é
  3

  2
20
 70
    11
  0
ENDBLK
  5
CD
  8
LAYER8$C$L8
  0
BLOCK
  8
0
  2
*D17
 70
     1
 10
0.0
 20
0.0
 30
0.0
  3
*D17
  1

  0
LINE
  5
5B9
  8
DIMENSIONS
 62
     0
 10
-45.960000038099999
 20
93.899993896499979
 30
0.0
 11
26.11852602868295
 21
93.899993896499979
 31
0.0
  0
LINE
  5
5BA
  8
DIMENSIONS
 62
     0
 10
-45.960000038099999
 20
54.100036621099989
 30
0.0
 11
26.118526028682929
 21
54.10003662109996
 31
0.0
  0
LINE
  5
5BB
  8
DIMENSIONS
 62
     0
 10
22.308526085882939
 20
91.927206049999981
 30
0.0
 11
22.308526085882939
 21
79.351996070813101
 31
0.0
  0
LINE
  5
5BC
  8
DIMENSIONS
 62
     0
 10
22.308526085882939
 20
56.072824467599958
 30
0.0
 11
22.308526085882939
 21
69.571996642913092
 31
0.0
  0
SOLID
  5
5BD
  8
DIMENSIONS
 62
     0
 10
21.979728111466279
 20
91.927206049999981
 30
0.0
 11
22.637324060299608
 21
91.927206049999981
 31
0.0
 12
22.308526085882939
 22
93.899993896499979
 32
0.0
 13
22.308526085882939
 23
93.899993896499979
 33
0.0
  0
SOLID
  5
5BE
  8
DIMENSIONS
 62
     0
 10
21.979728111466269
 20
56.072824467599958
 30
0.0
 11
22.637324060299601
 21
56.072824467599958
 31
0.0
 12
22.308526085882932
 22
54.10003662109996
 32
0.0
 13
22.308526085882932
 23
54.10003662109996
 33
0.0
  0
TEXT
  5
5BF
  8
0
 62
     0
 10
23.908525990532919
 20
69.661996642913095
 30
0.0
 40
3.1999998092999991
  1
39.8
 50
90.0
  0
POINT
  5
5C0
  8
DEFPOINTS
 62
     0
 10
-48.5
 20
93.899993896499979
 30
0.0
  0
POINT
  5
5C1
  8
DEFPOINTS
 62
     0
 10
-48.5
 20
54.100036621100003
 30
0.0
  0
POINT
  5
5C2
  8
DEFPOINTS
 62
     0
 10
22.308526085882932
 20
54.10003662109996
 30
0.0
  0
ENDBLK
  5
DA
  8
0
  0
BLOCK
  8
0
  2
*D18
 70
     1
 10
0.0
 20
0.0
 30
0.0
  3
*D18
  1

  0
LINE
  5
5E9
  8
DIMENSIONS
 62
     0
 10
-111.0
 20
117.96000003810001
 30
0.0
 11
-111.0
 21
97.925480907923543
 31
0.0
  0
LINE
  5
5EA
  8
DIMENSIONS
 62
     0
 10
-163.0
 20
117.3599939345999
 30
0.0
 11
-163.0
 21
97.925480907923543
 31
0.0
  0
LINE
  5
5EB
  8
DIMENSIONS
 62
     0
 10
-112.9727878465
 20
101.7354808507235
 30
0.0
 11
-132.50030406213
 21
101.7354808507235
 31
0.0
  0
LINE
  5
5EC
  8
DIMENSIONS
 62
     0
 10
-161.0272121534999
 20
101.7354808507235
 30
0.0
 11
-141.74697018848011
 21
101.7354808507235
 31
0.0
  0
SOLID
  5
5ED
  8
DIMENSIONS
 62
     0
 10
-112.9727878465
 20
102.06427882514021
 30
0.0
 11
-112.9727878465
 21
101.4066828763068
 31
0.0
 12
-111.0
 22
101.7354808507235
 32
0.0
 13
-111.0
 23
101.7354808507235
 33
0.0
  0
SOLID
  5
5EE
  8
DIMENSIONS
 62
     0
 10
-161.0272121534999
 20
102.06427882514021
 30
0.0
 11
-161.0272121534999
 21
101.4066828763068
 31
0.0
 12
-163.0
 22
101.7354808507235
 32
0.0
 13
-163.0
 23
101.7354808507235
 33
0.0
  0
TEXT
  5
5EF
  8
0
 62
     0
 10
-141.6569701884801
 20
100.1354809460735
 30
0.0
 40
3.1999998092999991
  1
52.0
  0
POINT
  5
5F0
  8
DEFPOINTS
 62
     0
 10
-111.0
 20
120.5
 30
0.0
  0
POINT
  5
5F1
  8
DEFPOINTS
 62
     0
 10
-163.0
 20
119.89999389649989
 30
0.0
  0
POINT
  5
5F2
  8
DEFPOINTS
 62
     0
 10
-163.0
 20
101.7354808507235
 30
0.0
  0
ENDBLK
  5
E9
  8
0
  0
BLOCK
  8
0
  2
*D20
 70
     1
 10
0.0
 20
0.0
 30
0.0
  3
*D20
  1

  0
LINE
  5
5F3
  8
DIMENSIONS
 62
     0
 10
-159.49999999999989
 20
116.75998783109991
 30
0.0
 11
-159.49999999999989
 21
107.6147450988322
 31
0.0
  0
LINE
  5
5F4
  8
DIMENSIONS
 62
     0
 10
-160.29997253420001
 20
128.309975624
 30
0.0
 11
-160.29997253420001
 21
107.6147450988322
 31
0.0
  0
LINE
  5
5F5
  8
DIMENSIONS
 62
     0
 10
-157.5272121534999
 20
111.42474504163221
 30
0.0
 11
-155.55442430700001
 21
111.42474504163221
 31
0.0
  0
LINE
  5
5F6
  8
DIMENSIONS
 62
     0
 10
-162.27276038069999
 20
111.42474504163221
 30
0.0
 11
-173.24018183988031
 21
111.42474504163221
 31
0.0
  0
SOLID
  5
5F7
  8
DIMENSIONS
 62
     0
 10
-157.5272121534999
 20
111.75354301604889
 30
0.0
 11
-157.5272121534999
 21
111.0959470672155
 31
0.0
 12
-159.49999999999989
 22
111.42474504163221
 32
0.0
 13
-159.49999999999989
 23
111.42474504163221
 33
0.0
  0
SOLID
  5
5F8
  8
DIMENSIONS
 62
     0
 10
-162.27276038069999
 20
111.75354301604889
 30
0.0
 11
-162.27276038069999
 21
111.0959470672155
 31
0.0
 12
-160.29997253420001
 22
111.42474504163221
 32
0.0
 13
-160.29997253420001
 23
111.42474504163221
 33
0.0
  0
TEXT
  5
5F9
  8
0
 62
     0
 10
-179.1968481569302
 20
109.8247451369822
 30
0.0
 40
3.1999998092999991
  1
0.8
  0
POINT
  5
5FA
  8
DEFPOINTS
 62
     0
 10
-159.49999999999989
 20
119.2999877929999
 30
0.0
  0
POINT
  5
5FB
  8
DEFPOINTS
 62
     0
 10
-160.29997253420001
 20
130.84997558590001
 30
0.0
  0
POINT
  5
5FC
  8
DEFPOINTS
 62
     0
 10
-160.29997253420001
 20
111.42474504163221
 30
0.0
  0
ENDBLK
  5
198
  8
0
  0
BLOCK
  8
0
  2
*D21
 70
     1
 10
0.0
 20
0.0
 30
0.0
  3
*D21
  1

  0
LINE
  5
5D7
  8
DIMENSIONS
 62
     0
 10
-78.373561132426531
 20
42.523311422984861
 30
0.0
 11
-80.346348978926528
 21
42.523311422984868
 31
0.0
  0
LINE
  5
5D8
  8
DIMENSIONS
 62
     0
 10
-80.346348978926528
 20
42.523311422984868
 30
0.0
 11
-58.014291724212327
 21
64.254946010289743
 31
0.0
  0
INSERT
  5
5D9
  8
0
  2
*U28
 10
0.0
 20
0.0
 30
0.0
  0
SOLID
  5
5DA
  8
DIMENSIONS
 62
     0
 10
-58.24359767676404
 20
64.490587449991807
 30
0.0
 11
-57.784985771660608
 21
64.019304570587664
 31
0.0
 12
-56.600443085999991
 22
65.630781725599988
 32
0.0
 13
-56.600443085999991
 23
65.630781725599988
 33
0.0
  0
LINE
  5
5DB
  8
DIMENSIONS
 62
     0
 10
-48.090340295849998
 20
73.99966100604999
 30
0.0
 11
-47.910340295849998
 21
73.99966100604999
 31
0.0
  0
LINE
  5
5DC
  8
DIMENSIONS
 62
     0
 10
-48.000340295850009
 20
73.909661006049987
 30
0.0
 11
-48.000340295850009
 21
74.089661006049994
 31
0.0
  0
POINT
  5
5DD
  8
DEFPOINTS
 62
     0
 10
-56.600443085999991
 20
65.630781725599988
 30
0.0
  0
POINT
  5
5DE
  8
DEFPOINTS
 62
     0
 10
-39.400237505699998
 20
82.368540286499979
 30
0.0
  0
ENDBLK
  5
1A9
  8
0
  0
BLOCK
  8
0
  2
*D22
 70
     1
 10
0.0
 20
0.0
 30
0.0
  3
*D22
  1

  0
LINE
  5
5C3
  8
DIMENSIONS
 62
     0
 10
-40.160012245099999
 20
55.5
 30
0.0
 11
20.014140527805012
 21
55.499999999999979
 31
0.0
  0
LINE
  5
5C4
  8
DIMENSIONS
 62
     0
 10
-40.160012245099999
 20
92.499984741200009
 30
0.0
 11
20.014140527805012
 21
92.499984741199995
 31
0.0
  0
LINE
  5
5C5
  8
DIMENSIONS
 62
     0
 10
16.20414058500501
 20
57.472787846499969
 30
0.0
 11
16.20414058500501
 21
64.844355405522293
 31
0.0
  0
LINE
  5
5C6
  8
DIMENSIONS
 62
     0
 10
16.204140585005021
 20
90.527196894699998
 30
0.0
 11
16.204140585005021
 21
80.491021150472278
 31
0.0
  0
SOLID
  5
5C7
  8
DIMENSIONS
 62
     0
 10
15.875342610588341
 20
57.472787846499983
 30
0.0
 11
16.53293855942168
 21
57.472787846499969
 31
0.0
 12
16.20414058500501
 22
55.499999999999979
 32
0.0
 13
16.20414058500501
 23
55.499999999999979
 33
0.0
  0
SOLID
  5
5C8
  8
DIMENSIONS
 62
     0
 10
15.87534261058835
 20
90.527196894699998
 30
0.0
 11
16.532938559421691
 21
90.527196894699998
 31
0.0
 12
16.204140585005021
 22
92.499984741199995
 32
0.0
 13
16.204140585005021
 23
92.499984741199995
 33
0.0
  0
TEXT
  5
5C9
  8
0
 62
     0
 10
17.804140489655001
 20
64.934355405522282
 30
0.0
 40
3.1999998092999991
  1
37.037
 50
90.0
  0
POINT
  5
5CA
  8
DEFPOINTS
 62
     0
 10
-42.700012207
 20
55.5
 30
0.0
  0
POINT
  5
5CB
  8
DEFPOINTS
 62
     0
 10
-42.700012207
 20
92.499984741200009
 30
0.0
  0
POINT
  5
5CC
  8
DEFPOINTS
 62
     0
 10
16.204140585005021
 20
92.499984741199995
 30
0.0
  0
ENDBLK
  5
1B5
  8
0
  0
BLOCK
  8
0
  2
*D23
 70
     1
 10
0.0
 20
0.0
 30
0.0
  3
*D23
  1

  0
LINE
  5
5CD
  8
DIMENSIONS
 62
     0
 10
-62.800003051799997
 20
93.539999961899994
 30
0.0
 11
-62.800003051799997
 21
111.2872669284108
 31
0.0
  0
LINE
  5
5CE
  8
DIMENSIONS
 62
     0
 10
-33.200012207
 20
93.539984703100004
 30
0.0
 11
-33.200012207
 21
111.2872669284108
 31
0.0
  0
LINE
  5
5CF
  8
DIMENSIONS
 62
     0
 10
-60.8272152053
 20
107.4772669856108
 30
0.0
 11
-55.894770306129409
 21
107.4772669856108
 31
0.0
  0
LINE
  5
5D0
  8
DIMENSIONS
 62
     0
 10
-35.172800053499991
 20
107.4772669856108
 30
0.0
 11
-40.24810456117941
 21
107.4772669856108
 31
0.0
  0
SOLID
  5
5D1
  8
DIMENSIONS
 62
     0
 10
-60.8272152053
 20
107.8060649600275
 30
0.0
 11
-60.8272152053
 21
107.14846901119409
 31
0.0
 12
-62.800003051799997
 22
107.4772669856108
 32
0.0
 13
-62.800003051799997
 23
107.4772669856108
 33
0.0
  0
SOLID
  5
5D2
  8
DIMENSIONS
 62
     0
 10
-35.172800053499991
 20
107.8060649600275
 30
0.0
 11
-35.172800053499991
 21
107.14846901119409
 31
0.0
 12
-33.200012207
 22
107.4772669856108
 32
0.0
 13
-33.200012207
 23
107.4772669856108
 33
0.0
  0
TEXT
  5
5D3
  8
0
 62
     0
 10
-55.804770306129413
 20
105.87726708096081
 30
0.0
 40
3.1999998092999991
  1
29.630
  0
POINT
  5
5D4
  8
DEFPOINTS
 62
     0
 10
-62.800003051799997
 20
91.0
 30
0.0
  0
POINT
  5
5D5
  8
DEFPOINTS
 62
     0
 10
-33.200012207
 20
90.999984741200009
 30
0.0
  0
POINT
  5
5D6
  8
DEFPOINTS
 62
     0
 10
-33.200012207
 20
107.4772669856108
 30
0.0
  0
ENDBLK
  5
1C1
  8
0
  0
BLOCK
  8
0
  2
*D25
 70
     1
 10
0.0
 20
0.0
 30
0.0
  3
*D25
  1

  0
LINE
  5
580
  8
DIMENSIONS
 62
     0
 10
-159.49998474119991
 20
116.7599725722999
 30
0.0
 11
-159.49998474119991
 21
109.38999700539991
 31
0.0
  0
LINE
  5
581
  8
DIMENSIONS
 62
     0
 10
-111.0
 20
117.96000003810001
 30
0.0
 11
-111.0
 21
109.38999700539991
 31
0.0
  0
LINE
  5
582
  8
DIMENSIONS
 62
     0
 10
-157.5271968946999
 20
113.1999969481999
 30
0.0
 11
-140.1399920845499
 21
113.1999969481999
 31
0.0
  0
LINE
  5
583
  8
DIMENSIONS
 62
     0
 10
-112.9727878465
 20
113.1999969481999
 30
0.0
 11
-130.35999265664989
 21
113.1999969481999
 31
0.0
  0
SOLID
  5
584
  8
DIMENSIONS
 62
     0
 10
-157.5271968946999
 20
113.5287949226166
 30
0.0
 11
-157.5271968946999
 21
112.87119897378329
 31
0.0
 12
-159.49998474119991
 22
113.1999969481999
 32
0.0
 13
-159.49998474119991
 23
113.1999969481999
 33
0.0
  0
SOLID
  5
585
  8
DIMENSIONS
 62
     0
 10
-112.9727878465
 20
113.5287949226166
 30
0.0
 11
-112.9727878465
 21
112.87119897378329
 31
0.0
 12
-111.0
 22
113.1999969481999
 32
0.0
 13
-111.0
 23
113.1999969481999
 33
0.0
  0
TEXT
  5
586
  8
0
 62
     0
 10
-140.0499920845499
 20
111.59999704354991
 30
0.0
 40
3.1999998092999991
  1
48.5
  0
POINT
  5
587
  8
DEFPOINTS
 62
     0
 10
-159.49998474119991
 20
119.2999725341999
 30
0.0
  0
POINT
  5
588
  8
DEFPOINTS
 62
     0
 10
-111.0
 20
120.5
 30
0.0
  0
POINT
  5
589
  8
DEFPOINTS
 62
     0
 10
-111.0
 20
113.1999969481999
 30
0.0
  0
ENDBLK
  5
387
  8
0
  0
BLOCK
  8
0
  2
*D26
 70
     1
 10
0.0
 20
0.0
 30
0.0
  3
*D26
  1

  0
LINE
  5
5DF
  8
DIMENSIONS
 62
     0
 10
-102.96000003809991
 20
119.5
 30
0.0
 11
-75.860605200595714
 21
119.4999999999999
 31
0.0
  0
LINE
  5
5E0
  8
DIMENSIONS
 62
     0
 10
-102.96000003809991
 20
148.5
 30
0.0
 11
-75.860605200595714
 21
148.5
 31
0.0
  0
LINE
  5
5E1
  8
DIMENSIONS
 62
     0
 10
-79.670605143395704
 20
121.4727878464999
 30
0.0
 11
-79.670605143395704
 21
122.81538682690081
 31
0.0
  0
LINE
  5
5E2
  8
DIMENSIONS
 62
     0
 10
-79.670605143395704
 20
146.5272121534999
 30
0.0
 11
-79.670605143395704
 21
141.6620523811508
 31
0.0
  0
SOLID
  5
5E3
  8
DIMENSIONS
 62
     0
 10
-79.999403117812392
 20
121.4727878464999
 30
0.0
 11
-79.341807168979045
 21
121.4727878464999
 31
0.0
 12
-79.670605143395704
 22
119.4999999999999
 32
0.0
 13
-79.670605143395704
 23
119.4999999999999
 33
0.0
  0
SOLID
  5
5E4
  8
DIMENSIONS
 62
     0
 10
-79.999403117812392
 20
146.5272121534999
 30
0.0
 11
-79.341807168979045
 21
146.5272121534999
 31
0.0
 12
-79.670605143395704
 22
148.5
 32
0.0
 13
-79.670605143395704
 23
148.5
 33
0.0
  0
INSERT
  5
5E5
  8
0
  2
*U29
 10
0.0
 20
0.0
 30
0.0
  0
POINT
  5
5E6
  8
DEFPOINTS
 62
     0
 10
-105.4999999999999
 20
119.5
 30
0.0
  0
POINT
  5
5E7
  8
DEFPOINTS
 62
     0
 10
-105.4999999999999
 20
148.5
 30
0.0
  0
POINT
  5
5E8
  8
DEFPOINTS
 62
     0
 10
-79.670605143395704
 20
148.5
 30
0.0
  0
ENDBLK
  5
393
  8
0
  0
BLOCK
  8
0
  2
*D27
 70
     1
 10
0.0
 20
0.0
 30
0.0
  3
*D27
  1

  0
LINE
  5
5FD
  8
DIMENSIONS
 62
     0
 10
-98.0
 20
117.75998783109991
 30
0.0
 11
-98.0
 21
104.7438520313886
 31
0.0
  0
LINE
  5
5FE
  8
DIMENSIONS
 62
     0
 10
-111.0
 20
117.96000003810001
 30
0.0
 11
-111.0
 21
104.7438520313886
 31
0.0
  0
LINE
  5
5FF
  8
DIMENSIONS
 62
     0
 10
-109.0272121534999
 20
108.5538519741886
 30
0.0
 11
-99.972787846499983
 21
108.5538519741886
 31
0.0
  0
LINE
  5
600
  8
DIMENSIONS
 62
     0
 10
-98.0
 20
108.5538519741886
 30
0.0
 11
-91.095329857342861
 21
108.5538519741886
 31
0.0
  0
SOLID
  5
601
  8
DIMENSIONS
 62
     0
 10
-109.0272121534999
 20
108.88264994860531
 30
0.0
 11
-109.0272121534999
 21
108.2250539997719
 31
0.0
 12
-111.0
 22
108.5538519741886
 32
0.0
 13
-111.0
 23
108.5538519741886
 33
0.0
  0
SOLID
  5
602
  8
DIMENSIONS
 62
     0
 10
-99.972787846499983
 20
108.88264994860531
 30
0.0
 11
-99.972787846499983
 21
108.2250539997719
 31
0.0
 12
-98.0
 22
108.5538519741886
 32
0.0
 13
-98.0
 23
108.5538519741886
 33
0.0
  0
TEXT
  5
603
  8
0
 62
     0
 10
-91.005329857342858
 20
106.9538520695386
 30
0.0
 40
3.1999998092999991
  1
13.013
  0
POINT
  5
604
  8
DEFPOINTS
 62
     0
 10
-98.0
 20
120.2999877929999
 30
0.0
  0
POINT
  5
605
  8
DEFPOINTS
 62
     0
 10
-111.0
 20
120.5
 30
0.0
  0
POINT
  5
606
  8
DEFPOINTS
 62
     0
 10
-111.0
 20
108.5538519741886
 30
0.0
  0
ENDBLK
  5
39F
  8
0
  0
BLOCK
  8
0
  2
*U28
 70
     1
 10
0.0
 20
0.0
 30
0.0
  3
*U28
  1

  0
TEXT
  5
685
  8
0
 62
     0
 10
-78.283561132426541
 20
40.92331151833487
 30
0.0
 40
3.1999998092999991
  1
\U+220524.0
  0
TEXT
  5
686
  8
0
 62
     0
 10
-64.950228593676542
 20
40.92331151833487
 30
0.0
 40
3.1999998092999991
  1
\U+2205
  0
TEXT
  5
687
  8
0
 62
     0
 10
-61.750228784376539
 20
40.92331151833487
 30
0.0
 40
3.1999998092999991
  1
24
  0
ENDBLK
  5
689
  8
0
  0
BLOCK
  8
0
  2
*U29
 70
     1
 10
0.0
 20
0.0
 30
0.0
  3
*U29
  1

  0
TEXT
  5
68B
  8
0
 62
     0
 10
-78.070605238745713
 20
122.90538682690079
 30
0.0
 40
3.1999998092999991
  1
29.0
 50
90.0
  0
TEXT
  5
68C
  8
0
 62
     0
 10
-78.070605238745713
 20
133.0387195563508
 30
0.0
 40
3.1999998092999991
  1
\U+2205
 50
90.0
  0
TEXT
  5
68D
  8
0
 62
     0
 10
-78.070605238745713
 20
136.23871936565081
 30
0.0
 40
3.1999998092999991
  1
29
 50
90.0
  0
ENDBLK
  5
68F
  8
0
  0
BLOCK
  8
0
  2
*U30
 70
     1
 10
0.0
 20
0.0
 30
0.0
  3
*U30
  1

  0
TEXT
  5
691
  8
0
 10
-132.0964966174281
 20
168.1546384566507
 30
0.0
 40
3.1999998092999991
  1
ABW110 (w/ cover)
  0
TEXT
  5
692
  8
0
 10
-132.0964966174281
 20
162.82130544115071
 30
0.0
 40
3.1999998092999991
  1
(dimensions in mm)
  0
ENDBLK
  5
694
  8
0
  0
ENDSEC
  0
SECTION
  2
ENTITIES
  0
DIMENSION
  5
CE
  8
DIMENSIONS
  2
*D17
 10
22.308526085882932
 20
54.10003662109996
 30
0.0
 11
22.308526085882921
 21
74.461996356863096
 31
0.0
 70
   128
 13
-48.5
 23
93.899993896499979
 33
0.0
 14
-48.5
 24
54.100036621100003
 34
0.0
 50
270.0
1001
ACAD
1000
DSTYLE
1002
{
1070
    41
1040
1.9727878464999999
1070
    42
1040
2.5399999618999991
1070
    44
1040
3.8099999427999989
1070
    73
1070
     0
1070
   140
1040
3.1999998092999991
1070
   271
1070
     1
1070
   272
1070
     1
1002
}
  0
LINE
  5
DB
  8
LAYER4$C$L4
  6
PHANTOM
 62
     3
 10
-62.099990844700002
 20
91.953933715800005
 30
0.0
 11
-62.099990844700002
 21
93.399993896499993
 31
0.0
  0
ARC
  5
DD
  8
LAYER4$C$L4
  6
PHANTOM
 62
     3
 10
-48.5
 20
54.600051879900001
 30
0.0
 40
0.5
 50
269.99996334460002
 51
359.99987273089988
  0
DIMENSION
  5
DE
  8
DIMENSIONS
  2
*D18
 10
-163.0
 20
101.7354808507235
 30
0.0
 11
-137.12363712530501
 21
101.7354808507235
 31
0.0
 70
   128
 13
-111.0
 23
120.5
 33
0.0
 14
-163.0
 24
119.89999389649989
 34
0.0
 50
180.0
1001
ACAD
1000
DSTYLE
1002
{
1070
    41
1040
1.9727878464999999
1070
    42
1040
2.5399999618999991
1070
    44
1040
3.8099999427999989
1070
    73
1070
     0
1070
   140
1040
3.1999998092999991
1070
   271
1070
     1
1070
   272
1070
     1
1002
}
  0
LINE
  5
EA
  8
LAYER4$C$L4
  6
PHANTOM
 62
     3
 10
-48.0
 20
54.600036621100003
 30
0.0
 11
-48.0
 21
55.5
 31
0.0
  0
POLYLINE
  5
EB
  8
LAYER4$C$L4
  6
PHANTOM
 62
     3
 66
     1
 10
0.0
 20
0.0
 30
0.0
  0
VERTEX
  5
611
  8
LAYER4$C$L4
  6
PHANTOM
 62
     3
 10
-160.21281862859999
 20
126.73721065700001
 30
0.0
  0
VERTEX
  5
612
  8
LAYER4$C$L4
  6
PHANTOM
 62
     3
 10
-160.39489821219991
 20
127.0985379120999
 30
0.0
  0
VERTEX
  5
613
  8
LAYER4$C$L4
  6
PHANTOM
 62
     3
 10
-160.60064939439999
 20
127.39186246520001
 30
0.0
  0
VERTEX
  5
614
  8
LAYER4$C$L4
  6
PHANTOM
 62
     3
 10
-160.8248870571
 20
127.6097922689999
 30
0.0
  0
VERTEX
  5
615
  8
LAYER4$C$L4
  6
PHANTOM
 62
     3
 10
-161.06196020609991
 20
127.7468352929999
 30
0.0
  0
VERTEX
  5
616
  8
LAYER4$C$L4
  6
PHANTOM
 62
     3
 10
-161.30589438119989
 20
127.7995379277
 30
0.0
  0
VERTEX
  5
617
  8
LAYER4$C$L4
  6
PHANTOM
 62
     3
 10
-161.5505422178
 20
127.7665720185
 30
0.0
  0
VERTEX
  5
618
  8
LAYER4$C$L4
  6
PHANTOM
 62
     3
 10
-161.78973836659989
 20
127.6487683363999
 30
0.0
  0
VERTEX
  5
619
  8
LAYER4$C$L4
  6
PHANTOM
 62
     3
 10
-162.01745486589999
 20
127.4490956419999
 30
0.0
  0
VERTEX
  5
61A
  8
LAYER4$C$L4
  6
PHANTOM
 62
     3
 10
-162.22795305139991
 20
127.1725858699
 30
0.0
  0
VERTEX
  5
61B
  8
LAYER4$C$L4
  6
PHANTOM
 62
     3
 10
-162.4159281762999
 20
126.8262073194
 30
0.0
  0
VERTEX
  5
61C
  8
LAYER4$C$L4
  6
PHANTOM
 62
     3
 10
-162.5766430955
 20
126.4186890468
 30
0.0
  0
VERTEX
  5
61D
  8
LAYER4$C$L4
  6
PHANTOM
 62
     3
 10
-162.70604764589999
 20
125.96030088569999
 30
0.0
  0
VERTEX
  5
61E
  8
LAYER4$C$L4
  6
PHANTOM
 62
     3
 10
-162.80088071439991
 20
125.46259463689999
 30
0.0
  0
VERTEX
  5
61F
  8
LAYER4$C$L4
  6
PHANTOM
 62
     3
 10
-162.8587524209
 20
124.9381129535
 30
0.0
  0
VERTEX
  5
620
  8
LAYER4$C$L4
  6
PHANTOM
 62
     3
 10
-162.8782043455999
 20
124.4000732537999
 30
0.0
  0
VERTEX
  5
621
  8
LAYER4$C$L4
  6
PHANTOM
 62
     3
 10
-162.858746282
 20
123.86203463049991
 30
0.0
  0
VERTEX
  5
622
  8
LAYER4$C$L4
  6
PHANTOM
 62
     3
 10
-162.80086859119999
 20
123.3375561491
 30
0.0
  0
VERTEX
  5
623
  8
LAYER4$C$L4
  6
PHANTOM
 62
     3
 10
-162.70602984399989
 20
122.8398551474999
 30
0.0
  0
VERTEX
  5
624
  8
LAYER4$C$L4
  6
PHANTOM
 62
     3
 10
-162.57662006349989
 20
122.38147414619991
 30
0.0
  0
VERTEX
  5
625
  8
LAYER4$C$L4
  6
PHANTOM
 62
     3
 10
-162.4159004947
 20
121.97396476580001
 30
0.0
  0
VERTEX
  5
626
  8
LAYER4$C$L4
  6
PHANTOM
 62
     3
 10
-162.2279214177
 20
121.6275966156999
 30
0.0
  0
VERTEX
  5
627
  8
LAYER4$C$L4
  6
PHANTOM
 62
     3
 10
-162.01742007729999
 20
121.3510984902
 30
0.0
  0
VERTEX
  5
628
  8
LAYER4$C$L4
  6
PHANTOM
 62
     3
 10
-161.7897012999
 20
121.1514383948999
 30
0.0
  0
VERTEX
  5
629
  8
LAYER4$C$L4
  6
PHANTOM
 62
     3
 10
-161.55050380700001
 20
121.03364794709989
 30
0.0
  0
VERTEX
  5
62A
  8
LAYER4$C$L4
  6
PHANTOM
 62
     3
 10
-161.30585559439999
 20
121.0006955737999
 30
0.0
  0
VERTEX
  5
62B
  8
LAYER4$C$L4
  6
PHANTOM
 62
     3
 10
-161.06192202080001
 20
121.0534117049
 30
0.0
  0
VERTEX
  5
62C
  8
LAYER4$C$L4
  6
PHANTOM
 62
     3
 10
-160.82485043540001
 20
121.1904678457
 30
0.0
  0
VERTEX
  5
62D
  8
LAYER4$C$L4
  6
PHANTOM
 62
     3
 10
-160.60061525930001
 20
121.40841005599999
 30
0.0
  0
VERTEX
  5
62E
  8
LAYER4$C$L4
  6
PHANTOM
 62
     3
 10
-160.3948674239999
 20
121.7017459928
 30
0.0
  0
VERTEX
  5
62F
  8
LAYER4$C$L4
  6
PHANTOM
 62
     3
 10
-160.2127919630999
 20
122.0630833219
 30
0.0
  0
SEQEND
  5
630
  8
LAYER4$C$L4
  6
PHANTOM
 62
     3
  0
POLYLINE
  5
10C
  8
LAYER4$C$L4
  6
PHANTOM
 62
     3
 66
     1
 10
0.0
 20
0.0
 30
0.0
  0
VERTEX
  5
631
  8
LAYER4$C$L4
  6
PHANTOM
 62
     3
 10
-160.8886948780999
 20
127.6554601719
 30
0.0
  0
VERTEX
  5
632
  8
LAYER4$C$L4
  6
PHANTOM
 62
     3
 10
-161.0934352047999
 20
127.48382578019999
 30
0.0
  0
VERTEX
  5
633
  8
LAYER4$C$L4
  6
PHANTOM
 62
     3
 10
-161.28508340740001
 20
127.25010924359999
 30
0.0
  0
VERTEX
  5
634
  8
LAYER4$C$L4
  6
PHANTOM
 62
     3
 10
-161.45978116849989
 20
126.95901581139989
 30
0.0
  0
VERTEX
  5
635
  8
LAYER4$C$L4
  6
PHANTOM
 62
     3
 10
-161.61401142189999
 20
126.6164058616
 30
0.0
  0
VERTEX
  5
636
  8
LAYER4$C$L4
  6
PHANTOM
 62
     3
 10
-161.7446691589999
 20
126.2291769174999
 30
0.0
  0
VERTEX
  5
637
  8
LAYER4$C$L4
  6
PHANTOM
 62
     3
 10
-161.84912394029999
 20
125.80512478509991
 30
0.0
  0
VERTEX
  5
638
  8
LAYER4$C$L4
  6
PHANTOM
 62
     3
 10
-161.9252728516
 20
125.3527866055999
 30
0.0
  0
VERTEX
  5
639
  8
LAYER4$C$L4
  6
PHANTOM
 62
     3
 10
-161.97158284080001
 20
124.881268983
 30
0.0
  0
VERTEX
  5
63A
  8
LAYER4$C$L4
  6
PHANTOM
 62
     3
 10
-161.9871215819
 20
124.40006464770001
 30
0.0
  0
VERTEX
  5
63B
  8
LAYER4$C$L4
  6
PHANTOM
 62
     3
 10
-161.97157624409991
 20
123.91886134549991
 30
0.0
  0
VERTEX
  5
63C
  8
LAYER4$C$L4
  6
PHANTOM
 62
     3
 10
-161.925259791
 20
123.44734680169999
 30
0.0
  0
VERTEX
  5
63D
  8
LAYER4$C$L4
  6
PHANTOM
 62
     3
 10
-161.84910467869989
 20
122.99501368440001
 30
0.0
  0
VERTEX
  5
63E
  8
LAYER4$C$L4
  6
PHANTOM
 62
     3
 10
-161.74464408430001
 20
122.57096849599991
 30
0.0
  0
VERTEX
  5
63F
  8
LAYER4$C$L4
  6
PHANTOM
 62
     3
 10
-161.61398103879989
 20
122.1837482376
 30
0.0
  0
VERTEX
  5
640
  8
LAYER4$C$L4
  6
PHANTOM
 62
     3
 10
-161.4597460887999
 20
121.8411485405999
 30
0.0
  0
VERTEX
  5
641
  8
LAYER4$C$L4
  6
PHANTOM
 62
     3
 10
-161.28504433719991
 20
121.55006672170001
 30
0.0
  0
VERTEX
  5
642
  8
LAYER4$C$L4
  6
PHANTOM
 62
     3
 10
-161.09339293069991
 20
121.3163629252
 30
0.0
  0
VERTEX
  5
643
  8
LAYER4$C$L4
  6
PHANTOM
 62
     3
 10
-160.8886502512
 20
121.1447421438999
 30
0.0
  0
SEQEND
  5
644
  8
LAYER4$C$L4
  6
PHANTOM
 62
     3
  0
ARC
  5
121
  8
LAYER4$C$L4
  6
PHANTOM
 62
     3
 10
-154.59996032709989
 20
132.99996948239991
 30
0.0
 40
1.0
 50
0.0
 51
89.999982013899995
  0
ARC
  5
122
  8
LAYER4$C$L4
  6
PHANTOM
 62
     3
 10
-160.33084106449999
 20
124.4001159668
 30
0.0
 40
2.1680212020999998
 50
295.00004031069989
 51
64.999959689300027
  0
LINE
  5
123
  8
LAYER4$C$L4
  6
PHANTOM
 62
     3
 10
-159.41451106299991
 20
126.36500261479991
 30
0.0
 11
-160.21273016660001
 21
126.7372182382
 31
0.0
  0
LINE
  5
124
  8
LAYER4$C$L4
  6
PHANTOM
 62
     3
 10
-160.21282727019999
 20
122.0630029697999
 30
0.0
 11
-159.41462199590001
 21
122.4352121445999
 31
0.0
  0
LINE
  5
125
  8
LAYER4$C$L4
  6
PHANTOM
 62
     3
 10
-159.40000915530001
 20
122.4421081543
 30
0.0
 11
-159.40000915530001
 21
126.3582458496
 31
0.0
  0
LINE
  5
126
  8
LAYER4$C$L4
  6
PHANTOM
 62
     3
 10
-159.60000610349999
 20
122.34884643549989
 30
0.0
 11
-159.60000610349999
 21
126.4515075684
 31
0.0
  0
LINE
  5
127
  8
LAYER4$C$L4
  6
PHANTOM
 62
     3
 10
-160.21281433109999
 20
119.9001159668
 30
0.0
 11
-160.21281433109999
 21
122.0629577637
 31
0.0
  0
LINE
  5
128
  8
LAYER4$C$L4
  6
PHANTOM
 62
     3
 10
-160.21281433109999
 20
126.7371520995999
 30
0.0
 11
-160.21281433109999
 21
133.99996948239991
 31
0.0
  0
LINE
  5
129
  8
LAYER4$C$L4
  6
PHANTOM
 62
     3
 10
-162.0
 20
132.90000915530001
 30
0.0
 11
-163.0
 21
132.90000915530001
 31
0.0
  0
LINE
  5
12A
  8
LAYER4$C$L4
  6
PHANTOM
 62
     3
 10
-162.0
 20
129.7000427246
 30
0.0
 11
-162.0
 21
132.89999389650001
 31
0.0
  0
LINE
  5
12B
  8
LAYER4$C$L4
  6
PHANTOM
 62
     3
 10
-161.94515991209991
 20
129.7000579834
 30
0.0
 11
-163.0
 21
129.7000579834
 31
0.0
  0
LINE
  5
12C
  8
LAYER4$C$L4
  6
PHANTOM
 62
     3
 10
-161.94515991209991
 20
129.7000427246
 30
0.0
 11
-161.94515991209991
 21
133.99996948239991
 31
0.0
  0
LINE
  5
12D
  8
LAYER4$C$L4
  6
PHANTOM
 62
     3
 10
-149.5999908446999
 20
130.17636108400001
 30
0.0
 11
-149.5999908446999
 21
132.52975463870001
 31
0.0
  0
LINE
  5
12E
  8
LAYER4$C$L4
  6
PHANTOM
 62
     3
 10
-149.0999908446999
 20
129.7000427246
 30
0.0
 11
-149.0999908446999
 21
132.89999389650001
 31
0.0
  0
LINE
  5
12F
  8
LAYER4$C$L4
  6
PHANTOM
 62
     3
 10
-149.0999908446999
 20
132.90000915530001
 30
0.0
 11
-153.59996032709989
 21
132.90000915530001
 31
0.0
  0
LINE
  5
130
  8
LAYER4$C$L4
  6
PHANTOM
 62
     3
 10
-149.0999908446999
 20
129.7000579834
 30
0.0
 11
-153.59996032709989
 21
129.7000579834
 31
0.0
  0
LINE
  5
131
  8
LAYER4$C$L4
  6
PHANTOM
 62
     3
 10
-152.5999908446999
 20
120.8000335693
 30
0.0
 11
-153.59996032709989
 21
120.8000335693
 31
0.0
  0
LINE
  5
132
  8
LAYER4$C$L4
  6
PHANTOM
 62
     3
 10
-154.59996032709989
 20
133.9999847412
 30
0.0
 11
-163.0
 21
133.9999847412
 31
0.0
  0
LINE
  5
133
  8
LAYER4$C$L4
  6
PHANTOM
 62
     3
 10
-152.5999908446999
 20
119.9000091553
 30
0.0
 11
-163.0
 21
119.9000091553
 31
0.0
  0
LINE
  5
134
  8
LAYER4$C$L4
  6
PHANTOM
 62
     3
 10
-153.59996032709989
 20
120.80001831049999
 30
0.0
 11
-153.59996032709989
 21
132.99996948239991
 31
0.0
  0
ARC
  5
135
  8
LAYER4$C$L4
  6
PHANTOM
 62
     3
 10
-48.500015258799991
 20
93.400024414100002
 30
0.0
 40
0.5
 50
0.0
 51
89.999982013899995
  0
LINE
  5
136
  8
LAYER4$C$L4
  6
PHANTOM
 62
     3
 10
-163.0
 20
119.89999389649989
 30
0.0
 11
-163.0
 21
133.99996948239991
 31
0.0
  0
LINE
  5
137
  8
LAYER4$C$L4
  6
PHANTOM
 62
     3
 10
-152.5999908446999
 20
119.89999389649989
 30
0.0
 11
-152.5999908446999
 21
120.80001831049999
 31
0.0
  0
LINE
  5
138
  8
LAYER4$C$L4
  6
PHANTOM
 62
     3
 10
-48.0
 20
92.5
 30
0.0
 11
-48.0
 21
93.399993896499993
 31
0.0
  0
ARC
  5
139
  8
LAYER4$C$L4
  6
PHANTOM
 62
     3
 10
-157.2127990722999
 20
62.499984741200002
 30
0.0
 40
1.0
 50
26.99991878909999
 51
89.999708806300006
  0
ARC
  5
13A
  8
LAYER4$C$L4
  6
PHANTOM
 62
     3
 10
-157.21269226070001
 20
85.499969482400004
 30
0.0
 40
1.0
 50
270.00023655209992
 51
333.00011877700001
  0
LINE
  5
13B
  8
LAYER4$C$L4
  6
PHANTOM
 62
     3
 10
-159.80000305179991
 20
70.199981689499992
 30
0.0
 11
-159.59999084469999
 21
70.199981689499992
 31
0.0
  0
LINE
  5
13C
  8
LAYER4$C$L4
  6
PHANTOM
 62
     3
 10
-159.80000305179991
 20
77.799972534199995
 30
0.0
 11
-159.59999084469999
 21
77.799972534199995
 31
0.0
  0
LINE
  5
13D
  8
LAYER4$C$L4
  6
PHANTOM
 62
     3
 10
-152.5999597396999
 20
55.649510824700002
 30
0.0
 11
-156.3217657122
 21
62.953967016299998
 31
0.0
  0
LINE
  5
13E
  8
LAYER4$C$L4
  6
PHANTOM
 62
     3
 10
-160.21280244899989
 20
54.100031166299999
 30
0.0
 11
-162.9999849349999
 21
59.570185311300001
 31
0.0
  0
LINE
  5
13F
  8
LAYER4$C$L4
  6
PHANTOM
 62
     3
 10
-152.5999908446999
 20
54.099990844700002
 30
0.0
 11
-152.5999908446999
 21
55.649551391599999
 31
0.0
  0
LINE
  5
140
  8
LAYER4$C$L4
  6
PHANTOM
 62
     3
 10
-152.5999908446999
 20
54.099990844700002
 30
0.0
 11
-160.2127990722999
 21
54.099990844700002
 31
0.0
  0
LINE
  5
141
  8
LAYER4$C$L4
  6
PHANTOM
 62
     3
 10
-157.2127990722999
 20
63.499984741200002
 30
0.0
 11
-159.80000305179991
 21
63.499984741200002
 31
0.0
  0
LINE
  5
142
  8
LAYER4$C$L4
  6
PHANTOM
 62
     3
 10
-156.3216886731
 20
85.045965856599992
 30
0.0
 11
-152.59993119200001
 21
92.350326878299995
 31
0.0
  0
LINE
  5
143
  8
LAYER4$C$L4
  6
PHANTOM
 62
     3
 10
-159.80000305179991
 20
63.499984741200002
 30
0.0
 11
-159.80000305179991
 21
84.499969482400004
 31
0.0
  0
LINE
  5
144
  8
LAYER4$C$L4
  6
PHANTOM
 62
     3
 10
-162.9998881498999
 20
88.429651873799997
 30
0.0
 11
-160.21269180920001
 21
93.899833210099985
 31
0.0
  0
LINE
  5
145
  8
LAYER4$C$L4
  6
PHANTOM
 62
     3
 10
-152.5999908446999
 20
92.350402832000015
 30
0.0
 11
-152.5999908446999
 21
93.899963378899997
 31
0.0
  0
LINE
  5
146
  8
LAYER4$C$L4
  6
PHANTOM
 62
     3
 10
-61.599990844700002
 20
93.899993896499979
 30
0.0
 11
-48.5
 21
93.899993896499979
 31
0.0
  0
LINE
  5
147
  8
LAYER4$C$L4
  6
PHANTOM
 62
     3
 10
-159.80000305179991
 20
84.499969482400004
 30
0.0
 11
-157.21269226070001
 21
84.499969482400004
 31
0.0
  0
LINE
  5
148
  8
LAYER4$C$L4
  6
PHANTOM
 62
     3
 10
-160.2127990722999
 20
93.899963378899997
 30
0.0
 11
-152.5999908446999
 21
93.899963378899997
 31
0.0
  0
LINE
  5
149
  8
LAYER4$C$L4
  6
PHANTOM
 62
     3
 10
-159.59999084469999
 20
70.199981689499992
 30
0.0
 11
-159.59999084469999
 21
77.799972534199995
 31
0.0
  0
LINE
  5
14A
  8
LAYER4$C$L4
  6
PHANTOM
 62
     3
 10
-62.099990844700002
 20
54.600036621100003
 30
0.0
 11
-62.099990844700002
 21
56.046066284200002
 31
0.0
  0
LINE
  5
155
  8
LAYER4$C$L4
  6
PHANTOM
 62
     3
 10
-48.5
 20
54.100036621100003
 30
0.0
 11
-61.599990844700002
 21
54.100036621100003
 31
0.0
  0
ARC
  5
156
  8
LAYER4$C$L4
  6
PHANTOM
 62
     3
 10
-61.6000061035
 20
93.400024414100002
 30
0.0
 40
0.5
 50
90.000145938500026
 51
180.00007331079999
  0
TEXT
  5
158
  8
LAYER8$C$L8
 62
     3
 10
-45.160476684599992
 20
161.0966949463
 30
0.0
 40
2.5
  1

 72
     5
 11
-45.160476684599992
 21
161.0966949463
 31
0.0
  0
TEXT
  5
15A
  8
LAYER8$C$L8
 62
     3
 10
-45.160476684599992
 20
161.0966949463
 30
0.0
 40
2.5
  1

 72
     5
 11
-45.160476684599992
 21
161.0966949463
 31
0.0
  0
TEXT
  5
15C
  8
LAYER8$C$L8
 62
     3
 10
-45.160476684599992
 20
161.0966949463
 30
0.0
 40
2.5
  1

 72
     5
 11
-45.160476684599992
 21
161.0966949463
 31
0.0
  0
LINE
  5
171
  8
LAYER4$C$L4
  6
PHANTOM
 62
     3
 10
-163.0
 20
59.570175170900001
 30
0.0
 11
-163.0
 21
88.429779052699999
 31
0.0
  0
ARC
  5
18A
  8
LAYER4$C$L4
  6
PHANTOM
 62
     3
 10
-61.599990844700002
 20
54.600051879900001
 30
0.0
 40
0.5
 50
180.0000906137
 51
270.00001798609998
  0
DIMENSION
  5
18C
  8
DIMENSIONS
  2
*D20
 10
-160.29997253420001
 20
111.42474504163221
 30
0.0
 11
-176.2635149984053
 21
111.42474504163221
 31
0.0
 70
   128
 13
-159.49999999999989
 23
119.2999877929999
 33
0.0
 14
-160.29997253420001
 24
130.84997558590001
 34
0.0
 50
180.0
1001
ACAD
1000
DSTYLE
1002
{
1070
    41
1040
1.9727878464999999
1070
    42
1040
2.5399999618999991
1070
    44
1040
3.8099999427999989
1070
    73
1070
     0
1070
   140
1040
3.1999998092999991
1070
   271
1070
     1
1070
   272
1070
     1
1002
}
  0
ARC
  5
199
  8
LAYER1$C$L1
 62
     3
 10
-34.200012207
 20
90.999984741200009
 30
0.0
 40
1.0
 50
0.000072627560058
 51
89.999982013899995
  0
ARC
  5
19A
  8
LAYER1$C$L1
 62
     3
 10
-34.200012207
 20
57.0
 30
0.0
 40
1.0
 50
270.00012726910001
 51
0.000072627600094
  0
ARC
  5
19B
  8
LAYER1$C$L1
 62
     3
 10
-61.800003051799997
 20
91.0
 30
0.0
 40
1.0
 50
89.999982013899995
 51
179.9999640277999
  0
ARC
  5
19C
  8
LAYER1$C$L1
 62
     3
 10
-61.800003051799997
 20
57.000015258799998
 30
0.0
 40
1.0
 50
179.9999640277999
 51
269.9999460416999
  0
CIRCLE
  5
19D
  8
LAYER1$C$L1
 62
     3
 10
-48.0
 20
74.0
 30
0.0
 40
14.0
  0
CIRCLE
  5
19E
  8
LAYER1$C$L1
 62
     3
 10
-48.0
 20
74.0
 30
0.0
 40
12.0
  0
CIRCLE
  5
19F
  8
LAYER1$C$L1
 62
     3
 10
-48.0
 20
74.0
 30
0.0
 40
14.5
  0
DIMENSION
  5
1A0
  8
DIMENSIONS
  2
*D21
 10
-39.400237505699998
 20
82.368540286499979
 30
0.0
 11
-67.350228450651542
 21
42.523311422984868
 31
0.0
 70
   131
  1
<>%%c24
 15
-56.600443085999991
 25
65.630781725599988
 35
0.0
 40
0.0
1001
ACAD
1000
DSTYLE
1002
{
1070
    41
1040
1.9727878464999999
1070
    42
1040
2.5399999618999991
1070
    44
1040
3.8099999427999989
1070
    73
1070
     0
1070
   140
1040
3.1999998092999991
1070
   271
1070
     1
1070
   272
1070
     1
1002
}
  0
DIMENSION
  5
1AA
  8
DIMENSIONS
  2
*D22
 10
16.204140585005021
 20
92.499984741199995
 30
0.0
 11
16.204140585005
 21
72.667688277997286
 31
0.0
 70
   129
  1
<>37
 13
-42.700012207
 23
55.5
 33
0.0
 14
-42.700012207
 24
92.499984741200009
 34
0.0
1001
ACAD
1000
DSTYLE
1002
{
1070
    41
1040
1.9727878464999999
1070
    42
1040
2.5399999618999991
1070
    44
1040
3.8099999427999989
1070
    73
1070
     0
1070
   140
1040
3.1999998092999991
1070
   271
1070
     1
1070
   272
1070
     1
1002
}
  0
DIMENSION
  5
1B6
  8
DIMENSIONS
  2
*D23
 10
-33.200012207
 20
107.4772669856108
 30
0.0
 11
-48.07143743365441
 21
107.4772669856108
 31
0.0
 70
   128
  1
<>30
 13
-62.800003051799997
 23
91.0
 33
0.0
 14
-33.200012207
 24
90.999984741200009
 34
0.0
1001
ACAD
1000
DSTYLE
1002
{
1070
    41
1040
1.9727878464999999
1070
    42
1040
2.5399999618999991
1070
    44
1040
3.8099999427999989
1070
    73
1070
     0
1070
   140
1040
3.1999998092999991
1070
   271
1070
     1
1070
   272
1070
     1
1002
}
  0
LINE
  5
1C2
  8
LAYER1$C$L1
 62
     3
 10
-48.000015258799991
 20
90.5
 30
0.0
 11
-43.800003051799997
 21
90.5
 31
0.0
  0
LINE
  5
1C3
  8
LAYER1$C$L1
 62
     3
 10
-48.000015258799991
 20
57.5
 30
0.0
 11
-43.800003051799997
 21
57.5
 31
0.0
  0
LINE
  5
1C4
  8
LAYER1$C$L1
 62
     3
 10
-48.000015258799991
 20
92.5
 30
0.0
 11
-46.90000915529999
 21
92.5
 31
0.0
  0
LINE
  5
1C5
  8
LAYER1$C$L1
 62
     3
 10
-42.700012207
 20
55.5
 30
0.0
 11
-52.200012207
 21
55.5
 31
0.0
  0
LINE
  5
1C6
  8
LAYER1$C$L1
 62
     3
 10
-43.800003051799997
 20
92.5
 30
0.0
 11
-43.800003051799997
 21
90.5
 31
0.0
  0
LINE
  5
1C7
  8
LAYER1$C$L1
 62
     3
 10
-43.800003051799997
 20
57.5
 30
0.0
 11
-43.800003051799997
 21
55.5
 31
0.0
  0
LINE
  5
1C8
  8
LAYER1$C$L1
 62
     3
 10
-46.90000915529999
 20
92.5
 30
0.0
 11
-46.90000915529999
 21
90.5
 31
0.0
  0
LINE
  5
1C9
  8
LAYER1$C$L1
 62
     3
 10
-46.90000915529999
 20
57.5
 30
0.0
 11
-46.90000915529999
 21
55.5
 31
0.0
  0
LINE
  5
1CA
  8
LAYER1$C$L1
 62
     3
 10
-46.90000915529999
 20
55.5
 30
0.0
 11
-48.000015258799991
 21
55.5
 31
0.0
  0
LINE
  5
1CB
  8
LAYER1$C$L1
 62
     3
 10
-52.200012207
 20
92.5
 30
0.0
 11
-42.700012207
 21
92.5
 31
0.0
  0
LINE
  5
1CC
  8
LAYER1$C$L1
 62
     3
 10
-42.700012207
 20
92.0
 30
0.0
 11
-42.700012207
 21
92.5
 31
0.0
  0
LINE
  5
1CD
  8
LAYER1$C$L1
 62
     3
 10
-42.700012207
 20
56.0
 30
0.0
 11
-42.700012207
 21
55.5
 31
0.0
  0
LINE
  5
1CE
  8
LAYER1$C$L1
 62
     3
 10
-42.700012207
 20
92.0
 30
0.0
 11
-34.200012207
 21
92.0
 31
0.0
  0
LINE
  5
1CF
  8
LAYER1$C$L1
 62
     3
 10
-42.700012207
 20
56.0
 30
0.0
 11
-34.200012207
 21
56.0
 31
0.0
  0
LINE
  5
1D0
  8
LAYER1$C$L1
 62
     3
 10
-33.200012207
 20
91.0
 30
0.0
 11
-33.200012207
 21
57.0
 31
0.0
  0
LINE
  5
1D1
  8
LAYER1$C$L1
 62
     3
 10
-52.200012207
 20
90.5
 30
0.0
 11
-48.000015258799991
 21
90.5
 31
0.0
  0
LINE
  5
1D2
  8
LAYER1$C$L1
 62
     3
 10
-52.200012207
 20
57.5
 30
0.0
 11
-48.000015258799991
 21
57.5
 31
0.0
  0
LINE
  5
1D3
  8
LAYER1$C$L1
 62
     3
 10
-49.1000061035
 20
92.5
 30
0.0
 11
-48.000015258799991
 21
92.5
 31
0.0
  0
LINE
  5
1D4
  8
LAYER1$C$L1
 62
     3
 10
-52.200012207
 20
55.5
 30
0.0
 11
-53.300003051799997
 21
55.5
 31
0.0
  0
LINE
  5
1D5
  8
LAYER1$C$L1
 62
     3
 10
-52.200012207
 20
90.5
 30
0.0
 11
-52.200012207
 21
92.5
 31
0.0
  0
LINE
  5
1D6
  8
LAYER1$C$L1
 62
     3
 10
-52.200012207
 20
55.5
 30
0.0
 11
-52.200012207
 21
57.5
 31
0.0
  0
LINE
  5
1D7
  8
LAYER1$C$L1
 62
     3
 10
-49.1000061035
 20
90.5
 30
0.0
 11
-49.1000061035
 21
92.5
 31
0.0
  0
LINE
  5
1D8
  8
LAYER1$C$L1
 62
     3
 10
-49.1000061035
 20
55.5
 30
0.0
 11
-49.1000061035
 21
57.5
 31
0.0
  0
LINE
  5
1D9
  8
LAYER1$C$L1
 62
     3
 10
-48.000015258799991
 20
55.5
 30
0.0
 11
-49.1000061035
 21
55.5
 31
0.0
  0
LINE
  5
1DA
  8
LAYER1$C$L1
 62
     3
 10
-53.300003051799997
 20
92.5
 30
0.0
 11
-52.200012207
 21
92.5
 31
0.0
  0
LINE
  5
1DB
  8
LAYER1$C$L1
 62
     3
 10
-53.300003051799997
 20
92.5
 30
0.0
 11
-53.300003051799997
 21
92.0
 31
0.0
  0
LINE
  5
1DC
  8
LAYER1$C$L1
 62
     3
 10
-53.300003051799997
 20
55.5
 30
0.0
 11
-53.300003051799997
 21
56.0
 31
0.0
  0
LINE
  5
1DD
  8
LAYER1$C$L1
 62
     3
 10
-61.800003051799997
 20
92.0
 30
0.0
 11
-53.300003051799997
 21
92.0
 31
0.0
  0
LINE
  5
1DE
  8
LAYER1$C$L1
 62
     3
 10
-61.800003051799997
 20
56.0
 30
0.0
 11
-53.300003051799997
 21
56.0
 31
0.0
  0
LINE
  5
1DF
  8
LAYER1$C$L1
 62
     3
 10
-62.800003051799997
 20
57.0
 30
0.0
 11
-62.800003051799997
 21
91.0
 31
0.0
  0
LINE
  5
1E0
  8
LAYER3$C$L3
  6
CENTERLINE
 62
     3
 10
-48.000015258799991
 20
51.689743041999989
 30
0.0
 11
-48.000015258799991
 21
96.402252197300001
 31
0.0
  0
LINE
  5
1E1
  8
LAYER3$C$L3
  6
CENTERLINE
 62
     3
 10
-65.554000854500003
 20
74.0
 30
0.0
 11
-30.633987426800001
 21
74.0
 31
0.0
  0
TEXT
  5
1E3
  8
LAYER8$C$L8
 62
     3
 10
-155.4500579834
 20
79.688196964399992
 30
0.0
 40
1.5
  1
UÇâ600V IÇîÇà10A
 50
270.0
 41
0.5474450447759033
 72
     5
 11
-155.4500579834
 21
68.3287122853
 31
0.0
  0
TEXT
  5
1E7
  8
LAYER8$C$L8
 62
     3
 10
-134.49998474119991
 20
147.8166541418
 30
0.0
 40
3.5
  1
TW
 50
270.0
 41
0.9333343142285741
 72
     5
 11
-134.49998474119991
 21
141.2833139421999
 31
0.0
  0
POLYLINE
  5
1E8
  8
LAYER1$C$L1
 62
     3
 66
     1
 10
0.0
 20
0.0
 30
0.0
  0
VERTEX
  5
645
  8
LAYER1$C$L1
 62
     3
 10
-152.5497131347999
 20
121.3501129149999
 30
0.0
  0
VERTEX
  5
646
  8
LAYER1$C$L1
 62
     3
 10
-152.36903771429991
 20
121.37938098629991
 30
0.0
  0
VERTEX
  5
647
  8
LAYER1$C$L1
 62
     3
 10
-152.19138402019999
 20
121.4666957029
 30
0.0
  0
VERTEX
  5
648
  8
LAYER1$C$L1
 62
     3
 10
-152.01972324159991
 20
121.6105967602
 30
0.0
  0
VERTEX
  5
649
  8
LAYER1$C$L1
 62
     3
 10
-151.85692633830001
 20
121.8086774687
 30
0.0
  0
VERTEX
  5
64A
  8
LAYER1$C$L1
 62
     3
 10
-151.70571602559991
 20
122.0576250054
 30
0.0
  0
VERTEX
  5
64B
  8
LAYER1$C$L1
 62
     3
 10
-151.5686212370999
 20
122.35327581929999
 30
0.0
  0
VERTEX
  5
64C
  8
LAYER1$C$L1
 62
     3
 10
-151.44793483009991
 20
122.6906852651999
 30
0.0
  0
VERTEX
  5
64D
  8
LAYER1$C$L1
 62
     3
 10
-151.34567523789991
 20
123.06421030109991
 30
0.0
  0
VERTEX
  5
64E
  8
LAYER1$C$L1
 62
     3
 10
-151.2635527125999
 20
123.4676038654999
 30
0.0
  0
VERTEX
  5
64F
  8
LAYER1$C$L1
 62
     3
 10
-151.2029407215
 20
123.8941193575
 30
0.0
  0
VERTEX
  5
650
  8
LAYER1$C$L1
 62
     3
 10
-151.1648529766
 20
124.336623471
 30
0.0
  0
VERTEX
  5
651
  8
LAYER1$C$L1
 62
     3
 10
-151.14992648079991
 20
124.7877154962999
 30
0.0
  0
VERTEX
  5
652
  8
LAYER1$C$L1
 62
     3
 10
-151.15841087379991
 20
125.23985109429999
 30
0.0
  0
VERTEX
  5
653
  8
LAYER1$C$L1
 62
     3
 10
-151.1901642576
 20
125.6854684722999
 30
0.0
  0
VERTEX
  5
654
  8
LAYER1$C$L1
 62
     3
 10
-151.24465556899989
 20
126.1171148527
 30
0.0
  0
VERTEX
  5
655
  8
LAYER1$C$L1
 62
     3
 10
-151.32097346200001
 20
126.52757111699999
 30
0.0
  0
VERTEX
  5
656
  8
LAYER1$C$L1
 62
     3
 10
-151.41784154949991
 20
126.9099725435
 30
0.0
  0
VERTEX
  5
657
  8
LAYER1$C$L1
 62
     3
 10
-151.53363975030001
 20
127.2579236167
 30
0.0
  0
VERTEX
  5
658
  8
LAYER1$C$L1
 62
     3
 10
-151.66643138430001
 20
127.56560498969991
 30
0.0
  0
VERTEX
  5
659
  8
LAYER1$C$L1
 62
     3
 10
-151.81399556299991
 20
127.8278708109999
 30
0.0
  0
VERTEX
  5
65A
  8
LAYER1$C$L1
 62
     3
 10
-151.97386433279999
 20
128.0403347864999
 30
0.0
  0
VERTEX
  5
65B
  8
LAYER1$C$L1
 62
     3
 10
-152.14336395039999
 20
128.1994435384
 30
0.0
  0
VERTEX
  5
65C
  8
LAYER1$C$L1
 62
     3
 10
-152.31965960049999
 20
128.3025360346999
 30
0.0
  0
VERTEX
  5
65D
  8
LAYER1$C$L1
 62
     3
 10
-152.49980280679989
 20
128.3478880934
 30
0.0
  0
SEQEND
  5
65E
  8
LAYER1$C$L1
 62
     3
  0
POLYLINE
  5
203
  8
LAYER1$C$L1
 62
     3
 66
     1
 10
0.0
 20
0.0
 30
0.0
  0
VERTEX
  5
65F
  8
LAYER1$C$L1
 62
     3
 10
-155.08384877309999
 20
122.36079246669991
 30
0.0
  0
VERTEX
  5
660
  8
LAYER1$C$L1
 62
     3
 10
-154.9558484522
 20
122.0808269594
 30
0.0
  0
VERTEX
  5
661
  8
LAYER1$C$L1
 62
     3
 10
-154.8152135695
 20
121.8417298035999
 30
0.0
  0
VERTEX
  5
662
  8
LAYER1$C$L1
 62
     3
 10
-154.66401957549991
 20
121.64702952889991
 30
0.0
  0
VERTEX
  5
663
  8
LAYER1$C$L1
 62
     3
 10
-154.50449774910001
 20
121.49959946749991
 30
0.0
  0
VERTEX
  5
664
  8
LAYER1$C$L1
 62
     3
 10
-154.33900226899991
 20
121.40161535129999
 30
0.0
  0
VERTEX
  5
665
  8
LAYER1$C$L1
 62
     3
 10
-154.16997547150001
 20
121.3545232028
 30
0.0
  0
VERTEX
  5
666
  8
LAYER1$C$L1
 62
     3
 10
-153.99991180699999
 20
121.35901799459999
 30
0.0
  0
VERTEX
  5
667
  8
LAYER1$C$L1
 62
     3
 10
-153.83132102779999
 20
121.4150333938999
 30
0.0
  0
VERTEX
  5
668
  8
LAYER1$C$L1
 62
     3
 10
-153.6666911495999
 20
121.521742741
 30
0.0
  0
VERTEX
  5
669
  8
LAYER1$C$L1
 62
     3
 10
-153.5084517345
 20
121.6775712492
 30
0.0
  0
VERTEX
  5
66A
  8
LAYER1$C$L1
 62
     3
 10
-153.3589380356
 20
121.8802192445
 30
0.0
  0
VERTEX
  5
66B
  8
LAYER1$C$L1
 62
     3
 10
-153.2203565346
 20
122.12669610419999
 30
0.0
  0
SEQEND
  5
66C
  8
LAYER1$C$L1
 62
     3
  0
POLYLINE
  5
212
  8
LAYER1$C$L1
 62
     3
 66
     1
 10
0.0
 20
0.0
 30
0.0
  0
VERTEX
  5
66D
  8
LAYER1$C$L1
 62
     3
 10
-153.28365001739991
 20
127.6939991215
 30
0.0
  0
VERTEX
  5
66E
  8
LAYER1$C$L1
 62
     3
 10
-153.43652646399991
 20
127.9324979057
 30
0.0
  0
VERTEX
  5
66F
  8
LAYER1$C$L1
 62
     3
 10
-153.60039036680001
 20
128.1199289953
 30
0.0
  0
VERTEX
  5
670
  8
LAYER1$C$L1
 62
     3
 10
-153.77252689580001
 20
128.25318710849999
 30
0.0
  0
VERTEX
  5
671
  8
LAYER1$C$L1
 62
     3
 10
-153.9500841631999
 20
128.33006447929989
 30
0.0
  0
VERTEX
  5
672
  8
LAYER1$C$L1
 62
     3
 10
-154.1301204728
 20
128.34928743489991
 30
0.0
  0
VERTEX
  5
673
  8
LAYER1$C$L1
 62
     3
 10
-154.30965305660001
 20
128.3105374973
 30
0.0
  0
VERTEX
  5
674
  8
LAYER1$C$L1
 62
     3
 10
-154.48570749219991
 20
128.21445665940001
 30
0.0
  0
VERTEX
  5
675
  8
LAYER1$C$L1
 62
     3
 10
-154.6553669816
 20
128.0626367495
 30
0.0
  0
VERTEX
  5
676
  8
LAYER1$C$L1
 62
     3
 10
-154.81582067569991
 20
127.8575930576
 30
0.0
  0
VERTEX
  5
677
  8
LAYER1$C$L1
 62
     3
 10
-154.96441024329991
 20
127.6027226639999
 30
0.0
  0
VERTEX
  5
678
  8
LAYER1$C$L1
 62
     3
 10
-155.0986739132
 20
127.30224815699999
 30
0.0
  0
VERTEX
  5
679
  8
LAYER1$C$L1
 62
     3
 10
-155.2163872596999
 20
126.9611476755999
 30
0.0
  0
VERTEX
  5
67A
  8
LAYER1$C$L1
 62
     3
 10
-155.3156000562999
 20
126.5850724330999
 30
0.0
  0
VERTEX
  5
67B
  8
LAYER1$C$L1
 62
     3
 10
-155.39466858590001
 20
126.1802530904
 30
0.0
  0
VERTEX
  5
67C
  8
LAYER1$C$L1
 62
     3
 10
-155.45228287340001
 20
125.7533965289
 30
0.0
  0
VERTEX
  5
67D
  8
LAYER1$C$L1
 62
     3
 10
-155.4874883889
 20
125.3115747337
 30
0.0
  0
VERTEX
  5
67E
  8
LAYER1$C$L1
 62
     3
 10
-155.4997018617
 20
124.8621076275999
 30
0.0
  0
VERTEX
  5
67F
  8
LAYER1$C$L1
 62
     3
 10
-155.48872094399991
 20
124.41244179810001
 30
0.0
  0
VERTEX
  5
680
  8
LAYER1$C$L1
 62
     3
 10
-155.45472756320001
 20
123.9700271248
 30
0.0
  0
VERTEX
  5
681
  8
LAYER1$C$L1
 62
     3
 10
-155.39828490779999
 20
123.5421933530999
 30
0.0
  0
VERTEX
  5
682
  8
LAYER1$C$L1
 62
     3
 10
-155.32032809649999
 20
123.1360286580999
 30
0.0
  0
SEQEND
  5
683
  8
LAYER1$C$L1
 62
     3
  0
ARC
  5
22A
  8
LAYER1$C$L1
 62
     3
 10
-153.56423950199999
 20
83.129806518600006
 30
0.0
 40
0.1999999881
 50
264.80169761259992
 51
345.52905237530001
  0
ARC
  5
22B
  8
LAYER1$C$L1
 62
     3
 10
-154.63345336910001
 20
83.674606323199995
 30
0.0
 40
0.1999999881
 50
264.80186153709991
 51
345.52899773379988
  0
ARC
  5
22C
  8
LAYER1$C$L1
 62
     3
 10
-150.22520446780001
 20
89.683029174799998
 30
0.0
 40
0.1999999881
 50
320.47098027290002
 51
41.198427243200051
  0
ARC
  5
22D
  8
LAYER1$C$L1
 62
     3
 10
-151.29440307620001
 20
90.227828979499989
 30
0.0
 40
0.1999999881
 50
320.47103491450002
 51
41.1982633187
  0
ARC
  5
22E
  8
LAYER1$C$L1
 62
     3
 10
-155.83760070799991
 20
85.704879760699995
 30
0.0
 40
1.0
 50
170.57102448239999
 51
237.99996336509989
  0
ARC
  5
22F
  8
LAYER1$C$L1
 62
     3
 10
-153.64472961429991
 20
90.008590698199995
 30
0.0
 40
1.0
 50
67.999942697299986
 51
135.42893622150001
  0
ARC
  5
230
  8
LAYER1$C$L1
 62
     3
 10
-147.94567871090001
 20
84.394210815400001
 30
0.0
 40
9.0
 50
135.42904550450001
 51
170.57102448239999
  0
ARC
  5
231
  8
LAYER1$C$L1
 62
     3
 10
-153.56423950199999
 20
64.8701629639
 30
0.0
 40
0.1999999881
 50
14.470910058599991
 51
95.198302387400005
  0
ARC
  5
232
  8
LAYER1$C$L1
 62
     3
 10
-154.63345336910001
 20
64.325363159199995
 30
0.0
 40
0.1999999881
 50
14.470964700199991
 51
95.198138462900005
  0
ARC
  5
233
  8
LAYER1$C$L1
 62
     3
 10
-150.22520446780001
 20
58.316940307599999
 30
0.0
 40
0.1999999881
 50
318.80156251149998
 51
39.5290197271
  0
ARC
  5
234
  8
LAYER1$C$L1
 62
     3
 10
-151.29440307620001
 20
57.772140502900001
 30
0.0
 40
0.1999999881
 50
318.80172643599991
 51
39.52896508550004
  0
ARC
  5
235
  8
LAYER1$C$L1
 62
     3
 10
-155.83760070799991
 20
62.295089721700002
 30
0.0
 40
1.0
 50
122.0000193321
 51
189.42901285630001
  0
ARC
  5
236
  8
LAYER1$C$L1
 62
     3
 10
-153.64472961429991
 20
57.991378784200002
 30
0.0
 40
1.0
 50
224.57100913699989
 51
292.00005730269999
  0
ARC
  5
237
  8
LAYER1$C$L1
 62
     3
 10
-147.94567871090001
 20
63.605758666999989
 30
0.0
 40
9.0
 50
189.42903015909991
 51
224.57100913699989
  0
ARC
  5
238
  8
LAYER1$C$L1
 62
     3
 10
-158.26007080080001
 20
71.389816284199995
 30
0.0
 40
0.067499935627
 50
180.00003597220001
 51
270.00001798609998
  0
ARC
  5
239
  8
LAYER1$C$L1
 62
     3
 10
-157.1800689696999
 20
71.389816284199995
 30
0.0
 40
0.067499935627
 50
270.00001798609998
 51
0.0
  0
ARC
  5
23A
  8
LAYER1$C$L1
 62
     3
 10
-157.99006652829991
 20
72.334884643599992
 30
0.0
 40
0.3374999762
 50
89.999927372399995
 51
179.9999640277999
  0
ARC
  5
23B
  8
LAYER1$C$L1
 62
     3
 10
-157.45005798339989
 20
72.334884643599992
 30
0.0
 40
0.3374999762
 50
0.0
 51
89.999927372399995
  0
ARC
  5
23C
  8
LAYER1$C$L1
 62
     3
 10
-158.26007080080001
 20
72.919845581099992
 30
0.0
 40
0.067499935627
 50
180.00003597220001
 51
270.00001798609998
  0
ARC
  5
23D
  8
LAYER1$C$L1
 62
     3
 10
-157.99006652829991
 20
73.954879760699995
 30
0.0
 40
0.3374999762
 50
89.999927372399995
 51
179.9999640277999
  0
ARC
  5
23E
  8
LAYER1$C$L1
 62
     3
 10
-157.1800689696999
 20
72.919845581099992
 30
0.0
 40
0.067499935627
 50
270.00001798609998
 51
0.0
  0
ARC
  5
23F
  8
LAYER1$C$L1
 62
     3
 10
-157.45005798339989
 20
73.954879760699995
 30
0.0
 40
0.3374999762
 50
0.0
 51
89.999927372399995
  0
ARC
  5
240
  8
LAYER1$C$L1
 62
     3
 10
-158.26007080080001
 20
74.539840698199995
 30
0.0
 40
0.067499935627
 50
180.00003597220001
 51
270.00001798609998
  0
ARC
  5
241
  8
LAYER1$C$L1
 62
     3
 10
-156.6400604248
 20
74.539840698199995
 30
0.0
 40
0.067499935627
 50
270.00001798609998
 51
0.0
  0
ARC
  5
242
  8
LAYER1$C$L1
 62
     3
 10
-156.6400604248
 20
75.034835815400001
 30
0.0
 40
0.067499935627
 50
0.0
 51
89.999927372399995
  0
ARC
  5
243
  8
LAYER1$C$L1
 62
     3
 10
-157.99006652829991
 20
75.529830932600007
 30
0.0
 40
0.3374999762
 50
89.999927372399995
 51
179.9999640277999
  0
ARC
  5
244
  8
LAYER1$C$L1
 62
     3
 10
-157.3150634765999
 20
75.529830932600007
 30
0.0
 40
0.3374999762
 50
0.0
 51
89.999927372399995
  0
ARC
  5
245
  8
LAYER1$C$L1
 62
     3
 10
-158.26007080080001
 20
76.114913940400001
 30
0.0
 40
0.067499935627
 50
180.00003597220001
 51
270.00001798609998
  0
ARC
  5
246
  8
LAYER1$C$L1
 62
     3
 10
-158.26007080080001
 20
76.609909057600007
 30
0.0
 40
0.067499935627
 50
89.999927372399995
 51
179.9999640277999
  0
ARC
  5
247
  8
LAYER1$C$L1
 62
     3
 10
-156.6400604248
 20
76.114913940400001
 30
0.0
 40
0.067499935627
 50
270.00001798609998
 51
0.0
  0
ARC
  5
248
  8
LAYER1$C$L1
 62
     3
 10
-156.6400604248
 20
76.609909057600007
 30
0.0
 40
0.067499935627
 50
0.0
 51
89.999927372399995
  0
ARC
  5
249
  8
LAYER1$C$L1
 62
     3
 10
-158.9999389647999
 20
92.000167846699995
 30
0.0
 40
0.5
 50
90.000091296900024
 51
180.00001866929989
  0
ARC
  5
24A
  8
LAYER1$C$L1
 62
     3
 10
-150.89996337889991
 20
91.2002410889
 30
0.0
 40
0.5999999046
 50
90.000091296900024
 51
242.9999350450999
  0
ARC
  5
24B
  8
LAYER1$C$L1
 62
     3
 10
-158.99996948239991
 20
56.000167846700002
 30
0.0
 40
0.5
 50
180.00003597220001
 51
269.99996334460002
  0
ARC
  5
24C
  8
LAYER1$C$L1
 62
     3
 10
-150.89999389650001
 20
56.800216674799998
 30
0.0
 40
0.5999999046
 50
117.00004765209989
 51
269.9999460416999
  0
ARC
  5
24D
  8
LAYER1$C$L1
 62
     3
 10
-152.63864135739991
 20
65.327438354500003
 30
0.0
 40
0.7999997139000001
 50
179.9999640277999
 51
206.9999750243999
  0
ARC
  5
24E
  8
LAYER1$C$L1
 62
     3
 10
-152.63864135739991
 20
82.673141479500003
 30
0.0
 40
0.7999997139000001
 50
153.00006231419999
 51
180.00007331079999
  0
ARC
  5
24F
  8
LAYER1$C$L1
 62
     3
 10
-140.0
 20
119.7999877929999
 30
0.0
 40
0.5
 50
270.00001798609998
 51
0.0
  0
ARC
  5
250
  8
LAYER1$C$L1
 62
     3
 10
-159.2997131347999
 20
119.5
 30
0.0
 40
0.1999999881
 50
180.00003597220001
 51
270.00001798609998
  0
ARC
  5
251
  8
LAYER1$C$L1
 62
     3
 10
-154.62037658689991
 20
122.5483093262
 30
0.0
 40
0.5
 50
149.99980609859989
 51
202.03470070540001
  0
ARC
  5
252
  8
LAYER1$C$L1
 62
     3
 10
-152.55937194820001
 20
125.9180603027
 30
0.0
 40
0.5
 50
89.999818089400023
 51
149.99986074020001
  0
ARC
  5
253
  8
LAYER1$C$L1
 62
     3
 10
-152.78407287600001
 20
126.72886657709989
 30
0.0
 40
0.5
 50
89.999927372399995
 51
149.99991538169991
  0
ARC
  5
254
  8
LAYER1$C$L1
 62
     3
 10
-150.5997161864999
 20
126.6001129149999
 30
0.0
 40
0.5
 50
179.9999093863
 51
269.9999460416999
  0
ARC
  5
255
  8
LAYER1$C$L1
 62
     3
 10
-150.5997161864999
 20
123.100112915
 30
0.0
 40
0.5
 50
89.999927372399995
 51
179.99985474479999
  0
ARC
  5
256
  8
LAYER1$C$L1
 62
     3
 10
-153.30410766599999
 20
125.1989746094
 30
0.0
 40
3.2500247954999999
 50
71.506015402100005
 51
110.5385247727
  0
ARC
  5
257
  8
LAYER1$C$L1
 62
     3
 10
-153.30410766599999
 20
124.5012664795
 30
0.0
 40
3.2500324249000001
 50
255.83005289249991
 51
288.49518671120001
  0
ARC
  5
258
  8
LAYER1$C$L1
 62
     3
 10
-159.79997253420001
 20
69.499984741199995
 30
0.0
 40
0.5
 50
179.9999640277999
 51
269.9999460416999
  0
ARC
  5
259
  8
LAYER1$C$L1
 62
     3
 10
-159.79997253420001
 20
78.499984741199995
 30
0.0
 40
0.5
 50
89.999982013899995
 51
179.9999640277999
  0
ARC
  5
25A
  8
LAYER1$C$L1
 62
     3
 10
-159.79997253420001
 20
130.84997558590001
 30
0.0
 40
0.5
 50
179.9999640277999
 51
269.9999460416999
  0
ARC
  5
25B
  8
LAYER1$C$L1
 62
     3
 10
-159.79997253420001
 20
137.14997863769989
 30
0.0
 40
0.5
 50
89.999982013899995
 51
179.9999640277999
  0
ARC
  5
25C
  8
LAYER1$C$L1
 62
     3
 10
-119.30000305179991
 20
134.0
 30
0.0
 40
1.0
 50
180.0000906137
 51
270.00007262759988
  0
ARC
  5
25D
  8
LAYER1$C$L1
 62
     3
 10
-126.0
 20
119.6999969481999
 30
0.0
 40
0.5
 50
270.00007262759988
 51
0.0
  0
ARC
  5
25E
  8
LAYER1$C$L1
 62
     3
 10
-125.0
 20
122.5
 30
0.0
 40
0.5
 50
89.999927372399995
 51
179.9999640277999
  0
ARC
  5
25F
  8
LAYER1$C$L1
 62
     3
 10
-119.30000305179991
 20
134.0
 30
0.0
 40
1.0
 50
89.999927372399995
 51
179.9999093863
  0
ARC
  5
260
  8
LAYER1$C$L1
 62
     3
 10
-125.9999847412
 20
148.29998779300001
 30
0.0
 40
0.5
 50
0.0
 51
89.999927372399995
  0
ARC
  5
261
  8
LAYER1$C$L1
 62
     3
 10
-124.9999847412
 20
145.5
 30
0.0
 40
0.5
 50
179.9999093863
 51
269.9999460416999
  0
ARC
  5
262
  8
LAYER1$C$L1
 62
     3
 10
-125.0
 20
62.499984741200002
 30
0.0
 40
0.5
 50
89.999927372399995
 51
179.9999640277999
  0
ARC
  5
263
  8
LAYER1$C$L1
 62
     3
 10
-126.0
 20
55.999984741200002
 30
0.0
 40
0.5
 50
270.00007262759988
 51
0.0
  0
ARC
  5
264
  8
LAYER1$C$L1
 62
     3
 10
-126.0
 20
56.499984741200002
 30
0.0
 40
0.5
 50
270.00007262759988
 51
0.0
  0
ARC
  5
265
  8
LAYER1$C$L1
 62
     3
 10
-124.9999847412
 20
85.499984741199995
 30
0.0
 40
0.5
 50
179.9999093863
 51
269.9999460416999
  0
ARC
  5
266
  8
LAYER1$C$L1
 62
     3
 10
-125.9999847412
 20
91.999984741199995
 30
0.0
 40
0.5
 50
0.0
 51
89.999927372399995
  0
ARC
  5
267
  8
LAYER1$C$L1
 62
     3
 10
-125.9999847412
 20
91.499984741200024
 30
0.0
 40
0.5
 50
0.0
 51
89.999927372399995
  0
LINE
  5
26F
  8
LAYER1$C$L1
 62
     3
 10
-139.5
 20
55.500076293900001
 30
0.0
 11
-139.5
 21
92.49989318850001
 31
0.0
  0
LINE
  5
270
  8
LAYER1$C$L1
 62
     3
 10
-151.86348641469991
 20
89.701232032299998
 30
0.0
 11
-152.5763351443
 21
90.064446567299996
 31
0.0
  0
LINE
  5
271
  8
LAYER1$C$L1
 62
     3
 10
-154.54204120910001
 20
84.444271756099994
 30
0.0
 11
-155.25488993880001
 21
84.807486291199979
 31
0.0
  0
LINE
  5
272
  8
LAYER1$C$L1
 62
     3
 10
-152.7010598478
 20
85.41428173140001
 30
0.0
 11
-152.8372791530999
 21
85.146936266400004
 31
0.0
  0
LINE
  5
273
  8
LAYER1$C$L1
 62
     3
 10
-152.8371507713
 20
85.146948826400006
 30
0.0
 11
-153.37064466449999
 21
83.079793856400016
 31
0.0
  0
LINE
  5
274
  8
LAYER1$C$L1
 62
     3
 10
-153.58248034629989
 20
82.930581865200011
 30
0.0
 11
-153.9494947600999
 21
82.963973195199998
 31
0.0
  0
LINE
  5
275
  8
LAYER1$C$L1
 62
     3
 10
-155.01869666859989
 20
83.508769697799991
 30
0.0
 11
-154.6516974509
 21
83.475379750399995
 31
0.0
  0
LINE
  5
276
  8
LAYER1$C$L1
 62
     3
 10
-154.43986113779991
 20
83.624519979599995
 30
0.0
 11
-153.90636724449999
 21
85.691674949599999
 31
0.0
  0
LINE
  5
277
  8
LAYER1$C$L1
 62
     3
 10
-151.56608369919991
 20
87.641798054799992
 30
0.0
 11
-151.42991981259991
 21
87.909034754300009
 31
0.0
  0
LINE
  5
278
  8
LAYER1$C$L1
 62
     3
 10
-151.4298939016
 20
87.909108833999994
 30
0.0
 11
-150.0711102864
 21
89.555757676900001
 31
0.0
  0
LINE
  5
279
  8
LAYER1$C$L1
 62
     3
 10
-150.07491913149991
 20
89.814804175300011
 30
0.0
 11
-150.31765896979999
 21
90.092098141899996
 31
0.0
  0
LINE
  5
27A
  8
LAYER1$C$L1
 62
     3
 10
-152.49920457670001
 20
88.453905241599998
 30
0.0
 11
-151.1404209614999
 21
90.100554084599992
 31
0.0
  0
LINE
  5
27B
  8
LAYER1$C$L1
 62
     3
 10
-151.1441098487999
 20
90.359560347399992
 30
0.0
 11
-151.38684968699991
 21
90.636854313899974
 31
0.0
  0
LINE
  5
27C
  8
LAYER1$C$L1
 62
     3
 10
-153.68057361539999
 20
83.051336151800001
 30
0.0
 11
-154.2151553507999
 21
83.323720202000004
 31
0.0
  0
LINE
  5
27D
  8
LAYER1$C$L1
 62
     3
 10
-150.23023801400001
 20
89.823064032699989
 30
0.0
 11
-150.76482039309991
 21
90.095446795499996
 31
0.0
  0
LINE
  5
27E
  8
LAYER1$C$L1
 62
     3
 10
-154.2875575942
 20
89.569598772199996
 30
0.0
 11
-155.96489881700001
 21
88.480320789400011
 31
0.0
  0
LINE
  5
27F
  8
LAYER1$C$L1
 62
     3
 10
-155.91245808950001
 20
87.481482636199999
 30
0.0
 11
-155.9647940520999
 21
88.480112146599993
 31
0.0
  0
LINE
  5
280
  8
LAYER1$C$L1
 62
     3
 10
-153.32472091209991
 20
85.732052885499996
 30
0.0
 11
-152.75723283779999
 21
86.845811047199987
 31
0.0
  0
LINE
  5
281
  8
LAYER1$C$L1
 62
     3
 10
-152.18974476349999
 20
87.959569208899993
 30
0.0
 11
-152.75723283779999
 21
86.845811047199987
 31
0.0
  0
LINE
  5
282
  8
LAYER1$C$L1
 62
     3
 10
-153.77022417680001
 20
85.959048115300007
 30
0.0
 11
-153.32472091209991
 21
85.732052885499996
 31
0.0
  0
LINE
  5
283
  8
LAYER1$C$L1
 62
     3
 10
-152.63524802820001
 20
88.186564438600001
 30
0.0
 11
-152.18974476349999
 21
87.959569208899993
 31
0.0
  0
LINE
  5
284
  8
LAYER1$C$L1
 62
     3
 10
-152.2555565831
 20
85.187286501700001
 30
0.0
 11
-151.1205804345
 21
87.414802824999995
 31
0.0
  0
LINE
  5
285
  8
LAYER1$C$L1
 62
     3
 10
-152.7010598478
 20
85.41428173140001
 30
0.0
 11
-152.2555565831
 21
85.187286501700001
 31
0.0
  0
LINE
  5
286
  8
LAYER1$C$L1
 62
     3
 10
-151.56608369919991
 20
87.641798054799992
 30
0.0
 11
-151.1205804345
 21
87.414802824999995
 31
0.0
  0
LINE
  5
287
  8
LAYER1$C$L1
 62
     3
 10
-154.2787390785
 20
86.723251029099984
 30
0.0
 11
-153.20274897900001
 21
87.072861338500005
 31
0.0
  0
LINE
  5
288
  8
LAYER1$C$L1
 62
     3
 10
-152.6579475415999
 20
88.142022916000002
 30
0.0
 11
-153.73393764109991
 21
87.792412606599996
 31
0.0
  0
LINE
  5
289
  8
LAYER1$C$L1
 62
     3
 10
-152.3266349573999
 20
90.554412880399994
 30
0.0
 11
-153.2702867502
 21
90.935672964099979
 31
0.0
  0
LINE
  5
28A
  8
LAYER1$C$L1
 62
     3
 10
-156.36770721560001
 20
84.856865388499997
 30
0.0
 11
-155.50454498629989
 21
84.3175018206
 31
0.0
  0
LINE
  5
28B
  8
LAYER1$C$L1
 62
     3
 10
-152.3266182241
 20
90.55454366459999
 30
0.0
 11
-155.5045514402
 21
84.317497959299999
 31
0.0
  0
LINE
  5
28C
  8
LAYER1$C$L1
 62
     3
 10
-153.9495336112999
 20
82.964013775799998
 30
0.0
 11
-155.0186979403
 21
83.508780159599993
 31
0.0
  0
LINE
  5
28D
  8
LAYER1$C$L1
 62
     3
 10
-155.0186979403
 20
83.508780159599993
 30
0.0
 11
-151.38677426469999
 21
90.636832394199985
 31
0.0
  0
LINE
  5
28E
  8
LAYER1$C$L1
 62
     3
 10
-150.31760993569989
 20
90.092066010400004
 30
0.0
 11
-151.38677426469999
 21
90.636832394199985
 31
0.0
  0
LINE
  5
28F
  8
LAYER1$C$L1
 62
     3
 10
-152.57626696049991
 20
57.935571003600003
 30
0.0
 11
-151.86341823090001
 21
58.298785538699988
 31
0.0
  0
LINE
  5
290
  8
LAYER1$C$L1
 62
     3
 10
-155.25480790029991
 20
63.1925040884
 30
0.0
 11
-154.54195917070001
 21
63.555718623399997
 31
0.0
  0
LINE
  5
291
  8
LAYER1$C$L1
 62
     3
 10
-152.83721096939999
 20
62.853081304500002
 30
0.0
 11
-152.70100551869999
 21
62.585763030899997
 31
0.0
  0
LINE
  5
292
  8
LAYER1$C$L1
 62
     3
 10
-153.37062869819991
 20
64.920203154399999
 30
0.0
 11
-152.83714243110001
 21
62.853077733799999
 31
0.0
  0
LINE
  5
293
  8
LAYER1$C$L1
 62
     3
 10
-153.9494867290999
 20
65.036007803399997
 30
0.0
 11
-153.58247231530001
 21
65.069399133399997
 31
0.0
  0
LINE
  5
294
  8
LAYER1$C$L1
 62
     3
 10
-154.65168941990001
 20
64.524601248300002
 30
0.0
 11
-155.01868863760001
 21
64.491211300800003
 31
0.0
  0
LINE
  5
295
  8
LAYER1$C$L1
 62
     3
 10
-153.90634365209991
 20
62.308292511800012
 30
0.0
 11
-154.4398375454
 21
64.375447481899997
 31
0.0
  0
LINE
  5
296
  8
LAYER1$C$L1
 62
     3
 10
-151.42983777410001
 20
60.090955625299991
 30
0.0
 11
-151.5660432247999
 21
60.358273898900002
 31
0.0
  0
LINE
  5
297
  8
LAYER1$C$L1
 62
     3
 10
-150.07108283509999
 20
58.444340276000013
 30
0.0
 11
-151.42986645039991
 21
60.090989119
 31
0.0
  0
LINE
  5
298
  8
LAYER1$C$L1
 62
     3
 10
-150.3176014906
 20
57.907991632099993
 30
0.0
 11
-150.0748616523999
 21
58.185285598599989
 31
0.0
  0
LINE
  5
299
  8
LAYER1$C$L1
 62
     3
 10
-151.1403546633999
 20
57.899496791700003
 30
0.0
 11
-152.4991382787
 21
59.546145634600002
 31
0.0
  0
LINE
  5
29A
  8
LAYER1$C$L1
 62
     3
 10
-151.38678072670001
 20
57.363225409599991
 30
0.0
 11
-151.14404088840001
 21
57.640519376099988
 31
0.0
  0
LINE
  5
29B
  8
LAYER1$C$L1
 62
     3
 10
-154.21509863029999
 20
64.676294052000003
 30
0.0
 11
-153.68051689489991
 21
64.948678102200006
 31
0.0
  0
LINE
  5
29C
  8
LAYER1$C$L1
 62
     3
 10
-150.764811033
 20
57.904648715699999
 30
0.0
 11
-150.2302286538999
 21
58.177031478499998
 31
0.0
  0
LINE
  5
29D
  8
LAYER1$C$L1
 62
     3
 10
-155.96488291590001
 20
59.519757344600002
 30
0.0
 11
-154.28754169309991
 21
58.430479361899998
 31
0.0
  0
LINE
  5
29E
  8
LAYER1$C$L1
 62
     3
 10
-155.96482007680001
 20
59.519772533999991
 30
0.0
 11
-155.91248411410001
 21
60.518402044399998
 31
0.0
  0
LINE
  5
29F
  8
LAYER1$C$L1
 62
     3
 10
-152.75717850879991
 20
61.154233715100013
 30
0.0
 11
-153.3246665831
 21
62.267991876800011
 31
0.0
  0
LINE
  5
2A0
  8
LAYER1$C$L1
 62
     3
 10
-152.75717850879991
 20
61.154233715100013
 30
0.0
 11
-152.18970428910001
 21
60.040502744799987
 31
0.0
  0
LINE
  5
2A1
  8
LAYER1$C$L1
 62
     3
 10
-153.3246665831
 20
62.267991876800011
 30
0.0
 11
-153.7701698477
 21
62.040996647
 31
0.0
  0
LINE
  5
2A2
  8
LAYER1$C$L1
 62
     3
 10
-152.18970428910001
 20
60.040502744799987
 30
0.0
 11
-152.6352075538
 21
59.813507515099992
 31
0.0
  0
LINE
  5
2A3
  8
LAYER1$C$L1
 62
     3
 10
-151.1205399600999
 20
60.58526912859999
 30
0.0
 11
-152.25550225399991
 21
62.812758260599999
 31
0.0
  0
LINE
  5
2A4
  8
LAYER1$C$L1
 62
     3
 10
-152.25550225399991
 20
62.812758260599999
 30
0.0
 11
-152.70100551869999
 21
62.585763030899997
 31
0.0
  0
LINE
  5
2A5
  8
LAYER1$C$L1
 62
     3
 10
-151.1205399600999
 20
60.58526912859999
 30
0.0
 11
-151.5660432247999
 21
60.358273898900002
 31
0.0
  0
LINE
  5
2A6
  8
LAYER1$C$L1
 62
     3
 10
-153.2027843798999
 20
60.927145872200001
 30
0.0
 11
-154.27877447930001
 21
61.2767561816
 31
0.0
  0
LINE
  5
2A7
  8
LAYER1$C$L1
 62
     3
 10
-153.7339824723999
 20
60.207565580100002
 30
0.0
 11
-152.6579778608999
 21
59.857950555499997
 31
0.0
  0
LINE
  5
2A8
  8
LAYER1$C$L1
 62
     3
 10
-153.27022724799991
 20
57.064332460699987
 30
0.0
 11
-152.3265613074
 21
57.44559826039999
 31
0.0
  0
LINE
  5
2A9
  8
LAYER1$C$L1
 62
     3
 10
-155.5045292618
 20
63.682543276600001
 30
0.0
 11
-156.36769149099999
 21
63.143179708599988
 31
0.0
  0
LINE
  5
2AA
  8
LAYER1$C$L1
 62
     3
 10
-155.50449711109991
 20
63.682546803000001
 30
0.0
 11
-152.32657774969991
 21
57.445528288999988
 31
0.0
  0
LINE
  5
2AB
  8
LAYER1$C$L1
 62
     3
 10
-155.01864361119999
 20
64.491264602699999
 30
0.0
 11
-153.94947928219989
 21
65.036030986499995
 31
0.0
  0
LINE
  5
2AC
  8
LAYER1$C$L1
 62
     3
 10
-151.38673379030001
 20
57.363239559399993
 30
0.0
 11
-155.01864361119999
 21
64.491264602699999
 31
0.0
  0
LINE
  5
2AD
  8
LAYER1$C$L1
 62
     3
 10
-151.38673379030001
 20
57.363239559399993
 30
0.0
 11
-150.31756946129991
 21
57.908005943200003
 31
0.0
  0
LINE
  5
2AE
  8
LAYER1$C$L1
 62
     3
 10
-157.65257263180001
 20
72.357345581099992
 30
0.0
 11
-157.78756713870001
 21
72.357345581099992
 31
0.0
  0
LINE
  5
2AF
  8
LAYER1$C$L1
 62
     3
 10
-157.78756713870001
 20
71.3223114014
 30
0.0
 11
-158.26007080080001
 21
71.3223114014
 31
0.0
  0
LINE
  5
2B0
  8
LAYER1$C$L1
 62
     3
 10
-157.65257263180001
 20
72.357345581099992
 30
0.0
 11
-157.65257263180001
 21
71.3223114014
 31
0.0
  0
LINE
  5
2B1
  8
LAYER1$C$L1
 62
     3
 10
-157.78756713870001
 20
72.357345581099992
 30
0.0
 11
-157.78756713870001
 21
71.3223114014
 31
0.0
  0
LINE
  5
2B2
  8
LAYER1$C$L1
 62
     3
 10
-158.3275604248
 20
72.334884643599992
 30
0.0
 11
-158.3275604248
 21
71.389816284199995
 31
0.0
  0
LINE
  5
2B3
  8
LAYER1$C$L1
 62
     3
 10
-157.45005798339989
 20
72.672409057600007
 30
0.0
 11
-157.99006652829991
 21
72.672409057600007
 31
0.0
  0
LINE
  5
2B4
  8
LAYER1$C$L1
 62
     3
 10
-157.9225616455
 20
72.852340698199995
 30
0.0
 11
-158.26007080080001
 21
72.852340698199995
 31
0.0
  0
LINE
  5
2B5
  8
LAYER1$C$L1
 62
     3
 10
-157.42756652829991
 20
73.482345581099992
 30
0.0
 11
-157.78756713870001
 21
73.482345581099992
 31
0.0
  0
LINE
  5
2B6
  8
LAYER1$C$L1
 62
     3
 10
-157.42756652829991
 20
73.617355346699995
 30
0.0
 11
-157.9225616455
 21
73.617355346699995
 31
0.0
  0
LINE
  5
2B7
  8
LAYER1$C$L1
 62
     3
 10
-157.42756652829991
 20
73.617355346699995
 30
0.0
 11
-157.42756652829991
 21
73.482345581099992
 31
0.0
  0
LINE
  5
2B8
  8
LAYER1$C$L1
 62
     3
 10
-157.78756713870001
 20
73.482345581099992
 30
0.0
 11
-157.78756713870001
 21
72.852340698199995
 31
0.0
  0
LINE
  5
2B9
  8
LAYER1$C$L1
 62
     3
 10
-157.9225616455
 20
73.617355346699995
 30
0.0
 11
-157.9225616455
 21
72.852340698199995
 31
0.0
  0
LINE
  5
2BA
  8
LAYER1$C$L1
 62
     3
 10
-158.3275604248
 20
73.954879760699995
 30
0.0
 11
-158.3275604248
 21
72.919845581099992
 31
0.0
  0
LINE
  5
2BB
  8
LAYER1$C$L1
 62
     3
 10
-157.1800689696999
 20
72.852340698199995
 30
0.0
 11
-157.78756713870001
 21
72.852340698199995
 31
0.0
  0
LINE
  5
2BC
  8
LAYER1$C$L1
 62
     3
 10
-157.11256408689991
 20
72.334884643599992
 30
0.0
 11
-157.11256408689991
 21
71.389816284199995
 31
0.0
  0
LINE
  5
2BD
  8
LAYER1$C$L1
 62
     3
 10
-157.11256408689991
 20
73.954879760699995
 30
0.0
 11
-157.11256408689991
 21
72.919845581099992
 31
0.0
  0
LINE
  5
2BE
  8
LAYER1$C$L1
 62
     3
 10
-157.45005798339989
 20
74.292404174799984
 30
0.0
 11
-157.99006652829991
 21
74.292404174799984
 31
0.0
  0
LINE
  5
2BF
  8
LAYER1$C$L1
 62
     3
 10
-156.6400604248
 20
74.472335815400001
 30
0.0
 11
-158.26007080080001
 21
74.472335815400001
 31
0.0
  0
LINE
  5
2C0
  8
LAYER1$C$L1
 62
     3
 10
-157.65257263180001
 20
75.2373504639
 30
0.0
 11
-157.65257263180001
 21
75.102340698199995
 31
0.0
  0
LINE
  5
2C1
  8
LAYER1$C$L1
 62
     3
 10
-156.6400604248
 20
75.102340698199995
 30
0.0
 11
-157.65257263180001
 21
75.102340698199995
 31
0.0
  0
LINE
  5
2C2
  8
LAYER1$C$L1
 62
     3
 10
-156.97756958010001
 20
75.2373504639
 30
0.0
 11
-157.65257263180001
 21
75.2373504639
 31
0.0
  0
LINE
  5
2C3
  8
LAYER1$C$L1
 62
     3
 10
-157.3150634765999
 20
75.867355346699995
 30
0.0
 11
-157.99006652829991
 21
75.867355346699995
 31
0.0
  0
LINE
  5
2C4
  8
LAYER1$C$L1
 62
     3
 10
-156.97756958010001
 20
76.677413940400001
 30
0.0
 11
-158.26007080080001
 21
76.677413940400001
 31
0.0
  0
LINE
  5
2C5
  8
LAYER1$C$L1
 62
     3
 10
-156.97756958010001
 20
76.047409057600007
 30
0.0
 11
-158.26007080080001
 21
76.047409057600007
 31
0.0
  0
LINE
  5
2C6
  8
LAYER1$C$L1
 62
     3
 10
-156.57257080080001
 20
75.034835815400001
 30
0.0
 11
-156.57257080080001
 21
74.539840698199995
 31
0.0
  0
LINE
  5
2C7
  8
LAYER1$C$L1
 62
     3
 10
-158.3275604248
 20
75.529830932600007
 30
0.0
 11
-158.3275604248
 21
74.539840698199995
 31
0.0
  0
LINE
  5
2C8
  8
LAYER1$C$L1
 62
     3
 10
-156.97756958010001
 20
75.529830932600007
 30
0.0
 11
-156.97756958010001
 21
75.2373504639
 31
0.0
  0
LINE
  5
2C9
  8
LAYER1$C$L1
 62
     3
 10
-156.84255981449999
 20
76.677413940400001
 30
0.0
 11
-156.84255981449999
 21
76.047409057600007
 31
0.0
  0
LINE
  5
2CA
  8
LAYER1$C$L1
 62
     3
 10
-156.97756958010001
 20
76.677413940400001
 30
0.0
 11
-156.97756958010001
 21
76.047409057600007
 31
0.0
  0
LINE
  5
2CB
  8
LAYER1$C$L1
 62
     3
 10
-156.6400604248
 20
76.047409057600007
 30
0.0
 11
-156.84255981449999
 21
76.047409057600007
 31
0.0
  0
LINE
  5
2CC
  8
LAYER1$C$L1
 62
     3
 10
-156.57257080080001
 20
76.609909057600007
 30
0.0
 11
-156.57257080080001
 21
76.114913940400001
 31
0.0
  0
LINE
  5
2CD
  8
LAYER1$C$L1
 62
     3
 10
-158.3275604248
 20
76.609909057600007
 30
0.0
 11
-158.3275604248
 21
76.114913940400001
 31
0.0
  0
LINE
  5
2CE
  8
LAYER1$C$L1
 62
     3
 10
-156.6400604248
 20
76.677413940400001
 30
0.0
 11
-156.84255981449999
 21
76.677413940400001
 31
0.0
  0
LINE
  5
2CF
  8
LAYER1$C$L1
 62
     3
 10
-157.1800689696999
 20
71.3223114014
 30
0.0
 11
-157.65257263180001
 21
71.3223114014
 31
0.0
  0
LINE
  5
2D0
  8
LAYER1$C$L1
 62
     3
 10
-156.20008850100001
 20
70.999801635699995
 30
0.0
 11
-158.70008850100001
 21
70.999801635699995
 31
0.0
  0
LINE
  5
2D1
  8
LAYER1$C$L1
 62
     3
 10
-156.20008850100001
 20
76.999801635699995
 30
0.0
 11
-158.70008850100001
 21
76.999801635699995
 31
0.0
  0
LINE
  5
2D2
  8
LAYER1$C$L1
 62
     3
 10
-153.70008850100001
 20
67.999801635699995
 30
0.0
 11
-153.70008850100001
 21
79.999786376999992
 31
0.0
  0
LINE
  5
2D3
  8
LAYER1$C$L1
 62
     3
 10
-155.70008850100001
 20
67.999801635699995
 30
0.0
 11
-155.70008850100001
 21
79.999786376999992
 31
0.0
  0
LINE
  5
2D4
  8
LAYER1$C$L1
 62
     3
 10
-156.20008850100001
 20
70.999801635699995
 30
0.0
 11
-156.20008850100001
 21
76.999801635699995
 31
0.0
  0
LINE
  5
2D5
  8
LAYER1$C$L1
 62
     3
 10
-153.70008850100001
 20
79.999786376999992
 30
0.0
 11
-155.70008850100001
 21
79.999786376999992
 31
0.0
  0
LINE
  5
2D6
  8
LAYER1$C$L1
 62
     3
 10
-153.70008850100001
 20
67.999801635699995
 30
0.0
 11
-155.70008850100001
 21
67.999801635699995
 31
0.0
  0
LINE
  5
2D7
  8
LAYER1$C$L1
 62
     3
 10
-158.70008850100001
 20
70.999801635699995
 30
0.0
 11
-158.70008850100001
 21
76.999801635699995
 31
0.0
  0
LINE
  5
2D8
  8
LAYER1$C$L1
 62
     3
 10
-154.1000213623
 20
81.899810790999993
 30
0.0
 11
-153.40003967289999
 21
81.899810790999993
 31
0.0
  0
LINE
  5
2D9
  8
LAYER1$C$L1
 62
     3
 10
-153.40003967289999
 20
66.099899292000003
 30
0.0
 11
-154.1000213623
 21
66.099899292000003
 31
0.0
  0
LINE
  5
2DA
  8
LAYER1$C$L1
 62
     3
 10
-157.42553100110001
 20
83.999417117799993
 30
0.0
 11
-153.43870640579991
 21
81.968028715800003
 31
0.0
  0
LINE
  5
2DB
  8
LAYER1$C$L1
 62
     3
 10
-154.10000610349991
 20
80.799789428699995
 30
0.0
 11
-154.10000610349991
 21
82.305145263699984
 31
0.0
  0
LINE
  5
2DC
  8
LAYER1$C$L1
 62
     3
 10
-154.10000610349991
 20
65.694488525400004
 30
0.0
 11
-154.10000610349991
 21
67.199859619099996
 31
0.0
  0
LINE
  5
2DD
  8
LAYER1$C$L1
 62
     3
 10
-158.70007324220001
 20
80.099838256799998
 30
0.0
 11
-159.49999999999989
 21
80.099838256799998
 31
0.0
  0
LINE
  5
2DE
  8
LAYER1$C$L1
 62
     3
 10
-158.70007324220001
 20
67.899810791000007
 30
0.0
 11
-159.49999999999989
 21
67.899810791000007
 31
0.0
  0
LINE
  5
2DF
  8
LAYER1$C$L1
 62
     3
 10
-158.70007324220001
 20
77.399765014600007
 30
0.0
 11
-159.49999999999989
 21
77.399765014600007
 31
0.0
  0
LINE
  5
2E0
  8
LAYER1$C$L1
 62
     3
 10
-158.70007324220001
 20
70.599884033199999
 30
0.0
 11
-159.49999999999989
 21
70.599884033199999
 31
0.0
  0
LINE
  5
2E1
  8
LAYER1$C$L1
 62
     3
 10
-159.49999999999989
 20
80.799789428699995
 30
0.0
 11
-154.10000610349991
 21
80.799789428699995
 31
0.0
  0
LINE
  5
2E2
  8
LAYER1$C$L1
 62
     3
 10
-159.49999999999989
 20
80.699813842799998
 30
0.0
 11
-154.0000152588
 21
80.699813842799998
 31
0.0
  0
LINE
  5
2E3
  8
LAYER1$C$L1
 62
     3
 10
-159.49999999999989
 20
86.899749755900004
 30
0.0
 11
-156.5898895263999
 21
86.899749755900004
 31
0.0
  0
LINE
  5
2E4
  8
LAYER1$C$L1
 62
     3
 10
-159.49999999999989
 20
83.999725341799987
 30
0.0
 11
-157.4252166748
 21
83.999725341799987
 31
0.0
  0
LINE
  5
2E5
  8
LAYER1$C$L1
 62
     3
 10
-154.10000610349991
 20
67.199859619099996
 30
0.0
 11
-159.49999999999989
 21
67.199859619099996
 31
0.0
  0
LINE
  5
2E6
  8
LAYER1$C$L1
 62
     3
 10
-154.0
 20
67.299835205099996
 30
0.0
 11
-159.49999999999989
 21
67.299835205099996
 31
0.0
  0
LINE
  5
2E7
  8
LAYER1$C$L1
 62
     3
 10
-156.58978271480001
 20
61.099807739300012
 30
0.0
 11
-159.49999999999989
 21
61.099807739300012
 31
0.0
  0
LINE
  5
2E8
  8
LAYER1$C$L1
 62
     3
 10
-153.43871729110001
 20
66.031673491600003
 30
0.0
 11
-157.425514695
 21
64.000298944400001
 31
0.0
  0
LINE
  5
2E9
  8
LAYER1$C$L1
 62
     3
 10
-159.49999999999989
 20
56.000167846700002
 30
0.0
 11
-159.49999999999989
 21
92.000167846699995
 31
0.0
  0
LINE
  5
2EA
  8
LAYER1$C$L1
 62
     3
 10
-157.4252166748
 20
63.999786377
 30
0.0
 11
-159.49999999999989
 21
63.999786377
 31
0.0
  0
LINE
  5
2EB
  8
LAYER1$C$L1
 62
     3
 10
-148.6617431640999
 20
55.500091552699999
 30
0.0
 11
-148.6617431640999
 21
56.200531005899997
 31
0.0
  0
LINE
  5
2EC
  8
LAYER1$C$L1
 62
     3
 10
-148.662109375
 20
91.800018310499993
 30
0.0
 11
-148.662109375
 21
92.499969482400004
 31
0.0
  0
LINE
  5
2ED
  8
LAYER1$C$L1
 62
     3
 10
-158.70007324220001
 20
77.400009155299998
 30
0.0
 11
-158.70007324220001
 21
80.099960327100007
 31
0.0
  0
LINE
  5
2EE
  8
LAYER1$C$L1
 62
     3
 10
-159.49998474119991
 20
80.099960327100007
 30
0.0
 11
-158.70007324220001
 21
80.099960327100007
 31
0.0
  0
LINE
  5
2EF
  8
LAYER1$C$L1
 62
     3
 10
-159.49998474119991
 20
77.400009155299998
 30
0.0
 11
-158.70007324220001
 21
77.400009155299998
 31
0.0
  0
LINE
  5
2F0
  8
LAYER1$C$L1
 62
     3
 10
-158.70007324220001
 20
67.900054931599996
 30
0.0
 11
-158.70007324220001
 21
70.600128173800002
 31
0.0
  0
LINE
  5
2F1
  8
LAYER1$C$L1
 62
     3
 10
-158.70007324220001
 20
67.900054931599996
 30
0.0
 11
-159.49998474119991
 21
67.900054931599996
 31
0.0
  0
LINE
  5
2F2
  8
LAYER1$C$L1
 62
     3
 10
-158.70007324220001
 20
70.600128173800002
 30
0.0
 11
-159.49998474119991
 21
70.600128173800002
 31
0.0
  0
LINE
  5
2F3
  8
LAYER1$C$L1
 62
     3
 10
-139.50064789459989
 20
88.254550759500006
 30
0.0
 11
-147.83327743789999
 21
92.500237171699993
 31
0.0
  0
LINE
  5
2F4
  8
LAYER1$C$L1
 62
     3
 10
-139.50065138459991
 20
87.132226337399999
 30
0.0
 11
-148.6621823879
 21
91.800259098600009
 31
0.0
  0
LINE
  5
2F5
  8
LAYER1$C$L1
 62
     3
 10
-147.8329904940999
 20
55.500628252600002
 30
0.0
 11
-139.5003609508
 21
59.746314664799989
 31
0.0
  0
LINE
  5
2F6
  8
LAYER1$C$L1
 62
     3
 10
-148.6618954441
 20
56.200606325699987
 30
0.0
 11
-139.50036444080001
 21
60.868639086899989
 31
0.0
  0
LINE
  5
2F7
  8
LAYER1$C$L1
 62
     3
 10
-159.0
 20
92.499969482400004
 30
0.0
 11
-139.5
 21
92.499969482400004
 31
0.0
  0
LINE
  5
2F8
  8
LAYER1$C$L1
 62
     3
 10
-150.00057687450001
 20
90.068354338899994
 30
0.0
 11
-151.17295961129989
 21
90.665713123399996
 31
0.0
  0
LINE
  5
2F9
  8
LAYER1$C$L1
 62
     3
 10
-150.0
 20
89.172821044900004
 30
0.0
 11
-150.0
 21
90.067962646499993
 31
0.0
  0
LINE
  5
2FA
  8
LAYER1$C$L1
 62
     3
 10
-150.90002441409999
 20
91.800018310499993
 30
0.0
 11
-148.66149902340001
 21
91.800018310499993
 31
0.0
  0
LINE
  5
2FB
  8
LAYER1$C$L1
 62
     3
 10
-153.40059947579999
 20
82.500322180200016
 30
0.0
 11
-150.00060286639999
 21
89.173191875300006
 31
0.0
  0
LINE
  5
2FC
  8
LAYER1$C$L1
 62
     3
 10
-153.4000244140999
 20
80.700057983400001
 30
0.0
 11
-153.4000244140999
 21
82.499969482400004
 31
0.0
  0
LINE
  5
2FD
  8
LAYER1$C$L1
 62
     3
 10
-159.49998474119991
 20
80.700057983400001
 30
0.0
 11
-153.4000244140999
 21
80.700057983400001
 31
0.0
  0
LINE
  5
2FE
  8
LAYER1$C$L1
 62
     3
 10
-142.0004508655999
 20
80.600347413599991
 30
0.0
 11
-141.60037322799991
 21
81.000425995499995
 31
0.0
  0
LINE
  5
2FF
  8
LAYER1$C$L1
 62
     3
 10
-142.00029101039999
 20
77.6003391717
 30
0.0
 11
-141.60029921750001
 21
77.200347378700002
 31
0.0
  0
LINE
  5
300
  8
LAYER1$C$L1
 62
     3
 10
-153.10039295440001
 20
77.200366210500007
 30
0.0
 11
-152.7003143725
 21
77.600443848099999
 31
0.0
  0
LINE
  5
301
  8
LAYER1$C$L1
 62
     3
 10
-153.10027905699991
 20
81.000355728599985
 30
0.0
 11
-152.70028726399991
 21
80.600363935600001
 31
0.0
  0
LINE
  5
302
  8
LAYER1$C$L1
 62
     3
 10
-142.0
 20
77.600082397500003
 30
0.0
 11
-142.0
 21
80.600082397500003
 31
0.0
  0
LINE
  5
303
  8
LAYER1$C$L1
 62
     3
 10
-152.70007324220001
 20
77.600082397500003
 30
0.0
 11
-152.70007324220001
 21
80.600082397500003
 31
0.0
  0
LINE
  5
304
  8
LAYER1$C$L1
 62
     3
 10
-153.10009765629991
 20
77.200057983400001
 30
0.0
 11
-153.10009765629991
 21
80.999984741199995
 31
0.0
  0
LINE
  5
305
  8
LAYER1$C$L1
 62
     3
 10
-141.60009765629991
 20
77.200057983400001
 30
0.0
 11
-141.60009765629991
 21
80.999984741199995
 31
0.0
  0
LINE
  5
306
  8
LAYER1$C$L1
 62
     3
 10
-152.70007324220001
 20
80.600082397500003
 30
0.0
 11
-142.0
 21
80.600082397500003
 31
0.0
  0
LINE
  5
307
  8
LAYER1$C$L1
 62
     3
 10
-152.70007324220001
 20
77.600082397500003
 30
0.0
 11
-142.0
 21
77.600082397500003
 31
0.0
  0
LINE
  5
308
  8
LAYER1$C$L1
 62
     3
 10
-153.10009765629991
 20
80.999984741199995
 30
0.0
 11
-141.60009765629991
 21
80.999984741199995
 31
0.0
  0
LINE
  5
309
  8
LAYER1$C$L1
 62
     3
 10
-153.10009765629991
 20
77.200057983400001
 30
0.0
 11
-141.60009765629991
 21
77.200057983400001
 31
0.0
  0
LINE
  5
30A
  8
LAYER1$C$L1
 62
     3
 10
-139.5
 20
55.500091552699999
 30
0.0
 11
-159.0
 21
55.500091552699999
 31
0.0
  0
LINE
  5
30B
  8
LAYER1$C$L1
 62
     3
 10
-151.17273501359989
 20
57.335274661999989
 30
0.0
 11
-150.00035227679999
 21
57.932633446499999
 31
0.0
  0
LINE
  5
30C
  8
LAYER1$C$L1
 62
     3
 10
-150.0
 20
57.932098388699998
 30
0.0
 11
-150.0
 21
58.827239990200013
 31
0.0
  0
LINE
  5
30D
  8
LAYER1$C$L1
 62
     3
 10
-148.66149902340001
 20
56.200164794899997
 30
0.0
 11
-150.90002441409999
 21
56.200164794899997
 31
0.0
  0
LINE
  5
30E
  8
LAYER1$C$L1
 62
     3
 10
-150.00037826869999
 20
58.827795910100001
 30
0.0
 11
-153.40037444519999
 21
65.500664755499997
 31
0.0
  0
LINE
  5
30F
  8
LAYER1$C$L1
 62
     3
 10
-153.4000244140999
 20
65.500152587900004
 30
0.0
 11
-153.4000244140999
 21
67.300079345699999
 31
0.0
  0
LINE
  5
310
  8
LAYER1$C$L1
 62
     3
 10
-153.4000244140999
 20
67.300079345699999
 30
0.0
 11
-159.49998474119991
 21
67.300079345699999
 31
0.0
  0
LINE
  5
311
  8
LAYER1$C$L1
 62
     3
 10
-141.6003604144
 20
67.000410864300008
 30
0.0
 11
-142.0003517353
 21
67.400403129300003
 31
0.0
  0
LINE
  5
312
  8
LAYER1$C$L1
 62
     3
 10
-141.60029921750001
 20
70.8003060578
 30
0.0
 11
-142.00029101039999
 21
70.400314264900004
 31
0.0
  0
LINE
  5
313
  8
LAYER1$C$L1
 62
     3
 10
-152.70033797569991
 20
70.400382222100006
 30
0.0
 11
-153.10033024069989
 21
70.800373543099994
 31
0.0
  0
LINE
  5
314
  8
LAYER1$C$L1
 62
     3
 10
-152.70036279109999
 20
67.400386607200005
 30
0.0
 11
-153.1003545840999
 21
67.000394814300009
 31
0.0
  0
LINE
  5
315
  8
LAYER1$C$L1
 62
     3
 10
-142.0
 20
67.400054931599996
 30
0.0
 11
-142.0
 21
70.400054931599996
 31
0.0
  0
LINE
  5
316
  8
LAYER1$C$L1
 62
     3
 10
-152.70007324220001
 20
67.400054931599996
 30
0.0
 11
-152.70007324220001
 21
70.400054931599996
 31
0.0
  0
LINE
  5
317
  8
LAYER1$C$L1
 62
     3
 10
-153.10009765629991
 20
67.000030517599996
 30
0.0
 11
-153.10009765629991
 21
70.800079345699999
 31
0.0
  0
LINE
  5
318
  8
LAYER1$C$L1
 62
     3
 10
-141.60009765629991
 20
67.000030517599996
 30
0.0
 11
-141.60009765629991
 21
70.800079345699999
 31
0.0
  0
LINE
  5
319
  8
LAYER1$C$L1
 62
     3
 10
-142.0
 20
67.400054931599996
 30
0.0
 11
-152.70007324220001
 21
67.400054931599996
 31
0.0
  0
LINE
  5
31A
  8
LAYER1$C$L1
 62
     3
 10
-142.0
 20
70.400054931599996
 30
0.0
 11
-152.70007324220001
 21
70.400054931599996
 31
0.0
  0
LINE
  5
31B
  8
LAYER1$C$L1
 62
     3
 10
-141.60009765629991
 20
67.000030517599996
 30
0.0
 11
-153.10009765629991
 21
67.000030517599996
 31
0.0
  0
LINE
  5
31C
  8
LAYER1$C$L1
 62
     3
 10
-141.60009765629991
 20
70.800079345699999
 30
0.0
 11
-153.10009765629991
 21
70.800079345699999
 31
0.0
  0
LINE
  5
31D
  8
LAYER1$C$L1
 62
     3
 10
-150.00001632449991
 20
58.386386344799988
 30
0.0
 11
-153.35159036179991
 21
64.964221382200009
 31
0.0
  0
LINE
  5
31E
  8
LAYER1$C$L1
 62
     3
 10
-153.43867492679991
 20
65.327316284199995
 30
0.0
 11
-153.43867492679991
 21
67.299972534199995
 31
0.0
  0
LINE
  5
31F
  8
LAYER1$C$L1
 62
     3
 10
-153.3515597496999
 20
83.036225359200003
 30
0.0
 11
-150.00005498589991
 21
89.6139244397
 31
0.0
  0
LINE
  5
320
  8
LAYER1$C$L1
 62
     3
 10
-153.4386596679999
 20
80.699935913100006
 30
0.0
 11
-153.4386596679999
 21
82.673080444299998
 31
0.0
  0
LINE
  5
321
  8
LAYER1$C$L1
 62
     3
 10
-128.00109863279999
 20
138.10000610349991
 30
0.0
 11
-128.00109863279999
 21
135.0999908446999
 31
0.0
  0
LINE
  5
322
  8
LAYER1$C$L1
 62
     3
 10
-127.9999389647999
 20
138.10000610349991
 30
0.0
 11
-139.5
 21
138.10000610349991
 31
0.0
  0
LINE
  5
323
  8
LAYER1$C$L1
 62
     3
 10
-128.00109863279999
 20
135.0999908446999
 30
0.0
 11
-139.5
 21
135.0999908446999
 31
0.0
  0
LINE
  5
324
  8
LAYER1$C$L1
 62
     3
 10
-149.50000216879991
 20
139.29998869939999
 30
0.0
 11
-141.4999940820999
 21
144.29999382379989
 31
0.0
  0
LINE
  5
325
  8
LAYER1$C$L1
 62
     3
 10
-141.5
 20
148.69998168949999
 30
0.0
 11
-139.5
 21
148.69998168949999
 31
0.0
  0
LINE
  5
326
  8
LAYER1$C$L1
 62
     3
 10
-141.5
 20
148.69998168949999
 30
0.0
 11
-141.5
 21
139.2999877929999
 31
0.0
  0
LINE
  5
327
  8
LAYER1$C$L1
 62
     3
 10
-154.75
 20
138.19998168949999
 30
0.0
 11
-154.75
 21
135.0999908446999
 31
0.0
  0
LINE
  5
328
  8
LAYER1$C$L1
 62
     3
 10
-157.0
 20
138.19998168949999
 30
0.0
 11
-157.0
 21
135.0999908446999
 31
0.0
  0
LINE
  5
329
  8
LAYER1$C$L1
 62
     3
 10
-152.5
 20
135.0999908446999
 30
0.0
 11
-152.5
 21
133.9999847412
 31
0.0
  0
LINE
  5
32A
  8
LAYER1$C$L1
 62
     3
 10
-151.5
 20
138.19998168949999
 30
0.0
 11
-151.5
 21
133.9999847412
 31
0.0
  0
LINE
  5
32B
  8
LAYER1$C$L1
 62
     3
 10
-159.49999999999989
 20
135.0999908446999
 30
0.0
 11
-152.5
 21
135.0999908446999
 31
0.0
  0
LINE
  5
32C
  8
LAYER1$C$L1
 62
     3
 10
-139.5
 20
139.2999877929999
 30
0.0
 11
-159.49999999999989
 21
139.2999877929999
 31
0.0
  0
LINE
  5
32D
  8
LAYER1$C$L1
 62
     3
 10
-159.49999999999989
 20
138.19998168949999
 30
0.0
 11
-144.5
 21
138.19998168949999
 31
0.0
  0
LINE
  5
32E
  8
LAYER1$C$L1
 62
     3
 10
-139.5
 20
148.69998168949999
 30
0.0
 11
-139.5
 21
138.10000610349991
 31
0.0
  0
LINE
  5
32F
  8
LAYER1$C$L1
 62
     3
 10
-147.80000305179991
 20
133.9999847412
 30
0.0
 11
-147.80000305179991
 21
138.19998168949999
 31
0.0
  0
LINE
  5
330
  8
LAYER1$C$L1
 62
     3
 10
-144.5
 20
133.9999847412
 30
0.0
 11
-144.5
 21
138.19998168949999
 31
0.0
  0
LINE
  5
331
  8
LAYER1$C$L1
 62
     3
 10
-159.49999999999989
 20
139.2999877929999
 30
0.0
 11
-159.49999999999989
 21
133.9999847412
 31
0.0
  0
LINE
  5
332
  8
LAYER1$C$L1
 62
     3
 10
-128.00109863279999
 20
129.89996337889991
 30
0.0
 11
-128.00109863279999
 21
132.8999786377
 31
0.0
  0
LINE
  5
333
  8
LAYER1$C$L1
 62
     3
 10
-139.49995422360001
 20
119.7999877929999
 30
0.0
 11
-139.49995422360001
 21
129.89994812009991
 31
0.0
  0
LINE
  5
334
  8
LAYER1$C$L1
 62
     3
 10
-127.9999389647999
 20
129.89996337889991
 30
0.0
 11
-139.49993896480001
 21
129.89996337889991
 31
0.0
  0
LINE
  5
335
  8
LAYER1$C$L1
 62
     3
 10
-128.00109863279999
 20
132.8999786377
 30
0.0
 11
-139.49995422360001
 21
132.8999786377
 31
0.0
  0
LINE
  5
336
  8
LAYER1$C$L1
 62
     3
 10
-139.5
 20
135.0999908446999
 30
0.0
 11
-139.5
 21
132.89994812009991
 31
0.0
  0
LINE
  5
337
  8
LAYER1$C$L1
 62
     3
 10
-152.5
 20
133.99989318850001
 30
0.0
 11
-152.5
 21
132.90000915530001
 31
0.0
  0
LINE
  5
338
  8
LAYER1$C$L1
 62
     3
 10
-151.47924804690001
 20
133.99989318850001
 30
0.0
 11
-151.47924804690001
 21
129.80000305179991
 31
0.0
  0
LINE
  5
339
  8
LAYER1$C$L1
 62
     3
 10
-154.58567810059989
 20
132.90000915530001
 30
0.0
 11
-154.58567810059989
 21
129.80000305179991
 31
0.0
  0
LINE
  5
33A
  8
LAYER1$C$L1
 62
     3
 10
-157.0
 20
132.90000915530001
 30
0.0
 11
-157.0
 21
129.80000305179991
 31
0.0
  0
LINE
  5
33B
  8
LAYER1$C$L1
 62
     3
 10
-157.42581176760001
 20
128.7000427246
 30
0.0
 11
-157.42581176760001
 21
119.2999725341999
 31
0.0
  0
LINE
  5
33C
  8
LAYER1$C$L1
 62
     3
 10
-148.66107177730001
 20
127.69989013670001
 30
0.0
 11
-139.49966430660001
 21
127.69989013670001
 31
0.0
  0
LINE
  5
33D
  8
LAYER1$C$L1
 62
     3
 10
-150.99961853030001
 20
120.5999755859
 30
0.0
 11
-150.99961853030001
 21
119.2999877929999
 31
0.0
  0
LINE
  5
33E
  8
LAYER1$C$L1
 62
     3
 10
-148.66107177730001
 20
120.59991455079989
 30
0.0
 11
-153.49961853030001
 21
120.59991455079989
 31
0.0
  0
LINE
  5
33F
  8
LAYER1$C$L1
 62
     3
 10
-139.99996948239991
 20
119.29992675779999
 30
0.0
 11
-159.49964904789999
 21
119.29992675779999
 31
0.0
  0
LINE
  5
340
  8
LAYER1$C$L1
 62
     3
 10
-148.66108703610001
 20
119.2999114989999
 30
0.0
 11
-148.66108703610001
 21
128.70001220699999
 31
0.0
  0
LINE
  5
341
  8
LAYER1$C$L1
 62
     3
 10
-153.49967956539999
 20
128.70007324220001
 30
0.0
 11
-153.49967956539999
 21
128.44309997560001
 31
0.0
  0
LINE
  5
342
  8
LAYER1$C$L1
 62
     3
 10
-153.49967956539999
 20
121.2571105956999
 30
0.0
 11
-153.49967956539999
 21
119.30006408689999
 31
0.0
  0
LINE
  5
343
  8
LAYER1$C$L1
 62
     3
 10
-153.11472072259991
 20
123.4427358925999
 30
0.0
 11
-153.63849385349991
 21
124.34993772129999
 31
0.0
  0
LINE
  5
344
  8
LAYER1$C$L1
 62
     3
 10
-153.92716721999989
 20
124.84993474379991
 30
0.0
 11
-154.83879583449999
 21
126.42892209030001
 31
0.0
  0
LINE
  5
345
  8
LAYER1$C$L1
 62
     3
 10
-154.9168250171999
 20
123.135759901
 30
0.0
 11
-153.9271782235999
 21
124.84987872069991
 31
0.0
  0
LINE
  5
346
  8
LAYER1$C$L1
 62
     3
 10
-153.63845825199999
 20
125.35000610349999
 30
0.0
 11
-154.15730285639989
 21
125.35000610349999
 31
0.0
  0
LINE
  5
347
  8
LAYER1$C$L1
 62
     3
 10
-153.9271392821999
 20
124.8500213622999
 30
0.0
 11
-154.33052062990001
 21
124.8500213622999
 31
0.0
  0
LINE
  5
348
  8
LAYER1$C$L1
 62
     3
 10
-153.63844299319999
 20
124.3500213623
 30
0.0
 11
-154.15730285639989
 21
124.3500213623
 31
0.0
  0
LINE
  5
349
  8
LAYER1$C$L1
 62
     3
 10
-153.63849722769999
 20
125.3498889578
 30
0.0
 11
-152.5538034482999
 21
127.2286340138
 31
0.0
  0
LINE
  5
34A
  8
LAYER1$C$L1
 62
     3
 10
-152.55376834169999
 20
127.2287218538
 30
0.0
 11
-152.3290641099
 21
126.4179131025999
 31
0.0
  0
LINE
  5
34B
  8
LAYER1$C$L1
 62
     3
 10
-152.55377197269991
 20
127.2287445067999
 30
0.0
 11
-152.78393554690001
 21
127.2287445067999
 31
0.0
  0
LINE
  5
34C
  8
LAYER1$C$L1
 62
     3
 10
-152.32908630369991
 20
126.4179382324
 30
0.0
 11
-152.55923461910001
 21
126.4179382324
 31
0.0
  0
LINE
  5
34D
  8
LAYER1$C$L1
 62
     3
 10
-154.85829162600001
 20
123.13586425779999
 30
0.0
 11
-155.32019042970001
 21
123.13586425779999
 31
0.0
  0
LINE
  5
34E
  8
LAYER1$C$L1
 62
     3
 10
-153.05817142309991
 20
123.6462417293
 30
0.0
 11
-153.2828894557
 21
122.83548431280001
 31
0.0
  0
LINE
  5
34F
  8
LAYER1$C$L1
 62
     3
 10
-154.8197650162999
 20
126.49734905770001
 30
0.0
 11
-154.96950668599999
 21
125.9566979216
 31
0.0
  0
LINE
  5
350
  8
LAYER1$C$L1
 62
     3
 10
-153.75320308120001
 20
124.84988195049991
 30
0.0
 11
-152.99228550829989
 21
126.1678300712
 31
0.0
  0
LINE
  5
351
  8
LAYER1$C$L1
 62
     3
 10
-154.15733191929991
 20
125.3498920034999
 30
0.0
 11
-153.21697863790001
 21
126.97863194110001
 31
0.0
  0
LINE
  5
352
  8
LAYER1$C$L1
 62
     3
 10
-153.05829723279999
 20
123.64630761469989
 30
0.0
 11
-153.75320529209989
 21
124.8499238846999
 31
0.0
  0
LINE
  5
353
  8
LAYER1$C$L1
 62
     3
 10
-153.28301325059991
 20
122.83554538840001
 30
0.0
 11
-154.1573493889999
 21
124.34994026059999
 31
0.0
  0
LINE
  5
354
  8
LAYER1$C$L1
 62
     3
 10
-154.15735052950001
 20
125.3499423719
 30
0.0
 11
-154.8198260364999
 21
126.49738380389989
 31
0.0
  0
LINE
  5
355
  8
LAYER1$C$L1
 62
     3
 10
-154.3305585139
 20
124.849929033
 30
0.0
 11
-154.9695736354999
 21
125.9567358786
 31
0.0
  0
LINE
  5
356
  8
LAYER1$C$L1
 62
     3
 10
-155.3202030967
 20
123.1357579825
 30
0.0
 11
-154.3305563029999
 21
124.8498768020999
 31
0.0
  0
LINE
  5
357
  8
LAYER1$C$L1
 62
     3
 10
-155.05326038219991
 20
122.798097986
 30
0.0
 11
-154.1573330597999
 21
124.3498898921999
 31
0.0
  0
LINE
  5
358
  8
LAYER1$C$L1
 62
     3
 10
-150.5995941162
 20
126.0999908446999
 30
0.0
 11
-150.5995941162
 21
123.60000610349999
 31
0.0
  0
LINE
  5
359
  8
LAYER1$C$L1
 62
     3
 10
-151.0995941162
 20
126.8499908446999
 30
0.0
 11
-151.0995941162
 21
126.5999908446999
 31
0.0
  0
LINE
  5
35A
  8
LAYER1$C$L1
 62
     3
 10
-149.94110107419999
 20
123.16300964360001
 30
0.0
 11
-149.94110107419999
 21
123.599899292
 31
0.0
  0
LINE
  5
35B
  8
LAYER1$C$L1
 62
     3
 10
-149.39950561520001
 20
126.0998840332
 30
0.0
 11
-150.5995178222999
 21
126.0998840332
 31
0.0
  0
LINE
  5
35C
  8
LAYER1$C$L1
 62
     3
 10
-149.39950561520001
 20
123.599899292
 30
0.0
 11
-150.5995178222999
 21
123.599899292
 31
0.0
  0
LINE
  5
35D
  8
LAYER1$C$L1
 62
     3
 10
-149.94110107419999
 20
126.099899292
 30
0.0
 11
-149.94110107419999
 21
126.5367889404
 31
0.0
  0
LINE
  5
35E
  8
LAYER1$C$L1
 62
     3
 10
-149.9411951861
 20
126.536840486
 30
0.0
 11
-149.4411979729999
 21
128.38683060849999
 31
0.0
  0
LINE
  5
35F
  8
LAYER1$C$L1
 62
     3
 10
-149.44112687919991
 20
121.3130509378
 30
0.0
 11
-149.9411279592
 21
123.1630559047999
 31
0.0
  0
LINE
  5
360
  8
LAYER1$C$L1
 62
     3
 10
-150.49143192479991
 20
120.5998867247999
 30
0.0
 11
-151.0995611447
 21
122.84996601899999
 31
0.0
  0
LINE
  5
361
  8
LAYER1$C$L1
 62
     3
 10
-151.09962830000001
 20
126.8499304432999
 30
0.0
 11
-150.59963108689999
 21
128.69992056589999
 31
0.0
  0
LINE
  5
362
  8
LAYER1$C$L1
 62
     3
 10
-151.0995941162
 20
123.10000610349999
 30
0.0
 11
-151.0995941162
 21
122.85000610349999
 31
0.0
  0
LINE
  5
363
  8
LAYER1$C$L1
 62
     3
 10
-149.3995971679999
 20
128.69999694820001
 30
0.0
 11
-149.3995971679999
 21
120.599899292
 31
0.0
  0
LINE
  5
364
  8
LAYER1$C$L1
 62
     3
 10
-139.4999847412
 20
128.70001220699999
 30
0.0
 11
-159.49999999999989
 21
128.70001220699999
 31
0.0
  0
LINE
  5
365
  8
LAYER1$C$L1
 62
     3
 10
-140.0
 20
119.29992675779999
 30
0.0
 11
-159.49996948239991
 21
119.29992675779999
 31
0.0
  0
LINE
  5
366
  8
LAYER1$C$L1
 62
     3
 10
-159.49999999999989
 20
133.99989318850001
 30
0.0
 11
-159.49999999999989
 21
119.2999877929999
 31
0.0
  0
LINE
  5
367
  8
LAYER1$C$L1
 62
     3
 10
-147.7999877929999
 20
129.80000305179991
 30
0.0
 11
-147.7999877929999
 21
133.99996948239991
 31
0.0
  0
LINE
  5
368
  8
LAYER1$C$L1
 62
     3
 10
-144.5
 20
129.80000305179991
 30
0.0
 11
-144.5
 21
133.99996948239991
 31
0.0
  0
LINE
  5
369
  8
LAYER1$C$L1
 62
     3
 10
-144.5
 20
129.80000305179991
 30
0.0
 11
-159.49999999999989
 21
129.80000305179991
 31
0.0
  0
LINE
  5
36A
  8
LAYER1$C$L1
 62
     3
 10
-144.5000152588
 20
129.80000305179991
 30
0.0
 11
-159.50003051760001
 21
129.80000305179991
 31
0.0
  0
LINE
  5
36B
  8
LAYER1$C$L1
 62
     3
 10
-147.80001831049989
 20
129.80000305179991
 30
0.0
 11
-147.80001831049989
 21
133.99996948239991
 31
0.0
  0
LINE
  5
36C
  8
LAYER1$C$L1
 62
     3
 10
-144.50003051760001
 20
129.80000305179991
 30
0.0
 11
-144.50003051760001
 21
133.99996948239991
 31
0.0
  0
LINE
  5
36D
  8
LAYER1$C$L1
 62
     3
 10
-159.50013732909991
 20
132.90000915530001
 30
0.0
 11
-152.5
 21
132.90000915530001
 31
0.0
  0
LINE
  5
36E
  8
LAYER1$C$L1
 62
     3
 10
-159.49999999999989
 20
133.9999847412
 30
0.0
 11
-139.5
 21
133.9999847412
 31
0.0
  0
DIMENSION
  5
37C
  8
DIMENSIONS
  2
*D25
 10
-111.0
 20
113.1999969481999
 30
0.0
 11
-135.2499923705999
 21
113.1999969481999
 31
0.0
 70
     0
 13
-159.49998474119991
 23
119.2999725341999
 33
0.0
 14
-111.0
 24
120.5
 34
0.0
1001
ACAD
1000
DSTYLE
1002
{
1070
    41
1040
1.9727878464999999
1070
    42
1040
2.5399999618999991
1070
    44
1040
3.8099999427999989
1070
    73
1070
     0
1070
   140
1040
3.1999998092999991
1070
   271
1070
     1
1070
   272
1070
     1
1002
}
  0
DIMENSION
  5
388
  8
DIMENSIONS
  2
*D26
 10
-79.670605143395704
 20
148.5
 30
0.0
 11
-79.670605143395733
 21
132.23871960402579
 31
0.0
 70
   129
  1
<>%%c29
 13
-105.4999999999999
 23
119.5
 33
0.0
 14
-105.4999999999999
 24
148.5
 34
0.0
1001
ACAD
1000
DSTYLE
1002
{
1070
    41
1040
1.9727878464999999
1070
    42
1040
2.5399999618999991
1070
    44
1040
3.8099999427999989
1070
    73
1070
     0
1070
   140
1040
3.1999998092999991
1070
   271
1070
     1
1070
   272
1070
     1
1002
}
  0
DIMENSION
  5
394
  8
DIMENSIONS
  2
*D27
 10
-111.0
 20
108.5538519741886
 30
0.0
 11
-84.338663587967858
 21
108.5538519741886
 31
0.0
 70
   128
  1
<>13
 13
-98.0
 23
120.2999877929999
 33
0.0
 14
-111.0
 24
120.5
 34
0.0
 50
180.0
1001
ACAD
1000
DSTYLE
1002
{
1070
    41
1040
1.9727878464999999
1070
    42
1040
2.5399999618999991
1070
    44
1040
3.8099999427999989
1070
    73
1070
     0
1070
   140
1040
3.1999998092999991
1070
   271
1070
     1
1070
   272
1070
     1
1002
}
  0
LINE
  5
3A7
  8
LAYER1$C$L1
 62
     3
 10
-160.29997253420001
 20
75.999969482400004
 30
0.0
 11
-159.49998474119991
 21
75.999969482400004
 31
0.0
  0
LINE
  5
3A8
  8
LAYER1$C$L1
 62
     3
 10
-159.49998474119991
 20
71.999969482400004
 30
0.0
 11
-160.29997253420001
 21
71.999969482400004
 31
0.0
  0
LINE
  5
3A9
  8
LAYER1$C$L1
 62
     3
 10
-159.49998474119991
 20
78.999969482400004
 30
0.0
 11
-159.49998474119991
 21
68.999969482400004
 31
0.0
  0
LINE
  5
3AA
  8
LAYER1$C$L1
 62
     3
 10
-159.79997253420001
 20
78.999969482400004
 30
0.0
 11
-159.49998474119991
 21
78.999969482400004
 31
0.0
  0
LINE
  5
3AB
  8
LAYER1$C$L1
 62
     3
 10
-160.29997253420001
 20
69.499969482400004
 30
0.0
 11
-160.29997253420001
 21
78.499969482400004
 31
0.0
  0
LINE
  5
3AC
  8
LAYER1$C$L1
 62
     3
 10
-159.49998474119991
 20
68.999969482400004
 30
0.0
 11
-159.79997253420001
 21
68.999969482400004
 31
0.0
  0
LINE
  5
3AD
  8
LAYER1$C$L1
 62
     3
 10
-160.29997253420001
 20
137.14997863769989
 30
0.0
 11
-160.29997253420001
 21
130.84997558590001
 31
0.0
  0
LINE
  5
3AE
  8
LAYER1$C$L1
 62
     3
 10
-159.49998474119991
 20
137.6499786377
 30
0.0
 11
-159.79997253420001
 21
137.6499786377
 31
0.0
  0
LINE
  5
3AF
  8
LAYER1$C$L1
 62
     3
 10
-159.49998474119991
 20
130.34997558590001
 30
0.0
 11
-159.49998474119991
 21
137.6499786377
 31
0.0
  0
LINE
  5
3B0
  8
LAYER1$C$L1
 62
     3
 10
-159.79997253420001
 20
130.34997558590001
 30
0.0
 11
-159.49998474119991
 21
130.34997558590001
 31
0.0
  0
LINE
  5
3B3
  8
LAYER1$C$L1
 62
     3
 10
-139.5
 20
135.09997558590001
 30
0.0
 11
-139.5
 21
132.8999786377
 31
0.0
  0
LINE
  5
3B4
  8
LAYER1$C$L1
 62
     3
 10
-139.5
 20
129.79997253420001
 30
0.0
 11
-139.5
 21
119.19998168950001
 31
0.0
  0
LINE
  5
3B5
  8
LAYER1$C$L1
 62
     3
 10
-116.6800079345999
 20
131.89999389650001
 30
0.0
 11
-117.8000030518
 21
131.89999389650001
 31
0.0
  0
LINE
  5
3B6
  8
LAYER1$C$L1
 62
     3
 10
-115.2933502196999
 20
129.2999877929999
 30
0.0
 11
-117.8000030518
 21
129.2999877929999
 31
0.0
  0
LINE
  5
3B7
  8
LAYER1$C$L1
 62
     3
 10
-114.0666809082
 20
127.0
 30
0.0
 11
-117.8000030518
 21
127.0
 31
0.0
  0
LINE
  5
3B8
  8
LAYER1$C$L1
 62
     3
 10
-113.0
 20
125.0
 30
0.0
 11
-117.8000030518
 21
125.0
 31
0.0
  0
LINE
  5
3B9
  8
LAYER1$C$L1
 62
     3
 10
-113.0
 20
123.2999877929999
 30
0.0
 11
-117.8000030518
 21
123.2999877929999
 31
0.0
  0
LINE
  5
3BA
  8
LAYER1$C$L1
 62
     3
 10
-113.0
 20
121.89999389649989
 30
0.0
 11
-117.8000030518
 21
121.89999389649989
 31
0.0
  0
LINE
  5
3BB
  8
LAYER1$C$L1
 62
     3
 10
-113.0
 20
120.7999877929999
 30
0.0
 11
-117.8000030518
 21
120.7999877929999
 31
0.0
  0
LINE
  5
3BC
  8
LAYER1$C$L1
 62
     3
 10
-113.0
 20
119.9999847412
 30
0.0
 11
-117.8000030518
 21
119.9999847412
 31
0.0
  0
LINE
  5
3BD
  8
LAYER1$C$L1
 62
     3
 10
-114.120010376
 20
136.0999908446999
 30
0.0
 11
-113.0
 21
136.0999908446999
 31
0.0
  0
LINE
  5
3BE
  8
LAYER1$C$L1
 62
     3
 10
-115.5066833495999
 20
138.69999694820001
 30
0.0
 11
-113.0
 21
138.69999694820001
 31
0.0
  0
LINE
  5
3BF
  8
LAYER1$C$L1
 62
     3
 10
-116.7333526611
 20
140.99998474119991
 30
0.0
 11
-113.0
 21
140.99998474119991
 31
0.0
  0
LINE
  5
3C0
  8
LAYER1$C$L1
 62
     3
 10
-117.8000030518
 20
142.99998474119991
 30
0.0
 11
-113.0
 21
142.99998474119991
 31
0.0
  0
LINE
  5
3C1
  8
LAYER1$C$L1
 62
     3
 10
-117.8000030518
 20
144.69999694820001
 30
0.0
 11
-113.0
 21
144.69999694820001
 31
0.0
  0
LINE
  5
3C2
  8
LAYER1$C$L1
 62
     3
 10
-117.8000030518
 20
146.09999084469999
 30
0.0
 11
-113.0
 21
146.09999084469999
 31
0.0
  0
LINE
  5
3C3
  8
LAYER1$C$L1
 62
     3
 10
-117.8000030518
 20
147.19999694820001
 30
0.0
 11
-113.0
 21
147.19999694820001
 31
0.0
  0
LINE
  5
3C4
  8
LAYER1$C$L1
 62
     3
 10
-117.8000030518
 20
147.99998474119991
 30
0.0
 11
-113.0
 21
147.99998474119991
 31
0.0
  0
LINE
  5
3C5
  8
LAYER1$C$L1
 62
     3
 10
-120.30000305179991
 20
122.7999877929999
 30
0.0
 11
-124.0000152588
 21
122.7999877929999
 31
0.0
  0
LINE
  5
3C6
  8
LAYER1$C$L1
 62
     3
 10
-117.8000030518
 20
132.9999847412
 30
0.0
 11
-119.30000305179991
 21
132.9999847412
 31
0.0
  0
LINE
  5
3C7
  8
LAYER1$C$L1
 62
     3
 10
-113.0
 20
119.4999847412
 30
0.0
 11
-117.8000030518
 21
119.4999847412
 31
0.0
  0
LINE
  5
3C8
  8
LAYER1$C$L1
 62
     3
 10
-120.30000305179991
 20
133.9999847412
 30
0.0
 11
-120.30000305179991
 21
119.9999847412
 31
0.0
  0
LINE
  5
3C9
  8
LAYER1$C$L1
 62
     3
 10
-117.8000030518
 20
133.9999847412
 30
0.0
 11
-117.8000030518
 21
119.4999847412
 31
0.0
  0
LINE
  5
3CA
  8
LAYER1$C$L1
 62
     3
 10
-113.0
 20
133.9999847412
 30
0.0
 11
-113.0
 21
119.4999847412
 31
0.0
  0
LINE
  5
3CB
  8
LAYER1$C$L1
 62
     3
 10
-117.8000030518
 20
119.9999847412
 30
0.0
 11
-120.30000305179991
 21
119.9999847412
 31
0.0
  0
LINE
  5
3CC
  8
LAYER1$C$L1
 62
     3
 10
-120.30000305179991
 20
130.74998474119991
 30
0.0
 11
-124.0000152588
 21
130.74998474119991
 31
0.0
  0
LINE
  5
3CD
  8
LAYER1$C$L1
 62
     3
 10
-127.6999969482
 20
133.9999847412
 30
0.0
 11
-127.6999969482
 21
129.7999877929999
 31
0.0
  0
LINE
  5
3CE
  8
LAYER1$C$L1
 62
     3
 10
-131.89997863769989
 20
132.89999389650001
 30
0.0
 11
-131.89997863769989
 21
133.9999847412
 31
0.0
  0
LINE
  5
3CF
  8
LAYER1$C$L1
 62
     3
 10
-139.5
 20
132.89999389650001
 30
0.0
 11
-127.6999969482
 21
132.89999389650001
 31
0.0
  0
LINE
  5
3D0
  8
LAYER1$C$L1
 62
     3
 10
-126.0
 20
133.9999847412
 30
0.0
 11
-126.0
 21
129.7999877929999
 31
0.0
  0
LINE
  5
3D1
  8
LAYER1$C$L1
 62
     3
 10
-125.5
 20
133.9999847412
 30
0.0
 11
-125.5
 21
129.7999877929999
 31
0.0
  0
LINE
  5
3D2
  8
LAYER1$C$L1
 62
     3
 10
-125.5
 20
129.7999877929999
 30
0.0
 11
-139.5
 21
129.7999877929999
 31
0.0
  0
LINE
  5
3D3
  8
LAYER1$C$L1
 62
     3
 10
-125.5
 20
128.69999694820001
 30
0.0
 11
-139.5
 21
128.69999694820001
 31
0.0
  0
LINE
  5
3D4
  8
LAYER1$C$L1
 62
     3
 10
-124.0000152588
 20
130.74998474119991
 30
0.0
 11
-125.5
 21
130.74998474119991
 31
0.0
  0
LINE
  5
3D5
  8
LAYER1$C$L1
 62
     3
 10
-111.0
 20
132.39999389650001
 30
0.0
 11
-112.700012207
 21
132.39999389650001
 31
0.0
  0
LINE
  5
3D6
  8
LAYER1$C$L1
 62
     3
 10
-112.700012207
 20
133.9999847412
 30
0.0
 11
-112.700012207
 21
132.39999389650001
 31
0.0
  0
LINE
  5
3D7
  8
LAYER1$C$L1
 62
     3
 10
-111.5000152588
 20
132.39999389650001
 30
0.0
 11
-111.5000152588
 21
122.9999847412
 31
0.0
  0
LINE
  5
3D8
  8
LAYER1$C$L1
 62
     3
 10
-111.0
 20
122.9999847412
 30
0.0
 11
-113.0
 21
122.9999847412
 31
0.0
  0
LINE
  5
3D9
  8
LAYER1$C$L1
 62
     3
 10
-124.0000152588
 20
122.9999847412
 30
0.0
 11
-125.0
 21
122.9999847412
 31
0.0
  0
LINE
  5
3DA
  8
LAYER1$C$L1
 62
     3
 10
-120.30000305179991
 20
121.9999847412
 30
0.0
 11
-124.0000152588
 21
121.9999847412
 31
0.0
  0
LINE
  5
3DB
  8
LAYER1$C$L1
 62
     3
 10
-126.0
 20
119.1999969482
 30
0.0
 11
-139.5
 21
119.1999969482
 31
0.0
  0
LINE
  5
3DC
  8
LAYER1$C$L1
 62
     3
 10
-124.0000152588
 20
130.74998474119991
 30
0.0
 11
-124.0000152588
 21
121.9999847412
 31
0.0
  0
LINE
  5
3DD
  8
LAYER1$C$L1
 62
     3
 10
-125.5
 20
129.7999877929999
 30
0.0
 11
-125.5
 21
119.6999969481999
 31
0.0
  0
LINE
  5
3DE
  8
LAYER1$C$L1
 62
     3
 10
-124.0000152588
 20
145.19999694820001
 30
0.0
 11
-120.30000305179991
 21
145.19999694820001
 31
0.0
  0
LINE
  5
3DF
  8
LAYER1$C$L1
 62
     3
 10
-119.30000305179991
 20
134.9999847412
 30
0.0
 11
-117.8000030518
 21
134.9999847412
 31
0.0
  0
LINE
  5
3E0
  8
LAYER1$C$L1
 62
     3
 10
-117.8000030518
 20
148.4999847412
 30
0.0
 11
-113.0
 21
148.4999847412
 31
0.0
  0
LINE
  5
3E1
  8
LAYER1$C$L1
 62
     3
 10
-120.30000305179991
 20
147.99998474119991
 30
0.0
 11
-120.30000305179991
 21
133.9999847412
 31
0.0
  0
LINE
  5
3E2
  8
LAYER1$C$L1
 62
     3
 10
-117.8000030518
 20
148.4999847412
 30
0.0
 11
-117.8000030518
 21
133.9999847412
 31
0.0
  0
LINE
  5
3E3
  8
LAYER1$C$L1
 62
     3
 10
-113.0
 20
148.4999847412
 30
0.0
 11
-113.0
 21
133.9999847412
 31
0.0
  0
LINE
  5
3E4
  8
LAYER1$C$L1
 62
     3
 10
-120.30000305179991
 20
147.99998474119991
 30
0.0
 11
-117.8000030518
 21
147.99998474119991
 31
0.0
  0
LINE
  5
3E5
  8
LAYER1$C$L1
 62
     3
 10
-124.0000152588
 20
137.2499847412
 30
0.0
 11
-120.30000305179991
 21
137.2499847412
 31
0.0
  0
LINE
  5
3E6
  8
LAYER1$C$L1
 62
     3
 10
-127.6999969482
 20
138.19999694820001
 30
0.0
 11
-127.6999969482
 21
133.9999847412
 31
0.0
  0
LINE
  5
3E7
  8
LAYER1$C$L1
 62
     3
 10
-131.89997863769989
 20
133.9999847412
 30
0.0
 11
-131.89997863769989
 21
135.0999908446999
 31
0.0
  0
LINE
  5
3E8
  8
LAYER1$C$L1
 62
     3
 10
-127.6999969482
 20
135.0999908446999
 30
0.0
 11
-139.5
 21
135.0999908446999
 31
0.0
  0
LINE
  5
3E9
  8
LAYER1$C$L1
 62
     3
 10
-126.0
 20
138.19999694820001
 30
0.0
 11
-126.0
 21
133.9999847412
 31
0.0
  0
LINE
  5
3EA
  8
LAYER1$C$L1
 62
     3
 10
-125.5
 20
138.19999694820001
 30
0.0
 11
-125.5
 21
133.9999847412
 31
0.0
  0
LINE
  5
3EB
  8
LAYER1$C$L1
 62
     3
 10
-139.5
 20
138.19999694820001
 30
0.0
 11
-125.5
 21
138.19999694820001
 31
0.0
  0
LINE
  5
3EC
  8
LAYER1$C$L1
 62
     3
 10
-139.5
 20
139.2999877929999
 30
0.0
 11
-125.5
 21
139.2999877929999
 31
0.0
  0
LINE
  5
3ED
  8
LAYER1$C$L1
 62
     3
 10
-125.5
 20
137.2499847412
 30
0.0
 11
-124.0000152588
 21
137.2499847412
 31
0.0
  0
LINE
  5
3EE
  8
LAYER1$C$L1
 62
     3
 10
-112.700012207
 20
135.5999908446999
 30
0.0
 11
-111.0
 21
135.5999908446999
 31
0.0
  0
LINE
  5
3EF
  8
LAYER1$C$L1
 62
     3
 10
-112.700012207
 20
135.5999908446999
 30
0.0
 11
-112.700012207
 21
133.9999847412
 31
0.0
  0
LINE
  5
3F0
  8
LAYER1$C$L1
 62
     3
 10
-111.5000152588
 20
144.99998474119991
 30
0.0
 11
-111.5000152588
 21
135.5999908446999
 31
0.0
  0
LINE
  5
3F1
  8
LAYER1$C$L1
 62
     3
 10
-113.0
 20
144.99998474119991
 30
0.0
 11
-111.0
 21
144.99998474119991
 31
0.0
  0
LINE
  5
3F2
  8
LAYER1$C$L1
 62
     3
 10
-125.0
 20
144.99998474119991
 30
0.0
 11
-124.0000152588
 21
144.99998474119991
 31
0.0
  0
LINE
  5
3F3
  8
LAYER1$C$L1
 62
     3
 10
-124.0000152588
 20
145.99998474119991
 30
0.0
 11
-120.30000305179991
 21
145.99998474119991
 31
0.0
  0
LINE
  5
3F4
  8
LAYER1$C$L1
 62
     3
 10
-139.5
 20
148.7999877929999
 30
0.0
 11
-126.0
 21
148.7999877929999
 31
0.0
  0
LINE
  5
3F5
  8
LAYER1$C$L1
 62
     3
 10
-124.0000152588
 20
145.99998474119991
 30
0.0
 11
-124.0000152588
 21
137.2499847412
 31
0.0
  0
LINE
  5
3F6
  8
LAYER1$C$L1
 62
     3
 10
-125.5
 20
148.29998779300001
 30
0.0
 11
-125.5
 21
138.19999694820001
 31
0.0
  0
LINE
  5
3F7
  8
LAYER1$C$L1
 62
     3
 10
-139.5
 20
148.7999877929999
 30
0.0
 11
-139.5
 21
138.19998168949999
 31
0.0
  0
LINE
  5
3F8
  8
LAYER3$C$L3
  6
CENTERLINE
 62
     3
 10
-165.1925659179999
 20
133.9999847412
 30
0.0
 11
-95.843017578099989
 21
133.9999847412
 31
0.0
  0
LINE
  5
3F9
  8
LAYER1$C$L1
 62
     3
 10
-109.1033325195
 20
131.89999389650001
 30
0.0
 11
-110.1999969481999
 21
131.89999389650001
 31
0.0
  0
LINE
  5
3FA
  8
LAYER1$C$L1
 62
     3
 10
-107.7835693359
 20
129.2999877929999
 30
0.0
 11
-110.1999969481999
 21
129.2999877929999
 31
0.0
  0
LINE
  5
3FB
  8
LAYER1$C$L1
 62
     3
 10
-106.5444488525
 20
127.0
 30
0.0
 11
-110.1999969481999
 21
127.0
 31
0.0
  0
LINE
  5
3FC
  8
LAYER1$C$L1
 62
     3
 10
-105.4999999999999
 20
125.0
 30
0.0
 11
-110.1999969481999
 21
125.0
 31
0.0
  0
LINE
  5
3FD
  8
LAYER1$C$L1
 62
     3
 10
-105.4999999999999
 20
123.2999877929999
 30
0.0
 11
-110.1999969481999
 21
123.2999877929999
 31
0.0
  0
LINE
  5
3FE
  8
LAYER1$C$L1
 62
     3
 10
-105.4999999999999
 20
121.89999389649989
 30
0.0
 11
-110.1999969481999
 21
121.89999389649989
 31
0.0
  0
LINE
  5
3FF
  8
LAYER1$C$L1
 62
     3
 10
-105.4999999999999
 20
120.7999877929999
 30
0.0
 11
-110.1999969481999
 21
120.7999877929999
 31
0.0
  0
LINE
  5
400
  8
LAYER1$C$L1
 62
     3
 10
-105.4999999999999
 20
120.0
 30
0.0
 11
-110.1999969481999
 21
120.0
 31
0.0
  0
LINE
  5
401
  8
LAYER1$C$L1
 62
     3
 10
-98.000005580699991
 20
120.3000038986
 30
0.0
 11
-98.300010215000015
 21
119.9999992643
 31
0.0
  0
LINE
  5
402
  8
LAYER1$C$L1
 62
     3
 10
-104.9999914327
 20
119.9999884746999
 30
0.0
 11
-105.49999196349999
 21
119.4999879438999
 31
0.0
  0
LINE
  5
403
  8
LAYER1$C$L1
 62
     3
 10
-98.300003051800005
 20
120.0
 30
0.0
 11
-105.0
 21
120.0
 31
0.0
  0
LINE
  5
404
  8
LAYER1$C$L1
 62
     3
 10
-105.0
 20
134.0
 30
0.0
 11
-105.0
 21
120.0
 31
0.0
  0
LINE
  5
405
  8
LAYER1$C$L1
 62
     3
 10
-98.300003051800005
 20
134.0
 30
0.0
 11
-98.300003051800005
 21
120.0
 31
0.0
  0
LINE
  5
406
  8
LAYER1$C$L1
 62
     3
 10
-98.0
 20
134.0
 30
0.0
 11
-98.0
 21
120.2999877929999
 31
0.0
  0
LINE
  5
407
  8
LAYER1$C$L1
 62
     3
 10
-105.4999999999999
 20
119.5
 30
0.0
 11
-110.1999969481999
 21
119.5
 31
0.0
  0
LINE
  5
408
  8
LAYER1$C$L1
 62
     3
 10
-105.4999999999999
 20
134.0
 30
0.0
 11
-105.4999999999999
 21
119.5
 31
0.0
  0
LINE
  5
409
  8
LAYER1$C$L1
 62
     3
 10
-110.2000070509999
 20
119.49999352489991
 30
0.0
 11
-111.0000067842999
 21
120.4999931916
 31
0.0
  0
LINE
  5
40A
  8
LAYER1$C$L1
 62
     3
 10
-110.1999969481999
 20
134.0
 30
0.0
 11
-110.1999969481999
 21
119.5
 31
0.0
  0
LINE
  5
40B
  8
LAYER1$C$L1
 62
     3
 10
-111.0
 20
134.0
 30
0.0
 11
-111.0
 21
120.5
 31
0.0
  0
LINE
  5
40C
  8
LAYER1$C$L1
 62
     3
 10
-106.5966644287
 20
136.0999908446999
 30
0.0
 11
-105.4999999999999
 21
136.0999908446999
 31
0.0
  0
LINE
  5
40D
  8
LAYER1$C$L1
 62
     3
 10
-107.9544372559
 20
138.69999694820001
 30
0.0
 11
-105.4999999999999
 21
138.69999694820001
 31
0.0
  0
LINE
  5
40E
  8
LAYER1$C$L1
 62
     3
 10
-109.1555480957
 20
140.99998474119991
 30
0.0
 11
-105.4999999999999
 21
140.99998474119991
 31
0.0
  0
LINE
  5
40F
  8
LAYER1$C$L1
 62
     3
 10
-110.1999969481999
 20
142.99998474119991
 30
0.0
 11
-105.4999999999999
 21
142.99998474119991
 31
0.0
  0
LINE
  5
410
  8
LAYER1$C$L1
 62
     3
 10
-110.1999969481999
 20
144.69999694820001
 30
0.0
 11
-105.4999999999999
 21
144.69999694820001
 31
0.0
  0
LINE
  5
411
  8
LAYER1$C$L1
 62
     3
 10
-110.1999969481999
 20
146.09999084469999
 30
0.0
 11
-105.4999999999999
 21
146.09999084469999
 31
0.0
  0
LINE
  5
412
  8
LAYER1$C$L1
 62
     3
 10
-110.1999969481999
 20
147.19999694820001
 30
0.0
 11
-105.4999999999999
 21
147.19999694820001
 31
0.0
  0
LINE
  5
413
  8
LAYER1$C$L1
 62
     3
 10
-110.1999969481999
 20
148.0
 30
0.0
 11
-105.4999999999999
 21
148.0
 31
0.0
  0
LINE
  5
414
  8
LAYER1$C$L1
 62
     3
 10
-98.300011563700025
 20
147.9999844818
 30
0.0
 11
-98.000006929400016
 21
147.6999798473999
 31
0.0
  0
LINE
  5
415
  8
LAYER1$C$L1
 62
     3
 10
-105.5000041018
 20
148.49998501259989
 30
0.0
 11
-105.00000357099999
 21
147.9999844818
 31
0.0
  0
LINE
  5
416
  8
LAYER1$C$L1
 62
     3
 10
-105.0
 20
148.0
 30
0.0
 11
-98.300003051800005
 21
148.0
 31
0.0
  0
LINE
  5
417
  8
LAYER1$C$L1
 62
     3
 10
-105.0
 20
148.0
 30
0.0
 11
-105.0
 21
134.0
 31
0.0
  0
LINE
  5
418
  8
LAYER1$C$L1
 62
     3
 10
-98.300003051800005
 20
148.0
 30
0.0
 11
-98.300003051800005
 21
134.0
 31
0.0
  0
LINE
  5
419
  8
LAYER1$C$L1
 62
     3
 10
-98.0
 20
147.69999694820001
 30
0.0
 11
-98.0
 21
134.0
 31
0.0
  0
LINE
  5
41A
  8
LAYER1$C$L1
 62
     3
 10
-110.1999969481999
 20
148.5
 30
0.0
 11
-105.4999999999999
 21
148.5
 31
0.0
  0
LINE
  5
41B
  8
LAYER1$C$L1
 62
     3
 10
-105.4999999999999
 20
148.5
 30
0.0
 11
-105.4999999999999
 21
134.0
 31
0.0
  0
LINE
  5
41C
  8
LAYER1$C$L1
 62
     3
 10
-110.9999820604
 20
147.49997585009999
 30
0.0
 11
-110.1999823270999
 21
148.4999755167
 31
0.0
  0
LINE
  5
41D
  8
LAYER1$C$L1
 62
     3
 10
-110.1999969481999
 20
148.5
 30
0.0
 11
-110.1999969481999
 21
134.0
 31
0.0
  0
LINE
  5
41E
  8
LAYER1$C$L1
 62
     3
 10
-111.0
 20
147.5
 30
0.0
 11
-111.0
 21
134.0
 31
0.0
  0
LINE
  5
41F
  8
LAYER1$C$L1
 62
     3
 10
-111.0
 20
62.9999542236
 30
0.0
 11
-113.0
 21
62.9999542236
 31
0.0
  0
LINE
  5
420
  8
LAYER1$C$L1
 62
     3
 10
-120.30000305179991
 20
62.799957275399997
 30
0.0
 11
-124.0000152588
 21
62.799957275399997
 31
0.0
  0
LINE
  5
421
  8
LAYER1$C$L1
 62
     3
 10
-120.30000305179991
 20
61.9999542236
 30
0.0
 11
-124.0000152588
 21
61.9999542236
 31
0.0
  0
LINE
  5
422
  8
LAYER1$C$L1
 62
     3
 10
-116.6800079345999
 20
71.899963378899997
 30
0.0
 11
-117.8000030518
 21
71.899963378899997
 31
0.0
  0
LINE
  5
423
  8
LAYER1$C$L1
 62
     3
 10
-115.2933502196999
 20
69.299957275400004
 30
0.0
 11
-117.8000030518
 21
69.299957275400004
 31
0.0
  0
LINE
  5
424
  8
LAYER1$C$L1
 62
     3
 10
-114.0666809082
 20
66.999969482400004
 30
0.0
 11
-117.8000030518
 21
66.999969482400004
 31
0.0
  0
LINE
  5
425
  8
LAYER1$C$L1
 62
     3
 10
-113.0
 20
64.999969482400004
 30
0.0
 11
-117.8000030518
 21
64.999969482400004
 31
0.0
  0
LINE
  5
426
  8
LAYER1$C$L1
 62
     3
 10
-113.0
 20
63.299957275399997
 30
0.0
 11
-117.8000030518
 21
63.299957275399997
 31
0.0
  0
LINE
  5
427
  8
LAYER1$C$L1
 62
     3
 10
-113.0
 20
61.899963378900011
 30
0.0
 11
-117.8000030518
 21
61.899963378900011
 31
0.0
  0
LINE
  5
428
  8
LAYER1$C$L1
 62
     3
 10
-113.0
 20
60.799957275399997
 30
0.0
 11
-117.8000030518
 21
60.799957275399997
 31
0.0
  0
LINE
  5
429
  8
LAYER1$C$L1
 62
     3
 10
-113.0
 20
59.9999542236
 30
0.0
 11
-117.8000030518
 21
59.9999542236
 31
0.0
  0
LINE
  5
42A
  8
LAYER1$C$L1
 62
     3
 10
-117.8000030518
 20
59.9999542236
 30
0.0
 11
-120.30000305179991
 21
59.9999542236
 31
0.0
  0
LINE
  5
42B
  8
LAYER1$C$L1
 62
     3
 10
-113.0
 20
59.4999542236
 30
0.0
 11
-117.8000030518
 21
59.4999542236
 31
0.0
  0
LINE
  5
42C
  8
LAYER1$C$L1
 62
     3
 10
-117.8000030518
 20
73.999954223599985
 30
0.0
 11
-117.8000030518
 21
59.4999542236
 31
0.0
  0
LINE
  5
42D
  8
LAYER1$C$L1
 62
     3
 10
-120.30000305179991
 20
73.999954223599985
 30
0.0
 11
-120.30000305179991
 21
59.9999542236
 31
0.0
  0
LINE
  5
42E
  8
LAYER1$C$L1
 62
     3
 10
-113.0
 20
73.999954223599985
 30
0.0
 11
-113.0
 21
59.4999542236
 31
0.0
  0
LINE
  5
42F
  8
LAYER1$C$L1
 62
     3
 10
-125.5
 20
73.999954223599985
 30
0.0
 11
-125.5
 21
62.4999542236
 31
0.0
  0
LINE
  5
430
  8
LAYER1$C$L1
 62
     3
 10
-124.0000152588
 20
62.9999542236
 30
0.0
 11
-125.0
 21
62.9999542236
 31
0.0
  0
LINE
  5
431
  8
LAYER1$C$L1
 62
     3
 10
-124.0000152588
 20
73.999954223599985
 30
0.0
 11
-124.0000152588
 21
61.9999542236
 31
0.0
  0
LINE
  5
432
  8
LAYER1$C$L1
 62
     3
 10
-126.0
 20
55.9999542236
 30
0.0
 11
-139.5
 21
55.9999542236
 31
0.0
  0
LINE
  5
433
  8
LAYER1$C$L1
 62
     3
 10
-126.0
 20
55.4999542236
 30
0.0
 11
-139.5
 21
55.4999542236
 31
0.0
  0
LINE
  5
434
  8
LAYER1$C$L1
 62
     3
 10
-125.5
 20
62.4999542236
 30
0.0
 11
-125.5
 21
55.9999542236
 31
0.0
  0
LINE
  5
435
  8
LAYER1$C$L1
 62
     3
 10
-139.5
 20
73.999954223599985
 30
0.0
 11
-139.5
 21
55.4999542236
 31
0.0
  0
LINE
  5
436
  8
LAYER1$C$L1
 62
     3
 10
-114.120010376
 20
76.099960327100007
 30
0.0
 11
-113.0
 21
76.099960327100007
 31
0.0
  0
LINE
  5
437
  8
LAYER1$C$L1
 62
     3
 10
-115.5066833495999
 20
78.699966430700002
 30
0.0
 11
-113.0
 21
78.699966430700002
 31
0.0
  0
LINE
  5
438
  8
LAYER1$C$L1
 62
     3
 10
-116.7333526611
 20
80.999954223600014
 30
0.0
 11
-113.0
 21
80.999954223600014
 31
0.0
  0
LINE
  5
439
  8
LAYER1$C$L1
 62
     3
 10
-117.8000030518
 20
82.9999542236
 30
0.0
 11
-113.0
 21
82.9999542236
 31
0.0
  0
LINE
  5
43A
  8
LAYER1$C$L1
 62
     3
 10
-117.8000030518
 20
84.699966430700002
 30
0.0
 11
-113.0
 21
84.699966430700002
 31
0.0
  0
LINE
  5
43B
  8
LAYER1$C$L1
 62
     3
 10
-117.8000030518
 20
86.099960327099978
 30
0.0
 11
-113.0
 21
86.099960327099978
 31
0.0
  0
LINE
  5
43C
  8
LAYER1$C$L1
 62
     3
 10
-117.8000030518
 20
87.199966430700002
 30
0.0
 11
-113.0
 21
87.199966430700002
 31
0.0
  0
LINE
  5
43D
  8
LAYER1$C$L1
 62
     3
 10
-117.8000030518
 20
87.9999542236
 30
0.0
 11
-113.0
 21
87.9999542236
 31
0.0
  0
LINE
  5
43E
  8
LAYER1$C$L1
 62
     3
 10
-120.30000305179991
 20
87.9999542236
 30
0.0
 11
-117.8000030518
 21
87.9999542236
 31
0.0
  0
LINE
  5
43F
  8
LAYER1$C$L1
 62
     3
 10
-117.8000030518
 20
88.499954223600014
 30
0.0
 11
-113.0
 21
88.499954223600014
 31
0.0
  0
LINE
  5
440
  8
LAYER1$C$L1
 62
     3
 10
-117.8000030518
 20
88.499954223600014
 30
0.0
 11
-117.8000030518
 21
73.999954223599985
 31
0.0
  0
LINE
  5
441
  8
LAYER1$C$L1
 62
     3
 10
-120.30000305179991
 20
87.9999542236
 30
0.0
 11
-120.30000305179991
 21
73.999954223599985
 31
0.0
  0
LINE
  5
442
  8
LAYER1$C$L1
 62
     3
 10
-113.0
 20
88.499954223600014
 30
0.0
 11
-113.0
 21
73.999954223599985
 31
0.0
  0
LINE
  5
443
  8
LAYER1$C$L1
 62
     3
 10
-113.0
 20
84.999954223599985
 30
0.0
 11
-111.0
 21
84.999954223599985
 31
0.0
  0
LINE
  5
444
  8
LAYER1$C$L1
 62
     3
 10
-124.0000152588
 20
85.199966430699988
 30
0.0
 11
-120.30000305179991
 21
85.199966430699988
 31
0.0
  0
LINE
  5
445
  8
LAYER1$C$L1
 62
     3
 10
-125.5
 20
85.4999542236
 30
0.0
 11
-125.5
 21
73.999954223599985
 31
0.0
  0
LINE
  5
446
  8
LAYER1$C$L1
 62
     3
 10
-125.0
 20
84.999954223599985
 30
0.0
 11
-124.0000152588
 21
84.999954223599985
 31
0.0
  0
LINE
  5
447
  8
LAYER1$C$L1
 62
     3
 10
-124.0000152588
 20
85.999954223600014
 30
0.0
 11
-120.30000305179991
 21
85.999954223600014
 31
0.0
  0
LINE
  5
448
  8
LAYER1$C$L1
 62
     3
 10
-124.0000152588
 20
85.999954223600014
 30
0.0
 11
-124.0000152588
 21
73.999954223599985
 31
0.0
  0
LINE
  5
449
  8
LAYER1$C$L1
 62
     3
 10
-139.5
 20
91.9999542236
 30
0.0
 11
-126.0
 21
91.9999542236
 31
0.0
  0
LINE
  5
44A
  8
LAYER1$C$L1
 62
     3
 10
-139.5
 20
92.499954223599985
 30
0.0
 11
-126.0
 21
92.499954223599985
 31
0.0
  0
LINE
  5
44B
  8
LAYER1$C$L1
 62
     3
 10
-125.5
 20
91.9999542236
 30
0.0
 11
-125.5
 21
85.4999542236
 31
0.0
  0
LINE
  5
44C
  8
LAYER1$C$L1
 62
     3
 10
-139.5
 20
92.499954223599985
 30
0.0
 11
-139.5
 21
73.999954223599985
 31
0.0
  0
LINE
  5
44D
  8
LAYER3$C$L3
  6
CENTERLINE
 62
     3
 10
-165.6611785888999
 20
73.999984741199995
 30
0.0
 11
-93.0
 21
73.999984741199995
 31
0.0
  0
LINE
  5
44E
  8
LAYER1$C$L1
 62
     3
 10
-109.1033325195
 20
71.899978637700002
 30
0.0
 11
-110.1999969481999
 21
71.899978637700002
 31
0.0
  0
LINE
  5
44F
  8
LAYER1$C$L1
 62
     3
 10
-107.7835693359
 20
69.299972534199995
 30
0.0
 11
-110.1999969481999
 21
69.299972534199995
 31
0.0
  0
LINE
  5
450
  8
LAYER1$C$L1
 62
     3
 10
-106.5444488525
 20
66.999984741199995
 30
0.0
 11
-110.1999969481999
 21
66.999984741199995
 31
0.0
  0
LINE
  5
451
  8
LAYER1$C$L1
 62
     3
 10
-105.4999999999999
 20
64.999984741199995
 30
0.0
 11
-110.1999969481999
 21
64.999984741199995
 31
0.0
  0
LINE
  5
452
  8
LAYER1$C$L1
 62
     3
 10
-105.4999999999999
 20
63.299972534200002
 30
0.0
 11
-110.1999969481999
 21
63.299972534200002
 31
0.0
  0
LINE
  5
453
  8
LAYER1$C$L1
 62
     3
 10
-105.4999999999999
 20
61.899978637700002
 30
0.0
 11
-110.1999969481999
 21
61.899978637700002
 31
0.0
  0
LINE
  5
454
  8
LAYER1$C$L1
 62
     3
 10
-105.4999999999999
 20
60.799972534200002
 30
0.0
 11
-110.1999969481999
 21
60.799972534200002
 31
0.0
  0
LINE
  5
455
  8
LAYER1$C$L1
 62
     3
 10
-105.4999999999999
 20
59.999984741200002
 30
0.0
 11
-110.1999969481999
 21
59.999984741200002
 31
0.0
  0
LINE
  5
456
  8
LAYER1$C$L1
 62
     3
 10
-98.000017718999985
 20
60.299971223299998
 30
0.0
 11
-98.300022353299994
 21
59.999966588999989
 31
0.0
  0
LINE
  5
457
  8
LAYER1$C$L1
 62
     3
 10
-105.00000357099999
 20
59.999955799399999
 30
0.0
 11
-105.5000041018
 21
59.499955268599997
 31
0.0
  0
LINE
  5
458
  8
LAYER1$C$L1
 62
     3
 10
-98.300003051800005
 20
59.999984741200002
 30
0.0
 11
-105.0
 21
59.999984741200002
 31
0.0
  0
LINE
  5
459
  8
LAYER1$C$L1
 62
     3
 10
-105.0
 20
73.999984741199995
 30
0.0
 11
-105.0
 21
59.999984741200002
 31
0.0
  0
LINE
  5
45A
  8
LAYER1$C$L1
 62
     3
 10
-98.300003051800005
 20
73.999984741199995
 30
0.0
 11
-98.300003051800005
 21
59.999984741200002
 31
0.0
  0
LINE
  5
45B
  8
LAYER1$C$L1
 62
     3
 10
-98.0
 20
73.999984741199995
 30
0.0
 11
-98.0
 21
60.299972534200002
 31
0.0
  0
LINE
  5
45C
  8
LAYER1$C$L1
 62
     3
 10
-105.4999999999999
 20
59.499984741200002
 30
0.0
 11
-110.1999969481999
 21
59.499984741200002
 31
0.0
  0
LINE
  5
45D
  8
LAYER1$C$L1
 62
     3
 10
-105.4999999999999
 20
73.999984741199995
 30
0.0
 11
-105.4999999999999
 21
59.499984741200002
 31
0.0
  0
LINE
  5
45E
  8
LAYER1$C$L1
 62
     3
 10
-110.19997994409999
 20
59.499976590099998
 30
0.0
 11
-110.99997967739991
 21
60.499976256799997
 31
0.0
  0
LINE
  5
45F
  8
LAYER1$C$L1
 62
     3
 10
-110.1999969481999
 20
73.999984741199995
 30
0.0
 11
-110.1999969481999
 21
59.499984741200002
 31
0.0
  0
LINE
  5
460
  8
LAYER1$C$L1
 62
     3
 10
-111.0
 20
73.999984741199995
 30
0.0
 11
-111.0
 21
60.499984741200002
 31
0.0
  0
LINE
  5
461
  8
LAYER1$C$L1
 62
     3
 10
-106.5966644287
 20
76.099975585899983
 30
0.0
 11
-105.4999999999999
 21
76.099975585899983
 31
0.0
  0
LINE
  5
462
  8
LAYER1$C$L1
 62
     3
 10
-107.9544372559
 20
78.699981689499992
 30
0.0
 11
-105.4999999999999
 21
78.699981689499992
 31
0.0
  0
LINE
  5
463
  8
LAYER1$C$L1
 62
     3
 10
-109.1555480957
 20
80.999969482400004
 30
0.0
 11
-105.4999999999999
 21
80.999969482400004
 31
0.0
  0
LINE
  5
464
  8
LAYER1$C$L1
 62
     3
 10
-110.1999969481999
 20
82.999969482400004
 30
0.0
 11
-105.4999999999999
 21
82.999969482400004
 31
0.0
  0
LINE
  5
465
  8
LAYER1$C$L1
 62
     3
 10
-110.1999969481999
 20
84.699981689499992
 30
0.0
 11
-105.4999999999999
 21
84.699981689499992
 31
0.0
  0
LINE
  5
466
  8
LAYER1$C$L1
 62
     3
 10
-110.1999969481999
 20
86.099975585899998
 30
0.0
 11
-105.4999999999999
 21
86.099975585899998
 31
0.0
  0
LINE
  5
467
  8
LAYER1$C$L1
 62
     3
 10
-110.1999969481999
 20
87.199981689500007
 30
0.0
 11
-105.4999999999999
 21
87.199981689500007
 31
0.0
  0
LINE
  5
468
  8
LAYER1$C$L1
 62
     3
 10
-110.1999969481999
 20
87.999984741199995
 30
0.0
 11
-105.4999999999999
 21
87.999984741199995
 31
0.0
  0
LINE
  5
469
  8
LAYER1$C$L1
 62
     3
 10
-98.300010215000015
 20
87.999943714300016
 30
0.0
 11
-98.000016370300003
 21
87.699949869599976
 31
0.0
  0
LINE
  5
46A
  8
LAYER1$C$L1
 62
     3
 10
-105.5000135426999
 20
88.499955034699994
 30
0.0
 11
-105.00001301189999
 21
87.999954503899986
 31
0.0
  0
LINE
  5
46B
  8
LAYER1$C$L1
 62
     3
 10
-105.0
 20
87.999984741199995
 30
0.0
 11
-98.300003051800005
 21
87.999984741199995
 31
0.0
  0
LINE
  5
46C
  8
LAYER1$C$L1
 62
     3
 10
-105.0
 20
87.999984741199995
 30
0.0
 11
-105.0
 21
73.999984741199995
 31
0.0
  0
LINE
  5
46D
  8
LAYER1$C$L1
 62
     3
 10
-98.300003051800005
 20
87.999984741199995
 30
0.0
 11
-98.300003051800005
 21
73.999984741199995
 31
0.0
  0
LINE
  5
46E
  8
LAYER1$C$L1
 62
     3
 10
-98.0
 20
87.699981689500007
 30
0.0
 11
-98.0
 21
73.999984741199995
 31
0.0
  0
LINE
  5
46F
  8
LAYER1$C$L1
 62
     3
 10
-110.1999969481999
 20
88.499984741200009
 30
0.0
 11
-105.4999999999999
 21
88.499984741200009
 31
0.0
  0
LINE
  5
470
  8
LAYER1$C$L1
 62
     3
 10
-105.4999999999999
 20
88.499984741200009
 30
0.0
 11
-105.4999999999999
 21
73.999984741199995
 31
0.0
  0
LINE
  5
471
  8
LAYER1$C$L1
 62
     3
 10
-110.99999755010001
 20
87.4999520641
 30
0.0
 11
-110.1999983753
 21
88.499951032600009
 31
0.0
  0
LINE
  5
47A
  8
LAYER1$C$L1
 62
     3
 10
-110.1999969481999
 20
88.499984741200009
 30
0.0
 11
-110.1999969481999
 21
73.999984741199995
 31
0.0
  0
LINE
  5
47B
  8
LAYER1$C$L1
 62
     3
 10
-111.0
 20
87.499984741200009
 30
0.0
 11
-111.0
 21
73.999984741199995
 31
0.0
  0
INSERT
  5
48E
  8
LAYER8$C$L8
 62
     3
 66
     1
  2
CADRA_ATTR_5
 10
0.0
 20
0.0
 30
0.0
  0
ATTRIB
  5
48F
  8
LAYER8$C$L8
 62
     3
 10
-41.999992999999989
 20
18.5
 30
0.0
 40
0.156
  1
ç?^HV  é
  2
20
 70
    11
  0
SEQEND
  5
490
  8
LAYER8$C$L8
 62
     3
  0
INSERT
  5
607
  8
0
  2
*U30
 10
0.0
 20
0.0
 30
0.0
  0
ENDSEC
  0
EOF
