  0
SECTION
  2
HEADER
  9
$ACADVER
  1
AC1009
  9
$INSBASE
 10
0.0
 20
0.0
 30
0.0
  9
$EXTMIN
 10
-191.0
 20
11.0
 30
0.0
  9
$EXTMAX
 10
7.2084208708352344
 20
290.0
 30
0.0
  9
$LIMMIN
 10
-194.17500000000001
 20
-3.1749999999999989
  9
$LIMMAX
 10
3.1749999999999989
 20
293.17500000000001
  9
$ORTHOMODE
 70
     0
  9
$REGENMODE
 70
     1
  9
$FILLMODE
 70
     1
  9
$QTEXTMODE
 70
     0
  9
$MIRRTEXT
 70
     0
  9
$DRAGMODE
 70
     2
  9
$LTSCALE
 40
1.0
  9
$OSMODE
 70
    39
  9
$ATTMODE
 70
     1
  9
$TEXTSIZE
 40
3.0
  9
$TRACEWID
 40
0.05
  9
$TEXTSTYLE
  7
STANDARD
  9
$CLAYER
  8
0
  9
$CELTYPE
  6
BYLAYER
  9
$CECOLOR
 62
   256
  9
$DIMSCALE
 40
1.0
  9
$DIMASZ
 40
1.972787845999999
  9
$DIMEXO
 40
2.5399999618999991
  9
$DIMDLI
 40
0.38
  9
$DIMRND
 40
0.0
  9
$DIMDLE
 40
0.0
  9
$DIMEXE
 40
3.8099999427999989
  9
$DIMTP
 40
0.0
  9
$DIMTM
 40
0.0
  9
$DIMTXT
 40
2.9999940394999989
  9
$DIMCEN
 40
0.09
  9
$DIMTSZ
 40
0.0
  9
$DIMTOL
 70
     0
  9
$DIMLIM
 70
     0
  9
$DIMTIH
 70
     0
  9
$DIMTOH
 70
     1
  9
$DIMSE1
 70
     0
  9
$DIMSE2
 70
     0
  9
$DIMTAD
 70
     0
  9
$DIMZIN
 70
     0
  9
$DIMBLK
  1

  9
$DIMASO
 70
     1
  9
$DIMSHO
 70
     0
  9
$DIMPOST
  1

  9
$DIMAPOST
  1

  9
$DIMALT
 70
     0
  9
$DIMALTD
 70
     2
  9
$DIMALTF
 40
25.399999999999999
  9
$DIMLFAC
 40
1.0
  9
$DIMTOFL
 70
     0
  9
$DIMTVP
 40
0.0
  9
$DIMTIX
 70
     0
  9
$DIMSOXD
 70
     0
  9
$DIMSAH
 70
     0
  9
$DIMBLK1
  1

  9
$DIMBLK2
  1

  9
$DIMSTYLE
  2
STANDARD
  9
$DIMCLRD
 70
     0
  9
$DIMCLRE
 70
     0
  9
$DIMCLRT
 70
     0
  9
$DIMTFAC
 40
1.0
  9
$DIMGAP
 40
0.09
  9
$LUNITS
 70
     2
  9
$LUPREC
 70
     3
  9
$SKETCHINC
 40
0.1
  9
$FILLETRAD
 40
0.0625
  9
$AUNITS
 70
     0
  9
$AUPREC
 70
     0
  9
$MENU
  1
ACAD
  9
$ELEVATION
 40
0.0
  9
$PELEVATION
 40
0.0
  9
$THICKNESS
 40
0.0
  9
$LIMCHECK
 70
     0
  9
$BLIPMODE
 70
     0
  9
$CHAMFERA
 40
0.0
  9
$CHAMFERB
 40
0.0
  9
$SKPOLY
 70
     0
  9
$TDCREATE
 40
2452096.4269907409
  9
$TDUPDATE
 40
2452374.7975439578
  9
$TDINDWG
 40
0.0434448843
  9
$TDUSRTIMER
 40
0.0434373495
  9
$USRTIMER
 70
     1
  9
$ANGBASE
 50
0.0
  9
$ANGDIR
 70
     0
  9
$PDMODE
 70
     0
  9
$PDSIZE
 40
0.0
  9
$PLINEWID
 40
0.0
  9
$COORDS
 70
     1
  9
$SPLFRAME
 70
     0
  9
$SPLINETYPE
 70
     6
  9
$SPLINESEGS
 70
     8
  9
$ATTDIA
 70
     0
  9
$ATTREQ
 70
     1
  9
$HANDLING
 70
  4097
  9
$HANDSEED
  5
73E
  9
$SURFTAB1
 70
     6
  9
$SURFTAB2
 70
     6
  9
$SURFTYPE
 70
     6
  9
$SURFU
 70
     6
  9
$SURFV
 70
     6
  9
$UCSNAME
  2

  9
$UCSORG
 10
0.0
 20
0.0
 30
0.0
  9
$UCSXDIR
 10
1.0
 20
0.0
 30
0.0
  9
$UCSYDIR
 10
0.0
 20
1.0
 30
0.0
  9
$PUCSNAME
  2

  9
$PUCSORG
 10
0.0
 20
0.0
 30
0.0
  9
$PUCSXDIR
 10
1.0
 20
0.0
 30
0.0
  9
$PUCSYDIR
 10
0.0
 20
1.0
 30
0.0
  9
$USERI1
 70
     0
  9
$USERI2
 70
     0
  9
$USERI3
 70
     0
  9
$USERI4
 70
     0
  9
$USERI5
 70
     0
  9
$USERR1
 40
0.0
  9
$USERR2
 40
0.0
  9
$USERR3
 40
0.0
  9
$USERR4
 40
0.0
  9
$USERR5
 40
0.0
  9
$WORLDVIEW
 70
     1
  9
$SHADEDGE
 70
     3
  9
$SHADEDIF
 70
    70
  9
$TILEMODE
 70
     1
  9
$MAXACTVP
 70
    64
  9
$PLIMCHECK
 70
     0
  9
$PEXTMIN
 10
1.0000000000000000E+020
 20
1.0000000000000000E+020
 30
1.0000000000000000E+020
  9
$PEXTMAX
 10
-1.0000000000000000E+020
 20
-1.0000000000000000E+020
 30
-1.0000000000000000E+020
  9
$PLIMMIN
 10
0.0
 20
0.0
  9
$PLIMMAX
 10
12.0
 20
9.0
  9
$UNITMODE
 70
     0
  9
$VISRETAIN
 70
     1
  9
$PLINEGEN
 70
     0
  9
$PSLTSCALE
 70
     1
  0
ENDSEC
  0
SECTION
  2
TABLES
  0
TABLE
  2
VPORT
 70
     3
  0
VPORT
  2
*ACTIVE
 70
     0
 10
0.0
 20
0.0
 11
1.0
 21
1.0
 12
-86.868634283812867
 22
105.3010582039969
 13
0.0
 23
0.0
 14
1.0
 24
1.0
 15
0.0
 25
0.0
 16
0.0
 26
0.0
 36
1.0
 17
0.0
 27
0.0
 37
0.0
 40
151.15970978875521
 41
1.565365025466892
 42
50.0
 43
0.0
 44
0.0
 50
0.0
 51
0.0
 71
     0
 72
   100
 73
     1
 74
     1
 75
     0
 76
     0
 77
     0
 78
     0
  0
ENDTAB
  0
TABLE
  2
LTYPE
 70
     5
  0
LTYPE
  2
CONTINUOUS
 70
     0
  3
Solid line
 72
    65
 73
     0
 40
0.0
  0
LTYPE
  2
SOLID
 70
     0
  3
Solid
 72
    65
 73
     0
 40
0.0
  0
LTYPE
  2
GAP
 70
     0
  3
Gap
 72
    65
 73
     3
 40
2540.9999999963002
 49
0.0
 49
-0.9999999962999998
 49
2540.0
  0
LTYPE
  2
CENTER
 70
     0
  3
Center
 72
    65
 73
     4
 40
9.1000000237999998
 49
6.5
 49
-0.8000000119
 49
1.0
 49
-0.8000000119
  0
LTYPE
  2
PHANTOM
 70
     0
  3
Phantom
 72
    65
 73
     6
 40
9.5000001191999992
 49
4.8000001906999987
 49
-0.8999999761999999
 49
1.0
 49
-0.8999999761999999
 49
1.0
 49
-0.8999999761999999
  0
ENDTAB
  0
TABLE
  2
LAYER
 70
     7
  0
LAYER
  2
0
 70
     0
 62
     7
  6
CONTINUOUS
  0
LAYER
  2
LAYER0$C$L0
 70
     0
 62
     3
  6
SOLID
  0
LAYER
  2
LAYER1$C$L1
 70
     0
 62
     3
  6
SOLID
  0
LAYER
  2
LAYER6$C$L6
 70
     0
 62
    31
  6
SOLID
  0
LAYER
  2
LAYER8$C$L8
 70
     0
 62
     7
  6
SOLID
  0
LAYER
  2
LAYER9$C$L9
 70
     0
 62
     2
  6
SOLID
  0
LAYER
  2
DEFPOINTS
 70
     0
 62
     7
  6
CONTINUOUS
  0
ENDTAB
  0
TABLE
  2
STYLE
 70
     1
  0
STYLE
  2
STANDARD
 70
     0
 40
0.0
 41
1.0
 50
0.0
 71
     0
 42
3.0
  3
txt
  4

  0
ENDTAB
  0
TABLE
  2
VIEW
 70
     0
  0
ENDTAB
  0
TABLE
  2
UCS
 70
     0
  0
ENDTAB
  0
TABLE
  2
APPID
 70
     1
  0
APPID
  2
ACAD
 70
     0
  0
ENDTAB
  0
TABLE
  2
DIMSTYLE
 70
     1
  0
DIMSTYLE
  2
STANDARD
 70
     0
  3

  4

  5

  6

  7

 40
1.0
 41
0.18
 42
0.0625
 43
0.38
 44
0.18
 45
0.0
 46
0.0
 47
0.0
 48
0.0
140
0.18
141
0.09
142
0.0
143
25.399999999999999
144
1.0
145
0.0
146
1.0
147
0.09
 71
     0
 72
     0
 73
     1
 74
     1
 75
     0
 76
     0
 77
     0
 78
     0
170
     0
171
     2
172
     0
173
     0
174
     0
175
     0
176
     0
177
     0
178
     0
  0
ENDTAB
  0
ENDSEC
  0
SECTION
  2
BLOCKS
  0
BLOCK
  8
0
  2
$MODEL_SPACE
 70
     0
 10
0.0
 20
0.0
 30
0.0
  3
$MODEL_SPACE
  1

  0
ENDBLK
  5
20
  8
0
  0
BLOCK
 67
     1
  8
0
  2
$PAPER_SPACE
 70
     0
 10
0.0
 20
0.0
 30
0.0
  3
$PAPER_SPACE
  1

  0
ENDBLK
  5
1C
 67
     1
  8
0
  0
BLOCK
  8
LAYER9$C$L9
  2
*D0
 70
     1
 10
0.0
 20
0.0
 30
0.0
  3
*D0
  1

  0
LINE
  5
2F
  8
LAYER9$C$L9
 10
17.149993896499989
 20
12.99998474119999
 30
0.0
 11
16.759813252499988
 21
11.0384141804
 31
0.0
  0
LINE
  5
30
  8
LAYER9$C$L9
 10
17.149993896499989
 20
12.99998474119999
 30
0.0
 11
17.540174540500001
 21
11.0384141804
 31
0.0
  0
LINE
  5
31
  8
LAYER9$C$L9
 10
17.149993896499989
 20
-11.10000610349999
 30
0.0
 11
17.540174540500001
 21
-9.1384355426999981
 31
0.0
  0
LINE
  5
32
  8
LAYER9$C$L9
 10
17.149993896499989
 20
-11.10000610349999
 30
0.0
 11
16.759813252499988
 21
-9.1384355426999981
 31
0.0
  0
LINE
  5
33
  8
LAYER9$C$L9
 10
17.149993896499989
 20
12.99998474119999
 30
0.0
 11
17.149993896499989
 21
-11.10000610349999
 31
0.0
  0
LINE
  5
34
  8
LAYER9$C$L9
  6
GAP
 10
4.1399908066000002
 20
12.99998474119999
 30
0.0
 11
18.6499938965
 21
12.99998474119999
 31
0.0
  0
LINE
  5
35
  8
LAYER9$C$L9
  6
GAP
 10
2.5399999618999991
 20
-11.10000610349999
 30
0.0
 11
18.6499938965
 21
-11.10000610349999
 31
0.0
  0
TEXT
  5
36
  8
LAYER9$C$L9
 10
16.5249941139
 20
-6.3828844786000003
 30
0.0
 40
2.4999990978999991
  1
24.1
 50
90.0
 41
1.3997259279571039
 72
     5
 11
16.5249941139
 21
2.9486183405999991
 31
0.0
  0
TEXT
  5
37
  8
LAYER9$C$L9
 10
14.649994850200001
 20
3.6171117066999998
 30
0.0
 40
1.2499995489999991
  1
+0.4
 50
90.0
 41
1.3173891086128131
 72
     5
 11
14.649994850200001
 21
8.2828631162999997
 31
0.0
  0
TEXT
  5
38
  8
LAYER9$C$L9
 10
16.524994134899998
 20
3.6171117066999998
 30
0.0
 40
1.2499995489999991
  1
 0
 50
90.0
 41
1.1550683438419911
 72
     5
 11
16.524994134899998
 21
5.7828640699999987
 31
0.0
  0
ENDBLK
  5
39
  8
LAYER9$C$L9
  0
BLOCK
  8
LAYER9$C$L9
  2
*D1
 70
     1
 10
0.0
 20
0.0
 30
0.0
  3
*D1
  1

  0
LINE
  5
3C
  8
LAYER9$C$L9
 10
-1.6000061034999991
 20
18.999984741199999
 30
0.0
 11
-3.5615766642999991
 21
18.609804097200001
 31
0.0
  0
LINE
  5
3D
  8
LAYER9$C$L9
 10
-1.6000061034999991
 20
18.999984741199999
 30
0.0
 11
-3.5615766642999991
 21
19.390165385199989
 31
0.0
  0
LINE
  5
3E
  8
LAYER9$C$L9
 10
-1.6000061034999991
 20
18.999984741199999
 30
0.0
 11
-6.1000061027000001
 21
18.999984741199999
 31
0.0
  0
LINE
  5
3F
  8
LAYER9$C$L9
 10
1.5999908446999991
 20
18.999984741199999
 30
0.0
 11
3.5615614054999991
 21
19.390165385199989
 31
0.0
  0
LINE
  5
40
  8
LAYER9$C$L9
 10
1.5999908446999991
 20
18.999984741199999
 30
0.0
 11
3.5615614054999991
 21
18.609804097200001
 31
0.0
  0
LINE
  5
41
  8
LAYER9$C$L9
 10
1.5999908446999991
 20
18.999984741199999
 30
0.0
 11
6.0999908438999988
 21
18.999984741199999
 31
0.0
  0
LINE
  5
42
  8
LAYER9$C$L9
 10
-1.6000061034999991
 20
18.999984741199999
 30
0.0
 11
1.5999908446999991
 21
18.999984741199999
 31
0.0
  0
LINE
  5
43
  8
LAYER9$C$L9
 10
-1.6000061034999991
 20
18.999984741199999
 30
0.0
 11
-19.6469197035
 21
18.999984741199999
 31
0.0
  0
LINE
  5
44
  8
LAYER9$C$L9
  6
GAP
 10
-1.6000061034999991
 20
14.739981651300001
 30
0.0
 11
-1.6000061034999991
 21
20.499984741199999
 31
0.0
  0
LINE
  5
45
  8
LAYER9$C$L9
  6
GAP
 10
1.5999908446999991
 20
14.739981651300001
 30
0.0
 11
1.5999908446999991
 21
20.499984741199999
 31
0.0
  0
TEXT
  5
46
  8
LAYER9$C$L9
 10
-19.6469197035
 20
19.624984523799998
 30
0.0
 40
2.4999990978999991
  1
*
 41
1.098903804708449
 72
     5
 11
-17.815414023199999
 21
19.624984523799998
 31
0.0
  0
TEXT
  5
47
  8
LAYER9$C$L9
 10
-17.146920657199988
 20
19.624984523799998
 30
0.0
 40
2.4999990978999991
  1
3.2
 41
1.366301247596142
 72
     5
 11
-10.31541688429999
 21
19.624984523799998
 31
0.0
  0
TEXT
  5
48
  8
LAYER9$C$L9
 10
-9.6469235182000013
 20
21.499983787499989
 30
0.0
 40
1.2499995489999991
  1
+0.2
 41
1.317389108612814
 72
     5
 11
-4.9811721086
 21
21.499983787499989
 31
0.0
  0
TEXT
  5
49
  8
LAYER9$C$L9
 10
-9.6469235182000013
 20
19.6249845028
 30
0.0
 40
1.2499995489999991
  1
 0
 41
1.155068343841992
 72
     5
 11
-7.4811711549000002
 21
19.6249845028
 31
0.0
  0
ENDBLK
  5
4A
  8
LAYER9$C$L9
  0
BLOCK
  8
LAYER9$C$L9
  2
*D2
 70
     1
 10
0.0
 20
0.0
 30
0.0
  3
*D2
  1

  0
LINE
  5
4D
  8
LAYER9$C$L9
 10
9.6902632279999992
 20
5.5139680201000001
 30
0.0
 11
7.7924754844999997
 21
4.8827773350000001
 31
0.0
  0
LINE
  5
4E
  8
LAYER9$C$L9
 10
9.6902632279999992
 20
5.5139680201000001
 30
0.0
 11
8.1784821926000006
 21
4.204571937499999
 31
0.0
  0
LINE
  5
4F
  8
LAYER9$C$L9
 10
-9.6904801144999997
 20
-5.5167565426999987
 30
0.0
 11
-7.7926923711000002
 21
-4.8855658576999987
 31
0.0
  0
LINE
  5
50
  8
LAYER9$C$L9
 10
-9.6904801144999997
 20
-5.5167565426999987
 30
0.0
 11
-8.1786990790999994
 21
-4.2073604601000003
 31
0.0
  0
LINE
  5
51
  8
LAYER9$C$L9
 10
9.6902632279999992
 20
5.5139680201000001
 30
0.0
 11
-9.6904801144999997
 21
-5.5167565426999987
 31
0.0
  0
LINE
  5
52
  8
LAYER9$C$L9
 10
-9.6904801144999997
 20
-5.5167565426999987
 30
0.0
 11
-25.894932869699989
 21
-14.73966672079999
 31
0.0
  0
TEXT
  5
53
  8
LAYER9$C$L9
 10
-26.204089810599999
 20
-14.1964846941
 30
0.0
 40
2.4999990978999991
  1
%%c
 50
29.64675781176739
 41
1.0689038053502811
 72
     5
 11
-24.655798269800002
 21
-13.315260624
 31
0.0
  0
TEXT
  5
54
  8
LAYER9$C$L9
 10
-24.0748163375
 20
-12.984589526500001
 30
0.0
 40
2.4999990978999991
  1
22.3
 50
29.646757811012058
 41
1.2442008248587111
 72
     5
 11
-15.9648861347
 21
-8.3687497359999998
 31
0.0
  0
TEXT
  5
55
  8
LAYER9$C$L9
 10
-16.311374983499999
 20
-6.4085326313999991
 30
0.0
 40
1.2499995489999991
  1
+0.4
 50
29.64675781154569
 41
1.317389108628217
 72
     5
 11
-12.2564098821
 21
-4.1006127361000004
 31
0.0
  0
TEXT
  5
56
  8
LAYER9$C$L9
 10
-15.383904191899999
 20
-8.0380786566999998
 30
0.0
 40
1.2499995489999991
  1
 0
 50
29.646757810092961
 41
1.155068343825675
 72
     5
 11
-13.501667124300001
 21
-6.9667864834999991
 31
0.0
  0
ENDBLK
  5
57
  8
LAYER9$C$L9
  0
BLOCK
  8
LAYER9$C$L9
  2
*D3
 70
     1
 10
0.0
 20
0.0
 30
0.0
  3
*D3
  1

  0
LINE
  5
5A
  8
LAYER9$C$L9
 10
0.7998703627000001
 20
12.199153824
 30
0.0
 11
1.500876378199999
 21
12.584602883300001
 31
0.0
  0
LINE
  5
5B
  8
LAYER9$C$L9
 10
1.500876378199999
 20
12.584602883300001
 30
0.0
 11
3.4077399671999999
 21
13.18782030069999
 31
0.0
  0
LINE
  5
5C
  8
LAYER9$C$L9
 10
1.500876378199999
 20
12.584602883300001
 30
0.0
 11
3.031747307599999
 21
13.871628212199999
 31
0.0
  0
LINE
  5
5D
  8
LAYER9$C$L9
 10
1.500876378199999
 20
12.584602883300001
 30
0.0
 11
17.5227925537
 21
21.3942740986
 31
0.0
  0
TEXT
  5
5E
  8
LAYER9$C$L9
 10
5.4658259450999989
 20
15.4779849553
 30
0.0
 40
2.4999990978999991
  1
R
 50
28.80425154412913
 41
1.0989038047071851
 72
     5
 11
7.0707211305999991
 21
16.3604386371
 31
0.0
  0
TEXT
  5
5F
  8
LAYER9$C$L9
 10
7.6565024340000001
 20
16.682531240199999
 30
0.0
 40
2.4999990978999991
  1
0.8
 50
28.804251545646391
 41
1.4905104519317831
 72
     5
 11
13.642750597299999
 21
19.974077491900001
 31
0.0
  0
TEXT
  5
60
  8
LAYER9$C$L9
 10
13.776827049
 20
21.117673769100001
 30
0.0
 40
1.2499995489999991
  1
MAX
 50
28.804251546785419
 41
1.024725935656194
 72
     5
 11
16.769951130599999
 21
22.763446895000001
 31
0.0
  0
ENDBLK
  5
61
  8
LAYER9$C$L9
  0
BLOCK
  8
LAYER0$C$L0
  2
BLOCK0
 70
     0
 10
0.0
 20
0.0
 30
0.0
  3
BLOCK0
  1

  0
LINE
  5
D4
  8
LAYER1$C$L1
 10
-9.5832119071000008
 20
-20.649999618500001
 30
0.0
 11
9.6622049798000003
 21
-20.649999618500001
 31
0.0
  0
TEXT
  5
D5
  8
LAYER8$C$L8
 10
-8.7060729772999998
 20
-19.649999618500001
 30
0.0
 40
3.0
  1
ÉpÉlÉãÉJÉbÉg
 41
0.5836780368666668
 72
     5
 11
8.8042681287000004
 21
-19.649999618500001
 31
0.0
  0
TEXT
  5
D6
  8
LAYER8$C$L8
 10
-12.608432541199999
 20
-26.722870185000001
 30
0.0
 40
3.0
  1
ÅñàÛÇRÅDÇQ
 41
0.5587658087500002
 72
     5
 11
1.919478486299999
 21
-26.722870185000001
 31
0.0
  0
TEXT
  5
D7
  8
LAYER8$C$L8
 10
2.0975324461999998
 20
-25.222870185000001
 30
0.0
 40
3.0
  1

 72
     5
 11
2.0975324461999998
 21
-25.222870185000001
 31
0.0
  0
TEXT
  5
D8
  8
LAYER8$C$L8
 10
2.303717851
 20
-24.472867820799991
 30
0.0
 40
1.5
  1
Å{ÇOÅDÇQ
 41
0.5772740474599999
 72
     5
 11
8.0764583255999991
 21
-24.472867820799991
 31
0.0
  0
TEXT
  5
D9
  8
LAYER8$C$L8
 10
2.303717851
 20
-26.722870205
 30
0.0
 40
1.5
  1
Å@ÇO
 41
0.55806207922
 72
     5
 11
5.0940282470999989
 21
-26.722870205
 31
0.0
  0
TEXT
  5
DA
  8
LAYER8$C$L8
 10
2.0975324461999998
 20
-25.222870185000001
 30
0.0
 40
3.0
  1

 72
     5
 11
2.0975324461999998
 21
-25.222870185000001
 31
0.0
  0
TEXT
  5
DB
  8
LAYER8$C$L8
 10
8.2860939345000002
 20
-26.722870205
 30
0.0
 40
3.0
  1
åäÇÕ
 41
0.6200689769222223
 72
     5
 11
13.8667147268
 21
-26.722870205
 31
0.0
  0
TEXT
  5
DC
  8
LAYER8$C$L8
 10
2.0975324461999998
 20
-25.222870185000001
 30
0.0
 40
3.0
  1

 72
     5
 11
2.0975324461999998
 21
-25.222870185000001
 31
0.0
  0
TEXT
  5
DD
  8
LAYER8$C$L8
 10
-12.608432541199999
 20
-31.2228749533
 30
0.0
 40
3.0
  1
âÒÇËé~ÇﬂópÇ≈Ç∑ÅB
 41
0.545934913090698
 72
     5
 11
10.8667687217
 21
-31.2228749533
 31
0.0
  0
TEXT
  5
DE
  8
LAYER8$C$L8
 10
2.0975324461999998
 20
-25.222870185000001
 30
0.0
 40
3.0
  1

 72
     5
 11
2.0975324461999998
 21
-25.222870185000001
 31
0.0
  0
TEXT
  5
DF
  8
LAYER8$C$L8
 10
-12.608432541199999
 20
-35.722879721699996
 30
0.0
 40
3.0
  1
ñ¡î¬ÅCâÒÇËé~ÇﬂÇ
 41
0.5396597991471266
 72
     5
 11
10.8667687217
 21
-35.722879721699996
 31
0.0
  0
TEXT
  5
E0
  8
LAYER8$C$L8
 10
2.0975324461999998
 20
-25.222870185000001
 30
0.0
 40
3.0
  1

 72
     5
 11
2.0975324461999998
 21
-25.222870185000001
 31
0.0
  0
TEXT
  5
E1
  8
LAYER8$C$L8
 10
-12.608432541199999
 20
-40.2228844901
 30
0.0
 40
3.0
  1
égópÇµÇ»Ç¢éûÇÕïsóvÅB
 41
0.545186322588889
 72
     5
 11
16.8316288786
 21
-40.2228844901
 31
0.0
  0
POINT
  5
E2
  8
LAYER0$C$L0
 10
0.0
 20
0.0
 30
0.0
  0
LINE
  5
E3
  8
LAYER1$C$L1
  6
CENTER
 10
0.0
 20
14.14999961849999
 30
0.0
 11
0.0
 21
-14.14999961849999
 31
0.0
  0
LINE
  5
E4
  8
LAYER1$C$L1
  6
CENTER
 10
-14.14999961849999
 20
0.0
 30
0.0
 11
14.14999961849999
 21
0.0
 31
0.0
  0
LINE
  5
E5
  8
LAYER1$C$L1
 10
-0.8000183104999999
 20
12.99998474119999
 30
0.0
 11
0.7999877930000001
 21
12.99998474119999
 31
0.0
  0
LINE
  5
E6
  8
LAYER1$C$L1
 10
-1.6000061034999991
 20
12.1999816895
 30
0.0
 11
-1.6000061034999991
 21
10.984069824200001
 31
0.0
  0
LINE
  5
E7
  8
LAYER1$C$L1
 10
1.5999908446999991
 20
12.1999816895
 30
0.0
 11
1.5999908446999991
 21
10.984069824200001
 31
0.0
  0
ARC
  5
E8
  8
LAYER1$C$L1
 10
-0.8000183104999999
 20
12.1999816895
 30
0.0
 40
0.7999999523000002
 50
89.999982013899995
 51
179.9999640277999
  0
ARC
  5
E9
  8
LAYER1$C$L1
 10
0.7999877930000001
 20
12.1999816895
 30
0.0
 40
0.7999999523000002
 50
0.0
 51
89.999982013899995
  0
ARC
  5
EA
  8
LAYER1$C$L1
 10
0.0
 20
0.0
 30
0.0
 40
11.14999961849999
 50
98.250304116200013
 51
81.749697250299945
  0
DIMENSION
  5
EB
  8
LAYER9$C$L9
  2
*D0
 10
17.149993896499989
 20
-11.10000610349999
 30
0.0
 11
14.9624947181
 21
0.9499893187999999
 31
0.0
  1
<>+0.4
 13
1.5999908446999991
 23
12.99998474119999
 33
0.0
 14
0.0
 24
-11.10000610349999
 34
0.0
 50
270.0
  0
DIMENSION
  5
EC
  8
LAYER9$C$L9
  2
*D1
 10
1.5999908446999991
 20
18.999984741199999
 30
0.0
 11
-12.31404590609999
 21
21.187483919600002
 31
0.0
 70
     1
  1
*<>+0.2
 13
-1.6000061034999991
 23
12.1999816895
 33
0.0
 14
1.5999908446999991
 24
12.1999816895
 34
0.0
  0
DIMENSION
  5
ED
  8
LAYER9$C$L9
  2
*D2
 10
-9.6904801144999997
 20
-5.5167565426999987
 30
0.0
 11
-19.539406778
 21
-8.6053667045999997
 31
0.0
 70
     3
  1
%%c<>+0.4
 15
9.6902632279999992
 25
5.5139680201000001
 35
0.0
 40
0.0
  0
DIMENSION
  5
EE
  8
LAYER9$C$L9
  2
*D3
 10
0.7998703627000001
 20
12.199153824
 30
0.0
 11
10.7414678089
 21
19.8053023551
 31
0.0
 70
     4
  1
R<>MAX
 15
1.500876378199999
 25
12.584602883300001
 35
0.0
 40
0.0
  0
ENDBLK
  5
EF
  8
LAYER9$C$L9
  0
BLOCK
  8
LAYER8$C$L8
  2
CADRA_ATTR_0
 70
     2
 10
0.0
 20
0.0
 30
0.0
  3
CADRA_ATTR_0
  1

  0
TEXT
  5
F2
  8
LAYER8$C$L8
 62
     3
 10
-66.511744086299998
 20
16.0
 30
0.0
 40
5.0
  1
ÇlÇ`ÇSÅ|Ç`ÇOÇQÇPÇUÇXÇa
 41
0.6117893610713211
 72
     5
 11
-12.470350525000001
 21
16.0
 31
0.0
  0
ATTDEF
  5
F3
  8
LAYER8$C$L8
 62
     3
 10
-39.491045999999997
 20
18.5
 30
0.0
 40
0.156
  1
  
  3

  2
20
 70
    11
  0
ENDBLK
  5
F4
  8
LAYER8$C$L8
  0
BLOCK
  8
LAYER8$C$L8
  2
CADRA_ATTR_1
 70
     2
 10
0.0
 20
0.0
 30
0.0
  3
CADRA_ATTR_1
  1

  0
TEXT
  5
F7
  8
LAYER8$C$L8
 62
     3
 10
-99.676656343100007
 20
275.91641426090001
 30
0.0
 40
4.1671714783000002
  1
Ç`Å¢ÇkÇvÇQÅõÅôÇUÅ†Å†ÅùÅ¶
 41
0.5757287807131779
 72
     5
 11
-50.493864981499989
 21
275.91641426090001
 31
0.0
  0
ATTDEF
  5
F8
  8
LAYER8$C$L8
 62
     3
 10
-75.085262
 20
278.0
 30
0.0
 40
0.156
  1
çL>éK
  3

  2
10
 70
    11
  0
ENDBLK
  5
F9
  8
LAYER8$C$L8
  0
BLOCK
  8
0
  2
*D17
 70
     1
 10
0.0
 20
0.0
 30
0.0
  3
*D17
  1

  0
LINE
  5
68C
  8
LAYER9$C$L9
 62
     0
 10
-80.0
 20
107.75998783109991
 30
0.0
 11
-80.0
 21
99.288977676783247
 31
0.0
  0
LINE
  5
68D
  8
LAYER9$C$L9
 62
     0
 10
-93.0
 20
107.96000003810001
 30
0.0
 11
-93.0
 21
99.288977676783247
 31
0.0
  0
LINE
  5
68E
  8
LAYER9$C$L9
 62
     0
 10
-91.027212153999997
 20
103.0989776195832
 30
0.0
 11
-81.972787845999989
 21
103.0989776195832
 31
0.0
  0
LINE
  5
68F
  8
LAYER9$C$L9
 62
     0
 10
-80.0
 20
103.0989776195832
 30
0.0
 11
-66.328808049992304
 21
103.0989776195832
 31
0.0
  0
SOLID
  5
690
  8
LAYER9$C$L9
 62
     0
 10
-91.027212153999997
 20
103.42777559391649
 30
0.0
 11
-91.027212153999997
 21
102.7701796452499
 31
0.0
 12
-93.0
 22
103.0989776195832
 32
0.0
 13
-93.0
 23
103.0989776195832
 33
0.0
  0
SOLID
  5
691
  8
LAYER9$C$L9
 62
     0
 10
-81.972787845999989
 20
103.42777559391649
 30
0.0
 11
-81.972787845999989
 21
102.7701796452499
 31
0.0
 12
-80.0
 22
103.0989776195832
 32
0.0
 13
-80.0
 23
103.0989776195832
 33
0.0
  0
TEXT
  5
692
  8
0
 62
     0
 10
-66.238808049992301
 20
101.5989805998332
 30
0.0
 40
2.9999940394999989
  1
13.013
  0
POINT
  5
693
  8
DEFPOINTS
 62
     0
 10
-80.0
 20
110.2999877929999
 30
0.0
  0
POINT
  5
694
  8
DEFPOINTS
 62
     0
 10
-93.0
 20
110.4999999999999
 30
0.0
  0
POINT
  5
695
  8
DEFPOINTS
 62
     0
 10
-93.0
 20
103.0989776195832
 30
0.0
  0
ENDBLK
  5
1B5
  8
0
  0
BLOCK
  8
0
  2
*D18
 70
     1
 10
0.0
 20
0.0
 30
0.0
  3
*D18
  1

  0
LINE
  5
666
  8
LAYER9$C$L9
 62
     0
 10
-84.960000038100006
 20
109.4999999999999
 30
0.0
 11
-58.79000616070001
 21
109.4999999999999
 31
0.0
  0
LINE
  5
667
  8
LAYER9$C$L9
 62
     0
 10
-84.960000038100006
 20
138.5
 30
0.0
 11
-58.790006160700003
 21
138.49999999999989
 31
0.0
  0
LINE
  5
668
  8
LAYER9$C$L9
 62
     0
 10
-62.600006103500007
 20
111.472787846
 30
0.0
 11
-62.600006103500007
 21
115.1600173847916
 31
0.0
  0
LINE
  5
669
  8
LAYER9$C$L9
 62
     0
 10
-62.600006103500007
 20
136.5272121539999
 30
0.0
 11
-62.600006103500007
 21
132.8399826152083
 31
0.0
  0
SOLID
  5
66A
  8
LAYER9$C$L9
 62
     0
 10
-62.928804077833348
 20
111.472787846
 30
0.0
 11
-62.271208129166681
 21
111.472787846
 31
0.0
 12
-62.600006103500007
 22
109.4999999999999
 32
0.0
 13
-62.600006103500007
 23
109.4999999999999
 33
0.0
  0
SOLID
  5
66B
  8
LAYER9$C$L9
 62
     0
 10
-62.928804077833341
 20
136.5272121539999
 30
0.0
 11
-62.271208129166673
 21
136.5272121539999
 31
0.0
 12
-62.600006103500007
 22
138.49999999999989
 32
0.0
 13
-62.600006103500007
 23
138.49999999999989
 33
0.0
  0
INSERT
  5
66C
  8
0
  2
*U33
 10
0.0
 20
0.0
 30
0.0
  0
POINT
  5
66D
  8
DEFPOINTS
 62
     0
 10
-87.5
 20
109.4999999999999
 30
0.0
  0
POINT
  5
66E
  8
DEFPOINTS
 62
     0
 10
-87.5
 20
138.5
 30
0.0
  0
POINT
  5
66F
  8
DEFPOINTS
 62
     0
 10
-62.600006103500007
 20
138.49999999999989
 30
0.0
  0
ENDBLK
  5
1C1
  8
0
  0
BLOCK
  8
0
  2
*D20
 70
     1
 10
0.0
 20
0.0
 30
0.0
  3
*D20
  1

  0
LINE
  5
604
  8
LAYER9$C$L9
 62
     0
 10
-182.49998474119991
 20
109.4599847793
 30
0.0
 11
-182.49998474119991
 21
94.389997005400005
 31
0.0
  0
LINE
  5
605
  8
LAYER9$C$L9
 62
     0
 10
-93.0
 20
107.96000003810001
 30
0.0
 11
-93.0
 21
94.389997005400005
 31
0.0
  0
LINE
  5
606
  8
LAYER9$C$L9
 62
     0
 10
-180.52719689519989
 20
98.199996948199995
 30
0.0
 11
-142.33998342985001
 21
98.199996948199995
 31
0.0
  0
LINE
  5
607
  8
LAYER9$C$L9
 62
     0
 10
-94.972787846000003
 20
98.199996948199995
 30
0.0
 11
-133.16000131134999
 21
98.199996948199995
 31
0.0
  0
SOLID
  5
608
  8
LAYER9$C$L9
 62
     0
 10
-180.52719689519989
 20
98.528794922533322
 30
0.0
 11
-180.52719689519989
 21
97.871198973866655
 31
0.0
 12
-182.49998474119991
 22
98.199996948199995
 32
0.0
 13
-182.49998474119991
 23
98.199996948199995
 33
0.0
  0
SOLID
  5
609
  8
LAYER9$C$L9
 62
     0
 10
-94.972787846000003
 20
98.528794922533322
 30
0.0
 11
-94.972787846000003
 21
97.871198973866655
 31
0.0
 12
-93.0
 22
98.199996948199995
 32
0.0
 13
-93.0
 23
98.199996948199995
 33
0.0
  0
TEXT
  5
60A
  8
0
 62
     0
 10
-142.24998342984989
 20
96.699999928449984
 30
0.0
 40
2.9999940394999989
  1
89.5
  0
POINT
  5
60B
  8
DEFPOINTS
 62
     0
 10
-182.49998474119991
 20
111.9999847412
 30
0.0
  0
POINT
  5
60C
  8
DEFPOINTS
 62
     0
 10
-93.0
 20
110.4999999999999
 30
0.0
  0
POINT
  5
60D
  8
DEFPOINTS
 62
     0
 10
-93.0
 20
98.199996948199995
 30
0.0
  0
ENDBLK
  5
1F4
  8
0
  0
BLOCK
  8
0
  2
*D21
 70
     1
 10
0.0
 20
0.0
 30
0.0
  3
*D21
  1

  0
LINE
  5
648
  8
LAYER9$C$L9
 62
     0
 10
-57.800003051799997
 20
83.539999961899994
 30
0.0
 11
-57.800003051799997
 21
92.309999942800005
 31
0.0
  0
LINE
  5
649
  8
LAYER9$C$L9
 62
     0
 10
-28.200012207
 20
83.539984703099989
 30
0.0
 11
-28.200012207
 21
92.309999942800005
 31
0.0
  0
LINE
  5
64A
  8
LAYER9$C$L9
 62
     0
 10
-55.827215205800002
 20
88.499999999999986
 30
0.0
 11
-50.339993224858333
 21
88.499999999999986
 31
0.0
  0
LINE
  5
64B
  8
LAYER9$C$L9
 62
     0
 10
-30.172800052999989
 20
88.499999999999986
 30
0.0
 11
-35.660022033941672
 21
88.499999999999986
 31
0.0
  0
SOLID
  5
64C
  8
LAYER9$C$L9
 62
     0
 10
-55.827215205800002
 20
88.828797974333327
 30
0.0
 11
-55.827215205800002
 21
88.171202025666673
 31
0.0
 12
-57.800003051799997
 22
88.499999999999986
 32
0.0
 13
-57.800003051799997
 23
88.499999999999986
 33
0.0
  0
SOLID
  5
64D
  8
LAYER9$C$L9
 62
     0
 10
-30.172800052999989
 20
88.828797974333327
 30
0.0
 11
-30.172800052999989
 21
88.171202025666673
 31
0.0
 12
-28.200012207
 22
88.499999999999986
 32
0.0
 13
-28.200012207
 23
88.499999999999986
 33
0.0
  0
TEXT
  5
64E
  8
0
 62
     0
 10
-50.249993224858329
 20
87.000002980250017
 30
0.0
 40
2.9999940394999989
  1
29.630
  0
POINT
  5
64F
  8
DEFPOINTS
 62
     0
 10
-57.800003051799997
 20
81.0
 30
0.0
  0
POINT
  5
650
  8
DEFPOINTS
 62
     0
 10
-28.200012207
 20
80.999984741199995
 30
0.0
  0
POINT
  5
651
  8
DEFPOINTS
 62
     0
 10
-28.200012207
 20
88.499999999999986
 30
0.0
  0
ENDBLK
  5
32A
  8
0
  0
BLOCK
  8
0
  2
*D22
 70
     1
 10
0.0
 20
0.0
 30
0.0
  3
*D22
  1

  0
LINE
  5
63E
  8
LAYER9$C$L9
 62
     0
 10
-35.160012245099999
 20
45.499999999999993
 30
0.0
 11
-18.390012264199999
 21
45.499999999999993
 31
0.0
  0
LINE
  5
63F
  8
LAYER9$C$L9
 62
     0
 10
-35.160012245099999
 20
82.499984741199995
 30
0.0
 11
-18.390012264199989
 21
82.499984741199981
 31
0.0
  0
LINE
  5
640
  8
LAYER9$C$L9
 62
     0
 10
-22.200012207
 20
47.472787846000003
 30
0.0
 11
-22.20001220699999
 21
56.66000677514166
 31
0.0
  0
LINE
  5
641
  8
LAYER9$C$L9
 62
     0
 10
-22.20001220699999
 20
80.527196895199978
 30
0.0
 11
-22.20001220699999
 21
71.339977966058314
 31
0.0
  0
SOLID
  5
642
  8
LAYER9$C$L9
 62
     0
 10
-22.528810181333331
 20
47.472787846000003
 30
0.0
 11
-21.871214232666659
 21
47.472787846000003
 31
0.0
 12
-22.200012207
 22
45.499999999999993
 32
0.0
 13
-22.200012207
 23
45.499999999999993
 33
0.0
  0
SOLID
  5
643
  8
LAYER9$C$L9
 62
     0
 10
-22.52881018133332
 20
80.527196895199978
 30
0.0
 11
-21.871214232666659
 21
80.527196895199978
 31
0.0
 12
-22.20001220699999
 22
82.499984741199981
 32
0.0
 13
-22.20001220699999
 23
82.499984741199981
 33
0.0
  0
TEXT
  5
644
  8
0
 62
     0
 10
-20.70001518725001
 20
56.750006775141649
 30
0.0
 40
2.9999940394999989
  1
37.037
 50
90.0
  0
POINT
  5
645
  8
DEFPOINTS
 62
     0
 10
-37.700012207
 20
45.499999999999993
 30
0.0
  0
POINT
  5
646
  8
DEFPOINTS
 62
     0
 10
-37.700012207
 20
82.499984741199995
 30
0.0
  0
POINT
  5
647
  8
DEFPOINTS
 62
     0
 10
-22.20001220699999
 20
82.499984741199981
 30
0.0
  0
ENDBLK
  5
337
  8
0
  0
BLOCK
  8
0
  2
*D23
 70
     1
 10
0.0
 20
0.0
 30
0.0
  3
*D23
  1

  0
LINE
  5
5FA
  8
LAYER9$C$L9
 62
     0
 10
-179.49993896480001
 20
120.4598474501999
 30
0.0
 11
-179.49993896480001
 21
99.389997005400005
 31
0.0
  0
LINE
  5
5FB
  8
LAYER9$C$L9
 62
     0
 10
-93.000015258799991
 20
106.18615055079999
 30
0.0
 11
-93.000015258799991
 21
99.389997005400005
 31
0.0
  0
LINE
  5
5FC
  8
LAYER9$C$L9
 62
     0
 10
-177.52715111879999
 20
103.1999969481999
 30
0.0
 11
-140.83996817104989
 21
103.1999969481999
 31
0.0
  0
LINE
  5
5FD
  8
LAYER9$C$L9
 62
     0
 10
-94.972803104799979
 20
103.1999969481999
 30
0.0
 11
-131.65998605255001
 21
103.1999969481999
 31
0.0
  0
SOLID
  5
5FE
  8
LAYER9$C$L9
 62
     0
 10
-177.52715111879999
 20
103.52879492253329
 30
0.0
 11
-177.52715111879999
 21
102.8711989738666
 31
0.0
 12
-179.49993896480001
 22
103.1999969481999
 32
0.0
 13
-179.49993896480001
 23
103.1999969481999
 33
0.0
  0
SOLID
  5
5FF
  8
LAYER9$C$L9
 62
     0
 10
-94.972803104799979
 20
103.52879492253329
 30
0.0
 11
-94.972803104799979
 21
102.8711989738666
 31
0.0
 12
-93.000015258799991
 22
103.1999969481999
 32
0.0
 13
-93.000015258799991
 23
103.1999969481999
 33
0.0
  0
TEXT
  5
600
  8
0
 62
     0
 10
-140.74996817105
 20
101.69999992845
 30
0.0
 40
2.9999940394999989
  1
86.5
  0
POINT
  5
601
  8
DEFPOINTS
 62
     0
 10
-179.49993896480001
 20
122.9998474120999
 30
0.0
  0
POINT
  5
602
  8
DEFPOINTS
 62
     0
 10
-93.000015258799991
 20
108.7261505127
 30
0.0
  0
POINT
  5
603
  8
DEFPOINTS
 62
     0
 10
-93.000015258799991
 20
103.1999969481999
 30
0.0
  0
ENDBLK
  5
35E
  8
0
  0
BLOCK
  8
0
  2
*D24
 70
     1
 10
0.0
 20
0.0
 30
0.0
  3
*D24
  1

  0
LINE
  5
696
  8
LAYER9$C$L9
 62
     0
 10
-93.0
 20
107.9599847793
 30
0.0
 11
-93.0
 21
86.491503985917234
 31
0.0
  0
LINE
  5
697
  8
LAYER9$C$L9
 62
     0
 10
-73.600006103500007
 20
110.059975624
 30
0.0
 11
-73.600006103500007
 21
86.491503985917234
 31
0.0
  0
LINE
  5
698
  8
LAYER9$C$L9
 62
     0
 10
-91.027212153999997
 20
90.301503928717224
 30
0.0
 11
-89.346507715690265
 21
90.301503928717224
 31
0.0
  0
LINE
  5
699
  8
LAYER9$C$L9
 62
     0
 10
-75.57279394950001
 20
90.301503928717224
 30
0.0
 11
-76.166533544523602
 21
90.301503928717224
 31
0.0
  0
SOLID
  5
69A
  8
LAYER9$C$L9
 62
     0
 10
-91.027212153999997
 20
90.630301903050565
 30
0.0
 11
-91.027212153999997
 21
89.972705954383926
 31
0.0
 12
-93.0
 22
90.301503928717224
 32
0.0
 13
-93.0
 23
90.301503928717224
 33
0.0
  0
SOLID
  5
69B
  8
LAYER9$C$L9
 62
     0
 10
-75.57279394950001
 20
90.630301903050565
 30
0.0
 11
-75.57279394950001
 21
89.972705954383926
 31
0.0
 12
-73.600006103500007
 22
90.301503928717224
 32
0.0
 13
-73.600006103500007
 23
90.301503928717224
 33
0.0
  0
TEXT
  5
69C
  8
0
 62
     0
 10
-89.256507715690262
 20
88.801506908967255
 30
0.0
 40
2.9999940394999989
  1
19.419
  0
POINT
  5
69D
  8
DEFPOINTS
 62
     0
 10
-93.0
 20
110.4999847412
 30
0.0
  0
POINT
  5
69E
  8
DEFPOINTS
 62
     0
 10
-73.600006103500007
 20
112.5999755859
 30
0.0
  0
POINT
  5
69F
  8
DEFPOINTS
 62
     0
 10
-73.600006103500007
 20
90.301503928717224
 30
0.0
  0
ENDBLK
  5
37D
  8
0
  0
BLOCK
  8
0
  2
*D25
 70
     1
 10
0.0
 20
0.0
 30
0.0
  3
*D25
  1

  0
LINE
  5
634
  8
LAYER9$C$L9
 62
     0
 10
-28.460000038099992
 20
45.099990844700002
 30
0.0
 11
-13.390012264199999
 21
45.099990844699988
 31
0.0
  0
LINE
  5
635
  8
LAYER9$C$L9
 62
     0
 10
-32.460000038099992
 20
82.899993896499993
 30
0.0
 11
-13.39001226419999
 21
82.899993896499964
 31
0.0
  0
LINE
  5
636
  8
LAYER9$C$L9
 62
     0
 10
-17.200012207
 20
47.072778690699998
 30
0.0
 11
-17.200012207
 21
59.410001311349987
 31
0.0
  0
LINE
  5
637
  8
LAYER9$C$L9
 62
     0
 10
-17.200012207
 20
80.927206050499976
 30
0.0
 11
-17.200012207
 21
68.58998342984998
 31
0.0
  0
SOLID
  5
638
  8
LAYER9$C$L9
 62
     0
 10
-17.528810181333341
 20
47.072778690699998
 30
0.0
 11
-16.87121423266667
 21
47.072778690699998
 31
0.0
 12
-17.200012207
 22
45.099990844700002
 32
0.0
 13
-17.200012207
 23
45.099990844700002
 33
0.0
  0
SOLID
  5
639
  8
LAYER9$C$L9
 62
     0
 10
-17.528810181333331
 20
80.927206050499976
 30
0.0
 11
-16.871214232666659
 21
80.927206050499976
 31
0.0
 12
-17.200012207
 22
82.899993896499964
 32
0.0
 13
-17.200012207
 23
82.899993896499964
 33
0.0
  0
TEXT
  5
63A
  8
0
 62
     0
 10
-15.70001518725001
 20
59.50000131134999
 30
0.0
 40
2.9999940394999989
  1
37.8
 50
90.0
  0
POINT
  5
63B
  8
DEFPOINTS
 62
     0
 10
-31.0
 20
45.099990844700002
 30
0.0
  0
POINT
  5
63C
  8
DEFPOINTS
 62
     0
 10
-35.0
 20
82.899993896499993
 30
0.0
  0
POINT
  5
63D
  8
DEFPOINTS
 62
     0
 10
-17.200012207
 20
82.899993896499964
 30
0.0
  0
ENDBLK
  5
44A
  8
0
  0
BLOCK
  8
0
  2
*D26
 70
     1
 10
0.0
 20
0.0
 30
0.0
  3
*D26
  1

  0
LINE
  5
652
  8
LAYER9$C$L9
 62
     0
 10
-71.460015296900011
 20
135.79997253420001
 30
0.0
 11
-63.79000616070001
 21
135.7999725341999
 31
0.0
  0
LINE
  5
653
  8
LAYER9$C$L9
 62
     0
 10
-71.460015296900011
 20
112.19998168950001
 30
0.0
 11
-63.79000616070001
 21
112.19998168950001
 31
0.0
  0
LINE
  5
654
  8
LAYER9$C$L9
 62
     0
 10
-67.600006103500007
 20
133.82718468819999
 30
0.0
 11
-67.600006103500007
 21
130.08996519084999
 31
0.0
  0
LINE
  5
655
  8
LAYER9$C$L9
 62
     0
 10
-67.600006103500007
 20
114.1727695355
 30
0.0
 11
-67.600006103500007
 21
117.90998903285001
 31
0.0
  0
SOLID
  5
656
  8
LAYER9$C$L9
 62
     0
 10
-67.928804077833334
 20
133.82718468819999
 30
0.0
 11
-67.271208129166681
 21
133.82718468819999
 31
0.0
 12
-67.600006103500007
 22
135.79997253420001
 32
0.0
 13
-67.600006103500007
 23
135.79997253420001
 33
0.0
  0
SOLID
  5
657
  8
LAYER9$C$L9
 62
     0
 10
-67.928804077833334
 20
114.1727695355
 30
0.0
 11
-67.271208129166681
 21
114.1727695355
 31
0.0
 12
-67.600006103500007
 22
112.19998168950001
 32
0.0
 13
-67.600006103500007
 23
112.19998168950001
 33
0.0
  0
INSERT
  5
658
  8
0
  2
*U32
 10
0.0
 20
0.0
 30
0.0
  0
POINT
  5
659
  8
DEFPOINTS
 62
     0
 10
-74.000015258800005
 20
135.79997253420001
 30
0.0
  0
POINT
  5
65A
  8
DEFPOINTS
 62
     0
 10
-74.000015258800005
 20
112.19998168950001
 30
0.0
  0
POINT
  5
65B
  8
DEFPOINTS
 62
     0
 10
-67.600006103500007
 20
112.19998168950001
 30
0.0
  0
ENDBLK
  5
4D7
  8
0
  0
BLOCK
  8
0
  2
*D27
 70
     1
 10
0.0
 20
0.0
 30
0.0
  3
*D27
  1

  0
LINE
  5
62A
  8
LAYER9$C$L9
 62
     0
 10
-28.33365719339999
 20
151.5702657411999
 30
0.0
 11
-11.513654160699989
 21
151.5702657411999
 31
0.0
  0
LINE
  5
62B
  8
LAYER9$C$L9
 62
     0
 10
-29.933648038099989
 20
127.4702748964999
 30
0.0
 11
-11.513654160699989
 21
127.4702748964999
 31
0.0
  0
LINE
  5
62C
  8
LAYER9$C$L9
 62
     0
 10
-15.32365410349999
 20
149.5974778952
 30
0.0
 11
-15.32365410349999
 21
148.36025293405831
 31
0.0
  0
LINE
  5
62D
  8
LAYER9$C$L9
 62
     0
 10
-15.32365410349999
 20
129.4430627424999
 30
0.0
 11
-15.32365410349999
 21
130.6802877036416
 31
0.0
  0
SOLID
  5
62E
  8
LAYER9$C$L9
 62
     0
 10
-15.65245207783332
 20
149.5974778952
 30
0.0
 11
-14.994856129166649
 21
149.5974778952
 31
0.0
 12
-15.32365410349999
 22
151.5702657411999
 32
0.0
 13
-15.32365410349999
 23
151.5702657411999
 33
0.0
  0
SOLID
  5
62F
  8
LAYER9$C$L9
 62
     0
 10
-15.652452077833329
 20
129.4430627424999
 30
0.0
 11
-14.99485612916666
 21
129.4430627424999
 31
0.0
 12
-15.32365410349999
 22
127.4702748964999
 32
0.0
 13
-15.32365410349999
 23
127.4702748964999
 33
0.0
  0
TEXT
  5
630
  8
0
 62
     0
 10
-13.82365708375001
 20
130.7702877036416
 30
0.0
 40
2.9999940394999989
  1
24.1+0.4
 50
90.0
  0
POINT
  5
631
  8
DEFPOINTS
 62
     0
 10
-30.873657155299991
 20
151.5702657411999
 30
0.0
  0
POINT
  5
632
  8
DEFPOINTS
 62
     0
 10
-32.47364799999999
 20
127.4702748965
 30
0.0
  0
POINT
  5
633
  8
DEFPOINTS
 62
     0
 10
-15.32365410349999
 20
127.4702748964999
 30
0.0
  0
ENDBLK
  5
529
  8
0
  0
BLOCK
  8
0
  2
*D28
 70
     1
 10
0.0
 20
0.0
 30
0.0
  3
*D28
  1

  0
LINE
  5
670
  8
LAYER9$C$L9
 62
     0
 10
-34.07365410349999
 20
153.3102626514
 30
0.0
 11
-34.07365410349999
 21
161.38026568399991
 31
0.0
  0
LINE
  5
671
  8
LAYER9$C$L9
 62
     0
 10
-30.873657155299991
 20
153.3102626514
 30
0.0
 11
-30.873657155299991
 21
161.38026568399991
 31
0.0
  0
LINE
  5
672
  8
LAYER9$C$L9
 62
     0
 10
-36.0464419495
 20
157.5702657411999
 30
0.0
 11
-38.019229795499989
 21
157.5702657411999
 31
0.0
  0
LINE
  5
673
  8
LAYER9$C$L9
 62
     0
 10
-28.900869309299988
 20
157.5702657411999
 30
0.0
 11
-26.928081463299989
 21
157.5702657411999
 31
0.0
  0
SOLID
  5
674
  8
LAYER9$C$L9
 62
     0
 10
-36.0464419495
 20
157.89906371553329
 30
0.0
 11
-36.0464419495
 21
157.24146776686661
 31
0.0
 12
-34.07365410349999
 22
157.5702657411999
 32
0.0
 13
-34.07365410349999
 23
157.5702657411999
 33
0.0
  0
SOLID
  5
675
  8
LAYER9$C$L9
 62
     0
 10
-28.900869309299988
 20
157.89906371553329
 30
0.0
 11
-28.900869309299988
 21
157.24146776686661
 31
0.0
 12
-30.873657155299991
 22
157.5702657411999
 32
0.0
 13
-30.873657155299991
 23
157.5702657411999
 33
0.0
  0
TEXT
  5
676
  8
0
 62
     0
 10
-26.8380814633
 20
156.07026872144999
 30
0.0
 40
2.9999940394999989
  1
*3.2+0.2
  0
POINT
  5
677
  8
DEFPOINTS
 62
     0
 10
-34.07365410349999
 20
150.77026268949999
 30
0.0
  0
POINT
  5
678
  8
DEFPOINTS
 62
     0
 10
-30.873657155299991
 20
150.77026268949999
 30
0.0
  0
POINT
  5
679
  8
DEFPOINTS
 62
     0
 10
-30.873657155299991
 20
157.5702657411999
 30
0.0
  0
ENDBLK
  5
536
  8
0
  0
BLOCK
  8
0
  2
*D29
 70
     1
 10
0.0
 20
0.0
 30
0.0
  3
*D29
  1

  0
LINE
  5
622
  8
LAYER9$C$L9
 62
     0
 10
-17.38153045174808
 20
146.03593307661691
 30
0.0
 11
-19.35431829774808
 21
146.03593307661691
 31
0.0
  0
LINE
  5
623
  8
LAYER9$C$L9
 62
     0
 10
-19.35431829774808
 20
146.03593307661691
 30
0.0
 11
-21.068851534874049
 21
145.0600910483584
 31
0.0
  0
INSERT
  5
624
  8
0
  2
*U31
 10
0.0
 20
0.0
 30
0.0
  0
SOLID
  5
625
  8
LAYER9$C$L9
 62
     0
 10
-21.231491872917129
 20
145.34584658787941
 30
0.0
 11
-20.906211196830959
 21
144.77433550883751
 31
0.0
 12
-22.78338477200003
 22
144.08424902009989
 32
0.0
 13
-22.78338477200003
 23
144.08424902009989
 33
0.0
  0
LINE
  5
626
  8
LAYER9$C$L9
 62
     0
 10
-32.563756443250021
 20
138.5688867387
 30
0.0
 11
-32.38375644325
 21
138.56888673869989
 31
0.0
  0
LINE
  5
627
  8
LAYER9$C$L9
 62
     0
 10
-32.473756443250011
 20
138.4788867387
 30
0.0
 11
-32.473756443250018
 21
138.65888673870001
 31
0.0
  0
POINT
  5
628
  8
DEFPOINTS
 62
     0
 10
-22.78338477200003
 20
144.08424902009989
 30
0.0
  0
POINT
  5
629
  8
DEFPOINTS
 62
     0
 10
-42.164128114500009
 20
133.0535244573
 30
0.0
  0
ENDBLK
  5
541
  8
0
  0
BLOCK
  8
0
  2
*D30
 70
     1
 10
0.0
 20
0.0
 30
0.0
  3
*D30
  1

  0
LINE
  5
67A
  8
LAYER9$C$L9
 62
     0
 10
-25.542590495616931
 20
153.05593602552179
 30
0.0
 11
-27.51537834161692
 21
153.0559360255217
 31
0.0
  0
LINE
  5
67B
  8
LAYER9$C$L9
 62
     0
 10
-27.51537834161692
 20
153.0559360255217
 30
0.0
 11
-29.244074981708451
 21
152.10540995441079
 31
0.0
  0
TEXT
  5
67C
  8
0
 62
     0
 10
-25.452590495616921
 20
151.55593900577179
 30
0.0
 40
2.9999940394999989
  1
RR0.8MAX
  0
SOLID
  5
67D
  8
LAYER9$C$L9
 62
     0
 10
-29.402495993560262
 20
152.39352606109281
 30
0.0
 11
-29.085653969856629
 21
151.81729384772891
 31
0.0
 12
-30.972771621799989
 22
151.1548838832999
 32
0.0
 13
-30.972771621799989
 23
151.1548838832999
 33
0.0
  0
LINE
  5
67E
  8
LAYER9$C$L9
 62
     0
 10
-31.763777637299981
 20
150.76943482399989
 30
0.0
 11
-31.583777637299981
 21
150.76943482399989
 31
0.0
  0
LINE
  5
67F
  8
LAYER9$C$L9
 62
     0
 10
-31.673777637299992
 20
150.67943482399991
 30
0.0
 11
-31.673777637299981
 21
150.85943482399989
 31
0.0
  0
POINT
  5
680
  8
DEFPOINTS
 62
     0
 10
-30.972771621799989
 20
151.1548838832999
 30
0.0
  0
POINT
  5
681
  8
DEFPOINTS
 62
     0
 10
-31.673777637299981
 20
150.76943482399989
 30
0.0
  0
ENDBLK
  5
54C
  8
0
  0
BLOCK
  8
0
  2
*U31
 70
     1
 10
0.0
 20
0.0
 30
0.0
  3
*U31
  1

  0
TEXT
  5
72A
  8
0
 62
     0
 10
-17.291530451748091
 20
144.53593605686689
 30
0.0
 40
2.9999940394999989
  1
\U+2205
  0
TEXT
  5
72B
  8
0
 62
     0
 10
-14.291536412248091
 20
144.53593605686689
 30
0.0
 40
2.9999940394999989
  1
\U+220522.3+0.4
  0
ENDBLK
  5
72D
  8
0
  0
BLOCK
  8
0
  2
*U32
 70
     1
 10
0.0
 20
0.0
 30
0.0
  3
*U32
  1

  0
TEXT
  5
72F
  8
0
 62
     0
 10
-66.100009083750024
 20
117.99998903285
 30
0.0
 40
2.9999940394999989
  1
\U+2205
 50
90.0
  0
TEXT
  5
730
  8
0
 62
     0
 10
-66.100009083750024
 20
120.99998307235001
 30
0.0
 40
2.9999940394999989
  1
23.6
 50
90.0
  0
ENDBLK
  5
732
  8
0
  0
BLOCK
  8
0
  2
*U33
 70
     1
 10
0.0
 20
0.0
 30
0.0
  3
*U33
  1

  0
TEXT
  5
734
  8
0
 62
     0
 10
-61.100009083750031
 20
115.2500173847916
 30
0.0
 40
2.9999940394999989
  1
29.0
 50
90.0
  0
TEXT
  5
735
  8
0
 62
     0
 10
-61.100009083750031
 20
124.7499985098749
 30
0.0
 40
2.9999940394999989
  1
\U+2205
 50
90.0
  0
TEXT
  5
736
  8
0
 62
     0
 10
-61.100009083750031
 20
127.74999254937489
 30
0.0
 40
2.9999940394999989
  1
29
 50
90.0
  0
ENDBLK
  5
738
  8
0
  0
BLOCK
  8
0
  2
*U34
 70
     1
 10
0.0
 20
0.0
 30
0.0
  3
*U34
  1

  0
TEXT
  5
73A
  8
0
 10
-136.70697721727461
 20
170.82500928722331
 30
0.0
 40
3.0
  1
ALW212620
  0
TEXT
  5
73B
  8
0
 10
-136.70697721727461
 20
165.82500928722331
 30
0.0
 40
3.0
  1
(dimensions in mm)
  0
ENDBLK
  5
73D
  8
0
  0
ENDSEC
  0
SECTION
  2
ENTITIES
  0
LINE
  5
100
  8
LAYER1$C$L1
 62
     3
 10
-93.0
 20
77.499984741199995
 30
0.0
 11
-93.0
 21
50.499984741200002
 31
0.0
  0
LINE
  5
101
  8
LAYER1$C$L1
 62
     3
 10
-92.199996948199995
 20
78.499984741199995
 30
0.0
 11
-92.199996948199995
 21
49.499984741200002
 31
0.0
  0
LINE
  5
102
  8
LAYER1$C$L1
 62
     3
 10
-93.000003550700001
 20
77.499955397700006
 30
0.0
 11
-92.200003817400003
 21
78.499955064399984
 31
0.0
  0
LINE
  5
103
  8
LAYER1$C$L1
 62
     3
 10
-87.5
 20
78.499984741199995
 30
0.0
 11
-87.5
 21
49.499984741200002
 31
0.0
  0
LINE
  5
104
  8
LAYER1$C$L1
 62
     3
 10
-92.199996948199995
 20
78.499984741199995
 30
0.0
 11
-87.5
 21
78.499984741199995
 31
0.0
  0
LINE
  5
105
  8
LAYER1$C$L1
 62
     3
 10
-80.0
 20
77.699981689499992
 30
0.0
 11
-80.0
 21
50.299972534200002
 31
0.0
  0
LINE
  5
106
  8
LAYER1$C$L1
 62
     3
 10
-80.300003051800005
 20
77.999984741199995
 30
0.0
 11
-80.300003051800005
 21
49.999984741200002
 31
0.0
  0
LINE
  5
107
  8
LAYER1$C$L1
 62
     3
 10
-87.0
 20
77.999984741199995
 30
0.0
 11
-87.0
 21
49.999984741200002
 31
0.0
  0
LINE
  5
108
  8
LAYER1$C$L1
 62
     3
 10
-87.0
 20
77.999984741199995
 30
0.0
 11
-80.300003051800005
 21
77.999984741199995
 31
0.0
  0
LINE
  5
109
  8
LAYER1$C$L1
 62
     3
 10
-87.500009269699987
 20
78.499951162299993
 30
0.0
 11
-87.000008738899993
 21
77.999950631499985
 31
0.0
  0
LINE
  5
10A
  8
LAYER1$C$L1
 62
     3
 10
-80.300005942099986
 20
77.999939841900002
 30
0.0
 11
-80.000012097400003
 21
77.699945997200004
 31
0.0
  0
LINE
  5
10B
  8
LAYER1$C$L1
 62
     3
 10
-92.199996948199995
 20
77.999984741199995
 30
0.0
 11
-87.5
 21
77.999984741199995
 31
0.0
  0
LINE
  5
10C
  8
LAYER1$C$L1
 62
     3
 10
-92.199996948199995
 20
77.199981689499992
 30
0.0
 11
-87.5
 21
77.199981689499992
 31
0.0
  0
LINE
  5
10D
  8
LAYER1$C$L1
 62
     3
 10
-92.199996948199995
 20
76.099975585899983
 30
0.0
 11
-87.5
 21
76.099975585899983
 31
0.0
  0
LINE
  5
10E
  8
LAYER1$C$L1
 62
     3
 10
-92.199996948199995
 20
74.699981689499992
 30
0.0
 11
-87.5
 21
74.699981689499992
 31
0.0
  0
LINE
  5
10F
  8
LAYER1$C$L1
 62
     3
 10
-92.199996948199995
 20
72.999969482400004
 30
0.0
 11
-87.5
 21
72.999969482400004
 31
0.0
  0
LINE
  5
110
  8
LAYER1$C$L1
 62
     3
 10
-91.155548095699984
 20
70.999969482400004
 30
0.0
 11
-87.5
 21
70.999969482400004
 31
0.0
  0
LINE
  5
111
  8
LAYER1$C$L1
 62
     3
 10
-89.954437255900004
 20
68.699981689499992
 30
0.0
 11
-87.5
 21
68.699981689499992
 31
0.0
  0
LINE
  5
112
  8
LAYER1$C$L1
 62
     3
 10
-88.596664428699995
 20
66.099975585899983
 30
0.0
 11
-87.5
 21
66.099975585899983
 31
0.0
  0
LINE
  5
113
  8
LAYER1$C$L1
 62
     3
 10
-92.199985944699975
 20
49.499979923799998
 30
0.0
 11
-92.999985677999987
 21
50.499979590400002
 31
0.0
  0
LINE
  5
114
  8
LAYER1$C$L1
 62
     3
 10
-87.5
 20
49.499984741200002
 30
0.0
 11
-92.199996948199995
 21
49.499984741200002
 31
0.0
  0
LINE
  5
115
  8
LAYER1$C$L1
 62
     3
 10
-80.300003051800005
 20
49.999984741200002
 30
0.0
 11
-87.0
 21
49.999984741200002
 31
0.0
  0
LINE
  5
116
  8
LAYER1$C$L1
 62
     3
 10
-86.999995251899989
 20
49.999955973100001
 30
0.0
 11
-87.499995782700012
 21
49.499955442299992
 31
0.0
  0
LINE
  5
117
  8
LAYER1$C$L1
 62
     3
 10
-80.000009399999996
 20
50.299971397
 30
0.0
 11
-80.300014034300006
 21
49.999966762700012
 31
0.0
  0
LINE
  5
118
  8
LAYER1$C$L1
 62
     3
 10
-87.5
 20
49.999984741200002
 30
0.0
 11
-92.199996948199995
 21
49.999984741200002
 31
0.0
  0
LINE
  5
119
  8
LAYER1$C$L1
 62
     3
 10
-87.5
 20
50.799972534200002
 30
0.0
 11
-92.199996948199995
 21
50.799972534200002
 31
0.0
  0
LINE
  5
11A
  8
LAYER1$C$L1
 62
     3
 10
-87.5
 20
51.899978637700002
 30
0.0
 11
-92.199996948199995
 21
51.899978637700002
 31
0.0
  0
LINE
  5
11B
  8
LAYER1$C$L1
 62
     3
 10
-87.5
 20
53.299972534200002
 30
0.0
 11
-92.199996948199995
 21
53.299972534200002
 31
0.0
  0
LINE
  5
11C
  8
LAYER1$C$L1
 62
     3
 10
-87.5
 20
54.999984741200002
 30
0.0
 11
-92.199996948199995
 21
54.999984741200002
 31
0.0
  0
LINE
  5
11D
  8
LAYER1$C$L1
 62
     3
 10
-88.544448852499997
 20
56.999984741200002
 30
0.0
 11
-92.199996948199995
 21
56.999984741200002
 31
0.0
  0
LINE
  5
11E
  8
LAYER1$C$L1
 62
     3
 10
-89.783569335899983
 20
59.299972534200002
 30
0.0
 11
-92.199996948199995
 21
59.299972534200002
 31
0.0
  0
LINE
  5
11F
  8
LAYER1$C$L1
 62
     3
 10
-91.103332519500015
 20
61.899978637700002
 30
0.0
 11
-92.199996948199995
 21
61.899978637700002
 31
0.0
  0
LINE
  5
120
  8
LAYER1$C$L1
  6
CENTER
 62
     3
 10
-184.94372558590001
 20
63.999984741200002
 30
0.0
 11
-71.940658569299998
 21
63.999984741200002
 31
0.0
  0
LINE
  5
121
  8
LAYER1$C$L1
 62
     3
 10
-121.5
 20
82.499954223599985
 30
0.0
 11
-121.5
 21
45.4999542236
 31
0.0
  0
LINE
  5
122
  8
LAYER1$C$L1
 62
     3
 10
-107.4999999999999
 20
81.9999542236
 30
0.0
 11
-107.4999999999999
 21
45.9999542236
 31
0.0
  0
LINE
  5
123
  8
LAYER1$C$L1
 62
     3
 10
-121.5
 20
82.499954223599985
 30
0.0
 11
-108.0
 21
82.499954223599985
 31
0.0
  0
LINE
  5
124
  8
LAYER1$C$L1
 62
     3
 10
-121.5
 20
81.9999542236
 30
0.0
 11
-108.0
 21
81.9999542236
 31
0.0
  0
LINE
  5
125
  8
LAYER1$C$L1
 62
     3
 10
-106.00001525879991
 20
75.9999542236
 30
0.0
 11
-106.00001525879991
 21
51.9999542236
 31
0.0
  0
LINE
  5
126
  8
LAYER1$C$L1
 62
     3
 10
-106.00001525879991
 20
75.9999542236
 30
0.0
 11
-102.3000030518
 21
75.9999542236
 31
0.0
  0
LINE
  5
127
  8
LAYER1$C$L1
 62
     3
 10
-107.0
 20
74.9999542236
 30
0.0
 11
-106.00001525879991
 21
74.9999542236
 31
0.0
  0
LINE
  5
128
  8
LAYER1$C$L1
 62
     3
 10
-106.00001525879991
 20
75.199966430700002
 30
0.0
 11
-102.3000030518
 21
75.199966430700002
 31
0.0
  0
LINE
  5
129
  8
LAYER1$C$L1
 62
     3
 10
-95.0
 20
74.9999542236
 30
0.0
 11
-93.0
 21
74.9999542236
 31
0.0
  0
LINE
  5
12A
  8
LAYER1$C$L1
 62
     3
 10
-95.0
 20
78.4999542236
 30
0.0
 11
-95.0
 21
49.4999542236
 31
0.0
  0
LINE
  5
12B
  8
LAYER1$C$L1
 62
     3
 10
-102.3000030518
 20
77.9999542236
 30
0.0
 11
-102.3000030518
 21
49.9999542236
 31
0.0
  0
LINE
  5
12C
  8
LAYER1$C$L1
 62
     3
 10
-99.800003051800005
 20
78.4999542236
 30
0.0
 11
-99.800003051800005
 21
49.4999542236
 31
0.0
  0
LINE
  5
12D
  8
LAYER1$C$L1
 62
     3
 10
-99.800003051800005
 20
78.4999542236
 30
0.0
 11
-95.0
 21
78.4999542236
 31
0.0
  0
LINE
  5
12E
  8
LAYER1$C$L1
 62
     3
 10
-102.3000030518
 20
77.9999542236
 30
0.0
 11
-95.0
 21
77.9999542236
 31
0.0
  0
LINE
  5
12F
  8
LAYER1$C$L1
 62
     3
 10
-99.800003051800005
 20
77.199966430700002
 30
0.0
 11
-95.0
 21
77.199966430700002
 31
0.0
  0
LINE
  5
130
  8
LAYER1$C$L1
 62
     3
 10
-99.800003051800005
 20
76.099960327100007
 30
0.0
 11
-95.0
 21
76.099960327100007
 31
0.0
  0
LINE
  5
131
  8
LAYER1$C$L1
 62
     3
 10
-99.800003051800005
 20
74.699966430700002
 30
0.0
 11
-95.0
 21
74.699966430700002
 31
0.0
  0
LINE
  5
132
  8
LAYER1$C$L1
 62
     3
 10
-99.800003051800005
 20
72.9999542236
 30
0.0
 11
-95.0
 21
72.9999542236
 31
0.0
  0
LINE
  5
133
  8
LAYER1$C$L1
 62
     3
 10
-98.7333526611
 20
70.9999542236
 30
0.0
 11
-95.0
 21
70.9999542236
 31
0.0
  0
LINE
  5
134
  8
LAYER1$C$L1
 62
     3
 10
-97.506683349599996
 20
68.699966430700002
 30
0.0
 11
-95.0
 21
68.699966430700002
 31
0.0
  0
LINE
  5
135
  8
LAYER1$C$L1
 62
     3
 10
-96.120010376000025
 20
66.099960327100007
 30
0.0
 11
-95.0
 21
66.099960327100007
 31
0.0
  0
LINE
  5
136
  8
LAYER1$C$L1
 62
     3
 10
-108.0
 20
45.4999542236
 30
0.0
 11
-121.5
 21
45.4999542236
 31
0.0
  0
LINE
  5
137
  8
LAYER1$C$L1
 62
     3
 10
-108.0
 20
45.9999542236
 30
0.0
 11
-121.5
 21
45.9999542236
 31
0.0
  0
LINE
  5
138
  8
LAYER1$C$L1
 62
     3
 10
-106.00001525879991
 20
52.9999542236
 30
0.0
 11
-107.0
 21
52.9999542236
 31
0.0
  0
LINE
  5
139
  8
LAYER1$C$L1
 62
     3
 10
-95.0
 20
49.4999542236
 30
0.0
 11
-99.800003051800005
 21
49.4999542236
 31
0.0
  0
LINE
  5
13A
  8
LAYER1$C$L1
 62
     3
 10
-95.0
 20
49.9999542236
 30
0.0
 11
-102.3000030518
 21
49.9999542236
 31
0.0
  0
LINE
  5
13B
  8
LAYER1$C$L1
 62
     3
 10
-95.0
 20
50.799957275399997
 30
0.0
 11
-99.800003051800005
 21
50.799957275399997
 31
0.0
  0
LINE
  5
13C
  8
LAYER1$C$L1
 62
     3
 10
-95.0
 20
51.899963378900011
 30
0.0
 11
-99.800003051800005
 21
51.899963378900011
 31
0.0
  0
LINE
  5
13D
  8
LAYER1$C$L1
 62
     3
 10
-95.0
 20
53.299957275399997
 30
0.0
 11
-99.800003051800005
 21
53.299957275399997
 31
0.0
  0
LINE
  5
13E
  8
LAYER1$C$L1
 62
     3
 10
-95.0
 20
54.99996948239999
 30
0.0
 11
-99.800003051800005
 21
54.99996948239999
 31
0.0
  0
LINE
  5
13F
  8
LAYER1$C$L1
 62
     3
 10
-96.066680908200013
 20
56.99996948239999
 30
0.0
 11
-99.800003051800005
 21
56.99996948239999
 31
0.0
  0
LINE
  5
140
  8
LAYER1$C$L1
 62
     3
 10
-97.293350219699988
 20
59.29995727539999
 30
0.0
 11
-99.800003051800005
 21
59.29995727539999
 31
0.0
  0
LINE
  5
141
  8
LAYER1$C$L1
 62
     3
 10
-98.680007934599985
 20
61.899963378900011
 30
0.0
 11
-99.800003051800005
 21
61.899963378900011
 31
0.0
  0
LINE
  5
142
  8
LAYER1$C$L1
 62
     3
 10
-102.3000030518
 20
51.9999542236
 30
0.0
 11
-106.00001525879991
 21
51.9999542236
 31
0.0
  0
LINE
  5
143
  8
LAYER1$C$L1
 62
     3
 10
-102.3000030518
 20
52.799957275399997
 30
0.0
 11
-106.00001525879991
 21
52.799957275399997
 31
0.0
  0
LINE
  5
144
  8
LAYER1$C$L1
 62
     3
 10
-93.0
 20
52.9999542236
 30
0.0
 11
-95.0
 21
52.9999542236
 31
0.0
  0
LINE
  5
145
  8
LAYER1$C$L1
 62
     3
 10
-93.0
 20
137.5
 30
0.0
 11
-93.0
 21
110.4999999999999
 31
0.0
  0
LINE
  5
146
  8
LAYER1$C$L1
 62
     3
 10
-92.199996948199995
 20
138.5
 30
0.0
 11
-92.199996948199995
 21
109.4999999999999
 31
0.0
  0
LINE
  5
147
  8
LAYER1$C$L1
 62
     3
 10
-92.99998806100001
 20
137.49997918379989
 30
0.0
 11
-92.199988327699998
 21
138.49997885039991
 31
0.0
  0
LINE
  5
148
  8
LAYER1$C$L1
 62
     3
 10
-87.5
 20
138.5
 30
0.0
 11
-87.5
 21
109.4999999999999
 31
0.0
  0
LINE
  5
149
  8
LAYER1$C$L1
 62
     3
 10
-92.199996948199995
 20
138.5
 30
0.0
 11
-87.5
 21
138.5
 31
0.0
  0
LINE
  5
14A
  8
LAYER1$C$L1
 62
     3
 10
-80.0
 20
137.69999694820001
 30
0.0
 11
-80.0
 21
110.2999877929999
 31
0.0
  0
LINE
  5
14B
  8
LAYER1$C$L1
 62
     3
 10
-80.300003051800005
 20
138.0
 30
0.0
 11
-80.300003051800005
 21
110.0
 31
0.0
  0
LINE
  5
14C
  8
LAYER1$C$L1
 62
     3
 10
-87.0
 20
138.0
 30
0.0
 11
-87.0
 21
110.0
 31
0.0
  0
LINE
  5
14D
  8
LAYER1$C$L1
 62
     3
 10
-87.0
 20
138.0
 30
0.0
 11
-80.300003051800005
 21
138.0
 31
0.0
  0
LINE
  5
14E
  8
LAYER1$C$L1
 62
     3
 10
-87.500017361900007
 20
138.49998518629999
 30
0.0
 11
-87.000016831099998
 21
137.9999846554999
 31
0.0
  0
LINE
  5
14F
  8
LAYER1$C$L1
 62
     3
 10
-80.300024823900003
 20
137.9999846554999
 30
0.0
 11
-80.000020189599994
 21
137.69998002109989
 31
0.0
  0
LINE
  5
150
  8
LAYER1$C$L1
 62
     3
 10
-92.199996948199995
 20
138.0
 30
0.0
 11
-87.5
 21
138.0
 31
0.0
  0
LINE
  5
151
  8
LAYER1$C$L1
 62
     3
 10
-92.199996948199995
 20
137.19999694820001
 30
0.0
 11
-87.5
 21
137.19999694820001
 31
0.0
  0
LINE
  5
152
  8
LAYER1$C$L1
 62
     3
 10
-92.199996948199995
 20
136.0999908446999
 30
0.0
 11
-87.5
 21
136.0999908446999
 31
0.0
  0
LINE
  5
153
  8
LAYER1$C$L1
 62
     3
 10
-92.199996948199995
 20
134.69999694820001
 30
0.0
 11
-87.5
 21
134.69999694820001
 31
0.0
  0
LINE
  5
154
  8
LAYER1$C$L1
 62
     3
 10
-92.199996948199995
 20
132.9999847412
 30
0.0
 11
-87.5
 21
132.9999847412
 31
0.0
  0
LINE
  5
155
  8
LAYER1$C$L1
 62
     3
 10
-91.155548095699984
 20
130.9999847412
 30
0.0
 11
-87.5
 21
130.9999847412
 31
0.0
  0
LINE
  5
156
  8
LAYER1$C$L1
 62
     3
 10
-89.954437255900004
 20
128.69999694820001
 30
0.0
 11
-87.5
 21
128.69999694820001
 31
0.0
  0
LINE
  5
157
  8
LAYER1$C$L1
 62
     3
 10
-88.596664428699995
 20
126.0999908446999
 30
0.0
 11
-87.5
 21
126.0999908446999
 31
0.0
  0
LINE
  5
158
  8
LAYER1$C$L1
 62
     3
 10
-92.200010817500001
 20
109.49999864590001
 30
0.0
 11
-93.000010550799999
 21
110.4999983124999
 31
0.0
  0
LINE
  5
159
  8
LAYER1$C$L1
 62
     3
 10
-87.5
 20
109.4999999999999
 30
0.0
 11
-92.199996948199995
 21
109.4999999999999
 31
0.0
  0
LINE
  5
15A
  8
LAYER1$C$L1
 62
     3
 10
-80.300003051800005
 20
110.0
 30
0.0
 11
-87.0
 21
110.0
 31
0.0
  0
LINE
  5
15B
  8
LAYER1$C$L1
 62
     3
 10
-87.000006041500001
 20
109.9999872996999
 30
0.0
 11
-87.499998480100004
 21
109.49999486110001
 31
0.0
  0
LINE
  5
15C
  8
LAYER1$C$L1
 62
     3
 10
-80.000020189599994
 20
110.3000027236
 30
0.0
 11
-80.300024823900003
 21
109.99999808929999
 31
0.0
  0
LINE
  5
15D
  8
LAYER1$C$L1
 62
     3
 10
-87.5
 20
110.0
 30
0.0
 11
-92.199996948199995
 21
110.0
 31
0.0
  0
LINE
  5
15E
  8
LAYER1$C$L1
 62
     3
 10
-87.5
 20
110.7999877929999
 30
0.0
 11
-92.199996948199995
 21
110.7999877929999
 31
0.0
  0
LINE
  5
15F
  8
LAYER1$C$L1
 62
     3
 10
-87.5
 20
111.89999389650001
 30
0.0
 11
-92.199996948199995
 21
111.89999389650001
 31
0.0
  0
LINE
  5
160
  8
LAYER1$C$L1
 62
     3
 10
-87.5
 20
113.2999877929999
 30
0.0
 11
-92.199996948199995
 21
113.2999877929999
 31
0.0
  0
LINE
  5
161
  8
LAYER1$C$L1
 62
     3
 10
-87.5
 20
115.0
 30
0.0
 11
-92.199996948199995
 21
115.0
 31
0.0
  0
LINE
  5
162
  8
LAYER1$C$L1
 62
     3
 10
-88.544448852499997
 20
117.0
 30
0.0
 11
-92.199996948199995
 21
117.0
 31
0.0
  0
LINE
  5
163
  8
LAYER1$C$L1
 62
     3
 10
-89.783569335899983
 20
119.2999877929999
 30
0.0
 11
-92.199996948199995
 21
119.2999877929999
 31
0.0
  0
LINE
  5
164
  8
LAYER1$C$L1
 62
     3
 10
-91.103332519500015
 20
121.89999389649989
 30
0.0
 11
-92.199996948199995
 21
121.89999389649989
 31
0.0
  0
LINE
  5
165
  8
LAYER1$C$L1
 62
     3
 10
-121.5
 20
138.7999877929999
 30
0.0
 11
-121.5
 21
128.10000610349991
 31
0.0
  0
LINE
  5
166
  8
LAYER1$C$L1
 62
     3
 10
-107.4999999999999
 20
138.2999877929999
 30
0.0
 11
-107.4999999999999
 21
119.7999877929999
 31
0.0
  0
LINE
  5
167
  8
LAYER1$C$L1
 62
     3
 10
-106.00001525879991
 20
135.9999847412
 30
0.0
 11
-106.00001525879991
 21
127.2499847412
 31
0.0
  0
LINE
  5
168
  8
LAYER1$C$L1
 62
     3
 10
-121.5
 20
138.7999877929999
 30
0.0
 11
-108.0
 21
138.7999877929999
 31
0.0
  0
LINE
  5
169
  8
LAYER1$C$L1
 62
     3
 10
-106.00001525879991
 20
135.9999847412
 30
0.0
 11
-102.3000030518
 21
135.9999847412
 31
0.0
  0
LINE
  5
16A
  8
LAYER1$C$L1
 62
     3
 10
-107.0
 20
134.9999847412
 30
0.0
 11
-106.00001525879991
 21
134.9999847412
 31
0.0
  0
LINE
  5
16B
  8
LAYER1$C$L1
 62
     3
 10
-95.0
 20
134.9999847412
 30
0.0
 11
-93.0
 21
134.9999847412
 31
0.0
  0
LINE
  5
16C
  8
LAYER1$C$L1
 62
     3
 10
-93.500015258799991
 20
134.9999847412
 30
0.0
 11
-93.500015258799991
 21
125.5999908446999
 31
0.0
  0
LINE
  5
16D
  8
LAYER1$C$L1
 62
     3
 10
-94.700012207000015
 20
125.5999908446999
 30
0.0
 11
-94.700012207000015
 21
122.39999389650001
 31
0.0
  0
LINE
  5
16E
  8
LAYER1$C$L1
 62
     3
 10
-94.700012207000015
 20
125.5999908446999
 30
0.0
 11
-93.0
 21
125.5999908446999
 31
0.0
  0
LINE
  5
16F
  8
LAYER1$C$L1
 62
     3
 10
-107.4999999999999
 20
127.2499847412
 30
0.0
 11
-102.3000030518
 21
127.2499847412
 31
0.0
  0
LINE
  5
170
  8
LAYER1$C$L1
 62
     3
 10
-121.5
 20
129.2999877929999
 30
0.0
 11
-107.4999999999999
 21
129.2999877929999
 31
0.0
  0
LINE
  5
171
  8
LAYER1$C$L1
 62
     3
 10
-121.5
 20
128.19999694820001
 30
0.0
 11
-107.4999999999999
 21
128.19999694820001
 31
0.0
  0
LINE
  5
172
  8
LAYER1$C$L1
 62
     3
 10
-108.0
 20
128.19999694820001
 30
0.0
 11
-108.0
 21
119.7999877929999
 31
0.0
  0
LINE
  5
173
  8
LAYER1$C$L1
 62
     3
 10
-109.6999969482
 20
125.0999908446999
 30
0.0
 11
-121.5
 21
125.0999908446999
 31
0.0
  0
LINE
  5
174
  8
LAYER1$C$L1
 62
     3
 10
-113.8999786377
 20
122.89999389649989
 30
0.0
 11
-113.8999786377
 21
125.0999908446999
 31
0.0
  0
LINE
  5
175
  8
LAYER1$C$L1
 62
     3
 10
-109.6999969482
 20
128.19999694820001
 30
0.0
 11
-109.6999969482
 21
119.7999877929999
 31
0.0
  0
LINE
  5
176
  8
LAYER1$C$L1
 62
     3
 10
-102.3000030518
 20
137.99998474119991
 30
0.0
 11
-95.0
 21
137.99998474119991
 31
0.0
  0
LINE
  5
177
  8
LAYER1$C$L1
 62
     3
 10
-95.0
 20
138.49998474119991
 30
0.0
 11
-95.0
 21
109.4999847412
 31
0.0
  0
LINE
  5
178
  8
LAYER1$C$L1
 62
     3
 10
-99.800003051800005
 20
138.49998474119991
 30
0.0
 11
-99.800003051800005
 21
109.4999847412
 31
0.0
  0
LINE
  5
179
  8
LAYER1$C$L1
 62
     3
 10
-102.3000030518
 20
137.99998474119991
 30
0.0
 11
-102.3000030518
 21
109.9999847412
 31
0.0
  0
LINE
  5
17A
  8
LAYER1$C$L1
 62
     3
 10
-99.800003051800005
 20
138.49998474119991
 30
0.0
 11
-95.0
 21
138.49998474119991
 31
0.0
  0
LINE
  5
17B
  8
LAYER1$C$L1
 62
     3
 10
-101.3000030518
 20
124.9999847412
 30
0.0
 11
-99.800003051800005
 21
124.9999847412
 31
0.0
  0
LINE
  5
17C
  8
LAYER1$C$L1
 62
     3
 10
-106.00001525879991
 20
135.19999694820001
 30
0.0
 11
-102.3000030518
 21
135.19999694820001
 31
0.0
  0
LINE
  5
17D
  8
LAYER1$C$L1
 62
     3
 10
-107.4999999999999
 20
119.7999877929999
 30
0.0
 11
-107.4999999999999
 21
109.6999969482
 31
0.0
  0
LINE
  5
17E
  8
LAYER1$C$L1
 62
     3
 10
-106.00001525879991
 20
120.7499847412
 30
0.0
 11
-106.00001525879991
 21
111.9999847412
 31
0.0
  0
LINE
  5
17F
  8
LAYER1$C$L1
 62
     3
 10
-108.0
 20
109.1999969481999
 30
0.0
 11
-121.5
 21
109.1999969481999
 31
0.0
  0
LINE
  5
180
  8
LAYER1$C$L1
 62
     3
 10
-102.3000030518
 20
111.9999847412
 30
0.0
 11
-106.00001525879991
 21
111.9999847412
 31
0.0
  0
LINE
  5
181
  8
LAYER1$C$L1
 62
     3
 10
-106.00001525879991
 20
112.9999847412
 30
0.0
 11
-107.0
 21
112.9999847412
 31
0.0
  0
LINE
  5
182
  8
LAYER1$C$L1
 62
     3
 10
-93.0
 20
112.9999847412
 30
0.0
 11
-95.0
 21
112.9999847412
 31
0.0
  0
LINE
  5
183
  8
LAYER1$C$L1
 62
     3
 10
-93.500015258799991
 20
122.39999389650001
 30
0.0
 11
-93.500015258799991
 21
112.9999847412
 31
0.0
  0
LINE
  5
184
  8
LAYER1$C$L1
 62
     3
 10
-93.0
 20
122.39999389650001
 30
0.0
 11
-94.700012207000015
 21
122.39999389650001
 31
0.0
  0
LINE
  5
185
  8
LAYER1$C$L1
 62
     3
 10
-102.3000030518
 20
120.7499847412
 30
0.0
 11
-107.4999999999999
 21
120.7499847412
 31
0.0
  0
LINE
  5
186
  8
LAYER1$C$L1
 62
     3
 10
-107.4999999999999
 20
118.6999969481999
 30
0.0
 11
-121.5
 21
118.6999969481999
 31
0.0
  0
LINE
  5
187
  8
LAYER1$C$L1
 62
     3
 10
-107.4999999999999
 20
119.7999877929999
 30
0.0
 11
-121.5
 21
119.7999877929999
 31
0.0
  0
LINE
  5
188
  8
LAYER1$C$L1
 62
     3
 10
-121.5
 20
122.89999389649989
 30
0.0
 11
-109.6999969482
 21
122.89999389649989
 31
0.0
  0
LINE
  5
189
  8
LAYER1$C$L1
 62
     3
 10
-95.0
 20
109.9999847412
 30
0.0
 11
-102.3000030518
 21
109.9999847412
 31
0.0
  0
LINE
  5
18A
  8
LAYER1$C$L1
 62
     3
 10
-95.0
 20
109.4999847412
 30
0.0
 11
-99.800003051800005
 21
109.4999847412
 31
0.0
  0
LINE
  5
18B
  8
LAYER1$C$L1
 62
     3
 10
-99.800003051800005
 20
122.9999847412
 30
0.0
 11
-101.3000030518
 21
122.9999847412
 31
0.0
  0
LINE
  5
18C
  8
LAYER1$C$L1
 62
     3
 10
-102.3000030518
 20
112.7999877929999
 30
0.0
 11
-106.00001525879991
 21
112.7999877929999
 31
0.0
  0
LINE
  5
18D
  8
LAYER1$C$L1
 62
     3
 10
-99.800003051800005
 20
137.19999694820001
 30
0.0
 11
-95.0
 21
137.19999694820001
 31
0.0
  0
LINE
  5
18E
  8
LAYER1$C$L1
 62
     3
 10
-99.800003051800005
 20
136.0999908446999
 30
0.0
 11
-95.0
 21
136.0999908446999
 31
0.0
  0
LINE
  5
18F
  8
LAYER1$C$L1
 62
     3
 10
-99.800003051800005
 20
134.69999694820001
 30
0.0
 11
-95.0
 21
134.69999694820001
 31
0.0
  0
LINE
  5
190
  8
LAYER1$C$L1
 62
     3
 10
-99.800003051800005
 20
132.9999847412
 30
0.0
 11
-95.0
 21
132.9999847412
 31
0.0
  0
LINE
  5
191
  8
LAYER1$C$L1
 62
     3
 10
-98.7333526611
 20
130.9999847412
 30
0.0
 11
-95.0
 21
130.9999847412
 31
0.0
  0
LINE
  5
192
  8
LAYER1$C$L1
 62
     3
 10
-97.506683349599996
 20
128.69999694820001
 30
0.0
 11
-95.0
 21
128.69999694820001
 31
0.0
  0
LINE
  5
193
  8
LAYER1$C$L1
 62
     3
 10
-96.120010376000025
 20
126.0999908446999
 30
0.0
 11
-95.0
 21
126.0999908446999
 31
0.0
  0
LINE
  5
194
  8
LAYER1$C$L1
 62
     3
 10
-95.0
 20
110.7999877929999
 30
0.0
 11
-99.800003051800005
 21
110.7999877929999
 31
0.0
  0
LINE
  5
195
  8
LAYER1$C$L1
 62
     3
 10
-95.0
 20
111.89999389650001
 30
0.0
 11
-99.800003051800005
 21
111.89999389650001
 31
0.0
  0
LINE
  5
196
  8
LAYER1$C$L1
 62
     3
 10
-95.0
 20
113.2999877929999
 30
0.0
 11
-99.800003051800005
 21
113.2999877929999
 31
0.0
  0
LINE
  5
197
  8
LAYER1$C$L1
 62
     3
 10
-95.0
 20
115.0
 30
0.0
 11
-99.800003051800005
 21
115.0
 31
0.0
  0
LINE
  5
198
  8
LAYER1$C$L1
 62
     3
 10
-96.066680908200013
 20
117.0
 30
0.0
 11
-99.800003051800005
 21
117.0
 31
0.0
  0
LINE
  5
199
  8
LAYER1$C$L1
 62
     3
 10
-97.293350219699988
 20
119.2999877929999
 30
0.0
 11
-99.800003051800005
 21
119.2999877929999
 31
0.0
  0
LINE
  5
19A
  8
LAYER1$C$L1
 62
     3
 10
-98.680007934599985
 20
121.89999389649989
 30
0.0
 11
-99.800003051800005
 21
121.89999389649989
 31
0.0
  0
LINE
  5
19B
  8
LAYER1$C$L1
 62
     3
 10
-121.5
 20
119.89994812010001
 30
0.0
 11
-121.5
 21
109.19998168950001
 31
0.0
  0
LINE
  5
19C
  8
LAYER1$C$L1
 62
     3
 10
-121.5
 20
125.0999755859
 30
0.0
 11
-121.5
 21
122.8999786377
 31
0.0
  0
LINE
  5
19E
  8
LAYER1$C$L1
 62
     3
 10
-133.8634901428
 20
79.7012346235
 30
0.0
 11
-134.5763388725
 21
80.064449158599984
 31
0.0
  0
LINE
  5
1A0
  8
LAYER1$C$L1
 62
     3
 10
-135.7532466461
 20
133.1501013022999
 30
0.0
 11
-134.9923367026
 21
131.83216639610001
 31
0.0
  0
LINE
  5
1A1
  8
LAYER1$C$L1
 62
     3
 10
-136.54204493730001
 20
74.444274347399997
 30
0.0
 11
-137.25489366689999
 21
74.807488882499996
 31
0.0
  0
DIMENSION
  5
1A9
  8
LAYER9$C$L9
 62
     3
  2
*D17
 10
-93.0
 20
103.0989776195832
 30
0.0
 11
-59.988820467700627
 21
103.0989776195832
 31
0.0
 70
   128
  1
<>13
 13
-80.0
 23
110.2999877929999
 33
0.0
 14
-93.0
 24
110.4999999999999
 34
0.0
 50
180.0
1001
ACAD
1000
DSTYLE
1002
{
1070
    41
1040
1.972787845999999
1070
    42
1040
2.5399999618999991
1070
    44
1040
3.8099999427999989
1070
    73
1070
     0
1070
   140
1040
2.9999940394999989
1070
   271
1070
     1
1070
   272
1070
     1
1002
}
  0
DIMENSION
  5
1B6
  8
LAYER9$C$L9
 62
     3
  2
*D18
 10
-62.600006103500007
 20
138.49999999999989
 30
0.0
 11
-62.600006103500029
 21
123.9999999999999
 31
0.0
 70
     1
  1
<>%%c29
 13
-87.5
 23
109.4999999999999
 33
0.0
 14
-87.5
 24
138.5
 34
0.0
1001
ACAD
1000
DSTYLE
1002
{
1070
    41
1040
1.972787845999999
1070
    42
1040
2.5399999618999991
1070
    44
1040
3.8099999427999989
1070
    73
1070
     0
1070
   140
1040
2.9999940394999989
1070
   271
1070
     1
1070
   272
1070
     1
1002
}
  0
LINE
  5
1CF
  8
LAYER1$C$L1
 62
     3
 10
-132.59963989260001
 20
116.0999908446999
 30
0.0
 11
-132.59963989260001
 21
113.60000610349999
 31
0.0
  0
LINE
  5
1D0
  8
LAYER1$C$L1
  6
PHANTOM
 62
     3
 10
-170.89994812009991
 20
63.999984741200002
 30
0.0
 11
-179.49999999999989
 21
63.999984741200002
 31
0.0
  0
LINE
  5
1D1
  8
LAYER1$C$L1
 62
     3
 10
-131.39953613279991
 20
113.599899292
 30
0.0
 11
-132.59954833980001
 21
113.599899292
 31
0.0
  0
LINE
  5
1D2
  8
LAYER1$C$L1
  6
PHANTOM
 62
     3
 10
-170.8999786377
 20
54.0
 30
0.0
 11
-179.5000305175999
 21
54.0
 31
0.0
  0
LINE
  5
1D3
  8
LAYER1$C$L1
  6
PHANTOM
 62
     3
 10
-181.5000152588
 20
45.1000061035
 30
0.0
 11
-164.0000457763999
 21
45.1000061035
 31
0.0
  0
LINE
  5
1D4
  8
LAYER1$C$L1
  6
PHANTOM
 62
     3
 10
-176.5
 20
45.100036621099989
 30
0.0
 11
-176.5
 21
47.000030517600003
 31
0.0
  0
LINE
  5
1D5
  8
LAYER1$C$L1
  6
PHANTOM
 62
     3
 10
-176.5
 20
80.999954223600014
 30
0.0
 11
-176.5
 21
82.899948120100007
 31
0.0
  0
LINE
  5
1D6
  8
LAYER1$C$L1
 62
     3
 10
-135.2830680623
 20
112.8355727295999
 30
0.0
 11
-136.15740420069989
 21
114.3499676019
 31
0.0
  0
LINE
  5
1D7
  8
LAYER1$C$L1
 62
     3
 10
-131.9411315918
 20
113.16300964359991
 30
0.0
 11
-131.9411315918
 21
113.59991455079999
 31
0.0
  0
LINE
  5
1D8
  8
LAYER1$C$L1
  6
PHANTOM
 62
     3
 10
-181.4999847412
 20
136.99996948239991
 30
0.0
 11
-179.49998474119991
 21
136.99996948239991
 31
0.0
  0
LINE
  5
1D9
  8
LAYER1$C$L1
  6
PHANTOM
 62
     3
 10
-181.4999847412
 20
132.99996948239991
 30
0.0
 11
-179.49998474119991
 21
132.99996948239991
 31
0.0
  0
LINE
  5
1DA
  8
LAYER1$C$L1
  6
PHANTOM
 62
     3
 10
-181.4999847412
 20
110.9999847412
 30
0.0
 11
-179.49998474119991
 21
110.9999847412
 31
0.0
  0
LINE
  5
1DB
  8
LAYER1$C$L1
  6
PHANTOM
 62
     3
 10
-182.49998474119991
 20
135.99996948239991
 30
0.0
 11
-182.49998474119991
 21
111.9999847412
 31
0.0
  0
LINE
  5
1DC
  8
LAYER1$C$L1
  6
PHANTOM
 62
     3
 10
-179.49998474119991
 20
136.99996948239991
 30
0.0
 11
-179.49998474119991
 21
132.99993896480001
 31
0.0
  0
LINE
  5
1DD
  8
LAYER1$C$L1
  6
PHANTOM
 62
     3
 10
-179.49994239470001
 20
132.99990382039999
 30
0.0
 11
-176.49996078909999
 21
129.99992221479991
 31
0.0
  0
LINE
  5
1DE
  8
LAYER1$C$L1
  6
PHANTOM
 62
     3
 10
-176.5
 20
129.99996948239999
 30
0.0
 11
-164.49996948239991
 21
129.99996948239999
 31
0.0
  0
LINE
  5
1DF
  8
LAYER1$C$L1
  6
PHANTOM
 62
     3
 10
-176.5
 20
121.9999847412
 30
0.0
 11
-164.29997253420001
 21
121.9999847412
 31
0.0
  0
LINE
  5
1E0
  8
LAYER1$C$L1
  6
PHANTOM
 62
     3
 10
-179.4999855529999
 20
118.99997527479989
 30
0.0
 11
-176.50000394750001
 21
121.99995688040001
 31
0.0
  0
LINE
  5
1E1
  8
LAYER1$C$L1
  6
PHANTOM
 62
     3
 10
-177.1737924533
 20
117.32616412829989
 30
0.0
 11
-179.49997476349989
 21
114.9999818181
 31
0.0
  0
LINE
  5
1E2
  8
LAYER1$C$L1
  6
PHANTOM
 62
     3
 10
-182.49998474119991
 20
127.8998870849999
 30
0.0
 11
-166.4999847412
 21
127.8998870849999
 31
0.0
  0
LINE
  5
1E3
  8
LAYER1$C$L1
  6
PHANTOM
 62
     3
 10
-182.49998474119991
 20
123.8999176025
 30
0.0
 11
-166.4999847412
 21
123.8999176025
 31
0.0
  0
LINE
  5
1E4
  8
LAYER1$C$L1
  6
PHANTOM
 62
     3
 10
-166.4999847412
 20
127.8998870849999
 30
0.0
 11
-166.4999847412
 21
123.8999176025
 31
0.0
  0
LINE
  5
1E5
  8
LAYER1$C$L1
  6
PHANTOM
 62
     3
 10
-170.09980773929991
 20
127.8998870849999
 30
0.0
 11
-170.09980773929991
 21
123.8999176025
 31
0.0
  0
LINE
  5
1E6
  8
LAYER1$C$L1
  6
PHANTOM
 62
     3
 10
-166.4999847412
 20
121.9999847412
 30
0.0
 11
-166.4999847412
 21
120.0999908446999
 31
0.0
  0
LINE
  5
1E7
  8
LAYER1$C$L1
  6
PHANTOM
 62
     3
 10
-179.49998474119991
 20
119.0
 30
0.0
 11
-179.49998474119991
 21
110.9999847412
 31
0.0
  0
LINE
  5
1E8
  8
LAYER1$C$L1
  6
PHANTOM
 62
     3
 10
-164.00006963789991
 20
122.29990241110001
 30
0.0
 11
-164.0000512796999
 21
129.49996039449999
 31
0.0
  0
DIMENSION
  5
1E9
  8
LAYER9$C$L9
 62
     3
  2
*D20
 10
-93.0
 20
98.199996948199995
 30
0.0
 11
-137.74999237060001
 21
98.199996948199995
 31
0.0
 70
     0
 13
-182.49998474119991
 23
111.9999847412
 33
0.0
 14
-93.0
 24
110.4999999999999
 34
0.0
1001
ACAD
1000
DSTYLE
1002
{
1070
    41
1040
1.972787845999999
1070
    42
1040
2.5399999618999991
1070
    44
1040
3.8099999427999989
1070
    73
1070
     0
1070
   140
1040
2.9999940394999989
1070
   271
1070
     1
1070
   272
1070
     1
1002
}
  0
ARC
  5
1F5
  8
LAYER1$C$L1
 62
     3
 10
-134.63864135739999
 20
72.673141479500003
 30
0.0
 40
0.7999997139000001
 50
153.00006231419999
 51
180.00007331079999
  0
ARC
  5
1F6
  8
LAYER1$C$L1
 62
     3
 10
-134.63864135739999
 20
55.327438354499989
 30
0.0
 40
0.7999997139000001
 50
179.9999640277999
 51
206.9999750243999
  0
ARC
  5
1F7
  8
LAYER1$C$L1
 62
     3
 10
-132.89999389650001
 20
46.800216674799998
 30
0.0
 40
0.5999999046
 50
117.00004765209989
 51
269.9999460416999
  0
ARC
  5
1F8
  8
LAYER1$C$L1
 62
     3
 10
-140.99996948239991
 20
46.000167846700002
 30
0.0
 40
0.5
 50
180.00003597220001
 51
269.99996334460002
  0
ARC
  5
1F9
  8
LAYER1$C$L1
 62
     3
 10
-132.89996337889991
 20
81.2002410889
 30
0.0
 40
0.5999999046
 50
90.000091296900024
 51
242.9999350450999
  0
ARC
  5
1FA
  8
LAYER1$C$L1
 62
     3
 10
-140.99993896480001
 20
82.000167846699995
 30
0.0
 40
0.5
 50
90.000091296900024
 51
180.00001866929989
  0
ARC
  5
1FB
  8
LAYER1$C$L1
 62
     3
 10
-138.64006042479991
 20
66.609909057600007
 30
0.0
 40
0.067499935627
 50
0.0
 51
89.999927372399995
  0
ARC
  5
1FC
  8
LAYER1$C$L1
 62
     3
 10
-138.64006042479991
 20
66.114913940400001
 30
0.0
 40
0.067499935627
 50
270.00001798609998
 51
0.0
  0
ARC
  5
1FD
  8
LAYER1$C$L1
 62
     3
 10
-140.26007080080001
 20
66.609909057600007
 30
0.0
 40
0.067499935627
 50
89.999927372399995
 51
179.9999640277999
  0
ARC
  5
1FE
  8
LAYER1$C$L1
 62
     3
 10
-140.26007080080001
 20
66.114913940400001
 30
0.0
 40
0.067499935627
 50
180.00003597220001
 51
270.00001798609998
  0
ARC
  5
1FF
  8
LAYER1$C$L1
 62
     3
 10
-139.3150634765999
 20
65.529830932600007
 30
0.0
 40
0.3374999762
 50
0.0
 51
89.999927372399995
  0
ARC
  5
200
  8
LAYER1$C$L1
 62
     3
 10
-139.99006652829991
 20
65.529830932600007
 30
0.0
 40
0.3374999762
 50
89.999927372399995
 51
179.9999640277999
  0
ARC
  5
201
  8
LAYER1$C$L1
 62
     3
 10
-138.64006042479991
 20
65.034835815400001
 30
0.0
 40
0.067499935627
 50
0.0
 51
89.999927372399995
  0
ARC
  5
202
  8
LAYER1$C$L1
 62
     3
 10
-138.64006042479991
 20
64.539840698199995
 30
0.0
 40
0.067499935627
 50
270.00001798609998
 51
0.0
  0
ARC
  5
203
  8
LAYER1$C$L1
 62
     3
 10
-140.26007080080001
 20
64.539840698199995
 30
0.0
 40
0.067499935627
 50
180.00003597220001
 51
270.00001798609998
  0
ARC
  5
204
  8
LAYER1$C$L1
 62
     3
 10
-139.4500579834
 20
63.954879760700003
 30
0.0
 40
0.3374999762
 50
0.0
 51
89.999927372399995
  0
ARC
  5
205
  8
LAYER1$C$L1
 62
     3
 10
-139.1800689696999
 20
62.919845581099999
 30
0.0
 40
0.067499935627
 50
270.00001798609998
 51
0.0
  0
ARC
  5
206
  8
LAYER1$C$L1
 62
     3
 10
-139.99006652829991
 20
63.954879760700003
 30
0.0
 40
0.3374999762
 50
89.999927372399995
 51
179.9999640277999
  0
ARC
  5
207
  8
LAYER1$C$L1
 62
     3
 10
-140.26007080080001
 20
62.919845581099999
 30
0.0
 40
0.067499935627
 50
180.00003597220001
 51
270.00001798609998
  0
ARC
  5
208
  8
LAYER1$C$L1
 62
     3
 10
-139.4500579834
 20
62.334884643599999
 30
0.0
 40
0.3374999762
 50
0.0
 51
89.999927372399995
  0
ARC
  5
209
  8
LAYER1$C$L1
 62
     3
 10
-139.99006652829991
 20
62.334884643599999
 30
0.0
 40
0.3374999762
 50
89.999927372399995
 51
179.9999640277999
  0
LINE
  5
20A
  8
LAYER1$C$L1
 62
     3
 10
-109.99993896479999
 20
119.8999633789
 30
0.0
 11
-121.49993896479999
 21
119.8999633789
 31
0.0
  0
LINE
  5
20B
  8
LAYER1$C$L1
 62
     3
 10
-110.00109863279999
 20
119.8999633789
 30
0.0
 11
-110.00109863279999
 21
122.8999786377
 31
0.0
  0
ARC
  5
20C
  8
LAYER1$C$L1
 62
     3
 10
-139.1800689696999
 20
61.389816284200002
 30
0.0
 40
0.067499935627
 50
270.00001798609998
 51
0.0
  0
ARC
  5
20D
  8
LAYER1$C$L1
 62
     3
 10
-140.26007080080001
 20
61.389816284200002
 30
0.0
 40
0.067499935627
 50
180.00003597220001
 51
270.00001798609998
  0
ARC
  5
20E
  8
LAYER1$C$L1
 62
     3
 10
-129.94567871090001
 20
53.605758666999989
 30
0.0
 40
9.0
 50
189.42903015909991
 51
224.57100913699989
  0
ARC
  5
20F
  8
LAYER1$C$L1
 62
     3
 10
-135.64472961429991
 20
47.991378784200002
 30
0.0
 40
1.0
 50
224.57100913699989
 51
292.00005730269999
  0
ARC
  5
210
  8
LAYER1$C$L1
 62
     3
 10
-137.83760070799991
 20
52.295089721700002
 30
0.0
 40
1.0
 50
122.0000193321
 51
189.42901285630001
  0
ARC
  5
211
  8
LAYER1$C$L1
 62
     3
 10
-133.29440307620001
 20
47.772140502900001
 30
0.0
 40
0.1999999881
 50
318.80172643599991
 51
39.52896508550004
  0
ARC
  5
212
  8
LAYER1$C$L1
 62
     3
 10
-132.22520446780001
 20
48.316940307599999
 30
0.0
 40
0.1999999881
 50
318.80156251149998
 51
39.5290197271
  0
ARC
  5
213
  8
LAYER1$C$L1
 62
     3
 10
-136.63345336910001
 20
54.325363159200002
 30
0.0
 40
0.1999999881
 50
14.470964700199991
 51
95.198138462900005
  0
ARC
  5
214
  8
LAYER1$C$L1
 62
     3
 10
-135.56423950199999
 20
54.8701629639
 30
0.0
 40
0.1999999881
 50
14.470910058599991
 51
95.198302387400005
  0
ARC
  5
215
  8
LAYER1$C$L1
 62
     3
 10
-129.94567871090001
 20
74.394210815400001
 30
0.0
 40
9.0
 50
135.42904550450001
 51
170.57102448239999
  0
LINE
  5
216
  8
LAYER1$C$L1
 62
     3
 10
-109.99993896479999
 20
128.10000610349991
 30
0.0
 11
-121.5
 21
128.10000610349991
 31
0.0
  0
LINE
  5
217
  8
LAYER1$C$L1
 62
     3
 10
-110.00109863279999
 20
128.10000610349991
 30
0.0
 11
-110.00109863279999
 21
125.0999908446999
 31
0.0
  0
LINE
  5
218
  8
LAYER1$C$L1
  6
CENTER
 62
     3
 10
-184.69834899899999
 20
123.9999847412
 30
0.0
 11
-71.707015991199995
 21
123.9999847412
 31
0.0
  0
LINE
  5
219
  8
LAYER1$C$L1
 62
     3
 10
-141.4999847412
 20
68.999969482400004
 30
0.0
 11
-141.4999847412
 21
58.999969482399997
 31
0.0
  0
LINE
  5
21A
  8
LAYER1$C$L1
 62
     3
 10
-135.4386596679999
 20
70.699935913100006
 30
0.0
 11
-135.4386596679999
 21
72.673080444299998
 31
0.0
  0
LINE
  5
21B
  8
LAYER1$C$L1
 62
     3
 10
-135.35156347789999
 20
73.036227950500006
 30
0.0
 11
-132.00005871409991
 21
79.613927031000003
 31
0.0
  0
LINE
  5
21C
  8
LAYER1$C$L1
 62
     3
 10
-135.43867492679991
 20
55.327316284200002
 30
0.0
 11
-135.43867492679991
 21
57.299972534200002
 31
0.0
  0
LINE
  5
21D
  8
LAYER1$C$L1
 62
     3
 10
-132.00001506259991
 20
48.386387112199998
 30
0.0
 11
-135.35158909980001
 21
54.964222149599991
 31
0.0
  0
LINE
  5
21E
  8
LAYER1$C$L1
 62
     3
 10
-123.60009765629999
 20
60.800079345699999
 30
0.0
 11
-135.10009765629999
 21
60.800079345699999
 31
0.0
  0
LINE
  5
21F
  8
LAYER1$C$L1
 62
     3
 10
-123.60009765629999
 20
57.000030517600003
 30
0.0
 11
-135.10009765629999
 21
57.000030517600003
 31
0.0
  0
LINE
  5
220
  8
LAYER1$C$L1
 62
     3
 10
-124.0
 20
60.400054931599989
 30
0.0
 11
-134.70007324220001
 21
60.400054931599989
 31
0.0
  0
LINE
  5
221
  8
LAYER1$C$L1
 62
     3
 10
-124.0
 20
57.400054931599989
 30
0.0
 11
-134.70007324220001
 21
57.400054931599989
 31
0.0
  0
LINE
  5
222
  8
LAYER1$C$L1
 62
     3
 10
-123.60009765629999
 20
57.000030517600003
 30
0.0
 11
-123.60009765629999
 21
60.800079345699999
 31
0.0
  0
LINE
  5
223
  8
LAYER1$C$L1
 62
     3
 10
-135.10009765629999
 20
57.000030517600003
 30
0.0
 11
-135.10009765629999
 21
60.800079345699999
 31
0.0
  0
LINE
  5
224
  8
LAYER1$C$L1
 62
     3
 10
-134.70007324220001
 20
57.400054931599989
 30
0.0
 11
-134.70007324220001
 21
60.400054931599989
 31
0.0
  0
LINE
  5
225
  8
LAYER1$C$L1
 62
     3
 10
-124.0
 20
57.400054931599989
 30
0.0
 11
-124.0
 21
60.400054931599989
 31
0.0
  0
LINE
  5
226
  8
LAYER1$C$L1
 62
     3
 10
-134.7003760513
 20
57.4003867809
 30
0.0
 11
-135.10036784429991
 21
57.000394987999996
 31
0.0
  0
LINE
  5
227
  8
LAYER1$C$L1
 62
     3
 10
-134.7003394347999
 20
60.400382058600002
 30
0.0
 11
-135.10033169979999
 21
60.800373379600003
 31
0.0
  0
LINE
  5
228
  8
LAYER1$C$L1
 62
     3
 10
-123.6003016879999
 20
60.8003170211
 30
0.0
 11
-124.000293481
 21
60.400325228199989
 31
0.0
  0
LINE
  5
229
  8
LAYER1$C$L1
 62
     3
 10
-123.6003531069
 20
57.000400585599998
 30
0.0
 11
-124.0003444278
 21
57.400392850599999
 31
0.0
  0
LINE
  5
22A
  8
LAYER1$C$L1
 62
     3
 10
-135.4000244140999
 20
57.300079345699999
 30
0.0
 11
-141.4999847412
 21
57.300079345699999
 31
0.0
  0
LINE
  5
22B
  8
LAYER1$C$L1
 62
     3
 10
-135.4000244140999
 20
55.500152587899997
 30
0.0
 11
-135.4000244140999
 21
57.300079345699999
 31
0.0
  0
LINE
  5
22C
  8
LAYER1$C$L1
 62
     3
 10
-132.00037700679999
 20
48.827796677499997
 30
0.0
 11
-135.40037318319989
 21
55.500665522799999
 31
0.0
  0
LINE
  5
22D
  8
LAYER1$C$L1
 62
     3
 10
-130.66149902340001
 20
46.200164794899997
 30
0.0
 11
-132.9000244140999
 21
46.200164794899997
 31
0.0
  0
LINE
  5
22E
  8
LAYER1$C$L1
 62
     3
 10
-132.0
 20
47.932098388699998
 30
0.0
 11
-132.0
 21
48.827239990200013
 31
0.0
  0
LINE
  5
22F
  8
LAYER1$C$L1
 62
     3
 10
-133.17273375159991
 20
47.335275429399999
 30
0.0
 11
-132.0003510148
 21
47.932634213900002
 31
0.0
  0
LINE
  5
230
  8
LAYER1$C$L1
 62
     3
 10
-121.5
 20
45.500091552699999
 30
0.0
 11
-141.0
 21
45.500091552699999
 31
0.0
  0
LINE
  5
231
  8
LAYER1$C$L1
 62
     3
 10
-135.10009765629999
 20
67.200057983400001
 30
0.0
 11
-123.60009765629999
 21
67.200057983400001
 31
0.0
  0
LINE
  5
232
  8
LAYER1$C$L1
 62
     3
 10
-135.10009765629999
 20
70.999984741199995
 30
0.0
 11
-123.60009765629999
 21
70.999984741199995
 31
0.0
  0
LINE
  5
233
  8
LAYER1$C$L1
 62
     3
 10
-134.70007324220001
 20
67.600082397500003
 30
0.0
 11
-124.0
 21
67.600082397500003
 31
0.0
  0
LINE
  5
234
  8
LAYER1$C$L1
 62
     3
 10
-134.70007324220001
 20
70.600082397500003
 30
0.0
 11
-124.0
 21
70.600082397500003
 31
0.0
  0
LINE
  5
235
  8
LAYER1$C$L1
 62
     3
 10
-123.60009765629999
 20
67.200057983400001
 30
0.0
 11
-123.60009765629999
 21
70.999984741199995
 31
0.0
  0
LINE
  5
236
  8
LAYER1$C$L1
 62
     3
 10
-135.10009765629999
 20
67.200057983400001
 30
0.0
 11
-135.10009765629999
 21
70.999984741199995
 31
0.0
  0
LINE
  5
237
  8
LAYER1$C$L1
 62
     3
 10
-134.70007324220001
 20
67.600082397500003
 30
0.0
 11
-134.70007324220001
 21
70.600082397500003
 31
0.0
  0
LINE
  5
238
  8
LAYER1$C$L1
 62
     3
 10
-124.0
 20
67.600082397500003
 30
0.0
 11
-124.0
 21
70.600082397500003
 31
0.0
  0
LINE
  5
239
  8
LAYER1$C$L1
 62
     3
 10
-135.1002815274999
 20
71.000366691899998
 30
0.0
 11
-134.70028973459989
 21
70.6003748989
 31
0.0
  0
LINE
  5
23A
  8
LAYER1$C$L1
 62
     3
 10
-135.10039643650001
 20
67.200366721299986
 30
0.0
 11
-134.70031785459989
 21
67.600444358900006
 31
0.0
  0
LINE
  5
23B
  8
LAYER1$C$L1
 62
     3
 10
-124.000293481
 20
67.600350134999999
 30
0.0
 11
-123.6003016879999
 21
67.200358342000001
 31
0.0
  0
LINE
  5
23C
  8
LAYER1$C$L1
 62
     3
 10
-124.00045232459991
 20
70.6003472501
 30
0.0
 11
-123.6003746870999
 21
71.000425832000005
 31
0.0
  0
LINE
  5
23D
  8
LAYER1$C$L1
 62
     3
 10
-141.4999847412
 20
70.700057983400001
 30
0.0
 11
-135.4000244140999
 21
70.700057983400001
 31
0.0
  0
LINE
  5
23E
  8
LAYER1$C$L1
 62
     3
 10
-135.4000244140999
 20
70.700057983400001
 30
0.0
 11
-135.4000244140999
 21
72.499969482400004
 31
0.0
  0
LINE
  5
23F
  8
LAYER1$C$L1
 62
     3
 10
-135.40060320399999
 20
72.50032477149999
 30
0.0
 11
-132.0006065945999
 21
79.173194466599995
 31
0.0
  0
LINE
  5
240
  8
LAYER1$C$L1
 62
     3
 10
-132.9000244140999
 20
81.800018310500008
 30
0.0
 11
-130.66149902340001
 21
81.800018310500008
 31
0.0
  0
LINE
  5
241
  8
LAYER1$C$L1
 62
     3
 10
-132.0
 20
79.172821044900004
 30
0.0
 11
-132.0
 21
80.067962646499993
 31
0.0
  0
LINE
  5
242
  8
LAYER1$C$L1
 62
     3
 10
-132.00058060270001
 20
80.068356930200011
 30
0.0
 11
-133.17296333949989
 21
80.665715714699985
 31
0.0
  0
LINE
  5
243
  8
LAYER1$C$L1
 62
     3
 10
-141.0
 20
82.499969482400004
 30
0.0
 11
-121.5
 21
82.499969482400004
 31
0.0
  0
LINE
  5
244
  8
LAYER1$C$L1
 62
     3
 10
-130.6618941820999
 20
46.200607093099997
 30
0.0
 11
-121.5003631788999
 21
50.868639854299992
 31
0.0
  0
LINE
  5
245
  8
LAYER1$C$L1
 62
     3
 10
-129.8329892321
 20
45.500629019999991
 30
0.0
 11
-121.5003596887999
 21
49.746315432099998
 31
0.0
  0
LINE
  5
246
  8
LAYER1$C$L1
 62
     3
 10
-121.5006551128
 20
77.132228928700002
 30
0.0
 11
-130.6621861161
 21
81.800261689899997
 31
0.0
  0
LINE
  5
247
  8
LAYER1$C$L1
 62
     3
 10
-121.50065162280001
 20
78.254553350799995
 30
0.0
 11
-129.83328116609999
 21
82.500239762999996
 31
0.0
  0
LINE
  5
248
  8
LAYER1$C$L1
 62
     3
 10
-140.70007324220001
 20
60.600128173800002
 30
0.0
 11
-141.4999847412
 21
60.600128173800002
 31
0.0
  0
LINE
  5
249
  8
LAYER1$C$L1
 62
     3
 10
-140.70007324220001
 20
57.900054931599989
 30
0.0
 11
-141.4999847412
 21
57.900054931599989
 31
0.0
  0
LINE
  5
24A
  8
LAYER1$C$L1
 62
     3
 10
-140.70007324220001
 20
57.900054931599989
 30
0.0
 11
-140.70007324220001
 21
60.600128173800002
 31
0.0
  0
LINE
  5
24B
  8
LAYER1$C$L1
 62
     3
 10
-141.4999847412
 20
67.400009155299998
 30
0.0
 11
-140.70007324220001
 21
67.400009155299998
 31
0.0
  0
LINE
  5
24C
  8
LAYER1$C$L1
 62
     3
 10
-141.4999847412
 20
70.099960327100007
 30
0.0
 11
-140.70007324220001
 21
70.099960327100007
 31
0.0
  0
LINE
  5
24D
  8
LAYER1$C$L1
 62
     3
 10
-140.70007324220001
 20
67.400009155299998
 30
0.0
 11
-140.70007324220001
 21
70.099960327100007
 31
0.0
  0
LINE
  5
24E
  8
LAYER1$C$L1
 62
     3
 10
-130.662109375
 20
81.800018310500008
 30
0.0
 11
-130.662109375
 21
82.499969482400004
 31
0.0
  0
LINE
  5
24F
  8
LAYER1$C$L1
 62
     3
 10
-130.6617431640999
 20
45.500091552699999
 30
0.0
 11
-130.6617431640999
 21
46.200531005899997
 31
0.0
  0
LINE
  5
250
  8
LAYER1$C$L1
 62
     3
 10
-139.42521667479991
 20
53.999786377
 30
0.0
 11
-141.5
 21
53.999786377
 31
0.0
  0
LINE
  5
251
  8
LAYER1$C$L1
 62
     3
 10
-141.5
 20
46.000167846700002
 30
0.0
 11
-141.5
 21
82.000167846699995
 31
0.0
  0
LINE
  5
252
  8
LAYER1$C$L1
 62
     3
 10
-135.43871602909999
 20
56.031674258999999
 30
0.0
 11
-139.42551343299999
 21
54.000299711799997
 31
0.0
  0
LINE
  5
253
  8
LAYER1$C$L1
 62
     3
 10
-138.58978271480001
 20
51.099807739300012
 30
0.0
 11
-141.5
 21
51.099807739300012
 31
0.0
  0
LINE
  5
254
  8
LAYER1$C$L1
 62
     3
 10
-136.0
 20
57.299835205100003
 30
0.0
 11
-141.5
 21
57.299835205100003
 31
0.0
  0
LINE
  5
255
  8
LAYER1$C$L1
 62
     3
 10
-136.10000610349991
 20
57.199859619099989
 30
0.0
 11
-141.5
 21
57.199859619099989
 31
0.0
  0
LINE
  5
256
  8
LAYER1$C$L1
 62
     3
 10
-141.5
 20
73.999725341800001
 30
0.0
 11
-139.42521667479991
 21
73.999725341800001
 31
0.0
  0
LINE
  5
257
  8
LAYER1$C$L1
 62
     3
 10
-141.5
 20
76.899749755900004
 30
0.0
 11
-138.5898895263999
 21
76.899749755900004
 31
0.0
  0
LINE
  5
258
  8
LAYER1$C$L1
 62
     3
 10
-141.5
 20
70.699813842799998
 30
0.0
 11
-136.0000152588
 21
70.699813842799998
 31
0.0
  0
LINE
  5
259
  8
LAYER1$C$L1
 62
     3
 10
-141.5
 20
70.799789428699995
 30
0.0
 11
-136.10000610349991
 21
70.799789428699995
 31
0.0
  0
LINE
  5
25A
  8
LAYER1$C$L1
 62
     3
 10
-140.70007324220001
 20
60.599884033199999
 30
0.0
 11
-141.5
 21
60.599884033199999
 31
0.0
  0
LINE
  5
25B
  8
LAYER1$C$L1
 62
     3
 10
-140.70007324220001
 20
67.399765014600007
 30
0.0
 11
-141.5
 21
67.399765014600007
 31
0.0
  0
LINE
  5
25C
  8
LAYER1$C$L1
 62
     3
 10
-140.70007324220001
 20
57.899810791000007
 30
0.0
 11
-141.5
 21
57.899810791000007
 31
0.0
  0
LINE
  5
25D
  8
LAYER1$C$L1
 62
     3
 10
-140.70007324220001
 20
70.099838256799998
 30
0.0
 11
-141.5
 21
70.099838256799998
 31
0.0
  0
LINE
  5
25E
  8
LAYER1$C$L1
 62
     3
 10
-136.10000610349991
 20
55.69448852539999
 30
0.0
 11
-136.10000610349991
 21
57.199859619099989
 31
0.0
  0
LINE
  5
25F
  8
LAYER1$C$L1
 62
     3
 10
-136.10000610349991
 20
70.799789428699995
 30
0.0
 11
-136.10000610349991
 21
72.305145263699998
 31
0.0
  0
LINE
  5
260
  8
LAYER1$C$L1
 62
     3
 10
-139.42553472930001
 20
73.999419708999994
 30
0.0
 11
-135.4387101339999
 21
71.968031307100006
 31
0.0
  0
LINE
  5
261
  8
LAYER1$C$L1
 62
     3
 10
-135.40003967289999
 20
56.099899292000003
 30
0.0
 11
-136.10002136229991
 21
56.099899292000003
 31
0.0
  0
LINE
  5
262
  8
LAYER1$C$L1
 62
     3
 10
-136.10002136229991
 20
71.899810790999993
 30
0.0
 11
-135.40003967289999
 21
71.899810790999993
 31
0.0
  0
LINE
  5
263
  8
LAYER1$C$L1
 62
     3
 10
-140.70008850100001
 20
60.999801635699988
 30
0.0
 11
-140.70008850100001
 21
66.999801635699995
 31
0.0
  0
LINE
  5
264
  8
LAYER1$C$L1
 62
     3
 10
-135.70008850100001
 20
57.999801635699988
 30
0.0
 11
-137.70008850100001
 21
57.999801635699988
 31
0.0
  0
LINE
  5
265
  8
LAYER1$C$L1
 62
     3
 10
-135.70008850100001
 20
69.999786376999992
 30
0.0
 11
-137.70008850100001
 21
69.999786376999992
 31
0.0
  0
LINE
  5
266
  8
LAYER1$C$L1
 62
     3
 10
-138.20008850100001
 20
60.999801635699988
 30
0.0
 11
-138.20008850100001
 21
66.999801635699995
 31
0.0
  0
LINE
  5
267
  8
LAYER1$C$L1
 62
     3
 10
-137.70008850100001
 20
57.999801635699988
 30
0.0
 11
-137.70008850100001
 21
69.999786376999992
 31
0.0
  0
LINE
  5
268
  8
LAYER1$C$L1
 62
     3
 10
-135.70008850100001
 20
57.999801635699988
 30
0.0
 11
-135.70008850100001
 21
69.999786376999992
 31
0.0
  0
LINE
  5
269
  8
LAYER1$C$L1
 62
     3
 10
-138.20008850100001
 20
66.999801635699995
 30
0.0
 11
-140.70008850100001
 21
66.999801635699995
 31
0.0
  0
LINE
  5
26A
  8
LAYER1$C$L1
 62
     3
 10
-138.20008850100001
 20
60.999801635699988
 30
0.0
 11
-140.70008850100001
 21
60.999801635699988
 31
0.0
  0
LINE
  5
26B
  8
LAYER1$C$L1
 62
     3
 10
-139.1800689696999
 20
61.3223114014
 30
0.0
 11
-139.65257263180001
 21
61.3223114014
 31
0.0
  0
LINE
  5
26C
  8
LAYER1$C$L1
 62
     3
 10
-138.64006042479991
 20
66.677413940400001
 30
0.0
 11
-138.84255981449999
 21
66.677413940400001
 31
0.0
  0
LINE
  5
26D
  8
LAYER1$C$L1
 62
     3
 10
-140.32756042479991
 20
66.609909057600007
 30
0.0
 11
-140.32756042479991
 21
66.114913940400001
 31
0.0
  0
LINE
  5
26E
  8
LAYER1$C$L1
 62
     3
 10
-138.57257080080001
 20
66.609909057600007
 30
0.0
 11
-138.57257080080001
 21
66.114913940400001
 31
0.0
  0
LINE
  5
26F
  8
LAYER1$C$L1
 62
     3
 10
-138.64006042479991
 20
66.047409057600007
 30
0.0
 11
-138.84255981449999
 21
66.047409057600007
 31
0.0
  0
LINE
  5
270
  8
LAYER1$C$L1
 62
     3
 10
-138.97756958010001
 20
66.677413940400001
 30
0.0
 11
-138.97756958010001
 21
66.047409057600007
 31
0.0
  0
LINE
  5
271
  8
LAYER1$C$L1
 62
     3
 10
-138.84255981449999
 20
66.677413940400001
 30
0.0
 11
-138.84255981449999
 21
66.047409057600007
 31
0.0
  0
LINE
  5
272
  8
LAYER1$C$L1
 62
     3
 10
-138.97756958010001
 20
65.529830932600007
 30
0.0
 11
-138.97756958010001
 21
65.2373504639
 31
0.0
  0
LINE
  5
273
  8
LAYER1$C$L1
 62
     3
 10
-140.32756042479991
 20
65.529830932600007
 30
0.0
 11
-140.32756042479991
 21
64.539840698199995
 31
0.0
  0
LINE
  5
274
  8
LAYER1$C$L1
 62
     3
 10
-138.57257080080001
 20
65.034835815400001
 30
0.0
 11
-138.57257080080001
 21
64.539840698199995
 31
0.0
  0
LINE
  5
275
  8
LAYER1$C$L1
 62
     3
 10
-138.97756958010001
 20
66.047409057600007
 30
0.0
 11
-140.26007080080001
 21
66.047409057600007
 31
0.0
  0
LINE
  5
276
  8
LAYER1$C$L1
 62
     3
 10
-138.97756958010001
 20
66.677413940400001
 30
0.0
 11
-140.26007080080001
 21
66.677413940400001
 31
0.0
  0
LINE
  5
277
  8
LAYER1$C$L1
 62
     3
 10
-139.3150634765999
 20
65.867355346699995
 30
0.0
 11
-139.99006652829991
 21
65.867355346699995
 31
0.0
  0
LINE
  5
278
  8
LAYER1$C$L1
 62
     3
 10
-138.97756958010001
 20
65.2373504639
 30
0.0
 11
-139.65257263180001
 21
65.2373504639
 31
0.0
  0
LINE
  5
279
  8
LAYER1$C$L1
 62
     3
 10
-138.64006042479991
 20
65.102340698199995
 30
0.0
 11
-139.65257263180001
 21
65.102340698199995
 31
0.0
  0
LINE
  5
27A
  8
LAYER1$C$L1
 62
     3
 10
-139.65257263180001
 20
65.2373504639
 30
0.0
 11
-139.65257263180001
 21
65.102340698199995
 31
0.0
  0
LINE
  5
27B
  8
LAYER1$C$L1
 62
     3
 10
-138.64006042479991
 20
64.472335815400001
 30
0.0
 11
-140.26007080080001
 21
64.472335815400001
 31
0.0
  0
LINE
  5
27C
  8
LAYER1$C$L1
 62
     3
 10
-139.4500579834
 20
64.292404174799984
 30
0.0
 11
-139.99006652829991
 21
64.292404174799984
 31
0.0
  0
LINE
  5
27D
  8
LAYER1$C$L1
 62
     3
 10
-139.11256408689999
 20
63.954879760700003
 30
0.0
 11
-139.11256408689999
 21
62.919845581099999
 31
0.0
  0
LINE
  5
27E
  8
LAYER1$C$L1
 62
     3
 10
-139.11256408689999
 20
62.334884643599999
 30
0.0
 11
-139.11256408689999
 21
61.389816284200002
 31
0.0
  0
LINE
  5
27F
  8
LAYER1$C$L1
 62
     3
 10
-139.1800689696999
 20
62.852340698199988
 30
0.0
 11
-139.78756713870001
 21
62.852340698199988
 31
0.0
  0
LINE
  5
280
  8
LAYER1$C$L1
 62
     3
 10
-140.32756042479991
 20
63.954879760700003
 30
0.0
 11
-140.32756042479991
 21
62.919845581099999
 31
0.0
  0
LINE
  5
281
  8
LAYER1$C$L1
 62
     3
 10
-139.9225616455
 20
63.617355346700002
 30
0.0
 11
-139.9225616455
 21
62.852340698199988
 31
0.0
  0
LINE
  5
282
  8
LAYER1$C$L1
 62
     3
 10
-139.78756713870001
 20
63.482345581099999
 30
0.0
 11
-139.78756713870001
 21
62.852340698199988
 31
0.0
  0
LINE
  5
283
  8
LAYER1$C$L1
 62
     3
 10
-139.42756652829991
 20
63.617355346700002
 30
0.0
 11
-139.42756652829991
 21
63.482345581099999
 31
0.0
  0
LINE
  5
284
  8
LAYER1$C$L1
 62
     3
 10
-139.42756652829991
 20
63.617355346700002
 30
0.0
 11
-139.9225616455
 21
63.617355346700002
 31
0.0
  0
LINE
  5
285
  8
LAYER1$C$L1
 62
     3
 10
-139.42756652829991
 20
63.482345581099999
 30
0.0
 11
-139.78756713870001
 21
63.482345581099999
 31
0.0
  0
LINE
  5
286
  8
LAYER1$C$L1
 62
     3
 10
-139.9225616455
 20
62.852340698199988
 30
0.0
 11
-140.26007080080001
 21
62.852340698199988
 31
0.0
  0
LINE
  5
287
  8
LAYER1$C$L1
 62
     3
 10
-139.4500579834
 20
62.672409057599999
 30
0.0
 11
-139.99006652829991
 21
62.672409057599999
 31
0.0
  0
LINE
  5
288
  8
LAYER1$C$L1
 62
     3
 10
-140.32756042479991
 20
62.334884643599999
 30
0.0
 11
-140.32756042479991
 21
61.389816284200002
 31
0.0
  0
LINE
  5
289
  8
LAYER1$C$L1
 62
     3
 10
-139.78756713870001
 20
62.357345581099992
 30
0.0
 11
-139.78756713870001
 21
61.3223114014
 31
0.0
  0
LINE
  5
28A
  8
LAYER1$C$L1
 62
     3
 10
-139.65257263180001
 20
62.357345581099992
 30
0.0
 11
-139.65257263180001
 21
61.3223114014
 31
0.0
  0
LINE
  5
28B
  8
LAYER1$C$L1
 62
     3
 10
-139.78756713870001
 20
61.3223114014
 30
0.0
 11
-140.26007080080001
 21
61.3223114014
 31
0.0
  0
LINE
  5
28C
  8
LAYER1$C$L1
 62
     3
 10
-139.65257263180001
 20
62.357345581099992
 30
0.0
 11
-139.78756713870001
 21
62.357345581099992
 31
0.0
  0
LINE
  5
28D
  8
LAYER1$C$L1
 62
     3
 10
-133.3867325283999
 20
47.363240326800003
 30
0.0
 11
-132.31756819939989
 21
47.908006710599999
 31
0.0
  0
LINE
  5
28E
  8
LAYER1$C$L1
 62
     3
 10
-133.3867325283999
 20
47.363240326800003
 30
0.0
 11
-137.01864234920001
 21
54.491265370100002
 31
0.0
  0
LINE
  5
28F
  8
LAYER1$C$L1
 62
     3
 10
-137.01864234920001
 20
54.491265370100002
 30
0.0
 11
-135.94947802019999
 21
55.036031753900012
 31
0.0
  0
LINE
  5
290
  8
LAYER1$C$L1
 62
     3
 10
-137.50449584919991
 20
53.68254757039999
 30
0.0
 11
-134.32657648770001
 21
47.445529056399998
 31
0.0
  0
LINE
  5
291
  8
LAYER1$C$L1
 62
     3
 10
-137.5045348962999
 20
53.682539965399997
 30
0.0
 11
-138.3676971255999
 21
53.1431763975
 31
0.0
  0
LINE
  5
292
  8
LAYER1$C$L1
 62
     3
 10
-135.27021341170001
 20
47.064323576899987
 30
0.0
 11
-134.3265474712
 21
47.44558937659999
 31
0.0
  0
LINE
  5
293
  8
LAYER1$C$L1
 62
     3
 10
-135.73397187820001
 20
50.207562207800002
 30
0.0
 11
-134.65796726670001
 21
49.857947183199997
 31
0.0
  0
LINE
  5
294
  8
LAYER1$C$L1
 62
     3
 10
-135.2027737857
 20
50.9271424999
 30
0.0
 11
-136.27876388510001
 21
51.2767528093
 31
0.0
  0
LINE
  5
295
  8
LAYER1$C$L1
 62
     3
 10
-133.12053869819991
 20
50.585269896
 30
0.0
 11
-133.56604196279989
 21
50.358274666299991
 31
0.0
  0
LINE
  5
296
  8
LAYER1$C$L1
 62
     3
 10
-134.25550099209991
 20
52.812759028000002
 30
0.0
 11
-134.70100425669989
 21
52.5857637983
 31
0.0
  0
LINE
  5
297
  8
LAYER1$C$L1
 62
     3
 10
-133.12053869819991
 20
50.585269896
 30
0.0
 11
-134.25550099209991
 21
52.812759028000002
 31
0.0
  0
LINE
  5
298
  8
LAYER1$C$L1
 62
     3
 10
-134.1897030271999
 20
50.040503512199997
 30
0.0
 11
-134.63520629179999
 21
49.813508282500003
 31
0.0
  0
LINE
  5
299
  8
LAYER1$C$L1
 62
     3
 10
-135.32466532110001
 20
52.2679926442
 30
0.0
 11
-135.77016858579989
 21
52.040997414400003
 31
0.0
  0
LINE
  5
29A
  8
LAYER1$C$L1
 62
     3
 10
-135.32466532110001
 20
52.2679926442
 30
0.0
 11
-134.1897030271999
 21
50.040503512199997
 31
0.0
  0
LINE
  5
29B
  8
LAYER1$C$L1
 62
     3
 10
-137.96480890969991
 20
49.519769667399999
 30
0.0
 11
-137.91247294699991
 21
50.518399177799999
 31
0.0
  0
LINE
  5
29C
  8
LAYER1$C$L1
 62
     3
 10
-137.96487990009999
 20
49.519753154599996
 30
0.0
 11
-136.28753867739991
 21
48.430475171899992
 31
0.0
  0
LINE
  5
29D
  8
LAYER1$C$L1
 62
     3
 10
-132.76481120849991
 20
47.904655673000001
 30
0.0
 11
-132.2302288294
 21
48.1770384358
 31
0.0
  0
LINE
  5
29E
  8
LAYER1$C$L1
 62
     3
 10
-136.21510142060001
 20
54.676296035199996
 30
0.0
 11
-135.68051968529991
 21
54.948680085399999
 31
0.0
  0
LINE
  5
29F
  8
LAYER1$C$L1
 62
     3
 10
-133.38677710330001
 20
47.363224108799997
 30
0.0
 11
-133.1440372651
 21
47.640518075299987
 31
0.0
  0
LINE
  5
2A0
  8
LAYER1$C$L1
 62
     3
 10
-133.14036389930001
 20
47.899493369699996
 30
0.0
 11
-134.49914751459991
 21
49.546142212600003
 31
0.0
  0
LINE
  5
2A1
  8
LAYER1$C$L1
 62
     3
 10
-132.31759786730001
 20
47.907990331299992
 30
0.0
 11
-132.07485802909989
 21
48.185284297799988
 31
0.0
  0
LINE
  5
2A2
  8
LAYER1$C$L1
 62
     3
 10
-132.07109207109991
 20
48.444336854100001
 30
0.0
 11
-133.42987568629999
 21
50.090985697000001
 31
0.0
  0
LINE
  5
2A3
  8
LAYER1$C$L1
 62
     3
 10
-133.4298365121999
 20
50.090956392700001
 30
0.0
 11
-133.56604196279989
 21
50.358274666299991
 31
0.0
  0
LINE
  5
2A4
  8
LAYER1$C$L1
 62
     3
 10
-135.9063431882999
 20
52.308303189499988
 30
0.0
 11
-136.4398370815
 21
54.375458159499999
 31
0.0
  0
LINE
  5
2A5
  8
LAYER1$C$L1
 62
     3
 10
-136.65168663610001
 20
54.5246078658
 30
0.0
 11
-137.01868585379989
 21
54.491217918300002
 31
0.0
  0
LINE
  5
2A6
  8
LAYER1$C$L1
 62
     3
 10
-135.94948394529999
 20
55.036014420900003
 30
0.0
 11
-135.58246953150001
 21
55.069405750900003
 31
0.0
  0
LINE
  5
2A7
  8
LAYER1$C$L1
 62
     3
 10
-135.37062823439999
 20
54.920213832100004
 30
0.0
 11
-134.8371419673
 21
52.853088411400002
 31
0.0
  0
LINE
  5
2A8
  8
LAYER1$C$L1
 62
     3
 10
-134.83720970740001
 20
52.853082071899991
 30
0.0
 11
-134.70100425669989
 21
52.5857637983
 31
0.0
  0
LINE
  5
2A9
  8
LAYER1$C$L1
 62
     3
 10
-137.25480663830001
 20
53.192504855799989
 30
0.0
 11
-136.5419579087
 21
53.5557193908
 31
0.0
  0
LINE
  5
2AA
  8
LAYER1$C$L1
 62
     3
 10
-134.57626569859991
 20
47.935571771000014
 30
0.0
 11
-133.8634169689
 21
48.298786306099998
 31
0.0
  0
LINE
  5
2AB
  8
LAYER1$C$L1
 62
     3
 10
-132.3176136639
 20
80.092068601700007
 30
0.0
 11
-133.38677799289999
 21
80.636834985500002
 31
0.0
  0
LINE
  5
2AC
  8
LAYER1$C$L1
 62
     3
 10
-137.0187016685
 20
73.508782750899996
 30
0.0
 11
-133.38677799289999
 21
80.636834985500002
 31
0.0
  0
LINE
  5
2AD
  8
LAYER1$C$L1
 62
     3
 10
-135.9495373394
 20
72.964016366999999
 30
0.0
 11
-137.0187016685
 21
73.508782750899996
 31
0.0
  0
LINE
  5
2AE
  8
LAYER1$C$L1
 62
     3
 10
-134.3266219523
 20
80.554546255899993
 30
0.0
 11
-137.5045551684
 21
74.317500550600002
 31
0.0
  0
LINE
  5
2AF
  8
LAYER1$C$L1
 62
     3
 10
-138.36770926119999
 20
74.856867283
 30
0.0
 11
-137.504547032
 21
74.317503715000001
 31
0.0
  0
LINE
  5
2B0
  8
LAYER1$C$L1
 62
     3
 10
-134.32662964179991
 20
80.554415268400007
 30
0.0
 11
-135.27028143459989
 21
80.935675352100006
 31
0.0
  0
LINE
  5
2B1
  8
LAYER1$C$L1
 62
     3
 10
-134.65793978790001
 20
78.1420193326
 30
0.0
 11
-135.7339298874
 21
77.792409023199994
 31
0.0
  0
LINE
  5
2B2
  8
LAYER1$C$L1
 62
     3
 10
-136.27873132479991
 20
76.723247445699997
 30
0.0
 11
-135.2027412253
 21
77.072857755100003
 31
0.0
  0
LINE
  5
2B3
  8
LAYER1$C$L1
 62
     3
 10
-133.56608742739991
 20
77.641800646000007
 30
0.0
 11
-133.1205841627
 21
77.414805416299998
 31
0.0
  0
LINE
  5
2B4
  8
LAYER1$C$L1
 62
     3
 10
-134.701063576
 20
75.414284322699999
 30
0.0
 11
-134.2555603113
 21
75.187289093000004
 31
0.0
  0
LINE
  5
2B5
  8
LAYER1$C$L1
 62
     3
 10
-134.2555603113
 20
75.187289093000004
 30
0.0
 11
-133.1205841627
 21
77.414805416299998
 31
0.0
  0
LINE
  5
2B6
  8
LAYER1$C$L1
 62
     3
 10
-134.6352517563999
 20
78.186567029900004
 30
0.0
 11
-134.18974849169999
 21
77.959571800100008
 31
0.0
  0
LINE
  5
2B7
  8
LAYER1$C$L1
 62
     3
 10
-135.77022790500001
 20
75.959050706499994
 30
0.0
 11
-135.32472464029999
 21
75.732055476799999
 31
0.0
  0
LINE
  5
2B8
  8
LAYER1$C$L1
 62
     3
 10
-134.18974849169999
 20
77.959571800100008
 30
0.0
 11
-135.32472464029999
 21
75.732055476799999
 31
0.0
  0
LINE
  5
2B9
  8
LAYER1$C$L1
 62
     3
 10
-137.912449815
 20
77.4814812969
 30
0.0
 11
-137.96478577769989
 21
78.480110807299994
 31
0.0
  0
LINE
  5
2BA
  8
LAYER1$C$L1
 62
     3
 10
-136.2875674329
 20
79.569600362499983
 30
0.0
 11
-137.9649086556999
 21
78.4803223798
 31
0.0
  0
LINE
  5
2BB
  8
LAYER1$C$L1
 62
     3
 10
-132.23024208109999
 20
79.823064933599994
 30
0.0
 11
-132.7648244602
 21
80.095447696399987
 31
0.0
  0
LINE
  5
2BC
  8
LAYER1$C$L1
 62
     3
 10
-135.68057796459999
 20
73.051339574599993
 30
0.0
 11
-136.2151596999999
 21
73.323723624799996
 31
0.0
  0
LINE
  5
2BD
  8
LAYER1$C$L1
 62
     3
 10
-133.14410330870001
 20
80.359555683899984
 30
0.0
 11
-133.38684314700001
 21
80.636849650499997
 31
0.0
  0
LINE
  5
2BE
  8
LAYER1$C$L1
 62
     3
 10
-134.49919562010001
 20
78.453903258699995
 30
0.0
 11
-133.1404120048
 21
80.100552101600002
 31
0.0
  0
LINE
  5
2BF
  8
LAYER1$C$L1
 62
     3
 10
-132.07491259150001
 20
79.814799511899992
 30
0.0
 11
-132.3176524296999
 21
80.092093478400002
 31
0.0
  0
LINE
  5
2C0
  8
LAYER1$C$L1
 62
     3
 10
-133.429884945
 20
77.909106851000004
 30
0.0
 11
-132.0711013296999
 21
79.555755693899997
 31
0.0
  0
LINE
  5
2C1
  8
LAYER1$C$L1
 62
     3
 10
-133.56608742739991
 20
77.641800646000007
 30
0.0
 11
-133.4299235407999
 21
77.909037345599998
 31
0.0
  0
LINE
  5
2C2
  8
LAYER1$C$L1
 62
     3
 10
-136.43987425700001
 20
73.624518027400001
 30
0.0
 11
-135.9063765507
 21
75.691687772099996
 31
0.0
  0
LINE
  5
2C3
  8
LAYER1$C$L1
 62
     3
 10
-137.0186955255999
 20
73.508758442299992
 30
0.0
 11
-136.65169630790001
 21
73.475368494799994
 31
0.0
  0
LINE
  5
2C4
  8
LAYER1$C$L1
 62
     3
 10
-135.5824792034
 20
72.930570609699984
 30
0.0
 11
-135.9494936170999
 21
72.963961939699999
 31
0.0
  0
LINE
  5
2C5
  8
LAYER1$C$L1
 62
     3
 10
-134.8371600774
 20
75.146961648900003
 30
0.0
 11
-135.37065778370001
 21
73.079791904200007
 31
0.0
  0
LINE
  5
2C6
  8
LAYER1$C$L1
 62
     3
 10
-134.701063576
 20
75.414284322699999
 30
0.0
 11
-134.8372828812999
 21
75.146938857699993
 31
0.0
  0
LINE
  5
2C7
  8
LAYER1$C$L1
 62
     3
 10
-121.5
 20
45.500076293900001
 30
0.0
 11
-121.5
 21
82.49989318850001
 31
0.0
  0
LINE
  5
2C8
  8
LAYER1$C$L1
 62
     3
 10
-131.39953613279991
 20
116.0998840331999
 30
0.0
 11
-132.59954833980001
 21
116.0998840331999
 31
0.0
  0
ARC
  5
2C9
  8
LAYER1$C$L1
 62
     3
 10
-107.9999847412
 20
81.499984741199995
 30
0.0
 40
0.5
 50
0.0
 51
89.999927372399995
  0
ARC
  5
2CA
  8
LAYER1$C$L1
 62
     3
 10
-107.9999847412
 20
81.999984741199995
 30
0.0
 40
0.5
 50
0.0
 51
89.999927372399995
  0
ARC
  5
2CB
  8
LAYER1$C$L1
 62
     3
 10
-106.9999847412
 20
75.499984741199995
 30
0.0
 40
0.5
 50
179.9999093863
 51
269.9999460416999
  0
ARC
  5
2CC
  8
LAYER1$C$L1
 62
     3
 10
-108.0
 20
46.499984741200002
 30
0.0
 40
0.5
 50
270.00007262759988
 51
0.0
  0
ARC
  5
2CD
  8
LAYER1$C$L1
 62
     3
 10
-108.0
 20
45.999984741200002
 30
0.0
 40
0.5
 50
270.00007262759988
 51
0.0
  0
ARC
  5
2CE
  8
LAYER1$C$L1
 62
     3
 10
-107.0
 20
52.499984741200002
 30
0.0
 40
0.5
 50
89.999927372399995
 51
179.9999640277999
  0
ARC
  5
2CF
  8
LAYER1$C$L1
 62
     3
 10
-106.9999847412
 20
135.49999999999989
 30
0.0
 40
0.5
 50
179.9999093863
 51
269.9999460416999
  0
ARC
  5
2D0
  8
LAYER1$C$L1
 62
     3
 10
-107.9999847412
 20
138.2999877929999
 30
0.0
 40
0.5
 50
0.0
 51
89.999927372399995
  0
ARC
  5
2D1
  8
LAYER1$C$L1
 62
     3
 10
-101.3000030518
 20
124.0
 30
0.0
 40
1.0
 50
89.999927372399995
 51
179.9999093863
  0
ARC
  5
2D2
  8
LAYER1$C$L1
 62
     3
 10
-107.0
 20
112.5
 30
0.0
 40
0.5
 50
89.999927372399995
 51
179.9999640277999
  0
ARC
  5
2D3
  8
LAYER1$C$L1
 62
     3
 10
-108.0
 20
109.6999969482
 30
0.0
 40
0.5
 50
270.00007262759988
 51
0.0
  0
ARC
  5
2D4
  8
LAYER1$C$L1
 62
     3
 10
-101.3000030518
 20
124.0
 30
0.0
 40
1.0
 50
180.0000906137
 51
270.00007262759988
  0
ARC
  5
2D6
  8
LAYER1$C$L1
 62
     3
 10
-136.63345336910001
 20
73.674606323199995
 30
0.0
 40
0.1999999881
 50
264.80186153709991
 51
345.52899773379988
  0
ARC
  5
2D7
  8
LAYER1$C$L1
 62
     3
 10
-135.56423950199999
 20
73.129806518599992
 30
0.0
 40
0.1999999881
 50
264.80169761259992
 51
345.52905237530001
  0
ARC
  5
2D8
  8
LAYER1$C$L1
 62
     3
 10
-173.00001525879989
 20
124.6998138428
 30
0.0
 40
0.3000000119
 50
89.999982013899995
 51
179.9999640277999
  0
ARC
  5
2D9
  8
LAYER1$C$L1
 62
     3
 10
-173.00001525879989
 20
112.8000335692999
 30
0.0
 40
0.3000000119
 50
179.9999640277999
 51
270.00000068319991
  0
ARC
  5
2DA
  8
LAYER1$C$L1
 62
     3
 10
-175.5466003418
 20
126.99978637700001
 30
0.0
 40
1.0
 50
213.5379586839
 51
270.00023655209992
  0
ARC
  5
2DB
  8
LAYER1$C$L1
 62
     3
 10
-175.5466003418
 20
131.99978637699999
 30
0.0
 40
1.0
 50
89.999763447900008
 51
146.4620413161
  0
ARC
  5
2DC
  8
LAYER1$C$L1
 62
     3
 10
-171.77491760250001
 20
129.49978637699999
 30
0.0
 40
5.524999618499999
 50
146.4622598821999
 51
213.53772281499991
  0
ARC
  5
2DD
  8
LAYER1$C$L1
 62
     3
 10
-135.3041381836
 20
114.5012664795
 30
0.0
 40
3.2500324249000001
 50
255.83005289249991
 51
288.49518671120001
  0
ARC
  5
2DE
  8
LAYER1$C$L1
 62
     3
 10
-135.3041381836
 20
115.1989746094
 30
0.0
 40
3.2500247954999999
 50
71.506015402100005
 51
110.5385247727
  0
LINE
  5
2DF
  8
LAYER1$C$L1
 62
     3
 10
-136.91688329109991
 20
113.1357848799
 30
0.0
 11
-135.92723649739989
 21
114.84990369959991
 31
0.0
  0
LINE
  5
2E0
  8
LAYER1$C$L1
 62
     3
 10
-135.92718505859989
 20
114.8500213623
 30
0.0
 11
-136.33056640629991
 21
114.8500213623
 31
0.0
  0
LINE
  5
2E1
  8
LAYER1$C$L1
 62
     3
 10
-135.4997253418
 20
118.70007324219991
 30
0.0
 11
-135.4997253418
 21
118.44309997559991
 31
0.0
  0
LINE
  5
2E2
  8
LAYER1$C$L1
 62
     3
 10
-130.6611328125
 20
109.299911499
 30
0.0
 11
-130.6611328125
 21
118.700012207
 31
0.0
  0
LINE
  5
2E3
  8
LAYER1$C$L1
 62
     3
 10
-121.7999877929999
 20
109.29992675779999
 30
0.0
 11
-141.5
 21
109.29992675779999
 31
0.0
  0
LINE
  5
2E4
  8
LAYER1$C$L1
 62
     3
 10
-130.66110229489999
 20
110.59991455079999
 30
0.0
 11
-135.49966430660001
 21
110.59991455079999
 31
0.0
  0
LINE
  5
2E5
  8
LAYER1$C$L1
 62
     3
 10
-132.99966430660001
 20
110.5999755859
 30
0.0
 11
-132.99966430660001
 21
109.2999877929999
 31
0.0
  0
LINE
  5
2E6
  8
LAYER1$C$L1
 62
     3
 10
-130.66110229489999
 20
117.69989013670001
 30
0.0
 11
-121.49969482419991
 21
117.69989013670001
 31
0.0
  0
LINE
  5
2E7
  8
LAYER1$C$L1
 62
     3
 10
-139.42584228519991
 20
118.7000427245999
 30
0.0
 11
-139.42584228519991
 21
109.29997253419999
 31
0.0
  0
LINE
  5
2E8
  8
LAYER1$C$L1
 62
     3
 10
-134.50003051760001
 20
123.9998931885
 30
0.0
 11
-134.50003051760001
 21
122.9000091553
 31
0.0
  0
LINE
  5
2E9
  8
LAYER1$C$L1
 62
     3
 10
-141.5001831054999
 20
125.09996032710001
 30
0.0
 11
-129.80001831049989
 21
125.09996032710001
 31
0.0
  0
LINE
  5
2EA
  8
LAYER1$C$L1
 62
     3
 10
-126.50006103520001
 20
128.1999664306999
 30
0.0
 11
-126.50006103520001
 21
124.0
 31
0.0
  0
LINE
  5
2EB
  8
LAYER1$C$L1
 62
     3
 10
-126.5000305175999
 20
128.1999664306999
 30
0.0
 11
-141.50006103519991
 21
128.1999664306999
 31
0.0
  0
LINE
  5
2EC
  8
LAYER1$C$L1
 62
     3
 10
-126.5000305175999
 20
128.1999664306999
 30
0.0
 11
-126.5000305175999
 21
124.0
 31
0.0
  0
LINE
  5
2ED
  8
LAYER1$C$L1
 62
     3
 10
-129.80001831049989
 20
128.1999664306999
 30
0.0
 11
-129.80001831049989
 21
125.09996032710001
 31
0.0
  0
LINE
  5
2EE
  8
LAYER1$C$L1
 62
     3
 10
-121.80001831049999
 20
138.70004272459991
 30
0.0
 11
-141.5
 21
138.70004272459991
 31
0.0
  0
LINE
  5
2EF
  8
LAYER1$C$L1
 62
     3
 10
-121.5000305175999
 20
129.2999572754
 30
0.0
 11
-141.50003051760001
 21
129.2999572754
 31
0.0
  0
LINE
  5
2F0
  8
LAYER1$C$L1
 62
     3
 10
-131.39962768549989
 20
129.29997253420001
 30
0.0
 11
-131.39962768549989
 21
137.40007019039999
 31
0.0
  0
LINE
  5
2F1
  8
LAYER1$C$L1
 62
     3
 10
-133.09963989260001
 20
134.8999633789
 30
0.0
 11
-133.09963989260001
 21
135.14996337889991
 31
0.0
  0
LINE
  5
2F2
  8
LAYER1$C$L1
 62
     3
 10
-133.09966565319991
 20
131.15002453619999
 30
0.0
 11
-132.5996684399999
 21
129.3000344136
 31
0.0
  0
LINE
  5
2F3
  8
LAYER1$C$L1
 62
     3
 10
-132.49149358790001
 20
137.4000785497999
 30
0.0
 11
-133.09961882659991
 21
135.15001398579989
 31
0.0
  0
LINE
  5
2F4
  8
LAYER1$C$L1
 62
     3
 10
-131.4411885422999
 20
136.68691433669991
 30
0.0
 11
-131.94118564120001
 21
134.8369241
 31
0.0
  0
LINE
  5
2F5
  8
LAYER1$C$L1
 62
     3
 10
-131.9412325392999
 20
131.4631144935
 30
0.0
 11
-131.4412353262
 21
129.613124371
 31
0.0
  0
LINE
  5
2F6
  8
LAYER1$C$L1
 62
     3
 10
-131.9411315918
 20
131.90008544919991
 30
0.0
 11
-131.9411315918
 21
131.463180542
 31
0.0
  0
LINE
  5
2F7
  8
LAYER1$C$L1
 62
     3
 10
-131.39953613279991
 20
134.40007019039999
 30
0.0
 11
-132.59954833980001
 21
134.40007019039999
 31
0.0
  0
LINE
  5
2F8
  8
LAYER1$C$L1
 62
     3
 10
-131.39953613279991
 20
131.90008544919991
 30
0.0
 11
-132.59954833980001
 21
131.90008544919991
 31
0.0
  0
LINE
  5
2F9
  8
LAYER1$C$L1
 62
     3
 10
-131.9411315918
 20
134.83697509769991
 30
0.0
 11
-131.9411315918
 21
134.40007019039999
 31
0.0
  0
LINE
  5
2FA
  8
LAYER1$C$L1
 62
     3
 10
-133.09963989260001
 20
131.1499786377
 30
0.0
 11
-133.09963989260001
 21
131.3999786377
 31
0.0
  0
LINE
  5
2FB
  8
LAYER1$C$L1
 62
     3
 10
-132.59963989260001
 20
131.89997863769989
 30
0.0
 11
-132.59963989260001
 21
134.39996337889991
 31
0.0
  0
LINE
  5
2FC
  8
LAYER1$C$L1
 62
     3
 10
-137.05330394709989
 20
135.20188526679991
 30
0.0
 11
-136.15737662469991
 21
133.6500933605999
 31
0.0
  0
LINE
  5
2FD
  8
LAYER1$C$L1
 62
     3
 10
-137.32024666160001
 20
134.8642252704
 30
0.0
 11
-136.33059986799989
 21
133.15010645070001
 31
0.0
  0
LINE
  5
2FE
  8
LAYER1$C$L1
 62
     3
 10
-136.33062803449999
 20
133.1500518574999
 30
0.0
 11
-136.96964315610001
 21
132.04324501190001
 31
0.0
  0
LINE
  5
2FF
  8
LAYER1$C$L1
 62
     3
 10
-136.1574200501
 20
132.65003851860001
 30
0.0
 11
-136.8198955570999
 21
131.50259708659991
 31
0.0
  0
LINE
  5
300
  8
LAYER1$C$L1
 62
     3
 10
-135.28308277119999
 20
135.16443550209991
 30
0.0
 11
-136.1574189095999
 21
133.6500406298
 31
0.0
  0
LINE
  5
301
  8
LAYER1$C$L1
 62
     3
 10
-135.05836675340001
 20
134.35367327579991
 30
0.0
 11
-135.7532748127
 21
133.15005700579999
 31
0.0
  0
LINE
  5
302
  8
LAYER1$C$L1
 62
     3
 10
-136.15737548429999
 20
132.6500912493
 30
0.0
 11
-135.2170298321999
 21
131.02136452619999
 31
0.0
  0
ARC
  5
303
  8
LAYER1$C$L1
 62
     3
 10
-132.59976196289989
 20
113.1001129149999
 30
0.0
 40
0.5
 50
89.999927372399995
 51
179.99985474479999
  0
TEXT
  5
304
  8
LAYER8$C$L8
 62
     3
 10
-116.4999847412
 20
137.81665414179989
 30
0.0
 40
3.5
  1
TW
 50
270.0
 41
0.9333343142285741
 72
     5
 11
-116.4999847412
 21
131.2833139421999
 31
0.0
  0
LINE
  5
305
  8
LAYER1$C$L1
 62
     3
 10
-136.1573921266999
 20
115.3499773425999
 30
0.0
 11
-136.81986763369989
 21
116.49741877460001
 31
0.0
  0
LINE
  5
306
  8
LAYER1$C$L1
 62
     3
 10
-135.4997253418
 20
136.74285888669991
 30
0.0
 11
-135.4997253418
 21
138.69990539549991
 31
0.0
  0
LINE
  5
307
  8
LAYER1$C$L1
  6
CENTER
 62
     3
 10
-60.554000854499989
 20
64.0
 30
0.0
 11
-25.633987426800001
 21
64.0
 31
0.0
  0
LINE
  5
308
  8
LAYER1$C$L1
  6
CENTER
 62
     3
 10
-43.000015258799991
 20
41.689743041999989
 30
0.0
 11
-43.000015258799991
 21
86.402252197300001
 31
0.0
  0
LINE
  5
309
  8
LAYER1$C$L1
 62
     3
 10
-57.800003051799997
 20
47.0
 30
0.0
 11
-57.800003051799997
 21
81.0
 31
0.0
  0
LINE
  5
30A
  8
LAYER1$C$L1
 62
     3
 10
-56.800003051799997
 20
46.0
 30
0.0
 11
-48.300003051799997
 21
46.0
 31
0.0
  0
LINE
  5
30B
  8
LAYER1$C$L1
 62
     3
 10
-56.800003051799997
 20
82.0
 30
0.0
 11
-48.300003051799997
 21
82.0
 31
0.0
  0
LINE
  5
30C
  8
LAYER1$C$L1
 62
     3
 10
-48.300003051799997
 20
45.499999999999993
 30
0.0
 11
-48.300003051799997
 21
46.0
 31
0.0
  0
LINE
  5
30D
  8
LAYER1$C$L1
 62
     3
 10
-48.300003051799997
 20
82.5
 30
0.0
 11
-48.300003051799997
 21
82.0
 31
0.0
  0
LINE
  5
30E
  8
LAYER1$C$L1
 62
     3
 10
-48.300003051799997
 20
82.5
 30
0.0
 11
-37.700012207
 21
82.5
 31
0.0
  0
LINE
  5
30F
  8
LAYER1$C$L1
 62
     3
 10
-37.700012207
 20
45.499999999999993
 30
0.0
 11
-48.300003051799997
 21
45.499999999999993
 31
0.0
  0
LINE
  5
310
  8
LAYER1$C$L1
 62
     3
 10
-44.1000061035
 20
45.499999999999993
 30
0.0
 11
-44.1000061035
 21
47.5
 31
0.0
  0
LINE
  5
311
  8
LAYER1$C$L1
 62
     3
 10
-44.1000061035
 20
80.5
 30
0.0
 11
-44.1000061035
 21
82.5
 31
0.0
  0
LINE
  5
312
  8
LAYER1$C$L1
 62
     3
 10
-47.200012207
 20
45.499999999999993
 30
0.0
 11
-47.200012207
 21
47.5
 31
0.0
  0
LINE
  5
313
  8
LAYER1$C$L1
 62
     3
 10
-47.200012207
 20
80.5
 30
0.0
 11
-47.200012207
 21
82.5
 31
0.0
  0
LINE
  5
314
  8
LAYER1$C$L1
 62
     3
 10
-47.200012207
 20
47.5
 30
0.0
 11
-38.80000305179999
 21
47.5
 31
0.0
  0
LINE
  5
315
  8
LAYER1$C$L1
 62
     3
 10
-47.200012207
 20
80.5
 30
0.0
 11
-38.80000305179999
 21
80.5
 31
0.0
  0
LINE
  5
316
  8
LAYER1$C$L1
 62
     3
 10
-28.200012207
 20
81.0
 30
0.0
 11
-28.200012207
 21
47.0
 31
0.0
  0
LINE
  5
317
  8
LAYER1$C$L1
 62
     3
 10
-37.700012207
 20
46.0
 30
0.0
 11
-29.20001220699999
 21
46.0
 31
0.0
  0
LINE
  5
318
  8
LAYER1$C$L1
 62
     3
 10
-37.700012207
 20
82.0
 30
0.0
 11
-29.20001220699999
 21
82.0
 31
0.0
  0
LINE
  5
319
  8
LAYER1$C$L1
 62
     3
 10
-37.700012207
 20
46.0
 30
0.0
 11
-37.700012207
 21
45.499999999999993
 31
0.0
  0
LINE
  5
31A
  8
LAYER1$C$L1
 62
     3
 10
-37.700012207
 20
82.0
 30
0.0
 11
-37.700012207
 21
82.5
 31
0.0
  0
LINE
  5
31B
  8
LAYER1$C$L1
 62
     3
 10
-41.900009155299998
 20
47.5
 30
0.0
 11
-41.900009155299998
 21
45.499999999999993
 31
0.0
  0
LINE
  5
31C
  8
LAYER1$C$L1
 62
     3
 10
-41.900009155299998
 20
82.5
 30
0.0
 11
-41.900009155299998
 21
80.5
 31
0.0
  0
LINE
  5
31D
  8
LAYER1$C$L1
 62
     3
 10
-38.80000305179999
 20
47.5
 30
0.0
 11
-38.80000305179999
 21
45.499999999999993
 31
0.0
  0
LINE
  5
31E
  8
LAYER1$C$L1
 62
     3
 10
-38.80000305179999
 20
82.5
 30
0.0
 11
-38.80000305179999
 21
80.5
 31
0.0
  0
DIMENSION
  5
31F
  8
LAYER9$C$L9
 62
     3
  2
*D21
 10
-28.200012207
 20
88.499999999999986
 30
0.0
 11
-43.000007629400002
 21
88.499999999999986
 31
0.0
 70
     0
  1
<>30
 13
-57.800003051799997
 23
81.0
 33
0.0
 14
-28.200012207
 24
80.999984741199995
 34
0.0
1001
ACAD
1000
DSTYLE
1002
{
1070
    41
1040
1.972787845999999
1070
    42
1040
2.5399999618999991
1070
    44
1040
3.8099999427999989
1070
    73
1070
     0
1070
   140
1040
2.9999940394999989
1070
   271
1070
     1
1070
   272
1070
     1
1002
}
  0
ARC
  5
32B
  8
LAYER1$C$L1
 62
     3
 10
-29.20001220699999
 20
80.999984741199995
 30
0.0
 40
1.0
 50
0.000072627560058
 51
89.999982013899995
  0
DIMENSION
  5
32C
  8
LAYER9$C$L9
 62
     3
  2
*D22
 10
-22.20001220699999
 20
82.499984741199981
 30
0.0
 11
-22.200012207000011
 21
63.999992370599983
 31
0.0
 70
     1
  1
<>37
 13
-37.700012207
 23
45.499999999999993
 33
0.0
 14
-37.700012207
 24
82.499984741199995
 34
0.0
1001
ACAD
1000
DSTYLE
1002
{
1070
    41
1040
1.972787845999999
1070
    42
1040
2.5399999618999991
1070
    44
1040
3.8099999427999989
1070
    73
1070
     0
1070
   140
1040
2.9999940394999989
1070
   271
1070
     1
1070
   272
1070
     1
1002
}
  0
ARC
  5
338
  8
LAYER1$C$L1
 62
     3
 10
-132.59976196289989
 20
116.600112915
 30
0.0
 40
0.5
 50
179.9999093863
 51
269.9999460416999
  0
LINE
  5
339
  8
LAYER1$C$L1
 62
     3
 10
-136.8198093222
 20
116.4973317892
 30
0.0
 11
-136.96955099190001
 21
115.95668065309989
 31
0.0
  0
LINE
  5
33A
  8
LAYER1$C$L1
 62
     3
 10
-137.32026137049991
 20
113.1357829613999
 30
0.0
 11
-136.33061457689999
 21
114.8499017810999
 31
0.0
  0
ARC
  5
33B
  8
LAYER1$C$L1
 62
     3
 10
-132.22520446780001
 20
79.683029174799984
 30
0.0
 40
0.1999999881
 50
320.47098027290002
 51
41.198427243200051
  0
ARC
  5
33C
  8
LAYER1$C$L1
 62
     3
 10
-133.29440307620001
 20
80.227828979499989
 30
0.0
 40
0.1999999881
 50
320.47103491450002
 51
41.1982633187
  0
ARC
  5
33D
  8
LAYER1$C$L1
 62
     3
 10
-137.83760070799991
 20
75.704879760699995
 30
0.0
 40
1.0
 50
170.57102448239999
 51
237.99996336509989
  0
ARC
  5
33E
  8
LAYER1$C$L1
 62
     3
 10
-135.64472961429991
 20
80.008590698199995
 30
0.0
 40
1.0
 50
67.999942697299986
 51
135.42893622150001
  0
LINE
  5
33F
  8
LAYER1$C$L1
 62
     3
 10
-136.85833740230001
 20
113.13586425779999
 30
0.0
 11
-137.3202209472999
 21
113.13586425779999
 31
0.0
  0
LINE
  5
340
  8
LAYER1$C$L1
 62
     3
 10
-135.05821218459991
 20
113.64625802719991
 30
0.0
 11
-135.2829302172
 21
112.8355006107
 31
0.0
  0
ARC
  5
341
  8
LAYER1$C$L1
  6
PHANTOM
 62
     3
 10
-55.0
 20
81.900009155299983
 30
0.0
 40
1.0
 50
90.00003665540001
 51
174.26134837020001
  0
ARC
  5
342
  8
LAYER1$C$L1
  6
PHANTOM
 62
     3
 10
-35.000015258799998
 20
81.900054931599996
 30
0.0
 40
1.0
 50
5.7360065253999979
 51
89.999982013899995
  0
ARC
  5
343
  8
LAYER1$C$L1
  6
PHANTOM
 62
     3
 10
-31.0
 20
46.100097656300001
 30
0.0
 40
1.0
 50
270.00007262759988
 51
354.25520643629989
  0
ARC
  5
344
  8
LAYER1$C$L1
  6
PHANTOM
 62
     3
 10
-51.0
 20
46.100051879900001
 30
0.0
 40
1.0
 50
185.74220332819991
 51
270.00001798609998
  0
DIMENSION
  5
353
  8
LAYER9$C$L9
 62
     3
  2
*D23
 10
-93.000015258799991
 20
103.1999969481999
 30
0.0
 11
-136.24997711180001
 21
103.1999969481999
 31
0.0
 70
     0
 13
-179.49993896480001
 23
122.9998474120999
 33
0.0
 14
-93.000015258799991
 24
108.7261505127
 34
0.0
1001
ACAD
1000
DSTYLE
1002
{
1070
    41
1040
1.972787845999999
1070
    42
1040
2.5399999618999991
1070
    44
1040
3.8099999427999989
1070
    73
1070
     0
1070
   140
1040
2.9999940394999989
1070
   271
1070
     1
1070
   272
1070
     1
1002
}
  0
LINE
  5
35F
  8
LAYER1$C$L1
 62
     3
 10
-141.50003051760001
 20
123.9999847412
 30
0.0
 11
-121.5000305175999
 21
123.9999847412
 31
0.0
  0
LINE
  5
360
  8
LAYER1$C$L1
 62
     3
 10
-141.5001831054999
 20
122.9000091553
 30
0.0
 11
-129.80001831049989
 21
122.9000091553
 31
0.0
  0
LINE
  5
361
  8
LAYER1$C$L1
 62
     3
 10
-126.50006103520001
 20
119.8000030518
 30
0.0
 11
-126.50006103520001
 21
123.99996948239991
 31
0.0
  0
LINE
  5
362
  8
LAYER1$C$L1
 62
     3
 10
-126.5000305175999
 20
119.8000030518
 30
0.0
 11
-141.50006103519991
 21
119.8000030518
 31
0.0
  0
LINE
  5
363
  8
LAYER1$C$L1
 62
     3
 10
-126.5000305175999
 20
119.8000030518
 30
0.0
 11
-126.5000305175999
 21
123.99996948239991
 31
0.0
  0
LINE
  5
364
  8
LAYER1$C$L1
 62
     3
 10
-129.80001831049989
 20
119.8000030518
 30
0.0
 11
-129.80001831049989
 21
122.9000091553
 31
0.0
  0
LINE
  5
365
  8
LAYER1$C$L1
 62
     3
 10
-121.5000305175999
 20
118.700012207
 30
0.0
 11
-141.50003051760001
 21
118.700012207
 31
0.0
  0
LINE
  5
366
  8
LAYER1$C$L1
 62
     3
 10
-131.39962768549989
 20
118.6999969481999
 30
0.0
 11
-131.39962768549989
 21
110.599899292
 31
0.0
  0
LINE
  5
367
  8
LAYER1$C$L1
 62
     3
 10
-136.8198046398999
 20
131.5026266303
 30
0.0
 11
-136.96954630959991
 21
132.04327776639991
 31
0.0
  0
LINE
  5
368
  8
LAYER1$C$L1
 62
     3
 10
-135.0582137005
 20
134.35370942590001
 30
0.0
 11
-135.2829317330999
 21
135.16446684239989
 31
0.0
  0
LINE
  5
369
  8
LAYER1$C$L1
 62
     3
 10
-136.85833740230001
 20
134.86410522459991
 30
0.0
 11
-137.3202209472999
 21
134.86410522459991
 31
0.0
  0
LINE
  5
36A
  8
LAYER1$C$L1
 62
     3
 10
-134.32913208010001
 20
131.58203125
 30
0.0
 11
-134.55926513669999
 21
131.58203125
 31
0.0
  0
LINE
  5
36B
  8
LAYER1$C$L1
 62
     3
 10
-134.55380249020001
 20
130.77122497560001
 30
0.0
 11
-134.78396606449999
 21
130.77122497560001
 31
0.0
  0
LINE
  5
36C
  8
LAYER1$C$L1
 62
     3
 10
-134.55380112789999
 20
130.77124152659999
 30
0.0
 11
-134.32909689600001
 21
131.58205027790001
 31
0.0
  0
LINE
  5
36D
  8
LAYER1$C$L1
 62
     3
 10
-135.63854079270001
 20
132.6500942950999
 30
0.0
 11
-134.55385464269989
 21
130.77136245349999
 31
0.0
  0
LINE
  5
36E
  8
LAYER1$C$L1
 62
     3
 10
-133.09963989260001
 20
113.10000610349999
 30
0.0
 11
-133.09963989260001
 21
112.85000610349999
 31
0.0
  0
LINE
  5
36F
  8
LAYER1$C$L1
 62
     3
 10
-74.000015258800005
 20
135.79997253420001
 30
0.0
 11
-80.0
 21
135.79997253420001
 31
0.0
  0
LINE
  5
370
  8
LAYER1$C$L1
 62
     3
 10
-131.9411315918
 20
116.0998992919999
 30
0.0
 11
-131.9411315918
 21
116.53680419920001
 31
0.0
  0
LINE
  5
371
  8
LAYER1$C$L1
 62
     3
 10
-136.3306133255999
 20
114.84995637429989
 30
0.0
 11
-136.96962844719991
 21
115.9567632199
 31
0.0
  0
DIMENSION
  5
372
  8
LAYER9$C$L9
 62
     3
  2
*D24
 10
-73.600006103500007
 20
90.301503928717224
 30
0.0
 11
-82.756520630106934
 21
90.301503928717224
 31
0.0
 70
   128
  1
<>19
 13
-93.0
 23
110.4999847412
 33
0.0
 14
-73.600006103500007
 24
112.5999755859
 34
0.0
1001
ACAD
1000
DSTYLE
1002
{
1070
    41
1040
1.972787845999999
1070
    42
1040
2.5399999618999991
1070
    44
1040
3.8099999427999989
1070
    73
1070
     0
1070
   140
1040
2.9999940394999989
1070
   271
1070
     1
1070
   272
1070
     1
1002
}
  0
LINE
  5
37E
  8
LAYER1$C$L1
 62
     3
 10
-135.05833883
 20
113.64634258540001
 30
0.0
 11
-135.75324688929999
 21
114.8499588553
 31
0.0
  0
LINE
  5
37F
  8
LAYER1$C$L1
 62
     3
 10
-131.44115376939999
 20
111.3130471480999
 30
0.0
 11
-131.94115484939991
 21
113.1630521151
 31
0.0
  0
LINE
  5
380
  8
LAYER1$C$L1
 62
     3
 10
-132.4914588149999
 20
110.5998829350999
 30
0.0
 11
-133.09958803480001
 21
112.8499622293
 31
0.0
  0
LINE
  5
381
  8
LAYER1$C$L1
 62
     3
 10
-133.09967433709991
 20
116.84995599600001
 30
0.0
 11
-132.59967712389991
 21
118.69994611849999
 31
0.0
  0
LINE
  5
382
  8
LAYER1$C$L1
 62
     3
 10
-131.94124122319991
 20
116.5368660386
 30
0.0
 11
-131.44124400999991
 21
118.3868561612
 31
0.0
  0
LINE
  5
383
  8
LAYER1$C$L1
 62
     3
 10
-135.75326135500001
 20
114.84990692940001
 30
0.0
 11
-134.99235141150001
 21
116.1678418357
 31
0.0
  0
LINE
  5
384
  8
LAYER1$C$L1
 62
     3
 10
-136.1573901932
 20
115.3499169824
 30
0.0
 11
-135.21704454109991
 21
116.97864370549991
 31
0.0
  0
LINE
  5
385
  8
LAYER1$C$L1
 62
     3
 10
-135.63848876949999
 20
133.64994812009999
 30
0.0
 11
-136.15734863279999
 21
133.64994812009999
 31
0.0
  0
LINE
  5
386
  8
LAYER1$C$L1
 62
     3
 10
-135.92718505859989
 20
133.14994812009991
 30
0.0
 11
-136.33056640629991
 21
133.14994812009991
 31
0.0
  0
LINE
  5
387
  8
LAYER1$C$L1
 62
     3
 10
-137.05331865599999
 20
112.7981229649
 30
0.0
 11
-136.1573913336
 21
114.3499148712
 31
0.0
  0
LINE
  5
388
  8
LAYER1$C$L1
 62
     3
 10
-133.09963989260001
 20
116.8499908446999
 30
0.0
 11
-133.09963989260001
 21
116.5999908446999
 31
0.0
  0
ARC
  5
389
  8
LAYER1$C$L1
 62
     3
 10
-121.8000030518
 20
109.5999298095999
 30
0.0
 40
0.3000000119
 50
270.00001798609998
 51
0.0
  0
ARC
  5
38A
  8
LAYER1$C$L1
 62
     3
 10
-121.80001831049999
 20
138.40003967289999
 30
0.0
 40
0.3000000119
 50
0.0
 51
89.999982013899995
  0
TEXT
  5
38B
  8
LAYER8$C$L8
 62
     3
 10
-137.45005798339989
 20
69.688196964399992
 30
0.0
 40
1.5
  1
UÇâ600V IÇîÇà10A
 50
270.0
 41
0.5474450447759033
 72
     5
 11
-137.45005798339989
 21
58.3287122853
 31
0.0
  0
POLYLINE
  5
38C
  8
LAYER1$C$L1
 62
     3
 66
     1
 10
0.0
 20
0.0
 30
0.0
  0
VERTEX
  5
6AB
  8
LAYER1$C$L1
 62
     3
 10
-137.32037387279999
 20
134.86394082429999
 30
0.0
  0
VERTEX
  5
6AC
  8
LAYER1$C$L1
 62
     3
 10
-137.3983306840999
 20
134.45777612929999
 30
0.0
  0
VERTEX
  5
6AD
  8
LAYER1$C$L1
 62
     3
 10
-137.45477333959991
 20
134.02994235770001
 30
0.0
  0
VERTEX
  5
6AE
  8
LAYER1$C$L1
 62
     3
 10
-137.48876672040001
 20
133.5875276843
 30
0.0
  0
VERTEX
  5
6AF
  8
LAYER1$C$L1
 62
     3
 10
-137.49974763809999
 20
133.13786185480001
 30
0.0
  0
VERTEX
  5
6B0
  8
LAYER1$C$L1
 62
     3
 10
-137.48753416529999
 20
132.68839474879991
 30
0.0
  0
VERTEX
  5
6B1
  8
LAYER1$C$L1
 62
     3
 10
-137.45232864979991
 20
132.24657295349991
 30
0.0
  0
VERTEX
  5
6B2
  8
LAYER1$C$L1
 62
     3
 10
-137.39471436229991
 20
131.819716392
 30
0.0
  0
VERTEX
  5
6B3
  8
LAYER1$C$L1
 62
     3
 10
-137.31564583269989
 20
131.41489704930001
 30
0.0
  0
VERTEX
  5
6B4
  8
LAYER1$C$L1
 62
     3
 10
-137.2164330361
 20
131.03882180679989
 30
0.0
  0
VERTEX
  5
6B5
  8
LAYER1$C$L1
 62
     3
 10
-137.0987196895
 20
130.69772132540001
 30
0.0
  0
VERTEX
  5
6B6
  8
LAYER1$C$L1
 62
     3
 10
-136.96445601959991
 20
130.39724681850001
 30
0.0
  0
VERTEX
  5
6B7
  8
LAYER1$C$L1
 62
     3
 10
-136.81586645199991
 20
130.14237642479989
 30
0.0
  0
VERTEX
  5
6B8
  8
LAYER1$C$L1
 62
     3
 10
-136.6554127579
 20
129.93733273300001
 30
0.0
  0
VERTEX
  5
6B9
  8
LAYER1$C$L1
 62
     3
 10
-136.48575326860001
 20
129.785512823
 30
0.0
  0
VERTEX
  5
6BA
  8
LAYER1$C$L1
 62
     3
 10
-136.30969883299991
 20
129.68943198519989
 30
0.0
  0
VERTEX
  5
6BB
  8
LAYER1$C$L1
 62
     3
 10
-136.1301662491999
 20
129.6506820475
 30
0.0
  0
VERTEX
  5
6BC
  8
LAYER1$C$L1
 62
     3
 10
-135.9501299396
 20
129.6699050030999
 30
0.0
  0
VERTEX
  5
6BD
  8
LAYER1$C$L1
 62
     3
 10
-135.77257267219991
 20
129.7467823739
 30
0.0
  0
VERTEX
  5
6BE
  8
LAYER1$C$L1
 62
     3
 10
-135.6004361432
 20
129.88004048709999
 30
0.0
  0
VERTEX
  5
6BF
  8
LAYER1$C$L1
 62
     3
 10
-135.43657224029991
 20
130.0674715767
 30
0.0
  0
VERTEX
  5
6C0
  8
LAYER1$C$L1
 62
     3
 10
-135.28369579379989
 20
130.30597036099999
 30
0.0
  0
SEQEND
  5
6C1
  8
LAYER1$C$L1
 62
     3
  0
POLYLINE
  5
3A4
  8
LAYER1$C$L1
 62
     3
 66
     1
 10
0.0
 20
0.0
 30
0.0
  0
VERTEX
  5
6C2
  8
LAYER1$C$L1
 62
     3
 10
-135.2204023109
 20
135.8732733782
 30
0.0
  0
VERTEX
  5
6C3
  8
LAYER1$C$L1
 62
     3
 10
-135.35898381199999
 20
136.11975023799999
 30
0.0
  0
VERTEX
  5
6C4
  8
LAYER1$C$L1
 62
     3
 10
-135.5084975108
 20
136.32239823329991
 30
0.0
  0
VERTEX
  5
6C5
  8
LAYER1$C$L1
 62
     3
 10
-135.66673692599991
 20
136.47822674139991
 30
0.0
  0
VERTEX
  5
6C6
  8
LAYER1$C$L1
 62
     3
 10
-135.8313668040999
 20
136.58493608849989
 30
0.0
  0
VERTEX
  5
6C7
  8
LAYER1$C$L1
 62
     3
 10
-135.9999575832999
 20
136.64095148780001
 30
0.0
  0
VERTEX
  5
6C8
  8
LAYER1$C$L1
 62
     3
 10
-136.17002124780001
 20
136.64544627959989
 30
0.0
  0
VERTEX
  5
6C9
  8
LAYER1$C$L1
 62
     3
 10
-136.33904804540001
 20
136.59835413109991
 30
0.0
  0
VERTEX
  5
6CA
  8
LAYER1$C$L1
 62
     3
 10
-136.5045435255
 20
136.5003700149
 30
0.0
  0
VERTEX
  5
6CB
  8
LAYER1$C$L1
 62
     3
 10
-136.66406535190001
 20
136.35293995360001
 30
0.0
  0
VERTEX
  5
6CC
  8
LAYER1$C$L1
 62
     3
 10
-136.8152593458999
 20
136.1582396787999
 30
0.0
  0
VERTEX
  5
6CD
  8
LAYER1$C$L1
 62
     3
 10
-136.95589422859999
 20
135.91914252309999
 30
0.0
  0
VERTEX
  5
6CE
  8
LAYER1$C$L1
 62
     3
 10
-137.0838945495
 20
135.6391770157
 30
0.0
  0
SEQEND
  5
6CF
  8
LAYER1$C$L1
 62
     3
  0
POLYLINE
  5
3B3
  8
LAYER1$C$L1
 62
     3
 66
     1
 10
0.0
 20
0.0
 30
0.0
  0
VERTEX
  5
6D0
  8
LAYER1$C$L1
 62
     3
 10
-134.54974365230001
 20
111.350112915
 30
0.0
  0
VERTEX
  5
6D1
  8
LAYER1$C$L1
 62
     3
 10
-134.36906626269999
 20
111.37938098630001
 30
0.0
  0
VERTEX
  5
6D2
  8
LAYER1$C$L1
 62
     3
 10
-134.19141063230001
 20
111.4666957029
 30
0.0
  0
VERTEX
  5
6D3
  8
LAYER1$C$L1
 62
     3
 10
-134.0197479828
 20
111.6105967602
 30
0.0
  0
VERTEX
  5
6D4
  8
LAYER1$C$L1
 62
     3
 10
-133.8569493052
 20
111.8086774687
 30
0.0
  0
VERTEX
  5
6D5
  8
LAYER1$C$L1
 62
     3
 10
-133.70573734440001
 20
112.0576250054
 30
0.0
  0
VERTEX
  5
6D6
  8
LAYER1$C$L1
 62
     3
 10
-133.56864106169991
 20
112.35327581929999
 30
0.0
  0
VERTEX
  5
6D7
  8
LAYER1$C$L1
 62
     3
 10
-133.44795333929989
 20
112.6906852652
 30
0.0
  0
VERTEX
  5
6D8
  8
LAYER1$C$L1
 62
     3
 10
-133.34569263259991
 20
113.0642103011
 30
0.0
  0
VERTEX
  5
6D9
  8
LAYER1$C$L1
 62
     3
 10
-133.26356921219991
 20
113.4676038654999
 30
0.0
  0
VERTEX
  5
6DA
  8
LAYER1$C$L1
 62
     3
 10
-133.2029565604999
 20
113.8941193575
 30
0.0
  0
VERTEX
  5
6DB
  8
LAYER1$C$L1
 62
     3
 10
-133.1648684004999
 20
114.336623471
 30
0.0
  0
VERTEX
  5
6DC
  8
LAYER1$C$L1
 62
     3
 10
-133.14994174200001
 20
114.7877154963
 30
0.0
  0
VERTEX
  5
6DD
  8
LAYER1$C$L1
 62
     3
 10
-133.1584262275
 20
115.23985109429999
 30
0.0
  0
VERTEX
  5
6DE
  8
LAYER1$C$L1
 62
     3
 10
-133.19017995740001
 20
115.6854684723
 30
0.0
  0
VERTEX
  5
6DF
  8
LAYER1$C$L1
 62
     3
 10
-133.24467186269999
 20
116.1171148526999
 30
0.0
  0
VERTEX
  5
6E0
  8
LAYER1$C$L1
 62
     3
 10
-133.32099058749989
 20
116.52757111699999
 30
0.0
  0
VERTEX
  5
6E1
  8
LAYER1$C$L1
 62
     3
 10
-133.4178597307999
 20
116.9099725434999
 30
0.0
  0
VERTEX
  5
6E2
  8
LAYER1$C$L1
 62
     3
 10
-133.53365919359999
 20
117.2579236166999
 30
0.0
  0
VERTEX
  5
6E3
  8
LAYER1$C$L1
 62
     3
 10
-133.66645227489991
 20
117.56560498969991
 30
0.0
  0
VERTEX
  5
6E4
  8
LAYER1$C$L1
 62
     3
 10
-133.81401806199989
 20
117.8278708109999
 30
0.0
  0
VERTEX
  5
6E5
  8
LAYER1$C$L1
 62
     3
 10
-133.9738885740999
 20
118.0403347865
 30
0.0
  0
VERTEX
  5
6E6
  8
LAYER1$C$L1
 62
     3
 10
-134.14339003919989
 20
118.1994435384
 30
0.0
  0
VERTEX
  5
6E7
  8
LAYER1$C$L1
 62
     3
 10
-134.3196876106999
 20
118.3025360347
 30
0.0
  0
VERTEX
  5
6E8
  8
LAYER1$C$L1
 62
     3
 10
-134.4998327804
 20
118.3478880933999
 30
0.0
  0
SEQEND
  5
6E9
  8
LAYER1$C$L1
 62
     3
  0
POLYLINE
  5
3CE
  8
LAYER1$C$L1
 62
     3
 66
     1
 10
0.0
 20
0.0
 30
0.0
  0
VERTEX
  5
6EA
  8
LAYER1$C$L1
 62
     3
 10
-134.4998327804
 20
129.6520813889999
 30
0.0
  0
VERTEX
  5
6EB
  8
LAYER1$C$L1
 62
     3
 10
-134.3196876106999
 20
129.69743344770001
 30
0.0
  0
VERTEX
  5
6EC
  8
LAYER1$C$L1
 62
     3
 10
-134.14339003919989
 20
129.8005259439999
 30
0.0
  0
VERTEX
  5
6ED
  8
LAYER1$C$L1
 62
     3
 10
-133.9738885740999
 20
129.95963469599999
 30
0.0
  0
VERTEX
  5
6EE
  8
LAYER1$C$L1
 62
     3
 10
-133.81401806199989
 20
130.17209867139999
 30
0.0
  0
VERTEX
  5
6EF
  8
LAYER1$C$L1
 62
     3
 10
-133.66645227489991
 20
130.43436449270001
 30
0.0
  0
VERTEX
  5
6F0
  8
LAYER1$C$L1
 62
     3
 10
-133.53365919359999
 20
130.74204586569991
 30
0.0
  0
VERTEX
  5
6F1
  8
LAYER1$C$L1
 62
     3
 10
-133.4178597307999
 20
131.0899969388999
 30
0.0
  0
VERTEX
  5
6F2
  8
LAYER1$C$L1
 62
     3
 10
-133.32099058749989
 20
131.47239836540001
 30
0.0
  0
VERTEX
  5
6F3
  8
LAYER1$C$L1
 62
     3
 10
-133.24467186269999
 20
131.88285462979999
 30
0.0
  0
VERTEX
  5
6F4
  8
LAYER1$C$L1
 62
     3
 10
-133.19017995740001
 20
132.3145010101
 30
0.0
  0
VERTEX
  5
6F5
  8
LAYER1$C$L1
 62
     3
 10
-133.1584262275
 20
132.7601183882
 30
0.0
  0
VERTEX
  5
6F6
  8
LAYER1$C$L1
 62
     3
 10
-133.14994174200001
 20
133.21225398609991
 30
0.0
  0
VERTEX
  5
6F7
  8
LAYER1$C$L1
 62
     3
 10
-133.1648684004999
 20
133.66334601139991
 30
0.0
  0
VERTEX
  5
6F8
  8
LAYER1$C$L1
 62
     3
 10
-133.2029565604999
 20
134.10585012489989
 30
0.0
  0
VERTEX
  5
6F9
  8
LAYER1$C$L1
 62
     3
 10
-133.26356921219991
 20
134.53236561689999
 30
0.0
  0
VERTEX
  5
6FA
  8
LAYER1$C$L1
 62
     3
 10
-133.34569263259991
 20
134.9357591813
 30
0.0
  0
VERTEX
  5
6FB
  8
LAYER1$C$L1
 62
     3
 10
-133.44795333929989
 20
135.3092842172
 30
0.0
  0
VERTEX
  5
6FC
  8
LAYER1$C$L1
 62
     3
 10
-133.56864106169991
 20
135.6466936631
 30
0.0
  0
VERTEX
  5
6FD
  8
LAYER1$C$L1
 62
     3
 10
-133.70573734440001
 20
135.94234447709991
 30
0.0
  0
VERTEX
  5
6FE
  8
LAYER1$C$L1
 62
     3
 10
-133.8569493052
 20
136.19129201379999
 30
0.0
  0
VERTEX
  5
6FF
  8
LAYER1$C$L1
 62
     3
 10
-134.0197479828
 20
136.38937272219991
 30
0.0
  0
VERTEX
  5
700
  8
LAYER1$C$L1
 62
     3
 10
-134.19141063230001
 20
136.53327377950001
 30
0.0
  0
VERTEX
  5
701
  8
LAYER1$C$L1
 62
     3
 10
-134.36906626269999
 20
136.62058849609991
 30
0.0
  0
VERTEX
  5
702
  8
LAYER1$C$L1
 62
     3
 10
-134.54974365230001
 20
136.64985656740001
 30
0.0
  0
SEQEND
  5
703
  8
LAYER1$C$L1
 62
     3
  0
POLYLINE
  5
3E9
  8
LAYER1$C$L1
 62
     3
 66
     1
 10
0.0
 20
0.0
 30
0.0
  0
VERTEX
  5
704
  8
LAYER1$C$L1
 62
     3
 10
-135.28369579379989
 20
117.6939991215
 30
0.0
  0
VERTEX
  5
705
  8
LAYER1$C$L1
 62
     3
 10
-135.43657224029991
 20
117.93249790580001
 30
0.0
  0
VERTEX
  5
706
  8
LAYER1$C$L1
 62
     3
 10
-135.6004361432
 20
118.1199289952999
 30
0.0
  0
VERTEX
  5
707
  8
LAYER1$C$L1
 62
     3
 10
-135.77257267219991
 20
118.2531871085
 30
0.0
  0
VERTEX
  5
708
  8
LAYER1$C$L1
 62
     3
 10
-135.9501299396
 20
118.33006447930001
 30
0.0
  0
VERTEX
  5
709
  8
LAYER1$C$L1
 62
     3
 10
-136.1301662491999
 20
118.34928743489991
 30
0.0
  0
VERTEX
  5
70A
  8
LAYER1$C$L1
 62
     3
 10
-136.30969883299991
 20
118.3105374972999
 30
0.0
  0
VERTEX
  5
70B
  8
LAYER1$C$L1
 62
     3
 10
-136.48575326860001
 20
118.2144566594
 30
0.0
  0
VERTEX
  5
70C
  8
LAYER1$C$L1
 62
     3
 10
-136.6554127579
 20
118.0626367494999
 30
0.0
  0
VERTEX
  5
70D
  8
LAYER1$C$L1
 62
     3
 10
-136.81586645199991
 20
117.8575930575999
 30
0.0
  0
VERTEX
  5
70E
  8
LAYER1$C$L1
 62
     3
 10
-136.96445601959991
 20
117.602722664
 30
0.0
  0
VERTEX
  5
70F
  8
LAYER1$C$L1
 62
     3
 10
-137.0987196895
 20
117.30224815699999
 30
0.0
  0
VERTEX
  5
710
  8
LAYER1$C$L1
 62
     3
 10
-137.2164330361
 20
116.9611476755999
 30
0.0
  0
VERTEX
  5
711
  8
LAYER1$C$L1
 62
     3
 10
-137.31564583269989
 20
116.5850724330999
 30
0.0
  0
VERTEX
  5
712
  8
LAYER1$C$L1
 62
     3
 10
-137.39471436229991
 20
116.1802530904
 30
0.0
  0
VERTEX
  5
713
  8
LAYER1$C$L1
 62
     3
 10
-137.45232864979991
 20
115.7533965288999
 30
0.0
  0
VERTEX
  5
714
  8
LAYER1$C$L1
 62
     3
 10
-137.48753416529999
 20
115.3115747337
 30
0.0
  0
VERTEX
  5
715
  8
LAYER1$C$L1
 62
     3
 10
-137.49974763809999
 20
114.8621076276
 30
0.0
  0
VERTEX
  5
716
  8
LAYER1$C$L1
 62
     3
 10
-137.48876672040001
 20
114.41244179809991
 30
0.0
  0
VERTEX
  5
717
  8
LAYER1$C$L1
 62
     3
 10
-137.45477333959991
 20
113.9700271247999
 30
0.0
  0
VERTEX
  5
718
  8
LAYER1$C$L1
 62
     3
 10
-137.3983306840999
 20
113.5421933530999
 30
0.0
  0
VERTEX
  5
719
  8
LAYER1$C$L1
 62
     3
 10
-137.32037387279999
 20
113.1360286580999
 30
0.0
  0
SEQEND
  5
71A
  8
LAYER1$C$L1
 62
     3
  0
POLYLINE
  5
401
  8
LAYER1$C$L1
 62
     3
 66
     1
 10
0.0
 20
0.0
 30
0.0
  0
VERTEX
  5
71B
  8
LAYER1$C$L1
 62
     3
 10
-137.0838945495
 20
112.3607924667
 30
0.0
  0
VERTEX
  5
71C
  8
LAYER1$C$L1
 62
     3
 10
-136.95589422859999
 20
112.0808269594
 30
0.0
  0
VERTEX
  5
71D
  8
LAYER1$C$L1
 62
     3
 10
-136.8152593458999
 20
111.8417298036
 30
0.0
  0
VERTEX
  5
71E
  8
LAYER1$C$L1
 62
     3
 10
-136.66406535190001
 20
111.64702952889991
 30
0.0
  0
VERTEX
  5
71F
  8
LAYER1$C$L1
 62
     3
 10
-136.5045435255
 20
111.4995994675
 30
0.0
  0
VERTEX
  5
720
  8
LAYER1$C$L1
 62
     3
 10
-136.33904804540001
 20
111.4016153512999
 30
0.0
  0
VERTEX
  5
721
  8
LAYER1$C$L1
 62
     3
 10
-136.17002124780001
 20
111.3545232028
 30
0.0
  0
VERTEX
  5
722
  8
LAYER1$C$L1
 62
     3
 10
-135.9999575832999
 20
111.3590179945999
 30
0.0
  0
VERTEX
  5
723
  8
LAYER1$C$L1
 62
     3
 10
-135.8313668040999
 20
111.4150333938999
 30
0.0
  0
VERTEX
  5
724
  8
LAYER1$C$L1
 62
     3
 10
-135.66673692599991
 20
111.5217427409999
 30
0.0
  0
VERTEX
  5
725
  8
LAYER1$C$L1
 62
     3
 10
-135.5084975108
 20
111.6775712491999
 30
0.0
  0
VERTEX
  5
726
  8
LAYER1$C$L1
 62
     3
 10
-135.35898381199999
 20
111.8802192445
 30
0.0
  0
VERTEX
  5
727
  8
LAYER1$C$L1
 62
     3
 10
-135.2204023109
 20
112.12669610419999
 30
0.0
  0
SEQEND
  5
728
  8
LAYER1$C$L1
 62
     3
  0
ARC
  5
410
  8
LAYER1$C$L1
  6
PHANTOM
 62
     3
 10
-164.5000457763999
 20
129.49995422360001
 30
0.0
 40
0.5
 50
0.00176651437
 51
89.999927372399995
  0
ARC
  5
411
  8
LAYER1$C$L1
  6
PHANTOM
 62
     3
 10
-164.30006408689991
 20
122.2999114989999
 30
0.0
 40
0.2999999522999999
 50
270.00007262759988
 51
359.99990870309989
  0
ARC
  5
412
  8
LAYER1$C$L1
  6
PHANTOM
 62
     3
 10
-181.50007629390001
 20
111.99993896479999
 30
0.0
 40
1.0
 50
179.9999640277999
 51
269.9998914002
  0
ARC
  5
413
  8
LAYER1$C$L1
  6
PHANTOM
 62
     3
 10
-181.5000305175999
 20
131.9999084472999
 30
0.0
 40
1.0
 50
89.999982013899995
 51
179.9998001033
  0
ARC
  5
414
  8
LAYER1$C$L1
  6
PHANTOM
 62
     3
 10
-181.5000305175999
 20
135.9999084472999
 30
0.0
 40
1.0
 50
89.999982013899995
 51
179.9998001033
  0
ARC
  5
415
  8
LAYER1$C$L1
  6
PHANTOM
 62
     3
 10
-181.50004577639999
 20
46.100067138699991
 30
0.0
 40
1.0
 50
180.00003597220001
 51
269.99996334460002
  0
ARC
  5
416
  8
LAYER1$C$L1
  6
PHANTOM
 62
     3
 10
-170.89994812009991
 20
63.4000396729
 30
0.0
 40
0.5999999642000001
 50
0.0
 51
89.999872730899995
  0
ARC
  5
417
  8
LAYER1$C$L1
  6
PHANTOM
 62
     3
 10
-170.89999389650001
 20
54.600036621100003
 30
0.0
 40
0.5999999642000001
 50
270.00007262759988
 51
0.0
  0
ARC
  5
418
  8
LAYER1$C$L1
  6
PHANTOM
 62
     3
 10
-181.49999999999989
 20
81.899993896499993
 30
0.0
 40
1.0
 50
89.999927372399995
 51
179.99985474479999
  0
ARC
  5
419
  8
LAYER1$C$L1
  6
PHANTOM
 62
     3
 10
-181.49999999999989
 20
63.0000457764
 30
0.0
 40
1.0
 50
180.00003597220001
 51
269.99996334460002
  0
ARC
  5
41A
  8
LAYER1$C$L1
 62
     3
 10
-176.71226501459989
 20
76.5
 30
0.0
 40
1.0
 50
89.999435598800005
 51
145.0263355525999
  0
ARC
  5
41B
  8
LAYER1$C$L1
 62
     3
 10
-173.13835144039999
 20
74.0
 30
0.0
 40
5.3615283965999998
 50
145.02671804319999
 51
214.97326465399999
  0
ARC
  5
41C
  8
LAYER1$C$L1
 62
     3
 10
-176.4998931884999
 20
68.899993896499993
 30
0.0
 40
1.0
 50
180.0000906137
 51
270.00001798609998
  0
ARC
  5
41D
  8
LAYER1$C$L1
 62
     3
 10
-176.4998931884999
 20
73.0
 30
0.0
 40
1.0
 50
89.999982013899995
 51
179.9999640277999
  0
ARC
  5
41E
  8
LAYER1$C$L1
 62
     3
 10
-172.29988098139989
 20
79.099990844700002
 30
0.0
 40
1.0
 50
89.999982013899995
 51
179.9999640277999
  0
ARC
  5
41F
  8
LAYER1$C$L1
 62
     3
 10
-178.49987792970001
 20
58.719253539999997
 30
0.0
 40
1.0
 50
104.0362393243
 51
179.9999640277999
  0
ARC
  5
420
  8
LAYER1$C$L1
 62
     3
 10
-178.49987792970001
 20
49.350357055699988
 30
0.0
 40
1.0
 50
180.00003597220001
 51
260.73975679239999
  0
ARC
  5
421
  8
LAYER1$C$L1
 62
     3
 10
-169.29988098139989
 20
81.0
 30
0.0
 40
1.0
 50
89.999982013899995
 51
179.9999640277999
  0
ARC
  5
422
  8
LAYER1$C$L1
 62
     3
 10
-169.29986572269991
 20
47.000015258799998
 30
0.0
 40
1.0
 50
180.00003597220001
 51
270.00001798609998
  0
ARC
  5
423
  8
LAYER1$C$L1
 62
     3
 10
-177.19993591310001
 20
112.7998352050999
 30
0.0
 40
0.2999999522999999
 50
180.00003597220001
 51
270.00001798609998
  0
ARC
  5
424
  8
LAYER1$C$L1
 62
     3
 10
-177.19993591310001
 20
113.69998168950001
 30
0.0
 40
0.2999999522999999
 50
89.999927372399995
 51
179.9999093863
  0
ARC
  5
425
  8
LAYER1$C$L1
 62
     3
 10
-175.49993896480001
 20
134.29977416989991
 30
0.0
 40
0.2999999522999999
 50
180.00003597220001
 51
270.00001798609998
  0
ARC
  5
426
  8
LAYER1$C$L1
 62
     3
 10
-175.49993896480001
 20
135.19976806639991
 30
0.0
 40
0.2999999522999999
 50
89.999927372399995
 51
179.9999093863
  0
ARC
  5
427
  8
LAYER1$C$L1
 62
     3
 10
-175.54661560060001
 20
116.0000305175999
 30
0.0
 40
1.0
 50
213.5379586839
 51
270.00023655209992
  0
ARC
  5
428
  8
LAYER1$C$L1
 62
     3
 10
-175.54661560060001
 20
120.99978637700001
 30
0.0
 40
1.0
 50
89.999763447900008
 51
146.4620413161
  0
ARC
  5
429
  8
LAYER1$C$L1
 62
     3
 10
-171.7749328612999
 20
118.5000305176
 30
0.0
 40
5.524999618499999
 50
146.4622598821999
 51
213.53772281499991
  0
ARC
  5
42A
  8
LAYER1$C$L1
 62
     3
 10
-179.19995117190001
 20
124.69979858399989
 30
0.0
 40
0.2999999522999999
 50
89.999982013899995
 51
179.9999093863
  0
ARC
  5
42B
  8
LAYER1$C$L1
 62
     3
 10
-169.2999420166
 20
137.79977416989991
 30
0.0
 40
1.0
 50
89.999982013899995
 51
179.9999093863
  0
ARC
  5
42C
  8
LAYER1$C$L1
 62
     3
 10
-179.19995117190001
 20
123.2997741699
 30
0.0
 40
0.2999999522999999
 50
180.00003597220001
 51
270.00001798609998
  0
ARC
  5
42D
  8
LAYER1$C$L1
 62
     3
 10
-169.2999572754
 20
110.19998168950001
 30
0.0
 40
1.0
 50
180.00003597220001
 51
270.00001798609998
  0
ARC
  5
42E
  8
LAYER1$C$L1
 62
     3
 10
-141.2997436522999
 20
138.49996948239991
 30
0.0
 40
0.1999999881
 50
89.999982013899995
 51
179.9999640277999
  0
ARC
  5
42F
  8
LAYER1$C$L1
 62
     3
 10
-136.62042236330001
 20
135.45166015629991
 30
0.0
 40
0.5
 50
157.96528199170001
 51
210.00017659849999
  0
ARC
  5
430
  8
LAYER1$C$L1
 62
     3
 10
-134.5594177246
 20
132.08190917970001
 30
0.0
 40
0.5
 50
210.00013925979991
 51
270.00018191060002
  0
ARC
  5
431
  8
LAYER1$C$L1
 62
     3
 10
-134.78411865230001
 20
131.27110290530001
 30
0.0
 40
0.5
 50
210.00008461830001
 51
270.00007262759988
  0
ARC
  5
432
  8
LAYER1$C$L1
 62
     3
 10
-132.59976196289989
 20
131.39985656740001
 30
0.0
 40
0.5
 50
90.00003665540001
 51
180.00007331079999
  0
ARC
  5
433
  8
LAYER1$C$L1
 62
     3
 10
-132.59976196289989
 20
134.89985656740001
 30
0.0
 40
0.5
 50
180.00014525520001
 51
270.00007262759988
  0
ARC
  5
434
  8
LAYER1$C$L1
 62
     3
 10
-135.3041381836
 20
132.80099487299989
 30
0.0
 40
3.2500247954999999
 50
249.46147522730001
 51
288.49398459790001
  0
ARC
  5
435
  8
LAYER1$C$L1
 62
     3
 10
-135.3041381836
 20
133.49870300289999
 30
0.0
 40
3.2500324249000001
 50
71.504813288799994
 51
104.16994710749999
  0
ARC
  5
436
  8
LAYER1$C$L1
 62
     3
 10
-141.2997436522999
 20
109.4999999999999
 30
0.0
 40
0.1999999881
 50
180.00003597220001
 51
270.00001798609998
  0
ARC
  5
437
  8
LAYER1$C$L1
 62
     3
 10
-136.62042236330001
 20
112.5483093262
 30
0.0
 40
0.5
 50
149.99980609859989
 51
202.03470070540001
  0
ARC
  5
438
  8
LAYER1$C$L1
 62
     3
 10
-134.5594177246
 20
115.9180603026999
 30
0.0
 40
0.5
 50
89.999818089400023
 51
149.99986074020001
  0
ARC
  5
439
  8
LAYER1$C$L1
 62
     3
 10
-134.78411865230001
 20
116.72886657709989
 30
0.0
 40
0.5
 50
89.999927372399995
 51
149.99991538169991
  0
LINE
  5
43A
  8
LAYER1$C$L1
 62
     3
 10
-136.9168685821999
 20
134.86422335180001
 30
0.0
 11
-135.92722178849991
 21
133.1501045320999
 31
0.0
  0
LINE
  5
43B
  8
LAYER1$C$L1
  6
PHANTOM
 62
     3
 10
-55.0
 20
82.899993896499993
 30
0.0
 11
-35.0
 21
82.899993896499993
 31
0.0
  0
LINE
  5
43C
  8
LAYER1$C$L1
  6
PHANTOM
 62
     3
 10
-51.0
 20
45.099990844700002
 30
0.0
 11
-31.0
 21
45.099990844700002
 31
0.0
  0
LINE
  5
43D
  8
LAYER1$C$L1
 62
     3
 10
-134.32913208010001
 20
116.4179382324
 30
0.0
 11
-134.55926513669999
 21
116.4179382324
 31
0.0
  0
LINE
  5
43E
  8
LAYER1$C$L1
 62
     3
 10
-134.55380789860001
 20
117.22873687399991
 30
0.0
 11
-134.32910366670001
 21
116.41792812280001
 31
0.0
  0
DIMENSION
  5
43F
  8
LAYER9$C$L9
 62
     3
  2
*D25
 10
-17.200012207
 20
82.899993896499964
 30
0.0
 11
-17.200012207000011
 21
63.999992370599983
 31
0.0
 70
     0
 13
-31.0
 23
45.099990844700002
 33
0.0
 14
-35.0
 24
82.899993896499993
 34
0.0
 50
90.0
1001
ACAD
1000
DSTYLE
1002
{
1070
    41
1040
1.972787845999999
1070
    42
1040
2.5399999618999991
1070
    44
1040
3.8099999427999989
1070
    73
1070
     0
1070
   140
1040
2.9999940394999989
1070
   271
1070
     1
1070
   272
1070
     1
1002
}
  0
LINE
  5
44B
  8
LAYER1$C$L1
 62
     3
 10
-134.55380249020001
 20
117.2287445068
 30
0.0
 11
-134.78396606449999
 21
117.2287445068
 31
0.0
  0
LINE
  5
44C
  8
LAYER1$C$L1
 62
     3
 10
-135.63848876949999
 20
132.6499633789
 30
0.0
 11
-136.15734863279999
 21
132.6499633789
 31
0.0
  0
LINE
  5
44D
  8
LAYER1$C$L1
 62
     3
 10
-135.92723674059991
 20
133.15004614669991
 30
0.0
 11
-136.83886535510001
 21
131.57105880020001
 31
0.0
  0
LINE
  5
44E
  8
LAYER1$C$L1
 62
     3
 10
-135.11479024319991
 20
134.5572449979
 30
0.0
 11
-135.6385633740999
 21
133.6500431691999
 31
0.0
  0
LINE
  5
44F
  8
LAYER1$C$L1
 62
     3
 10
-74.000015258800005
 20
112.19998168950001
 30
0.0
 11
-80.0
 21
112.19998168950001
 31
0.0
  0
LINE
  5
450
  8
LAYER1$C$L1
 62
     3
 10
-73.600006103500007
 20
135.3999786377
 30
0.0
 11
-73.600006103500007
 21
112.5999755859
 31
0.0
  0
LINE
  5
451
  8
LAYER1$C$L1
 62
     3
 10
-135.4997253418
 20
111.2571105957
 30
0.0
 11
-135.4997253418
 21
109.30006408689999
 31
0.0
  0
ARC
  5
452
  8
LAYER1$C$L1
 62
     3
 10
-74.000015258800005
 20
112.5999755859
 30
0.0
 40
0.3999999762
 50
270.00001798609998
 51
0.0
  0
CIRCLE
  5
453
  8
LAYER1$C$L1
 62
     3
 10
-43.0
 20
64.0
 30
0.0
 40
14.5
  0
CIRCLE
  5
454
  8
LAYER1$C$L1
 62
     3
 10
-43.0
 20
64.0
 30
0.0
 40
12.0
  0
CIRCLE
  5
455
  8
LAYER1$C$L1
 62
     3
 10
-43.0
 20
64.0
 30
0.0
 40
14.0
  0
ARC
  5
456
  8
LAYER1$C$L1
 62
     3
 10
-56.800003051799997
 20
47.000015258799998
 30
0.0
 40
1.0
 50
179.9999640277999
 51
269.9999460416999
  0
LINE
  5
457
  8
LAYER1$C$L1
 62
     3
 10
-73.600006103500007
 20
75.399978637700002
 30
0.0
 11
-73.600006103500007
 21
52.599975585900012
 31
0.0
  0
LINE
  5
458
  8
LAYER1$C$L1
 62
     3
 10
-135.63848876949999
 20
114.3500213622999
 30
0.0
 11
-136.15734863279999
 21
114.3500213622999
 31
0.0
  0
ARC
  5
459
  8
LAYER1$C$L1
 62
     3
 10
-56.800003051799997
 20
81.0
 30
0.0
 40
1.0
 50
89.999982013899995
 51
179.9999640277999
  0
LINE
  5
45A
  8
LAYER1$C$L1
 62
     3
 10
-135.63855550150001
 20
115.34991393669991
 30
0.0
 11
-134.5538693515999
 21
117.22864577830001
 31
0.0
  0
LINE
  5
45B
  8
LAYER1$C$L1
 62
     3
 10
-135.11476231980001
 20
113.4427708632
 30
0.0
 11
-135.6385354507
 21
114.34997269190001
 31
0.0
  0
ARC
  5
45C
  8
LAYER1$C$L1
 62
     3
 10
-29.20001220699999
 20
47.0
 30
0.0
 40
1.0
 50
270.00012726910001
 51
0.000072627600094
  0
LINE
  5
45D
  8
LAYER1$C$L1
 62
     3
 10
-135.63848876949999
 20
115.35000610349999
 30
0.0
 11
-136.15734863279999
 21
115.35000610349999
 31
0.0
  0
LINE
  5
45E
  8
LAYER1$C$L1
 62
     3
 10
-135.9272088171999
 20
114.84996971450001
 30
0.0
 11
-136.8388374317
 21
116.42895706100001
 31
0.0
  0
ARC
  5
45F
  8
LAYER1$C$L1
 62
     3
 10
-74.000015258800005
 20
135.3999786377
 30
0.0
 40
0.3999999762
 50
0.0
 51
89.999982013899995
  0
ARC
  5
460
  8
LAYER1$C$L1
 62
     3
 10
-74.000015258800005
 20
52.599975585900012
 30
0.0
 40
0.3999999762
 50
270.00001798609998
 51
0.0
  0
LINE
  5
461
  8
LAYER1$C$L1
 62
     3
 10
-74.000015258800005
 20
52.1999816895
 30
0.0
 11
-80.0
 21
52.1999816895
 31
0.0
  0
LINE
  5
462
  8
LAYER1$C$L1
 62
     3
 10
-74.000015258800005
 20
75.799972534199995
 30
0.0
 11
-80.0
 21
75.799972534199995
 31
0.0
  0
ARC
  5
463
  8
LAYER1$C$L1
 62
     3
 10
-74.000015258800005
 20
75.399978637700002
 30
0.0
 40
0.3999999762
 50
0.0
 51
89.999982013899995
  0
LINE
  5
464
  8
LAYER1$C$L1
 62
     3
 10
-135.4997253418
 20
129.29989624020001
 30
0.0
 11
-135.4997253418
 21
129.55686950680001
 31
0.0
  0
LINE
  5
465
  8
LAYER1$C$L1
 62
     3
 10
-130.6611328125
 20
138.70005798339989
 30
0.0
 11
-130.6611328125
 21
129.2999572754
 31
0.0
  0
LINE
  5
466
  8
LAYER1$C$L1
 62
     3
 10
-130.66110229489999
 20
137.40005493160001
 30
0.0
 11
-135.49966430660001
 21
137.40005493160001
 31
0.0
  0
LINE
  5
467
  8
LAYER1$C$L1
 62
     3
 10
-132.99966430660001
 20
137.39999389650001
 30
0.0
 11
-132.99966430660001
 21
138.69998168949999
 31
0.0
  0
LINE
  5
468
  8
LAYER1$C$L1
 62
     3
 10
-130.66110229489999
 20
130.3000793457
 30
0.0
 11
-121.49969482419991
 21
130.3000793457
 31
0.0
  0
LINE
  5
469
  8
LAYER1$C$L1
 62
     3
 10
-139.42584228519991
 20
129.29992675779991
 30
0.0
 11
-139.42584228519991
 21
138.69999694820001
 31
0.0
  0
LINE
  5
46A
  8
LAYER1$C$L1
 62
     3
 10
-134.50003051760001
 20
124.00007629389989
 30
0.0
 11
-134.50003051760001
 21
125.09996032710001
 31
0.0
  0
LINE
  5
46B
  8
LAYER1$C$L1
 62
     3
 10
-162.50003051760001
 20
138.79980468749989
 30
0.0
 11
-162.50003051760001
 21
109.19998168950001
 31
0.0
  0
LINE
  5
46C
  8
LAYER1$C$L1
 62
     3
 10
-169.30001831049989
 20
109.19998168950001
 30
0.0
 11
-141.50003051760001
 21
109.19998168950001
 31
0.0
  0
LINE
  5
46D
  8
LAYER1$C$L1
 62
     3
 10
-152.20004272459991
 20
114.0000305175999
 30
0.0
 11
-170.30001831049989
 21
114.0000305175999
 31
0.0
  0
LINE
  5
46E
  8
LAYER1$C$L1
 62
     3
 10
-152.90003967289999
 20
118.69998168949989
 30
0.0
 11
-152.90003967289999
 21
114.0000305175999
 31
0.0
  0
LINE
  5
46F
  8
LAYER1$C$L1
 62
     3
 10
-152.20004272459991
 20
114.0000305175999
 30
0.0
 11
-152.20004272459991
 21
109.19998168950001
 31
0.0
  0
LINE
  5
470
  8
LAYER1$C$L1
 62
     3
 10
-152.90003967289999
 20
118.69998168949989
 30
0.0
 11
-141.50003051760001
 21
118.69998168949989
 31
0.0
  0
LINE
  5
471
  8
LAYER1$C$L1
 62
     3
 10
-142.50003051760001
 20
129.29980468749989
 30
0.0
 11
-142.50003051760001
 21
118.69998168949989
 31
0.0
  0
LINE
  5
472
  8
LAYER1$C$L1
 62
     3
 10
-143.50003051760001
 20
129.29980468749989
 30
0.0
 11
-143.50003051760001
 21
118.69998168949989
 31
0.0
  0
LINE
  5
473
  8
LAYER1$C$L1
 62
     3
 10
-141.50003051760001
 20
138.79980468749989
 30
0.0
 11
-141.50003051760001
 21
128.19979858400001
 31
0.0
  0
LINE
  5
474
  8
LAYER1$C$L1
 62
     3
 10
-141.50003051760001
 20
138.79980468749989
 30
0.0
 11
-169.30001831049989
 21
138.79980468749989
 31
0.0
  0
LINE
  5
475
  8
LAYER1$C$L1
 62
     3
 10
-170.30001831049989
 20
133.99981689449999
 30
0.0
 11
-152.20004272459991
 21
133.99981689449999
 31
0.0
  0
LINE
  5
476
  8
LAYER1$C$L1
 62
     3
 10
-152.90003967289999
 20
133.99981689449999
 30
0.0
 11
-152.90003967289999
 21
129.29980468749989
 31
0.0
  0
LINE
  5
477
  8
LAYER1$C$L1
 62
     3
 10
-152.20004272459991
 20
138.79980468749989
 30
0.0
 11
-152.20004272459991
 21
133.99981689449999
 31
0.0
  0
LINE
  5
478
  8
LAYER1$C$L1
 62
     3
 10
-141.50003051760001
 20
129.29980468749989
 30
0.0
 11
-152.90003967289999
 21
129.29980468749989
 31
0.0
  0
LINE
  5
479
  8
LAYER1$C$L1
 62
     3
 10
-170.30001831049989
 20
137.79980468749989
 30
0.0
 11
-170.30001831049989
 21
110.19998168950001
 31
0.0
  0
LINE
  5
47A
  8
LAYER1$C$L1
 62
     3
 10
-166.50003051760001
 20
127.9998168945
 30
0.0
 11
-166.50003051760001
 21
120.0000305175999
 31
0.0
  0
LINE
  5
47B
  8
LAYER1$C$L1
 62
     3
 10
-166.50003051760001
 20
120.0000305175999
 30
0.0
 11
-170.30001831049989
 21
120.0000305175999
 31
0.0
  0
LINE
  5
47C
  8
LAYER1$C$L1
 62
     3
 10
-168.50003051760001
 20
120.0000305175999
 30
0.0
 11
-168.50003051760001
 21
127.9998168945
 31
0.0
  0
LINE
  5
47D
  8
LAYER1$C$L1
 62
     3
 10
-173.30001831049989
 20
124.6998138428
 30
0.0
 11
-173.30001831049989
 21
112.8000335692999
 31
0.0
  0
LINE
  5
47E
  8
LAYER1$C$L1
 62
     3
 10
-170.30001831049989
 20
112.5000305176
 30
0.0
 11
-177.19999694820001
 21
112.5000305176
 31
0.0
  0
LINE
  5
47F
  8
LAYER1$C$L1
 62
     3
 10
-179.5000152588
 20
124.6998291016
 30
0.0
 11
-179.5000152588
 21
123.2998352050999
 31
0.0
  0
LINE
  5
480
  8
LAYER1$C$L1
 62
     3
 10
-179.20001220699999
 20
122.9998474120999
 30
0.0
 11
-170.30001831049989
 21
122.9998474120999
 31
0.0
  0
LINE
  5
481
  8
LAYER1$C$L1
 62
     3
 10
-170.30001831049989
 20
127.9998168945
 30
0.0
 11
-166.50003051760001
 21
127.9998168945
 31
0.0
  0
LINE
  5
482
  8
LAYER1$C$L1
 62
     3
 10
-173.30001831049989
 20
133.99981689449999
 30
0.0
 11
-173.30001831049989
 21
124.9998168945
 31
0.0
  0
LINE
  5
483
  8
LAYER1$C$L1
 62
     3
 10
-175.5
 20
135.49981689449999
 30
0.0
 11
-170.30000305179991
 21
135.49981689449999
 31
0.0
  0
LINE
  5
484
  8
LAYER1$C$L1
 62
     3
 10
-170.30001831049989
 20
124.9998168945
 30
0.0
 11
-179.19995117190001
 21
124.9998168945
 31
0.0
  0
LINE
  5
485
  8
LAYER1$C$L1
 62
     3
 10
-175.0000152588
 20
121.9998474120999
 30
0.0
 11
-175.0000152588
 21
115.0000305175999
 31
0.0
  0
LINE
  5
486
  8
LAYER1$C$L1
 62
     3
 10
-174.42263793949999
 20
114.5000305176
 30
0.0
 11
-173.30001831049989
 21
114.5000305176
 31
0.0
  0
LINE
  5
487
  8
LAYER1$C$L1
 62
     3
 10
-173.30001831049989
 20
122.4998474121
 30
0.0
 11
-174.42263793949999
 21
122.4998474121
 31
0.0
  0
LINE
  5
488
  8
LAYER1$C$L1
 62
     3
 10
-175.54667663570001
 20
121.9998474120999
 30
0.0
 11
-175.0000152588
 21
121.9998474120999
 31
0.0
  0
LINE
  5
489
  8
LAYER1$C$L1
 62
     3
 10
-175.54667663570001
 20
115.0000305175999
 30
0.0
 11
-175.0000152588
 21
115.0000305175999
 31
0.0
  0
LINE
  5
48A
  8
LAYER1$C$L1
 62
     3
 10
-174.99993360479991
 20
121.4998954589
 30
0.0
 11
-174.42256905629989
 21
122.49989679940001
 31
0.0
  0
LINE
  5
48B
  8
LAYER1$C$L1
 62
     3
 10
-174.99999720619991
 20
115.5001389249
 30
0.0
 11
-174.42259499179991
 21
114.5000712369
 31
0.0
  0
LINE
  5
48C
  8
LAYER1$C$L1
 62
     3
 10
-173.80001831049989
 20
117.2500305175999
 30
0.0
 11
-173.80001831049989
 21
119.7500305176
 31
0.0
  0
LINE
  5
48D
  8
LAYER1$C$L1
 62
     3
 10
-173.79986727439999
 20
117.2499275202
 30
0.0
 11
-173.29985535349991
 21
116.3839089864999
 31
0.0
  0
LINE
  5
48E
  8
LAYER1$C$L1
 62
     3
 10
-173.7999421513999
 20
119.74992794409989
 30
0.0
 11
-173.29994507239999
 21
120.6159198106
 31
0.0
  0
LINE
  5
48F
  8
LAYER1$C$L1
 62
     3
 10
-173.30000305179999
 20
133.99981689449999
 30
0.0
 11
-173.30000305179999
 21
124.9998168945
 31
0.0
  0
LINE
  5
490
  8
LAYER1$C$L1
 62
     3
 10
-175.80000305179991
 20
135.1998291015999
 30
0.0
 11
-175.80000305179991
 21
134.29983520510001
 31
0.0
  0
LINE
  5
491
  8
LAYER1$C$L1
 62
     3
 10
-173.30000305179999
 20
133.99981689449999
 30
0.0
 11
-175.5
 21
133.99981689449999
 31
0.0
  0
LINE
  5
492
  8
LAYER1$C$L1
 62
     3
 10
-173.30000305179999
 20
114.0000305175999
 30
0.0
 11
-177.19999694820001
 21
114.0000305175999
 31
0.0
  0
LINE
  5
493
  8
LAYER1$C$L1
 62
     3
 10
-177.5
 20
112.8000793456999
 30
0.0
 11
-177.5
 21
113.69998168950001
 31
0.0
  0
LINE
  5
494
  8
LAYER1$C$L1
 62
     3
 10
-175.0000305175999
 20
132.99981689449999
 30
0.0
 11
-175.0000305175999
 21
125.9998168945
 31
0.0
  0
LINE
  5
495
  8
LAYER1$C$L1
 62
     3
 10
-173.30003356930001
 20
133.49981689449999
 30
0.0
 11
-174.42265319820001
 21
133.49981689449999
 31
0.0
  0
LINE
  5
496
  8
LAYER1$C$L1
 62
     3
 10
-174.42265319820001
 20
125.4998168945
 30
0.0
 11
-173.30003356930001
 21
125.4998168945
 31
0.0
  0
LINE
  5
497
  8
LAYER1$C$L1
 62
     3
 10
-175.0000305175999
 20
125.9998168945
 30
0.0
 11
-175.54669189449999
 21
125.9998168945
 31
0.0
  0
LINE
  5
498
  8
LAYER1$C$L1
 62
     3
 10
-175.0000305175999
 20
132.99981689449999
 30
0.0
 11
-175.54669189449999
 21
132.99981689449999
 31
0.0
  0
LINE
  5
499
  8
LAYER1$C$L1
 62
     3
 10
-174.42247980689999
 20
125.49998728910001
 30
0.0
 11
-174.99978331919991
 21
126.4998829143
 31
0.0
  0
LINE
  5
49A
  8
LAYER1$C$L1
 62
     3
 10
-174.4225741324
 20
133.49987375360001
 30
0.0
 11
-174.9999381991999
 21
132.49987213779991
 31
0.0
  0
LINE
  5
49B
  8
LAYER1$C$L1
 62
     3
 10
-173.80003356930001
 20
128.24981689449999
 30
0.0
 11
-173.80003356930001
 21
130.74981689449999
 31
0.0
  0
LINE
  5
49C
  8
LAYER1$C$L1
 62
     3
 10
-173.3000250046
 20
131.6159322801
 30
0.0
 11
-173.8000216664
 21
130.74994017520001
 31
0.0
  0
LINE
  5
49D
  8
LAYER1$C$L1
 62
     3
 10
-173.2998183000999
 20
127.3837898445
 30
0.0
 11
-173.79983063820001
 21
128.24980813969989
 31
0.0
  0
LINE
  5
49E
  8
LAYER1$C$L1
 62
     3
 10
-141.50003051760001
 20
125.0997924804999
 30
0.0
 11
-141.50003051760001
 21
122.89981079099999
 31
0.0
  0
LINE
  5
49F
  8
LAYER1$C$L1
 62
     3
 10
-141.50003051760001
 20
119.7998352051
 30
0.0
 11
-141.50003051760001
 21
109.19998168950001
 31
0.0
  0
LINE
  5
4A0
  8
LAYER1$C$L1
 62
     3
 10
-133.10000610349991
 20
122.9000091553
 30
0.0
 11
-133.10000610349991
 21
125.09996032710001
 31
0.0
  0
LINE
  5
4A1
  8
LAYER1$C$L1
 62
     3
 10
-141.5
 20
82.499954223599985
 30
0.0
 11
-141.5
 21
45.500015258799991
 31
0.0
  0
LINE
  5
4A2
  8
LAYER1$C$L1
 62
     3
 10
-141.5
 20
82.499954223599985
 30
0.0
 11
-142.49998474119991
 21
82.499954223599985
 31
0.0
  0
LINE
  5
4A3
  8
LAYER1$C$L1
 62
     3
 10
-143.4999847412
 20
82.299942016599999
 30
0.0
 11
-162.49998474119991
 21
82.299942016599999
 31
0.0
  0
LINE
  5
4A4
  8
LAYER1$C$L1
 62
     3
 10
-143.50001436999989
 20
82.29998495529999
 30
0.0
 11
-142.50001476200001
 21
82.499997034000003
 31
0.0
  0
LINE
  5
4A5
  8
LAYER1$C$L1
 62
     3
 10
-141.49998877559989
 20
77.000078629200004
 30
0.0
 11
-152.86578799689991
 21
82.300037029899997
 31
0.0
  0
LINE
  5
4A6
  8
LAYER1$C$L1
 62
     3
 10
-169.29997253420001
 20
81.9999542236
 30
0.0
 11
-152.22253417970001
 21
81.9999542236
 31
0.0
  0
LINE
  5
4A7
  8
LAYER1$C$L1
 62
     3
 10
-162.49998474119991
 20
45.700210571299991
 30
0.0
 11
-162.49998474119991
 21
82.299942016599999
 31
0.0
  0
LINE
  5
4A8
  8
LAYER1$C$L1
 62
     3
 10
-142.49998474119991
 20
45.500015258799991
 30
0.0
 11
-141.5
 21
45.500015258799991
 31
0.0
  0
LINE
  5
4A9
  8
LAYER1$C$L1
 62
     3
 10
-162.49998474119991
 20
45.700210571299991
 30
0.0
 11
-143.4999847412
 21
45.700210571299991
 31
0.0
  0
LINE
  5
4AA
  8
LAYER1$C$L1
 62
     3
 10
-142.5000267314
 20
45.500054551099993
 30
0.0
 11
-143.50002633930001
 21
45.700066629699997
 31
0.0
  0
LINE
  5
4AB
  8
LAYER1$C$L1
 62
     3
 10
-152.86594393620001
 20
45.700425025400001
 30
0.0
 11
-141.5001447148999
 21
51.000383426099987
 31
0.0
  0
LINE
  5
4AC
  8
LAYER1$C$L1
 62
     3
 10
-152.22253417970001
 20
46.000015258799991
 30
0.0
 11
-169.29997253420001
 21
46.000015258799991
 31
0.0
  0
LINE
  5
4AD
  8
LAYER1$C$L1
 62
     3
 10
-170.29997253420001
 20
80.999954223600014
 30
0.0
 11
-170.29997253420001
 21
47.000015258799998
 31
0.0
  0
LINE
  5
4AE
  8
LAYER1$C$L1
 62
     3
 10
-179.49998474119991
 20
58.719253539999997
 30
0.0
 11
-179.49998474119991
 21
49.350357055699988
 31
0.0
  0
LINE
  5
4AF
  8
LAYER1$C$L1
 62
     3
 10
-178.66092143520001
 20
48.363209088799998
 30
0.0
 11
-170.29999374269991
 21
47.0000162993
 31
0.0
  0
LINE
  5
4B0
  8
LAYER1$C$L1
 62
     3
 10
-178.74256927019999
 20
59.6896878871
 30
0.0
 11
-177.50003311219999
 21
60.000321888400002
 31
0.0
  0
LINE
  5
4B1
  8
LAYER1$C$L1
 62
     3
 10
-177.49998474119991
 20
72.9999542236
 30
0.0
 11
-177.49998474119991
 21
60.000015258799998
 31
0.0
  0
LINE
  5
4B2
  8
LAYER1$C$L1
 62
     3
 10
-172.2999725341999
 20
80.099945068400004
 30
0.0
 11
-170.29997253420001
 21
80.099945068400004
 31
0.0
  0
LINE
  5
4B3
  8
LAYER1$C$L1
 62
     3
 10
-173.2999725341999
 20
79.099945068400004
 30
0.0
 11
-173.2999725341999
 21
73.999954223599985
 31
0.0
  0
LINE
  5
4B4
  8
LAYER1$C$L1
 62
     3
 10
-173.2999725341999
 20
73.999954223599985
 30
0.0
 11
-176.49998474119991
 21
73.999954223599985
 31
0.0
  0
LINE
  5
4B5
  8
LAYER1$C$L1
 62
     3
 10
-170.29997253420001
 20
67.899948120100007
 30
0.0
 11
-176.49998474119991
 21
67.899948120100007
 31
0.0
  0
LINE
  5
4B6
  8
LAYER1$C$L1
 62
     3
 10
-176.19998168949999
 20
77.4999542236
 30
0.0
 11
-176.19998168949999
 21
73.999954223599985
 31
0.0
  0
LINE
  5
4B7
  8
LAYER1$C$L1
 62
     3
 10
-176.71235656740001
 20
77.4999542236
 30
0.0
 11
-176.19998168949999
 21
77.4999542236
 31
0.0
  0
LINE
  5
4B8
  8
LAYER1$C$L1
 62
     3
 10
-174.49996948239999
 20
77.9999542236
 30
0.0
 11
-174.49996948239999
 21
73.999954223599985
 31
0.0
  0
LINE
  5
4B9
  8
LAYER1$C$L1
 62
     3
 10
-175.99996948239999
 20
76.9999542236
 30
0.0
 11
-175.99996948239999
 21
73.999954223599985
 31
0.0
  0
LINE
  5
4BA
  8
LAYER1$C$L1
 62
     3
 10
-175.4226074218999
 20
77.9999542236
 30
0.0
 11
-174.49995422360001
 21
77.9999542236
 31
0.0
  0
LINE
  5
4BB
  8
LAYER1$C$L1
 62
     3
 10
-175.99991209090001
 20
76.999982370500007
 30
0.0
 11
-175.4225496071
 21
77.999984949899996
 31
0.0
  0
LINE
  5
4BC
  8
LAYER1$C$L1
 62
     3
 10
-173.2999725341999
 20
75.7499542236
 30
0.0
 11
-174.49996948239999
 21
75.7499542236
 31
0.0
  0
LINE
  5
4BD
  8
LAYER1$C$L1
 62
     3
 10
-175.99996948239999
 20
75.7499542236
 30
0.0
 11
-176.19998168949999
 21
75.7499542236
 31
0.0
  0
LINE
  5
4BE
  8
LAYER1$C$L1
  6
PHANTOM
 62
     3
 10
-182.49998474119991
 20
46.100006103500007
 30
0.0
 11
-182.49998474119991
 21
81.899963378899983
 31
0.0
  0
LINE
  5
4BF
  8
LAYER1$C$L1
  6
PHANTOM
 62
     3
 10
-181.5000152588
 20
82.899993896499993
 30
0.0
 11
-164.0000457763999
 21
82.899993896499993
 31
0.0
  0
LINE
  5
4C0
  8
LAYER1$C$L1
  6
PHANTOM
 62
     3
 10
-181.5000152588
 20
62.0
 30
0.0
 11
-179.5000305175999
 21
62.0
 31
0.0
  0
LINE
  5
4C1
  8
LAYER1$C$L1
  6
PHANTOM
 62
     3
 10
-164.0000152588
 20
45.100036621099989
 30
0.0
 11
-164.0000152588
 21
46.000030517600003
 31
0.0
  0
LINE
  5
4C2
  8
LAYER1$C$L1
  6
PHANTOM
 62
     3
 10
-170.0998535155999
 20
82.000015258800005
 30
0.0
 11
-164.0000457763999
 21
82.000015258800005
 31
0.0
  0
LINE
  5
4C3
  8
LAYER1$C$L1
  6
PHANTOM
 62
     3
 10
-170.09983825680001
 20
46.0
 30
0.0
 11
-164.0000457763999
 21
46.0
 31
0.0
  0
LINE
  5
4C4
  8
LAYER1$C$L1
  6
PHANTOM
 62
     3
 10
-179.5000305175999
 20
47.0
 30
0.0
 11
-171.09983825680001
 21
47.0
 31
0.0
  0
LINE
  5
4C5
  8
LAYER1$C$L1
  6
PHANTOM
 62
     3
 10
-171.0998840332
 20
80.999984741199995
 30
0.0
 11
-179.5000305175999
 21
80.999984741199995
 31
0.0
  0
LINE
  5
4C6
  8
LAYER1$C$L1
  6
PHANTOM
 62
     3
 10
-170.0998655203
 20
45.999994885200003
 30
0.0
 11
-171.09984500269991
 21
46.999974367599997
 31
0.0
  0
LINE
  5
4C7
  8
LAYER1$C$L1
  6
PHANTOM
 62
     3
 10
-171.09988816099991
 20
80.999988882400004
 30
0.0
 11
-170.09983315150001
 21
82.000043891999994
 31
0.0
  0
LINE
  5
4C8
  8
LAYER1$C$L1
  6
PHANTOM
 62
     3
 10
-164.0000152588
 20
81.999984741199995
 30
0.0
 11
-164.0000152588
 21
82.899963378899997
 31
0.0
  0
LINE
  5
4C9
  8
LAYER1$C$L1
  6
PHANTOM
 62
     3
 10
-179.5000305175999
 20
73.999984741199995
 30
0.0
 11
-178.49987792970001
 21
73.999984741199995
 31
0.0
  0
LINE
  5
4CA
  8
LAYER1$C$L1
  6
PHANTOM
 62
     3
 10
-179.49999999999989
 20
45.1000061035
 30
0.0
 11
-179.49999999999989
 21
82.899963378899997
 31
0.0
  0
LINE
  5
4CB
  8
LAYER1$C$L1
  6
PHANTOM
 62
     3
 10
-170.2999572754
 20
54.599990844700002
 30
0.0
 11
-170.2999572754
 21
63.399993896499993
 31
0.0
  0
DIMENSION
  5
4CC
  8
LAYER9$C$L9
 62
     3
  2
*D26
 10
-67.600006103500007
 20
112.19998168950001
 30
0.0
 11
-67.600006103500021
 21
123.99997711185
 31
0.0
 70
     0
  1
%%c<>
 13
-74.000015258800005
 23
135.79997253420001
 33
0.0
 14
-74.000015258800005
 24
112.19998168950001
 34
0.0
 50
270.0
1001
ACAD
1000
DSTYLE
1002
{
1070
    41
1040
1.972787845999999
1070
    42
1040
2.5399999618999991
1070
    44
1040
3.8099999427999989
1070
    73
1070
     0
1070
   140
1040
2.9999940394999989
1070
   271
1070
     1
1070
   272
1070
     1
1002
}
  0
TEXT
  5
4DF
  8
LAYER8$C$L8
 62
     3
 10
-108.8
 20
206.1999999999999
 30
0.0
 40
2.999994089499999
  1

 72
     5
 11
-108.8
 21
206.1999999999999
 31
0.0
  0
TEXT
  5
4E0
  8
LAYER8$C$L8
 62
     3
 10
-108.8
 20
206.1999999999999
 30
0.0
 40
2.999994089499999
  1

 72
     5
 11
-108.8
 21
206.1999999999999
 31
0.0
  0
TEXT
  5
505
  8
LAYER8$C$L8
 10
-30.376115553799991
 20
113.3474108149999
 30
0.0
 40
3.0
  1

 72
     5
 11
-30.376115553799991
 21
113.3474108149999
 31
0.0
  0
TEXT
  5
508
  8
LAYER8$C$L8
 10
-30.376115553799991
 20
113.3474108149999
 30
0.0
 40
3.0
  1

 72
     5
 11
-30.376115553799991
 21
113.3474108149999
 31
0.0
  0
TEXT
  5
50A
  8
LAYER8$C$L8
 10
-30.376115553799991
 20
113.3474108149999
 30
0.0
 40
3.0
  1

 72
     5
 11
-30.376115553799991
 21
113.3474108149999
 31
0.0
  0
TEXT
  5
50C
  8
LAYER8$C$L8
 10
-30.376115553799991
 20
113.3474108149999
 30
0.0
 40
3.0
  1

 72
     5
 11
-30.376115553799991
 21
113.3474108149999
 31
0.0
  0
TEXT
  5
50E
  8
LAYER8$C$L8
 10
-30.376115553799991
 20
113.3474108149999
 30
0.0
 40
3.0
  1

 72
     5
 11
-30.376115553799991
 21
113.3474108149999
 31
0.0
  0
POINT
  5
510
  8
LAYER0$C$L0
 10
-32.47364799999999
 20
138.57028099999991
 30
0.0
  0
LINE
  5
511
  8
LAYER1$C$L1
  6
CENTER
 10
-32.47364799999999
 20
152.7202806185
 30
0.0
 11
-32.47364799999999
 21
124.4202813814999
 31
0.0
  0
LINE
  5
512
  8
LAYER1$C$L1
  6
CENTER
 10
-46.623647618499987
 20
138.57028099999991
 30
0.0
 11
-18.3236483815
 21
138.57028099999991
 31
0.0
  0
LINE
  5
513
  8
LAYER1$C$L1
 10
-33.273666310499991
 20
151.5702657411999
 30
0.0
 11
-31.67366020699999
 21
151.5702657411999
 31
0.0
  0
LINE
  5
514
  8
LAYER1$C$L1
 10
-34.07365410349999
 20
150.77026268949999
 30
0.0
 11
-34.07365410349999
 21
149.5543508241999
 31
0.0
  0
LINE
  5
515
  8
LAYER1$C$L1
 10
-30.873657155299991
 20
150.77026268949999
 30
0.0
 11
-30.873657155299991
 21
149.5543508241999
 31
0.0
  0
ARC
  5
516
  8
LAYER1$C$L1
 10
-33.273666310499991
 20
150.77026268949999
 30
0.0
 40
0.7999999523000002
 50
89.999982013899967
 51
179.9999640278007
  0
ARC
  5
517
  8
LAYER1$C$L1
 10
-31.67366020699999
 20
150.77026268949999
 30
0.0
 40
0.7999999523000002
 50
0.0
 51
89.999982013899967
  0
ARC
  5
518
  8
LAYER1$C$L1
 10
-32.47364799999999
 20
138.57028099999991
 30
0.0
 40
11.14999961849999
 50
98.250304116200127
 51
81.749697250299789
  0
DIMENSION
  5
519
  8
LAYER9$C$L9
  2
*D27
 10
-15.32365410349999
 20
127.4702748964999
 30
0.0
 11
-15.32365410350001
 21
139.52027031885001
 31
0.0
 70
     0
  1
<>+0.4
 13
-30.873657155299991
 23
151.5702657411999
 33
0.0
 14
-32.47364799999999
 24
127.4702748965
 34
0.0
 50
270.0
1001
ACAD
1000
DSTYLE
1002
{
1070
    41
1040
1.972787845999999
1070
    42
1040
2.5399999618999991
1070
    44
1040
3.8099999427999989
1070
    73
1070
     0
1070
   140
1040
2.9999940394999989
1070
   271
1070
     1
1070
   272
1070
     1
1002
}
  0
DIMENSION
  5
51A
  8
LAYER9$C$L9
  2
*D28
 10
-30.873657155299991
 20
157.5702657411999
 30
0.0
 11
-17.588099841508331
 21
157.5702657411999
 31
0.0
 70
     1
  1
*<>+0.2
 13
-34.07365410349999
 23
150.77026268949999
 33
0.0
 14
-30.873657155299991
 24
150.77026268949999
 34
0.0
1001
ACAD
1000
DSTYLE
1002
{
1070
    41
1040
1.972787845999999
1070
    42
1040
2.5399999618999991
1070
    44
1040
3.8099999427999989
1070
    73
1070
     0
1070
   140
1040
2.9999940394999989
1070
   271
1070
     1
1070
   272
1070
     1
1002
}
  0
DIMENSION
  5
51B
  8
LAYER9$C$L9
  2
*D29
 10
-42.164128114500009
 20
133.0535244573
 30
0.0
 11
-5.0415547904564297
 21
146.03593307661691
 31
0.0
 70
     3
  1
%%c<>+0.4
 15
-22.78338477200003
 25
144.08424902009989
 35
0.0
 40
0.0
1001
ACAD
1000
DSTYLE
1002
{
1070
    41
1040
1.972787845999999
1070
    42
1040
2.5399999618999991
1070
    44
1040
3.8099999427999989
1070
    73
1070
     0
1070
   140
1040
2.9999940394999989
1070
   271
1070
     1
1070
   272
1070
     1
1002
}
  0
DIMENSION
  5
51C
  8
LAYER9$C$L9
  2
*D30
 10
-31.673777637299981
 20
150.76943482399989
 30
0.0
 11
-15.20261086065859
 21
153.0559360255217
 31
0.0
 70
     4
  1
R<>MAX
 15
-30.972771621799989
 25
151.1548838832999
 35
0.0
 40
0.0
1001
ACAD
1000
DSTYLE
1002
{
1070
    41
1040
1.972787845999999
1070
    42
1040
2.5399999618999991
1070
    44
1040
3.8099999427999989
1070
    73
1070
     0
1070
   140
1040
2.9999940394999989
1070
   271
1070
     1
1070
   272
1070
     1
1002
}
  0
INSERT
  5
6A0
  8
0
  2
*U34
 10
0.0
 20
0.0
 30
0.0
  0
ENDSEC
  0
EOF
