  0
SECTION
  2
HEADER
  9
$ACADVER
  1
AC1009
  9
$INSBASE
 10
0.0
 20
0.0
 30
0.0
  9
$EXTMIN
 10
-182.9999847412
 20
15.99999999999998
 30
0.0
  9
$EXTMAX
 10
0.9273095006985881
 20
159.34767202023431
 30
0.0
  9
$LIMMIN
 10
-215.17524414059989
 20
-3.1749999999999989
  9
$LIMMAX
 10
3.1749999999999989
 20
300.17500000000001
  9
$ORTHOMODE
 70
     0
  9
$REGENMODE
 70
     1
  9
$FILLMODE
 70
     1
  9
$QTEXTMODE
 70
     0
  9
$MIRRTEXT
 70
     0
  9
$DRAGMODE
 70
     2
  9
$LTSCALE
 40
1.0
  9
$OSMODE
 70
    39
  9
$ATTMODE
 70
     1
  9
$TEXTSIZE
 40
3.1999998092999991
  9
$TRACEWID
 40
0.05
  9
$TEXTSTYLE
  7
STANDARD
  9
$CLAYER
  8
0
  9
$CELTYPE
  6
BYLAYER
  9
$CECOLOR
 62
   256
  9
$DIMSCALE
 40
1.0
  9
$DIMASZ
 40
1.9727878464999999
  9
$DIMEXO
 40
2.5399999618999991
  9
$DIMDLI
 40
0.38
  9
$DIMRND
 40
0.0
  9
$DIMDLE
 40
0.0
  9
$DIMEXE
 40
3.8099999427999989
  9
$DIMTP
 40
0.0
  9
$DIMTM
 40
0.0
  9
$DIMTXT
 40
3.1999998092999991
  9
$DIMCEN
 40
0.09
  9
$DIMTSZ
 40
0.0
  9
$DIMTOL
 70
     0
  9
$DIMLIM
 70
     0
  9
$DIMTIH
 70
     0
  9
$DIMTOH
 70
     1
  9
$DIMSE1
 70
     0
  9
$DIMSE2
 70
     0
  9
$DIMTAD
 70
     0
  9
$DIMZIN
 70
     0
  9
$DIMBLK
  1

  9
$DIMASO
 70
     1
  9
$DIMSHO
 70
     0
  9
$DIMPOST
  1

  9
$DIMAPOST
  1

  9
$DIMALT
 70
     0
  9
$DIMALTD
 70
     2
  9
$DIMALTF
 40
25.399999999999999
  9
$DIMLFAC
 40
1.0
  9
$DIMTOFL
 70
     0
  9
$DIMTVP
 40
0.0
  9
$DIMTIX
 70
     0
  9
$DIMSOXD
 70
     0
  9
$DIMSAH
 70
     0
  9
$DIMBLK1
  1

  9
$DIMBLK2
  1

  9
$DIMSTYLE
  2
STANDARD
  9
$DIMCLRD
 70
     0
  9
$DIMCLRE
 70
     0
  9
$DIMCLRT
 70
     0
  9
$DIMTFAC
 40
1.0
  9
$DIMGAP
 40
0.09
  9
$LUNITS
 70
     2
  9
$LUPREC
 70
     3
  9
$SKETCHINC
 40
0.1
  9
$FILLETRAD
 40
0.0625
  9
$AUNITS
 70
     0
  9
$AUPREC
 70
     0
  9
$MENU
  1
ACAD
  9
$ELEVATION
 40
0.0
  9
$PELEVATION
 40
0.0
  9
$THICKNESS
 40
0.0
  9
$LIMCHECK
 70
     0
  9
$BLIPMODE
 70
     0
  9
$CHAMFERA
 40
0.0
  9
$CHAMFERB
 40
0.0
  9
$SKPOLY
 70
     0
  9
$TDCREATE
 40
2452011.4003009261
  9
$TDUPDATE
 40
2452374.7970160069
  9
$TDINDWG
 40
0.071524838
  9
$TDUSRTIMER
 40
0.0715244907
  9
$USRTIMER
 70
     1
  9
$ANGBASE
 50
0.0
  9
$ANGDIR
 70
     0
  9
$PDMODE
 70
     0
  9
$PDSIZE
 40
0.0
  9
$PLINEWID
 40
0.0
  9
$COORDS
 70
     1
  9
$SPLFRAME
 70
     0
  9
$SPLINETYPE
 70
     6
  9
$SPLINESEGS
 70
     8
  9
$ATTDIA
 70
     0
  9
$ATTREQ
 70
     1
  9
$HANDLING
 70
  4097
  9
$HANDSEED
  5
70D
  9
$SURFTAB1
 70
     6
  9
$SURFTAB2
 70
     6
  9
$SURFTYPE
 70
     6
  9
$SURFU
 70
     6
  9
$SURFV
 70
     6
  9
$UCSNAME
  2

  9
$UCSORG
 10
0.0
 20
0.0
 30
0.0
  9
$UCSXDIR
 10
1.0
 20
0.0
 30
0.0
  9
$UCSYDIR
 10
0.0
 20
1.0
 30
0.0
  9
$PUCSNAME
  2

  9
$PUCSORG
 10
0.0
 20
0.0
 30
0.0
  9
$PUCSXDIR
 10
1.0
 20
0.0
 30
0.0
  9
$PUCSYDIR
 10
0.0
 20
1.0
 30
0.0
  9
$USERI1
 70
     0
  9
$USERI2
 70
     0
  9
$USERI3
 70
     0
  9
$USERI4
 70
     0
  9
$USERI5
 70
     0
  9
$USERR1
 40
0.0
  9
$USERR2
 40
0.0
  9
$USERR3
 40
0.0
  9
$USERR4
 40
0.0
  9
$USERR5
 40
0.0
  9
$WORLDVIEW
 70
     1
  9
$SHADEDGE
 70
     3
  9
$SHADEDIF
 70
    70
  9
$TILEMODE
 70
     1
  9
$MAXACTVP
 70
    64
  9
$PLIMCHECK
 70
     0
  9
$PEXTMIN
 10
1.0000000000000000E+020
 20
1.0000000000000000E+020
 30
1.0000000000000000E+020
  9
$PEXTMAX
 10
-1.0000000000000000E+020
 20
-1.0000000000000000E+020
 30
-1.0000000000000000E+020
  9
$PLIMMIN
 10
0.0
 20
0.0
  9
$PLIMMAX
 10
12.0
 20
9.0
  9
$UNITMODE
 70
     0
  9
$VISRETAIN
 70
     1
  9
$PLINEGEN
 70
     0
  9
$PSLTSCALE
 70
     1
  0
ENDSEC
  0
SECTION
  2
TABLES
  0
TABLE
  2
VPORT
 70
     2
  0
VPORT
  2
*ACTIVE
 70
     0
 10
0.0
 20
0.0
 11
1.0
 21
1.0
 12
-90.473399792063447
 22
90.246848706793344
 13
0.0
 23
0.0
 14
1.0
 24
1.0
 15
0.0
 25
0.0
 16
0.0
 26
0.0
 36
1.0
 17
0.0
 27
0.0
 37
0.0
 40
166.11753440693391
 41
1.565365025466892
 42
50.0
 43
0.0
 44
0.0
 50
0.0
 51
0.0
 71
     0
 72
   100
 73
     1
 74
     1
 75
     0
 76
     0
 77
     0
 78
     0
  0
ENDTAB
  0
TABLE
  2
LTYPE
 70
     6
  0
LTYPE
  2
CONTINUOUS
 70
     0
  3
Solid line
 72
    65
 73
     0
 40
0.0
  0
LTYPE
  2
SOLID
 70
     0
  3
Solid
 72
    65
 73
     0
 40
0.0
  0
LTYPE
  2
DASHED
 70
     0
  3
Dashed
 72
    65
 73
     2
 40
4.7625000000000002
 49
3.1749999999999989
 49
-1.587499999999999
  0
LTYPE
  2
CENTERLINE
 70
     0
  3
Centerline
 72
    65
 73
     4
 40
25.399999999999999
 49
19.050000000000001
 49
-1.587499999999999
 49
3.1749999999999989
 49
-1.587499999999999
  0
LTYPE
  2
CONSTRUCTION
 70
     0
  3
Construction
 72
    65
 73
     2
 40
1.016
 49
0.254
 49
-0.762
  0
LTYPE
  2
GAP
 70
     0
  3
Gap
 72
    65
 73
     3
 40
2540.9999980092002
 49
0.0
 49
-0.9999980092000002
 49
2540.0
  0
ENDTAB
  0
TABLE
  2
LAYER
 70
     9
  0
LAYER
  2
0
 70
     0
 62
     7
  6
CONTINUOUS
  0
LAYER
  2
LAYER1$C$L1
 70
     0
 62
     3
  6
SOLID
  0
LAYER
  2
LAYER2$C$L2
 70
     0
 62
     3
  6
SOLID
  0
LAYER
  2
LAYER3$C$L3
 70
     0
 62
     3
  6
SOLID
  0
LAYER
  2
LAYER6$C$L6
 70
     0
 62
     6
  6
SOLID
  0
LAYER
  2
LAYER8$C$L8
 70
     0
 62
    32
  6
SOLID
  0
LAYER
  2
LAYER9$C$L9
 70
     0
 62
     1
  6
SOLID
  0
LAYER
  2
DEFPOINTS
 70
     0
 62
     7
  6
CONTINUOUS
  0
LAYER
  2
DIMENSIONS
 70
     0
 62
     5
  6
CONTINUOUS
  0
ENDTAB
  0
TABLE
  2
STYLE
 70
     1
  0
STYLE
  2
STANDARD
 70
     0
 40
0.0
 41
1.0
 50
0.0
 71
     0
 42
3.1999998092999991
  3
txt
  4

  0
ENDTAB
  0
TABLE
  2
VIEW
 70
     0
  0
ENDTAB
  0
TABLE
  2
UCS
 70
     0
  0
ENDTAB
  0
TABLE
  2
APPID
 70
     1
  0
APPID
  2
ACAD
 70
     0
  0
ENDTAB
  0
TABLE
  2
DIMSTYLE
 70
     1
  0
DIMSTYLE
  2
STANDARD
 70
     0
  3

  4

  5

  6

  7

 40
1.0
 41
0.18
 42
0.0625
 43
0.38
 44
0.18
 45
0.0
 46
0.0
 47
0.0
 48
0.0
140
0.18
141
0.09
142
0.0
143
25.399999999999999
144
1.0
145
0.0
146
1.0
147
0.09
 71
     0
 72
     0
 73
     1
 74
     1
 75
     0
 76
     0
 77
     0
 78
     0
170
     0
171
     2
172
     0
173
     0
174
     0
175
     0
176
     0
177
     0
178
     0
  0
ENDTAB
  0
ENDSEC
  0
SECTION
  2
BLOCKS
  0
BLOCK
  8
0
  2
$MODEL_SPACE
 70
     0
 10
0.0
 20
0.0
 30
0.0
  3
$MODEL_SPACE
  1

  0
ENDBLK
  5
20
  8
0
  0
BLOCK
 67
     1
  8
0
  2
$PAPER_SPACE
 70
     0
 10
0.0
 20
0.0
 30
0.0
  3
$PAPER_SPACE
  1

  0
ENDBLK
  5
1C
 67
     1
  8
0
  0
BLOCK
  8
LAYER8$C$L8
  2
CADRA_ATTR_0
 70
     2
 10
0.0
 20
0.0
 30
0.0
  3
CADRA_ATTR_0
  1

  0
TEXT
  5
A1
  8
LAYER8$C$L8
 62
     3
 10
-66.233333141999992
 20
3.5
 30
0.0
 40
4.0
  1
WP-001B
 41
1.084210850210525
 72
     5
 11
-38.766658270000001
 21
3.5
 31
0.0
  0
ATTDEF
  5
A2
  8
LAYER8$C$L8
 62
     3
 10
-52.499994000000001
 20
5.5
 30
0.0
 40
0.156
  1
ç5l?^HVé
  3

  2
110
 70
    11
  0
ENDBLK
  5
A3
  8
LAYER8$C$L8
  0
BLOCK
  8
LAYER8$C$L8
  2
CADRA_ATTR_1
 70
     2
 10
0.0
 20
0.0
 30
0.0
  3
CADRA_ATTR_1
  1

  0
POLYLINE
  5
A6
  8
LAYER8$C$L8
 62
     3
 66
     1
 10
0.0
 20
0.0
 30
0.0
  0
VERTEX
  5
6E8
  8
LAYER8$C$L8
 62
     3
 10
-99.733333142000006
 20
275.9999949134999
 30
0.0
  0
VERTEX
  5
6E9
  8
LAYER8$C$L8
 62
     3
 10
-98.526220651800003
 20
279.30528839329997
 30
0.0
  0
VERTEX
  5
6EA
  8
LAYER8$C$L8
 62
     3
 10
-97.319108161599999
 20
275.9999949134999
 30
0.0
  0
SEQEND
  5
6EB
  8
LAYER8$C$L8
 62
     3
  0
LINE
  5
AB
  8
LAYER8$C$L8
 62
     3
 10
-99.170507686400015
 20
277.53996391049992
 30
0.0
 11
-97.881933617100003
 21
277.53996391049992
 31
0.0
  0
POLYLINE
  5
AC
  8
LAYER8$C$L8
 62
     3
 66
     1
 10
0.0
 20
0.0
 30
0.0
  0
VERTEX
  5
6EC
  8
LAYER8$C$L8
 62
     3
 10
-93.794221102999998
 20
279.30528839329997
 30
0.0
  0
VERTEX
  5
6ED
  8
LAYER8$C$L8
 62
     3
 10
-95.001333593200016
 20
279.30528839329997
 30
0.0
  0
VERTEX
  5
6EE
  8
LAYER8$C$L8
 62
     3
 10
-95.001333593200016
 20
276.0
 30
0.0
  0
SEQEND
  5
6EF
  8
LAYER8$C$L8
 62
     3
  0
LINE
  5
B1
  8
LAYER8$C$L8
 62
     3
 10
-93.794221102999998
 20
277.53996391049992
 30
0.0
 11
-95.001333593200016
 21
277.53996391049992
 31
0.0
  0
POLYLINE
  5
B2
  8
LAYER8$C$L8
 62
     3
 66
     1
 10
0.0
 20
0.0
 30
0.0
 70
     4
 75
     6
  0
VERTEX
  5
B3
  8
LAYER8$C$L8
 62
     3
 10
-93.794221102999998
 20
279.30528839329997
 30
0.0
 70
    16
  0
VERTEX
  5
B4
  8
LAYER8$C$L8
 62
     3
 10
-93.794221102999998
 20
279.30528839329997
 30
0.0
 70
     8
  0
VERTEX
  5
B5
  8
LAYER8$C$L8
 62
     3
 10
-93.266919375900002
 20
279.22943460699997
 30
0.0
 70
     8
  0
VERTEX
  5
B6
  8
LAYER8$C$L8
 62
     3
 10
-92.890275285100003
 20
279.02945644290003
 30
0.0
 70
     8
  0
VERTEX
  5
B7
  8
LAYER8$C$L8
 62
     3
 10
-92.664288830599986
 20
278.74672869369988
 30
0.0
 70
     8
  0
VERTEX
  5
B8
  8
LAYER8$C$L8
 62
     3
 10
-92.588960012399994
 20
278.42262615189992
 30
0.0
 70
     8
  0
VERTEX
  5
B9
  8
LAYER8$C$L8
 62
     3
 10
-92.664288830599986
 20
278.09852361019989
 30
0.0
 70
     8
  0
VERTEX
  5
BA
  8
LAYER8$C$L8
 62
     3
 10
-92.890275285100003
 20
277.81579586099991
 30
0.0
 70
     8
  0
VERTEX
  5
BB
  8
LAYER8$C$L8
 62
     3
 10
-93.266919375900002
 20
277.61581769689991
 30
0.0
 70
     8
  0
VERTEX
  5
BC
  8
LAYER8$C$L8
 62
     3
 10
-93.794221102999998
 20
277.53996391049992
 30
0.0
 70
     8
  0
VERTEX
  5
BD
  8
LAYER8$C$L8
 62
     3
 10
-92.187206315499992
 20
279.30528839329997
 30
0.0
 70
    16
  0
VERTEX
  5
BE
  8
LAYER8$C$L8
 62
     3
 10
-92.187206315499992
 20
277.53996391049992
 30
0.0
 70
    16
  0
VERTEX
  5
BF
  8
LAYER8$C$L8
 62
     3
 10
-93.794221102999998
 20
277.53996391049992
 30
0.0
 70
    16
  0
SEQEND
  5
C0
  8
LAYER8$C$L8
 62
     3
  0
LINE
  5
C1
  8
LAYER8$C$L8
 62
     3
 10
-90.321636081100024
 20
279.18008807540002
 30
0.0
 11
-89.625047009900015
 21
275.99999745679997
 31
0.0
  0
LINE
  5
C2
  8
LAYER8$C$L8
 62
     3
 10
-88.343878538700011
 20
275.99999745679997
 30
0.0
 11
-87.647752317399991
 21
279.18008807540002
 31
0.0
  0
LINE
  5
C3
  8
LAYER8$C$L8
 62
     3
 10
-89.625047009900015
 20
275.99999745679997
 30
0.0
 11
-88.988165573299995
 21
278.0783252775999
 31
0.0
  0
LINE
  5
C4
  8
LAYER8$C$L8
 62
     3
 10
-88.988165573299995
 20
278.0783252775999
 30
0.0
 11
-88.343878538700011
 21
275.99999745679997
 31
0.0
  0
LINE
  5
C5
  8
LAYER8$C$L8
 62
     3
 10
-84.196921239799991
 20
279.53064896559988
 30
0.0
 11
-84.722718704900004
 21
279.09244785290002
 31
0.0
  0
LINE
  5
C6
  8
LAYER8$C$L8
 62
     3
 10
-84.196921239799991
 20
279.53064896559988
 30
0.0
 11
-84.196921239799991
 21
275.93348733110003
 31
0.0
  0
POLYLINE
  5
C7
  8
LAYER8$C$L8
 62
     3
 66
     1
 10
0.0
 20
0.0
 30
0.0
 70
     1
  0
VERTEX
  5
6F0
  8
LAYER8$C$L8
 62
     3
 10
-80.564653008800008
 20
276.54149137500002
 30
0.0
  0
VERTEX
  5
6F1
  8
LAYER8$C$L8
 62
     3
 10
-78.317053985699999
 20
276.54149137500002
 30
0.0
  0
VERTEX
  5
6F2
  8
LAYER8$C$L8
 62
     3
 10
-78.317053985699999
 20
278.97976756669988
 30
0.0
  0
VERTEX
  5
6F3
  8
LAYER8$C$L8
 62
     3
 10
-80.564653008800008
 20
278.97976756669988
 30
0.0
  0
VERTEX
  5
6F4
  8
LAYER8$C$L8
 62
     3
 10
-80.564653008800008
 20
276.54149137500002
 30
0.0
  0
SEQEND
  5
6F5
  8
LAYER8$C$L8
 62
     3
  0
POLYLINE
  5
CE
  8
LAYER8$C$L8
 62
     3
 66
     1
 10
0.0
 20
0.0
 30
0.0
 70
     1
  0
VERTEX
  5
6F6
  8
LAYER8$C$L8
 62
     3
 10
-75.832653460100005
 20
276.54149137500002
 30
0.0
  0
VERTEX
  5
6F7
  8
LAYER8$C$L8
 62
     3
 10
-73.585054436999997
 20
276.54149137500002
 30
0.0
  0
VERTEX
  5
6F8
  8
LAYER8$C$L8
 62
     3
 10
-73.585054436999997
 20
278.97976756669988
 30
0.0
  0
VERTEX
  5
6F9
  8
LAYER8$C$L8
 62
     3
 10
-75.832653460100005
 20
278.97976756669988
 30
0.0
  0
VERTEX
  5
6FA
  8
LAYER8$C$L8
 62
     3
 10
-75.832653460100005
 20
276.54149137500002
 30
0.0
  0
SEQEND
  5
6FB
  8
LAYER8$C$L8
 62
     3
  0
LINE
  5
D5
  8
LAYER8$C$L8
 62
     3
 10
-71.3413358496
 20
278.1659655002
 30
0.0
 11
-68.660509337700006
 21
278.1659655002
 31
0.0
  0
LINE
  5
D6
  8
LAYER8$C$L8
 62
     3
 10
-65.254111848699992
 20
279.85616979219998
 30
0.0
 11
-65.254111848699992
 21
276.47576120809998
 31
0.0
  0
LINE
  5
D7
  8
LAYER8$C$L8
 62
     3
 10
-66.608421449199994
 20
279.0173276621
 30
0.0
 11
-63.898887396599989
 21
277.3208633541999
 31
0.0
  0
LINE
  5
D8
  8
LAYER8$C$L8
 62
     3
 10
-66.608421449199994
 20
277.3208633541999
 30
0.0
 11
-63.898887396599989
 21
279.0173276621
 31
0.0
  0
ATTDEF
  5
D9
  8
LAYER8$C$L8
 62
     3
 10
-83.999992000000006
 20
278.0
 30
0.0
 40
0.156
  1
çL>>N!&7A<0é
  3

  2
10
 70
    11
  0
ENDBLK
  5
DA
  8
LAYER8$C$L8
  0
BLOCK
  8
LAYER8$C$L8
  2
CADRA_ATTR_2
 70
     2
 10
0.0
 20
0.0
 30
0.0
  3
CADRA_ATTR_2
  1

  0
TEXT
  5
DD
  8
LAYER8$C$L8
 62
     3
 10
-103.4082205023
 20
284.25
 30
0.0
 40
3.5
  1
TWÉVÉä-ÉY ÉpÉCÉçÉbÉgÉâÉCÉg
 41
0.6117899382277834
 72
     5
 11
-51.660988227200001
 21
284.25
 31
0.0
  0
ATTDEF
  5
DE
  8
LAYER8$C$L8
 62
     3
 10
-77.534603000000004
 20
286.0
 30
0.0
 40
0.156
  1
ç@=IJL>é
  3

  2
0
 70
    11
  0
ENDBLK
  5
DF
  8
LAYER8$C$L8
  0
BLOCK
  8
LAYER8$C$L8
  2
CADRA_ATTR_3
 70
     2
 10
0.0
 20
0.0
 30
0.0
  3
CADRA_ATTR_3
  1

  0
TEXT
  5
E2
  8
LAYER8$C$L8
 62
     3
 10
-189.08331773110001
 20
17.75
 30
0.0
 40
2.5
  1
*
 41
1.300002808379997
 72
     5
 11
-186.91664638380001
 21
17.75
 31
0.0
  0
ATTDEF
  5
E3
  8
LAYER8$C$L8
 62
     3
 10
-187.99997699999989
 20
19.0
 30
0.0
 40
0.156
  1
ç@_JQ5-9f  é
  3

  2
60
 70
    11
  0
ENDBLK
  5
E4
  8
LAYER8$C$L8
  0
BLOCK
  8
LAYER8$C$L8
  2
CADRA_ATTR_4
 70
     2
 10
0.0
 20
0.0
 30
0.0
  3
CADRA_ATTR_4
  1

  0
TEXT
  5
E7
  8
LAYER8$C$L8
 62
     3
 10
-189.08331773110001
 20
23.75
 30
0.0
 40
2.5
  1
*
 41
1.300002808379997
 72
     5
 11
-186.91664638380001
 21
23.75
 31
0.0
  0
ATTDEF
  5
E8
  8
LAYER8$C$L8
 62
     3
 10
-187.99997699999989
 20
25.0
 30
0.0
 40
0.156
  1
ç@_JQ5-9f  é
  3

  2
60
 70
    11
  0
ENDBLK
  5
E9
  8
LAYER8$C$L8
  0
BLOCK
  8
LAYER8$C$L8
  2
CADRA_ATTR_5
 70
     2
 10
0.0
 20
0.0
 30
0.0
  3
CADRA_ATTR_5
  1

  0
TEXT
  5
EC
  8
LAYER8$C$L8
 62
     3
 10
-127.7999997221999
 20
18.5
 30
0.0
 40
3.0
  1
*
 41
1.3000029426999971
 72
     5
 11
-125.1999938368
 21
18.5
 31
0.0
  0
ATTDEF
  5
ED
  8
LAYER8$C$L8
 62
     3
 10
-126.5
 20
20.0
 30
0.0
 40
0.156
  1
ç@_JQC4Ev<Té
  3

  2
100
 70
    11
  0
ENDBLK
  5
EE
  8
LAYER8$C$L8
  0
BLOCK
  8
LAYER8$C$L8
  2
CADRA_ATTR_6
 70
     2
 10
0.0
 20
0.0
 30
0.0
  3
CADRA_ATTR_6
  1

  0
TEXT
  5
F1
  8
LAYER8$C$L8
 62
     3
 10
-127.7999997221999
 20
24.5
 30
0.0
 40
3.0
  1
*
 41
1.3000029426999971
 72
     5
 11
-125.1999938368
 21
24.5
 31
0.0
  0
ATTDEF
  5
F2
  8
LAYER8$C$L8
 62
     3
 10
-126.5
 20
26.0
 30
0.0
 40
0.156
  1
ç@_JQC4Ev<Té
  3

  2
100
 70
    11
  0
ENDBLK
  5
F3
  8
LAYER8$C$L8
  0
BLOCK
  8
LAYER8$C$L8
  2
CADRA_ATTR_7
 70
     2
 10
0.0
 20
0.0
 30
0.0
  3
CADRA_ATTR_7
  1

  0
TEXT
  5
F6
  8
LAYER8$C$L8
 62
     3
 10
-183.2999997222
 20
18.5
 30
0.0
 40
3.0
  1
*
 41
1.3000029427000039
 72
     5
 11
-180.69999383679991
 21
18.5
 31
0.0
  0
ATTDEF
  5
F7
  8
LAYER8$C$L8
 62
     3
 10
-182.0
 20
20.0
 30
0.0
 40
0.156
  1
ç@_JQ?té
  3

  2
70
 70
    11
  0
ENDBLK
  5
F8
  8
LAYER8$C$L8
  0
BLOCK
  8
LAYER8$C$L8
  2
CADRA_ATTR_8
 70
     2
 10
0.0
 20
0.0
 30
0.0
  3
CADRA_ATTR_8
  1

  0
TEXT
  5
FB
  8
LAYER8$C$L8
 62
     3
 10
-183.2999997222
 20
24.5
 30
0.0
 40
3.0
  1
*
 41
1.3000029427000039
 72
     5
 11
-180.69999383679991
 21
24.5
 31
0.0
  0
ATTDEF
  5
FC
  8
LAYER8$C$L8
 62
     3
 10
-182.0
 20
26.0
 30
0.0
 40
0.156
  1
ç@_JQ?té
  3

  2
70
 70
    11
  0
ENDBLK
  5
FD
  8
LAYER8$C$L8
  0
BLOCK
  8
LAYER8$C$L8
  2
CADRA_ATTR_9
 70
     2
 10
0.0
 20
0.0
 30
0.0
  3
CADRA_ATTR_9
  1

  0
TEXT
  5
100
  8
LAYER8$C$L8
 62
     3
 10
-66.666666568699995
 20
16.0
 30
0.0
 40
5.0
  1
MA4-A00001B
 41
1.1241381432393101
 72
     5
 11
-12.3333229788
 21
16.0
 31
0.0
  0
ATTDEF
  5
101
  8
LAYER8$C$L8
 62
     3
 10
-39.499992999999989
 20
18.5
 30
0.0
 40
0.156
  1
ç?^HV  é
  3

  2
20
 70
    11
  0
ENDBLK
  5
102
  8
LAYER8$C$L8
  0
BLOCK
  8
LAYER8$C$L8
  2
CADRA_ATTR_10
 70
     2
 10
0.0
 20
0.0
 30
0.0
  3
CADRA_ATTR_10
  1

  0
TEXT
  5
105
  8
LAYER8$C$L8
 62
     3
 10
-150.2999997222
 20
18.5
 30
0.0
 40
3.0
  1
*
 41
1.3000029427000039
 72
     5
 11
-147.69999383679991
 21
18.5
 31
0.0
  0
ATTDEF
  5
106
  8
LAYER8$C$L8
 62
     3
 10
-149.0
 20
20.0
 30
0.0
 40
0.156
  1
ç@_JQG/7nF|é
  3

  2
90
 70
    11
  0
ENDBLK
  5
107
  8
LAYER8$C$L8
  0
BLOCK
  8
LAYER8$C$L8
  2
CADRA_ATTR_11
 70
     2
 10
0.0
 20
0.0
 30
0.0
  3
CADRA_ATTR_11
  1

  0
TEXT
  5
10A
  8
LAYER8$C$L8
 62
     3
 10
-150.2999997222
 20
24.5
 30
0.0
 40
3.0
  1
*
 41
1.3000029427000039
 72
     5
 11
-147.69999383679991
 21
24.5
 31
0.0
  0
ATTDEF
  5
10B
  8
LAYER8$C$L8
 62
     3
 10
-149.0
 20
26.0
 30
0.0
 40
0.156
  1
ç@_JQG/7nF|é
  3

  2
90
 70
    11
  0
ENDBLK
  5
10C
  8
LAYER8$C$L8
  0
BLOCK
  8
LAYER8$C$L8
  2
CADRA_ATTR_12
 70
     2
 10
0.0
 20
0.0
 30
0.0
  3
CADRA_ATTR_12
  1

  0
TEXT
  5
10F
  8
LAYER8$C$L8
 62
     3
 10
-178.2999997222
 20
18.5
 30
0.0
 40
3.0
  1
*
 41
1.3000029427000039
 72
     5
 11
-175.69999383679991
 21
18.5
 31
0.0
  0
ATTDEF
  5
110
  8
LAYER8$C$L8
 62
     3
 10
-177.0
 20
20.0
 30
0.0
 40
0.156
  1
ç@_JQ#N#o  é
  3

  2
80
 70
    11
  0
ENDBLK
  5
111
  8
LAYER8$C$L8
  0
BLOCK
  8
LAYER8$C$L8
  2
CADRA_ATTR_13
 70
     2
 10
0.0
 20
0.0
 30
0.0
  3
CADRA_ATTR_13
  1

  0
TEXT
  5
114
  8
LAYER8$C$L8
 62
     3
 10
-178.2999997222
 20
24.5
 30
0.0
 40
3.0
  1
*
 41
1.3000029427000039
 72
     5
 11
-175.69999383679991
 21
24.5
 31
0.0
  0
ATTDEF
  5
115
  8
LAYER8$C$L8
 62
     3
 10
-177.0
 20
26.0
 30
0.0
 40
0.156
  1
ç@_JQ#N#o  é
  3

  2
80
 70
    11
  0
ENDBLK
  5
116
  8
LAYER8$C$L8
  0
BLOCK
  8
LAYER8$C$L8
  2
CADRA_ATTR_14
 70
     2
 10
0.0
 20
0.0
 30
0.0
  3
CADRA_ATTR_14
  1

  0
TEXT
  5
119
  8
LAYER8$C$L8
 62
     3
 10
-183.86666630240001
 20
4.5
 30
0.0
 40
2.0
  1
TW-M
 41
0.9666671123499988
 72
     5
 11
-176.13332940359999
 21
4.5
 31
0.0
  0
ATTDEF
  5
11A
  8
LAYER8$C$L8
 62
     3
 10
-180.0
 20
5.5
 30
0.0
 40
0.156
  1
ç%f!<%6!<  é
  3

  2
50
 70
    11
  0
ENDBLK
  5
11B
  8
LAYER8$C$L8
  0
BLOCK
  8
LAYER8$C$L8
  2
CADRA_ATTR_15
 70
     2
 10
0.0
 20
0.0
 30
0.0
  3
CADRA_ATTR_15
  1

  0
TEXT
  5
11E
  8
LAYER8$C$L8
 62
     3
 10
-191.86666630240001
 20
4.5
 30
0.0
 40
2.0
  1
A
 41
1.3000026740999919
 72
     5
 11
-190.13332940359999
 21
4.5
 31
0.0
  0
ATTDEF
  5
11F
  8
LAYER8$C$L8
 62
     3
 10
-191.0
 20
5.5
 30
0.0
 40
0.156
  1
ç%0%k!<%W  é
  3

  2
40
 70
    11
  0
ENDBLK
  5
120
  8
LAYER8$C$L8
  0
BLOCK
  8
0
  2
*D26
 70
     1
 10
0.0
 20
0.0
 30
0.0
  3
*D26
  1

  0
LINE
  5
6AC
  8
DIMENSIONS
 62
     0
 10
-97.16001224510002
 20
138.5
 30
0.0
 11
-38.502590990798112
 21
138.49999999999989
 31
0.0
  0
LINE
  5
6AD
  8
DIMENSIONS
 62
     0
 10
-97.16001224510002
 20
109.4999999999999
 30
0.0
 11
-38.502590990798119
 21
109.4999999999999
 31
0.0
  0
LINE
  5
6AE
  8
DIMENSIONS
 62
     0
 10
-42.312590933598109
 20
136.5272121534999
 30
0.0
 11
-42.312590933598109
 21
132.4614064788862
 31
0.0
  0
LINE
  5
6AF
  8
DIMENSIONS
 62
     0
 10
-42.312590933598109
 20
111.4727878464999
 30
0.0
 11
-42.312590933598109
 21
113.61474092463629
 31
0.0
  0
SOLID
  5
6B0
  8
DIMENSIONS
 62
     0
 10
-42.641388908014768
 20
136.5272121534999
 30
0.0
 11
-41.983792959181443
 21
136.5272121534999
 31
0.0
 12
-42.312590933598109
 22
138.49999999999989
 32
0.0
 13
-42.312590933598109
 23
138.49999999999989
 33
0.0
  0
SOLID
  5
6B1
  8
DIMENSIONS
 62
     0
 10
-42.641388908014783
 20
111.4727878464999
 30
0.0
 11
-41.98379295918145
 21
111.4727878464999
 31
0.0
 12
-42.312590933598109
 22
109.4999999999999
 32
0.0
 13
-42.312590933598109
 23
109.4999999999999
 33
0.0
  0
INSERT
  5
6B2
  8
0
  2
*U36
 10
0.0
 20
0.0
 30
0.0
  0
POINT
  5
6B3
  8
DEFPOINTS
 62
     0
 10
-99.700012207000015
 20
138.5
 30
0.0
  0
POINT
  5
6B4
  8
DEFPOINTS
 62
     0
 10
-99.700012207000015
 20
109.4999999999999
 30
0.0
  0
POINT
  5
6B5
  8
DEFPOINTS
 62
     0
 10
-42.312590933598109
 20
109.4999999999999
 30
0.0
  0
ENDBLK
  5
12D
  8
0
  0
BLOCK
  8
0
  2
*D27
 70
     1
 10
0.0
 20
0.0
 30
0.0
  3
*D27
  1

  0
LINE
  5
6C0
  8
DIMENSIONS
 62
     0
 10
-40.160012245099999
 20
45.499999999999993
 30
0.0
 11
0.92730950069858
 21
45.499999999999993
 31
0.0
  0
LINE
  5
6C1
  8
DIMENSIONS
 62
     0
 10
-40.160012245099999
 20
82.499984741199995
 30
0.0
 11
0.9273095006985881
 21
82.499984741199981
 31
0.0
  0
LINE
  5
6C2
  8
DIMENSIONS
 62
     0
 10
-2.882690442101413
 20
47.472787846499983
 30
0.0
 11
-2.8826904421014121
 21
55.543155451937103
 31
0.0
  0
LINE
  5
6C3
  8
DIMENSIONS
 62
     0
 10
-2.8826904421014059
 20
80.527196894699983
 30
0.0
 11
-2.8826904421014081
 21
71.189821196887095
 31
0.0
  0
SOLID
  5
6C4
  8
DIMENSIONS
 62
     0
 10
-3.2114884165180801
 20
47.472787846499983
 30
0.0
 11
-2.5538924676847472
 21
47.472787846499983
 31
0.0
 12
-2.8826904421014139
 22
45.499999999999993
 32
0.0
 13
-2.8826904421014139
 23
45.499999999999993
 33
0.0
  0
SOLID
  5
6C5
  8
DIMENSIONS
 62
     0
 10
-3.211488416518073
 20
80.527196894699983
 30
0.0
 11
-2.5538924676847401
 21
80.527196894699983
 31
0.0
 12
-2.8826904421014059
 22
82.499984741199981
 32
0.0
 13
-2.8826904421014059
 23
82.499984741199981
 33
0.0
  0
TEXT
  5
6C6
  8
0
 62
     0
 10
-1.282690537451421
 20
55.633155451937093
 30
0.0
 40
3.1999998092999991
  1
37.037
 50
90.0
  0
POINT
  5
6C7
  8
DEFPOINTS
 62
     0
 10
-42.700012207
 20
45.499999999999993
 30
0.0
  0
POINT
  5
6C8
  8
DEFPOINTS
 62
     0
 10
-42.700012207
 20
82.499984741199995
 30
0.0
  0
POINT
  5
6C9
  8
DEFPOINTS
 62
     0
 10
-2.8826904421014059
 20
82.499984741199981
 30
0.0
  0
ENDBLK
  5
139
  8
0
  0
BLOCK
  8
0
  2
*D28
 70
     1
 10
0.0
 20
0.0
 30
0.0
  3
*D28
  1

  0
LINE
  5
6CA
  8
DIMENSIONS
 62
     0
 10
-31.660012245099988
 20
46.0
 30
0.0
 11
-9.4934492993563673
 21
45.999999999999993
 31
0.0
  0
LINE
  5
6CB
  8
DIMENSIONS
 62
     0
 10
-31.660012245099999
 20
81.999984741199995
 30
0.0
 11
-9.4934492993563602
 21
81.999984741199995
 31
0.0
  0
LINE
  5
6CC
  8
DIMENSIONS
 62
     0
 10
-13.303449242156359
 20
47.97278784649999
 30
0.0
 11
-13.303449242156359
 21
56.106094703419579
 31
0.0
  0
LINE
  5
6CD
  8
DIMENSIONS
 62
     0
 10
-13.303449242156359
 20
80.027196894699983
 30
0.0
 11
-13.303449242156359
 21
71.752760448369571
 31
0.0
  0
SOLID
  5
6CE
  8
DIMENSIONS
 62
     0
 10
-13.632247216573029
 20
47.97278784649999
 30
0.0
 11
-12.9746512677397
 21
47.97278784649999
 31
0.0
 12
-13.303449242156359
 22
45.999999999999993
 32
0.0
 13
-13.303449242156359
 23
45.999999999999993
 33
0.0
  0
SOLID
  5
6CF
  8
DIMENSIONS
 62
     0
 10
-13.63224721657302
 20
80.027196894699983
 30
0.0
 11
-12.97465126773969
 21
80.027196894699983
 31
0.0
 12
-13.303449242156359
 22
81.999984741199995
 32
0.0
 13
-13.303449242156359
 23
81.999984741199995
 33
0.0
  0
TEXT
  5
6D0
  8
0
 62
     0
 10
-11.70344933750637
 20
56.196094703419568
 30
0.0
 40
3.1999998092999991
  1
36.036
 50
90.0
  0
POINT
  5
6D1
  8
DEFPOINTS
 62
     0
 10
-34.200012207
 20
46.0
 30
0.0
  0
POINT
  5
6D2
  8
DEFPOINTS
 62
     0
 10
-34.200012207
 20
81.999984741199995
 30
0.0
  0
POINT
  5
6D3
  8
DEFPOINTS
 62
     0
 10
-13.303449242156359
 20
81.999984741199995
 30
0.0
  0
ENDBLK
  5
145
  8
0
  0
BLOCK
  8
0
  2
*D29
 70
     1
 10
0.0
 20
0.0
 30
0.0
  3
*D29
  1

  0
LINE
  5
68E
  8
DIMENSIONS
 62
     0
 10
-62.800003051799997
 20
83.539999961899994
 30
0.0
 11
-62.800003051799997
 21
95.309999942800005
 31
0.0
  0
LINE
  5
68F
  8
DIMENSIONS
 62
     0
 10
-33.200012207
 20
83.539984703099989
 30
0.0
 11
-33.200012207
 21
95.309999942800005
 31
0.0
  0
LINE
  5
690
  8
DIMENSIONS
 62
     0
 10
-60.8272152053
 20
91.5
 30
0.0
 11
-55.823340501875002
 21
91.5
 31
0.0
  0
LINE
  5
691
  8
DIMENSIONS
 62
     0
 10
-35.172800053499991
 20
91.5
 30
0.0
 11
-40.176674756925003
 21
91.5
 31
0.0
  0
SOLID
  5
692
  8
DIMENSIONS
 62
     0
 10
-60.8272152053
 20
91.828797974416673
 30
0.0
 11
-60.8272152053
 21
91.171202025583327
 31
0.0
 12
-62.800003051799997
 22
91.5
 32
0.0
 13
-62.800003051799997
 23
91.5
 33
0.0
  0
SOLID
  5
693
  8
DIMENSIONS
 62
     0
 10
-35.172800053499991
 20
91.828797974416673
 30
0.0
 11
-35.172800053499991
 21
91.171202025583327
 31
0.0
 12
-33.200012207
 22
91.5
 32
0.0
 13
-33.200012207
 23
91.5
 33
0.0
  0
TEXT
  5
694
  8
0
 62
     0
 10
-55.733340501875013
 20
89.900000095349995
 30
0.0
 40
3.1999998092999991
  1
29.630
  0
POINT
  5
695
  8
DEFPOINTS
 62
     0
 10
-62.800003051799997
 20
81.0
 30
0.0
  0
POINT
  5
696
  8
DEFPOINTS
 62
     0
 10
-33.200012207
 20
80.999984741199995
 30
0.0
  0
POINT
  5
697
  8
DEFPOINTS
 62
     0
 10
-33.200012207
 20
91.5
 30
0.0
  0
ENDBLK
  5
151
  8
0
  0
BLOCK
  8
0
  2
*D31
 70
     1
 10
0.0
 20
0.0
 30
0.0
  3
*D31
  1

  0
LINE
  5
6B6
  8
DIMENSIONS
 62
     0
 10
-86.16001224510002
 20
135.7999877929999
 30
0.0
 11
-51.458131125815711
 21
135.7999877929999
 31
0.0
  0
LINE
  5
6B7
  8
DIMENSIONS
 62
     0
 10
-86.16001224510002
 20
112.1999969481999
 30
0.0
 11
-51.458131125815711
 21
112.1999969481999
 31
0.0
  0
LINE
  5
6B8
  8
DIMENSIONS
 62
     0
 10
-55.268131068615702
 20
133.82719994649989
 30
0.0
 11
-55.268131068615702
 21
133.57248306632249
 31
0.0
  0
LINE
  5
6B9
  8
DIMENSIONS
 62
     0
 10
-55.268131068615702
 20
114.17278479469989
 30
0.0
 11
-55.268131068615702
 21
114.19248421052249
 31
0.0
  0
SOLID
  5
6BA
  8
DIMENSIONS
 62
     0
 10
-55.596929043032368
 20
133.82719994649989
 30
0.0
 11
-54.939333094199043
 21
133.82719994649989
 31
0.0
 12
-55.268131068615702
 22
135.7999877929999
 32
0.0
 13
-55.268131068615702
 23
135.7999877929999
 33
0.0
  0
SOLID
  5
6BB
  8
DIMENSIONS
 62
     0
 10
-55.596929043032368
 20
114.17278479469989
 30
0.0
 11
-54.939333094199043
 21
114.17278479469989
 31
0.0
 12
-55.268131068615702
 22
112.1999969481999
 32
0.0
 13
-55.268131068615702
 23
112.1999969481999
 33
0.0
  0
INSERT
  5
6BC
  8
0
  2
*U37
 10
0.0
 20
0.0
 30
0.0
  0
POINT
  5
6BD
  8
DEFPOINTS
 62
     0
 10
-88.700012207000015
 20
135.7999877929999
 30
0.0
  0
POINT
  5
6BE
  8
DEFPOINTS
 62
     0
 10
-88.700012207000015
 20
112.1999969481999
 30
0.0
  0
POINT
  5
6BF
  8
DEFPOINTS
 62
     0
 10
-55.268131068615702
 20
112.1999969481999
 30
0.0
  0
ENDBLK
  5
16A
  8
0
  0
BLOCK
  8
0
  2
*D32
 70
     1
 10
0.0
 20
0.0
 30
0.0
  3
*D32
  1

  0
LINE
  5
6D4
  8
DIMENSIONS
 62
     0
 10
-105.1999969481999
 20
107.96000003810001
 30
0.0
 11
-105.1999969481999
 21
96.710494517871211
 31
0.0
  0
LINE
  5
6D5
  8
DIMENSIONS
 62
     0
 10
-92.199996948199995
 20
107.75998783109991
 30
0.0
 11
-92.199996948199995
 21
96.710494517871211
 31
0.0
  0
LINE
  5
6D6
  8
DIMENSIONS
 62
     0
 10
-94.172784794699993
 20
100.5204944606712
 30
0.0
 11
-103.2272091017
 21
100.5204944606712
 31
0.0
  0
LINE
  5
6D7
  8
DIMENSIONS
 62
     0
 10
-105.1999969481999
 20
100.5204944606712
 30
0.0
 11
-113.8524443638601
 21
100.5204944606712
 31
0.0
  0
SOLID
  5
6D8
  8
DIMENSIONS
 62
     0
 10
-94.172784794699993
 20
100.8492924350878
 30
0.0
 11
-94.172784794699993
 21
100.1916964862545
 31
0.0
 12
-92.199996948199995
 22
100.5204944606712
 32
0.0
 13
-92.199996948199995
 23
100.5204944606712
 33
0.0
  0
SOLID
  5
6D9
  8
DIMENSIONS
 62
     0
 10
-103.2272091017
 20
100.8492924350878
 30
0.0
 11
-103.2272091017
 21
100.1916964862545
 31
0.0
 12
-105.1999969481999
 22
100.5204944606712
 32
0.0
 13
-105.1999969481999
 23
100.5204944606712
 33
0.0
  0
TEXT
  5
6DA
  8
0
 62
     0
 10
-127.2757769026101
 20
98.920494556021211
 30
0.0
 40
3.1999998092999991
  1
13.013
  0
POINT
  5
6DB
  8
DEFPOINTS
 62
     0
 10
-105.1999969481999
 20
110.4999999999999
 30
0.0
  0
POINT
  5
6DC
  8
DEFPOINTS
 62
     0
 10
-92.199996948199995
 20
110.2999877929999
 30
0.0
  0
POINT
  5
6DD
  8
DEFPOINTS
 62
     0
 10
-92.199996948199995
 20
100.5204944606712
 30
0.0
  0
ENDBLK
  5
176
  8
0
  0
BLOCK
  8
0
  2
*D33
 70
     1
 10
0.0
 20
0.0
 30
0.0
  3
*D33
  1

  0
LINE
  5
65C
  8
DIMENSIONS
 62
     0
 10
-105.1999969481999
 20
107.96000003810001
 30
0.0
 11
-105.1999969481999
 21
89.690000057199995
 31
0.0
  0
LINE
  5
65D
  8
DIMENSIONS
 62
     0
 10
-88.0
 20
110.3599939346
 30
0.0
 11
-88.0
 21
89.690000057199995
 31
0.0
  0
LINE
  5
65E
  8
DIMENSIONS
 62
     0
 10
-107.17278479469999
 20
93.499999999999986
 30
0.0
 11
-109.14557264119991
 21
93.499999999999986
 31
0.0
  0
LINE
  5
65F
  8
DIMENSIONS
 62
     0
 10
-86.027212153499988
 20
93.499999999999986
 30
0.0
 11
-84.054424307000005
 21
93.499999999999986
 31
0.0
  0
SOLID
  5
660
  8
DIMENSIONS
 62
     0
 10
-107.17278479469999
 20
93.828797974416673
 30
0.0
 11
-107.17278479469999
 21
93.171202025583327
 31
0.0
 12
-105.1999969481999
 22
93.499999999999986
 32
0.0
 13
-105.1999969481999
 23
93.499999999999986
 33
0.0
  0
SOLID
  5
661
  8
DIMENSIONS
 62
     0
 10
-86.027212153499988
 20
93.828797974416673
 30
0.0
 11
-86.027212153499988
 21
93.171202025583327
 31
0.0
 12
-88.0
 22
93.499999999999986
 32
0.0
 13
-88.0
 23
93.499999999999986
 33
0.0
  0
TEXT
  5
662
  8
0
 62
     0
 10
-103.53333139425
 20
91.900000095349995
 30
0.0
 40
3.1999998092999991
  1
17.217
  0
POINT
  5
663
  8
DEFPOINTS
 62
     0
 10
-105.1999969481999
 20
110.4999999999999
 30
0.0
  0
POINT
  5
664
  8
DEFPOINTS
 62
     0
 10
-88.0
 20
112.89999389650001
 30
0.0
  0
POINT
  5
665
  8
DEFPOINTS
 62
     0
 10
-88.0
 20
93.499999999999986
 30
0.0
  0
ENDBLK
  5
182
  8
0
  0
BLOCK
  8
0
  2
*D34
 70
     1
 10
0.0
 20
0.0
 30
0.0
  3
*D34
  1

  0
LINE
  5
670
  8
DIMENSIONS
 62
     0
 10
-133.69999694820001
 20
106.6599969862999
 30
0.0
 11
-133.69999694820001
 21
89.690000057199995
 31
0.0
  0
LINE
  5
671
  8
DIMENSIONS
 62
     0
 10
-105.1999969481999
 20
107.96000003810001
 30
0.0
 11
-105.1999969481999
 21
89.690000057199995
 31
0.0
  0
LINE
  5
672
  8
DIMENSIONS
 62
     0
 10
-131.72720910169991
 20
93.499999999999986
 30
0.0
 11
-124.33999666215
 21
93.499999999999986
 31
0.0
  0
LINE
  5
673
  8
DIMENSIONS
 62
     0
 10
-107.17278479469999
 20
93.499999999999986
 30
0.0
 11
-114.55999723424991
 21
93.499999999999986
 31
0.0
  0
SOLID
  5
674
  8
DIMENSIONS
 62
     0
 10
-131.72720910169991
 20
93.828797974416673
 30
0.0
 11
-131.72720910169991
 21
93.171202025583327
 31
0.0
 12
-133.69999694820001
 22
93.499999999999986
 32
0.0
 13
-133.69999694820001
 23
93.499999999999986
 33
0.0
  0
SOLID
  5
675
  8
DIMENSIONS
 62
     0
 10
-107.17278479469999
 20
93.828797974416673
 30
0.0
 11
-107.17278479469999
 21
93.171202025583327
 31
0.0
 12
-105.1999969481999
 22
93.499999999999986
 32
0.0
 13
-105.1999969481999
 23
93.499999999999986
 33
0.0
  0
TEXT
  5
676
  8
0
 62
     0
 10
-124.2499966621499
 20
91.900000095349995
 30
0.0
 40
3.1999998092999991
  1
28.5
  0
POINT
  5
677
  8
DEFPOINTS
 62
     0
 10
-133.69999694820001
 20
109.1999969481999
 30
0.0
  0
POINT
  5
678
  8
DEFPOINTS
 62
     0
 10
-105.1999969481999
 20
110.4999999999999
 30
0.0
  0
POINT
  5
679
  8
DEFPOINTS
 62
     0
 10
-105.1999969481999
 20
93.499999999999986
 30
0.0
  0
ENDBLK
  5
18E
  8
0
  0
BLOCK
  8
0
  2
*U36
 70
     1
 10
0.0
 20
0.0
 30
0.0
  3
*U36
  1

  0
TEXT
  5
6FD
  8
0
 62
     0
 10
-40.712591028948133
 20
113.7047409246362
 30
0.0
 40
3.1999998092999991
  1
29.0
 50
90.0
  0
TEXT
  5
6FE
  8
0
 62
     0
 10
-40.712591028948133
 20
123.8380736540863
 30
0.0
 40
3.1999998092999991
  1
\U+2205
 50
90.0
  0
TEXT
  5
6FF
  8
0
 62
     0
 10
-40.712591028948133
 20
127.0380734633862
 30
0.0
 40
3.1999998092999991
  1
29
 50
90.0
  0
ENDBLK
  5
701
  8
0
  0
BLOCK
  8
0
  2
*U37
 70
     1
 10
0.0
 20
0.0
 30
0.0
  3
*U37
  1

  0
TEXT
  5
703
  8
0
 62
     0
 10
-53.668131163965732
 20
114.2824842105225
 30
0.0
 40
3.1999998092999991
  1
23.6
 50
90.0
  0
TEXT
  5
704
  8
0
 62
     0
 10
-53.668131163965732
 20
124.9491502415225
 30
0.0
 40
3.1999998092999991
  1
\U+2205
 50
90.0
  0
TEXT
  5
705
  8
0
 62
     0
 10
-53.668131163965732
 20
128.1491500508225
 30
0.0
 40
3.1999998092999991
  1
24
 50
90.0
  0
ENDBLK
  5
707
  8
0
  0
BLOCK
  8
0
  2
*U38
 70
     1
 10
0.0
 20
0.0
 30
0.0
  3
*U38
  1

  0
TEXT
  5
709
  8
0
 10
-123.7071732515542
 20
156.1476722109343
 30
0.0
 40
3.1999998092999991
  1
APW199
  0
TEXT
  5
70A
  8
0
 10
-123.7071732515542
 20
150.81433919543429
 30
0.0
 40
3.1999998092999991
  1
(dimensions in mm)
  0
ENDBLK
  5
70C
  8
0
  0
ENDSEC
  0
SECTION
  2
ENTITIES
  0
DIMENSION
  5
121
  8
DIMENSIONS
  2
*D26
 10
-42.312590933598109
 20
109.4999999999999
 30
0.0
 11
-42.312590933598123
 21
123.03807370176121
 31
0.0
 70
   128
  1
<>%%c29
 13
-99.700012207000015
 23
138.5
 33
0.0
 14
-99.700012207000015
 24
109.4999999999999
 34
0.0
 50
270.0
1001
ACAD
1000
DSTYLE
1002
{
1070
    41
1040
1.9727878464999999
1070
    42
1040
2.5399999618999991
1070
    44
1040
3.8099999427999989
1070
    73
1070
     0
1070
   140
1040
3.1999998092999991
1070
   271
1070
     1
1070
   272
1070
     1
1002
}
  0
DIMENSION
  5
12E
  8
DIMENSIONS
  2
*D27
 10
-2.8826904421014059
 20
82.499984741199981
 30
0.0
 11
-2.8826904421014201
 21
63.366488324412103
 31
0.0
 70
   129
  1
<>37
 13
-42.700012207
 23
45.499999999999993
 33
0.0
 14
-42.700012207
 24
82.499984741199995
 34
0.0
1001
ACAD
1000
DSTYLE
1002
{
1070
    41
1040
1.9727878464999999
1070
    42
1040
2.5399999618999991
1070
    44
1040
3.8099999427999989
1070
    73
1070
     0
1070
   140
1040
3.1999998092999991
1070
   271
1070
     1
1070
   272
1070
     1
1002
}
  0
DIMENSION
  5
13A
  8
DIMENSIONS
  2
*D28
 10
-13.303449242156359
 20
81.999984741199995
 30
0.0
 11
-13.30344924215637
 21
63.929427575894579
 31
0.0
 70
   129
  1
<>36
 13
-34.200012207
 23
46.0
 33
0.0
 14
-34.200012207
 24
81.999984741199995
 34
0.0
1001
ACAD
1000
DSTYLE
1002
{
1070
    41
1040
1.9727878464999999
1070
    42
1040
2.5399999618999991
1070
    44
1040
3.8099999427999989
1070
    73
1070
     0
1070
   140
1040
3.1999998092999991
1070
   271
1070
     1
1070
   272
1070
     1
1002
}
  0
DIMENSION
  5
146
  8
DIMENSIONS
  2
*D29
 10
-33.200012207
 20
91.5
 30
0.0
 11
-48.000007629400002
 21
91.5
 31
0.0
 70
     0
  1
<>30
 13
-62.800003051799997
 23
81.0
 33
0.0
 14
-33.200012207
 24
80.999984741199995
 34
0.0
1001
ACAD
1000
DSTYLE
1002
{
1070
    41
1040
1.9727878464999999
1070
    42
1040
2.5399999618999991
1070
    44
1040
3.8099999427999989
1070
    73
1070
     0
1070
   140
1040
3.1999998092999991
1070
   271
1070
     1
1070
   272
1070
     1
1002
}
  0
DIMENSION
  5
15F
  8
DIMENSIONS
  2
*D31
 10
-55.268131068615702
 20
112.1999969481999
 30
0.0
 11
-55.26813106861573
 21
123.8824836384225
 31
0.0
 70
   128
  1
<>%%c24
 13
-88.700012207000015
 23
135.7999877929999
 33
0.0
 14
-88.700012207000015
 24
112.1999969481999
 34
0.0
 50
270.0
1001
ACAD
1000
DSTYLE
1002
{
1070
    41
1040
1.9727878464999999
1070
    42
1040
2.5399999618999991
1070
    44
1040
3.8099999427999989
1070
    73
1070
     0
1070
   140
1040
3.1999998092999991
1070
   271
1070
     1
1070
   272
1070
     1
1002
}
  0
DIMENSION
  5
16B
  8
DIMENSIONS
  2
*D32
 10
-92.199996948199995
 20
100.5204944606712
 30
0.0
 11
-120.6091106332351
 21
100.5204944606712
 31
0.0
 70
   128
  1
<>13
 13
-105.1999969481999
 23
110.4999999999999
 33
0.0
 14
-92.199996948199995
 24
110.2999877929999
 34
0.0
1001
ACAD
1000
DSTYLE
1002
{
1070
    41
1040
1.9727878464999999
1070
    42
1040
2.5399999618999991
1070
    44
1040
3.8099999427999989
1070
    73
1070
     0
1070
   140
1040
3.1999998092999991
1070
   271
1070
     1
1070
   272
1070
     1
1002
}
  0
DIMENSION
  5
177
  8
DIMENSIONS
  2
*D33
 10
-88.0
 20
93.499999999999986
 30
0.0
 11
-96.599998474100005
 21
93.499999999999986
 31
0.0
 70
     0
  1
<>17
 13
-105.1999969481999
 23
110.4999999999999
 33
0.0
 14
-88.0
 24
112.89999389650001
 34
0.0
1001
ACAD
1000
DSTYLE
1002
{
1070
    41
1040
1.9727878464999999
1070
    42
1040
2.5399999618999991
1070
    44
1040
3.8099999427999989
1070
    73
1070
     0
1070
   140
1040
3.1999998092999991
1070
   271
1070
     1
1070
   272
1070
     1
1002
}
  0
DIMENSION
  5
183
  8
DIMENSIONS
  2
*D34
 10
-105.1999969481999
 20
93.499999999999986
 30
0.0
 11
-119.4499969481999
 21
93.499999999999986
 31
0.0
 70
     0
 13
-133.69999694820001
 23
109.1999969481999
 33
0.0
 14
-105.1999969481999
 24
110.4999999999999
 34
0.0
1001
ACAD
1000
DSTYLE
1002
{
1070
    41
1040
1.9727878464999999
1070
    42
1040
2.5399999618999991
1070
    44
1040
3.8099999427999989
1070
    73
1070
     0
1070
   140
1040
3.1999998092999991
1070
   271
1070
     1
1070
   272
1070
     1
1002
}
  0
TEXT
  5
1CB
  8
LAYER8$C$L8
 62
     3
 10
-48.0
 20
111.9000091553
 30
0.0
 40
2.5
  1

 72
     5
 11
-48.0
 21
111.9000091553
 31
0.0
  0
TEXT
  5
1CD
  8
LAYER8$C$L8
 62
     3
 10
-48.0
 20
111.9000091553
 30
0.0
 40
2.5
  1

 72
     5
 11
-48.0
 21
111.9000091553
 31
0.0
  0
TEXT
  5
1CF
  8
LAYER8$C$L8
 62
     3
 10
-48.0
 20
111.9000091553
 30
0.0
 40
2.5
  1

 72
     5
 11
-48.0
 21
111.9000091553
 31
0.0
  0
INSERT
  5
1EB
  8
LAYER8$C$L8
 62
     3
 66
     1
  2
CADRA_ATTR_9
 10
0.0
 20
0.0
 30
0.0
  0
ATTRIB
  5
1EC
  8
LAYER8$C$L8
 62
     3
 10
-39.499992999999989
 20
18.5
 30
0.0
 40
0.156
  1
ç?^HV  é
  2
20
 70
    11
  0
SEQEND
  5
1ED
  8
LAYER8$C$L8
 62
     3
  0
ARC
  5
200
  8
LAYER1$C$L1
 62
     3
 10
-88.700012207000015
 20
52.899993896499993
 30
0.0
 40
0.6999999881
 50
270.00001798609998
 51
0.0
  0
ARC
  5
201
  8
LAYER1$C$L1
 62
     3
 10
-88.700012207000015
 20
75.099990844700002
 30
0.0
 40
0.6999999881
 50
0.0
 51
89.999982013899995
  0
ARC
  5
202
  8
LAYER1$C$L1
 62
     3
 10
-119.1999969482
 20
52.5
 30
0.0
 40
0.5
 50
89.999982013899995
 51
180.00001866929989
  0
ARC
  5
203
  8
LAYER1$C$L1
 62
     3
 10
-120.1999969482
 20
46.0
 30
0.0
 40
0.5
 50
270.00007262759988
 51
0.0
  0
ARC
  5
204
  8
LAYER1$C$L1
 62
     3
 10
-120.1999969482
 20
46.5
 30
0.0
 40
0.5
 50
270.00007262759988
 51
0.0
  0
ARC
  5
205
  8
LAYER1$C$L1
 62
     3
 10
-119.1999969482
 20
75.5
 30
0.0
 40
0.5
 50
179.9999640277999
 51
270.00000068319991
  0
ARC
  5
206
  8
LAYER1$C$L1
 62
     3
 10
-120.1999969482
 20
82.0
 30
0.0
 40
0.5
 50
0.0
 51
89.999982013899995
  0
ARC
  5
207
  8
LAYER1$C$L1
 62
     3
 10
-120.1999969482
 20
81.5
 30
0.0
 40
0.5
 50
0.0
 51
89.999982013899995
  0
ARC
  5
208
  8
LAYER1$C$L1
 62
     3
 10
-88.700012207000015
 20
52.899993896499993
 30
0.0
 40
0.6999999881
 50
270.00001798609998
 51
0.0
  0
ARC
  5
209
  8
LAYER1$C$L1
 62
     3
 10
-88.700012207000015
 20
75.099990844700002
 30
0.0
 40
0.6999999881
 50
0.0
 51
89.999982013899995
  0
ARC
  5
20A
  8
LAYER1$C$L1
 62
     3
 10
-119.1999969482
 20
52.5
 30
0.0
 40
0.5
 50
89.999982013899995
 51
180.00001866929989
  0
ARC
  5
20B
  8
LAYER1$C$L1
 62
     3
 10
-120.1999969482
 20
46.0
 30
0.0
 40
0.5
 50
270.00007262759988
 51
0.0
  0
ARC
  5
20C
  8
LAYER1$C$L1
 62
     3
 10
-120.1999969482
 20
46.5
 30
0.0
 40
0.5
 50
270.00007262759988
 51
0.0
  0
ARC
  5
20D
  8
LAYER1$C$L1
 62
     3
 10
-119.1999969482
 20
75.5
 30
0.0
 40
0.5
 50
179.9999640277999
 51
270.00000068319991
  0
ARC
  5
20E
  8
LAYER1$C$L1
 62
     3
 10
-120.1999969482
 20
82.0
 30
0.0
 40
0.5
 50
0.0
 51
89.999982013899995
  0
ARC
  5
20F
  8
LAYER1$C$L1
 62
     3
 10
-120.1999969482
 20
81.5
 30
0.0
 40
0.5
 50
0.0
 51
89.999982013899995
  0
CIRCLE
  5
210
  8
LAYER1$C$L1
 62
     3
 10
-48.0
 20
64.0
 30
0.0
 40
11.7999992371
  0
CIRCLE
  5
211
  8
LAYER1$C$L1
 62
     3
 10
-48.0
 20
64.0
 30
0.0
 40
14.0
  0
CIRCLE
  5
212
  8
LAYER1$C$L1
 62
     3
 10
-48.0
 20
64.0
 30
0.0
 40
14.5
  0
ARC
  5
213
  8
LAYER1$C$L1
 62
     3
 10
-34.200012207
 20
80.999984741199995
 30
0.0
 40
1.0
 50
0.000072627560058
 51
89.999982013899995
  0
ARC
  5
214
  8
LAYER1$C$L1
 62
     3
 10
-34.200012207
 20
47.0
 30
0.0
 40
1.0
 50
270.00012726910001
 51
0.000072627600094
  0
ARC
  5
215
  8
LAYER1$C$L1
 62
     3
 10
-61.800003051799997
 20
81.0
 30
0.0
 40
1.0
 50
89.999982013899995
 51
179.9999640277999
  0
ARC
  5
216
  8
LAYER1$C$L1
 62
     3
 10
-61.800003051799997
 20
47.000015258799998
 30
0.0
 40
1.0
 50
179.9999640277999
 51
269.9999460416999
  0
CIRCLE
  5
217
  8
LAYER1$C$L1
 62
     3
 10
-48.0
 20
64.0
 30
0.0
 40
11.7999992371
  0
CIRCLE
  5
218
  8
LAYER1$C$L1
 62
     3
 10
-48.0
 20
64.0
 30
0.0
 40
14.0
  0
CIRCLE
  5
219
  8
LAYER1$C$L1
 62
     3
 10
-48.0
 20
64.0
 30
0.0
 40
14.5
  0
ARC
  5
21A
  8
LAYER1$C$L1
 62
     3
 10
-34.200012207
 20
80.999984741199995
 30
0.0
 40
1.0
 50
0.000072627560058
 51
89.999982013899995
  0
ARC
  5
21B
  8
LAYER1$C$L1
 62
     3
 10
-34.200012207
 20
47.0
 30
0.0
 40
1.0
 50
270.00012726910001
 51
0.000072627600094
  0
ARC
  5
21C
  8
LAYER1$C$L1
 62
     3
 10
-61.800003051799997
 20
81.0
 30
0.0
 40
1.0
 50
89.999982013899995
 51
179.9999640277999
  0
ARC
  5
21D
  8
LAYER1$C$L1
 62
     3
 10
-61.800003051799997
 20
47.000015258799998
 30
0.0
 40
1.0
 50
179.9999640277999
 51
269.9999460416999
  0
ARC
  5
21E
  8
LAYER1$C$L1
 62
     3
 10
-149.19999694820001
 20
81.0
 30
0.0
 40
1.0
 50
0.0
 51
89.999982013899995
  0
ARC
  5
21F
  8
LAYER1$C$L1
 62
     3
 10
-176.7999877929999
 20
80.999984741199995
 30
0.0
 40
1.0
 50
89.999982013899995
 51
179.9999640277999
  0
ARC
  5
220
  8
LAYER1$C$L1
 62
     3
 10
-150.17158508299991
 20
80.528411865199999
 30
0.0
 40
0.1949999332
 50
6.3401811536999988
 51
83.659872577200005
  0
ARC
  5
221
  8
LAYER1$C$L1
 62
     3
 10
-150.17158508299991
 20
73.47157287600001
 30
0.0
 40
0.1949999332
 50
276.34023670580001
 51
353.65996569539988
  0
ARC
  5
222
  8
LAYER1$C$L1
 62
     3
 10
-141.02500915530001
 20
77.0
 30
0.0
 40
8.9699993134000007
 50
168.0311776584
 51
191.96869575569991
  0
ARC
  5
223
  8
LAYER1$C$L1
 62
     3
 10
-153.69999694820001
 20
89.674987792999985
 30
0.0
 40
8.9699993134000007
 50
270.00012726910001
 51
281.96885899699993
  0
ARC
  5
224
  8
LAYER1$C$L1
 62
     3
 10
-153.69999694820001
 20
64.324996948199995
 30
0.0
 40
8.9699993134000007
 50
78.031195644500002
 51
89.999982013899995
  0
ARC
  5
225
  8
LAYER1$C$L1
 62
     3
 10
-153.69999694820001
 20
77.0
 30
0.0
 40
3.4124994277999989
 50
270.00012726910001
 51
89.999982013899938
  0
ARC
  5
226
  8
LAYER1$C$L1
 62
     3
 10
-157.22840881350001
 20
80.528411865199999
 30
0.0
 40
0.1949999332
 50
96.340091450599999
 51
173.65985459109999
  0
ARC
  5
227
  8
LAYER1$C$L1
 62
     3
 10
-157.22840881350001
 20
73.47157287600001
 30
0.0
 40
0.1949999332
 50
186.3401454088999
 51
263.65990854939992
  0
ARC
  5
228
  8
LAYER1$C$L1
 62
     3
 10
-166.3749847412
 20
76.999984741199995
 30
0.0
 40
8.9699993134000007
 50
348.03128876269989
 51
11.968803444900029
  0
ARC
  5
229
  8
LAYER1$C$L1
 62
     3
 10
-153.69999694820001
 20
89.674987792999985
 30
0.0
 40
8.9699993134000007
 50
258.0312862582
 51
270.00001798609998
  0
ARC
  5
22A
  8
LAYER1$C$L1
 62
     3
 10
-153.69999694820001
 20
64.324996948199995
 30
0.0
 40
8.9699993134000007
 50
89.999982013899995
 51
101.9687137417999
  0
ARC
  5
22B
  8
LAYER1$C$L1
 62
     3
 10
-153.69999694820001
 20
77.0
 30
0.0
 40
3.4124994277999989
 50
89.999982013899995
 51
269.9999460416999
  0
ARC
  5
22C
  8
LAYER1$C$L1
 62
     3
 10
-176.7999877929999
 20
47.0
 30
0.0
 40
1.0
 50
179.9999640277999
 51
269.9999460416999
  0
ARC
  5
22D
  8
LAYER1$C$L1
 62
     3
 10
-149.19999694820001
 20
47.0
 30
0.0
 40
1.0
 50
270.00007262759988
 51
0.0
  0
ARC
  5
22E
  8
LAYER1$C$L1
 62
     3
 10
-175.8283996582
 20
47.471588134799987
 30
0.0
 40
0.1949999332
 50
186.3402000504
 51
263.65990854939992
  0
ARC
  5
22F
  8
LAYER1$C$L1
 62
     3
 10
-175.8283996582
 20
54.528411865199999
 30
0.0
 40
0.1949999332
 50
96.340146092099985
 51
173.65990923259989
  0
ARC
  5
230
  8
LAYER1$C$L1
 62
     3
 10
-184.97497558590001
 20
51.0
 30
0.0
 40
8.9699993134000007
 50
348.03123412109989
 51
11.96874880339999
  0
ARC
  5
231
  8
LAYER1$C$L1
 62
     3
 10
-172.2999877929999
 20
38.325027465799991
 30
0.0
 40
8.9699993134000007
 50
90.00003665540001
 51
101.9687683833
  0
ARC
  5
232
  8
LAYER1$C$L1
 62
     3
 10
-172.2999877929999
 20
63.674987792999993
 30
0.0
 40
8.9699993134000007
 50
258.0312862582
 51
270.00001798609998
  0
ARC
  5
233
  8
LAYER1$C$L1
 62
     3
 10
-172.2999877929999
 20
51.0
 30
0.0
 40
3.4124994277999989
 50
90.00003665540001
 51
269.9999460416999
  0
ARC
  5
234
  8
LAYER1$C$L1
 62
     3
 10
-168.77157592770001
 20
47.471603393599992
 30
0.0
 40
0.1949999332
 50
276.3401820643
 51
353.65991105389998
  0
ARC
  5
235
  8
LAYER1$C$L1
 62
     3
 10
-168.77157592770001
 20
54.528411865199999
 30
0.0
 40
0.1949999332
 50
6.3401265122000003
 51
83.659817935699976
  0
ARC
  5
236
  8
LAYER1$C$L1
 62
     3
 10
-159.62499999999989
 20
51.0
 30
0.0
 40
8.9699993134000007
 50
168.03123229990001
 51
191.9687503971999
  0
ARC
  5
237
  8
LAYER1$C$L1
 62
     3
 10
-172.2999877929999
 20
38.325027465799991
 30
0.0
 40
8.9699993134000007
 50
78.031195644500002
 51
89.999927372399995
  0
ARC
  5
238
  8
LAYER1$C$L1
 62
     3
 10
-172.2999877929999
 20
63.674987792999993
 30
0.0
 40
8.9699993134000007
 50
270.00007262759988
 51
281.96880435549991
  0
ARC
  5
239
  8
LAYER1$C$L1
 62
     3
 10
-172.2999877929999
 20
51.0
 30
0.0
 40
3.4124994277999989
 50
270.00007262759988
 51
89.999927372399895
  0
CIRCLE
  5
23A
  8
LAYER1$C$L1
 62
     3
 10
-172.2999877929999
 20
63.999984741200002
 30
0.0
 40
2.5999994277999989
  0
CIRCLE
  5
23B
  8
LAYER1$C$L1
 62
     3
 10
-153.69999694820001
 20
64.0
 30
0.0
 40
2.5999994277999989
  0
CIRCLE
  5
23C
  8
LAYER1$C$L1
 62
     3
 10
-153.69999694820001
 20
64.0
 30
0.0
 40
1.5999994278
  0
CIRCLE
  5
23D
  8
LAYER1$C$L1
 62
     3
 10
-172.2999877929999
 20
63.999984741200002
 30
0.0
 40
1.5999994278
  0
ARC
  5
23E
  8
LAYER1$C$L1
 62
     3
 10
-88.700012207000015
 20
112.89999389650001
 30
0.0
 40
0.6999999881
 50
270.00001798609998
 51
0.0
  0
ARC
  5
23F
  8
LAYER1$C$L1
 62
     3
 10
-88.700012207000015
 20
135.0999908446999
 30
0.0
 40
0.6999999881
 50
0.0
 51
89.999982013899995
  0
ARC
  5
240
  8
LAYER1$C$L1
 62
     3
 10
-125.73844909669999
 20
114.6999969481999
 30
0.0
 40
5.3615369797000003
 50
139.2471212506
 51
220.75286144660001
  0
ARC
  5
241
  8
LAYER1$C$L1
 62
     3
 10
-113.5
 20
124.0
 30
0.0
 40
1.0
 50
180.0000906137
 51
270.00007262759988
  0
ARC
  5
242
  8
LAYER1$C$L1
 62
     3
 10
-120.1999969482
 20
109.6999969482
 30
0.0
 40
0.5
 50
270.00007262759988
 51
0.0
  0
ARC
  5
243
  8
LAYER1$C$L1
 62
     3
 10
-119.1999969482
 20
112.5
 30
0.0
 40
0.5
 50
89.999982013899995
 51
180.00001866929989
  0
ARC
  5
244
  8
LAYER1$C$L1
 62
     3
 10
-113.5
 20
124.0
 30
0.0
 40
1.0
 50
89.999982013899995
 51
179.9999640277999
  0
ARC
  5
245
  8
LAYER1$C$L1
 62
     3
 10
-120.1999969482
 20
138.2999877929999
 30
0.0
 40
0.5
 50
0.0
 51
89.999982013899995
  0
ARC
  5
246
  8
LAYER1$C$L1
 62
     3
 10
-119.1999969482
 20
135.49999999999989
 30
0.0
 40
0.5
 50
179.9999640277999
 51
270.00000068319991
  0
LINE
  5
25E
  8
LAYER1$C$L1
 62
     3
 10
-88.700012207000015
 20
75.799987793
 30
0.0
 11
-92.199996948199995
 21
75.799987793
 31
0.0
  0
LINE
  5
25F
  8
LAYER1$C$L1
 62
     3
 10
-88.700012207000015
 20
52.199996948200003
 30
0.0
 11
-92.199996948199995
 21
52.199996948200003
 31
0.0
  0
LINE
  5
260
  8
LAYER1$C$L1
 62
     3
 10
-88.0
 20
75.099990844700002
 30
0.0
 11
-88.0
 21
52.899993896499993
 31
0.0
  0
LINE
  5
261
  8
LAYER1$C$L1
 62
     3
 10
-103.3033447266
 20
61.899993896499993
 30
0.0
 11
-104.4000091553
 21
61.899993896499993
 31
0.0
  0
LINE
  5
262
  8
LAYER1$C$L1
 62
     3
 10
-101.9835815429999
 20
59.299987792999993
 30
0.0
 11
-104.4000091553
 21
59.299987792999993
 31
0.0
  0
LINE
  5
263
  8
LAYER1$C$L1
 62
     3
 10
-100.74444580079989
 20
57.0
 30
0.0
 11
-104.4000091553
 21
57.0
 31
0.0
  0
LINE
  5
264
  8
LAYER1$C$L1
 62
     3
 10
-99.700012207000015
 20
55.0
 30
0.0
 11
-104.4000091553
 21
55.0
 31
0.0
  0
LINE
  5
265
  8
LAYER1$C$L1
 62
     3
 10
-99.700012207000015
 20
53.299987793
 30
0.0
 11
-104.4000091553
 21
53.299987793
 31
0.0
  0
LINE
  5
266
  8
LAYER1$C$L1
 62
     3
 10
-99.700012207000015
 20
51.899993896499993
 30
0.0
 11
-104.4000091553
 21
51.899993896499993
 31
0.0
  0
LINE
  5
267
  8
LAYER1$C$L1
 62
     3
 10
-99.700012207000015
 20
50.799987793
 30
0.0
 11
-104.4000091553
 21
50.799987793
 31
0.0
  0
LINE
  5
268
  8
LAYER1$C$L1
 62
     3
 10
-99.700012207000015
 20
50.0
 30
0.0
 11
-104.4000091553
 21
50.0
 31
0.0
  0
LINE
  5
269
  8
LAYER1$C$L1
 62
     3
 10
-92.200007245999998
 20
50.3000037658
 30
0.0
 11
-92.500011880300008
 21
49.99999913149999
 31
0.0
  0
LINE
  5
26A
  8
LAYER1$C$L1
 62
     3
 10
-99.199993097900006
 20
50.000009921099988
 30
0.0
 11
-99.699993628700014
 21
49.500009390300001
 31
0.0
  0
LINE
  5
26B
  8
LAYER1$C$L1
 62
     3
 10
-92.5
 20
50.0
 30
0.0
 11
-99.200012207000015
 21
50.0
 31
0.0
  0
LINE
  5
26C
  8
LAYER1$C$L1
 62
     3
 10
-99.200012207000015
 20
64.0
 30
0.0
 11
-99.200012207000015
 21
50.0
 31
0.0
  0
LINE
  5
26D
  8
LAYER1$C$L1
 62
     3
 10
-92.5
 20
64.0
 30
0.0
 11
-92.5
 21
50.0
 31
0.0
  0
LINE
  5
26E
  8
LAYER1$C$L1
 62
     3
 10
-92.199996948199995
 20
64.0
 30
0.0
 11
-92.199996948199995
 21
50.299987793
 31
0.0
  0
LINE
  5
26F
  8
LAYER1$C$L1
 62
     3
 10
-99.700012207000015
 20
49.5
 30
0.0
 11
-104.4000091553
 21
49.5
 31
0.0
  0
LINE
  5
270
  8
LAYER1$C$L1
 62
     3
 10
-99.700012207000015
 20
64.0
 30
0.0
 11
-99.700012207000015
 21
49.5
 31
0.0
  0
LINE
  5
271
  8
LAYER1$C$L1
 62
     3
 10
-104.3999890267
 20
49.500013286099993
 30
0.0
 11
-105.19998876
 21
50.500012952699997
 31
0.0
  0
LINE
  5
272
  8
LAYER1$C$L1
 62
     3
 10
-104.4000091553
 20
64.0
 30
0.0
 11
-104.4000091553
 21
49.5
 31
0.0
  0
LINE
  5
273
  8
LAYER1$C$L1
 62
     3
 10
-105.1999969481999
 20
64.0
 30
0.0
 11
-105.1999969481999
 21
50.5
 31
0.0
  0
LINE
  5
274
  8
LAYER1$C$L1
 62
     3
 10
-100.7966766356999
 20
66.099990844700002
 30
0.0
 11
-99.700012207000015
 21
66.099990844700002
 31
0.0
  0
LINE
  5
275
  8
LAYER1$C$L1
 62
     3
 10
-102.1544494628999
 20
68.699996948199995
 30
0.0
 11
-99.700012207000015
 21
68.699996948199995
 31
0.0
  0
LINE
  5
276
  8
LAYER1$C$L1
 62
     3
 10
-103.3555603027
 20
70.999984741199995
 30
0.0
 11
-99.700012207000015
 21
70.999984741199995
 31
0.0
  0
LINE
  5
277
  8
LAYER1$C$L1
 62
     3
 10
-104.4000091553
 20
72.999984741199995
 30
0.0
 11
-99.700012207000015
 21
72.999984741199995
 31
0.0
  0
LINE
  5
278
  8
LAYER1$C$L1
 62
     3
 10
-104.4000091553
 20
74.699996948199995
 30
0.0
 11
-99.700012207000015
 21
74.699996948199995
 31
0.0
  0
LINE
  5
279
  8
LAYER1$C$L1
 62
     3
 10
-104.4000091553
 20
76.099990844700002
 30
0.0
 11
-99.700012207000015
 21
76.099990844700002
 31
0.0
  0
LINE
  5
27A
  8
LAYER1$C$L1
 62
     3
 10
-104.4000091553
 20
77.199996948199995
 30
0.0
 11
-99.700012207000015
 21
77.199996948199995
 31
0.0
  0
LINE
  5
27B
  8
LAYER1$C$L1
 62
     3
 10
-104.4000091553
 20
78.0
 30
0.0
 11
-99.700012207000015
 21
78.0
 31
0.0
  0
LINE
  5
27C
  8
LAYER1$C$L1
 62
     3
 10
-92.500002439400006
 20
77.999995138499997
 30
0.0
 11
-92.199997805099997
 21
77.699990504200002
 31
0.0
  0
LINE
  5
27D
  8
LAYER1$C$L1
 62
     3
 10
-99.699994977399996
 20
78.499974090099997
 30
0.0
 11
-99.199994446600002
 21
77.99997355939999
 31
0.0
  0
LINE
  5
27E
  8
LAYER1$C$L1
 62
     3
 10
-99.200012207000015
 20
78.0
 30
0.0
 11
-92.5
 21
78.0
 31
0.0
  0
LINE
  5
27F
  8
LAYER1$C$L1
 62
     3
 10
-99.200012207000015
 20
78.0
 30
0.0
 11
-99.200012207000015
 21
64.0
 31
0.0
  0
LINE
  5
280
  8
LAYER1$C$L1
 62
     3
 10
-92.5
 20
78.0
 30
0.0
 11
-92.5
 21
64.0
 31
0.0
  0
LINE
  5
281
  8
LAYER1$C$L1
 62
     3
 10
-92.199996948199995
 20
77.699996948199995
 30
0.0
 11
-92.199996948199995
 21
64.0
 31
0.0
  0
LINE
  5
282
  8
LAYER1$C$L1
 62
     3
 10
-104.4000091553
 20
78.5
 30
0.0
 11
-99.700012207000015
 21
78.5
 31
0.0
  0
LINE
  5
283
  8
LAYER1$C$L1
 62
     3
 10
-99.700012207000015
 20
78.5
 30
0.0
 11
-99.700012207000015
 21
64.0
 31
0.0
  0
LINE
  5
284
  8
LAYER1$C$L1
 62
     3
 10
-105.1999810152
 20
77.499954057300002
 30
0.0
 11
-104.3999812819
 21
78.499953723900006
 31
0.0
  0
LINE
  5
285
  8
LAYER1$C$L1
 62
     3
 10
-104.4000091553
 20
78.5
 30
0.0
 11
-104.4000091553
 21
64.0
 31
0.0
  0
LINE
  5
286
  8
LAYER1$C$L1
 62
     3
 10
-105.1999969481999
 20
77.5
 30
0.0
 11
-105.1999969481999
 21
64.0
 31
0.0
  0
LINE
  5
287
  8
LAYER1$C$L1
 62
     3
 10
-105.1999969481999
 20
53.0
 30
0.0
 11
-107.1999969481999
 21
53.0
 31
0.0
  0
LINE
  5
288
  8
LAYER1$C$L1
 62
     3
 10
-114.5
 20
52.799987793
 30
0.0
 11
-118.200012207
 21
52.799987793
 31
0.0
  0
LINE
  5
289
  8
LAYER1$C$L1
 62
     3
 10
-114.5
 20
52.0
 30
0.0
 11
-118.200012207
 21
52.0
 31
0.0
  0
LINE
  5
28A
  8
LAYER1$C$L1
 62
     3
 10
-110.88000488279999
 20
61.899993896499993
 30
0.0
 11
-112.0
 21
61.899993896499993
 31
0.0
  0
LINE
  5
28B
  8
LAYER1$C$L1
 62
     3
 10
-109.4933471679999
 20
59.299987792999993
 30
0.0
 11
-112.0
 21
59.299987792999993
 31
0.0
  0
LINE
  5
28C
  8
LAYER1$C$L1
 62
     3
 10
-108.26667785639999
 20
57.0
 30
0.0
 11
-112.0
 21
57.0
 31
0.0
  0
LINE
  5
28D
  8
LAYER1$C$L1
 62
     3
 10
-107.1999969481999
 20
55.0
 30
0.0
 11
-112.0
 21
55.0
 31
0.0
  0
LINE
  5
28E
  8
LAYER1$C$L1
 62
     3
 10
-107.1999969481999
 20
53.299987793
 30
0.0
 11
-112.0
 21
53.299987793
 31
0.0
  0
LINE
  5
28F
  8
LAYER1$C$L1
 62
     3
 10
-107.1999969481999
 20
51.899993896499993
 30
0.0
 11
-112.0
 21
51.899993896499993
 31
0.0
  0
LINE
  5
290
  8
LAYER1$C$L1
 62
     3
 10
-107.1999969481999
 20
50.799987793
 30
0.0
 11
-112.0
 21
50.799987793
 31
0.0
  0
LINE
  5
291
  8
LAYER1$C$L1
 62
     3
 10
-107.1999969481999
 20
50.0
 30
0.0
 11
-112.0
 21
50.0
 31
0.0
  0
LINE
  5
292
  8
LAYER1$C$L1
 62
     3
 10
-112.0
 20
50.0
 30
0.0
 11
-114.5
 21
50.0
 31
0.0
  0
LINE
  5
293
  8
LAYER1$C$L1
 62
     3
 10
-107.1999969481999
 20
49.5
 30
0.0
 11
-112.0
 21
49.5
 31
0.0
  0
LINE
  5
294
  8
LAYER1$C$L1
 62
     3
 10
-112.0
 20
64.0
 30
0.0
 11
-112.0
 21
49.5
 31
0.0
  0
LINE
  5
295
  8
LAYER1$C$L1
 62
     3
 10
-114.5
 20
64.0
 30
0.0
 11
-114.5
 21
50.0
 31
0.0
  0
LINE
  5
296
  8
LAYER1$C$L1
 62
     3
 10
-107.1999969481999
 20
64.0
 30
0.0
 11
-107.1999969481999
 21
49.5
 31
0.0
  0
LINE
  5
297
  8
LAYER1$C$L1
 62
     3
 10
-119.6999969481999
 20
64.0
 30
0.0
 11
-119.6999969481999
 21
52.5
 31
0.0
  0
LINE
  5
298
  8
LAYER1$C$L1
 62
     3
 10
-118.200012207
 20
53.0
 30
0.0
 11
-119.1999969482
 21
53.0
 31
0.0
  0
LINE
  5
299
  8
LAYER1$C$L1
 62
     3
 10
-118.200012207
 20
64.0
 30
0.0
 11
-118.200012207
 21
52.0
 31
0.0
  0
LINE
  5
29A
  8
LAYER1$C$L1
 62
     3
 10
-120.1999969482
 20
46.0
 30
0.0
 11
-133.69999694820001
 21
46.0
 31
0.0
  0
LINE
  5
29B
  8
LAYER1$C$L1
 62
     3
 10
-120.1999969482
 20
45.499999999999993
 30
0.0
 11
-133.69999694820001
 21
45.499999999999993
 31
0.0
  0
LINE
  5
29C
  8
LAYER1$C$L1
 62
     3
 10
-119.6999969481999
 20
52.5
 30
0.0
 11
-119.6999969481999
 21
46.0
 31
0.0
  0
LINE
  5
29D
  8
LAYER1$C$L1
 62
     3
 10
-133.69999694820001
 20
64.0
 30
0.0
 11
-133.69999694820001
 21
45.499999999999993
 31
0.0
  0
LINE
  5
29E
  8
LAYER1$C$L1
 62
     3
 10
-108.32000732420001
 20
66.099990844700002
 30
0.0
 11
-107.1999969481999
 21
66.099990844700002
 31
0.0
  0
LINE
  5
29F
  8
LAYER1$C$L1
 62
     3
 10
-109.70668029789999
 20
68.699996948199995
 30
0.0
 11
-107.1999969481999
 21
68.699996948199995
 31
0.0
  0
LINE
  5
2A0
  8
LAYER1$C$L1
 62
     3
 10
-110.9333496094
 20
70.999984741199995
 30
0.0
 11
-107.1999969481999
 21
70.999984741199995
 31
0.0
  0
LINE
  5
2A1
  8
LAYER1$C$L1
 62
     3
 10
-112.0
 20
72.999984741199995
 30
0.0
 11
-107.1999969481999
 21
72.999984741199995
 31
0.0
  0
LINE
  5
2A2
  8
LAYER1$C$L1
 62
     3
 10
-112.0
 20
74.699996948199995
 30
0.0
 11
-107.1999969481999
 21
74.699996948199995
 31
0.0
  0
LINE
  5
2A3
  8
LAYER1$C$L1
 62
     3
 10
-112.0
 20
76.099990844700002
 30
0.0
 11
-107.1999969481999
 21
76.099990844700002
 31
0.0
  0
LINE
  5
2A4
  8
LAYER1$C$L1
 62
     3
 10
-112.0
 20
77.199996948199995
 30
0.0
 11
-107.1999969481999
 21
77.199996948199995
 31
0.0
  0
LINE
  5
2A5
  8
LAYER1$C$L1
 62
     3
 10
-112.0
 20
78.0
 30
0.0
 11
-107.1999969481999
 21
78.0
 31
0.0
  0
LINE
  5
2A6
  8
LAYER1$C$L1
 62
     3
 10
-114.5
 20
78.0
 30
0.0
 11
-112.0
 21
78.0
 31
0.0
  0
LINE
  5
2A7
  8
LAYER1$C$L1
 62
     3
 10
-112.0
 20
78.5
 30
0.0
 11
-107.1999969481999
 21
78.5
 31
0.0
  0
LINE
  5
2A8
  8
LAYER1$C$L1
 62
     3
 10
-112.0
 20
78.5
 30
0.0
 11
-112.0
 21
64.0
 31
0.0
  0
LINE
  5
2A9
  8
LAYER1$C$L1
 62
     3
 10
-114.5
 20
78.0
 30
0.0
 11
-114.5
 21
64.0
 31
0.0
  0
LINE
  5
2AA
  8
LAYER1$C$L1
 62
     3
 10
-107.1999969481999
 20
78.5
 30
0.0
 11
-107.1999969481999
 21
64.0
 31
0.0
  0
LINE
  5
2AB
  8
LAYER1$C$L1
 62
     3
 10
-107.1999969481999
 20
75.0
 30
0.0
 11
-105.1999969481999
 21
75.0
 31
0.0
  0
LINE
  5
2AC
  8
LAYER1$C$L1
 62
     3
 10
-118.200012207
 20
75.199996948199995
 30
0.0
 11
-114.5
 21
75.199996948199995
 31
0.0
  0
LINE
  5
2AD
  8
LAYER1$C$L1
 62
     3
 10
-119.6999969481999
 20
75.5
 30
0.0
 11
-119.6999969481999
 21
64.0
 31
0.0
  0
LINE
  5
2AE
  8
LAYER1$C$L1
 62
     3
 10
-119.1999969482
 20
75.0
 30
0.0
 11
-118.200012207
 21
75.0
 31
0.0
  0
LINE
  5
2AF
  8
LAYER1$C$L1
 62
     3
 10
-118.200012207
 20
76.0
 30
0.0
 11
-114.5
 21
76.0
 31
0.0
  0
LINE
  5
2B0
  8
LAYER1$C$L1
 62
     3
 10
-118.200012207
 20
76.0
 30
0.0
 11
-118.200012207
 21
64.0
 31
0.0
  0
LINE
  5
2B1
  8
LAYER1$C$L1
 62
     3
 10
-133.69999694820001
 20
82.0
 30
0.0
 11
-120.1999969482
 21
82.0
 31
0.0
  0
LINE
  5
2B2
  8
LAYER1$C$L1
 62
     3
 10
-133.69999694820001
 20
82.5
 30
0.0
 11
-120.1999969482
 21
82.5
 31
0.0
  0
LINE
  5
2B3
  8
LAYER1$C$L1
 62
     3
 10
-119.6999969481999
 20
82.0
 30
0.0
 11
-119.6999969481999
 21
75.5
 31
0.0
  0
LINE
  5
2B4
  8
LAYER1$C$L1
 62
     3
 10
-133.69999694820001
 20
82.5
 30
0.0
 11
-133.69999694820001
 21
64.0
 31
0.0
  0
LINE
  5
2B5
  8
LAYER3$C$L3
  6
CENTERLINE
 62
     3
 10
-138.69999694820001
 20
64.0
 30
0.0
 11
-83.0
 21
64.0
 31
0.0
  0
LINE
  5
2B6
  8
LAYER1$C$L1
 62
     3
 10
-88.700012207000015
 20
75.799987793
 30
0.0
 11
-92.199996948199995
 21
75.799987793
 31
0.0
  0
LINE
  5
2B7
  8
LAYER1$C$L1
 62
     3
 10
-88.700012207000015
 20
52.199996948200003
 30
0.0
 11
-92.199996948199995
 21
52.199996948200003
 31
0.0
  0
LINE
  5
2B8
  8
LAYER1$C$L1
 62
     3
 10
-88.0
 20
75.099990844700002
 30
0.0
 11
-88.0
 21
52.899993896499993
 31
0.0
  0
LINE
  5
2B9
  8
LAYER1$C$L1
 62
     3
 10
-103.3033447266
 20
61.899993896499993
 30
0.0
 11
-104.4000091553
 21
61.899993896499993
 31
0.0
  0
LINE
  5
2BA
  8
LAYER1$C$L1
 62
     3
 10
-101.9835815429999
 20
59.299987792999993
 30
0.0
 11
-104.4000091553
 21
59.299987792999993
 31
0.0
  0
LINE
  5
2BB
  8
LAYER1$C$L1
 62
     3
 10
-100.74444580079989
 20
57.0
 30
0.0
 11
-104.4000091553
 21
57.0
 31
0.0
  0
LINE
  5
2BC
  8
LAYER1$C$L1
 62
     3
 10
-99.700012207000015
 20
55.0
 30
0.0
 11
-104.4000091553
 21
55.0
 31
0.0
  0
LINE
  5
2BD
  8
LAYER1$C$L1
 62
     3
 10
-99.700012207000015
 20
53.299987793
 30
0.0
 11
-104.4000091553
 21
53.299987793
 31
0.0
  0
LINE
  5
2BE
  8
LAYER1$C$L1
 62
     3
 10
-99.700012207000015
 20
51.899993896499993
 30
0.0
 11
-104.4000091553
 21
51.899993896499993
 31
0.0
  0
LINE
  5
2BF
  8
LAYER1$C$L1
 62
     3
 10
-99.700012207000015
 20
50.799987793
 30
0.0
 11
-104.4000091553
 21
50.799987793
 31
0.0
  0
LINE
  5
2C0
  8
LAYER1$C$L1
 62
     3
 10
-99.700012207000015
 20
50.0
 30
0.0
 11
-104.4000091553
 21
50.0
 31
0.0
  0
LINE
  5
2C1
  8
LAYER1$C$L1
 62
     3
 10
-92.200007245999998
 20
50.3000037658
 30
0.0
 11
-92.500011880300008
 21
49.99999913149999
 31
0.0
  0
LINE
  5
2C2
  8
LAYER1$C$L1
 62
     3
 10
-99.199993097900006
 20
50.000009921099988
 30
0.0
 11
-99.699993628700014
 21
49.500009390300001
 31
0.0
  0
LINE
  5
2C3
  8
LAYER1$C$L1
 62
     3
 10
-92.5
 20
50.0
 30
0.0
 11
-99.200012207000015
 21
50.0
 31
0.0
  0
LINE
  5
2C4
  8
LAYER1$C$L1
 62
     3
 10
-99.200012207000015
 20
64.0
 30
0.0
 11
-99.200012207000015
 21
50.0
 31
0.0
  0
LINE
  5
2C5
  8
LAYER1$C$L1
 62
     3
 10
-92.5
 20
64.0
 30
0.0
 11
-92.5
 21
50.0
 31
0.0
  0
LINE
  5
2C6
  8
LAYER1$C$L1
 62
     3
 10
-92.199996948199995
 20
64.0
 30
0.0
 11
-92.199996948199995
 21
50.299987793
 31
0.0
  0
LINE
  5
2C7
  8
LAYER1$C$L1
 62
     3
 10
-99.700012207000015
 20
49.5
 30
0.0
 11
-104.4000091553
 21
49.5
 31
0.0
  0
LINE
  5
2C8
  8
LAYER1$C$L1
 62
     3
 10
-99.700012207000015
 20
64.0
 30
0.0
 11
-99.700012207000015
 21
49.5
 31
0.0
  0
LINE
  5
2C9
  8
LAYER1$C$L1
 62
     3
 10
-104.3999890267
 20
49.500013286099993
 30
0.0
 11
-105.19998876
 21
50.500012952699997
 31
0.0
  0
LINE
  5
2CA
  8
LAYER1$C$L1
 62
     3
 10
-104.4000091553
 20
64.0
 30
0.0
 11
-104.4000091553
 21
49.5
 31
0.0
  0
LINE
  5
2CB
  8
LAYER1$C$L1
 62
     3
 10
-105.1999969481999
 20
64.0
 30
0.0
 11
-105.1999969481999
 21
50.5
 31
0.0
  0
LINE
  5
2CC
  8
LAYER1$C$L1
 62
     3
 10
-100.7966766356999
 20
66.099990844700002
 30
0.0
 11
-99.700012207000015
 21
66.099990844700002
 31
0.0
  0
LINE
  5
2CD
  8
LAYER1$C$L1
 62
     3
 10
-102.1544494628999
 20
68.699996948199995
 30
0.0
 11
-99.700012207000015
 21
68.699996948199995
 31
0.0
  0
LINE
  5
2CE
  8
LAYER1$C$L1
 62
     3
 10
-103.3555603027
 20
70.999984741199995
 30
0.0
 11
-99.700012207000015
 21
70.999984741199995
 31
0.0
  0
LINE
  5
2CF
  8
LAYER1$C$L1
 62
     3
 10
-104.4000091553
 20
72.999984741199995
 30
0.0
 11
-99.700012207000015
 21
72.999984741199995
 31
0.0
  0
LINE
  5
2D0
  8
LAYER1$C$L1
 62
     3
 10
-104.4000091553
 20
74.699996948199995
 30
0.0
 11
-99.700012207000015
 21
74.699996948199995
 31
0.0
  0
LINE
  5
2D1
  8
LAYER1$C$L1
 62
     3
 10
-104.4000091553
 20
76.099990844700002
 30
0.0
 11
-99.700012207000015
 21
76.099990844700002
 31
0.0
  0
LINE
  5
2D2
  8
LAYER1$C$L1
 62
     3
 10
-104.4000091553
 20
77.199996948199995
 30
0.0
 11
-99.700012207000015
 21
77.199996948199995
 31
0.0
  0
LINE
  5
2D3
  8
LAYER1$C$L1
 62
     3
 10
-104.4000091553
 20
78.0
 30
0.0
 11
-99.700012207000015
 21
78.0
 31
0.0
  0
LINE
  5
2D4
  8
LAYER1$C$L1
 62
     3
 10
-92.500002439400006
 20
77.999995138499997
 30
0.0
 11
-92.199997805099997
 21
77.699990504200002
 31
0.0
  0
LINE
  5
2D5
  8
LAYER1$C$L1
 62
     3
 10
-99.699994977399996
 20
78.499974090099997
 30
0.0
 11
-99.199994446600002
 21
77.99997355939999
 31
0.0
  0
LINE
  5
2D6
  8
LAYER1$C$L1
 62
     3
 10
-99.200012207000015
 20
78.0
 30
0.0
 11
-92.5
 21
78.0
 31
0.0
  0
LINE
  5
2D7
  8
LAYER1$C$L1
 62
     3
 10
-99.200012207000015
 20
78.0
 30
0.0
 11
-99.200012207000015
 21
64.0
 31
0.0
  0
LINE
  5
2D8
  8
LAYER1$C$L1
 62
     3
 10
-92.5
 20
78.0
 30
0.0
 11
-92.5
 21
64.0
 31
0.0
  0
LINE
  5
2D9
  8
LAYER1$C$L1
 62
     3
 10
-92.199996948199995
 20
77.699996948199995
 30
0.0
 11
-92.199996948199995
 21
64.0
 31
0.0
  0
LINE
  5
2DA
  8
LAYER1$C$L1
 62
     3
 10
-104.4000091553
 20
78.5
 30
0.0
 11
-99.700012207000015
 21
78.5
 31
0.0
  0
LINE
  5
2DB
  8
LAYER1$C$L1
 62
     3
 10
-99.700012207000015
 20
78.5
 30
0.0
 11
-99.700012207000015
 21
64.0
 31
0.0
  0
LINE
  5
2DC
  8
LAYER1$C$L1
 62
     3
 10
-105.1999810152
 20
77.499954057300002
 30
0.0
 11
-104.3999812819
 21
78.499953723900006
 31
0.0
  0
LINE
  5
2DD
  8
LAYER1$C$L1
 62
     3
 10
-104.4000091553
 20
78.5
 30
0.0
 11
-104.4000091553
 21
64.0
 31
0.0
  0
LINE
  5
2DE
  8
LAYER1$C$L1
 62
     3
 10
-105.1999969481999
 20
77.5
 30
0.0
 11
-105.1999969481999
 21
64.0
 31
0.0
  0
LINE
  5
2DF
  8
LAYER1$C$L1
 62
     3
 10
-105.1999969481999
 20
53.0
 30
0.0
 11
-107.1999969481999
 21
53.0
 31
0.0
  0
LINE
  5
2E0
  8
LAYER1$C$L1
 62
     3
 10
-114.5
 20
52.799987793
 30
0.0
 11
-118.200012207
 21
52.799987793
 31
0.0
  0
LINE
  5
2E1
  8
LAYER1$C$L1
 62
     3
 10
-114.5
 20
52.0
 30
0.0
 11
-118.200012207
 21
52.0
 31
0.0
  0
LINE
  5
2E2
  8
LAYER1$C$L1
 62
     3
 10
-110.88000488279999
 20
61.899993896499993
 30
0.0
 11
-112.0
 21
61.899993896499993
 31
0.0
  0
LINE
  5
2E3
  8
LAYER1$C$L1
 62
     3
 10
-109.4933471679999
 20
59.299987792999993
 30
0.0
 11
-112.0
 21
59.299987792999993
 31
0.0
  0
LINE
  5
2E4
  8
LAYER1$C$L1
 62
     3
 10
-108.26667785639999
 20
57.0
 30
0.0
 11
-112.0
 21
57.0
 31
0.0
  0
LINE
  5
2E5
  8
LAYER1$C$L1
 62
     3
 10
-107.1999969481999
 20
55.0
 30
0.0
 11
-112.0
 21
55.0
 31
0.0
  0
LINE
  5
2E6
  8
LAYER1$C$L1
 62
     3
 10
-107.1999969481999
 20
53.299987793
 30
0.0
 11
-112.0
 21
53.299987793
 31
0.0
  0
LINE
  5
2E7
  8
LAYER1$C$L1
 62
     3
 10
-107.1999969481999
 20
51.899993896499993
 30
0.0
 11
-112.0
 21
51.899993896499993
 31
0.0
  0
LINE
  5
2E8
  8
LAYER1$C$L1
 62
     3
 10
-107.1999969481999
 20
50.799987793
 30
0.0
 11
-112.0
 21
50.799987793
 31
0.0
  0
LINE
  5
2E9
  8
LAYER1$C$L1
 62
     3
 10
-107.1999969481999
 20
50.0
 30
0.0
 11
-112.0
 21
50.0
 31
0.0
  0
LINE
  5
2EA
  8
LAYER1$C$L1
 62
     3
 10
-112.0
 20
50.0
 30
0.0
 11
-114.5
 21
50.0
 31
0.0
  0
LINE
  5
2EB
  8
LAYER1$C$L1
 62
     3
 10
-107.1999969481999
 20
49.5
 30
0.0
 11
-112.0
 21
49.5
 31
0.0
  0
LINE
  5
2EC
  8
LAYER1$C$L1
 62
     3
 10
-112.0
 20
64.0
 30
0.0
 11
-112.0
 21
49.5
 31
0.0
  0
LINE
  5
2ED
  8
LAYER1$C$L1
 62
     3
 10
-114.5
 20
64.0
 30
0.0
 11
-114.5
 21
50.0
 31
0.0
  0
LINE
  5
2EE
  8
LAYER1$C$L1
 62
     3
 10
-107.1999969481999
 20
64.0
 30
0.0
 11
-107.1999969481999
 21
49.5
 31
0.0
  0
LINE
  5
2EF
  8
LAYER1$C$L1
 62
     3
 10
-119.6999969481999
 20
64.0
 30
0.0
 11
-119.6999969481999
 21
52.5
 31
0.0
  0
LINE
  5
2F0
  8
LAYER1$C$L1
 62
     3
 10
-118.200012207
 20
53.0
 30
0.0
 11
-119.1999969482
 21
53.0
 31
0.0
  0
LINE
  5
2F1
  8
LAYER1$C$L1
 62
     3
 10
-118.200012207
 20
64.0
 30
0.0
 11
-118.200012207
 21
52.0
 31
0.0
  0
LINE
  5
2F2
  8
LAYER1$C$L1
 62
     3
 10
-120.1999969482
 20
46.0
 30
0.0
 11
-133.69999694820001
 21
46.0
 31
0.0
  0
LINE
  5
2F3
  8
LAYER1$C$L1
 62
     3
 10
-120.1999969482
 20
45.499999999999993
 30
0.0
 11
-133.69999694820001
 21
45.499999999999993
 31
0.0
  0
LINE
  5
2F4
  8
LAYER1$C$L1
 62
     3
 10
-119.6999969481999
 20
52.5
 30
0.0
 11
-119.6999969481999
 21
46.0
 31
0.0
  0
LINE
  5
2F5
  8
LAYER1$C$L1
 62
     3
 10
-133.69999694820001
 20
64.0
 30
0.0
 11
-133.69999694820001
 21
45.499999999999993
 31
0.0
  0
LINE
  5
2F6
  8
LAYER1$C$L1
 62
     3
 10
-108.32000732420001
 20
66.099990844700002
 30
0.0
 11
-107.1999969481999
 21
66.099990844700002
 31
0.0
  0
LINE
  5
2F7
  8
LAYER1$C$L1
 62
     3
 10
-109.70668029789999
 20
68.699996948199995
 30
0.0
 11
-107.1999969481999
 21
68.699996948199995
 31
0.0
  0
LINE
  5
2F8
  8
LAYER1$C$L1
 62
     3
 10
-110.9333496094
 20
70.999984741199995
 30
0.0
 11
-107.1999969481999
 21
70.999984741199995
 31
0.0
  0
LINE
  5
2F9
  8
LAYER1$C$L1
 62
     3
 10
-112.0
 20
72.999984741199995
 30
0.0
 11
-107.1999969481999
 21
72.999984741199995
 31
0.0
  0
LINE
  5
2FA
  8
LAYER1$C$L1
 62
     3
 10
-112.0
 20
74.699996948199995
 30
0.0
 11
-107.1999969481999
 21
74.699996948199995
 31
0.0
  0
LINE
  5
2FB
  8
LAYER1$C$L1
 62
     3
 10
-112.0
 20
76.099990844700002
 30
0.0
 11
-107.1999969481999
 21
76.099990844700002
 31
0.0
  0
LINE
  5
2FC
  8
LAYER1$C$L1
 62
     3
 10
-112.0
 20
77.199996948199995
 30
0.0
 11
-107.1999969481999
 21
77.199996948199995
 31
0.0
  0
LINE
  5
2FD
  8
LAYER1$C$L1
 62
     3
 10
-112.0
 20
78.0
 30
0.0
 11
-107.1999969481999
 21
78.0
 31
0.0
  0
LINE
  5
2FE
  8
LAYER1$C$L1
 62
     3
 10
-114.5
 20
78.0
 30
0.0
 11
-112.0
 21
78.0
 31
0.0
  0
LINE
  5
2FF
  8
LAYER1$C$L1
 62
     3
 10
-112.0
 20
78.5
 30
0.0
 11
-107.1999969481999
 21
78.5
 31
0.0
  0
LINE
  5
300
  8
LAYER1$C$L1
 62
     3
 10
-112.0
 20
78.5
 30
0.0
 11
-112.0
 21
64.0
 31
0.0
  0
LINE
  5
301
  8
LAYER1$C$L1
 62
     3
 10
-114.5
 20
78.0
 30
0.0
 11
-114.5
 21
64.0
 31
0.0
  0
LINE
  5
302
  8
LAYER1$C$L1
 62
     3
 10
-107.1999969481999
 20
78.5
 30
0.0
 11
-107.1999969481999
 21
64.0
 31
0.0
  0
LINE
  5
303
  8
LAYER1$C$L1
 62
     3
 10
-107.1999969481999
 20
75.0
 30
0.0
 11
-105.1999969481999
 21
75.0
 31
0.0
  0
LINE
  5
304
  8
LAYER1$C$L1
 62
     3
 10
-118.200012207
 20
75.199996948199995
 30
0.0
 11
-114.5
 21
75.199996948199995
 31
0.0
  0
LINE
  5
305
  8
LAYER1$C$L1
 62
     3
 10
-119.6999969481999
 20
75.5
 30
0.0
 11
-119.6999969481999
 21
64.0
 31
0.0
  0
LINE
  5
306
  8
LAYER1$C$L1
 62
     3
 10
-119.1999969482
 20
75.0
 30
0.0
 11
-118.200012207
 21
75.0
 31
0.0
  0
LINE
  5
307
  8
LAYER1$C$L1
 62
     3
 10
-118.200012207
 20
76.0
 30
0.0
 11
-114.5
 21
76.0
 31
0.0
  0
LINE
  5
308
  8
LAYER1$C$L1
 62
     3
 10
-118.200012207
 20
76.0
 30
0.0
 11
-118.200012207
 21
64.0
 31
0.0
  0
LINE
  5
309
  8
LAYER1$C$L1
 62
     3
 10
-133.69999694820001
 20
82.0
 30
0.0
 11
-120.1999969482
 21
82.0
 31
0.0
  0
LINE
  5
30A
  8
LAYER1$C$L1
 62
     3
 10
-133.69999694820001
 20
82.5
 30
0.0
 11
-120.1999969482
 21
82.5
 31
0.0
  0
LINE
  5
30B
  8
LAYER1$C$L1
 62
     3
 10
-119.6999969481999
 20
82.0
 30
0.0
 11
-119.6999969481999
 21
75.5
 31
0.0
  0
LINE
  5
30C
  8
LAYER1$C$L1
 62
     3
 10
-133.69999694820001
 20
82.5
 30
0.0
 11
-133.69999694820001
 21
64.0
 31
0.0
  0
LINE
  5
30D
  8
LAYER3$C$L3
  6
CENTERLINE
 62
     3
 10
-138.69999694820001
 20
64.0
 30
0.0
 11
-83.0
 21
64.0
 31
0.0
  0
LINE
  5
30E
  8
LAYER3$C$L3
  6
CENTERLINE
 62
     3
 10
-67.800003051800005
 20
64.0
 30
0.0
 11
-28.200027465800002
 21
64.0
 31
0.0
  0
LINE
  5
30F
  8
LAYER1$C$L1
 62
     3
 10
-48.000015258799991
 20
80.5
 30
0.0
 11
-43.800003051799997
 21
80.5
 31
0.0
  0
LINE
  5
310
  8
LAYER1$C$L1
 62
     3
 10
-48.000015258799991
 20
47.5
 30
0.0
 11
-43.800003051799997
 21
47.5
 31
0.0
  0
LINE
  5
311
  8
LAYER3$C$L3
  6
CENTERLINE
 62
     3
 10
-48.000015258799991
 20
87.5
 30
0.0
 11
-48.000015258799991
 21
40.499999999999993
 31
0.0
  0
LINE
  5
312
  8
LAYER1$C$L1
 62
     3
 10
-48.000015258799991
 20
82.5
 30
0.0
 11
-46.90000915529999
 21
82.5
 31
0.0
  0
LINE
  5
313
  8
LAYER1$C$L1
 62
     3
 10
-42.700012207
 20
45.499999999999993
 30
0.0
 11
-43.800003051799997
 21
45.499999999999993
 31
0.0
  0
LINE
  5
314
  8
LAYER1$C$L1
 62
     3
 10
-43.800003051799997
 20
82.5
 30
0.0
 11
-43.800003051799997
 21
80.5
 31
0.0
  0
LINE
  5
315
  8
LAYER1$C$L1
 62
     3
 10
-43.800003051799997
 20
47.5
 30
0.0
 11
-43.800003051799997
 21
45.499999999999993
 31
0.0
  0
LINE
  5
316
  8
LAYER1$C$L1
 62
     3
 10
-46.90000915529999
 20
82.5
 30
0.0
 11
-46.90000915529999
 21
80.5
 31
0.0
  0
LINE
  5
317
  8
LAYER1$C$L1
 62
     3
 10
-46.90000915529999
 20
47.5
 30
0.0
 11
-46.90000915529999
 21
45.499999999999993
 31
0.0
  0
LINE
  5
318
  8
LAYER1$C$L1
 62
     3
 10
-46.90000915529999
 20
45.499999999999993
 30
0.0
 11
-48.000015258799991
 21
45.499999999999993
 31
0.0
  0
LINE
  5
319
  8
LAYER1$C$L1
 62
     3
 10
-43.800003051799997
 20
82.5
 30
0.0
 11
-42.700012207
 21
82.5
 31
0.0
  0
LINE
  5
31A
  8
LAYER1$C$L1
 62
     3
 10
-42.700012207
 20
82.0
 30
0.0
 11
-42.700012207
 21
82.5
 31
0.0
  0
LINE
  5
31B
  8
LAYER1$C$L1
 62
     3
 10
-42.700012207
 20
46.0
 30
0.0
 11
-42.700012207
 21
45.499999999999993
 31
0.0
  0
LINE
  5
31C
  8
LAYER1$C$L1
 62
     3
 10
-42.700012207
 20
82.0
 30
0.0
 11
-34.200012207
 21
82.0
 31
0.0
  0
LINE
  5
31D
  8
LAYER1$C$L1
 62
     3
 10
-42.700012207
 20
46.0
 30
0.0
 11
-34.200012207
 21
46.0
 31
0.0
  0
LINE
  5
31E
  8
LAYER1$C$L1
 62
     3
 10
-33.200012207
 20
81.0
 30
0.0
 11
-33.200012207
 21
47.0
 31
0.0
  0
LINE
  5
31F
  8
LAYER1$C$L1
 62
     3
 10
-52.200012207
 20
80.5
 30
0.0
 11
-48.000015258799991
 21
80.5
 31
0.0
  0
LINE
  5
320
  8
LAYER1$C$L1
 62
     3
 10
-52.200012207
 20
47.5
 30
0.0
 11
-48.000015258799991
 21
47.5
 31
0.0
  0
LINE
  5
321
  8
LAYER3$C$L3
  6
CENTERLINE
 62
     3
 10
-48.000015258799991
 20
40.499999999999993
 30
0.0
 11
-48.000015258799991
 21
87.5
 31
0.0
  0
LINE
  5
322
  8
LAYER1$C$L1
 62
     3
 10
-49.1000061035
 20
82.5
 30
0.0
 11
-48.000015258799991
 21
82.5
 31
0.0
  0
LINE
  5
323
  8
LAYER1$C$L1
 62
     3
 10
-52.200012207
 20
45.499999999999993
 30
0.0
 11
-53.300003051799997
 21
45.499999999999993
 31
0.0
  0
LINE
  5
324
  8
LAYER1$C$L1
 62
     3
 10
-52.200012207
 20
80.5
 30
0.0
 11
-52.200012207
 21
82.5
 31
0.0
  0
LINE
  5
325
  8
LAYER1$C$L1
 62
     3
 10
-52.200012207
 20
45.499999999999993
 30
0.0
 11
-52.200012207
 21
47.5
 31
0.0
  0
LINE
  5
326
  8
LAYER1$C$L1
 62
     3
 10
-49.1000061035
 20
80.5
 30
0.0
 11
-49.1000061035
 21
82.5
 31
0.0
  0
LINE
  5
327
  8
LAYER1$C$L1
 62
     3
 10
-49.1000061035
 20
45.499999999999993
 30
0.0
 11
-49.1000061035
 21
47.5
 31
0.0
  0
LINE
  5
328
  8
LAYER1$C$L1
 62
     3
 10
-48.000015258799991
 20
45.499999999999993
 30
0.0
 11
-49.1000061035
 21
45.499999999999993
 31
0.0
  0
LINE
  5
329
  8
LAYER1$C$L1
 62
     3
 10
-53.300003051799997
 20
82.5
 30
0.0
 11
-52.200012207
 21
82.5
 31
0.0
  0
LINE
  5
32A
  8
LAYER1$C$L1
 62
     3
 10
-53.300003051799997
 20
82.5
 30
0.0
 11
-53.300003051799997
 21
82.0
 31
0.0
  0
LINE
  5
32B
  8
LAYER1$C$L1
 62
     3
 10
-53.300003051799997
 20
45.499999999999993
 30
0.0
 11
-53.300003051799997
 21
46.0
 31
0.0
  0
LINE
  5
32C
  8
LAYER1$C$L1
 62
     3
 10
-61.800003051799997
 20
82.0
 30
0.0
 11
-53.300003051799997
 21
82.0
 31
0.0
  0
LINE
  5
32D
  8
LAYER1$C$L1
 62
     3
 10
-61.800003051799997
 20
46.0
 30
0.0
 11
-53.300003051799997
 21
46.0
 31
0.0
  0
LINE
  5
32E
  8
LAYER1$C$L1
 62
     3
 10
-62.800003051799997
 20
47.0
 30
0.0
 11
-62.800003051799997
 21
81.0
 31
0.0
  0
LINE
  5
32F
  8
LAYER3$C$L3
  6
CENTERLINE
 62
     3
 10
-67.800003051800005
 20
64.0
 30
0.0
 11
-28.200027465800002
 21
64.0
 31
0.0
  0
LINE
  5
330
  8
LAYER1$C$L1
 62
     3
 10
-48.000015258799991
 20
80.5
 30
0.0
 11
-43.800003051799997
 21
80.5
 31
0.0
  0
LINE
  5
331
  8
LAYER1$C$L1
 62
     3
 10
-48.000015258799991
 20
47.5
 30
0.0
 11
-43.800003051799997
 21
47.5
 31
0.0
  0
LINE
  5
332
  8
LAYER3$C$L3
  6
CENTERLINE
 62
     3
 10
-48.000015258799991
 20
87.5
 30
0.0
 11
-48.000015258799991
 21
40.499999999999993
 31
0.0
  0
LINE
  5
333
  8
LAYER1$C$L1
 62
     3
 10
-48.000015258799991
 20
82.5
 30
0.0
 11
-46.90000915529999
 21
82.5
 31
0.0
  0
LINE
  5
334
  8
LAYER1$C$L1
 62
     3
 10
-42.700012207
 20
45.499999999999993
 30
0.0
 11
-43.800003051799997
 21
45.499999999999993
 31
0.0
  0
LINE
  5
335
  8
LAYER1$C$L1
 62
     3
 10
-43.800003051799997
 20
82.5
 30
0.0
 11
-43.800003051799997
 21
80.5
 31
0.0
  0
LINE
  5
336
  8
LAYER1$C$L1
 62
     3
 10
-43.800003051799997
 20
47.5
 30
0.0
 11
-43.800003051799997
 21
45.499999999999993
 31
0.0
  0
LINE
  5
337
  8
LAYER1$C$L1
 62
     3
 10
-46.90000915529999
 20
82.5
 30
0.0
 11
-46.90000915529999
 21
80.5
 31
0.0
  0
LINE
  5
338
  8
LAYER1$C$L1
 62
     3
 10
-46.90000915529999
 20
47.5
 30
0.0
 11
-46.90000915529999
 21
45.499999999999993
 31
0.0
  0
LINE
  5
339
  8
LAYER1$C$L1
 62
     3
 10
-46.90000915529999
 20
45.499999999999993
 30
0.0
 11
-48.000015258799991
 21
45.499999999999993
 31
0.0
  0
LINE
  5
33A
  8
LAYER1$C$L1
 62
     3
 10
-43.800003051799997
 20
82.5
 30
0.0
 11
-42.700012207
 21
82.5
 31
0.0
  0
LINE
  5
33B
  8
LAYER1$C$L1
 62
     3
 10
-42.700012207
 20
82.0
 30
0.0
 11
-42.700012207
 21
82.5
 31
0.0
  0
LINE
  5
33C
  8
LAYER1$C$L1
 62
     3
 10
-42.700012207
 20
46.0
 30
0.0
 11
-42.700012207
 21
45.499999999999993
 31
0.0
  0
LINE
  5
33D
  8
LAYER1$C$L1
 62
     3
 10
-42.700012207
 20
82.0
 30
0.0
 11
-34.200012207
 21
82.0
 31
0.0
  0
LINE
  5
33E
  8
LAYER1$C$L1
 62
     3
 10
-42.700012207
 20
46.0
 30
0.0
 11
-34.200012207
 21
46.0
 31
0.0
  0
LINE
  5
33F
  8
LAYER1$C$L1
 62
     3
 10
-33.200012207
 20
81.0
 30
0.0
 11
-33.200012207
 21
47.0
 31
0.0
  0
LINE
  5
340
  8
LAYER1$C$L1
 62
     3
 10
-52.200012207
 20
80.5
 30
0.0
 11
-48.000015258799991
 21
80.5
 31
0.0
  0
LINE
  5
341
  8
LAYER1$C$L1
 62
     3
 10
-52.200012207
 20
47.5
 30
0.0
 11
-48.000015258799991
 21
47.5
 31
0.0
  0
LINE
  5
342
  8
LAYER3$C$L3
  6
CENTERLINE
 62
     3
 10
-48.000015258799991
 20
40.499999999999993
 30
0.0
 11
-48.000015258799991
 21
87.5
 31
0.0
  0
LINE
  5
343
  8
LAYER1$C$L1
 62
     3
 10
-49.1000061035
 20
82.5
 30
0.0
 11
-48.000015258799991
 21
82.5
 31
0.0
  0
LINE
  5
344
  8
LAYER1$C$L1
 62
     3
 10
-52.200012207
 20
45.499999999999993
 30
0.0
 11
-53.300003051799997
 21
45.499999999999993
 31
0.0
  0
LINE
  5
345
  8
LAYER1$C$L1
 62
     3
 10
-52.200012207
 20
80.5
 30
0.0
 11
-52.200012207
 21
82.5
 31
0.0
  0
LINE
  5
346
  8
LAYER1$C$L1
 62
     3
 10
-52.200012207
 20
45.499999999999993
 30
0.0
 11
-52.200012207
 21
47.5
 31
0.0
  0
LINE
  5
347
  8
LAYER1$C$L1
 62
     3
 10
-49.1000061035
 20
80.5
 30
0.0
 11
-49.1000061035
 21
82.5
 31
0.0
  0
LINE
  5
348
  8
LAYER1$C$L1
 62
     3
 10
-49.1000061035
 20
45.499999999999993
 30
0.0
 11
-49.1000061035
 21
47.5
 31
0.0
  0
LINE
  5
349
  8
LAYER1$C$L1
 62
     3
 10
-48.000015258799991
 20
45.499999999999993
 30
0.0
 11
-49.1000061035
 21
45.499999999999993
 31
0.0
  0
LINE
  5
34A
  8
LAYER1$C$L1
 62
     3
 10
-53.300003051799997
 20
82.5
 30
0.0
 11
-52.200012207
 21
82.5
 31
0.0
  0
LINE
  5
34B
  8
LAYER1$C$L1
 62
     3
 10
-53.300003051799997
 20
82.5
 30
0.0
 11
-53.300003051799997
 21
82.0
 31
0.0
  0
LINE
  5
34C
  8
LAYER1$C$L1
 62
     3
 10
-53.300003051799997
 20
45.499999999999993
 30
0.0
 11
-53.300003051799997
 21
46.0
 31
0.0
  0
LINE
  5
34D
  8
LAYER1$C$L1
 62
     3
 10
-61.800003051799997
 20
82.0
 30
0.0
 11
-53.300003051799997
 21
82.0
 31
0.0
  0
LINE
  5
34E
  8
LAYER1$C$L1
 62
     3
 10
-61.800003051799997
 20
46.0
 30
0.0
 11
-53.300003051799997
 21
46.0
 31
0.0
  0
LINE
  5
34F
  8
LAYER1$C$L1
 62
     3
 10
-62.800003051799997
 20
47.0
 30
0.0
 11
-62.800003051799997
 21
81.0
 31
0.0
  0
LINE
  5
352
  8
LAYER1$C$L1
 62
     3
 10
-174.09999084469999
 20
73.0
 30
0.0
 11
-176.19999694820001
 21
73.0
 31
0.0
  0
LINE
  5
353
  8
LAYER1$C$L1
 62
     3
 10
-174.09999084469999
 20
68.799987793
 30
0.0
 11
-176.19999694820001
 21
68.799987793
 31
0.0
  0
LINE
  5
354
  8
LAYER1$C$L1
 62
     3
 10
-174.09999084469999
 20
73.0
 30
0.0
 11
-174.09999084469999
 21
68.799987793
 31
0.0
  0
LINE
  5
355
  8
LAYER1$C$L1
 62
     3
 10
-151.89999389650001
 20
55.0
 30
0.0
 11
-149.7999877929999
 21
55.0
 31
0.0
  0
LINE
  5
356
  8
LAYER1$C$L1
 62
     3
 10
-151.89999389650001
 20
59.199996948199988
 30
0.0
 11
-149.7999877929999
 21
59.199996948199988
 31
0.0
  0
LINE
  5
357
  8
LAYER1$C$L1
 62
     3
 10
-151.89999389650001
 20
55.0
 30
0.0
 11
-151.89999389650001
 21
59.199996948199988
 31
0.0
  0
LINE
  5
358
  8
LAYER1$C$L1
 62
     3
 10
-149.7999877929999
 20
73.0
 30
0.0
 11
-151.89999389650001
 21
73.0
 31
0.0
  0
LINE
  5
359
  8
LAYER1$C$L1
 62
     3
 10
-149.7999877929999
 20
68.799987793
 30
0.0
 11
-151.89999389650001
 21
68.799987793
 31
0.0
  0
LINE
  5
35A
  8
LAYER1$C$L1
 62
     3
 10
-151.89999389650001
 20
68.799987793
 30
0.0
 11
-151.89999389650001
 21
73.0
 31
0.0
  0
LINE
  5
35B
  8
LAYER1$C$L1
 62
     3
 10
-149.7999877929999
 20
68.799987793
 30
0.0
 11
-149.7999877929999
 21
73.0
 31
0.0
  0
LINE
  5
35C
  8
LAYER1$C$L1
 62
     3
 10
-161.89999389650001
 20
81.399993896499979
 30
0.0
 11
-158.7999877929999
 21
81.399993896499979
 31
0.0
  0
LINE
  5
35D
  8
LAYER1$C$L1
 62
     3
 10
-167.19999694820001
 20
81.399993896499979
 30
0.0
 11
-164.0999908446999
 21
81.399993896499979
 31
0.0
  0
LINE
  5
35E
  8
LAYER1$C$L1
 62
     3
 10
-161.89999389650001
 20
80.399993896499993
 30
0.0
 11
-158.7999877929999
 21
80.399993896499993
 31
0.0
  0
LINE
  5
35F
  8
LAYER1$C$L1
 62
     3
 10
-167.19999694820001
 20
80.399993896499993
 30
0.0
 11
-164.0999908446999
 21
80.399993896499993
 31
0.0
  0
LINE
  5
360
  8
LAYER1$C$L1
 62
     3
 10
-161.89999389650001
 20
79.899993896499993
 30
0.0
 11
-158.7999877929999
 21
79.899993896499993
 31
0.0
  0
LINE
  5
361
  8
LAYER1$C$L1
 62
     3
 10
-167.19999694820001
 20
79.899993896499993
 30
0.0
 11
-164.0999908446999
 21
79.899993896499993
 31
0.0
  0
LINE
  5
362
  8
LAYER1$C$L1
 62
     3
 10
-149.7999877929999
 20
64.0
 30
0.0
 11
-149.7999877929999
 21
82.0
 31
0.0
  0
LINE
  5
363
  8
LAYER1$C$L1
 62
     3
 10
-154.38942935599999
 20
76.3105695088
 30
0.0
 11
-153.69999594029991
 21
77.000002982599995
 31
0.0
  0
LINE
  5
364
  8
LAYER1$C$L1
 62
     3
 10
-153.69999594029991
 20
77.000002982599995
 30
0.0
 11
-153.0105733142
 21
77.689425666800005
 31
0.0
  0
LINE
  5
365
  8
LAYER1$C$L1
 62
     3
 10
-152.32112899259991
 20
75.621136151200005
 30
0.0
 11
-153.69999594029991
 21
77.000002982599995
 31
0.0
  0
LINE
  5
366
  8
LAYER1$C$L1
 62
     3
 10
-153.69999594029991
 20
77.000002982599995
 30
0.0
 11
-155.0788520982999
 21
78.378859024400001
 31
0.0
  0
LINE
  5
367
  8
LAYER1$C$L1
 62
     3
 10
-150.51253947509991
 20
78.21874081
 30
0.0
 11
-149.99499186770001
 21
78.218735437399999
 31
0.0
  0
LINE
  5
368
  8
LAYER1$C$L1
 62
     3
 10
-149.9118111688
 20
78.218726431700006
 30
0.0
 11
-149.99500208680001
 21
78.218727333100006
 31
0.0
  0
LINE
  5
369
  8
LAYER1$C$L1
 62
     3
 10
-150.51254272459991
 20
75.78114318850001
 30
0.0
 11
-149.99499511719989
 21
75.78114318850001
 31
0.0
  0
LINE
  5
36A
  8
LAYER1$C$L1
 62
     3
 10
-149.91180419919999
 20
75.781234741199995
 30
0.0
 11
-149.99499511719989
 21
75.781234741199995
 31
0.0
  0
LINE
  5
36B
  8
LAYER1$C$L1
 62
     3
 10
-152.48127746579991
 20
80.187408447300001
 30
0.0
 11
-152.48127746579991
 21
80.704956054700006
 31
0.0
  0
LINE
  5
36C
  8
LAYER1$C$L1
 62
     3
 10
-152.48126220699999
 20
80.788162231399994
 30
0.0
 11
-152.48126220699999
 21
80.704971313499996
 31
0.0
  0
LINE
  5
36D
  8
LAYER1$C$L1
 62
     3
 10
-152.4812496571999
 20
73.211798598699986
 30
0.0
 11
-152.48124865459991
 21
73.294989516699999
 31
0.0
  0
LINE
  5
36E
  8
LAYER1$C$L1
 62
     3
 10
-152.48124694820001
 20
73.8125457764
 30
0.0
 11
-152.48124694820001
 21
73.294998168900008
 31
0.0
  0
LINE
  5
36F
  8
LAYER1$C$L1
 62
     3
 10
-151.2624974398
 20
80.412492555600025
 30
0.0
 11
-150.2874957830999
 21
79.437490981099998
 31
0.0
  0
LINE
  5
370
  8
LAYER1$C$L1
 62
     3
 10
-150.28749557759991
 20
74.5624936926
 30
0.0
 11
-151.2624971521999
 21
73.587492035799997
 31
0.0
  0
LINE
  5
371
  8
LAYER1$C$L1
 62
     3
 10
-149.7999877929999
 20
78.949996948199995
 30
0.0
 11
-149.7999877929999
 21
78.860183715800005
 31
0.0
  0
LINE
  5
372
  8
LAYER1$C$L1
 62
     3
 10
-151.7499903138999
 20
80.899974572000005
 30
0.0
 11
-150.15003415059991
 21
80.7222010359
 31
0.0
  0
LINE
  5
373
  8
LAYER1$C$L1
 62
     3
 10
-149.97775886049999
 20
80.549941393300003
 30
0.0
 11
-149.79998522849991
 21
78.949985229999996
 31
0.0
  0
LINE
  5
374
  8
LAYER1$C$L1
 62
     3
 10
-149.79999727169991
 20
75.049991242700003
 30
0.0
 11
-149.97777080779991
 21
73.450035079399996
 31
0.0
  0
LINE
  5
375
  8
LAYER1$C$L1
 62
     3
 10
-151.74999310250001
 20
73.100000061599999
 30
0.0
 11
-150.15003693919991
 21
73.277773693599997
 31
0.0
  0
LINE
  5
376
  8
LAYER1$C$L1
 62
     3
 10
-151.75
 20
80.899993896499993
 30
0.0
 11
-151.83981323239991
 21
80.899993896499993
 31
0.0
  0
LINE
  5
377
  8
LAYER1$C$L1
 62
     3
 10
-151.83981323239991
 20
73.099990844700002
 30
0.0
 11
-151.75
 21
73.099990844700002
 31
0.0
  0
LINE
  5
378
  8
LAYER1$C$L1
 62
     3
 10
-149.7999877929999
 20
75.049987793
 30
0.0
 11
-149.7999877929999
 21
75.139816284199995
 31
0.0
  0
LINE
  5
379
  8
LAYER1$C$L1
 62
     3
 10
-157.40500206199991
 20
78.218733433099999
 30
0.0
 11
-156.88743919579991
 21
78.218738805900003
 31
0.0
  0
LINE
  5
37A
  8
LAYER1$C$L1
 62
     3
 10
-157.4049765872
 20
78.218738170600005
 30
0.0
 11
-157.48816750520001
 21
78.218737269200005
 31
0.0
  0
LINE
  5
37B
  8
LAYER1$C$L1
 62
     3
 10
-157.4049835205
 20
75.78135681149999
 30
0.0
 11
-156.88743591310001
 21
75.78135681149999
 31
0.0
  0
LINE
  5
37C
  8
LAYER1$C$L1
 62
     3
 10
-157.4049835205
 20
75.781234741199995
 30
0.0
 11
-157.48817443850001
 21
75.781234741199995
 31
0.0
  0
LINE
  5
37D
  8
LAYER1$C$L1
 62
     3
 10
-154.91870117190001
 20
80.704971313499996
 30
0.0
 11
-154.91870117190001
 21
80.187423706099992
 31
0.0
  0
LINE
  5
37E
  8
LAYER1$C$L1
 62
     3
 10
-154.9187164306999
 20
80.704971313499996
 30
0.0
 11
-154.9187164306999
 21
80.788146972700005
 31
0.0
  0
LINE
  5
37F
  8
LAYER1$C$L1
 62
     3
 10
-154.91873002779991
 20
73.294992725399993
 30
0.0
 11
-154.91872902540001
 21
73.2118170663
 31
0.0
  0
LINE
  5
380
  8
LAYER1$C$L1
 62
     3
 10
-154.91873168949999
 20
73.294998168900008
 30
0.0
 11
-154.91873168949999
 21
73.8125457764
 31
0.0
  0
LINE
  5
381
  8
LAYER1$C$L1
 62
     3
 10
-157.11249630290001
 20
79.437490693399994
 30
0.0
 11
-156.1374947283
 21
80.412492350099996
 31
0.0
  0
LINE
  5
382
  8
LAYER1$C$L1
 62
     3
 10
-156.13749444070001
 20
73.587491830399998
 30
0.0
 11
-157.1124960974
 21
74.562493404899996
 31
0.0
  0
LINE
  5
383
  8
LAYER1$C$L1
 62
     3
 10
-157.5999908446999
 20
78.860183715800005
 30
0.0
 11
-157.5999908446999
 21
78.949996948199995
 31
0.0
  0
LINE
  5
384
  8
LAYER1$C$L1
 62
     3
 10
-157.24992656020001
 20
80.722219471900004
 30
0.0
 11
-155.64998556239991
 21
80.899991418900001
 31
0.0
  0
LINE
  5
385
  8
LAYER1$C$L1
 62
     3
 10
-157.5999888087
 20
78.9499832148
 30
0.0
 11
-157.42221695769999
 21
80.549924212700006
 31
0.0
  0
LINE
  5
386
  8
LAYER1$C$L1
 62
     3
 10
-157.4222029538
 20
73.450036606799983
 30
0.0
 11
-157.59997658579999
 21
75.049992770100005
 31
0.0
  0
LINE
  5
387
  8
LAYER1$C$L1
 62
     3
 10
-157.24993844939991
 20
73.277756571099999
 30
0.0
 11
-155.6499822861
 21
73.099983034999994
 31
0.0
  0
LINE
  5
388
  8
LAYER1$C$L1
 62
     3
 10
-155.56018066409999
 20
80.899993896499993
 30
0.0
 11
-155.64999389650001
 21
80.899993896499993
 31
0.0
  0
LINE
  5
389
  8
LAYER1$C$L1
 62
     3
 10
-155.64999389650001
 20
73.099990844700002
 30
0.0
 11
-155.56018066409999
 21
73.099990844700002
 31
0.0
  0
LINE
  5
38A
  8
LAYER1$C$L1
 62
     3
 10
-157.5999908446999
 20
75.139816284199995
 30
0.0
 11
-157.5999908446999
 21
75.049987793
 31
0.0
  0
LINE
  5
38B
  8
LAYER1$C$L1
 62
     3
 10
-176.19999694820001
 20
80.299987792999985
 30
0.0
 11
-168.2999877929999
 21
80.299987792999985
 31
0.0
  0
LINE
  5
38C
  8
LAYER1$C$L1
 62
     3
 10
-163.44999694820001
 20
64.599990844700002
 30
0.0
 11
-162.5499877929999
 21
64.599990844700002
 31
0.0
  0
LINE
  5
38D
  8
LAYER1$C$L1
 62
     3
 10
-162.5499877929999
 20
67.799987793
 30
0.0
 11
-163.44999694820001
 21
67.799987793
 31
0.0
  0
LINE
  5
38E
  8
LAYER1$C$L1
 62
     3
 10
-162.5499877929999
 20
64.599990844700002
 30
0.0
 11
-162.5499877929999
 21
67.799987793
 31
0.0
  0
LINE
  5
38F
  8
LAYER1$C$L1
 62
     3
 10
-163.44999694820001
 20
64.599990844700002
 30
0.0
 11
-163.44999694820001
 21
67.799987793
 31
0.0
  0
LINE
  5
390
  8
LAYER1$C$L1
 62
     3
 10
-162.99998474119991
 20
64.599990844700002
 30
0.0
 11
-162.99998474119991
 21
67.799987793
 31
0.0
  0
LINE
  5
391
  8
LAYER1$C$L1
 62
     3
 10
-165.99998474119991
 20
64.0
 30
0.0
 11
-165.99998474119991
 21
69.25
 31
0.0
  0
LINE
  5
392
  8
LAYER1$C$L1
 62
     3
 10
-159.9999847412
 20
69.25
 30
0.0
 11
-159.9999847412
 21
64.0
 31
0.0
  0
LINE
  5
393
  8
LAYER1$C$L1
 62
     3
 10
-159.9999847412
 20
69.25
 30
0.0
 11
-165.99998474119991
 21
69.25
 31
0.0
  0
LINE
  5
394
  8
LAYER1$C$L1
 62
     3
 10
-159.9999847412
 20
68.199996948199995
 30
0.0
 11
-165.99998474119991
 21
68.199996948199995
 31
0.0
  0
LINE
  5
395
  8
LAYER1$C$L1
 62
     3
 10
-157.69999694820001
 20
77.599990844700002
 30
0.0
 11
-162.99998474119991
 21
77.599990844700002
 31
0.0
  0
LINE
  5
396
  8
LAYER1$C$L1
 62
     3
 10
-161.89999389650001
 20
82.5
 30
0.0
 11
-162.99998474119991
 21
82.5
 31
0.0
  0
LINE
  5
397
  8
LAYER1$C$L1
 62
     3
 10
-157.69999694820001
 20
82.5
 30
0.0
 11
-158.7999877929999
 21
82.5
 31
0.0
  0
LINE
  5
398
  8
LAYER1$C$L1
 62
     3
 10
-161.89999389650001
 20
78.899993896499993
 30
0.0
 11
-158.7999877929999
 21
78.899993896499993
 31
0.0
  0
LINE
  5
399
  8
LAYER1$C$L1
 62
     3
 10
-161.89999389650001
 20
78.899993896499993
 30
0.0
 11
-161.89999389650001
 21
82.5
 31
0.0
  0
LINE
  5
39A
  8
LAYER1$C$L1
 62
     3
 10
-158.7999877929999
 20
78.899993896499993
 30
0.0
 11
-158.7999877929999
 21
82.5
 31
0.0
  0
LINE
  5
39B
  8
LAYER1$C$L1
 62
     3
 10
-149.19999694820001
 20
82.0
 30
0.0
 11
-157.69999694820001
 21
82.0
 31
0.0
  0
LINE
  5
39C
  8
LAYER1$C$L1
 62
     3
 10
-157.69999694820001
 20
82.0
 30
0.0
 11
-157.69999694820001
 21
82.5
 31
0.0
  0
LINE
  5
39D
  8
LAYER1$C$L1
 62
     3
 10
-148.19999694820001
 20
81.0
 30
0.0
 11
-148.19999694820001
 21
64.0
 31
0.0
  0
LINE
  5
39E
  8
LAYER1$C$L1
 62
     3
 10
-162.99998474119991
 20
77.599990844700002
 30
0.0
 11
-168.2999877929999
 21
77.599990844700002
 31
0.0
  0
LINE
  5
39F
  8
LAYER1$C$L1
 62
     3
 10
-168.2999877929999
 20
80.299987792999985
 30
0.0
 11
-168.2999877929999
 21
77.599990844700002
 31
0.0
  0
LINE
  5
3A0
  8
LAYER1$C$L1
 62
     3
 10
-176.19999694820001
 20
64.0
 30
0.0
 11
-176.19999694820001
 21
80.299987792999985
 31
0.0
  0
LINE
  5
3A1
  8
LAYER1$C$L1
 62
     3
 10
-162.99998474119991
 20
82.5
 30
0.0
 11
-164.0999908446999
 21
82.5
 31
0.0
  0
LINE
  5
3A2
  8
LAYER1$C$L1
 62
     3
 10
-167.19999694820001
 20
82.5
 30
0.0
 11
-168.2999877929999
 21
82.5
 31
0.0
  0
LINE
  5
3A3
  8
LAYER1$C$L1
 62
     3
 10
-167.19999694820001
 20
78.899993896499993
 30
0.0
 11
-164.0999908446999
 21
78.899993896499993
 31
0.0
  0
LINE
  5
3A4
  8
LAYER1$C$L1
 62
     3
 10
-164.0999908446999
 20
82.5
 30
0.0
 11
-164.0999908446999
 21
78.899993896499993
 31
0.0
  0
LINE
  5
3A5
  8
LAYER1$C$L1
 62
     3
 10
-167.19999694820001
 20
82.5
 30
0.0
 11
-167.19999694820001
 21
78.899993896499993
 31
0.0
  0
LINE
  5
3A6
  8
LAYER1$C$L1
 62
     3
 10
-168.2999877929999
 20
82.0
 30
0.0
 11
-176.7999877929999
 21
82.0
 31
0.0
  0
LINE
  5
3A7
  8
LAYER1$C$L1
 62
     3
 10
-168.2999877929999
 20
82.5
 30
0.0
 11
-168.2999877929999
 21
82.0
 31
0.0
  0
LINE
  5
3A8
  8
LAYER1$C$L1
 62
     3
 10
-177.7999877929999
 20
64.0
 30
0.0
 11
-177.7999877929999
 21
81.0
 31
0.0
  0
LINE
  5
3A9
  8
LAYER1$C$L1
 62
     3
 10
-176.19999694820001
 20
55.0
 30
0.0
 11
-174.09999084469999
 21
55.0
 31
0.0
  0
LINE
  5
3AA
  8
LAYER1$C$L1
 62
     3
 10
-176.19999694820001
 20
59.199996948199988
 30
0.0
 11
-174.09999084469999
 21
59.199996948199988
 31
0.0
  0
LINE
  5
3AB
  8
LAYER1$C$L1
 62
     3
 10
-174.09999084469999
 20
59.199996948199988
 30
0.0
 11
-174.09999084469999
 21
55.0
 31
0.0
  0
LINE
  5
3AC
  8
LAYER1$C$L1
 62
     3
 10
-176.19999694820001
 20
59.199996948199988
 30
0.0
 11
-176.19999694820001
 21
55.0
 31
0.0
  0
LINE
  5
3AD
  8
LAYER1$C$L1
 62
     3
 10
-164.0999908446999
 20
46.6000061035
 30
0.0
 11
-167.19999694820001
 21
46.6000061035
 31
0.0
  0
LINE
  5
3AE
  8
LAYER1$C$L1
 62
     3
 10
-158.7999877929999
 20
46.6000061035
 30
0.0
 11
-161.89999389650001
 21
46.6000061035
 31
0.0
  0
LINE
  5
3AF
  8
LAYER1$C$L1
 62
     3
 10
-164.0999908446999
 20
47.6000061035
 30
0.0
 11
-167.19999694820001
 21
47.6000061035
 31
0.0
  0
LINE
  5
3B0
  8
LAYER1$C$L1
 62
     3
 10
-158.7999877929999
 20
47.6000061035
 30
0.0
 11
-161.89999389650001
 21
47.6000061035
 31
0.0
  0
LINE
  5
3B1
  8
LAYER1$C$L1
 62
     3
 10
-164.0999908446999
 20
48.099990844700002
 30
0.0
 11
-167.19999694820001
 21
48.099990844700002
 31
0.0
  0
LINE
  5
3B2
  8
LAYER1$C$L1
 62
     3
 10
-158.7999877929999
 20
48.099990844700002
 30
0.0
 11
-161.89999389650001
 21
48.099990844700002
 31
0.0
  0
LINE
  5
3B3
  8
LAYER1$C$L1
 62
     3
 10
-176.19999694820001
 20
64.0
 30
0.0
 11
-176.19999694820001
 21
46.0
 31
0.0
  0
LINE
  5
3B4
  8
LAYER1$C$L1
 62
     3
 10
-171.61054880969991
 20
51.689422819199997
 30
0.0
 11
-172.29998222539999
 21
50.999989403500003
 31
0.0
  0
LINE
  5
3B5
  8
LAYER1$C$L1
 62
     3
 10
-172.29998222539999
 20
50.999989403500003
 30
0.0
 11
-172.98940485150001
 21
50.310566777399998
 31
0.0
  0
LINE
  5
3B6
  8
LAYER1$C$L1
 62
     3
 10
-173.67883826720001
 20
52.378845445299987
 30
0.0
 11
-172.29998222539999
 21
50.999989403500003
 31
0.0
  0
LINE
  5
3B7
  8
LAYER1$C$L1
 62
     3
 10
-172.29998222539999
 20
50.999989403500003
 30
0.0
 11
-170.92112618359991
 21
49.621133361699997
 31
0.0
  0
LINE
  5
3B8
  8
LAYER1$C$L1
 62
     3
 10
-175.48741354229989
 20
49.781240669399999
 30
0.0
 11
-176.00497640849991
 21
49.781246042100001
 31
0.0
  0
LINE
  5
3B9
  8
LAYER1$C$L1
 62
     3
 10
-176.08817521489999
 20
49.781235404499988
 30
0.0
 11
-176.00498429699999
 21
49.781234503100002
 31
0.0
  0
LINE
  5
3BA
  8
LAYER1$C$L1
 62
     3
 10
-175.48742675779991
 20
52.218582153299998
 30
0.0
 11
-176.00498962399999
 21
52.218582153299998
 31
0.0
  0
LINE
  5
3BB
  8
LAYER1$C$L1
 62
     3
 10
-176.08816528319991
 20
52.218734741200002
 30
0.0
 11
-176.00498962399999
 21
52.218734741200002
 31
0.0
  0
LINE
  5
3BC
  8
LAYER1$C$L1
 62
     3
 10
-173.51875305179999
 20
47.8125457764
 30
0.0
 11
-173.51875305179999
 21
47.294998168900001
 31
0.0
  0
LINE
  5
3BD
  8
LAYER1$C$L1
 62
     3
 10
-173.5187377929999
 20
47.211807251000003
 30
0.0
 11
-173.5187377929999
 21
47.294998168900001
 31
0.0
  0
LINE
  5
3BE
  8
LAYER1$C$L1
 62
     3
 10
-173.51873365840001
 20
54.788162972299993
 30
0.0
 11
-173.51873466079999
 21
54.704987313100013
 31
0.0
  0
LINE
  5
3BF
  8
LAYER1$C$L1
 62
     3
 10
-173.5187377929999
 20
54.187438964799988
 30
0.0
 11
-173.5187377929999
 21
54.704986572299987
 31
0.0
  0
LINE
  5
3C0
  8
LAYER1$C$L1
 62
     3
 10
-174.73748076699991
 20
47.587500077000001
 30
0.0
 11
-175.71248234149999
 21
48.562501651600002
 31
0.0
  0
LINE
  5
3C1
  8
LAYER1$C$L1
 62
     3
 10
-175.71248234149999
 20
53.437498734599998
 30
0.0
 11
-174.73748076699991
 21
54.412500309199999
 31
0.0
  0
LINE
  5
3C2
  8
LAYER1$C$L1
 62
     3
 10
-176.19999694820001
 20
49.049987793
 30
0.0
 11
-176.19999694820001
 21
49.139816284200002
 31
0.0
  0
LINE
  5
3C3
  8
LAYER1$C$L1
 62
     3
 10
-174.24997983200001
 20
47.099988705900003
 30
0.0
 11
-175.8499359953
 21
47.277762241899993
 31
0.0
  0
LINE
  5
3C4
  8
LAYER1$C$L1
 62
     3
 10
-176.02219682369989
 20
47.450031617999997
 30
0.0
 11
-176.19997035969999
 21
49.049987781299997
 31
0.0
  0
LINE
  5
3C5
  8
LAYER1$C$L1
 62
     3
 10
-176.19997287419989
 20
52.949972035200012
 30
0.0
 11
-176.02219933809999
 21
54.549928198500012
 31
0.0
  0
LINE
  5
3C6
  8
LAYER1$C$L1
 62
     3
 10
-174.2499790025999
 20
54.899986276099987
 30
0.0
 11
-175.84993516590001
 21
54.722212740000003
 31
0.0
  0
LINE
  5
3C7
  8
LAYER1$C$L1
 62
     3
 10
-174.24998474119991
 20
47.1000061035
 30
0.0
 11
-174.1601715088
 21
47.1000061035
 31
0.0
  0
LINE
  5
3C8
  8
LAYER1$C$L1
 62
     3
 10
-174.1601715088
 20
54.899993896499993
 30
0.0
 11
-174.24998474119991
 21
54.899993896499993
 31
0.0
  0
LINE
  5
3C9
  8
LAYER1$C$L1
 62
     3
 10
-176.19999694820001
 20
52.949996948199988
 30
0.0
 11
-176.19999694820001
 21
52.860183715799991
 31
0.0
  0
LINE
  5
3CA
  8
LAYER1$C$L1
 62
     3
 10
-168.59499921450001
 20
49.781239338200002
 30
0.0
 11
-169.1125468219
 21
49.7812339655
 31
0.0
  0
LINE
  5
3CB
  8
LAYER1$C$L1
 62
     3
 10
-168.59499132949989
 20
49.7812389881
 30
0.0
 11
-168.51180041149999
 21
49.781239889600002
 31
0.0
  0
LINE
  5
3CC
  8
LAYER1$C$L1
 62
     3
 10
-168.59498596189991
 20
52.218872070299987
 30
0.0
 11
-169.11253356930001
 21
52.218872070299987
 31
0.0
  0
LINE
  5
3CD
  8
LAYER1$C$L1
 62
     3
 10
-168.59498596189991
 20
52.218734741200002
 30
0.0
 11
-168.51181030270001
 21
52.218734741200002
 31
0.0
  0
LINE
  5
3CE
  8
LAYER1$C$L1
 62
     3
 10
-171.08122253420001
 20
47.294982910199998
 30
0.0
 11
-171.08122253420001
 21
47.812530517600003
 31
0.0
  0
LINE
  5
3CF
  8
LAYER1$C$L1
 62
     3
 10
-171.08122253420001
 20
47.294998168900001
 30
0.0
 11
-171.08122253420001
 21
47.211822509799987
 31
0.0
  0
LINE
  5
3D0
  8
LAYER1$C$L1
 62
     3
 10
-171.08122571620001
 20
54.704969446899987
 30
0.0
 11
-171.08122671879991
 21
54.788160364899987
 31
0.0
  0
LINE
  5
3D1
  8
LAYER1$C$L1
 62
     3
 10
-171.0812377929999
 20
54.704986572299987
 30
0.0
 11
-171.0812377929999
 21
54.187438964799988
 31
0.0
  0
LINE
  5
3D2
  8
LAYER1$C$L1
 62
     3
 10
-168.8874821094
 20
48.562501651600002
 30
0.0
 11
-169.8624836839
 21
47.587500077000001
 31
0.0
  0
LINE
  5
3D3
  8
LAYER1$C$L1
 62
     3
 10
-169.8624836839
 20
54.412500309199999
 30
0.0
 11
-168.8874821094
 21
53.437498734599998
 31
0.0
  0
LINE
  5
3D4
  8
LAYER1$C$L1
 62
     3
 10
-168.39999389649989
 20
49.139816284200002
 30
0.0
 11
-168.39999389649989
 21
49.049987793
 31
0.0
  0
LINE
  5
3D5
  8
LAYER1$C$L1
 62
     3
 10
-168.75002918209989
 20
47.277753109700001
 30
0.0
 11
-170.34998534539989
 21
47.09997957369999
 31
0.0
  0
LINE
  5
3D6
  8
LAYER1$C$L1
 62
     3
 10
-168.3999813371999
 20
49.049980063
 30
0.0
 11
-168.57775318820001
 21
47.4500390651
 31
0.0
  0
LINE
  5
3D7
  8
LAYER1$C$L1
 62
     3
 10
-168.5777523587999
 20
54.549935916800003
 30
0.0
 11
-168.39997882279999
 21
52.949979753500003
 31
0.0
  0
LINE
  5
3D8
  8
LAYER1$C$L1
 62
     3
 10
-168.7500316965
 20
54.722206706800002
 30
0.0
 11
-170.3499878598
 21
54.899980242799998
 31
0.0
  0
LINE
  5
3D9
  8
LAYER1$C$L1
 62
     3
 10
-170.43980407709989
 20
47.1000061035
 30
0.0
 11
-170.3499908446999
 21
47.1000061035
 31
0.0
  0
LINE
  5
3DA
  8
LAYER1$C$L1
 62
     3
 10
-170.3499908446999
 20
54.899993896499993
 30
0.0
 11
-170.43980407709989
 21
54.899993896499993
 31
0.0
  0
LINE
  5
3DB
  8
LAYER1$C$L1
 62
     3
 10
-168.39999389649989
 20
52.860183715799991
 30
0.0
 11
-168.39999389649989
 21
52.949996948199988
 31
0.0
  0
LINE
  5
3DC
  8
LAYER1$C$L1
 62
     3
 10
-149.7999877929999
 20
47.700012207
 30
0.0
 11
-157.69999694820001
 21
47.700012207
 31
0.0
  0
LINE
  5
3DD
  8
LAYER1$C$L1
 62
     3
 10
-162.5499877929999
 20
63.399993896499993
 30
0.0
 11
-163.44999694820001
 21
63.399993896499993
 31
0.0
  0
LINE
  5
3DE
  8
LAYER1$C$L1
 62
     3
 10
-163.44999694820001
 20
60.199996948200003
 30
0.0
 11
-162.5499877929999
 21
60.199996948200003
 31
0.0
  0
LINE
  5
3DF
  8
LAYER1$C$L1
 62
     3
 10
-163.44999694820001
 20
63.399993896499993
 30
0.0
 11
-163.44999694820001
 21
60.199996948200003
 31
0.0
  0
LINE
  5
3E0
  8
LAYER1$C$L1
 62
     3
 10
-162.5499877929999
 20
63.399993896499993
 30
0.0
 11
-162.5499877929999
 21
60.199996948200003
 31
0.0
  0
LINE
  5
3E1
  8
LAYER1$C$L1
 62
     3
 10
-162.99998474119991
 20
63.399993896499993
 30
0.0
 11
-162.99998474119991
 21
60.199996948200003
 31
0.0
  0
LINE
  5
3E2
  8
LAYER1$C$L1
 62
     3
 10
-159.9999847412
 20
64.0
 30
0.0
 11
-159.9999847412
 21
58.75
 31
0.0
  0
LINE
  5
3E3
  8
LAYER1$C$L1
 62
     3
 10
-165.99998474119991
 20
58.75
 30
0.0
 11
-165.99998474119991
 21
64.0
 31
0.0
  0
LINE
  5
3E4
  8
LAYER1$C$L1
 62
     3
 10
-165.99998474119991
 20
58.75
 30
0.0
 11
-159.9999847412
 21
58.75
 31
0.0
  0
LINE
  5
3E5
  8
LAYER1$C$L1
 62
     3
 10
-165.99998474119991
 20
59.799987793
 30
0.0
 11
-159.9999847412
 21
59.799987793
 31
0.0
  0
LINE
  5
3E6
  8
LAYER1$C$L1
 62
     3
 10
-168.2999877929999
 20
50.399993896499993
 30
0.0
 11
-162.99998474119991
 21
50.399993896499993
 31
0.0
  0
LINE
  5
3E7
  8
LAYER1$C$L1
 62
     3
 10
-164.0999908446999
 20
45.499999999999993
 30
0.0
 11
-162.99998474119991
 21
45.499999999999993
 31
0.0
  0
LINE
  5
3E8
  8
LAYER1$C$L1
 62
     3
 10
-168.2999877929999
 20
45.499999999999993
 30
0.0
 11
-167.19999694820001
 21
45.499999999999993
 31
0.0
  0
LINE
  5
3E9
  8
LAYER1$C$L1
 62
     3
 10
-164.0999908446999
 20
49.099990844700002
 30
0.0
 11
-167.19999694820001
 21
49.099990844700002
 31
0.0
  0
LINE
  5
3EA
  8
LAYER1$C$L1
 62
     3
 10
-164.0999908446999
 20
49.099990844700002
 30
0.0
 11
-164.0999908446999
 21
45.499999999999993
 31
0.0
  0
LINE
  5
3EB
  8
LAYER1$C$L1
 62
     3
 10
-167.19999694820001
 20
49.099990844700002
 30
0.0
 11
-167.19999694820001
 21
45.499999999999993
 31
0.0
  0
LINE
  5
3EC
  8
LAYER1$C$L1
 62
     3
 10
-176.7999877929999
 20
46.0
 30
0.0
 11
-168.2999877929999
 21
46.0
 31
0.0
  0
LINE
  5
3ED
  8
LAYER1$C$L1
 62
     3
 10
-168.2999877929999
 20
46.0
 30
0.0
 11
-168.2999877929999
 21
45.499999999999993
 31
0.0
  0
LINE
  5
3EE
  8
LAYER1$C$L1
 62
     3
 10
-177.7999877929999
 20
47.0
 30
0.0
 11
-177.7999877929999
 21
64.0
 31
0.0
  0
LINE
  5
3EF
  8
LAYER1$C$L1
 62
     3
 10
-162.99998474119991
 20
50.399993896499993
 30
0.0
 11
-157.69999694820001
 21
50.399993896499993
 31
0.0
  0
LINE
  5
3F0
  8
LAYER1$C$L1
 62
     3
 10
-157.69999694820001
 20
47.700012207
 30
0.0
 11
-157.69999694820001
 21
50.399993896499993
 31
0.0
  0
LINE
  5
3F1
  8
LAYER1$C$L1
 62
     3
 10
-149.7999877929999
 20
64.0
 30
0.0
 11
-149.7999877929999
 21
47.700012207
 31
0.0
  0
LINE
  5
3F2
  8
LAYER1$C$L1
 62
     3
 10
-162.99998474119991
 20
45.499999999999993
 30
0.0
 11
-161.89999389650001
 21
45.499999999999993
 31
0.0
  0
LINE
  5
3F3
  8
LAYER1$C$L1
 62
     3
 10
-158.7999877929999
 20
45.499999999999993
 30
0.0
 11
-157.69999694820001
 21
45.499999999999993
 31
0.0
  0
LINE
  5
3F4
  8
LAYER1$C$L1
 62
     3
 10
-158.7999877929999
 20
49.099990844700002
 30
0.0
 11
-161.89999389650001
 21
49.099990844700002
 31
0.0
  0
LINE
  5
3F5
  8
LAYER1$C$L1
 62
     3
 10
-161.89999389650001
 20
45.499999999999993
 30
0.0
 11
-161.89999389650001
 21
49.099990844700002
 31
0.0
  0
LINE
  5
3F6
  8
LAYER1$C$L1
 62
     3
 10
-158.7999877929999
 20
45.499999999999993
 30
0.0
 11
-158.7999877929999
 21
49.099990844700002
 31
0.0
  0
LINE
  5
3F7
  8
LAYER1$C$L1
 62
     3
 10
-157.69999694820001
 20
46.0
 30
0.0
 11
-149.19999694820001
 21
46.0
 31
0.0
  0
LINE
  5
3F8
  8
LAYER1$C$L1
 62
     3
 10
-157.69999694820001
 20
45.499999999999993
 30
0.0
 11
-157.69999694820001
 21
46.0
 31
0.0
  0
LINE
  5
3F9
  8
LAYER1$C$L1
 62
     3
 10
-148.19999694820001
 20
64.0
 30
0.0
 11
-148.19999694820001
 21
47.0
 31
0.0
  0
LINE
  5
3FA
  8
LAYER3$C$L3
  6
CENTERLINE
 62
     3
 10
-142.99998474119991
 20
64.0
 30
0.0
 11
-182.9999847412
 21
64.0
 31
0.0
  0
LINE
  5
3FB
  8
LAYER3$C$L3
  6
CENTERLINE
 62
     3
 10
-162.99998474119991
 20
87.5
 30
0.0
 11
-162.99998474119991
 21
40.499999999999993
 31
0.0
  0
LINE
  5
3FC
  8
LAYER1$C$L1
 62
     3
 10
-88.700012207000015
 20
112.1999969481999
 30
0.0
 11
-92.199996948199995
 21
112.1999969481999
 31
0.0
  0
LINE
  5
3FD
  8
LAYER1$C$L1
 62
     3
 10
-88.700012207000015
 20
135.7999877929999
 30
0.0
 11
-92.199996948199995
 21
135.7999877929999
 31
0.0
  0
LINE
  5
3FE
  8
LAYER1$C$L1
 62
     3
 10
-88.0
 20
135.0999908446999
 30
0.0
 11
-88.0
 21
112.89999389650001
 31
0.0
  0
LINE
  5
3FF
  8
LAYER1$C$L1
 62
     3
 10
-103.3033447266
 20
121.89999389649989
 30
0.0
 11
-104.4000091553
 21
121.89999389649989
 31
0.0
  0
LINE
  5
400
  8
LAYER1$C$L1
 62
     3
 10
-101.9835815429999
 20
119.2999877929999
 30
0.0
 11
-104.4000091553
 21
119.2999877929999
 31
0.0
  0
LINE
  5
401
  8
LAYER1$C$L1
 62
     3
 10
-100.74444580079989
 20
117.0
 30
0.0
 11
-104.4000091553
 21
117.0
 31
0.0
  0
LINE
  5
402
  8
LAYER1$C$L1
 62
     3
 10
-99.700012207000015
 20
115.0
 30
0.0
 11
-104.4000091553
 21
115.0
 31
0.0
  0
LINE
  5
403
  8
LAYER1$C$L1
 62
     3
 10
-99.700012207000015
 20
113.2999877929999
 30
0.0
 11
-104.4000091553
 21
113.2999877929999
 31
0.0
  0
LINE
  5
404
  8
LAYER1$C$L1
 62
     3
 10
-99.700012207000015
 20
111.89999389650001
 30
0.0
 11
-104.4000091553
 21
111.89999389650001
 31
0.0
  0
LINE
  5
405
  8
LAYER1$C$L1
 62
     3
 10
-99.700012207000015
 20
110.7999877929999
 30
0.0
 11
-104.4000091553
 21
110.7999877929999
 31
0.0
  0
LINE
  5
406
  8
LAYER1$C$L1
 62
     3
 10
-99.700012207000015
 20
110.0
 30
0.0
 11
-104.4000091553
 21
110.0
 31
0.0
  0
LINE
  5
407
  8
LAYER1$C$L1
 62
     3
 10
-92.200008594699995
 20
110.30000137489991
 30
0.0
 11
-92.50001322899999
 21
109.9999967405999
 31
0.0
  0
LINE
  5
408
  8
LAYER1$C$L1
 62
     3
 10
-99.199994446600002
 20
110.00000753019999
 30
0.0
 11
-99.699994977399996
 21
109.5000069994
 31
0.0
  0
LINE
  5
409
  8
LAYER1$C$L1
 62
     3
 10
-92.5
 20
110.0
 30
0.0
 11
-99.200012207000015
 21
110.0
 31
0.0
  0
LINE
  5
40A
  8
LAYER1$C$L1
 62
     3
 10
-99.200012207000015
 20
124.0
 30
0.0
 11
-99.200012207000015
 21
110.0
 31
0.0
  0
LINE
  5
40B
  8
LAYER1$C$L1
 62
     3
 10
-92.5
 20
124.0
 30
0.0
 11
-92.5
 21
110.0
 31
0.0
  0
LINE
  5
40C
  8
LAYER1$C$L1
 62
     3
 10
-92.199996948199995
 20
124.0
 30
0.0
 11
-92.199996948199995
 21
110.2999877929999
 31
0.0
  0
LINE
  5
40D
  8
LAYER1$C$L1
 62
     3
 10
-99.700012207000015
 20
109.4999999999999
 30
0.0
 11
-104.4000091553
 21
109.4999999999999
 31
0.0
  0
LINE
  5
40E
  8
LAYER1$C$L1
 62
     3
 10
-99.700012207000015
 20
124.0
 30
0.0
 11
-99.700012207000015
 21
109.4999999999999
 31
0.0
  0
LINE
  5
40F
  8
LAYER1$C$L1
 62
     3
 10
-104.4000103249999
 20
109.500015327
 30
0.0
 11
-105.2000100582999
 21
110.50001499370001
 31
0.0
  0
LINE
  5
410
  8
LAYER1$C$L1
 62
     3
 10
-104.4000091553
 20
124.0
 30
0.0
 11
-104.4000091553
 21
109.4999999999999
 31
0.0
  0
LINE
  5
411
  8
LAYER1$C$L1
 62
     3
 10
-105.1999969481999
 20
124.0
 30
0.0
 11
-105.1999969481999
 21
110.4999999999999
 31
0.0
  0
LINE
  5
412
  8
LAYER1$C$L1
 62
     3
 10
-100.7966766356999
 20
126.0999908446999
 30
0.0
 11
-99.700012207000015
 21
126.0999908446999
 31
0.0
  0
LINE
  5
413
  8
LAYER1$C$L1
 62
     3
 10
-102.1544494628999
 20
128.69999694820001
 30
0.0
 11
-99.700012207000015
 21
128.69999694820001
 31
0.0
  0
LINE
  5
414
  8
LAYER1$C$L1
 62
     3
 10
-103.3555603027
 20
130.9999847412
 30
0.0
 11
-99.700012207000015
 21
130.9999847412
 31
0.0
  0
LINE
  5
415
  8
LAYER1$C$L1
 62
     3
 10
-104.4000091553
 20
132.9999847412
 30
0.0
 11
-99.700012207000015
 21
132.9999847412
 31
0.0
  0
LINE
  5
416
  8
LAYER1$C$L1
 62
     3
 10
-104.4000091553
 20
134.69999694820001
 30
0.0
 11
-99.700012207000015
 21
134.69999694820001
 31
0.0
  0
LINE
  5
417
  8
LAYER1$C$L1
 62
     3
 10
-104.4000091553
 20
136.0999908446999
 30
0.0
 11
-99.700012207000015
 21
136.0999908446999
 31
0.0
  0
LINE
  5
418
  8
LAYER1$C$L1
 62
     3
 10
-104.4000091553
 20
137.19999694820001
 30
0.0
 11
-99.700012207000015
 21
137.19999694820001
 31
0.0
  0
LINE
  5
419
  8
LAYER1$C$L1
 62
     3
 10
-104.4000091553
 20
138.0
 30
0.0
 11
-99.700012207000015
 21
138.0
 31
0.0
  0
LINE
  5
41A
  8
LAYER1$C$L1
 62
     3
 10
-92.500022669900005
 20
137.9999738658999
 30
0.0
 11
-92.200018035599996
 21
137.69996923150001
 31
0.0
  0
LINE
  5
41B
  8
LAYER1$C$L1
 62
     3
 10
-99.700015207900009
 20
138.4999528175
 30
0.0
 11
-99.200014677099986
 21
137.99995228669991
 31
0.0
  0
LINE
  5
41C
  8
LAYER1$C$L1
 62
     3
 10
-99.200012207000015
 20
138.0
 30
0.0
 11
-92.5
 21
138.0
 31
0.0
  0
LINE
  5
41D
  8
LAYER1$C$L1
 62
     3
 10
-99.200012207000015
 20
138.0
 30
0.0
 11
-99.200012207000015
 21
124.0
 31
0.0
  0
LINE
  5
41E
  8
LAYER1$C$L1
 62
     3
 10
-92.5
 20
138.0
 30
0.0
 11
-92.5
 21
124.0
 31
0.0
  0
LINE
  5
41F
  8
LAYER1$C$L1
 62
     3
 10
-92.199996948199995
 20
137.69999694820001
 30
0.0
 11
-92.199996948199995
 21
124.0
 31
0.0
  0
LINE
  5
420
  8
LAYER1$C$L1
 62
     3
 10
-104.4000091553
 20
138.5
 30
0.0
 11
-99.700012207000015
 21
138.5
 31
0.0
  0
LINE
  5
421
  8
LAYER1$C$L1
 62
     3
 10
-99.700012207000015
 20
138.5
 30
0.0
 11
-99.700012207000015
 21
124.0
 31
0.0
  0
LINE
  5
422
  8
LAYER1$C$L1
 62
     3
 10
-105.19999114299991
 20
137.4999458213999
 30
0.0
 11
-104.39999140969989
 21
138.4999454881
 31
0.0
  0
LINE
  5
423
  8
LAYER1$C$L1
 62
     3
 10
-104.4000091553
 20
138.5
 30
0.0
 11
-104.4000091553
 21
124.0
 31
0.0
  0
LINE
  5
424
  8
LAYER1$C$L1
 62
     3
 10
-105.1999969481999
 20
137.5
 30
0.0
 11
-105.1999969481999
 21
124.0
 31
0.0
  0
LINE
  5
425
  8
LAYER1$C$L1
 62
     3
 10
-126.5999908446999
 20
118.6999969481999
 30
0.0
 11
-126.5999908446999
 21
110.6999969482
 31
0.0
  0
LINE
  5
426
  8
LAYER1$C$L1
 62
     3
 10
-127.8999934942
 20
113.7000035590999
 30
0.0
 11
-127.3999928253
 21
111.8339756745
 31
0.0
  0
LINE
  5
427
  8
LAYER1$C$L1
 62
     3
 10
-127.8999845779
 20
115.69998018850001
 30
0.0
 11
-127.399983909
 21
117.56600807309999
 31
0.0
  0
LINE
  5
428
  8
LAYER1$C$L1
 62
     3
 10
-127.89999389649989
 20
113.6999969481999
 30
0.0
 11
-127.89999389649989
 21
115.6999969481999
 31
0.0
  0
LINE
  5
429
  8
LAYER1$C$L1
 62
     3
 10
-128.79997430639989
 20
112.69998826290001
 30
0.0
 11
-128.26407555739999
 21
110.6999839102
 31
0.0
  0
LINE
  5
42A
  8
LAYER1$C$L1
 62
     3
 10
-128.79997725259989
 20
116.6999812168999
 30
0.0
 11
-128.2640778864999
 21
118.6999853228
 31
0.0
  0
LINE
  5
42B
  8
LAYER1$C$L1
 62
     3
 10
-133.69999694820001
 20
110.6999969482
 30
0.0
 11
-126.5999908446999
 21
110.6999969482
 31
0.0
  0
LINE
  5
42C
  8
LAYER1$C$L1
 62
     3
 10
-133.69999694820001
 20
118.6999969481999
 30
0.0
 11
-126.5999908446999
 21
118.6999969481999
 31
0.0
  0
LINE
  5
42D
  8
LAYER1$C$L1
 62
     3
 10
-129.7999877929999
 20
111.1999969481999
 30
0.0
 11
-128.7999877929999
 21
111.1999969481999
 31
0.0
  0
LINE
  5
42E
  8
LAYER1$C$L1
 62
     3
 10
-129.7999877929999
 20
118.1999969482
 30
0.0
 11
-128.7999877929999
 21
118.1999969482
 31
0.0
  0
LINE
  5
42F
  8
LAYER1$C$L1
 62
     3
 10
-128.7999877929999
 20
118.1999969482
 30
0.0
 11
-128.7999877929999
 21
111.1999969481999
 31
0.0
  0
LINE
  5
430
  8
LAYER1$C$L1
 62
     3
 10
-127.39999389649989
 20
118.6999969481999
 30
0.0
 11
-127.39999389649989
 21
110.6999969482
 31
0.0
  0
LINE
  5
431
  8
LAYER3$C$L3
  6
CENTERLINE
 62
     3
 10
-133.07490539549991
 20
114.6999969481999
 30
0.0
 11
-125.17213439939999
 21
114.6999969481999
 31
0.0
  0
LINE
  5
432
  8
LAYER1$C$L1
 62
     3
 10
-124.6999969481999
 20
111.0
 30
0.0
 11
-121.6999969481999
 21
111.0
 31
0.0
  0
LINE
  5
433
  8
LAYER1$C$L1
 62
     3
 10
-124.6999969481999
 20
118.39999389649989
 30
0.0
 11
-121.6999969481999
 21
118.39999389649989
 31
0.0
  0
LINE
  5
434
  8
LAYER1$C$L1
 62
     3
 10
-124.6999969481999
 20
118.39999389649989
 30
0.0
 11
-124.6999969481999
 21
111.0
 31
0.0
  0
LINE
  5
435
  8
LAYER1$C$L1
 62
     3
 10
-121.6999969481999
 20
118.39999389649989
 30
0.0
 11
-121.6999969481999
 21
111.0
 31
0.0
  0
LINE
  5
436
  8
LAYER1$C$L1
 62
     3
 10
-127.39999389649989
 20
131.0999908446999
 30
0.0
 11
-124.1999969482
 21
131.0999908446999
 31
0.0
  0
LINE
  5
437
  8
LAYER1$C$L1
 62
     3
 10
-127.39999389649989
 20
135.49998474119991
 30
0.0
 11
-124.1999969482
 21
135.49998474119991
 31
0.0
  0
LINE
  5
438
  8
LAYER1$C$L1
 62
     3
 10
-124.1999969482
 20
135.49998474119991
 30
0.0
 11
-124.1999969482
 21
131.0999908446999
 31
0.0
  0
LINE
  5
439
  8
LAYER1$C$L1
 62
     3
 10
-127.39999389649989
 20
135.49998474119991
 30
0.0
 11
-127.39999389649989
 21
131.0999908446999
 31
0.0
  0
LINE
  5
43A
  8
LAYER1$C$L1
 62
     3
 10
-110.88000488279999
 20
121.89999389649989
 30
0.0
 11
-112.0
 21
121.89999389649989
 31
0.0
  0
LINE
  5
43B
  8
LAYER1$C$L1
 62
     3
 10
-109.4933471679999
 20
119.2999877929999
 30
0.0
 11
-112.0
 21
119.2999877929999
 31
0.0
  0
LINE
  5
43C
  8
LAYER1$C$L1
 62
     3
 10
-108.26667785639999
 20
117.0
 30
0.0
 11
-112.0
 21
117.0
 31
0.0
  0
LINE
  5
43D
  8
LAYER1$C$L1
 62
     3
 10
-107.1999969481999
 20
115.0
 30
0.0
 11
-112.0
 21
115.0
 31
0.0
  0
LINE
  5
43E
  8
LAYER1$C$L1
 62
     3
 10
-107.1999969481999
 20
113.2999877929999
 30
0.0
 11
-112.0
 21
113.2999877929999
 31
0.0
  0
LINE
  5
43F
  8
LAYER1$C$L1
 62
     3
 10
-107.1999969481999
 20
111.89999389650001
 30
0.0
 11
-112.0
 21
111.89999389650001
 31
0.0
  0
LINE
  5
440
  8
LAYER1$C$L1
 62
     3
 10
-107.1999969481999
 20
110.7999877929999
 30
0.0
 11
-112.0
 21
110.7999877929999
 31
0.0
  0
LINE
  5
441
  8
LAYER1$C$L1
 62
     3
 10
-107.1999969481999
 20
110.0
 30
0.0
 11
-112.0
 21
110.0
 31
0.0
  0
LINE
  5
442
  8
LAYER1$C$L1
 62
     3
 10
-108.32000732420001
 20
126.0999908446999
 30
0.0
 11
-107.1999969481999
 21
126.0999908446999
 31
0.0
  0
LINE
  5
443
  8
LAYER1$C$L1
 62
     3
 10
-109.70668029789999
 20
128.69999694820001
 30
0.0
 11
-107.1999969481999
 21
128.69999694820001
 31
0.0
  0
LINE
  5
444
  8
LAYER1$C$L1
 62
     3
 10
-110.9333496094
 20
130.9999847412
 30
0.0
 11
-107.1999969481999
 21
130.9999847412
 31
0.0
  0
LINE
  5
445
  8
LAYER1$C$L1
 62
     3
 10
-112.0
 20
132.9999847412
 30
0.0
 11
-107.1999969481999
 21
132.9999847412
 31
0.0
  0
LINE
  5
446
  8
LAYER1$C$L1
 62
     3
 10
-112.0
 20
134.69999694820001
 30
0.0
 11
-107.1999969481999
 21
134.69999694820001
 31
0.0
  0
LINE
  5
447
  8
LAYER1$C$L1
 62
     3
 10
-112.0
 20
136.0999908446999
 30
0.0
 11
-107.1999969481999
 21
136.0999908446999
 31
0.0
  0
LINE
  5
448
  8
LAYER1$C$L1
 62
     3
 10
-112.0
 20
137.19999694820001
 30
0.0
 11
-107.1999969481999
 21
137.19999694820001
 31
0.0
  0
LINE
  5
449
  8
LAYER1$C$L1
 62
     3
 10
-112.0
 20
138.0
 30
0.0
 11
-107.1999969481999
 21
138.0
 31
0.0
  0
LINE
  5
44A
  8
LAYER1$C$L1
 62
     3
 10
-114.5
 20
112.7999877929999
 30
0.0
 11
-118.200012207
 21
112.7999877929999
 31
0.0
  0
LINE
  5
44B
  8
LAYER1$C$L1
 62
     3
 10
-112.0
 20
123.0
 30
0.0
 11
-113.5
 21
123.0
 31
0.0
  0
LINE
  5
44C
  8
LAYER1$C$L1
 62
     3
 10
-107.1999969481999
 20
109.4999999999999
 30
0.0
 11
-112.0
 21
109.4999999999999
 31
0.0
  0
LINE
  5
44D
  8
LAYER1$C$L1
 62
     3
 10
-114.5
 20
124.0
 30
0.0
 11
-114.5
 21
110.0
 31
0.0
  0
LINE
  5
44E
  8
LAYER1$C$L1
 62
     3
 10
-112.0
 20
124.0
 30
0.0
 11
-112.0
 21
109.4999999999999
 31
0.0
  0
LINE
  5
44F
  8
LAYER1$C$L1
 62
     3
 10
-107.1999969481999
 20
124.0
 30
0.0
 11
-107.1999969481999
 21
109.4999999999999
 31
0.0
  0
LINE
  5
450
  8
LAYER1$C$L1
 62
     3
 10
-112.0
 20
110.0
 30
0.0
 11
-114.5
 21
110.0
 31
0.0
  0
LINE
  5
451
  8
LAYER1$C$L1
 62
     3
 10
-114.5
 20
120.75
 30
0.0
 11
-118.200012207
 21
120.75
 31
0.0
  0
LINE
  5
452
  8
LAYER1$C$L1
 62
     3
 10
-121.89999389649989
 20
124.0
 30
0.0
 11
-121.89999389649989
 21
119.7999877929999
 31
0.0
  0
LINE
  5
453
  8
LAYER1$C$L1
 62
     3
 10
-126.0999908446999
 20
122.89999389649989
 30
0.0
 11
-126.0999908446999
 21
123.9999847412
 31
0.0
  0
LINE
  5
454
  8
LAYER1$C$L1
 62
     3
 10
-128.7999877929999
 20
122.89999389649989
 30
0.0
 11
-128.7999877929999
 21
119.7999877929999
 31
0.0
  0
LINE
  5
455
  8
LAYER1$C$L1
 62
     3
 10
-131.19999694820001
 20
122.89999389649989
 30
0.0
 11
-131.19999694820001
 21
119.7999877929999
 31
0.0
  0
LINE
  5
456
  8
LAYER1$C$L1
 62
     3
 10
-126.6999969481999
 20
122.89999389649989
 30
0.0
 11
-126.6999969481999
 21
119.7999877929999
 31
0.0
  0
LINE
  5
457
  8
LAYER1$C$L1
 62
     3
 10
-125.6999969481999
 20
122.89999389649989
 30
0.0
 11
-125.6999969481999
 21
119.7999877929999
 31
0.0
  0
LINE
  5
458
  8
LAYER1$C$L1
 62
     3
 10
-133.69999694820001
 20
124.0
 30
0.0
 11
-133.69999694820001
 21
122.89999389649989
 31
0.0
  0
LINE
  5
459
  8
LAYER1$C$L1
 62
     3
 10
-133.69999694820001
 20
122.89999389649989
 30
0.0
 11
-133.69999694820001
 21
119.7999877929999
 31
0.0
  0
LINE
  5
45A
  8
LAYER1$C$L1
 62
     3
 10
-133.69999694820001
 20
122.89999389649989
 30
0.0
 11
-125.6999969481999
 21
122.89999389649989
 31
0.0
  0
LINE
  5
45B
  8
LAYER1$C$L1
 62
     3
 10
-120.1999969482
 20
124.0
 30
0.0
 11
-120.1999969482
 21
119.7999877929999
 31
0.0
  0
LINE
  5
45C
  8
LAYER1$C$L1
 62
     3
 10
-119.6999969481999
 20
124.0
 30
0.0
 11
-119.6999969481999
 21
119.7999877929999
 31
0.0
  0
LINE
  5
45D
  8
LAYER1$C$L1
 62
     3
 10
-119.6999969481999
 20
119.7999877929999
 30
0.0
 11
-133.69999694820001
 21
119.7999877929999
 31
0.0
  0
LINE
  5
45E
  8
LAYER1$C$L1
 62
     3
 10
-133.69999694820001
 20
122.89999389649989
 30
0.0
 11
-133.69999694820001
 21
124.0
 31
0.0
  0
LINE
  5
45F
  8
LAYER1$C$L1
 62
     3
 10
-118.200012207
 20
120.75
 30
0.0
 11
-119.6999969481999
 21
120.75
 31
0.0
  0
LINE
  5
460
  8
LAYER1$C$L1
 62
     3
 10
-105.1999969481999
 20
122.39999389650001
 30
0.0
 11
-106.9000091553
 21
122.39999389650001
 31
0.0
  0
LINE
  5
461
  8
LAYER1$C$L1
 62
     3
 10
-106.9000091553
 20
124.0
 30
0.0
 11
-106.9000091553
 21
122.39999389650001
 31
0.0
  0
LINE
  5
462
  8
LAYER1$C$L1
 62
     3
 10
-105.700012207
 20
122.39999389650001
 30
0.0
 11
-105.700012207
 21
113.0
 31
0.0
  0
LINE
  5
463
  8
LAYER1$C$L1
 62
     3
 10
-105.1999969481999
 20
113.0
 30
0.0
 11
-107.1999969481999
 21
113.0
 31
0.0
  0
LINE
  5
464
  8
LAYER1$C$L1
 62
     3
 10
-118.200012207
 20
113.0
 30
0.0
 11
-119.1999969482
 21
113.0
 31
0.0
  0
LINE
  5
465
  8
LAYER1$C$L1
 62
     3
 10
-114.5
 20
112.0
 30
0.0
 11
-118.200012207
 21
112.0
 31
0.0
  0
LINE
  5
466
  8
LAYER1$C$L1
 62
     3
 10
-120.1999969482
 20
109.1999969481999
 30
0.0
 11
-133.69999694820001
 21
109.1999969481999
 31
0.0
  0
LINE
  5
467
  8
LAYER1$C$L1
 62
     3
 10
-118.200012207
 20
120.75
 30
0.0
 11
-118.200012207
 21
112.0
 31
0.0
  0
LINE
  5
468
  8
LAYER1$C$L1
 62
     3
 10
-119.6999969481999
 20
119.7999877929999
 30
0.0
 11
-119.6999969481999
 21
109.6999969482
 31
0.0
  0
LINE
  5
469
  8
LAYER1$C$L1
 62
     3
 10
-133.69999694820001
 20
119.7999877929999
 30
0.0
 11
-133.69999694820001
 21
109.1999969481999
 31
0.0
  0
LINE
  5
46A
  8
LAYER1$C$L1
 62
     3
 10
-118.200012207
 20
135.19999694820001
 30
0.0
 11
-114.5
 21
135.19999694820001
 31
0.0
  0
LINE
  5
46B
  8
LAYER1$C$L1
 62
     3
 10
-113.5
 20
125.0
 30
0.0
 11
-112.0
 21
125.0
 31
0.0
  0
LINE
  5
46C
  8
LAYER1$C$L1
 62
     3
 10
-112.0
 20
138.5
 30
0.0
 11
-107.1999969481999
 21
138.5
 31
0.0
  0
LINE
  5
46D
  8
LAYER1$C$L1
 62
     3
 10
-114.5
 20
138.0
 30
0.0
 11
-114.5
 21
124.0
 31
0.0
  0
LINE
  5
46E
  8
LAYER1$C$L1
 62
     3
 10
-112.0
 20
138.5
 30
0.0
 11
-112.0
 21
124.0
 31
0.0
  0
LINE
  5
46F
  8
LAYER1$C$L1
 62
     3
 10
-107.1999969481999
 20
138.5
 30
0.0
 11
-107.1999969481999
 21
124.0
 31
0.0
  0
LINE
  5
470
  8
LAYER1$C$L1
 62
     3
 10
-114.5
 20
138.0
 30
0.0
 11
-112.0
 21
138.0
 31
0.0
  0
LINE
  5
471
  8
LAYER1$C$L1
 62
     3
 10
-118.200012207
 20
127.2499999999999
 30
0.0
 11
-114.5
 21
127.2499999999999
 31
0.0
  0
LINE
  5
472
  8
LAYER1$C$L1
 62
     3
 10
-121.89999389649989
 20
128.19999694820001
 30
0.0
 11
-121.89999389649989
 21
124.0
 31
0.0
  0
LINE
  5
473
  8
LAYER1$C$L1
 62
     3
 10
-126.0999908446999
 20
123.9999847412
 30
0.0
 11
-126.0999908446999
 21
125.0999908446999
 31
0.0
  0
LINE
  5
474
  8
LAYER1$C$L1
 62
     3
 10
-128.7999877929999
 20
128.19999694820001
 30
0.0
 11
-128.7999877929999
 21
125.0999908446999
 31
0.0
  0
LINE
  5
475
  8
LAYER1$C$L1
 62
     3
 10
-131.19999694820001
 20
128.19999694820001
 30
0.0
 11
-131.19999694820001
 21
125.0999908446999
 31
0.0
  0
LINE
  5
476
  8
LAYER1$C$L1
 62
     3
 10
-126.6999969481999
 20
128.19999694820001
 30
0.0
 11
-126.6999969481999
 21
125.0999908446999
 31
0.0
  0
LINE
  5
477
  8
LAYER1$C$L1
 62
     3
 10
-125.6999969481999
 20
128.19999694820001
 30
0.0
 11
-125.6999969481999
 21
125.0999908446999
 31
0.0
  0
LINE
  5
478
  8
LAYER1$C$L1
 62
     3
 10
-133.69999694820001
 20
125.0999908446999
 30
0.0
 11
-133.69999694820001
 21
124.0
 31
0.0
  0
LINE
  5
479
  8
LAYER1$C$L1
 62
     3
 10
-133.69999694820001
 20
128.19999694820001
 30
0.0
 11
-133.69999694820001
 21
125.0999908446999
 31
0.0
  0
LINE
  5
47A
  8
LAYER1$C$L1
 62
     3
 10
-125.6999969481999
 20
125.0999908446999
 30
0.0
 11
-133.69999694820001
 21
125.0999908446999
 31
0.0
  0
LINE
  5
47B
  8
LAYER1$C$L1
 62
     3
 10
-120.1999969482
 20
128.19999694820001
 30
0.0
 11
-120.1999969482
 21
124.0
 31
0.0
  0
LINE
  5
47C
  8
LAYER1$C$L1
 62
     3
 10
-119.6999969481999
 20
128.19999694820001
 30
0.0
 11
-119.6999969481999
 21
124.0
 31
0.0
  0
LINE
  5
47D
  8
LAYER1$C$L1
 62
     3
 10
-133.69999694820001
 20
128.19999694820001
 30
0.0
 11
-119.6999969481999
 21
128.19999694820001
 31
0.0
  0
LINE
  5
47E
  8
LAYER1$C$L1
 62
     3
 10
-133.69999694820001
 20
124.0
 30
0.0
 11
-133.69999694820001
 21
125.0999908446999
 31
0.0
  0
LINE
  5
47F
  8
LAYER1$C$L1
 62
     3
 10
-133.69999694820001
 20
129.2999877929999
 30
0.0
 11
-119.6999969481999
 21
129.2999877929999
 31
0.0
  0
LINE
  5
480
  8
LAYER1$C$L1
 62
     3
 10
-119.6999969481999
 20
127.2499999999999
 30
0.0
 11
-118.200012207
 21
127.2499999999999
 31
0.0
  0
LINE
  5
481
  8
LAYER1$C$L1
 62
     3
 10
-106.9000091553
 20
125.5999908446999
 30
0.0
 11
-105.1999969481999
 21
125.5999908446999
 31
0.0
  0
LINE
  5
482
  8
LAYER1$C$L1
 62
     3
 10
-106.9000091553
 20
125.5999908446999
 30
0.0
 11
-106.9000091553
 21
124.0
 31
0.0
  0
LINE
  5
483
  8
LAYER1$C$L1
 62
     3
 10
-105.700012207
 20
135.0
 30
0.0
 11
-105.700012207
 21
125.5999908446999
 31
0.0
  0
LINE
  5
484
  8
LAYER1$C$L1
 62
     3
 10
-107.1999969481999
 20
135.0
 30
0.0
 11
-105.1999969481999
 21
135.0
 31
0.0
  0
LINE
  5
485
  8
LAYER1$C$L1
 62
     3
 10
-119.1999969482
 20
135.0
 30
0.0
 11
-118.200012207
 21
135.0
 31
0.0
  0
LINE
  5
486
  8
LAYER1$C$L1
 62
     3
 10
-118.200012207
 20
136.0
 30
0.0
 11
-114.5
 21
136.0
 31
0.0
  0
LINE
  5
487
  8
LAYER1$C$L1
 62
     3
 10
-133.69999694820001
 20
138.7999877929999
 30
0.0
 11
-120.1999969482
 21
138.7999877929999
 31
0.0
  0
LINE
  5
488
  8
LAYER1$C$L1
 62
     3
 10
-118.200012207
 20
136.0
 30
0.0
 11
-118.200012207
 21
127.2499999999999
 31
0.0
  0
LINE
  5
489
  8
LAYER1$C$L1
 62
     3
 10
-119.6999969481999
 20
138.2999877929999
 30
0.0
 11
-119.6999969481999
 21
128.19999694820001
 31
0.0
  0
LINE
  5
48A
  8
LAYER1$C$L1
 62
     3
 10
-133.69999694820001
 20
138.7999877929999
 30
0.0
 11
-133.69999694820001
 21
128.19999694820001
 31
0.0
  0
LINE
  5
48B
  8
LAYER3$C$L3
  6
CENTERLINE
 62
     3
 10
-138.69999694820001
 20
124.0
 30
0.0
 11
-83.0
 21
124.0
 31
0.0
  0
INSERT
  5
6DE
  8
0
  2
*U38
 10
0.0
 20
0.0
 30
0.0
  0
ENDSEC
  0
EOF
