  0
SECTION
  2
HEADER
  9
$ACADVER
  1
AC1009
  9
$INSBASE
 10
0.0
 20
0.0
 30
0.0
  9
$EXTMIN
 10
17.71430167201083
 20
54.626180034772702
 30
0.0
  9
$EXTMAX
 10
184.618517613682
 20
184.80527263459999
 30
0.0
  9
$LIMMIN
 10
-215.17524414059989
 20
-3.1749999999999989
  9
$LIMMAX
 10
3.1749999999999989
 20
300.17500000000001
  9
$ORTHOMODE
 70
     0
  9
$REGENMODE
 70
     1
  9
$FILLMODE
 70
     1
  9
$QTEXTMODE
 70
     0
  9
$MIRRTEXT
 70
     0
  9
$DRAGMODE
 70
     2
  9
$LTSCALE
 40
1.0
  9
$OSMODE
 70
    39
  9
$ATTMODE
 70
     1
  9
$TEXTSIZE
 40
3.1999998092999991
  9
$TRACEWID
 40
0.05
  9
$TEXTSTYLE
  7
STANDARD
  9
$CLAYER
  8
0
  9
$CELTYPE
  6
BYLAYER
  9
$CECOLOR
 62
   256
  9
$DIMSCALE
 40
1.0
  9
$DIMASZ
 40
1.9727878464999999
  9
$DIMEXO
 40
2.5399999618999991
  9
$DIMDLI
 40
0.38
  9
$DIMRND
 40
0.0
  9
$DIMDLE
 40
0.0
  9
$DIMEXE
 40
3.8099999427999989
  9
$DIMTP
 40
0.0
  9
$DIMTM
 40
0.0
  9
$DIMTXT
 40
3.1999998092999991
  9
$DIMCEN
 40
0.09
  9
$DIMTSZ
 40
0.0
  9
$DIMTOL
 70
     0
  9
$DIMLIM
 70
     0
  9
$DIMTIH
 70
     0
  9
$DIMTOH
 70
     1
  9
$DIMSE1
 70
     0
  9
$DIMSE2
 70
     0
  9
$DIMTAD
 70
     0
  9
$DIMZIN
 70
     0
  9
$DIMBLK
  1

  9
$DIMASO
 70
     1
  9
$DIMSHO
 70
     0
  9
$DIMPOST
  1

  9
$DIMAPOST
  1

  9
$DIMALT
 70
     0
  9
$DIMALTD
 70
     2
  9
$DIMALTF
 40
25.399999999999999
  9
$DIMLFAC
 40
1.0
  9
$DIMTOFL
 70
     0
  9
$DIMTVP
 40
0.0
  9
$DIMTIX
 70
     0
  9
$DIMSOXD
 70
     0
  9
$DIMSAH
 70
     0
  9
$DIMBLK1
  1

  9
$DIMBLK2
  1

  9
$DIMSTYLE
  2
STANDARD
  9
$DIMCLRD
 70
     0
  9
$DIMCLRE
 70
     0
  9
$DIMCLRT
 70
     0
  9
$DIMTFAC
 40
1.0
  9
$DIMGAP
 40
0.09
  9
$LUNITS
 70
     2
  9
$LUPREC
 70
     3
  9
$SKETCHINC
 40
0.1
  9
$FILLETRAD
 40
0.0625
  9
$AUNITS
 70
     0
  9
$AUPREC
 70
     0
  9
$MENU
  1
ACAD
  9
$ELEVATION
 40
0.0
  9
$PELEVATION
 40
0.0
  9
$THICKNESS
 40
0.0
  9
$LIMCHECK
 70
     0
  9
$BLIPMODE
 70
     0
  9
$CHAMFERA
 40
0.0
  9
$CHAMFERB
 40
0.0
  9
$SKPOLY
 70
     0
  9
$TDCREATE
 40
2452011.4005555548
  9
$TDUPDATE
 40
2452374.7971538189
  9
$TDINDWG
 40
0.0683623032
  9
$TDUSRTIMER
 40
0.068361956
  9
$USRTIMER
 70
     1
  9
$ANGBASE
 50
0.0
  9
$ANGDIR
 70
     0
  9
$PDMODE
 70
     0
  9
$PDSIZE
 40
0.0
  9
$PLINEWID
 40
0.0
  9
$COORDS
 70
     1
  9
$SPLFRAME
 70
     0
  9
$SPLINETYPE
 70
     6
  9
$SPLINESEGS
 70
     8
  9
$ATTDIA
 70
     0
  9
$ATTREQ
 70
     1
  9
$HANDLING
 70
  4097
  9
$HANDSEED
  5
836
  9
$SURFTAB1
 70
     6
  9
$SURFTAB2
 70
     6
  9
$SURFTYPE
 70
     6
  9
$SURFU
 70
     6
  9
$SURFV
 70
     6
  9
$UCSNAME
  2

  9
$UCSORG
 10
0.0
 20
0.0
 30
0.0
  9
$UCSXDIR
 10
1.0
 20
0.0
 30
0.0
  9
$UCSYDIR
 10
0.0
 20
1.0
 30
0.0
  9
$PUCSNAME
  2

  9
$PUCSORG
 10
0.0
 20
0.0
 30
0.0
  9
$PUCSXDIR
 10
1.0
 20
0.0
 30
0.0
  9
$PUCSYDIR
 10
0.0
 20
1.0
 30
0.0
  9
$USERI1
 70
     0
  9
$USERI2
 70
     0
  9
$USERI3
 70
     0
  9
$USERI4
 70
     0
  9
$USERI5
 70
     0
  9
$USERR1
 40
0.0
  9
$USERR2
 40
0.0
  9
$USERR3
 40
0.0
  9
$USERR4
 40
0.0
  9
$USERR5
 40
0.0
  9
$WORLDVIEW
 70
     1
  9
$SHADEDGE
 70
     3
  9
$SHADEDIF
 70
    70
  9
$TILEMODE
 70
     1
  9
$MAXACTVP
 70
    64
  9
$PLIMCHECK
 70
     0
  9
$PEXTMIN
 10
1.0000000000000000E+020
 20
1.0000000000000000E+020
 30
1.0000000000000000E+020
  9
$PEXTMAX
 10
-1.0000000000000000E+020
 20
-1.0000000000000000E+020
 30
-1.0000000000000000E+020
  9
$PLIMMIN
 10
0.0
 20
0.0
  9
$PLIMMAX
 10
12.0
 20
9.0
  9
$UNITMODE
 70
     0
  9
$VISRETAIN
 70
     1
  9
$PLINEGEN
 70
     0
  9
$PSLTSCALE
 70
     1
  0
ENDSEC
  0
SECTION
  2
TABLES
  0
TABLE
  2
VPORT
 70
     2
  0
VPORT
  2
*ACTIVE
 70
     0
 10
0.0
 20
0.0
 11
1.0
 21
1.0
 12
101.7116199171052
 22
122.1163202266826
 13
0.0
 23
0.0
 14
1.0
 24
1.0
 15
0.0
 25
0.0
 16
0.0
 26
0.0
 36
1.0
 17
0.0
 27
0.0
 37
0.0
 40
195.9075243012019
 41
1.565365025466892
 42
50.0
 43
0.0
 44
0.0
 50
0.0
 51
0.0
 71
     0
 72
   100
 73
     1
 74
     1
 75
     0
 76
     0
 77
     0
 78
     0
  0
ENDTAB
  0
TABLE
  2
LTYPE
 70
     7
  0
LTYPE
  2
CONTINUOUS
 70
     0
  3
Solid line
 72
    65
 73
     0
 40
0.0
  0
LTYPE
  2
SOLID
 70
     0
  3
Solid
 72
    65
 73
     0
 40
0.0
  0
LTYPE
  2
DASHED
 70
     0
  3
Dashed
 72
    65
 73
     2
 40
4.7625000000000002
 49
3.1749999999999989
 49
-1.587499999999999
  0
LTYPE
  2
CENTERLINE
 70
     0
  3
Centerline
 72
    65
 73
     4
 40
25.399999999999999
 49
19.050000000000001
 49
-1.587499999999999
 49
3.1749999999999989
 49
-1.587499999999999
  0
LTYPE
  2
PHANTOM
 70
     0
  3
Phantom
 72
    65
 73
     6
 40
30.162500000000001
 49
19.050000000000001
 49
-1.587499999999999
 49
3.1749999999999989
 49
-1.587499999999999
 49
3.1749999999999989
 49
-1.587499999999999
  0
LTYPE
  2
CONSTRUCTION
 70
     0
  3
Construction
 72
    65
 73
     2
 40
1.016
 49
0.254
 49
-0.762
  0
LTYPE
  2
GAP
 70
     0
  3
Gap
 72
    65
 73
     3
 40
2540.9999980092002
 49
0.0
 49
-0.9999980092000002
 49
2540.0
  0
ENDTAB
  0
TABLE
  2
LAYER
 70
    10
  0
LAYER
  2
0
 70
     0
 62
     7
  6
CONTINUOUS
  0
LAYER
  2
LAYER1$C$L1
 70
     0
 62
     3
  6
SOLID
  0
LAYER
  2
LAYER2$C$L2
 70
     0
 62
     3
  6
SOLID
  0
LAYER
  2
LAYER3$C$L3
 70
     0
 62
     3
  6
SOLID
  0
LAYER
  2
LAYER4$C$L4
 70
     0
 62
     3
  6
SOLID
  0
LAYER
  2
LAYER6$C$L6
 70
     0
 62
     6
  6
SOLID
  0
LAYER
  2
LAYER8$C$L8
 70
     0
 62
    32
  6
SOLID
  0
LAYER
  2
LAYER9$C$L9
 70
     0
 62
     1
  6
SOLID
  0
LAYER
  2
DEFPOINTS
 70
     0
 62
     7
  6
CONTINUOUS
  0
LAYER
  2
DIMENSIONS
 70
     0
 62
     5
  6
CONTINUOUS
  0
ENDTAB
  0
TABLE
  2
STYLE
 70
     1
  0
STYLE
  2
STANDARD
 70
     0
 40
0.0
 41
1.0
 50
0.0
 71
     0
 42
3.1999998092999991
  3
txt
  4

  0
ENDTAB
  0
TABLE
  2
VIEW
 70
     0
  0
ENDTAB
  0
TABLE
  2
UCS
 70
     0
  0
ENDTAB
  0
TABLE
  2
APPID
 70
     1
  0
APPID
  2
ACAD
 70
     0
  0
ENDTAB
  0
TABLE
  2
DIMSTYLE
 70
     1
  0
DIMSTYLE
  2
STANDARD
 70
     0
  3

  4

  5

  6

  7

 40
1.0
 41
0.18
 42
0.0625
 43
0.38
 44
0.18
 45
0.0
 46
0.0
 47
0.0
 48
0.0
140
0.18
141
0.09
142
0.0
143
25.399999999999999
144
1.0
145
0.0
146
1.0
147
0.09
 71
     0
 72
     0
 73
     1
 74
     1
 75
     0
 76
     0
 77
     0
 78
     0
170
     0
171
     2
172
     0
173
     0
174
     0
175
     0
176
     0
177
     0
178
     0
  0
ENDTAB
  0
ENDSEC
  0
SECTION
  2
BLOCKS
  0
BLOCK
  8
0
  2
$MODEL_SPACE
 70
     0
 10
0.0
 20
0.0
 30
0.0
  3
$MODEL_SPACE
  1

  0
ENDBLK
  5
20
  8
0
  0
BLOCK
 67
     1
  8
0
  2
$PAPER_SPACE
 70
     0
 10
0.0
 20
0.0
 30
0.0
  3
$PAPER_SPACE
  1

  0
ENDBLK
  5
1C
 67
     1
  8
0
  0
BLOCK
  8
LAYER8$C$L8
  2
CADRA_ATTR_0
 70
     2
 10
0.0
 20
0.0
 30
0.0
  3
CADRA_ATTR_0
  1

  0
TEXT
  5
AF
  8
LAYER8$C$L8
 62
     3
 10
-168.86666630240001
 20
4.5
 30
0.0
 40
2.0
  1
TW-M
 41
0.9666671123499988
 72
     5
 11
-161.13332940359999
 21
4.5
 31
0.0
  0
ATTDEF
  5
B0
  8
LAYER8$C$L8
 62
     3
 10
-165.0
 20
5.5
 30
0.0
 40
0.156
  1
ç%f!<%6!<  é
  3

  2
50
 70
    11
  0
ENDBLK
  5
B1
  8
LAYER8$C$L8
  0
BLOCK
  8
LAYER8$C$L8
  2
CADRA_ATTR_1
 70
     2
 10
0.0
 20
0.0
 30
0.0
  3
CADRA_ATTR_1
  1

  0
TEXT
  5
B4
  8
LAYER8$C$L8
 62
     3
 10
-176.86666630239989
 20
4.5
 30
0.0
 40
2.0
  1
A
 41
1.3000026740999919
 72
     5
 11
-175.13332940359999
 21
4.5
 31
0.0
  0
ATTDEF
  5
B5
  8
LAYER8$C$L8
 62
     3
 10
-176.0
 20
5.5
 30
0.0
 40
0.156
  1
ç%0%k!<%W  é
  3

  2
40
 70
    11
  0
ENDBLK
  5
B6
  8
LAYER8$C$L8
  0
BLOCK
  8
LAYER8$C$L8
  2
CADRA_ATTR_2
 70
     2
 10
0.0
 20
0.0
 30
0.0
  3
CADRA_ATTR_2
  1

  0
TEXT
  5
B9
  8
LAYER8$C$L8
 62
     3
 10
-66.173770466099995
 20
3.4200000763
 30
0.0
 40
4.1599998473999991
  1
*
 41
1.299998386317248
 72
     5
 11
-62.568441740300003
 21
3.4200000763
 31
0.0
  0
ATTDEF
  5
BA
  8
LAYER8$C$L8
 62
     3
 10
-64.371105
 20
5.5
 30
0.0
 40
0.156
  1
ç5l?^HVé
  3

  2
110
 70
    11
  0
ENDBLK
  5
BB
  8
LAYER8$C$L8
  0
BLOCK
  8
LAYER8$C$L8
  2
CADRA_ATTR_3
 70
     2
 10
0.0
 20
0.0
 30
0.0
  3
CADRA_ATTR_3
  1

  0
TEXT
  5
BE
  8
LAYER8$C$L8
 62
     3
 10
-99.676656388700025
 20
275.91641426090001
 30
0.0
 40
4.1671714783000002
  1
APW1
 41
1.0497680583270641
 72
     5
 11
-83.636590179899997
 21
275.91641426090001
 31
0.0
  0
ATTDEF
  5
BF
  8
LAYER8$C$L8
 62
     3
 10
-91.656623999999994
 20
278.0
 30
0.0
 40
0.156
  1
çL>>N!&7A<0é
  3

  2
10
 70
    11
  0
ENDBLK
  5
C0
  8
LAYER8$C$L8
  0
BLOCK
  8
LAYER8$C$L8
  2
CADRA_ATTR_4
 70
     2
 10
0.0
 20
0.0
 30
0.0
  3
CADRA_ATTR_4
  1

  0
TEXT
  5
C3
  8
LAYER8$C$L8
 62
     3
 10
-103.4768965935
 20
283.91641426090001
 30
0.0
 40
4.1671714783000002
  1
TWÉVÉä-ÉY ÉpÉCÉçÉbÉgÉâÉCÉg
 41
0.5389002577560801
 72
     5
 11
-49.206060152399999
 21
283.91641426090001
 31
0.0
  0
ATTDEF
  5
C4
  8
LAYER8$C$L8
 62
     3
 10
-76.341477999999995
 20
286.0
 30
0.0
 40
0.156
  1
ç@=IJL>é
  3

  2
0
 70
    11
  0
ENDBLK
  5
C5
  8
LAYER8$C$L8
  0
BLOCK
  8
LAYER8$C$L8
  2
CADRA_ATTR_5
 70
     2
 10
0.0
 20
0.0
 30
0.0
  3
CADRA_ATTR_5
  1

  0
TEXT
  5
C8
  8
LAYER8$C$L8
 62
     3
 10
-66.511743726999995
 20
16.0
 30
0.0
 40
5.0
  1
MA4-A00005D
 41
1.0808278472579991
 72
     5
 11
-12.470351364100001
 21
16.0
 31
0.0
  0
ATTDEF
  5
C9
  8
LAYER8$C$L8
 62
     3
 10
-39.491045999999997
 20
18.5
 30
0.0
 40
0.156
  1
ç?^HV  é
  3

  2
20
 70
    11
  0
ENDBLK
  5
CA
  8
LAYER8$C$L8
  0
BLOCK
  8
0
  2
*D35
 70
     1
 10
0.0
 20
0.0
 30
0.0
  3
*D35
  1

  0
LINE
  5
78C
  8
DIMENSIONS
 62
     0
 10
24.246085729610801
 20
139.9706862984726
 30
0.0
 11
24.24608572961079
 21
103.4565631658978
 31
0.0
  0
LINE
  5
78D
  8
DIMENSIONS
 62
     0
 10
90.746070470910837
 20
126.47085414517269
 30
0.0
 11
90.746070470910837
 21
103.4565631658978
 31
0.0
  0
LINE
  5
78E
  8
DIMENSIONS
 62
     0
 10
26.218873576110791
 20
107.2665631086978
 30
0.0
 11
53.420087489442068
 21
107.2665631086978
 31
0.0
  0
LINE
  5
78F
  8
DIMENSIONS
 62
     0
 10
88.773282624410825
 20
107.2665631086978
 30
0.0
 11
63.20008691734207
 21
107.2665631086978
 31
0.0
  0
SOLID
  5
790
  8
DIMENSIONS
 62
     0
 10
26.218873576110791
 20
107.5953610831145
 30
0.0
 11
26.218873576110791
 21
106.93776513428119
 31
0.0
 12
24.24608572961079
 22
107.2665631086978
 32
0.0
 13
24.24608572961079
 23
107.2665631086978
 33
0.0
  0
SOLID
  5
791
  8
DIMENSIONS
 62
     0
 10
88.773282624410825
 20
107.5953610831145
 30
0.0
 11
88.773282624410825
 21
106.93776513428119
 31
0.0
 12
90.746070470910837
 22
107.2665631086978
 32
0.0
 13
90.746070470910837
 23
107.2665631086978
 33
0.0
  0
TEXT
  5
792
  8
0
 62
     0
 10
53.510087489442071
 20
105.6665632040478
 30
0.0
 40
3.1999998092999991
  1
66.5
  0
POINT
  5
793
  8
DEFPOINTS
 62
     0
 10
24.246085729610801
 20
142.51068626037261
 30
0.0
  0
POINT
  5
794
  8
DEFPOINTS
 62
     0
 10
90.746070470910837
 20
129.0108541070727
 30
0.0
  0
POINT
  5
795
  8
DEFPOINTS
 62
     0
 10
90.746070470910837
 20
107.2665631086978
 30
0.0
  0
ENDBLK
  5
73D
  8
0
  0
BLOCK
  8
0
  2
*D36
 70
     1
 10
0.0
 20
0.0
 30
0.0
  3
*D36
  1

  0
LINE
  5
796
  8
DIMENSIONS
 62
     0
 10
133.1460796261108
 20
95.050854068972697
 30
0.0
 11
133.1460796261108
 21
103.82085404987269
 31
0.0
  0
LINE
  5
797
  8
DIMENSIONS
 62
     0
 10
162.74607047091081
 20
95.050838810172678
 30
0.0
 11
162.74607047091081
 21
103.82085404987269
 31
0.0
  0
LINE
  5
798
  8
DIMENSIONS
 62
     0
 10
135.11886747261079
 20
100.0108541070727
 30
0.0
 11
140.12274217603581
 21
100.0108541070727
 31
0.0
  0
LINE
  5
799
  8
DIMENSIONS
 62
     0
 10
160.7732826244108
 20
100.0108541070727
 30
0.0
 11
155.76940792098571
 21
100.0108541070727
 31
0.0
  0
SOLID
  5
79A
  8
DIMENSIONS
 62
     0
 10
135.11886747261079
 20
100.33965208148931
 30
0.0
 11
135.11886747261079
 21
99.682056132656015
 31
0.0
 12
133.1460796261108
 22
100.0108541070727
 32
0.0
 13
133.1460796261108
 23
100.0108541070727
 33
0.0
  0
SOLID
  5
79B
  8
DIMENSIONS
 62
     0
 10
160.7732826244108
 20
100.33965208148931
 30
0.0
 11
160.7732826244108
 21
99.682056132656015
 31
0.0
 12
162.74607047091081
 22
100.0108541070727
 32
0.0
 13
162.74607047091081
 23
100.0108541070727
 33
0.0
  0
TEXT
  5
79C
  8
0
 62
     0
 10
140.21274217603579
 20
98.410854202422698
 30
0.0
 40
3.1999998092999991
  1
29.630
  0
POINT
  5
79D
  8
DEFPOINTS
 62
     0
 10
133.1460796261108
 20
92.510854107072703
 30
0.0
  0
POINT
  5
79E
  8
DEFPOINTS
 62
     0
 10
162.74607047091081
 20
92.510838848272698
 30
0.0
  0
POINT
  5
79F
  8
DEFPOINTS
 62
     0
 10
162.74607047091081
 20
100.0108541070727
 30
0.0
  0
ENDBLK
  5
74A
  8
0
  0
BLOCK
  8
0
  2
*D37
 70
     1
 10
0.0
 20
0.0
 30
0.0
  3
*D37
  1

  0
LINE
  5
7A0
  8
DIMENSIONS
 62
     0
 10
155.78607043281079
 20
57.010854107072703
 30
0.0
 11
184.61851761368189
 21
57.010854107072689
 31
0.0
  0
LINE
  5
7A1
  8
DIMENSIONS
 62
     0
 10
155.78607043281079
 20
94.010838848272698
 30
0.0
 11
184.618517613682
 21
94.010838848272684
 31
0.0
  0
LINE
  5
7A2
  8
DIMENSIONS
 62
     0
 10
180.808517670882
 20
58.983641953572693
 30
0.0
 11
180.808517670882
 21
67.687513605197651
 31
0.0
  0
LINE
  5
7A3
  8
DIMENSIONS
 62
     0
 10
180.808517670882
 20
92.038051001772686
 30
0.0
 11
180.808517670882
 21
83.334179350147664
 31
0.0
  0
SOLID
  5
7A4
  8
DIMENSIONS
 62
     0
 10
180.47971969646531
 20
58.983641953572693
 30
0.0
 11
181.1373156452986
 21
58.983641953572693
 31
0.0
 12
180.808517670882
 22
57.010854107072689
 32
0.0
 13
180.808517670882
 23
57.010854107072689
 33
0.0
  0
SOLID
  5
7A5
  8
DIMENSIONS
 62
     0
 10
180.47971969646531
 20
92.038051001772686
 30
0.0
 11
181.1373156452986
 21
92.038051001772686
 31
0.0
 12
180.808517670882
 22
94.010838848272684
 32
0.0
 13
180.808517670882
 23
94.010838848272684
 33
0.0
  0
TEXT
  5
7A6
  8
0
 62
     0
 10
182.4085175755319
 20
67.777513605197683
 30
0.0
 40
3.1999998092999991
  1
37.037
 50
90.0
  0
POINT
  5
7A7
  8
DEFPOINTS
 62
     0
 10
153.24607047091081
 20
57.010854107072703
 30
0.0
  0
POINT
  5
7A8
  8
DEFPOINTS
 62
     0
 10
153.24607047091081
 20
94.010838848272698
 30
0.0
  0
POINT
  5
7A9
  8
DEFPOINTS
 62
     0
 10
180.808517670882
 20
94.010838848272684
 30
0.0
  0
ENDBLK
  5
757
  8
0
  0
BLOCK
  8
0
  2
*D38
 70
     1
 10
0.0
 20
0.0
 30
0.0
  3
*D38
  1

  0
LINE
  5
7AA
  8
DIMENSIONS
 62
     0
 10
90.746070470910837
 20
126.47085414517269
 30
0.0
 11
90.746070470910837
 21
116.7008541642726
 31
0.0
  0
LINE
  5
7AB
  8
DIMENSIONS
 62
     0
 10
103.74607047091079
 20
126.27084193817269
 30
0.0
 11
103.74607047091079
 21
116.7008541642726
 31
0.0
  0
LINE
  5
7AC
  8
DIMENSIONS
 62
     0
 10
92.71885831741082
 20
120.5108541070726
 30
0.0
 11
101.7732826244108
 21
120.5108541070726
 31
0.0
  0
LINE
  5
7AD
  8
DIMENSIONS
 62
     0
 10
103.74607047091079
 20
120.5108541070726
 30
0.0
 11
120.84650551358671
 21
120.5108541070726
 31
0.0
  0
SOLID
  5
7AE
  8
DIMENSIONS
 62
     0
 10
92.71885831741082
 20
120.83965208148931
 30
0.0
 11
92.71885831741082
 21
120.182056132656
 31
0.0
 12
90.746070470910837
 22
120.5108541070726
 32
0.0
 13
90.746070470910837
 23
120.5108541070726
 33
0.0
  0
SOLID
  5
7AF
  8
DIMENSIONS
 62
     0
 10
101.7732826244108
 20
120.83965208148931
 30
0.0
 11
101.7732826244108
 21
120.182056132656
 31
0.0
 12
103.74607047091079
 22
120.5108541070726
 32
0.0
 13
103.74607047091079
 23
120.5108541070726
 33
0.0
  0
TEXT
  5
7B0
  8
0
 62
     0
 10
120.9365055135867
 20
118.9108542024227
 30
0.0
 40
3.1999998092999991
  1
13.013
  0
POINT
  5
7B1
  8
DEFPOINTS
 62
     0
 10
90.746070470910837
 20
129.0108541070727
 30
0.0
  0
POINT
  5
7B2
  8
DEFPOINTS
 62
     0
 10
103.74607047091079
 20
128.8108419000726
 30
0.0
  0
POINT
  5
7B3
  8
DEFPOINTS
 62
     0
 10
103.74607047091079
 20
120.5108541070726
 30
0.0
  0
ENDBLK
  5
764
  8
0
  0
BLOCK
  8
0
  2
*D39
 70
     1
 10
0.0
 20
0.0
 30
0.0
  3
*D39
  1

  0
LINE
  5
7FA
  8
DIMENSIONS
 62
     0
 10
109.7860401349524
 20
130.71084801547269
 30
0.0
 11
141.02723747813371
 21
130.71084801547269
 31
0.0
  0
LINE
  5
7FB
  8
DIMENSIONS
 62
     0
 10
109.7860401349524
 20
154.3108388602727
 30
0.0
 11
141.02723747813371
 21
154.3108388602727
 31
0.0
  0
LINE
  5
7FC
  8
DIMENSIONS
 62
     0
 10
137.21723753533371
 20
132.6836358619727
 30
0.0
 11
137.21723753533371
 21
132.8208440099726
 31
0.0
  0
LINE
  5
7FD
  8
DIMENSIONS
 62
     0
 10
137.21723753533371
 20
152.33805101377271
 30
0.0
 11
137.21723753533371
 21
152.20084286577259
 31
0.0
  0
SOLID
  5
7FE
  8
DIMENSIONS
 62
     0
 10
136.88843956091699
 20
132.6836358619727
 30
0.0
 11
137.54603550975031
 21
132.6836358619727
 31
0.0
 12
137.21723753533371
 22
130.71084801547269
 32
0.0
 13
137.21723753533371
 23
130.71084801547269
 33
0.0
  0
SOLID
  5
7FF
  8
DIMENSIONS
 62
     0
 10
136.88843956091699
 20
152.33805101377271
 30
0.0
 11
137.54603550975031
 21
152.33805101377271
 31
0.0
 12
137.21723753533371
 22
154.3108388602727
 32
0.0
 13
137.21723753533371
 23
154.3108388602727
 33
0.0
  0
INSERT
  5
800
  8
0
  2
*U47
 10
0.0
 20
0.0
 30
0.0
  0
POINT
  5
801
  8
DEFPOINTS
 62
     0
 10
107.24604017305241
 20
130.71084801547269
 30
0.0
  0
POINT
  5
802
  8
DEFPOINTS
 62
     0
 10
107.24604017305241
 20
154.3108388602727
 30
0.0
  0
POINT
  5
803
  8
DEFPOINTS
 62
     0
 10
137.21723753533371
 20
154.3108388602727
 30
0.0
  0
ENDBLK
  5
771
  8
0
  0
BLOCK
  8
0
  2
*D40
 70
     1
 10
0.0
 20
0.0
 30
0.0
  3
*D40
  1

  0
LINE
  5
7BE
  8
DIMENSIONS
 62
     0
 10
98.786055174010798
 20
128.0108541070727
 30
0.0
 11
149.75545867954051
 21
128.0108541070727
 31
0.0
  0
LINE
  5
7BF
  8
DIMENSIONS
 62
     0
 10
98.786055174010798
 20
157.0108541070727
 30
0.0
 11
149.75545867954051
 21
157.0108541070727
 31
0.0
  0
LINE
  5
7C0
  8
DIMENSIONS
 62
     0
 10
145.94545873674051
 20
129.98364195357269
 30
0.0
 11
145.94545873674051
 21
133.08752132994761
 31
0.0
  0
LINE
  5
7C1
  8
DIMENSIONS
 62
     0
 10
145.94545873674051
 20
155.03806626057269
 30
0.0
 11
145.94545873674051
 21
151.9341868841976
 31
0.0
  0
SOLID
  5
7C2
  8
DIMENSIONS
 62
     0
 10
145.6166607623239
 20
129.98364195357269
 30
0.0
 11
146.27425671115719
 21
129.98364195357269
 31
0.0
 12
145.94545873674051
 22
128.0108541070727
 32
0.0
 13
145.94545873674051
 23
128.0108541070727
 33
0.0
  0
SOLID
  5
7C3
  8
DIMENSIONS
 62
     0
 10
145.6166607623239
 20
155.03806626057269
 30
0.0
 11
146.27425671115719
 21
155.03806626057269
 31
0.0
 12
145.94545873674051
 22
157.0108541070727
 32
0.0
 13
145.94545873674051
 23
157.0108541070727
 33
0.0
  0
INSERT
  5
7C4
  8
0
  2
*U45
 10
0.0
 20
0.0
 30
0.0
  0
POINT
  5
7C5
  8
DEFPOINTS
 62
     0
 10
96.246055212110804
 20
128.0108541070727
 30
0.0
  0
POINT
  5
7C6
  8
DEFPOINTS
 62
     0
 10
96.246055212110804
 20
157.0108541070727
 30
0.0
  0
POINT
  5
7C7
  8
DEFPOINTS
 62
     0
 10
145.94545873674051
 20
157.0108541070727
 30
0.0
  0
ENDBLK
  5
77E
  8
0
  0
BLOCK
  8
0
  2
*D41
 70
     1
 10
0.0
 20
0.0
 30
0.0
  3
*D41
  1

  0
LINE
  5
7C8
  8
DIMENSIONS
 62
     0
 10
90.746070470910837
 20
125.8300307808727
 30
0.0
 11
90.746070470910837
 21
103.9657592649166
 31
0.0
  0
LINE
  5
7C9
  8
DIMENSIONS
 62
     0
 10
115.24607047091079
 20
139.97085414517261
 30
0.0
 11
115.24607047091079
 21
103.9657592649166
 31
0.0
  0
LINE
  5
7CA
  8
DIMENSIONS
 62
     0
 10
92.71885831741082
 20
107.7757592077167
 30
0.0
 11
94.906070947660808
 21
107.7757592077167
 31
0.0
  0
LINE
  5
7CB
  8
DIMENSIONS
 62
     0
 10
113.2732826244108
 20
107.7757592077167
 30
0.0
 11
111.08606999416079
 21
107.7757592077167
 31
0.0
  0
SOLID
  5
7CC
  8
DIMENSIONS
 62
     0
 10
92.71885831741082
 20
108.10455718213331
 30
0.0
 11
92.71885831741082
 21
107.4469612333
 31
0.0
 12
90.746070470910837
 22
107.7757592077167
 32
0.0
 13
90.746070470910837
 23
107.7757592077167
 33
0.0
  0
SOLID
  5
7CD
  8
DIMENSIONS
 62
     0
 10
113.2732826244108
 20
108.10455718213331
 30
0.0
 11
113.2732826244108
 21
107.4469612333
 31
0.0
 12
115.24607047091079
 22
107.7757592077167
 32
0.0
 13
115.24607047091079
 23
107.7757592077167
 33
0.0
  0
TEXT
  5
7CE
  8
0
 62
     0
 10
94.996070947660826
 20
106.1757593030667
 30
0.0
 40
3.1999998092999991
  1
24.525
  0
POINT
  5
7CF
  8
DEFPOINTS
 62
     0
 10
90.746070470910837
 20
128.37003074277271
 30
0.0
  0
POINT
  5
7D0
  8
DEFPOINTS
 62
     0
 10
115.24607047091079
 20
142.5108541070727
 30
0.0
  0
POINT
  5
7D1
  8
DEFPOINTS
 62
     0
 10
115.24607047091079
 20
107.7757592077167
 30
0.0
  0
ENDBLK
  5
78B
  8
0
  0
BLOCK
  8
0
  2
*U43
 70
     1
 10
0.0
 20
0.0
 30
0.0
  3
*U43
  1

  0
TEXT
  5
814
  8
0
 62
     0
 10
-48.400608777720279
 20
121.66666722287491
 30
0.0
 40
3.1999998092999991
  1
29.0
 50
90.0
  0
TEXT
  5
815
  8
0
 62
     0
 10
-48.400608777720279
 20
131.7999999523249
 30
0.0
 40
3.1999998092999991
  1
\U+2205
 50
90.0
  0
TEXT
  5
816
  8
0
 62
     0
 10
-48.400608777720279
 20
134.99999976162491
 30
0.0
 40
3.1999998092999991
  1
29
 50
90.0
  0
ENDBLK
  5
818
  8
0
  0
BLOCK
  8
0
  2
*U44
 70
     1
 10
0.0
 20
0.0
 30
0.0
  3
*U44
  1

  0
TEXT
  5
81A
  8
0
 62
     0
 10
-60.628799681268752
 20
121.3999929426999
 30
0.0
 40
3.1999998092999991
  1
23.6
 50
90.0
  0
TEXT
  5
81B
  8
0
 62
     0
 10
-60.628799681268752
 20
132.0666589736999
 30
0.0
 40
3.1999998092999991
  1
\U+2205
 50
90.0
  0
TEXT
  5
81C
  8
0
 62
     0
 10
-60.628799681268752
 20
135.26665878299991
 30
0.0
 40
3.1999998092999991
  1
23
 50
90.0
  0
ENDBLK
  5
81E
  8
0
  0
BLOCK
  8
0
  2
*U45
 70
     1
 10
0.0
 20
0.0
 30
0.0
  3
*U45
  1

  0
TEXT
  5
820
  8
0
 62
     0
 10
147.5454586413905
 20
133.17752132994761
 30
0.0
 40
3.1999998092999991
  1
29.0
 50
90.0
  0
TEXT
  5
821
  8
0
 62
     0
 10
147.5454586413905
 20
143.3108540593976
 30
0.0
 40
3.1999998092999991
  1
\U+2205
 50
90.0
  0
TEXT
  5
822
  8
0
 62
     0
 10
147.5454586413905
 20
146.51085386869761
 30
0.0
 40
3.1999998092999991
  1
29
 50
90.0
  0
ENDBLK
  5
824
  8
0
  0
BLOCK
  8
0
  2
*U46
 70
     1
 10
0.0
 20
0.0
 30
0.0
  3
*U46
  1

  0
TEXT
  5
826
  8
0
 62
     0
 10
87.683265934760783
 20
127.1380633041227
 30
0.0
 40
3.1999998092999991
  1
23.6000
  0
TEXT
  5
827
  8
0
 62
     0
 10
106.3499314890107
 20
127.1380633041227
 30
0.0
 40
3.1999998092999991
  1
\U+2205
  0
TEXT
  5
828
  8
0
 62
     0
 10
109.5499312983107
 20
127.1380633041227
 30
0.0
 40
3.1999998092999991
  1
24
  0
ENDBLK
  5
82A
  8
0
  0
BLOCK
  8
0
  2
*U47
 70
     1
 10
0.0
 20
0.0
 30
0.0
  3
*U47
  1

  0
TEXT
  5
82C
  8
0
 62
     0
 10
138.8172374399837
 20
132.91084400997261
 30
0.0
 40
3.1999998092999991
  1
23.6
 50
90.0
  0
TEXT
  5
82D
  8
0
 62
     0
 10
138.8172374399837
 20
143.5775100409727
 30
0.0
 40
3.1999998092999991
  1
\U+2205
 50
90.0
  0
TEXT
  5
82E
  8
0
 62
     0
 10
138.8172374399837
 20
146.77750985027259
 30
0.0
 40
3.1999998092999991
  1
23
 50
90.0
  0
ENDBLK
  5
830
  8
0
  0
BLOCK
  8
0
  2
*U48
 70
     1
 10
0.0
 20
0.0
 30
0.0
  3
*U48
  1

  0
TEXT
  5
832
  8
0
 10
52.207872484763811
 20
181.60527282529989
 30
0.0
 40
3.1999998092999991
  1
APW1126
  0
TEXT
  5
833
  8
0
 10
52.207872484763811
 20
176.2719398097999
 30
0.0
 40
3.1999998092999991
  1
(dimensions in mm)
  0
ENDBLK
  5
835
  8
0
  0
ENDSEC
  0
SECTION
  2
ENTITIES
  0
TEXT
  5
100
  8
LAYER8$C$L8
 62
     3
 10
-92.5
 20
232.58004760739999
 30
0.0
 40
2.5
  1

 72
     5
 11
-92.5
 21
232.58004760739999
 31
0.0
  0
TEXT
  5
103
  8
LAYER8$C$L8
 62
     3
 10
-92.5
 20
247.55001831049989
 30
0.0
 40
2.5
  1

 72
     5
 11
-92.5
 21
247.55001831049989
 31
0.0
  0
TEXT
  5
120
  8
LAYER8$C$L8
 62
     3
 10
-42.082763671899997
 20
130.767288208
 30
0.0
 40
2.5
  1

 72
     5
 11
-42.082763671899997
 21
130.767288208
 31
0.0
  0
TEXT
  5
122
  8
LAYER8$C$L8
 62
     3
 10
-42.082763671899997
 20
130.767288208
 30
0.0
 40
2.5
  1

 72
     5
 11
-42.082763671899997
 21
130.767288208
 31
0.0
  0
TEXT
  5
124
  8
LAYER8$C$L8
 62
     3
 10
-42.082763671899997
 20
130.767288208
 30
0.0
 40
2.5
  1

 72
     5
 11
-42.082763671899997
 21
130.767288208
 31
0.0
  0
DIMENSION
  5
597
  8
DIMENSIONS
  2
*D35
 10
90.746070470910837
 20
107.2665631086978
 30
0.0
 11
58.310087203392072
 21
107.2665631086978
 31
0.0
 70
   128
 13
24.246085729610801
 23
142.51068626037261
 33
0.0
 14
90.746070470910837
 24
129.0108541070727
 34
0.0
1001
ACAD
1000
DSTYLE
1002
{
1070
    41
1040
1.9727878464999999
1070
    42
1040
2.5399999618999991
1070
    44
1040
3.8099999427999989
1070
    73
1070
     0
1070
   140
1040
3.1999998092999991
1070
   271
1070
     1
1070
   272
1070
     1
1002
}
  0
LINE
  5
598
  8
LAYER3$C$L3
  6
CENTERLINE
 62
     3
 10
17.71430167201083
 20
142.5108541070727
 30
0.0
 11
117.74607047091079
 21
142.5108541070727
 31
0.0
  0
LINE
  5
599
  8
LAYER1$C$L1
 62
     3
 10
88.746070470910823
 20
153.5108541070727
 30
0.0
 11
90.746070470910837
 21
153.5108541070727
 31
0.0
  0
LINE
  5
59A
  8
LAYER1$C$L1
 62
     3
 10
89.046058263810806
 20
144.11084495177261
 30
0.0
 11
90.746070470910837
 21
144.11084495177261
 31
0.0
  0
LINE
  5
59B
  8
LAYER1$C$L1
 62
     3
 10
90.746070470910837
 20
64.510854107072703
 30
0.0
 11
88.746070470910823
 21
64.510854107072703
 31
0.0
  0
LINE
  5
59C
  8
LAYER1$C$L1
 62
     3
 10
90.746070470910837
 20
131.5108541070727
 30
0.0
 11
88.746070470910823
 21
131.5108541070727
 31
0.0
  0
LINE
  5
59D
  8
LAYER1$C$L1
 62
     3
 10
90.746070470910837
 20
140.91084800357271
 30
0.0
 11
89.046058263810806
 21
140.91084800357271
 31
0.0
  0
LINE
  5
59E
  8
LAYER3$C$L3
  6
CENTERLINE
 62
     3
 10
19.241706457210821
 20
75.510854107072703
 30
0.0
 11
117.74607047091079
 21
75.510854107072703
 31
0.0
  0
LINE
  5
59F
  8
LAYER1$C$L1
 62
     3
 10
88.746070470910823
 20
86.510854107072703
 30
0.0
 11
90.746070470910837
 21
86.510854107072703
 31
0.0
  0
LINE
  5
5A0
  8
LAYER1$C$L1
 62
     3
 10
62.246070470910809
 20
75.510854107072703
 30
0.0
 11
62.246070470910809
 21
57.010854107072703
 31
0.0
  0
LINE
  5
5A1
  8
LAYER1$C$L1
 62
     3
 10
77.746055212110804
 20
75.510854107072703
 30
0.0
 11
77.746055212110804
 21
63.510854107072703
 31
0.0
  0
LINE
  5
5A2
  8
LAYER1$C$L1
 62
     3
 10
76.246070470910823
 20
75.510854107072703
 30
0.0
 11
76.246070470910823
 21
64.010854107072703
 31
0.0
  0
LINE
  5
5A3
  8
LAYER1$C$L1
 62
     3
 10
88.746070470910823
 20
75.510854107072703
 30
0.0
 11
88.746070470910823
 21
61.010854107072703
 31
0.0
  0
LINE
  5
5A4
  8
LAYER1$C$L1
 62
     3
 10
81.446067419110804
 20
75.510854107072703
 30
0.0
 11
81.446067419110804
 21
61.510854107072703
 31
0.0
  0
LINE
  5
5A5
  8
LAYER1$C$L1
 62
     3
 10
83.946067419110804
 20
75.510854107072703
 30
0.0
 11
83.946067419110804
 21
61.010854107072703
 31
0.0
  0
LINE
  5
5A6
  8
LAYER1$C$L1
 62
     3
 10
41.24608572961079
 20
57.211079937172713
 30
0.0
 11
41.24608572961079
 21
75.510838848272698
 31
0.0
  0
LINE
  5
5A7
  8
LAYER1$C$L1
 62
     3
 10
33.446097936710821
 20
92.510823589472693
 30
0.0
 11
33.446097936710821
 21
58.510884624672698
 31
0.0
  0
LINE
  5
5A8
  8
LAYER1$C$L1
 62
     3
 10
24.246085729610801
 20
70.230122905872705
 30
0.0
 11
24.246085729610801
 21
60.861226421572702
 31
0.0
  0
LINE
  5
5A9
  8
LAYER1$C$L1
 62
     3
 10
62.246070470910809
 20
94.010823589472693
 30
0.0
 11
62.246070470910809
 21
57.010884624672713
 31
0.0
  0
LINE
  5
5AA
  8
LAYER1$C$L1
 62
     3
 10
41.24608572961079
 20
57.211079937172713
 30
0.0
 11
60.246085729610797
 21
57.211079937172713
 31
0.0
  0
LINE
  5
5AB
  8
LAYER1$C$L1
 62
     3
 10
50.880112942410818
 20
57.211296318072698
 30
0.0
 11
62.245912163710813
 21
62.511254718872699
 31
0.0
  0
LINE
  5
5AC
  8
LAYER1$C$L1
 62
     3
 10
41.24608572961079
 20
57.510884624672698
 30
0.0
 11
34.446097936710821
 21
57.510884624672698
 31
0.0
  0
LINE
  5
5AD
  8
LAYER1$C$L1
 62
     3
 10
25.085148062810809
 20
59.874072000372699
 30
0.0
 11
33.446075755310829
 21
58.5108792107727
 31
0.0
  0
ARC
  5
5AE
  8
LAYER1$C$L1
 62
     3
 10
25.246192541210799
 20
60.861226421572702
 30
0.0
 40
1.0
 50
180.00003597220001
 51
260.73975679239948
  0
ARC
  5
5AF
  8
LAYER1$C$L1
 62
     3
 10
34.446204748210818
 20
58.510884624672698
 30
0.0
 40
1.0
 50
180.00003597220001
 51
270.00001798610037
  0
LINE
  5
5B0
  8
LAYER1$C$L1
 62
     3
 10
51.523536291210803
 20
57.510884624672698
 30
0.0
 11
41.24608572961079
 21
57.510884624672698
 31
0.0
  0
LINE
  5
5B1
  8
LAYER1$C$L1
 62
     3
 10
75.746070470910823
 20
57.010854107072703
 30
0.0
 11
62.246070470910809
 21
57.010854107072703
 31
0.0
  0
LINE
  5
5B2
  8
LAYER1$C$L1
 62
     3
 10
75.746070470910823
 20
57.510854107072703
 30
0.0
 11
62.246070470910809
 21
57.510854107072703
 31
0.0
  0
LINE
  5
5B3
  8
LAYER1$C$L1
 62
     3
 10
61.24608572961079
 20
57.010884624672713
 30
0.0
 11
62.246070470910809
 21
57.010884624672713
 31
0.0
  0
LINE
  5
5B4
  8
LAYER1$C$L1
 62
     3
 10
61.24604688941082
 20
57.01092820277271
 30
0.0
 11
60.246047281410817
 21
57.210940281372707
 31
0.0
  0
LINE
  5
5B5
  8
LAYER1$C$L1
 62
     3
 10
81.446067419110804
 20
63.510854107072703
 30
0.0
 11
77.746055212110804
 21
63.510854107072703
 31
0.0
  0
LINE
  5
5B6
  8
LAYER1$C$L1
 62
     3
 10
81.446067419110804
 20
64.310841900072703
 30
0.0
 11
77.746055212110804
 21
64.310841900072703
 31
0.0
  0
LINE
  5
5B7
  8
LAYER1$C$L1
 62
     3
 10
77.746055212110804
 20
64.510854107072703
 30
0.0
 11
76.746070470910823
 21
64.510854107072703
 31
0.0
  0
LINE
  5
5B8
  8
LAYER1$C$L1
 62
     3
 10
76.246070470910823
 20
64.010854107072703
 30
0.0
 11
76.246070470910823
 21
57.510854107072703
 31
0.0
  0
ARC
  5
5B9
  8
LAYER1$C$L1
 62
     3
 10
75.746070470910823
 20
58.010854107072703
 30
0.0
 40
0.5
 50
270.00007262760067
 51
0.0
  0
ARC
  5
5BA
  8
LAYER1$C$L1
 62
     3
 10
75.746070470910823
 20
57.510854107072703
 30
0.0
 40
0.5
 50
270.00007262760067
 51
0.0
  0
ARC
  5
5BB
  8
LAYER1$C$L1
 62
     3
 10
76.746070470910823
 20
64.010854107072703
 30
0.0
 40
0.5
 50
89.999927372399227
 51
179.9999640277999
  0
LINE
  5
5BC
  8
LAYER1$C$L1
 62
     3
 10
88.746070470910823
 20
61.010854107072703
 30
0.0
 11
83.946067419110804
 21
61.010854107072703
 31
0.0
  0
LINE
  5
5BD
  8
LAYER1$C$L1
 62
     3
 10
88.746070470910823
 20
61.510854107072703
 30
0.0
 11
83.946067419110804
 21
61.510854107072703
 31
0.0
  0
LINE
  5
5BE
  8
LAYER1$C$L1
 62
     3
 10
88.746070470910823
 20
63.410848003572688
 30
0.0
 11
83.946067419110804
 21
63.410848003572688
 31
0.0
  0
LINE
  5
5BF
  8
LAYER1$C$L1
 62
     3
 10
88.746070470910823
 20
64.810841900072703
 30
0.0
 11
83.946067419110804
 21
64.810841900072703
 31
0.0
  0
LINE
  5
5C0
  8
LAYER1$C$L1
 62
     3
 10
88.746070470910823
 20
62.310841900072703
 30
0.0
 11
83.946067419110804
 21
62.310841900072703
 31
0.0
  0
LINE
  5
5C1
  8
LAYER1$C$L1
 62
     3
 10
83.946067419110804
 20
61.510854107072703
 30
0.0
 11
81.446067419110804
 21
61.510854107072703
 31
0.0
  0
LINE
  5
5C2
  8
LAYER1$C$L1
 62
     3
 10
41.246070470910809
 20
127.7108510552727
 30
0.0
 11
62.246070470910809
 21
127.7108510552727
 31
0.0
  0
LINE
  5
5C3
  8
LAYER1$C$L1
 62
     3
 10
62.246070470910809
 20
147.81067405337271
 30
0.0
 11
50.846061315610818
 21
147.81067405337271
 31
0.0
  0
LINE
  5
5C4
  8
LAYER1$C$L1
 62
     3
 10
62.246070470910809
 20
157.31067405337271
 30
0.0
 11
41.246070470910809
 21
157.31067405337271
 31
0.0
  0
LINE
  5
5C5
  8
LAYER1$C$L1
 62
     3
 10
50.846061315610818
 20
137.21085105527271
 30
0.0
 11
62.246070470910809
 21
137.21085105527271
 31
0.0
  0
LINE
  5
5C6
  8
LAYER1$C$L1
 62
     3
 10
62.246096844610797
 20
88.510941081872701
 30
0.0
 11
50.88029762331081
 21
93.810899482572708
 31
0.0
  0
LINE
  5
5C7
  8
LAYER1$C$L1
 62
     3
 10
60.246085729610797
 20
93.810811382472707
 30
0.0
 11
41.24608572961079
 21
93.810811382472707
 31
0.0
  0
LINE
  5
5C8
  8
LAYER1$C$L1
 62
     3
 10
34.446097936710821
 20
93.510823589472707
 30
0.0
 11
41.24608572961079
 21
93.510823589472707
 31
0.0
  0
LINE
  5
5C9
  8
LAYER1$C$L1
 62
     3
 10
30.446097936710821
 20
90.610814434172696
 30
0.0
 11
30.446097936710821
 21
85.510823589472707
 31
0.0
  0
LINE
  5
5CA
  8
LAYER1$C$L1
 62
     3
 10
27.546088781410809
 20
89.010823589472693
 30
0.0
 11
27.546088781410809
 21
85.510823589472707
 31
0.0
  0
LINE
  5
5CB
  8
LAYER1$C$L1
 62
     3
 10
29.246100988410831
 20
89.510823589472707
 30
0.0
 11
29.246100988410831
 21
85.510823589472707
 31
0.0
  0
LINE
  5
5CC
  8
LAYER1$C$L1
 62
     3
 10
27.746149098710809
 20
88.510840828372707
 30
0.0
 11
28.323511582510829
 21
89.510843407872699
 31
0.0
  0
ARC
  5
5CD
  8
LAYER1$C$L1
 62
     3
 10
27.033805456210811
 20
88.010869365872708
 30
0.0
 40
1.0
 50
89.999435598800162
 51
145.0263355526003
  0
LINE
  5
5CE
  8
LAYER1$C$L1
 62
     3
 10
30.446097936710821
 20
85.510823589472707
 30
0.0
 11
27.24608572961079
 21
85.510823589472707
 31
0.0
  0
LINE
  5
5CF
  8
LAYER1$C$L1
 62
     3
 10
33.446097936710821
 20
79.4108174859727
 30
0.0
 11
27.24608572961079
 21
79.4108174859727
 31
0.0
  0
LINE
  5
5D0
  8
LAYER1$C$L1
 62
     3
 10
30.446097936710821
 20
87.260823589472707
 30
0.0
 11
29.246100988410831
 21
87.260823589472707
 31
0.0
  0
LINE
  5
5D1
  8
LAYER4$C$L4
  6
PHANTOM
 62
     3
 10
32.846122350710829
 20
75.510854107072703
 30
0.0
 11
24.246070470910809
 21
75.510854107072703
 31
0.0
  0
LINE
  5
5D2
  8
LAYER4$C$L4
  6
PHANTOM
 62
     3
 10
32.846091833210799
 20
65.510869365872708
 30
0.0
 11
24.24603995331082
 21
65.510869365872708
 31
0.0
  0
LINE
  5
5D3
  8
LAYER1$C$L1
 62
     3
 10
26.24608572961079
 20
80.410817485972686
 30
0.0
 11
26.24608572961079
 21
75.510838848272698
 31
0.0
  0
LINE
  5
5D4
  8
LAYER1$C$L1
 62
     3
 10
26.24608572961079
 20
79.510823589472707
 30
0.0
 11
26.24608572961079
 21
75.510838848272698
 31
0.0
  0
LINE
  5
5D5
  8
LAYER1$C$L1
 62
     3
 10
25.003507463310822
 20
71.2005528709727
 30
0.0
 11
26.24604362141082
 21
71.51118687237269
 31
0.0
  0
ARC
  5
5D6
  8
LAYER1$C$L1
 62
     3
 10
25.246192541210799
 20
70.230122905872705
 30
0.0
 40
1.0
 50
104.0362393243
 51
179.9999640277999
  0
LINE
  5
5D7
  8
LAYER1$C$L1
 62
     3
 10
26.24608572961079
 20
75.510838848272698
 30
0.0
 11
26.24608572961079
 21
71.510884624672713
 31
0.0
  0
ARC
  5
5D8
  8
LAYER1$C$L1
 62
     3
 10
30.607719030410799
 20
85.510869365872708
 30
0.0
 40
5.3615283965999998
 50
145.02671804319971
 51
214.97326465400039
  0
LINE
  5
5D9
  8
LAYER1$C$L1
 62
     3
 10
26.24608572961079
 20
84.510823589472707
 30
0.0
 11
26.24608572961079
 21
80.410817485972686
 31
0.0
  0
ARC
  5
5DA
  8
LAYER1$C$L1
 62
     3
 10
27.246177282410819
 20
80.4108632623727
 30
0.0
 40
1.0
 50
180.00009061369991
 51
270.00001798610037
  0
LINE
  5
5DB
  8
LAYER1$C$L1
 62
     3
 10
27.746100988410831
 20
88.510823589472707
 30
0.0
 11
27.746100988410831
 21
85.510823589472707
 31
0.0
  0
LINE
  5
5DC
  8
LAYER1$C$L1
 62
     3
 10
27.746100988410831
 20
87.260823589472707
 30
0.0
 11
27.546088781410809
 21
87.260823589472707
 31
0.0
  0
ARC
  5
5DD
  8
LAYER1$C$L1
 62
     3
 10
27.246177282410819
 20
84.510869365872708
 30
0.0
 40
1.0
 50
89.999982013899555
 51
179.9999640277999
  0
LINE
  5
5DE
  8
LAYER4$C$L4
  6
PHANTOM
 62
     3
 10
33.446113195510797
 20
66.11086021057271
 30
0.0
 11
33.446113195510797
 21
74.9108632623727
 31
0.0
  0
ARC
  5
5DF
  8
LAYER4$C$L4
  6
PHANTOM
 62
     3
 10
32.84607657441083
 20
66.11090598697271
 30
0.0
 40
0.5999999642000001
 50
270.00007262760067
 51
0.0
  0
ARC
  5
5E0
  8
LAYER1$C$L1
 62
     3
 10
31.446189489410809
 20
90.61086021057271
 30
0.0
 40
1.0
 50
89.999982013899555
 51
179.9999640277999
  0
LINE
  5
5E1
  8
LAYER1$C$L1
 62
     3
 10
27.033713903510829
 20
89.010823589472693
 30
0.0
 11
27.546088781410809
 21
89.010823589472693
 31
0.0
  0
LINE
  5
5E2
  8
LAYER1$C$L1
 62
     3
 10
28.323463049010819
 20
89.510823589472707
 30
0.0
 11
29.2461162472108
 21
89.510823589472707
 31
0.0
  0
LINE
  5
5E3
  8
LAYER1$C$L1
 62
     3
 10
31.446097936710832
 20
91.610814434172724
 30
0.0
 11
33.446097936710821
 21
91.610814434172724
 31
0.0
  0
ARC
  5
5E4
  8
LAYER1$C$L1
 62
     3
 10
34.446189489410813
 20
92.510869365872693
 30
0.0
 40
1.0
 50
89.999982013899555
 51
179.9999640277999
  0
LINE
  5
5E5
  8
LAYER1$C$L1
 62
     3
 10
41.24608572961079
 20
75.510838848272698
 30
0.0
 11
41.24608572961079
 21
93.810811382472707
 31
0.0
  0
LINE
  5
5E6
  8
LAYER1$C$L1
 62
     3
 10
41.24608572961079
 20
93.510823589472707
 30
0.0
 11
51.523536291210803
 21
93.510823589472707
 31
0.0
  0
LINE
  5
5E7
  8
LAYER1$C$L1
 62
     3
 10
33.446082677910823
 20
152.51068626037269
 30
0.0
 11
41.246070470910809
 21
152.51068626037269
 31
0.0
  0
LINE
  5
5E8
  8
LAYER1$C$L1
 62
     3
 10
41.246070470910809
 20
157.31067405337271
 30
0.0
 11
34.446082677910823
 21
157.31067405337271
 31
0.0
  0
LINE
  5
5E9
  8
LAYER1$C$L1
 62
     3
 10
34.446082677910823
 20
127.7108510552727
 30
0.0
 11
41.246070470910809
 21
127.7108510552727
 31
0.0
  0
LINE
  5
5EA
  8
LAYER1$C$L1
 62
     3
 10
41.246070470910809
 20
132.5108998834726
 30
0.0
 11
33.446082677910823
 21
132.5108998834726
 31
0.0
  0
LINE
  5
5EB
  8
LAYER1$C$L1
 62
     3
 10
28.74608572961079
 20
140.5107167779727
 30
0.0
 11
28.74608572961079
 21
133.5108998834726
 31
0.0
  0
LINE
  5
5EC
  8
LAYER1$C$L1
 62
     3
 10
30.44608267791082
 20
135.7608998834726
 30
0.0
 11
30.44608267791082
 21
138.2608998834726
 31
0.0
  0
LINE
  5
5ED
  8
LAYER1$C$L1
 62
     3
 10
29.94608267791082
 20
135.7608998834726
 30
0.0
 11
29.94608267791082
 21
138.2608998834726
 31
0.0
  0
LINE
  5
5EE
  8
LAYER4$C$L4
  6
PHANTOM
 62
     3
 10
24.2461162472108
 20
137.51086936587259
 30
0.0
 11
24.2461162472108
 21
129.5108541070727
 31
0.0
  0
ARC
  5
5EF
  8
LAYER1$C$L1
 62
     3
 10
31.971168127110811
 20
137.0108998834726
 30
0.0
 40
5.524999618499999
 50
146.4622598821999
 51
213.53772281499971
  0
LINE
  5
5F0
  8
LAYER1$C$L1
 62
     3
 10
33.446082677910823
 20
142.51068626037261
 30
0.0
 11
33.446082677910823
 21
128.71085105527271
 31
0.0
  0
LINE
  5
5F1
  8
LAYER1$C$L1
 62
     3
 10
30.44608267791082
 20
143.21068320867261
 30
0.0
 11
30.44608267791082
 21
131.31090293517261
 31
0.0
  0
LINE
  5
5F2
  8
LAYER1$C$L1
 62
     3
 10
29.323463049010819
 20
133.0108998834726
 30
0.0
 11
30.44608267791082
 21
133.0108998834726
 31
0.0
  0
LINE
  5
5F3
  8
LAYER1$C$L1
 62
     3
 10
29.946242609610799
 20
135.76078434047261
 30
0.0
 11
30.446254530610808
 21
134.8947658067726
 31
0.0
  0
LINE
  5
5F4
  8
LAYER1$C$L1
 62
     3
 10
30.746100988410831
 20
131.0108998834726
 30
0.0
 11
26.546104040210821
 21
131.0108998834726
 31
0.0
  0
LINE
  5
5F5
  8
LAYER1$C$L1
 62
     3
 10
30.446097936710821
 20
132.5108998834726
 30
0.0
 11
26.546104040210821
 21
132.5108998834726
 31
0.0
  0
ARC
  5
5F6
  8
LAYER1$C$L1
 62
     3
 10
28.199485387810821
 20
134.5108998834726
 30
0.0
 40
1.0
 50
213.5379586838998
 51
270.00023655210009
  0
LINE
  5
5F7
  8
LAYER1$C$L1
 62
     3
 10
26.246100988410831
 20
131.31094871157271
 30
0.0
 11
26.246100988410831
 21
132.21085105527271
 31
0.0
  0
ARC
  5
5F8
  8
LAYER1$C$L1
 62
     3
 10
26.546165075310821
 20
132.21085105527271
 30
0.0
 40
0.2999999522999999
 50
89.999927372399227
 51
179.9999093863
  0
ARC
  5
5F9
  8
LAYER1$C$L1
 62
     3
 10
26.546165075310821
 20
131.3107045709726
 30
0.0
 40
0.2999999522999999
 50
180.00003597220001
 51
270.00001798610037
  0
LINE
  5
5FA
  8
LAYER1$C$L1
 62
     3
 10
28.199424352710821
 20
133.5108998834726
 30
0.0
 11
28.74608572961079
 21
133.5108998834726
 31
0.0
  0
LINE
  5
5FB
  8
LAYER1$C$L1
 62
     3
 10
28.74611067431081
 20
134.01101630937259
 30
0.0
 11
29.323512888710798
 21
133.01094862137271
 31
0.0
  0
ARC
  5
5FC
  8
LAYER1$C$L1
 62
     3
 10
34.446143713010798
 20
128.71085105527271
 30
0.0
 40
1.0
 50
180.00003597220001
 51
270.00001798610037
  0
LINE
  5
5FD
  8
LAYER1$C$L1
 62
     3
 10
33.446082677910823
 20
131.0108998834726
 30
0.0
 11
30.74608572961079
 21
131.0108998834726
 31
0.0
  0
ARC
  5
5FE
  8
LAYER1$C$L1
 62
     3
 10
30.74608572961079
 20
131.31090293517261
 30
0.0
 40
0.3000000119
 50
179.9999640277999
 51
270.0000006832006
  0
LINE
  5
5FF
  8
LAYER1$C$L1
 62
     3
 10
33.446082677910823
 20
143.51068626037261
 30
0.0
 11
24.5461498166108
 21
143.51068626037261
 31
0.0
  0
LINE
  5
600
  8
LAYER1$C$L1
 62
     3
 10
30.44608267791082
 20
141.01071677797259
 30
0.0
 11
29.323463049010819
 21
141.01071677797259
 31
0.0
  0
LINE
  5
601
  8
LAYER1$C$L1
 62
     3
 10
29.94616112611083
 20
138.26079103647271
 30
0.0
 11
30.44615820511083
 21
139.12678290297271
 31
0.0
  0
LINE
  5
602
  8
LAYER1$C$L1
 62
     3
 10
28.246100988410831
 20
154.01068626037261
 30
0.0
 11
30.746100988410831
 21
154.01068626037261
 31
0.0
  0
LINE
  5
603
  8
LAYER1$C$L1
 62
     3
 10
30.446097936710821
 20
152.51068626037269
 30
0.0
 11
28.246100988410831
 21
152.51068626037269
 31
0.0
  0
LINE
  5
604
  8
LAYER1$C$L1
 62
     3
 10
30.446067419110811
 20
152.01068626037269
 30
0.0
 11
29.323447790210821
 21
152.01068626037269
 31
0.0
  0
LINE
  5
605
  8
LAYER1$C$L1
 62
     3
 10
29.323447790210821
 20
144.01068626037269
 30
0.0
 11
30.446067419110811
 21
144.01068626037269
 31
0.0
  0
LINE
  5
606
  8
LAYER1$C$L1
 62
     3
 10
30.446074892310801
 20
150.12679910567269
 30
0.0
 11
29.946078230610819
 21
149.2608070007727
 31
0.0
  0
LINE
  5
607
  8
LAYER1$C$L1
 62
     3
 10
30.446280607310818
 20
145.89466364237271
 30
0.0
 11
29.94626826921083
 21
146.7606819376727
 31
0.0
  0
LINE
  5
608
  8
LAYER1$C$L1
 62
     3
 10
24.546088781410809
 20
141.5107167779727
 30
0.0
 11
33.446082677910823
 21
141.5107167779727
 31
0.0
  0
LINE
  5
609
  8
LAYER1$C$L1
 62
     3
 10
28.746070470910801
 20
151.51068626037261
 30
0.0
 11
28.746070470910801
 21
144.51068626037261
 31
0.0
  0
LINE
  5
60A
  8
LAYER1$C$L1
 62
     3
 10
29.946067419110818
 20
146.76068626037261
 30
0.0
 11
29.946067419110818
 21
149.26068626037261
 31
0.0
  0
ARC
  5
60B
  8
LAYER1$C$L1
 62
     3
 10
31.971183385910809
 20
148.01065574277271
 30
0.0
 40
5.524999618499999
 50
146.4622598821999
 51
213.53772281499971
  0
LINE
  5
60C
  8
LAYER1$C$L1
 62
     3
 10
24.246085729610801
 20
142.51068626037261
 30
0.0
 11
24.246085729610801
 21
141.8107045709726
 31
0.0
  0
ARC
  5
60D
  8
LAYER1$C$L1
 62
     3
 10
24.5461498166108
 20
141.8106435357727
 30
0.0
 40
0.2999999522999999
 50
180.00003597220001
 51
270.00001798610037
  0
LINE
  5
60E
  8
LAYER1$C$L1
 62
     3
 10
24.246085729610801
 20
143.2106984674727
 30
0.0
 11
24.246085729610801
 21
142.51068626037261
 31
0.0
  0
ARC
  5
60F
  8
LAYER1$C$L1
 62
     3
 10
24.5461498166108
 20
143.21066794987269
 30
0.0
 40
0.2999999522999999
 50
89.999982013899555
 51
179.9999093863
  0
ARC
  5
610
  8
LAYER1$C$L1
 62
     3
 10
28.199485387810821
 20
139.51065574277271
 30
0.0
 40
1.0
 50
89.999763447899866
 51
146.46204131610011
  0
LINE
  5
611
  8
LAYER1$C$L1
 62
     3
 10
28.199424352710821
 20
140.5107167779727
 30
0.0
 11
28.74608572961079
 21
140.5107167779727
 31
0.0
  0
LINE
  5
612
  8
LAYER1$C$L1
 62
     3
 10
28.746180284410819
 20
140.01076749207269
 30
0.0
 11
29.3235448330108
 21
141.01076883267271
 31
0.0
  0
ARC
  5
613
  8
LAYER1$C$L1
 62
     3
 10
28.199500646610829
 20
145.51065574277271
 30
0.0
 40
1.0
 50
213.5379586838998
 51
270.00023655210009
  0
LINE
  5
614
  8
LAYER1$C$L1
 62
     3
 10
28.746070470910801
 20
144.51068626037261
 30
0.0
 11
28.199409093910809
 21
144.51068626037261
 31
0.0
  0
LINE
  5
615
  8
LAYER1$C$L1
 62
     3
 10
29.323611512110801
 20
144.01086080727259
 30
0.0
 11
28.746307999710812
 21
145.01075643247259
 31
0.0
  0
ARC
  5
616
  8
LAYER1$C$L1
 62
     3
 10
28.199500646610829
 20
150.51065574277271
 30
0.0
 40
1.0
 50
89.999763447899866
 51
146.46204131610011
  0
ARC
  5
617
  8
LAYER1$C$L1
 62
     3
 10
28.246162023610822
 20
153.7106374322727
 30
0.0
 40
0.2999999522999999
 50
89.999927372399227
 51
179.9999093863
  0
ARC
  5
618
  8
LAYER1$C$L1
 62
     3
 10
28.246162023610822
 20
152.81064353577261
 30
0.0
 40
0.2999999522999999
 50
180.00003597220001
 51
270.00001798610037
  0
LINE
  5
619
  8
LAYER1$C$L1
 62
     3
 10
27.946097936710821
 20
153.7106984674727
 30
0.0
 11
27.946097936710821
 21
152.8107045709726
 31
0.0
  0
LINE
  5
61A
  8
LAYER1$C$L1
 62
     3
 10
28.746070470910801
 20
151.51068626037261
 30
0.0
 11
28.199409093910809
 21
151.51068626037261
 31
0.0
  0
LINE
  5
61B
  8
LAYER1$C$L1
 62
     3
 10
29.323523161810812
 20
152.0107571495727
 30
0.0
 11
28.746159095010821
 21
151.01075553377271
 31
0.0
  0
LINE
  5
61C
  8
LAYER1$C$L1
 62
     3
 10
30.446097936710821
 20
152.51068626037269
 30
0.0
 11
30.446097936710821
 21
143.51068626037261
 31
0.0
  0
LINE
  5
61D
  8
LAYER1$C$L1
 62
     3
 10
30.44608267791082
 20
152.51068626037269
 30
0.0
 11
30.44608267791082
 21
143.51068626037261
 31
0.0
  0
LINE
  5
61E
  8
LAYER1$C$L1
 62
     3
 10
33.446082677910823
 20
156.31067405337271
 30
0.0
 11
33.446082677910823
 21
142.51068626037261
 31
0.0
  0
LINE
  5
61F
  8
LAYER1$C$L1
 62
     3
 10
33.446082677910823
 20
146.51068626037261
 30
0.0
 11
37.246070470910809
 21
146.51068626037261
 31
0.0
  0
LINE
  5
620
  8
LAYER1$C$L1
 62
     3
 10
37.246070470910809
 20
138.5108998834726
 30
0.0
 11
33.446082677910823
 21
138.5108998834726
 31
0.0
  0
ARC
  5
621
  8
LAYER1$C$L1
 62
     3
 10
30.74608572961079
 20
143.21068320867261
 30
0.0
 40
0.3000000119
 50
89.999982013899555
 51
179.9999640277999
  0
LINE
  5
622
  8
LAYER1$C$L1
 62
     3
 10
37.246070470910809
 20
142.51068626037261
 30
0.0
 11
37.246070470910809
 21
138.5108998834726
 31
0.0
  0
LINE
  5
623
  8
LAYER1$C$L1
 62
     3
 10
35.246070470910801
 20
138.5108998834726
 30
0.0
 11
35.246070470910801
 21
142.51068626037261
 31
0.0
  0
LINE
  5
624
  8
LAYER4$C$L4
  6
PHANTOM
 62
     3
 10
37.2461162472108
 20
140.5108541070727
 30
0.0
 11
37.2461162472108
 21
138.61086021057261
 31
0.0
  0
LINE
  5
625
  8
LAYER1$C$L1
 62
     3
 10
35.246070470910801
 20
142.51068626037261
 30
0.0
 11
35.246070470910801
 21
146.51068626037261
 31
0.0
  0
LINE
  5
626
  8
LAYER4$C$L4
  6
PHANTOM
 62
     3
 10
37.2461162472108
 20
146.41075645087261
 30
0.0
 11
37.2461162472108
 21
142.41078696837261
 31
0.0
  0
LINE
  5
627
  8
LAYER1$C$L1
 62
     3
 10
37.246070470910809
 20
146.51068626037261
 30
0.0
 11
37.246070470910809
 21
142.51068626037261
 31
0.0
  0
LINE
  5
628
  8
LAYER1$C$L1
 62
     3
 10
30.74608572961079
 20
154.01068626037261
 30
0.0
 11
33.446082677910823
 21
154.01068626037261
 31
0.0
  0
LINE
  5
629
  8
LAYER1$C$L1
 62
     3
 10
30.746100988410831
 20
154.01068626037261
 30
0.0
 11
33.446097936710821
 21
154.01068626037261
 31
0.0
  0
ARC
  5
62A
  8
LAYER1$C$L1
 62
     3
 10
34.446158971810831
 20
156.3106435357727
 30
0.0
 40
1.0
 50
89.999982013899555
 51
179.9999093863
  0
LINE
  5
62B
  8
LAYER1$C$L1
 62
     3
 10
50.846061315610818
 20
137.21085105527271
 30
0.0
 11
50.846061315610818
 21
132.5108998834726
 31
0.0
  0
LINE
  5
62C
  8
LAYER1$C$L1
 62
     3
 10
41.246070470910809
 20
142.51068626037261
 30
0.0
 11
41.246070470910809
 21
127.7108510552727
 31
0.0
  0
LINE
  5
62D
  8
LAYER1$C$L1
 62
     3
 10
51.546058263810806
 20
132.5108998834726
 30
0.0
 11
41.246070470910809
 21
132.5108998834726
 31
0.0
  0
LINE
  5
62E
  8
LAYER1$C$L1
 62
     3
 10
51.546058263810806
 20
132.5108998834726
 30
0.0
 11
51.546058263810806
 21
127.7108510552727
 31
0.0
  0
LINE
  5
62F
  8
LAYER1$C$L1
 62
     3
 10
41.246070470910809
 20
152.51068626037269
 30
0.0
 11
51.546058263810806
 21
152.51068626037269
 31
0.0
  0
LINE
  5
630
  8
LAYER1$C$L1
 62
     3
 10
41.246070470910809
 20
157.31067405337271
 30
0.0
 11
41.246070470910809
 21
142.51068626037261
 31
0.0
  0
LINE
  5
631
  8
LAYER1$C$L1
 62
     3
 10
50.846061315610818
 20
152.51068626037269
 30
0.0
 11
50.846061315610818
 21
147.81067405337271
 31
0.0
  0
LINE
  5
632
  8
LAYER1$C$L1
 62
     3
 10
51.546058263810806
 20
157.31067405337271
 30
0.0
 11
51.546058263810806
 21
152.51068626037269
 31
0.0
  0
LINE
  5
633
  8
LAYER1$C$L1
 62
     3
 10
62.246070470910809
 20
94.010854107072703
 30
0.0
 11
75.746070470910823
 21
94.010854107072703
 31
0.0
  0
LINE
  5
634
  8
LAYER1$C$L1
 62
     3
 10
62.246070470910809
 20
93.510854107072703
 30
0.0
 11
75.746070470910823
 21
93.510854107072703
 31
0.0
  0
LINE
  5
635
  8
LAYER1$C$L1
 62
     3
 10
62.246070470910809
 20
94.010854107072703
 30
0.0
 11
62.246070470910809
 21
75.510854107072703
 31
0.0
  0
LINE
  5
636
  8
LAYER1$C$L1
 62
     3
 10
62.246070470910809
 20
94.010823589472693
 30
0.0
 11
61.24608572961079
 21
94.010823589472693
 31
0.0
  0
LINE
  5
637
  8
LAYER1$C$L1
 62
     3
 10
60.246053265410808
 20
93.810849442672705
 30
0.0
 11
61.246052873310823
 21
94.010861521272702
 31
0.0
  0
LINE
  5
638
  8
LAYER1$C$L1
 62
     3
 10
76.246070470910823
 20
93.510854107072703
 30
0.0
 11
76.246070470910823
 21
87.010854107072689
 31
0.0
  0
LINE
  5
639
  8
LAYER1$C$L1
 62
     3
 10
88.746070470910823
 20
90.010854107072703
 30
0.0
 11
88.746070470910823
 21
75.510854107072703
 31
0.0
  0
LINE
  5
63A
  8
LAYER1$C$L1
 62
     3
 10
81.446067419110804
 20
89.510854107072689
 30
0.0
 11
81.446067419110804
 21
75.510854107072703
 31
0.0
  0
LINE
  5
63B
  8
LAYER1$C$L1
 62
     3
 10
83.946067419110804
 20
90.010854107072703
 30
0.0
 11
83.946067419110804
 21
75.510854107072703
 31
0.0
  0
LINE
  5
63C
  8
LAYER1$C$L1
 62
     3
 10
77.746055212110804
 20
87.510854107072703
 30
0.0
 11
81.446067419110804
 21
87.510854107072703
 31
0.0
  0
LINE
  5
63D
  8
LAYER1$C$L1
 62
     3
 10
77.746055212110804
 20
86.710851055272698
 30
0.0
 11
81.446067419110804
 21
86.710851055272698
 31
0.0
  0
LINE
  5
63E
  8
LAYER1$C$L1
 62
     3
 10
77.746055212110804
 20
87.510854107072703
 30
0.0
 11
77.746055212110804
 21
75.510854107072703
 31
0.0
  0
LINE
  5
63F
  8
LAYER1$C$L1
 62
     3
 10
76.246070470910823
 20
87.010854107072689
 30
0.0
 11
76.246070470910823
 21
75.510854107072703
 31
0.0
  0
LINE
  5
640
  8
LAYER1$C$L1
 62
     3
 10
76.746070470910823
 20
86.510854107072703
 30
0.0
 11
77.746055212110804
 21
86.510854107072703
 31
0.0
  0
ARC
  5
641
  8
LAYER1$C$L1
 62
     3
 10
76.746085729610812
 20
87.010854107072689
 30
0.0
 40
0.5
 50
179.9999093863
 51
269.9999460417003
  0
LINE
  5
642
  8
LAYER1$C$L1
 62
     3
 10
86.452720251110833
 20
70.810841900072703
 30
0.0
 11
83.946067419110804
 21
70.810841900072703
 31
0.0
  0
LINE
  5
643
  8
LAYER1$C$L1
 62
     3
 10
87.679389562710824
 20
68.510854107072703
 30
0.0
 11
83.946067419110804
 21
68.510854107072703
 31
0.0
  0
LINE
  5
644
  8
LAYER1$C$L1
 62
     3
 10
88.746070470910823
 20
66.510854107072703
 30
0.0
 11
83.946067419110804
 21
66.510854107072703
 31
0.0
  0
LINE
  5
645
  8
LAYER1$C$L1
 62
     3
 10
85.066062536310824
 20
73.410848003572696
 30
0.0
 11
83.946067419110804
 21
73.410848003572696
 31
0.0
  0
LINE
  5
646
  8
LAYER1$C$L1
 62
     3
 10
83.946067419110804
 20
87.610844951772705
 30
0.0
 11
88.746070470910823
 21
87.610844951772705
 31
0.0
  0
LINE
  5
647
  8
LAYER1$C$L1
 62
     3
 10
85.012717809710793
 20
82.510838848272698
 30
0.0
 11
88.746070470910823
 21
82.510838848272698
 31
0.0
  0
LINE
  5
648
  8
LAYER1$C$L1
 62
     3
 10
83.946067419110804
 20
84.510838848272684
 30
0.0
 11
88.746070470910823
 21
84.510838848272684
 31
0.0
  0
LINE
  5
649
  8
LAYER1$C$L1
 62
     3
 10
83.946067419110804
 20
86.210851055272684
 30
0.0
 11
88.746070470910823
 21
86.210851055272684
 31
0.0
  0
LINE
  5
64A
  8
LAYER1$C$L1
 62
     3
 10
83.946067419110804
 20
88.710851055272684
 30
0.0
 11
88.746070470910823
 21
88.710851055272684
 31
0.0
  0
LINE
  5
64B
  8
LAYER1$C$L1
 62
     3
 10
86.239387121210811
 20
80.210851055272684
 30
0.0
 11
88.746070470910823
 21
80.210851055272684
 31
0.0
  0
LINE
  5
64C
  8
LAYER1$C$L1
 62
     3
 10
87.626060094910812
 20
77.610844951772705
 30
0.0
 11
88.746070470910823
 21
77.610844951772705
 31
0.0
  0
ARC
  5
64D
  8
LAYER1$C$L1
 62
     3
 10
75.746085729610812
 20
93.010854107072717
 30
0.0
 40
0.5
 50
0.0
 51
89.999927372399227
  0
ARC
  5
64E
  8
LAYER1$C$L1
 62
     3
 10
75.746085729610812
 20
93.510854107072703
 30
0.0
 40
0.5
 50
0.0
 51
89.999927372399227
  0
LINE
  5
64F
  8
LAYER1$C$L1
 62
     3
 10
83.946067419110804
 20
89.510854107072689
 30
0.0
 11
88.746070470910823
 21
89.510854107072689
 31
0.0
  0
LINE
  5
650
  8
LAYER1$C$L1
 62
     3
 10
83.946067419110804
 20
90.010854107072703
 30
0.0
 11
88.746070470910823
 21
90.010854107072703
 31
0.0
  0
LINE
  5
651
  8
LAYER1$C$L1
 62
     3
 10
81.446067419110804
 20
89.510854107072689
 30
0.0
 11
83.946067419110804
 21
89.510854107072689
 31
0.0
  0
LINE
  5
652
  8
LAYER1$C$L1
 62
     3
 10
62.245917883010797
 20
143.61082969297269
 30
0.0
 11
73.946082677910809
 21
143.61082969297269
 31
0.0
  0
LINE
  5
653
  8
LAYER1$C$L1
 62
     3
 10
62.245917883010797
 20
141.41087852117261
 30
0.0
 11
73.946082677910809
 21
141.41087852117261
 31
0.0
  0
LINE
  5
654
  8
LAYER1$C$L1
 62
     3
 10
62.246070470910809
 20
157.3108419000726
 30
0.0
 11
75.746070470910823
 21
157.3108419000726
 31
0.0
  0
LINE
  5
655
  8
LAYER1$C$L1
 62
     3
 10
62.246070470910809
 20
147.81084190007269
 30
0.0
 11
76.246070470910823
 21
147.81084190007269
 31
0.0
  0
LINE
  5
656
  8
LAYER1$C$L1
 62
     3
 10
62.246070470910809
 20
146.71085105527271
 30
0.0
 11
76.246070470910823
 21
146.71085105527271
 31
0.0
  0
LINE
  5
657
  8
LAYER1$C$L1
 62
     3
 10
75.746070470910823
 20
127.7108510552727
 30
0.0
 11
62.246070470910809
 21
127.7108510552727
 31
0.0
  0
LINE
  5
658
  8
LAYER1$C$L1
 62
     3
 10
76.246070470910823
 20
138.31084190007269
 30
0.0
 11
62.246070470910809
 21
138.31084190007269
 31
0.0
  0
LINE
  5
659
  8
LAYER1$C$L1
 62
     3
 10
71.246070470910823
 20
136.91084800357271
 30
0.0
 11
74.246070470910823
 21
136.91084800357271
 31
0.0
  0
LINE
  5
65A
  8
LAYER1$C$L1
 62
     3
 10
71.246070470910823
 20
129.5108541070727
 30
0.0
 11
74.246070470910823
 21
129.5108541070727
 31
0.0
  0
LINE
  5
65B
  8
LAYER1$C$L1
 62
     3
 10
62.246070470910809
 20
138.31084190007269
 30
0.0
 11
62.246070470910809
 21
127.7108510552727
 31
0.0
  0
LINE
  5
65C
  8
LAYER1$C$L1
 62
     3
 10
71.246070470910823
 20
136.91084800357271
 30
0.0
 11
71.246070470910823
 21
129.5108541070727
 31
0.0
  0
LINE
  5
65D
  8
LAYER1$C$L1
 62
     3
 10
68.546073522610826
 20
137.21085105527271
 30
0.0
 11
68.546073522610826
 21
129.21085105527271
 31
0.0
  0
LINE
  5
65E
  8
LAYER1$C$L1
 62
     3
 10
62.246070470910809
 20
138.3107045709726
 30
0.0
 11
62.246070470910809
 21
127.7108510552727
 31
0.0
  0
LINE
  5
65F
  8
LAYER1$C$L1
 62
     3
 10
69.34607657441083
 20
137.21085105527271
 30
0.0
 11
69.34607657441083
 21
129.21085105527271
 31
0.0
  0
LINE
  5
660
  8
LAYER1$C$L1
 62
     3
 10
62.246070470910809
 20
129.21085105527271
 30
0.0
 11
69.34607657441083
 21
129.21085105527271
 31
0.0
  0
LINE
  5
661
  8
LAYER1$C$L1
 62
     3
 10
70.246070470910823
 20
143.61084495177261
 30
0.0
 11
62.246070470910809
 21
143.61084495177261
 31
0.0
  0
LINE
  5
662
  8
LAYER1$C$L1
 62
     3
 10
62.246070470910809
 20
141.41084800357271
 30
0.0
 11
70.246070470910823
 21
141.41084800357271
 31
0.0
  0
LINE
  5
663
  8
LAYER1$C$L1
 62
     3
 10
62.246070470910809
 20
137.21085105527271
 30
0.0
 11
69.34607657441083
 21
137.21085105527271
 31
0.0
  0
LINE
  5
664
  8
LAYER1$C$L1
 62
     3
 10
62.246070470910809
 20
157.3108419000726
 30
0.0
 11
62.246070470910809
 21
146.71085105527271
 31
0.0
  0
LINE
  5
665
  8
LAYER1$C$L1
 62
     3
 10
62.246070470910809
 20
157.31067405337271
 30
0.0
 11
62.246070470910809
 21
146.71066794987269
 31
0.0
  0
LINE
  5
666
  8
LAYER1$C$L1
 62
     3
 10
62.246070470910809
 20
143.61066184637269
 30
0.0
 11
62.246070470910809
 21
141.4106801568727
 31
0.0
  0
LINE
  5
667
  8
LAYER1$C$L1
 62
     3
 10
62.246070470910809
 20
141.41084800357271
 30
0.0
 11
62.246070470910809
 21
142.5108541070727
 31
0.0
  0
LINE
  5
668
  8
LAYER1$C$L1
 62
     3
 10
62.246070470910809
 20
142.5108541070727
 30
0.0
 11
62.246070470910809
 21
141.41084800357271
 31
0.0
  0
LINE
  5
669
  8
LAYER1$C$L1
 62
     3
 10
60.246070470910801
 20
142.51068626037261
 30
0.0
 11
60.246070470910801
 21
137.21085105527271
 31
0.0
  0
LINE
  5
66A
  8
LAYER1$C$L1
 62
     3
 10
61.246070470910809
 20
142.51068626037261
 30
0.0
 11
61.246070470910809
 21
137.21085105527271
 31
0.0
  0
LINE
  5
66B
  8
LAYER1$C$L1
 62
     3
 10
60.246070470910801
 20
147.81067405337271
 30
0.0
 11
60.246070470910801
 21
142.51068626037261
 31
0.0
  0
LINE
  5
66C
  8
LAYER1$C$L1
 62
     3
 10
61.246070470910809
 20
147.81067405337271
 30
0.0
 11
61.246070470910809
 21
142.51068626037261
 31
0.0
  0
LINE
  5
66D
  8
LAYER1$C$L1
 62
     3
 10
62.246070470910809
 20
142.5108541070727
 30
0.0
 11
62.246070470910809
 21
143.61084495177261
 31
0.0
  0
LINE
  5
66E
  8
LAYER1$C$L1
 62
     3
 10
62.246070470910809
 20
143.61084495177261
 30
0.0
 11
62.246070470910809
 21
142.5108541070727
 31
0.0
  0
LINE
  5
66F
  8
LAYER1$C$L1
 62
     3
 10
69.84607657441083
 20
141.41084800357271
 30
0.0
 11
69.84607657441083
 21
142.51083884827261
 31
0.0
  0
LINE
  5
670
  8
LAYER1$C$L1
 62
     3
 10
69.84607657441083
 20
142.51083884827261
 30
0.0
 11
69.84607657441083
 21
143.61084495177261
 31
0.0
  0
LINE
  5
671
  8
LAYER1$C$L1
 62
     3
 10
68.546073522610826
 20
154.01083884827261
 30
0.0
 11
71.746070470910823
 21
154.01083884827261
 31
0.0
  0
LINE
  5
672
  8
LAYER1$C$L1
 62
     3
 10
68.546073522610826
 20
149.61084495177269
 30
0.0
 11
71.746070470910823
 21
149.61084495177269
 31
0.0
  0
LINE
  5
673
  8
LAYER1$C$L1
 62
     3
 10
68.546073522610826
 20
154.01083884827261
 30
0.0
 11
68.546073522610826
 21
149.61084495177269
 31
0.0
  0
LINE
  5
674
  8
LAYER1$C$L1
 62
     3
 10
71.746070470910823
 20
154.01083884827261
 30
0.0
 11
71.746070470910823
 21
149.61084495177269
 31
0.0
  0
LINE
  5
675
  8
LAYER1$C$L1
 62
     3
 10
77.746055212110804
 20
139.26085410707259
 30
0.0
 11
77.746055212110804
 21
130.5108541070727
 31
0.0
  0
LINE
  5
676
  8
LAYER1$C$L1
 62
     3
 10
76.246070470910823
 20
138.31084190007269
 30
0.0
 11
76.246070470910823
 21
128.21085105527271
 31
0.0
  0
LINE
  5
677
  8
LAYER1$C$L1
 62
     3
 10
88.746070470910823
 20
142.5108541070727
 30
0.0
 11
88.746070470910823
 21
128.0108541070727
 31
0.0
  0
LINE
  5
678
  8
LAYER1$C$L1
 62
     3
 10
83.946067419110804
 20
142.5108541070727
 30
0.0
 11
83.946067419110804
 21
128.0108541070727
 31
0.0
  0
LINE
  5
679
  8
LAYER1$C$L1
 62
     3
 10
81.446067419110804
 20
142.5108541070727
 30
0.0
 11
81.446067419110804
 21
128.5108541070727
 31
0.0
  0
LINE
  5
67A
  8
LAYER1$C$L1
 62
     3
 10
74.246070470910823
 20
136.91084800357271
 30
0.0
 11
74.246070470910823
 21
129.5108541070727
 31
0.0
  0
LINE
  5
67B
  8
LAYER1$C$L1
 62
     3
 10
81.446067419110804
 20
130.5108541070727
 30
0.0
 11
77.746055212110804
 21
130.5108541070727
 31
0.0
  0
LINE
  5
67C
  8
LAYER1$C$L1
 62
     3
 10
81.446067419110804
 20
131.3108419000726
 30
0.0
 11
77.746055212110804
 21
131.3108419000726
 31
0.0
  0
LINE
  5
67D
  8
LAYER1$C$L1
 62
     3
 10
77.746055212110804
 20
131.5108541070727
 30
0.0
 11
76.746070470910823
 21
131.5108541070727
 31
0.0
  0
ARC
  5
67E
  8
LAYER1$C$L1
 62
     3
 10
75.746070470910823
 20
128.21085105527271
 30
0.0
 40
0.5
 50
270.00007262760067
 51
0.0
  0
ARC
  5
67F
  8
LAYER1$C$L1
 62
     3
 10
76.746070470910823
 20
131.0108541070727
 30
0.0
 40
0.5
 50
89.999982013899555
 51
180.00001866929981
  0
LINE
  5
680
  8
LAYER1$C$L1
 62
     3
 10
88.746070470910823
 20
128.0108541070727
 30
0.0
 11
83.946067419110804
 21
128.0108541070727
 31
0.0
  0
LINE
  5
681
  8
LAYER1$C$L1
 62
     3
 10
88.746070470910823
 20
128.5108541070727
 30
0.0
 11
83.946067419110804
 21
128.5108541070727
 31
0.0
  0
LINE
  5
682
  8
LAYER1$C$L1
 62
     3
 10
88.746070470910823
 20
129.3108419000726
 30
0.0
 11
83.946067419110804
 21
129.3108419000726
 31
0.0
  0
LINE
  5
683
  8
LAYER1$C$L1
 62
     3
 10
88.746070470910823
 20
130.41084800357271
 30
0.0
 11
83.946067419110804
 21
130.41084800357271
 31
0.0
  0
LINE
  5
684
  8
LAYER1$C$L1
 62
     3
 10
88.746070470910823
 20
131.8108419000726
 30
0.0
 11
83.946067419110804
 21
131.8108419000726
 31
0.0
  0
LINE
  5
685
  8
LAYER1$C$L1
 62
     3
 10
88.746070470910823
 20
133.5108541070727
 30
0.0
 11
83.946067419110804
 21
133.5108541070727
 31
0.0
  0
LINE
  5
686
  8
LAYER1$C$L1
 62
     3
 10
87.679389562710824
 20
135.5108541070727
 30
0.0
 11
83.946067419110804
 21
135.5108541070727
 31
0.0
  0
LINE
  5
687
  8
LAYER1$C$L1
 62
     3
 10
83.946067419110804
 20
128.5108541070727
 30
0.0
 11
81.446067419110804
 21
128.5108541070727
 31
0.0
  0
LINE
  5
688
  8
LAYER1$C$L1
 62
     3
 10
77.746055212110804
 20
154.51085410707259
 30
0.0
 11
81.446067419110804
 21
154.51085410707259
 31
0.0
  0
LINE
  5
689
  8
LAYER1$C$L1
 62
     3
 10
77.746055212110804
 20
145.7608541070727
 30
0.0
 11
81.446067419110804
 21
145.7608541070727
 31
0.0
  0
LINE
  5
68A
  8
LAYER1$C$L1
 62
     3
 10
77.746055212110804
 20
153.71085105527271
 30
0.0
 11
81.446067419110804
 21
153.71085105527271
 31
0.0
  0
LINE
  5
68B
  8
LAYER1$C$L1
 62
     3
 10
81.446067419110804
 20
139.26085410707259
 30
0.0
 11
77.746055212110804
 21
139.26085410707259
 31
0.0
  0
ARC
  5
68C
  8
LAYER1$C$L1
 62
     3
 10
82.446067419110818
 20
142.5108541070727
 30
0.0
 40
1.0
 50
89.999982013899555
 51
179.9999640277999
  0
ARC
  5
68D
  8
LAYER1$C$L1
 62
     3
 10
82.446067419110818
 20
142.5108541070727
 30
0.0
 40
1.0
 50
180.00009061369991
 51
270.00007262760067
  0
LINE
  5
68E
  8
LAYER1$C$L1
 62
     3
 10
76.246070470910823
 20
156.8108419000726
 30
0.0
 11
76.246070470910823
 21
146.71085105527271
 31
0.0
  0
LINE
  5
68F
  8
LAYER1$C$L1
 62
     3
 10
77.746055212110804
 20
154.51085410707259
 30
0.0
 11
77.746055212110804
 21
145.7608541070727
 31
0.0
  0
LINE
  5
690
  8
LAYER1$C$L1
 62
     3
 10
76.246070470910823
 20
145.7608541070727
 30
0.0
 11
77.746055212110804
 21
145.7608541070727
 31
0.0
  0
LINE
  5
691
  8
LAYER1$C$L1
 62
     3
 10
77.746055212110804
 20
139.26085410707259
 30
0.0
 11
76.246070470910823
 21
139.26085410707259
 31
0.0
  0
LINE
  5
692
  8
LAYER1$C$L1
 62
     3
 10
76.246070470910823
 20
142.5108541070727
 30
0.0
 11
76.246070470910823
 21
138.31084190007269
 31
0.0
  0
LINE
  5
693
  8
LAYER1$C$L1
 62
     3
 10
75.746070470910823
 20
142.5108541070727
 30
0.0
 11
75.746070470910823
 21
138.31084190007269
 31
0.0
  0
LINE
  5
694
  8
LAYER1$C$L1
 62
     3
 10
74.046073522610826
 20
142.5108541070727
 30
0.0
 11
74.046073522610826
 21
138.31084190007269
 31
0.0
  0
LINE
  5
695
  8
LAYER1$C$L1
 62
     3
 10
73.946082677910809
 20
138.3108724175726
 30
0.0
 11
73.946082677910809
 21
141.41087852117261
 31
0.0
  0
LINE
  5
696
  8
LAYER1$C$L1
 62
     3
 10
73.946082677910809
 20
146.7108357965727
 30
0.0
 11
73.946082677910809
 21
143.61082969297269
 31
0.0
  0
LINE
  5
697
  8
LAYER1$C$L1
 62
     3
 10
74.046073522610826
 20
146.71085105527271
 30
0.0
 11
74.046073522610826
 21
142.5108541070727
 31
0.0
  0
LINE
  5
698
  8
LAYER1$C$L1
 62
     3
 10
76.246070470910823
 20
146.71085105527271
 30
0.0
 11
76.246070470910823
 21
142.5108541070727
 31
0.0
  0
LINE
  5
699
  8
LAYER1$C$L1
 62
     3
 10
75.746070470910823
 20
146.71085105527271
 30
0.0
 11
75.746070470910823
 21
142.5108541070727
 31
0.0
  0
LINE
  5
69A
  8
LAYER1$C$L1
 62
     3
 10
76.746070470910823
 20
153.5108541070727
 30
0.0
 11
77.746055212110804
 21
153.5108541070727
 31
0.0
  0
ARC
  5
69B
  8
LAYER1$C$L1
 62
     3
 10
76.746070470910823
 20
154.0108541070727
 30
0.0
 40
0.5
 50
179.9999640277999
 51
270.0000006832006
  0
ARC
  5
69C
  8
LAYER1$C$L1
 62
     3
 10
75.746070470910823
 20
156.8108419000726
 30
0.0
 40
0.5
 50
0.0
 51
89.999982013899555
  0
LINE
  5
69D
  8
LAYER1$C$L1
 62
     3
 10
88.746070470910823
 20
157.0108541070727
 30
0.0
 11
88.746070470910823
 21
142.5108541070727
 31
0.0
  0
LINE
  5
69E
  8
LAYER1$C$L1
 62
     3
 10
81.446067419110804
 20
156.5108541070727
 30
0.0
 11
81.446067419110804
 21
142.5108541070727
 31
0.0
  0
LINE
  5
69F
  8
LAYER1$C$L1
 62
     3
 10
83.946067419110804
 20
157.0108541070727
 30
0.0
 11
83.946067419110804
 21
142.5108541070727
 31
0.0
  0
LINE
  5
6A0
  8
LAYER1$C$L1
 62
     3
 10
86.452720251110833
 20
137.8108419000726
 30
0.0
 11
83.946067419110804
 21
137.8108419000726
 31
0.0
  0
LINE
  5
6A1
  8
LAYER1$C$L1
 62
     3
 10
83.946067419110804
 20
141.5108541070727
 30
0.0
 11
82.446067419110818
 21
141.5108541070727
 31
0.0
  0
LINE
  5
6A2
  8
LAYER1$C$L1
 62
     3
 10
85.066062536310824
 20
140.41084800357271
 30
0.0
 11
83.946067419110804
 21
140.41084800357271
 31
0.0
  0
LINE
  5
6A3
  8
LAYER1$C$L1
 62
     3
 10
82.446067419110818
 20
143.5108541070727
 30
0.0
 11
83.946067419110804
 21
143.5108541070727
 31
0.0
  0
LINE
  5
6A4
  8
LAYER1$C$L1
 62
     3
 10
89.046058263810806
 20
142.5108541070727
 30
0.0
 11
89.046058263810806
 21
140.91084800357271
 31
0.0
  0
LINE
  5
6A5
  8
LAYER1$C$L1
 62
     3
 10
86.239387121210811
 20
147.21085105527271
 30
0.0
 11
88.746070470910823
 21
147.21085105527271
 31
0.0
  0
LINE
  5
6A6
  8
LAYER1$C$L1
 62
     3
 10
87.626060094910812
 20
144.61084495177261
 30
0.0
 11
88.746070470910823
 21
144.61084495177261
 31
0.0
  0
LINE
  5
6A7
  8
LAYER1$C$L1
 62
     3
 10
89.046058263810806
 20
144.11084495177261
 30
0.0
 11
89.046058263810806
 21
142.5108541070727
 31
0.0
  0
LINE
  5
6A8
  8
LAYER1$C$L1
 62
     3
 10
83.946067419110804
 20
157.0108541070727
 30
0.0
 11
88.746070470910823
 21
157.0108541070727
 31
0.0
  0
LINE
  5
6A9
  8
LAYER1$C$L1
 62
     3
 10
83.946067419110804
 20
156.5108541070727
 30
0.0
 11
88.746070470910823
 21
156.5108541070727
 31
0.0
  0
LINE
  5
6AA
  8
LAYER1$C$L1
 62
     3
 10
83.946067419110804
 20
155.71085105527271
 30
0.0
 11
88.746070470910823
 21
155.71085105527271
 31
0.0
  0
LINE
  5
6AB
  8
LAYER1$C$L1
 62
     3
 10
83.946067419110804
 20
154.61084495177261
 30
0.0
 11
88.746070470910823
 21
154.61084495177261
 31
0.0
  0
LINE
  5
6AC
  8
LAYER1$C$L1
 62
     3
 10
83.946067419110804
 20
153.21085105527271
 30
0.0
 11
88.746070470910823
 21
153.21085105527271
 31
0.0
  0
LINE
  5
6AD
  8
LAYER1$C$L1
 62
     3
 10
83.946067419110804
 20
151.51083884827261
 30
0.0
 11
88.746070470910823
 21
151.51083884827261
 31
0.0
  0
LINE
  5
6AE
  8
LAYER1$C$L1
 62
     3
 10
85.012717809710793
 20
149.51083884827261
 30
0.0
 11
88.746070470910823
 21
149.51083884827261
 31
0.0
  0
LINE
  5
6AF
  8
LAYER1$C$L1
 62
     3
 10
81.446067419110804
 20
156.5108541070727
 30
0.0
 11
83.946067419110804
 21
156.5108541070727
 31
0.0
  0
DIMENSION
  5
6B0
  8
DIMENSIONS
  2
*D36
 10
162.74607047091081
 20
100.0108541070727
 30
0.0
 11
147.94607504851081
 21
100.0108541070727
 31
0.0
 70
     0
  1
<>30
 13
133.1460796261108
 23
92.510854107072703
 33
0.0
 14
162.74607047091081
 24
92.510838848272698
 34
0.0
1001
ACAD
1000
DSTYLE
1002
{
1070
    41
1040
1.9727878464999999
1070
    42
1040
2.5399999618999991
1070
    44
1040
3.8099999427999989
1070
    73
1070
     0
1070
   140
1040
3.1999998092999991
1070
   271
1070
     1
1070
   272
1070
     1
1002
}
  0
LINE
  5
6B1
  8
LAYER1$C$L1
 62
     3
 10
153.2460552121108
 20
57.510854107072703
 30
0.0
 11
161.7460552121108
 21
57.510854107072703
 31
0.0
  0
LINE
  5
6B2
  8
LAYER1$C$L1
 62
     3
 10
153.2460552121108
 20
93.510854107072703
 30
0.0
 11
161.7460552121108
 21
93.510854107072703
 31
0.0
  0
LINE
  5
6B3
  8
LAYER3$C$L3
  6
CENTERLINE
 62
     3
 10
130.6460643673108
 20
75.510854107072703
 30
0.0
 11
165.2460552121108
 21
75.510854107072703
 31
0.0
  0
DIMENSION
  5
6B4
  8
DIMENSIONS
  2
*D37
 10
180.808517670882
 20
94.010838848272684
 30
0.0
 11
180.808517670882
 21
75.510846477672686
 31
0.0
 70
   129
  1
<>37
 13
153.24607047091081
 23
57.010854107072703
 33
0.0
 14
153.24607047091081
 24
94.010838848272698
 34
0.0
1001
ACAD
1000
DSTYLE
1002
{
1070
    41
1040
1.9727878464999999
1070
    42
1040
2.5399999618999991
1070
    44
1040
3.8099999427999989
1070
    73
1070
     0
1070
   140
1040
3.1999998092999991
1070
   271
1070
     1
1070
   272
1070
     1
1002
}
  0
CIRCLE
  5
6B5
  8
LAYER1$C$L1
 62
     3
 10
147.94606741911079
 20
75.510854107072703
 30
0.0
 40
14.5
  0
CIRCLE
  5
6B6
  8
LAYER1$C$L1
 62
     3
 10
147.94606741911079
 20
75.510854107072703
 30
0.0
 40
14.0
  0
CIRCLE
  5
6B7
  8
LAYER1$C$L1
 62
     3
 10
147.94606741911079
 20
75.510854107072703
 30
0.0
 40
11.7999992371
  0
LINE
  5
6B8
  8
LAYER1$C$L1
 62
     3
 10
133.1460643673108
 20
58.510854107072703
 30
0.0
 11
133.1460643673108
 21
92.510854107072703
 31
0.0
  0
LINE
  5
6B9
  8
LAYER3$C$L3
  6
CENTERLINE
 62
     3
 10
147.94606741911079
 20
95.834889751572703
 30
0.0
 11
147.94606741911079
 21
54.626180034772702
 31
0.0
  0
LINE
  5
6BA
  8
LAYER1$C$L1
 62
     3
 10
90.746070470910837
 20
75.510854107072703
 30
0.0
 11
90.746070470910837
 21
62.010854107072703
 31
0.0
  0
LINE
  5
6BB
  8
LAYER1$C$L1
 62
     3
 10
91.546058263810806
 20
75.510854107072703
 30
0.0
 11
91.546058263810806
 21
61.010854107072703
 31
0.0
  0
LINE
  5
6BC
  8
LAYER1$C$L1
 62
     3
 10
96.246055212110804
 20
75.510854107072703
 30
0.0
 11
96.246055212110804
 21
61.010854107072703
 31
0.0
  0
LINE
  5
6BD
  8
LAYER1$C$L1
 62
     3
 10
103.74607047091079
 20
75.510854107072703
 30
0.0
 11
103.74607047091079
 21
61.810841900072703
 31
0.0
  0
LINE
  5
6BE
  8
LAYER1$C$L1
 62
     3
 10
103.4460674191108
 20
75.510854107072703
 30
0.0
 11
103.4460674191108
 21
61.510854107072703
 31
0.0
  0
LINE
  5
6BF
  8
LAYER1$C$L1
 62
     3
 10
96.746055212110804
 20
75.510854107072703
 30
0.0
 11
96.746055212110804
 21
61.510854107072703
 31
0.0
  0
LINE
  5
6C2
  8
LAYER1$C$L1
 62
     3
 10
103.4460674191108
 20
61.510854107072703
 30
0.0
 11
96.746055212110804
 21
61.510854107072703
 31
0.0
  0
LINE
  5
6C3
  8
LAYER1$C$L1
 62
     3
 10
96.246055212110804
 20
61.010854107072703
 30
0.0
 11
91.546058263810806
 21
61.010854107072703
 31
0.0
  0
LINE
  5
6C4
  8
LAYER1$C$L1
 62
     3
 10
96.246055212110804
 20
61.510854107072703
 30
0.0
 11
91.546058263810806
 21
61.510854107072703
 31
0.0
  0
LINE
  5
6C5
  8
LAYER1$C$L1
 62
     3
 10
96.246055212110804
 20
62.310841900072703
 30
0.0
 11
91.546058263810806
 21
62.310841900072703
 31
0.0
  0
LINE
  5
6C6
  8
LAYER1$C$L1
 62
     3
 10
96.246055212110804
 20
63.410848003572688
 30
0.0
 11
91.546058263810806
 21
63.410848003572688
 31
0.0
  0
LINE
  5
6C7
  8
LAYER1$C$L1
 62
     3
 10
96.246055212110804
 20
64.810841900072703
 30
0.0
 11
91.546058263810806
 21
64.810841900072703
 31
0.0
  0
LINE
  5
6C8
  8
LAYER1$C$L1
 62
     3
 10
91.546084583610821
 20
61.010870409172711
 30
0.0
 11
90.746084926610834
 21
62.010870075872703
 31
0.0
  0
LINE
  5
6C9
  8
LAYER1$C$L1
 62
     3
 10
96.746072247610826
 20
61.510870316472698
 30
0.0
 11
96.246071674610818
 21
61.010869785672703
 31
0.0
  0
LINE
  5
6CA
  8
LAYER1$C$L1
 62
     3
 10
103.7460584072108
 20
61.810863878872709
 30
0.0
 11
103.4460537476108
 21
61.510859244472691
 31
0.0
  0
LINE
  5
6CB
  8
LAYER1$C$L1
 62
     3
 10
134.1460643673108
 20
57.510854107072703
 30
0.0
 11
142.6460643673108
 21
57.510854107072703
 31
0.0
  0
ARC
  5
6CC
  8
LAYER1$C$L1
 62
     3
 10
134.1460643673108
 20
58.510869365872701
 30
0.0
 40
1.0
 50
179.9999640277999
 51
269.9999460417003
  0
LINE
  5
6CD
  8
LAYER1$C$L1
 62
     3
 10
153.2460552121108
 20
57.010854107072703
 30
0.0
 11
142.6460643673108
 21
57.010854107072703
 31
0.0
  0
LINE
  5
6CE
  8
LAYER1$C$L1
 62
     3
 10
147.94605216031081
 20
59.010854107072703
 30
0.0
 11
152.1460643673108
 21
59.010854107072703
 31
0.0
  0
LINE
  5
6CF
  8
LAYER1$C$L1
 62
     3
 10
143.7460552121108
 20
59.010854107072703
 30
0.0
 11
147.94605216031081
 21
59.010854107072703
 31
0.0
  0
LINE
  5
6D0
  8
LAYER1$C$L1
 62
     3
 10
142.6460643673108
 20
57.010854107072703
 30
0.0
 11
142.6460643673108
 21
57.510854107072703
 31
0.0
  0
LINE
  5
6D1
  8
LAYER1$C$L1
 62
     3
 10
143.7460552121108
 20
57.010854107072703
 30
0.0
 11
143.7460552121108
 21
59.010854107072703
 31
0.0
  0
LINE
  5
6D2
  8
LAYER1$C$L1
 62
     3
 10
146.8460613156108
 20
57.010854107072703
 30
0.0
 11
146.8460613156108
 21
59.010854107072703
 31
0.0
  0
LINE
  5
6D3
  8
LAYER1$C$L1
 62
     3
 10
149.04605826381081
 20
59.010854107072703
 30
0.0
 11
149.04605826381081
 21
57.010854107072703
 31
0.0
  0
LINE
  5
6D4
  8
LAYER1$C$L1
 62
     3
 10
153.2460552121108
 20
57.510854107072703
 30
0.0
 11
153.2460552121108
 21
57.010854107072703
 31
0.0
  0
LINE
  5
6D5
  8
LAYER1$C$L1
 62
     3
 10
152.1460643673108
 20
59.010854107072703
 30
0.0
 11
152.1460643673108
 21
57.010854107072703
 31
0.0
  0
DIMENSION
  5
6D6
  8
DIMENSIONS
  2
*D38
 10
103.74607047091079
 20
120.5108541070726
 30
0.0
 11
127.6031717829617
 21
120.5108541070726
 31
0.0
 70
   128
  1
<>13
 13
90.746070470910837
 23
129.0108541070727
 33
0.0
 14
103.74607047091079
 24
128.8108419000726
 34
0.0
1001
ACAD
1000
DSTYLE
1002
{
1070
    41
1040
1.9727878464999999
1070
    42
1040
2.5399999618999991
1070
    44
1040
3.8099999427999989
1070
    73
1070
     0
1070
   140
1040
3.1999998092999991
1070
   271
1070
     1
1070
   272
1070
     1
1002
}
  0
DIMENSION
  5
6D7
  8
DIMENSIONS
  2
*D39
 10
137.21723753533371
 20
154.3108388602727
 30
0.0
 11
137.21723753533371
 21
142.51084343787269
 31
0.0
 70
   129
  1
<>%%c23
 13
107.24604017305241
 23
130.71084801547269
 33
0.0
 14
107.24604017305241
 24
154.3108388602727
 34
0.0
1001
ACAD
1000
DSTYLE
1002
{
1070
    41
1040
1.9727878464999999
1070
    42
1040
2.5399999618999991
1070
    44
1040
3.8099999427999989
1070
    73
1070
     0
1070
   140
1040
3.1999998092999991
1070
   271
1070
     1
1070
   272
1070
     1
1002
}
  0
DIMENSION
  5
6D8
  8
DIMENSIONS
  2
*D40
 10
145.94545873674051
 20
157.0108541070727
 30
0.0
 11
145.94545873674051
 21
142.51085410707259
 31
0.0
 70
   129
  1
<>%%c29
 13
96.246055212110804
 23
128.0108541070727
 33
0.0
 14
96.246055212110804
 24
157.0108541070727
 34
0.0
1001
ACAD
1000
DSTYLE
1002
{
1070
    41
1040
1.9727878464999999
1070
    42
1040
2.5399999618999991
1070
    44
1040
3.8099999427999989
1070
    73
1070
     0
1070
   140
1040
3.1999998092999991
1070
   271
1070
     1
1070
   272
1070
     1
1002
}
  0
DIMENSION
  5
6D9
  8
DIMENSIONS
  2
*D41
 10
115.24607047091079
 20
107.7757592077167
 30
0.0
 11
102.99607047091079
 21
107.7757592077167
 31
0.0
 70
   128
  1
<>25
 13
90.746070470910837
 23
128.37003074277271
 33
0.0
 14
115.24607047091079
 24
142.5108541070727
 34
0.0
1001
ACAD
1000
DSTYLE
1002
{
1070
    41
1040
1.9727878464999999
1070
    42
1040
2.5399999618999991
1070
    44
1040
3.8099999427999989
1070
    73
1070
     0
1070
   140
1040
3.1999998092999991
1070
   271
1070
     1
1070
   272
1070
     1
1002
}
  0
LINE
  5
6DB
  8
LAYER1$C$L1
 62
     3
 10
90.746070470910837
 20
89.010854107072703
 30
0.0
 11
90.746070470910837
 21
75.510854107072703
 31
0.0
  0
LINE
  5
6DC
  8
LAYER1$C$L1
 62
     3
 10
91.546058263810806
 20
90.010854107072703
 30
0.0
 11
91.546058263810806
 21
75.510854107072703
 31
0.0
  0
LINE
  5
6DD
  8
LAYER1$C$L1
 62
     3
 10
103.74607047091079
 20
89.210851055272698
 30
0.0
 11
103.74607047091079
 21
75.510854107072703
 31
0.0
  0
LINE
  5
6DE
  8
LAYER1$C$L1
 62
     3
 10
96.246055212110804
 20
90.010854107072703
 30
0.0
 11
96.246055212110804
 21
75.510854107072703
 31
0.0
  0
LINE
  5
6DF
  8
LAYER1$C$L1
 62
     3
 10
96.746055212110804
 20
89.510854107072689
 30
0.0
 11
96.746055212110804
 21
75.510854107072703
 31
0.0
  0
LINE
  5
6E0
  8
LAYER1$C$L1
 62
     3
 10
103.4460674191108
 20
89.510854107072689
 30
0.0
 11
103.4460674191108
 21
75.510854107072703
 31
0.0
  0
LINE
  5
6E1
  8
LAYER1$C$L1
 62
     3
 10
96.246055212110804
 20
66.510854107072703
 30
0.0
 11
91.546058263810806
 21
66.510854107072703
 31
0.0
  0
LINE
  5
6E2
  8
LAYER1$C$L1
 62
     3
 10
95.201621618310824
 20
68.510854107072703
 30
0.0
 11
91.546058263810806
 21
68.510854107072703
 31
0.0
  0
LINE
  5
6E3
  8
LAYER1$C$L1
 62
     3
 10
93.962485876110833
 20
70.810841900072703
 30
0.0
 11
91.546058263810806
 21
70.810841900072703
 31
0.0
  0
LINE
  5
6E4
  8
LAYER1$C$L1
 62
     3
 10
92.642722692510816
 20
73.410848003572696
 30
0.0
 11
91.546058263810806
 21
73.410848003572696
 31
0.0
  0
LINE
  5
6E5
  8
LAYER1$C$L1
 62
     3
 10
91.546058263810806
 20
87.610844951772705
 30
0.0
 11
96.246055212110804
 21
87.610844951772705
 31
0.0
  0
LINE
  5
6E6
  8
LAYER1$C$L1
 62
     3
 10
91.546058263810806
 20
84.510838848272684
 30
0.0
 11
96.246055212110804
 21
84.510838848272684
 31
0.0
  0
LINE
  5
6E7
  8
LAYER1$C$L1
 62
     3
 10
91.546058263810806
 20
86.210851055272684
 30
0.0
 11
96.246055212110804
 21
86.210851055272684
 31
0.0
  0
LINE
  5
6E8
  8
LAYER1$C$L1
 62
     3
 10
91.546058263810806
 20
88.710851055272684
 30
0.0
 11
96.246055212110804
 21
88.710851055272684
 31
0.0
  0
LINE
  5
6E9
  8
LAYER1$C$L1
 62
     3
 10
92.590507116410819
 20
82.510838848272698
 30
0.0
 11
96.246055212110804
 21
82.510838848272698
 31
0.0
  0
LINE
  5
6EA
  8
LAYER1$C$L1
 62
     3
 10
93.791617956210814
 20
80.210851055272684
 30
0.0
 11
96.246055212110804
 21
80.210851055272684
 31
0.0
  0
LINE
  5
6EB
  8
LAYER1$C$L1
 62
     3
 10
95.149390783410823
 20
77.610844951772705
 30
0.0
 11
96.246055212110804
 21
77.610844951772705
 31
0.0
  0
LINE
  5
6EC
  8
LAYER1$C$L1
 62
     3
 10
96.746055212110804
 20
89.510854107072689
 30
0.0
 11
103.4460674191108
 21
89.510854107072689
 31
0.0
  0
LINE
  5
6ED
  8
LAYER1$C$L1
 62
     3
 10
91.546058263810806
 20
90.010854107072703
 30
0.0
 11
96.246055212110804
 21
90.010854107072703
 31
0.0
  0
LINE
  5
6EE
  8
LAYER1$C$L1
 62
     3
 10
91.546058263810806
 20
89.510854107072689
 30
0.0
 11
96.246055212110804
 21
89.510854107072689
 31
0.0
  0
LINE
  5
6EF
  8
LAYER1$C$L1
 62
     3
 10
90.746080483610825
 20
89.010815772372695
 30
0.0
 11
91.546080216910823
 21
90.010815362672687
 31
0.0
  0
LINE
  5
6F0
  8
LAYER1$C$L1
 62
     3
 10
96.246069525110826
 20
90.010833684772706
 30
0.0
 11
96.746070055910835
 21
89.510833111772712
 31
0.0
  0
LINE
  5
6F1
  8
LAYER1$C$L1
 62
     3
 10
103.4460623455108
 20
89.510854408572683
 30
0.0
 11
103.74606697981081
 21
89.210849748972706
 31
0.0
  0
LINE
  5
6F7
  8
LAYER1$C$L1
 62
     3
 10
90.246055212110804
 20
140.91084800357271
 30
0.0
 11
90.246055212110804
 21
131.5108541070727
 31
0.0
  0
LINE
  5
6F8
  8
LAYER1$C$L1
 62
     3
 10
90.746070470910837
 20
142.5108541070727
 30
0.0
 11
90.746070470910837
 21
129.0108541070727
 31
0.0
  0
LINE
  5
6F9
  8
LAYER1$C$L1
 62
     3
 10
91.546058263810806
 20
142.5108541070727
 30
0.0
 11
91.546058263810806
 21
128.0108541070727
 31
0.0
  0
LINE
  5
6FA
  8
LAYER1$C$L1
 62
     3
 10
103.74607047091079
 20
142.5108541070727
 30
0.0
 11
103.74607047091079
 21
128.8108419000726
 31
0.0
  0
LINE
  5
6FB
  8
LAYER1$C$L1
 62
     3
 10
103.4460674191108
 20
142.5108541070727
 30
0.0
 11
103.4460674191108
 21
128.5108541070727
 31
0.0
  0
LINE
  5
6FC
  8
LAYER1$C$L1
 62
     3
 10
96.746055212110804
 20
142.5108541070727
 30
0.0
 11
96.746055212110804
 21
128.5108541070727
 31
0.0
  0
LINE
  5
6FD
  8
LAYER1$C$L1
 62
     3
 10
96.246055212110804
 20
142.5108541070727
 30
0.0
 11
96.246055212110804
 21
128.0108541070727
 31
0.0
  0
LINE
  5
6FE
  8
LAYER1$C$L1
 62
     3
 10
103.4460674191108
 20
128.5108541070727
 30
0.0
 11
96.746055212110804
 21
128.5108541070727
 31
0.0
  0
LINE
  5
6FF
  8
LAYER1$C$L1
 62
     3
 10
96.246055212110804
 20
128.5108541070727
 30
0.0
 11
91.546058263810806
 21
128.5108541070727
 31
0.0
  0
LINE
  5
700
  8
LAYER1$C$L1
 62
     3
 10
96.246055212110804
 20
129.3108419000726
 30
0.0
 11
91.546058263810806
 21
129.3108419000726
 31
0.0
  0
LINE
  5
701
  8
LAYER1$C$L1
 62
     3
 10
96.246055212110804
 20
130.41084800357271
 30
0.0
 11
91.546058263810806
 21
130.41084800357271
 31
0.0
  0
LINE
  5
702
  8
LAYER1$C$L1
 62
     3
 10
96.246055212110804
 20
131.8108419000726
 30
0.0
 11
91.546058263810806
 21
131.8108419000726
 31
0.0
  0
LINE
  5
703
  8
LAYER1$C$L1
 62
     3
 10
96.246055212110804
 20
133.5108541070727
 30
0.0
 11
91.546058263810806
 21
133.5108541070727
 31
0.0
  0
LINE
  5
704
  8
LAYER1$C$L1
 62
     3
 10
95.201621618310824
 20
135.5108541070727
 30
0.0
 11
91.546058263810806
 21
135.5108541070727
 31
0.0
  0
LINE
  5
705
  8
LAYER1$C$L1
 62
     3
 10
96.246055212110804
 20
128.0108541070727
 30
0.0
 11
91.546058263810806
 21
128.0108541070727
 31
0.0
  0
LINE
  5
706
  8
LAYER1$C$L1
 62
     3
 10
91.546068115610794
 20
128.01085637697261
 30
0.0
 11
90.746068382310824
 21
129.0108560435726
 31
0.0
  0
LINE
  5
707
  8
LAYER1$C$L1
 62
     3
 10
96.746068926410814
 20
128.51086502227261
 30
0.0
 11
96.246068395610806
 21
128.0108644915727
 31
0.0
  0
LINE
  5
708
  8
LAYER1$C$L1
 62
     3
 10
103.74604938351079
 20
128.8108534722727
 30
0.0
 11
103.4460447492108
 21
128.5108488379727
 31
0.0
  0
LINE
  5
709
  8
LAYER1$C$L1
 62
     3
 10
96.746055212110804
 20
156.5108541070727
 30
0.0
 11
103.4460674191108
 21
156.5108541070727
 31
0.0
  0
LINE
  5
70A
  8
LAYER1$C$L1
 62
     3
 10
90.246055212110804
 20
153.5108541070727
 30
0.0
 11
90.246055212110804
 21
144.11084495177261
 31
0.0
  0
LINE
  5
70B
  8
LAYER1$C$L1
 62
     3
 10
90.746070470910837
 20
156.0108541070727
 30
0.0
 11
90.746070470910837
 21
142.5108541070727
 31
0.0
  0
LINE
  5
70C
  8
LAYER1$C$L1
 62
     3
 10
91.546058263810806
 20
157.0108541070727
 30
0.0
 11
91.546058263810806
 21
142.5108541070727
 31
0.0
  0
LINE
  5
70D
  8
LAYER1$C$L1
 62
     3
 10
96.246055212110804
 20
157.0108541070727
 30
0.0
 11
96.246055212110804
 21
142.5108541070727
 31
0.0
  0
LINE
  5
70E
  8
LAYER1$C$L1
 62
     3
 10
96.746055212110804
 20
156.5108541070727
 30
0.0
 11
96.746055212110804
 21
142.5108541070727
 31
0.0
  0
LINE
  5
70F
  8
LAYER1$C$L1
 62
     3
 10
93.791617956210814
 20
147.21085105527271
 30
0.0
 11
96.246055212110804
 21
147.21085105527271
 31
0.0
  0
LINE
  5
710
  8
LAYER1$C$L1
 62
     3
 10
93.962485876110833
 20
137.8108419000726
 30
0.0
 11
91.546058263810806
 21
137.8108419000726
 31
0.0
  0
LINE
  5
711
  8
LAYER1$C$L1
 62
     3
 10
92.642722692510816
 20
140.41084800357271
 30
0.0
 11
91.546058263810806
 21
140.41084800357271
 31
0.0
  0
LINE
  5
712
  8
LAYER1$C$L1
 62
     3
 10
95.149390783410823
 20
144.61084495177261
 30
0.0
 11
96.246055212110804
 21
144.61084495177261
 31
0.0
  0
LINE
  5
713
  8
LAYER1$C$L1
 62
     3
 10
91.546058263810806
 20
157.0108541070727
 30
0.0
 11
96.246055212110804
 21
157.0108541070727
 31
0.0
  0
LINE
  5
714
  8
LAYER1$C$L1
 62
     3
 10
91.546058263810806
 20
156.5108541070727
 30
0.0
 11
96.246055212110804
 21
156.5108541070727
 31
0.0
  0
LINE
  5
715
  8
LAYER1$C$L1
 62
     3
 10
91.546058263810806
 20
155.71085105527271
 30
0.0
 11
96.246055212110804
 21
155.71085105527271
 31
0.0
  0
LINE
  5
716
  8
LAYER1$C$L1
 62
     3
 10
91.546058263810806
 20
154.61084495177261
 30
0.0
 11
96.246055212110804
 21
154.61084495177261
 31
0.0
  0
LINE
  5
717
  8
LAYER1$C$L1
 62
     3
 10
91.546058263810806
 20
153.21085105527271
 30
0.0
 11
96.246055212110804
 21
153.21085105527271
 31
0.0
  0
LINE
  5
718
  8
LAYER1$C$L1
 62
     3
 10
91.546058263810806
 20
151.51083884827261
 30
0.0
 11
96.246055212110804
 21
151.51083884827261
 31
0.0
  0
LINE
  5
719
  8
LAYER1$C$L1
 62
     3
 10
92.590507116410819
 20
149.51083884827261
 30
0.0
 11
96.246055212110804
 21
149.51083884827261
 31
0.0
  0
LINE
  5
71A
  8
LAYER1$C$L1
 62
     3
 10
90.746085808210836
 20
156.0108095100727
 30
0.0
 11
91.546085541510806
 21
157.01080917667261
 31
0.0
  0
LINE
  5
71B
  8
LAYER1$C$L1
 62
     3
 10
96.246063000810835
 20
157.01082514527261
 30
0.0
 11
96.746063531610815
 21
156.51082461447271
 31
0.0
  0
LINE
  5
71C
  8
LAYER1$C$L1
 62
     3
 10
103.74607047091079
 20
156.21085105527271
 30
0.0
 11
103.74607047091079
 21
142.5108541070727
 31
0.0
  0
LINE
  5
71D
  8
LAYER1$C$L1
 62
     3
 10
103.4460674191108
 20
156.5108541070727
 30
0.0
 11
103.4460674191108
 21
142.5108541070727
 31
0.0
  0
LINE
  5
71E
  8
LAYER1$C$L1
 62
     3
 10
103.4460447492108
 20
156.51083540407271
 30
0.0
 11
103.74604938351079
 21
156.21083076977271
 31
0.0
  0
LINE
  5
723
  8
LAYER1$C$L1
 62
     3
 10
134.1460643673108
 20
93.510854107072703
 30
0.0
 11
142.6460643673108
 21
93.510854107072703
 31
0.0
  0
ARC
  5
724
  8
LAYER1$C$L1
 62
     3
 10
134.1460643673108
 20
92.510854107072703
 30
0.0
 40
1.0
 50
89.999982013899555
 51
179.9999640277999
  0
LINE
  5
725
  8
LAYER1$C$L1
 62
     3
 10
142.6460643673108
 20
94.010854107072703
 30
0.0
 11
153.2460552121108
 21
94.010854107072703
 31
0.0
  0
LINE
  5
726
  8
LAYER1$C$L1
 62
     3
 10
147.94605216031081
 20
92.010854107072689
 30
0.0
 11
152.1460643673108
 21
92.010854107072689
 31
0.0
  0
LINE
  5
727
  8
LAYER1$C$L1
 62
     3
 10
143.7460552121108
 20
92.010854107072689
 30
0.0
 11
147.94605216031081
 21
92.010854107072689
 31
0.0
  0
LINE
  5
728
  8
LAYER1$C$L1
 62
     3
 10
142.6460643673108
 20
94.010854107072703
 30
0.0
 11
142.6460643673108
 21
93.510854107072703
 31
0.0
  0
LINE
  5
729
  8
LAYER1$C$L1
 62
     3
 10
143.7460552121108
 20
92.010854107072689
 30
0.0
 11
143.7460552121108
 21
94.010854107072703
 31
0.0
  0
LINE
  5
72A
  8
LAYER1$C$L1
 62
     3
 10
146.8460613156108
 20
92.010854107072689
 30
0.0
 11
146.8460613156108
 21
94.010854107072703
 31
0.0
  0
LINE
  5
72B
  8
LAYER1$C$L1
 62
     3
 10
149.04605826381081
 20
94.010854107072703
 30
0.0
 11
149.04605826381081
 21
92.010854107072689
 31
0.0
  0
LINE
  5
72C
  8
LAYER1$C$L1
 62
     3
 10
153.2460552121108
 20
93.510854107072703
 30
0.0
 11
153.2460552121108
 21
94.010854107072703
 31
0.0
  0
LINE
  5
72D
  8
LAYER1$C$L1
 62
     3
 10
152.1460643673108
 20
94.010854107072703
 30
0.0
 11
152.1460643673108
 21
92.010854107072689
 31
0.0
  0
LINE
  5
72E
  8
LAYER1$C$L1
 62
     3
 10
162.7460552121108
 20
92.510854107072703
 30
0.0
 11
162.7460552121108
 21
58.510854107072703
 31
0.0
  0
ARC
  5
72F
  8
LAYER1$C$L1
 62
     3
 10
161.7460552121108
 20
58.510854107072703
 30
0.0
 40
1.0
 50
270.00012726909938
 51
0.0000726275999549
  0
ARC
  5
730
  8
LAYER1$C$L1
 62
     3
 10
161.7460552121108
 20
92.510838848272698
 30
0.0
 40
1.0
 50
0.000072627560058
 51
89.999982013899555
  0
LINE
  5
7D2
  8
LAYER1$C$L1
 62
     3
 10
107.2460399533108
 20
130.71085105527271
 30
0.0
 11
103.74607047091079
 21
130.71085105527271
 31
0.0
  0
ARC
  5
7D3
  8
LAYER1$C$L1
 62
     3
 10
107.2460399533108
 20
131.41084800357271
 30
0.0
 40
0.6999999881
 50
270.00001798609998
 51
0.0
  0
LINE
  5
7D4
  8
LAYER1$C$L1
 62
     3
 10
107.9460521603108
 20
153.61084495177261
 30
0.0
 11
107.9460521603108
 21
131.41084800357271
 31
0.0
  0
LINE
  5
7D5
  8
LAYER1$C$L1
 62
     3
 10
107.2460399533108
 20
154.3108419000726
 30
0.0
 11
103.74607047091079
 21
154.3108419000726
 31
0.0
  0
ARC
  5
7D7
  8
LAYER1$C$L1
 62
     3
 10
107.2460399533108
 20
153.61084495177261
 30
0.0
 40
0.6999999881
 50
0.0
 51
89.999982013899995
  0
LINE
  5
804
  8
LAYER1$C$L1
 62
     3
 10
107.2460399533108
 20
63.710851055272698
 30
0.0
 11
103.74607047091079
 21
63.710851055272698
 31
0.0
  0
ARC
  5
805
  8
LAYER1$C$L1
 62
     3
 10
107.2460399533108
 20
64.410848003572696
 30
0.0
 40
0.6999999881
 50
270.00001798609998
 51
0.0
  0
LINE
  5
806
  8
LAYER1$C$L1
 62
     3
 10
107.9460521603108
 20
86.610844951772705
 30
0.0
 11
107.9460521603108
 21
64.410848003572696
 31
0.0
  0
LINE
  5
807
  8
LAYER1$C$L1
 62
     3
 10
107.2460399533108
 20
87.310841900072717
 30
0.0
 11
103.74607047091079
 21
87.310841900072717
 31
0.0
  0
ARC
  5
808
  8
LAYER1$C$L1
 62
     3
 10
107.2460399533108
 20
86.610844951772705
 30
0.0
 40
0.6999999881
 50
0.0
 51
89.999982013899995
  0
INSERT
  5
809
  8
0
  2
*U48
 10
0.0
 20
0.0
 30
0.0
  0
ENDSEC
  0
EOF
