  0
SECTION
  2
HEADER
  9
$ACADVER
  1
AC1009
  9
$INSBASE
 10
0.0
 20
0.0
 30
0.0
  9
$EXTMIN
 10
-178.2317657470999
 20
15.999999999999989
 30
0.0
  9
$EXTMAX
 10
-11.3275498054288
 20
181.22088504562481
 30
0.0
  9
$LIMMIN
 10
-215.17524414059989
 20
-3.1749999999999989
  9
$LIMMAX
 10
3.1749999999999989
 20
300.17500000000001
  9
$ORTHOMODE
 70
     1
  9
$REGENMODE
 70
     1
  9
$FILLMODE
 70
     1
  9
$QTEXTMODE
 70
     0
  9
$MIRRTEXT
 70
     0
  9
$DRAGMODE
 70
     2
  9
$LTSCALE
 40
1.0
  9
$OSMODE
 70
    39
  9
$ATTMODE
 70
     1
  9
$TEXTSIZE
 40
3.1999998092999991
  9
$TRACEWID
 40
0.05
  9
$TEXTSTYLE
  7
STANDARD
  9
$CLAYER
  8
0
  9
$CELTYPE
  6
BYLAYER
  9
$CECOLOR
 62
   256
  9
$DIMSCALE
 40
1.0
  9
$DIMASZ
 40
1.9727878464999999
  9
$DIMEXO
 40
2.5399999618999991
  9
$DIMDLI
 40
0.38
  9
$DIMRND
 40
0.0
  9
$DIMDLE
 40
0.0
  9
$DIMEXE
 40
3.8099999427999989
  9
$DIMTP
 40
0.0
  9
$DIMTM
 40
0.0
  9
$DIMTXT
 40
3.1999998092999991
  9
$DIMCEN
 40
0.09
  9
$DIMTSZ
 40
0.0
  9
$DIMTOL
 70
     0
  9
$DIMLIM
 70
     0
  9
$DIMTIH
 70
     0
  9
$DIMTOH
 70
     1
  9
$DIMSE1
 70
     0
  9
$DIMSE2
 70
     0
  9
$DIMTAD
 70
     0
  9
$DIMZIN
 70
     0
  9
$DIMBLK
  1

  9
$DIMASO
 70
     1
  9
$DIMSHO
 70
     0
  9
$DIMPOST
  1

  9
$DIMAPOST
  1

  9
$DIMALT
 70
     0
  9
$DIMALTD
 70
     2
  9
$DIMALTF
 40
25.399999999999999
  9
$DIMLFAC
 40
1.0
  9
$DIMTOFL
 70
     0
  9
$DIMTVP
 40
0.0
  9
$DIMTIX
 70
     0
  9
$DIMSOXD
 70
     0
  9
$DIMSAH
 70
     0
  9
$DIMBLK1
  1

  9
$DIMBLK2
  1

  9
$DIMSTYLE
  2
STANDARD
  9
$DIMCLRD
 70
     0
  9
$DIMCLRE
 70
     0
  9
$DIMCLRT
 70
     0
  9
$DIMTFAC
 40
1.0
  9
$DIMGAP
 40
0.09
  9
$LUNITS
 70
     2
  9
$LUPREC
 70
     3
  9
$SKETCHINC
 40
0.1
  9
$FILLETRAD
 40
0.0625
  9
$AUNITS
 70
     0
  9
$AUPREC
 70
     0
  9
$MENU
  1
ACAD
  9
$ELEVATION
 40
0.0
  9
$PELEVATION
 40
0.0
  9
$THICKNESS
 40
0.0
  9
$LIMCHECK
 70
     0
  9
$BLIPMODE
 70
     0
  9
$CHAMFERA
 40
0.0
  9
$CHAMFERB
 40
0.0
  9
$SKPOLY
 70
     0
  9
$TDCREATE
 40
2452011.4011689811
  9
$TDUPDATE
 40
2452374.796897199
  9
$TDINDWG
 40
0.0635453009
  9
$TDUSRTIMER
 40
0.0635449537
  9
$USRTIMER
 70
     1
  9
$ANGBASE
 50
0.0
  9
$ANGDIR
 70
     0
  9
$PDMODE
 70
     0
  9
$PDSIZE
 40
0.0
  9
$PLINEWID
 40
0.0
  9
$COORDS
 70
     1
  9
$SPLFRAME
 70
     0
  9
$SPLINETYPE
 70
     6
  9
$SPLINESEGS
 70
     8
  9
$ATTDIA
 70
     0
  9
$ATTREQ
 70
     1
  9
$HANDLING
 70
  4097
  9
$HANDSEED
  5
4E7
  9
$SURFTAB1
 70
     6
  9
$SURFTAB2
 70
     6
  9
$SURFTYPE
 70
     6
  9
$SURFU
 70
     6
  9
$SURFV
 70
     6
  9
$UCSNAME
  2

  9
$UCSORG
 10
0.0
 20
0.0
 30
0.0
  9
$UCSXDIR
 10
1.0
 20
0.0
 30
0.0
  9
$UCSYDIR
 10
0.0
 20
1.0
 30
0.0
  9
$PUCSNAME
  2

  9
$PUCSORG
 10
0.0
 20
0.0
 30
0.0
  9
$PUCSXDIR
 10
1.0
 20
0.0
 30
0.0
  9
$PUCSYDIR
 10
0.0
 20
1.0
 30
0.0
  9
$USERI1
 70
     0
  9
$USERI2
 70
     0
  9
$USERI3
 70
     0
  9
$USERI4
 70
     0
  9
$USERI5
 70
     0
  9
$USERR1
 40
0.0
  9
$USERR2
 40
0.0
  9
$USERR3
 40
0.0
  9
$USERR4
 40
0.0
  9
$USERR5
 40
0.0
  9
$WORLDVIEW
 70
     1
  9
$SHADEDGE
 70
     3
  9
$SHADEDIF
 70
    70
  9
$TILEMODE
 70
     1
  9
$MAXACTVP
 70
    64
  9
$PLIMCHECK
 70
     0
  9
$PEXTMIN
 10
1.0000000000000000E+020
 20
1.0000000000000000E+020
 30
1.0000000000000000E+020
  9
$PEXTMAX
 10
-1.0000000000000000E+020
 20
-1.0000000000000000E+020
 30
-1.0000000000000000E+020
  9
$PLIMMIN
 10
0.0
 20
0.0
  9
$PLIMMAX
 10
12.0
 20
9.0
  9
$UNITMODE
 70
     0
  9
$VISRETAIN
 70
     1
  9
$PLINEGEN
 70
     0
  9
$PSLTSCALE
 70
     1
  0
ENDSEC
  0
SECTION
  2
TABLES
  0
TABLE
  2
VPORT
 70
     2
  0
VPORT
  2
*ACTIVE
 70
     0
 10
0.0
 20
0.0
 11
1.0
 21
1.0
 12
-103.1839365416661
 22
108.2247133051042
 13
0.0
 23
0.0
 14
1.0
 24
1.0
 15
0.0
 25
0.0
 16
0.0
 26
0.0
 36
1.0
 17
0.0
 27
0.0
 37
0.0
 40
205.65103856570559
 41
1.565365025466892
 42
50.0
 43
0.0
 44
0.0
 50
0.0
 51
0.0
 71
     0
 72
   100
 73
     1
 74
     1
 75
     0
 76
     0
 77
     0
 78
     0
  0
ENDTAB
  0
TABLE
  2
LTYPE
 70
     7
  0
LTYPE
  2
CONTINUOUS
 70
     0
  3
Solid line
 72
    65
 73
     0
 40
0.0
  0
LTYPE
  2
SOLID
 70
     0
  3
Solid
 72
    65
 73
     0
 40
0.0
  0
LTYPE
  2
DASHED
 70
     0
  3
Dashed
 72
    65
 73
     2
 40
4.7625000000000002
 49
3.1749999999999989
 49
-1.587499999999999
  0
LTYPE
  2
CENTERLINE
 70
     0
  3
Centerline
 72
    65
 73
     4
 40
25.399999999999999
 49
19.050000000000001
 49
-1.587499999999999
 49
3.1749999999999989
 49
-1.587499999999999
  0
LTYPE
  2
PHANTOM
 70
     0
  3
Phantom
 72
    65
 73
     6
 40
30.162500000000001
 49
19.050000000000001
 49
-1.587499999999999
 49
3.1749999999999989
 49
-1.587499999999999
 49
3.1749999999999989
 49
-1.587499999999999
  0
LTYPE
  2
CONSTRUCTION
 70
     0
  3
Construction
 72
    65
 73
     2
 40
1.016
 49
0.254
 49
-0.762
  0
LTYPE
  2
GAP
 70
     0
  3
Gap
 72
    65
 73
     3
 40
2540.9999980092002
 49
0.0
 49
-0.9999980092000002
 49
2540.0
  0
ENDTAB
  0
TABLE
  2
LAYER
 70
    10
  0
LAYER
  2
0
 70
     0
 62
     7
  6
CONTINUOUS
  0
LAYER
  2
LAYER1$C$L1
 70
     0
 62
     3
  6
SOLID
  0
LAYER
  2
LAYER2$C$L2
 70
     0
 62
     3
  6
SOLID
  0
LAYER
  2
LAYER3$C$L3
 70
     0
 62
     3
  6
SOLID
  0
LAYER
  2
LAYER4$C$L4
 70
     0
 62
     3
  6
SOLID
  0
LAYER
  2
LAYER6$C$L6
 70
     0
 62
     6
  6
SOLID
  0
LAYER
  2
LAYER8$C$L8
 70
     0
 62
    32
  6
SOLID
  0
LAYER
  2
LAYER9$C$L9
 70
     0
 62
     1
  6
SOLID
  0
LAYER
  2
DEFPOINTS
 70
     0
 62
     7
  6
CONTINUOUS
  0
LAYER
  2
DIMENSIONS
 70
     0
 62
     5
  6
CONTINUOUS
  0
ENDTAB
  0
TABLE
  2
STYLE
 70
     1
  0
STYLE
  2
STANDARD
 70
     0
 40
0.0
 41
1.0
 50
0.0
 71
     0
 42
3.1999998092999991
  3
txt
  4

  0
ENDTAB
  0
TABLE
  2
VIEW
 70
     0
  0
ENDTAB
  0
TABLE
  2
UCS
 70
     0
  0
ENDTAB
  0
TABLE
  2
APPID
 70
     1
  0
APPID
  2
ACAD
 70
     0
  0
ENDTAB
  0
TABLE
  2
DIMSTYLE
 70
     1
  0
DIMSTYLE
  2
STANDARD
 70
     0
  3

  4

  5

  6

  7

 40
1.0
 41
0.18
 42
0.0625
 43
0.38
 44
0.18
 45
0.0
 46
0.0
 47
0.0
 48
0.0
140
0.18
141
0.09
142
0.0
143
25.399999999999999
144
1.0
145
0.0
146
1.0
147
0.09
 71
     0
 72
     0
 73
     1
 74
     1
 75
     0
 76
     0
 77
     0
 78
     0
170
     0
171
     2
172
     0
173
     0
174
     0
175
     0
176
     0
177
     0
178
     0
  0
ENDTAB
  0
ENDSEC
  0
SECTION
  2
BLOCKS
  0
BLOCK
  8
0
  2
$MODEL_SPACE
 70
     0
 10
0.0
 20
0.0
 30
0.0
  3
$MODEL_SPACE
  1

  0
ENDBLK
  5
20
  8
0
  0
BLOCK
 67
     1
  8
0
  2
$PAPER_SPACE
 70
     0
 10
0.0
 20
0.0
 30
0.0
  3
$PAPER_SPACE
  1

  0
ENDBLK
  5
1C
 67
     1
  8
0
  0
BLOCK
  8
LAYER8$C$L8
  2
CADRA_ATTR_0
 70
     2
 10
0.0
 20
0.0
 30
0.0
  3
CADRA_ATTR_0
  1

  0
TEXT
  5
AF
  8
LAYER8$C$L8
 62
     3
 10
-168.86666630240001
 20
4.5
 30
0.0
 40
2.0
  1
TW-M
 41
0.9666671123499988
 72
     5
 11
-161.13332940359999
 21
4.5
 31
0.0
  0
ATTDEF
  5
B0
  8
LAYER8$C$L8
 62
     3
 10
-165.0
 20
5.5
 30
0.0
 40
0.156
  1
ç%f!<%6!<  é
  3

  2
50
 70
    11
  0
ENDBLK
  5
B1
  8
LAYER8$C$L8
  0
BLOCK
  8
LAYER8$C$L8
  2
CADRA_ATTR_1
 70
     2
 10
0.0
 20
0.0
 30
0.0
  3
CADRA_ATTR_1
  1

  0
TEXT
  5
B4
  8
LAYER8$C$L8
 62
     3
 10
-176.86666630239989
 20
4.5
 30
0.0
 40
2.0
  1
A
 41
1.3000026740999919
 72
     5
 11
-175.13332940359999
 21
4.5
 31
0.0
  0
ATTDEF
  5
B5
  8
LAYER8$C$L8
 62
     3
 10
-176.0
 20
5.5
 30
0.0
 40
0.156
  1
ç%0%k!<%W  é
  3

  2
40
 70
    11
  0
ENDBLK
  5
B6
  8
LAYER8$C$L8
  0
BLOCK
  8
LAYER8$C$L8
  2
CADRA_ATTR_2
 70
     2
 10
0.0
 20
0.0
 30
0.0
  3
CADRA_ATTR_2
  1

  0
TEXT
  5
B9
  8
LAYER8$C$L8
 62
     3
 10
-66.302666215299993
 20
3.4200000763
 30
0.0
 40
4.1599998473999991
  1
WP-1001
 41
1.144444771412404
 72
     5
 11
-37.737325768699989
 21
3.4200000763
 31
0.0
  0
ATTDEF
  5
BA
  8
LAYER8$C$L8
 62
     3
 10
-52.019996999999996
 20
5.5
 30
0.0
 40
0.156
  1
ç5l?^HVé
  3

  2
110
 70
    11
  0
ENDBLK
  5
BB
  8
LAYER8$C$L8
  0
BLOCK
  8
LAYER8$C$L8
  2
CADRA_ATTR_3
 70
     2
 10
0.0
 20
0.0
 30
0.0
  3
CADRA_ATTR_3
  1

  0
TEXT
  5
BE
  8
LAYER8$C$L8
 62
     3
 10
-99.676656388700025
 20
275.91641426090001
 30
0.0
 40
4.1671714783000002
  1
APW2
 41
0.9622873867998087
 72
     5
 11
-83.636590179899997
 21
275.91641426090001
 31
0.0
  0
ATTDEF
  5
BF
  8
LAYER8$C$L8
 62
     3
 10
-91.656623999999994
 20
278.0
 30
0.0
 40
0.156
  1
çL>>N!&7A<0é
  3

  2
10
 70
    11
  0
ENDBLK
  5
C0
  8
LAYER8$C$L8
  0
BLOCK
  8
LAYER8$C$L8
  2
CADRA_ATTR_4
 70
     2
 10
0.0
 20
0.0
 30
0.0
  3
CADRA_ATTR_4
  1

  0
TEXT
  5
C3
  8
LAYER8$C$L8
 62
     3
 10
-103.4768965935
 20
283.91641426090001
 30
0.0
 40
4.1671714783000002
  1
TWÉVÉä-ÉY ÉpÉCÉçÉbÉgÉâÉCÉg
 41
0.5389002577560801
 72
     5
 11
-49.206060152399999
 21
283.91641426090001
 31
0.0
  0
ATTDEF
  5
C4
  8
LAYER8$C$L8
 62
     3
 10
-76.341477999999995
 20
286.0
 30
0.0
 40
0.156
  1
ç@=IJL>é
  3

  2
0
 70
    11
  0
ENDBLK
  5
C5
  8
LAYER8$C$L8
  0
BLOCK
  8
LAYER8$C$L8
  2
CADRA_ATTR_5
 70
     2
 10
0.0
 20
0.0
 30
0.0
  3
CADRA_ATTR_5
  1

  0
TEXT
  5
C8
  8
LAYER8$C$L8
 62
     3
 10
-66.511743726999995
 20
16.0
 30
0.0
 40
5.0
  1
MA4-A00014D
 41
1.09914696331322
 72
     5
 11
-12.470351364100001
 21
16.0
 31
0.0
  0
ATTDEF
  5
C9
  8
LAYER8$C$L8
 62
     3
 10
-39.491045999999997
 20
18.5
 30
0.0
 40
0.156
  1
ç?^HV  é
  3

  2
20
 70
    11
  0
ENDBLK
  5
CA
  8
LAYER8$C$L8
  0
BLOCK
  8
0
  2
*D18
 70
     1
 10
0.0
 20
0.0
 30
0.0
  3
*D18
  1

  0
LINE
  5
49A
  8
DIMENSIONS
 62
     0
 10
-97.16001224510002
 20
116.5
 30
0.0
 11
-46.190608739570258
 21
116.4999999999999
 31
0.0
  0
LINE
  5
49B
  8
DIMENSIONS
 62
     0
 10
-97.16001224510002
 20
145.5
 30
0.0
 11
-46.190608739570258
 21
145.49999999999989
 31
0.0
  0
LINE
  5
49C
  8
DIMENSIONS
 62
     0
 10
-50.000608682370263
 20
118.4727878464999
 30
0.0
 11
-50.000608682370263
 21
121.5766672228749
 31
0.0
  0
LINE
  5
49D
  8
DIMENSIONS
 62
     0
 10
-50.000608682370263
 20
143.5272121534999
 30
0.0
 11
-50.000608682370263
 21
140.4233327771249
 31
0.0
  0
SOLID
  5
49E
  8
DIMENSIONS
 62
     0
 10
-50.329406656786929
 20
118.4727878464999
 30
0.0
 11
-49.67181070795359
 21
118.4727878464999
 31
0.0
 12
-50.000608682370263
 22
116.4999999999999
 32
0.0
 13
-50.000608682370263
 23
116.4999999999999
 33
0.0
  0
SOLID
  5
49F
  8
DIMENSIONS
 62
     0
 10
-50.329406656786929
 20
143.5272121534999
 30
0.0
 11
-49.67181070795359
 21
143.5272121534999
 31
0.0
 12
-50.000608682370249
 22
145.49999999999989
 32
0.0
 13
-50.000608682370249
 23
145.49999999999989
 33
0.0
  0
INSERT
  5
4A0
  8
0
  2
*U28
 10
0.0
 20
0.0
 30
0.0
  0
POINT
  5
4A1
  8
DEFPOINTS
 62
     0
 10
-99.700012207000015
 20
116.5
 30
0.0
  0
POINT
  5
4A2
  8
DEFPOINTS
 62
     0
 10
-99.700012207000015
 20
145.5
 30
0.0
  0
POINT
  5
4A3
  8
DEFPOINTS
 62
     0
 10
-50.000608682370249
 20
145.49999999999989
 30
0.0
  0
ENDBLK
  5
152
  8
0
  0
BLOCK
  8
0
  2
*D19
 70
     1
 10
0.0
 20
0.0
 30
0.0
  3
*D19
  1

  0
LINE
  5
4A4
  8
DIMENSIONS
 62
     0
 10
-89.659996986300001
 20
119.1999969482
 30
0.0
 11
-58.418799643118732
 21
119.1999969482
 31
0.0
  0
LINE
  5
4A5
  8
DIMENSIONS
 62
     0
 10
-89.659996986300001
 20
142.7999877929999
 30
0.0
 11
-58.418799643118732
 21
142.7999877929999
 31
0.0
  0
LINE
  5
4A6
  8
DIMENSIONS
 62
     0
 10
-62.228799585918729
 20
121.17278479469989
 30
0.0
 11
-62.228799585918729
 21
121.30999294269991
 31
0.0
  0
LINE
  5
4A7
  8
DIMENSIONS
 62
     0
 10
-62.228799585918729
 20
140.82719994649989
 30
0.0
 11
-62.228799585918729
 21
140.6899917984999
 31
0.0
  0
SOLID
  5
4A8
  8
DIMENSIONS
 62
     0
 10
-62.557597560335402
 20
121.17278479469989
 30
0.0
 11
-61.900001611502063
 21
121.17278479469989
 31
0.0
 12
-62.228799585918729
 22
119.1999969482
 32
0.0
 13
-62.228799585918729
 23
119.1999969482
 33
0.0
  0
SOLID
  5
4A9
  8
DIMENSIONS
 62
     0
 10
-62.557597560335402
 20
140.82719994649989
 30
0.0
 11
-61.900001611502063
 21
140.82719994649989
 31
0.0
 12
-62.228799585918729
 22
142.7999877929999
 32
0.0
 13
-62.228799585918729
 23
142.7999877929999
 33
0.0
  0
INSERT
  5
4AA
  8
0
  2
*U29
 10
0.0
 20
0.0
 30
0.0
  0
POINT
  5
4AB
  8
DEFPOINTS
 62
     0
 10
-92.199996948199995
 20
119.1999969482
 30
0.0
  0
POINT
  5
4AC
  8
DEFPOINTS
 62
     0
 10
-92.199996948199995
 20
142.7999877929999
 30
0.0
  0
POINT
  5
4AD
  8
DEFPOINTS
 62
     0
 10
-62.228799585918729
 20
142.7999877929999
 30
0.0
  0
ENDBLK
  5
170
  8
0
  0
BLOCK
  8
0
  2
*D20
 70
     1
 10
0.0
 20
0.0
 30
0.0
  3
*D20
  1

  0
LINE
  5
486
  8
DIMENSIONS
 62
     0
 10
-105.1999969481999
 20
114.3191766738
 30
0.0
 11
-105.1999969481999
 21
92.454905157843996
 31
0.0
  0
LINE
  5
487
  8
DIMENSIONS
 62
     0
 10
-80.699996948199995
 20
128.46000003809991
 30
0.0
 11
-80.699996948199995
 21
92.454905157843996
 31
0.0
  0
LINE
  5
488
  8
DIMENSIONS
 62
     0
 10
-103.2272091017
 20
96.264905100644
 30
0.0
 11
-101.0399964714499
 21
96.264905100644
 31
0.0
  0
LINE
  5
489
  8
DIMENSIONS
 62
     0
 10
-82.672784794699979
 20
96.264905100644
 30
0.0
 11
-84.859997424949995
 21
96.264905100644
 31
0.0
  0
SOLID
  5
48A
  8
DIMENSIONS
 62
     0
 10
-103.2272091017
 20
96.593703075060674
 30
0.0
 11
-103.2272091017
 21
95.936107126227327
 31
0.0
 12
-105.1999969481999
 22
96.264905100644
 32
0.0
 13
-105.1999969481999
 23
96.264905100644
 33
0.0
  0
SOLID
  5
48B
  8
DIMENSIONS
 62
     0
 10
-82.672784794699979
 20
96.593703075060674
 30
0.0
 11
-82.672784794699979
 21
95.936107126227327
 31
0.0
 12
-80.699996948199995
 22
96.264905100644
 32
0.0
 13
-80.699996948199995
 23
96.264905100644
 33
0.0
  0
TEXT
  5
48C
  8
0
 62
     0
 10
-100.94999647144989
 20
94.664905195993995
 30
0.0
 40
3.1999998092999991
  1
24.525
  0
POINT
  5
48D
  8
DEFPOINTS
 62
     0
 10
-105.1999969481999
 20
116.8591766357
 30
0.0
  0
POINT
  5
48E
  8
DEFPOINTS
 62
     0
 10
-80.699996948199995
 20
131.0
 30
0.0
  0
POINT
  5
48F
  8
DEFPOINTS
 62
     0
 10
-80.699996948199995
 20
96.264905100644
 30
0.0
  0
ENDBLK
  5
1A5
  8
0
  0
BLOCK
  8
0
  2
*D22
 70
     1
 10
0.0
 20
0.0
 30
0.0
  3
*D22
  1

  0
LINE
  5
4C2
  8
DIMENSIONS
 62
     0
 10
-40.159996986299987
 20
45.499999999999993
 30
0.0
 11
-11.327549805428809
 21
45.499999999999993
 31
0.0
  0
LINE
  5
4C3
  8
DIMENSIONS
 62
     0
 10
-40.159996986299987
 20
82.499984741199995
 30
0.0
 11
-11.3275498054288
 21
82.499984741199981
 31
0.0
  0
LINE
  5
4C4
  8
DIMENSIONS
 62
     0
 10
-15.13754974822881
 20
47.472787846499983
 30
0.0
 11
-15.13754974822881
 21
56.176659498124977
 31
0.0
  0
LINE
  5
4C5
  8
DIMENSIONS
 62
     0
 10
-15.1375497482288
 20
80.527196894699983
 30
0.0
 11
-15.1375497482288
 21
71.823325243074976
 31
0.0
  0
SOLID
  5
4C6
  8
DIMENSIONS
 62
     0
 10
-15.46634772264548
 20
47.472787846499983
 30
0.0
 11
-14.808751773812141
 21
47.472787846499983
 31
0.0
 12
-15.13754974822881
 22
45.499999999999993
 32
0.0
 13
-15.13754974822881
 23
45.499999999999993
 33
0.0
  0
SOLID
  5
4C7
  8
DIMENSIONS
 62
     0
 10
-15.46634772264547
 20
80.527196894699983
 30
0.0
 11
-14.808751773812141
 21
80.527196894699983
 31
0.0
 12
-15.1375497482288
 22
82.499984741199981
 32
0.0
 13
-15.1375497482288
 23
82.499984741199981
 33
0.0
  0
TEXT
  5
4C8
  8
0
 62
     0
 10
-13.53754984357882
 20
56.26665949812498
 30
0.0
 40
3.1999998092999991
  1
37.037
 50
90.0
  0
POINT
  5
4C9
  8
DEFPOINTS
 62
     0
 10
-42.699996948200003
 20
45.499999999999993
 30
0.0
  0
POINT
  5
4CA
  8
DEFPOINTS
 62
     0
 10
-42.699996948200003
 20
82.499984741199995
 30
0.0
  0
POINT
  5
4CB
  8
DEFPOINTS
 62
     0
 10
-15.1375497482288
 20
82.499984741199981
 30
0.0
  0
ENDBLK
  5
1BE
  8
0
  0
BLOCK
  8
0
  2
*D25
 70
     1
 10
0.0
 20
0.0
 30
0.0
  3
*D25
  1

  0
LINE
  5
490
  8
DIMENSIONS
 62
     0
 10
-105.1999969481999
 20
114.96000003810001
 30
0.0
 11
-105.1999969481999
 21
105.1900000572
 31
0.0
  0
LINE
  5
491
  8
DIMENSIONS
 62
     0
 10
-92.199996948199995
 20
114.75998783109991
 30
0.0
 11
-92.199996948199995
 21
105.1900000572
 31
0.0
  0
LINE
  5
492
  8
DIMENSIONS
 62
     0
 10
-103.2272091017
 20
109.0
 30
0.0
 11
-94.172784794699993
 21
109.0
 31
0.0
  0
LINE
  5
493
  8
DIMENSIONS
 62
     0
 10
-92.199996948199995
 20
109.0
 30
0.0
 11
-75.099561905524027
 21
109.0
 31
0.0
  0
SOLID
  5
494
  8
DIMENSIONS
 62
     0
 10
-103.2272091017
 20
109.3287979744166
 30
0.0
 11
-103.2272091017
 21
108.6712020255833
 31
0.0
 12
-105.1999969481999
 22
109.0
 32
0.0
 13
-105.1999969481999
 23
109.0
 33
0.0
  0
SOLID
  5
495
  8
DIMENSIONS
 62
     0
 10
-94.172784794699993
 20
109.3287979744166
 30
0.0
 11
-94.172784794699993
 21
108.6712020255833
 31
0.0
 12
-92.199996948199995
 22
109.0
 32
0.0
 13
-92.199996948199995
 23
109.0
 33
0.0
  0
TEXT
  5
496
  8
0
 62
     0
 10
-75.009561905524023
 20
107.40000009534999
 30
0.0
 40
3.1999998092999991
  1
13.013
  0
POINT
  5
497
  8
DEFPOINTS
 62
     0
 10
-105.1999969481999
 20
117.5
 30
0.0
  0
POINT
  5
498
  8
DEFPOINTS
 62
     0
 10
-92.199996948199995
 20
117.2999877929999
 30
0.0
  0
POINT
  5
499
  8
DEFPOINTS
 62
     0
 10
-92.199996948199995
 20
109.0
 30
0.0
  0
ENDBLK
  5
27C
  8
0
  0
BLOCK
  8
0
  2
*D26
 70
     1
 10
0.0
 20
0.0
 30
0.0
  3
*D26
  1

  0
LINE
  5
4B8
  8
DIMENSIONS
 62
     0
 10
-62.799987793
 20
83.539999961899994
 30
0.0
 11
-62.799987793
 21
92.309999942800005
 31
0.0
  0
LINE
  5
4B9
  8
DIMENSIONS
 62
     0
 10
-33.199996948200003
 20
83.539984703099989
 30
0.0
 11
-33.199996948200003
 21
92.309999942800005
 31
0.0
  0
LINE
  5
4BA
  8
DIMENSIONS
 62
     0
 10
-60.827199946500002
 20
88.499999999999986
 30
0.0
 11
-55.82332524307499
 21
88.499999999999986
 31
0.0
  0
LINE
  5
4BB
  8
DIMENSIONS
 62
     0
 10
-35.1727847947
 20
88.499999999999986
 30
0.0
 11
-40.176659498124991
 21
88.499999999999986
 31
0.0
  0
SOLID
  5
4BC
  8
DIMENSIONS
 62
     0
 10
-60.827199946500002
 20
88.828797974416673
 30
0.0
 11
-60.827199946500002
 21
88.171202025583327
 31
0.0
 12
-62.799987793
 22
88.499999999999986
 32
0.0
 13
-62.799987793
 23
88.499999999999986
 33
0.0
  0
SOLID
  5
4BD
  8
DIMENSIONS
 62
     0
 10
-35.1727847947
 20
88.828797974416673
 30
0.0
 11
-35.1727847947
 21
88.171202025583327
 31
0.0
 12
-33.199996948200003
 22
88.499999999999986
 32
0.0
 13
-33.199996948200003
 23
88.499999999999986
 33
0.0
  0
TEXT
  5
4BE
  8
0
 62
     0
 10
-55.733325243075001
 20
86.900000095349995
 30
0.0
 40
3.1999998092999991
  1
29.630
  0
POINT
  5
4BF
  8
DEFPOINTS
 62
     0
 10
-62.799987793
 20
81.0
 30
0.0
  0
POINT
  5
4C0
  8
DEFPOINTS
 62
     0
 10
-33.199996948200003
 20
80.999984741199995
 30
0.0
  0
POINT
  5
4C1
  8
DEFPOINTS
 62
     0
 10
-33.199996948200003
 20
88.499999999999986
 30
0.0
  0
ENDBLK
  5
2B8
  8
0
  0
BLOCK
  8
0
  2
*D27
 70
     1
 10
0.0
 20
0.0
 30
0.0
  3
*D27
  1

  0
LINE
  5
47C
  8
DIMENSIONS
 62
     0
 10
-171.69998168949999
 20
128.4598321913999
 30
0.0
 11
-171.69998168949999
 21
91.945709058825173
 31
0.0
  0
LINE
  5
47D
  8
DIMENSIONS
 62
     0
 10
-105.1999969481999
 20
114.96000003810001
 30
0.0
 11
-105.1999969481999
 21
91.945709058825173
 31
0.0
  0
LINE
  5
47E
  8
DIMENSIONS
 62
     0
 10
-169.72719384300001
 20
95.755709001625164
 30
0.0
 11
-142.52597992966869
 21
95.755709001625164
 31
0.0
  0
LINE
  5
47F
  8
DIMENSIONS
 62
     0
 10
-107.17278479469999
 20
95.755709001625164
 30
0.0
 11
-132.74598050176871
 21
95.755709001625164
 31
0.0
  0
SOLID
  5
480
  8
DIMENSIONS
 62
     0
 10
-169.72719384300001
 20
96.084506976041851
 30
0.0
 11
-169.72719384300001
 21
95.426911027208504
 31
0.0
 12
-171.69998168949999
 22
95.755709001625164
 32
0.0
 13
-171.69998168949999
 23
95.755709001625164
 33
0.0
  0
SOLID
  5
481
  8
DIMENSIONS
 62
     0
 10
-107.17278479469999
 20
96.084506976041851
 30
0.0
 11
-107.17278479469999
 21
95.426911027208504
 31
0.0
 12
-105.1999969481999
 22
95.755709001625164
 32
0.0
 13
-105.1999969481999
 23
95.755709001625164
 33
0.0
  0
TEXT
  5
482
  8
0
 62
     0
 10
-142.43597992966869
 20
94.155709096975173
 30
0.0
 40
3.1999998092999991
  1
66.5
  0
POINT
  5
483
  8
DEFPOINTS
 62
     0
 10
-171.69998168949999
 20
130.99983215329991
 30
0.0
  0
POINT
  5
484
  8
DEFPOINTS
 62
     0
 10
-105.1999969481999
 20
117.5
 30
0.0
  0
POINT
  5
485
  8
DEFPOINTS
 62
     0
 10
-105.1999969481999
 20
95.755709001625164
 30
0.0
  0
ENDBLK
  5
355
  8
0
  0
BLOCK
  8
0
  2
*U28
 70
     1
 10
0.0
 20
0.0
 30
0.0
  3
*U28
  1

  0
TEXT
  5
4D7
  8
0
 62
     0
 10
-48.400608777720279
 20
121.66666722287491
 30
0.0
 40
3.1999998092999991
  1
29.0
 50
90.0
  0
TEXT
  5
4D8
  8
0
 62
     0
 10
-48.400608777720279
 20
131.7999999523249
 30
0.0
 40
3.1999998092999991
  1
\U+2205
 50
90.0
  0
TEXT
  5
4D9
  8
0
 62
     0
 10
-48.400608777720279
 20
134.99999976162491
 30
0.0
 40
3.1999998092999991
  1
29
 50
90.0
  0
ENDBLK
  5
4DB
  8
0
  0
BLOCK
  8
0
  2
*U29
 70
     1
 10
0.0
 20
0.0
 30
0.0
  3
*U29
  1

  0
TEXT
  5
4DD
  8
0
 62
     0
 10
-60.628799681268752
 20
121.3999929426999
 30
0.0
 40
3.1999998092999991
  1
23.6
 50
90.0
  0
TEXT
  5
4DE
  8
0
 62
     0
 10
-60.628799681268752
 20
132.0666589736999
 30
0.0
 40
3.1999998092999991
  1
\U+2205
 50
90.0
  0
TEXT
  5
4DF
  8
0
 62
     0
 10
-60.628799681268752
 20
135.26665878299991
 30
0.0
 40
3.1999998092999991
  1
23
 50
90.0
  0
ENDBLK
  5
4E1
  8
0
  0
BLOCK
  8
0
  2
*U30
 70
     1
 10
0.0
 20
0.0
 30
0.0
  3
*U30
  1

  0
TEXT
  5
4E3
  8
0
 10
-140.14018403258589
 20
178.02088523632469
 30
0.0
 40
3.1999998092999991
  1
APW2126
  0
TEXT
  5
4E4
  8
0
 10
-140.14018403258589
 20
172.6875522208247
 30
0.0
 40
3.1999998092999991
  1
(dimensions in mm)
  0
ENDBLK
  5
4E6
  8
0
  0
ENDSEC
  0
SECTION
  2
ENTITIES
  0
ARC
  5
CB
  8
LAYER1$C$L1
 62
     3
 10
-86.252807617199991
 20
70.8759307861
 30
0.0
 40
4.0
 50
25.451497828800001
 51
72.336457122100015
  0
ARC
  5
CC
  8
LAYER1$C$L1
 62
     3
 10
-92.199996948199995
 20
52.199996948200003
 30
0.0
 40
23.599990844699999
 50
72.3363478391
 51
89.999982013899995
  0
ARC
  5
CD
  8
LAYER1$C$L1
 62
     3
 10
-100.6999969481999
 20
64.0
 30
0.0
 40
20.0
 50
0.0
 51
25.451443187199999
  0
ARC
  5
CE
  8
LAYER1$C$L1
 62
     3
 10
-86.252807617199991
 20
57.124053955100003
 30
0.0
 40
4.0
 50
287.6635428779
 51
334.54850217119991
  0
ARC
  5
CF
  8
LAYER1$C$L1
 62
     3
 10
-92.199996948199995
 20
75.799987793
 30
0.0
 40
23.599990844699999
 50
270.00001798609998
 51
287.66365216090003
  0
ARC
  5
D0
  8
LAYER1$C$L1
 62
     3
 10
-100.6999969481999
 20
64.0
 30
0.0
 40
20.0
 50
334.54855681279992
 51
0.0
  0
CIRCLE
  5
D1
  8
LAYER1$C$L1
 62
     3
 10
-48.0
 20
64.0
 30
0.0
 40
11.7999992371
  0
ARC
  5
D2
  8
LAYER1$C$L1
 62
     3
 10
-86.252807617199991
 20
137.87593078610001
 30
0.0
 40
4.0
 50
25.451497828800001
 51
72.336457122100015
  0
ARC
  5
D3
  8
LAYER1$C$L1
 62
     3
 10
-92.199996948199995
 20
119.1999969482
 30
0.0
 40
23.599990844699999
 50
72.3363478391
 51
89.999982013899995
  0
ARC
  5
D4
  8
LAYER1$C$L1
 62
     3
 10
-100.6999969481999
 20
131.0
 30
0.0
 40
20.0
 50
0.0
 51
25.451443187199999
  0
ARC
  5
D5
  8
LAYER1$C$L1
 62
     3
 10
-86.252807617199991
 20
124.1240539550999
 30
0.0
 40
4.0
 50
287.6635428779
 51
334.54850217119991
  0
TEXT
  5
E0
  8
LAYER8$C$L8
 62
     3
 10
-92.5
 20
232.58004760739999
 30
0.0
 40
2.5
  1

 72
     5
 11
-92.5
 21
232.58004760739999
 31
0.0
  0
TEXT
  5
E3
  8
LAYER8$C$L8
 62
     3
 10
-92.5
 20
247.55001831049989
 30
0.0
 40
2.5
  1

 72
     5
 11
-92.5
 21
247.55001831049989
 31
0.0
  0
LINE
  5
FE
  8
LAYER1$C$L1
 62
     3
 10
-170.94255995579991
 20
59.689698763899997
 30
0.0
 11
-169.70002379769991
 21
60.000332765299987
 31
0.0
  0
TEXT
  5
100
  8
LAYER8$C$L8
 62
     3
 10
-43.053070068399997
 20
132.1967620849999
 30
0.0
 40
2.5
  1

 72
     5
 11
-43.053070068399997
 21
132.1967620849999
 31
0.0
  0
TEXT
  5
102
  8
LAYER8$C$L8
 62
     3
 10
-43.053070068399997
 20
132.1967620849999
 30
0.0
 40
2.5
  1

 72
     5
 11
-43.053070068399997
 21
132.1967620849999
 31
0.0
  0
TEXT
  5
104
  8
LAYER8$C$L8
 62
     3
 10
-43.053070068399997
 20
132.1967620849999
 30
0.0
 40
2.5
  1

 72
     5
 11
-43.053070068399997
 21
132.1967620849999
 31
0.0
  0
LINE
  5
108
  8
LAYER1$C$L1
 62
     3
 10
-170.8609193563
 20
48.363217893300003
 30
0.0
 11
-162.49999166379999
 21
47.000025103699997
 31
0.0
  0
LINE
  5
109
  8
LAYER1$C$L1
 62
     3
 10
-133.69999694820001
 20
82.499969482400004
 30
0.0
 11
-133.69999694820001
 21
45.500030517600003
 31
0.0
  0
LINE
  5
10A
  8
LAYER1$C$L1
 62
     3
 10
-133.69999694820001
 20
82.499969482400004
 30
0.0
 11
-134.69998168949999
 21
82.499969482400004
 31
0.0
  0
LINE
  5
10B
  8
LAYER1$C$L1
 62
     3
 10
-135.69998168949999
 20
82.299957275400004
 30
0.0
 11
-154.69998168949999
 21
82.299957275400004
 31
0.0
  0
LINE
  5
10C
  8
LAYER1$C$L1
 62
     3
 10
-134.69999694820001
 20
136.2998199463
 30
0.0
 11
-134.69999694820001
 21
130.99983215329991
 31
0.0
  0
LINE
  5
10D
  8
LAYER1$C$L1
 62
     3
 10
-135.70001415370001
 20
82.299995335600002
 30
0.0
 11
-134.7000145458
 21
82.500007414199999
 31
0.0
  0
LINE
  5
10E
  8
LAYER1$C$L1
 62
     3
 10
-133.69997057450001
 20
77.000086974799999
 30
0.0
 11
-145.06576979580001
 21
82.300045375500005
 31
0.0
  0
LINE
  5
10F
  8
LAYER1$C$L1
 62
     3
 10
-144.40000915530001
 20
121.0000457764
 30
0.0
 11
-144.40000915530001
 21
116.1999969482
 31
0.0
  0
LINE
  5
110
  8
LAYER1$C$L1
 62
     3
 10
-145.10000610349991
 20
125.6999969481999
 30
0.0
 11
-133.69999694820001
 21
125.6999969481999
 31
0.0
  0
LINE
  5
111
  8
LAYER1$C$L1
 62
     3
 10
-171.69998168949999
 20
58.719268798800002
 30
0.0
 11
-171.69998168949999
 21
49.350372314499992
 31
0.0
  0
LINE
  5
112
  8
LAYER1$C$L1
 62
     3
 10
-161.49996948239999
 20
81.999969482400004
 30
0.0
 11
-154.69998168949999
 21
81.999969482400004
 31
0.0
  0
LINE
  5
113
  8
LAYER1$C$L1
 62
     3
 10
-154.69998168949999
 20
46.000030517600003
 30
0.0
 11
-161.49996948239999
 21
46.000030517600003
 31
0.0
  0
LINE
  5
114
  8
LAYER1$C$L1
 62
     3
 10
-162.49996948239991
 20
80.999969482400004
 30
0.0
 11
-162.49996948239991
 21
47.000030517600003
 31
0.0
  0
LINE
  5
115
  8
LAYER1$C$L1
 62
     3
 10
-154.69998168949999
 20
45.700225830100003
 30
0.0
 11
-154.69998168949999
 21
63.999984741200002
 31
0.0
  0
LINE
  5
116
  8
LAYER1$C$L1
 62
     3
 10
-144.42253112789999
 20
46.000030517600003
 30
0.0
 11
-154.69998168949999
 21
46.000030517600003
 31
0.0
  0
LINE
  5
117
  8
LAYER1$C$L1
 62
     3
 10
-145.0659544767
 20
45.700442211000002
 30
0.0
 11
-133.70015525539989
 21
51.000400611800004
 31
0.0
  0
LINE
  5
118
  8
LAYER1$C$L1
 62
     3
 10
-134.69999694820001
 20
130.99983215329991
 30
0.0
 11
-134.69999694820001
 21
125.6999969481999
 31
0.0
  0
LINE
  5
119
  8
LAYER1$C$L1
 62
     3
 10
-135.69999694820001
 20
130.99983215329991
 30
0.0
 11
-135.69999694820001
 21
125.6999969481999
 31
0.0
  0
LINE
  5
11A
  8
LAYER1$C$L1
 62
     3
 10
-162.49998474119991
 20
119.5000457764
 30
0.0
 11
-165.19998168949999
 21
119.5000457764
 31
0.0
  0
LINE
  5
11B
  8
LAYER1$C$L1
 62
     3
 10
-160.69999694820001
 20
127.0000457764
 30
0.0
 11
-160.69999694820001
 21
130.99983215329991
 31
0.0
  0
LINE
  5
11C
  8
LAYER1$C$L1
 62
     3
 10
-158.69999694820001
 20
127.0000457764
 30
0.0
 11
-162.49998474119991
 21
127.0000457764
 31
0.0
  0
LINE
  5
11D
  8
LAYER1$C$L1
 62
     3
 10
-158.69999694820001
 20
130.99983215329991
 30
0.0
 11
-158.69999694820001
 21
127.0000457764
 31
0.0
  0
LINE
  5
11E
  8
LAYER1$C$L1
 62
     3
 10
-154.69999694820001
 20
121.0000457764
 30
0.0
 11
-162.49998474119991
 21
121.0000457764
 31
0.0
  0
LINE
  5
11F
  8
LAYER1$C$L1
 62
     3
 10
-161.4999847412
 20
116.1999969482
 30
0.0
 11
-154.69999694820001
 21
116.1999969482
 31
0.0
  0
LINE
  5
120
  8
LAYER1$C$L1
 62
     3
 10
-165.4999847412
 20
131.6998291015999
 30
0.0
 11
-165.4999847412
 21
119.8000488280999
 31
0.0
  0
LINE
  5
121
  8
LAYER1$C$L1
 62
     3
 10
-154.69999694820001
 20
145.79981994629989
 30
0.0
 11
-161.4999847412
 21
145.79981994629989
 31
0.0
  0
LINE
  5
122
  8
LAYER1$C$L1
 62
     3
 10
-162.49998474119991
 20
144.7998199463
 30
0.0
 11
-162.49998474119991
 21
130.99983215329991
 31
0.0
  0
LINE
  5
123
  8
LAYER1$C$L1
 62
     3
 10
-171.3999786377
 20
129.9998626709
 30
0.0
 11
-162.49998474119991
 21
129.9998626709
 31
0.0
  0
LINE
  5
124
  8
LAYER1$C$L1
 62
     3
 10
-171.69998168949999
 20
130.99983215329991
 30
0.0
 11
-171.69998168949999
 21
130.2998504638999
 31
0.0
  0
LINE
  5
125
  8
LAYER1$C$L1
 62
     3
 10
-162.49998474119991
 20
140.99983215329991
 30
0.0
 11
-154.69999694820001
 21
140.99983215329991
 31
0.0
  0
LINE
  5
126
  8
LAYER1$C$L1
 62
     3
 10
-162.49998474119991
 20
134.99983215329999
 30
0.0
 11
-158.69999694820001
 21
134.99983215329999
 31
0.0
  0
LINE
  5
127
  8
LAYER1$C$L1
 62
     3
 10
-160.69999694820001
 20
130.99983215329991
 30
0.0
 11
-160.69999694820001
 21
134.99983215329999
 31
0.0
  0
LINE
  5
128
  8
LAYER1$C$L1
 62
     3
 10
-162.49998474119991
 20
130.99983215329991
 30
0.0
 11
-162.49998474119991
 21
117.1999969482
 31
0.0
  0
LINE
  5
129
  8
LAYER1$C$L1
 62
     3
 10
-135.69999694820001
 20
136.2998199463
 30
0.0
 11
-135.69999694820001
 21
130.99983215329991
 31
0.0
  0
LINE
  5
12A
  8
LAYER1$C$L1
 62
     3
 10
-158.69999694820001
 20
134.99983215329999
 30
0.0
 11
-158.69999694820001
 21
130.99983215329991
 31
0.0
  0
LINE
  5
12B
  8
LAYER1$C$L1
 62
     3
 10
-154.69999694820001
 20
145.79981994629989
 30
0.0
 11
-154.69999694820001
 21
130.99983215329991
 31
0.0
  0
DIMENSION
  5
147
  8
DIMENSIONS
  2
*D18
 10
-50.000608682370249
 20
145.49999999999989
 30
0.0
 11
-50.000608682370277
 21
130.99999999999989
 31
0.0
 70
   129
  1
<>%%c29
 13
-99.700012207000015
 23
116.5
 33
0.0
 14
-99.700012207000015
 24
145.5
 34
0.0
1001
ACAD
1000
DSTYLE
1002
{
1070
    41
1040
1.9727878464999999
1070
    42
1040
2.5399999618999991
1070
    44
1040
3.8099999427999989
1070
    73
1070
     0
1070
   140
1040
3.1999998092999991
1070
   271
1070
     1
1070
   272
1070
     1
1002
}
  0
LINE
  5
153
  8
LAYER1$C$L1
 62
     3
 10
-165.4999847412
 20
140.99983215329991
 30
0.0
 11
-165.4999847412
 21
131.99983215329999
 31
0.0
  0
LINE
  5
157
  8
LAYER1$C$L1
 62
     3
 10
-133.69999694820001
 20
145.79981994629989
 30
0.0
 11
-154.69999694820001
 21
145.79981994629989
 31
0.0
  0
LINE
  5
158
  8
LAYER1$C$L1
 62
     3
 10
-154.69999694820001
 20
140.99983215329991
 30
0.0
 11
-144.40000915530001
 21
140.99983215329991
 31
0.0
  0
LINE
  5
159
  8
LAYER1$C$L1
 62
     3
 10
-145.10000610349991
 20
140.99983215329991
 30
0.0
 11
-145.10000610349991
 21
136.2998199463
 31
0.0
  0
LINE
  5
15A
  8
LAYER1$C$L1
 62
     3
 10
-144.40000915530001
 20
145.79981994629989
 30
0.0
 11
-144.40000915530001
 21
140.99983215329991
 31
0.0
  0
LINE
  5
15B
  8
LAYER1$C$L1
 62
     3
 10
-133.69999694820001
 20
136.2998199463
 30
0.0
 11
-145.10000610349991
 21
136.2998199463
 31
0.0
  0
LINE
  5
15C
  8
LAYER1$C$L1
 62
     3
 10
-134.7000205297
 20
45.5000740957
 30
0.0
 11
-135.70002013769991
 21
45.700086174299997
 31
0.0
  0
ARC
  5
15E
  8
LAYER1$C$L1
 62
     3
 10
-119.1999969482
 20
52.5
 30
0.0
 40
0.5
 50
89.999927372399995
 51
179.9999640277999
  0
ARC
  5
15F
  8
LAYER1$C$L1
 62
     3
 10
-120.1999969482
 20
46.0
 30
0.0
 40
0.5
 50
270.00007262759988
 51
0.0
  0
ARC
  5
160
  8
LAYER1$C$L1
 62
     3
 10
-120.1999969482
 20
46.5
 30
0.0
 40
0.5
 50
270.00007262759988
 51
0.0
  0
ARC
  5
161
  8
LAYER1$C$L1
 62
     3
 10
-119.19998168950001
 20
75.5
 30
0.0
 40
0.5
 50
179.9999093863
 51
269.9999460416999
  0
ARC
  5
162
  8
LAYER1$C$L1
 62
     3
 10
-120.19998168950001
 20
82.0
 30
0.0
 40
0.5
 50
0.0
 51
89.999927372399995
  0
ARC
  5
163
  8
LAYER1$C$L1
 62
     3
 10
-120.19998168950001
 20
81.5
 30
0.0
 40
0.5
 50
0.0
 51
89.999927372399995
  0
ARC
  5
164
  8
LAYER1$C$L1
 62
     3
 10
-92.199996948199995
 20
142.7999877929999
 30
0.0
 40
23.599990844699999
 50
270.00001798609998
 51
287.66365216090003
  0
DIMENSION
  5
165
  8
DIMENSIONS
  2
*D19
 10
-62.228799585918729
 20
142.7999877929999
 30
0.0
 11
-62.22879958591875
 21
130.9999923705999
 31
0.0
 70
   129
  1
<>%%c23
 13
-92.199996948199995
 23
119.1999969482
 33
0.0
 14
-92.199996948199995
 24
142.7999877929999
 34
0.0
1001
ACAD
1000
DSTYLE
1002
{
1070
    41
1040
1.9727878464999999
1070
    42
1040
2.5399999618999991
1070
    44
1040
3.8099999427999989
1070
    73
1070
     0
1070
   140
1040
3.1999998092999991
1070
   271
1070
     1
1070
   272
1070
     1
1002
}
  0
LINE
  5
171
  8
LAYER1$C$L1
 62
     3
 10
-144.40000915530001
 20
121.0000457764
 30
0.0
 11
-154.69999694820001
 21
121.0000457764
 31
0.0
  0
ARC
  5
172
  8
LAYER1$C$L1
 62
     3
 10
-113.5
 20
131.0
 30
0.0
 40
1.0
 50
180.0000906137
 51
270.00007262759988
  0
ARC
  5
173
  8
LAYER1$C$L1
 62
     3
 10
-120.1999969482
 20
116.6999969481999
 30
0.0
 40
0.5
 50
270.00007262759988
 51
0.0
  0
ARC
  5
174
  8
LAYER1$C$L1
 62
     3
 10
-119.1999969482
 20
119.5
 30
0.0
 40
0.5
 50
89.999982013899995
 51
180.00001866929989
  0
ARC
  5
175
  8
LAYER1$C$L1
 62
     3
 10
-113.5
 20
131.0
 30
0.0
 40
1.0
 50
89.999982013899995
 51
179.9999640277999
  0
ARC
  5
176
  8
LAYER1$C$L1
 62
     3
 10
-120.1999969482
 20
145.2999877929999
 30
0.0
 40
0.5
 50
0.0
 51
89.999982013899995
  0
ARC
  5
177
  8
LAYER1$C$L1
 62
     3
 10
-119.1999969482
 20
142.5
 30
0.0
 40
0.5
 50
179.9999640277999
 51
270.00000068319991
  0
CIRCLE
  5
178
  8
LAYER1$C$L1
 62
     3
 10
-48.0
 20
64.0
 30
0.0
 40
14.0
  0
CIRCLE
  5
179
  8
LAYER1$C$L1
 62
     3
 10
-48.0
 20
64.0
 30
0.0
 40
14.5
  0
ARC
  5
17A
  8
LAYER1$C$L1
 62
     3
 10
-34.200012207
 20
80.999984741199995
 30
0.0
 40
1.0
 50
0.000072627560058
 51
89.999982013899995
  0
ARC
  5
17B
  8
LAYER1$C$L1
 62
     3
 10
-34.200012207
 20
47.0
 30
0.0
 40
1.0
 50
270.00012726910001
 51
0.000072627600094
  0
ARC
  5
17C
  8
LAYER1$C$L1
 62
     3
 10
-61.800003051799997
 20
81.0
 30
0.0
 40
1.0
 50
89.999982013899995
 51
179.9999640277999
  0
ARC
  5
17D
  8
LAYER1$C$L1
 62
     3
 10
-61.800003051799997
 20
47.000015258799998
 30
0.0
 40
1.0
 50
179.9999640277999
 51
269.9999460416999
  0
LINE
  5
17F
  8
LAYER1$C$L1
 62
     3
 10
-154.69998168949999
 20
45.700225830100003
 30
0.0
 11
-135.69998168949999
 21
45.700225830100003
 31
0.0
  0
LINE
  5
187
  8
LAYER1$C$L1
 62
     3
 10
-154.69998168949999
 20
81.999969482400004
 30
0.0
 11
-144.42253112789999
 21
81.999969482400004
 31
0.0
  0
LINE
  5
188
  8
LAYER1$C$L1
 62
     3
 10
-134.69998168949999
 20
45.500030517600003
 30
0.0
 11
-133.69999694820001
 21
45.500030517600003
 31
0.0
  0
LINE
  5
18A
  8
LAYER1$C$L1
 62
     3
 10
-154.69998168949999
 20
63.999984741200002
 30
0.0
 11
-154.69998168949999
 21
82.299957275400004
 31
0.0
  0
LINE
  5
18B
  8
LAYER1$C$L1
 62
     3
 10
-103.3033447266
 20
61.899993896499993
 30
0.0
 11
-104.4000091553
 21
61.899993896499993
 31
0.0
  0
LINE
  5
18C
  8
LAYER1$C$L1
 62
     3
 10
-101.9835815429999
 20
59.299987792999993
 30
0.0
 11
-104.4000091553
 21
59.299987792999993
 31
0.0
  0
LINE
  5
18D
  8
LAYER1$C$L1
 62
     3
 10
-100.74444580079989
 20
57.0
 30
0.0
 11
-104.4000091553
 21
57.0
 31
0.0
  0
LINE
  5
18E
  8
LAYER1$C$L1
 62
     3
 10
-99.700012207000015
 20
55.0
 30
0.0
 11
-104.4000091553
 21
55.0
 31
0.0
  0
LINE
  5
18F
  8
LAYER1$C$L1
 62
     3
 10
-99.700012207000015
 20
53.299987793
 30
0.0
 11
-104.4000091553
 21
53.299987793
 31
0.0
  0
LINE
  5
190
  8
LAYER1$C$L1
 62
     3
 10
-99.700012207000015
 20
51.899993896499993
 30
0.0
 11
-104.4000091553
 21
51.899993896499993
 31
0.0
  0
LINE
  5
191
  8
LAYER1$C$L1
 62
     3
 10
-99.700012207000015
 20
50.799987793
 30
0.0
 11
-104.4000091553
 21
50.799987793
 31
0.0
  0
LINE
  5
192
  8
LAYER1$C$L1
 62
     3
 10
-99.700012207000015
 20
50.0
 30
0.0
 11
-104.4000091553
 21
50.0
 31
0.0
  0
LINE
  5
193
  8
LAYER1$C$L1
 62
     3
 10
-92.200009011900008
 20
50.300009771800013
 30
0.0
 11
-92.5000136715
 21
50.000005137399988
 31
0.0
  0
LINE
  5
194
  8
LAYER1$C$L1
 62
     3
 10
-99.199995171499992
 20
50.000016209400002
 30
0.0
 11
-99.699995744500001
 21
49.500015678599993
 31
0.0
  0
LINE
  5
195
  8
LAYER1$C$L1
 62
     3
 10
-92.5
 20
50.0
 30
0.0
 11
-99.200012207000015
 21
50.0
 31
0.0
  0
LINE
  5
196
  8
LAYER1$C$L1
 62
     3
 10
-99.200012207000015
 20
64.0
 30
0.0
 11
-99.200012207000015
 21
50.0
 31
0.0
  0
LINE
  5
197
  8
LAYER1$C$L1
 62
     3
 10
-92.5
 20
64.0
 30
0.0
 11
-92.5
 21
50.0
 31
0.0
  0
LINE
  5
198
  8
LAYER1$C$L1
 62
     3
 10
-92.199996948199995
 20
64.0
 30
0.0
 11
-92.199996948199995
 21
50.299987793
 31
0.0
  0
LINE
  5
199
  8
LAYER1$C$L1
 62
     3
 10
-121.89999389649989
 20
135.19999694820001
 30
0.0
 11
-121.89999389649989
 21
131.0
 31
0.0
  0
DIMENSION
  5
19A
  8
DIMENSIONS
  2
*D20
 10
-80.699996948199995
 20
96.264905100644
 30
0.0
 11
-92.949996948199995
 21
96.264905100644
 31
0.0
 70
   128
  1
<>25
 13
-105.1999969481999
 23
116.8591766357
 33
0.0
 14
-80.699996948199995
 24
131.0
 34
0.0
1001
ACAD
1000
DSTYLE
1002
{
1070
    41
1040
1.9727878464999999
1070
    42
1040
2.5399999618999991
1070
    44
1040
3.8099999427999989
1070
    73
1070
     0
1070
   140
1040
3.1999998092999991
1070
   271
1070
     1
1070
   272
1070
     1
1002
}
  0
ARC
  5
1A6
  8
LAYER1$C$L1
 62
     3
 10
-100.6999969481999
 20
131.0
 30
0.0
 40
20.0
 50
334.54855681279992
 51
0.0
  0
DIMENSION
  5
1B3
  8
DIMENSIONS
  2
*D22
 10
-15.1375497482288
 20
82.499984741199981
 30
0.0
 11
-15.137549748228819
 21
63.999992370599983
 31
0.0
 70
   129
  1
<>37
 13
-42.699996948200003
 23
45.499999999999993
 33
0.0
 14
-42.699996948200003
 24
82.499984741199995
 34
0.0
1001
ACAD
1000
DSTYLE
1002
{
1070
    41
1040
1.9727878464999999
1070
    42
1040
2.5399999618999991
1070
    44
1040
3.8099999427999989
1070
    73
1070
     0
1070
   140
1040
3.1999998092999991
1070
   271
1070
     1
1070
   272
1070
     1
1002
}
  0
LINE
  5
1BF
  8
LAYER1$C$L1
 62
     3
 10
-99.700012207000015
 20
64.0
 30
0.0
 11
-99.700012207000015
 21
49.5
 31
0.0
  0
LINE
  5
1C0
  8
LAYER1$C$L1
 62
     3
 10
-104.3999828355
 20
49.500016302100001
 30
0.0
 11
-105.1999824924999
 21
50.5000159688
 31
0.0
  0
LINE
  5
1C1
  8
LAYER1$C$L1
 62
     3
 10
-104.4000091553
 20
64.0
 30
0.0
 11
-104.4000091553
 21
49.5
 31
0.0
  0
LINE
  5
1C2
  8
LAYER1$C$L1
 62
     3
 10
-105.1999969481999
 20
64.0
 30
0.0
 11
-105.1999969481999
 21
50.5
 31
0.0
  0
LINE
  5
1C3
  8
LAYER1$C$L1
 62
     3
 10
-100.7966766356999
 20
66.099990844700002
 30
0.0
 11
-99.700012207000015
 21
66.099990844700002
 31
0.0
  0
LINE
  5
1C4
  8
LAYER1$C$L1
 62
     3
 10
-102.1544494628999
 20
68.699996948199995
 30
0.0
 11
-99.700012207000015
 21
68.699996948199995
 31
0.0
  0
LINE
  5
1C5
  8
LAYER1$C$L1
 62
     3
 10
-103.3555603027
 20
70.999984741199995
 30
0.0
 11
-99.700012207000015
 21
70.999984741199995
 31
0.0
  0
LINE
  5
1D3
  8
LAYER1$C$L1
 62
     3
 10
-99.700012207000015
 20
131.0
 30
0.0
 11
-99.700012207000015
 21
116.5
 31
0.0
  0
LINE
  5
1D4
  8
LAYER1$C$L1
 62
     3
 10
-99.700012207000015
 20
116.5
 30
0.0
 11
-104.4000091553
 21
116.5
 31
0.0
  0
LINE
  5
1D5
  8
LAYER1$C$L1
 62
     3
 10
-104.3999993035
 20
116.50000226989999
 30
0.0
 11
-105.19999903679999
 21
117.5000019365
 31
0.0
  0
LINE
  5
1D6
  8
LAYER1$C$L1
 62
     3
 10
-112.0
 20
78.5
 30
0.0
 11
-112.0
 21
64.0
 31
0.0
  0
LINE
  5
1D7
  8
LAYER1$C$L1
 62
     3
 10
-114.5
 20
78.0
 30
0.0
 11
-112.0
 21
78.0
 31
0.0
  0
LINE
  5
1D8
  8
LAYER1$C$L1
 62
     3
 10
-112.0
 20
78.5
 30
0.0
 11
-107.1999969481999
 21
78.5
 31
0.0
  0
LINE
  5
1D9
  8
LAYER1$C$L1
 62
     3
 10
-112.0
 20
78.0
 30
0.0
 11
-107.1999969481999
 21
78.0
 31
0.0
  0
LINE
  5
1DA
  8
LAYER1$C$L1
 62
     3
 10
-114.5
 20
78.0
 30
0.0
 11
-114.5
 21
64.0
 31
0.0
  0
LINE
  5
1DB
  8
LAYER1$C$L1
 62
     3
 10
-107.1999969481999
 20
78.5
 30
0.0
 11
-107.1999969481999
 21
64.0
 31
0.0
  0
LINE
  5
1DC
  8
LAYER1$C$L1
 62
     3
 10
-107.1999969481999
 20
75.0
 30
0.0
 11
-105.1999969481999
 21
75.0
 31
0.0
  0
LINE
  5
1DD
  8
LAYER1$C$L1
 62
     3
 10
-118.200012207
 20
75.199996948199995
 30
0.0
 11
-114.5
 21
75.199996948199995
 31
0.0
  0
LINE
  5
1DE
  8
LAYER1$C$L1
 62
     3
 10
-119.6999969481999
 20
75.5
 30
0.0
 11
-119.6999969481999
 21
64.0
 31
0.0
  0
LINE
  5
1DF
  8
LAYER1$C$L1
 62
     3
 10
-119.1999969482
 20
75.0
 30
0.0
 11
-118.200012207
 21
75.0
 31
0.0
  0
LINE
  5
1E0
  8
LAYER1$C$L1
 62
     3
 10
-118.200012207
 20
76.0
 30
0.0
 11
-114.5
 21
76.0
 31
0.0
  0
LINE
  5
1E1
  8
LAYER1$C$L1
 62
     3
 10
-118.200012207
 20
76.0
 30
0.0
 11
-118.200012207
 21
64.0
 31
0.0
  0
LINE
  5
1E2
  8
LAYER1$C$L1
 62
     3
 10
-133.69999694820001
 20
82.0
 30
0.0
 11
-120.1999969482
 21
82.0
 31
0.0
  0
LINE
  5
1E3
  8
LAYER1$C$L1
 62
     3
 10
-133.69999694820001
 20
82.5
 30
0.0
 11
-120.1999969482
 21
82.5
 31
0.0
  0
LINE
  5
1E4
  8
LAYER1$C$L1
 62
     3
 10
-119.6999969481999
 20
82.0
 30
0.0
 11
-119.6999969481999
 21
75.5
 31
0.0
  0
LINE
  5
1E5
  8
LAYER1$C$L1
 62
     3
 10
-133.69999694820001
 20
82.5
 30
0.0
 11
-133.69999694820001
 21
64.0
 31
0.0
  0
LINE
  5
1E6
  8
LAYER3$C$L3
  6
CENTERLINE
 62
     3
 10
-176.70436096189991
 20
64.0
 30
0.0
 11
-78.199996948199995
 21
64.0
 31
0.0
  0
LINE
  5
1E7
  8
LAYER1$C$L1
 62
     3
 10
-103.3033447266
 20
128.89999389650001
 30
0.0
 11
-104.4000091553
 21
128.89999389650001
 31
0.0
  0
LINE
  5
1E8
  8
LAYER1$C$L1
 62
     3
 10
-101.9835815429999
 20
126.2999877929999
 30
0.0
 11
-104.4000091553
 21
126.2999877929999
 31
0.0
  0
LINE
  5
1E9
  8
LAYER1$C$L1
 62
     3
 10
-100.74444580079989
 20
124.0
 30
0.0
 11
-104.4000091553
 21
124.0
 31
0.0
  0
LINE
  5
1EA
  8
LAYER1$C$L1
 62
     3
 10
-99.700012207000015
 20
122.0
 30
0.0
 11
-104.4000091553
 21
122.0
 31
0.0
  0
LINE
  5
1EB
  8
LAYER1$C$L1
 62
     3
 10
-99.700012207000015
 20
120.2999877929999
 30
0.0
 11
-104.4000091553
 21
120.2999877929999
 31
0.0
  0
LINE
  5
1EC
  8
LAYER1$C$L1
 62
     3
 10
-99.700012207000015
 20
118.89999389649989
 30
0.0
 11
-104.4000091553
 21
118.89999389649989
 31
0.0
  0
LINE
  5
1ED
  8
LAYER1$C$L1
 62
     3
 10
-99.700012207000015
 20
117.7999877929999
 30
0.0
 11
-104.4000091553
 21
117.7999877929999
 31
0.0
  0
LINE
  5
1EE
  8
LAYER1$C$L1
 62
     3
 10
-99.700012207000015
 20
117.0
 30
0.0
 11
-104.4000091553
 21
117.0
 31
0.0
  0
LINE
  5
1EF
  8
LAYER1$C$L1
 62
     3
 10
-92.200018035599996
 20
117.29999936519999
 30
0.0
 11
-92.500022669900005
 21
116.9999947308999
 31
0.0
  0
LINE
  5
1F0
  8
LAYER1$C$L1
 62
     3
 10
-99.199998492700004
 20
117.00001091519999
 30
0.0
 11
-99.699999023499998
 21
116.5000103844999
 31
0.0
  0
LINE
  5
1F1
  8
LAYER1$C$L1
 62
     3
 10
-92.5
 20
117.0
 30
0.0
 11
-99.200012207000015
 21
117.0
 31
0.0
  0
LINE
  5
1F2
  8
LAYER1$C$L1
 62
     3
 10
-99.200012207000015
 20
131.0
 30
0.0
 11
-99.200012207000015
 21
117.0
 31
0.0
  0
LINE
  5
1F3
  8
LAYER1$C$L1
 62
     3
 10
-92.5
 20
131.0
 30
0.0
 11
-92.5
 21
117.0
 31
0.0
  0
LINE
  5
1F4
  8
LAYER1$C$L1
 62
     3
 10
-92.199996948199995
 20
131.0
 30
0.0
 11
-92.199996948199995
 21
117.2999877929999
 31
0.0
  0
LINE
  5
1F5
  8
LAYER1$C$L1
 62
     3
 10
-104.4000091553
 20
131.0
 30
0.0
 11
-104.4000091553
 21
116.5
 31
0.0
  0
LINE
  5
1F6
  8
LAYER1$C$L1
 62
     3
 10
-105.1999969481999
 20
131.0
 30
0.0
 11
-105.1999969481999
 21
117.5
 31
0.0
  0
LINE
  5
1F7
  8
LAYER1$C$L1
 62
     3
 10
-100.7966766356999
 20
133.0999908446999
 30
0.0
 11
-99.700012207000015
 21
133.0999908446999
 31
0.0
  0
LINE
  5
1F8
  8
LAYER1$C$L1
 62
     3
 10
-102.1544494628999
 20
135.69999694820001
 30
0.0
 11
-99.700012207000015
 21
135.69999694820001
 31
0.0
  0
LINE
  5
1F9
  8
LAYER1$C$L1
 62
     3
 10
-103.3555603027
 20
137.99998474119991
 30
0.0
 11
-99.700012207000015
 21
137.99998474119991
 31
0.0
  0
LINE
  5
1FA
  8
LAYER1$C$L1
 62
     3
 10
-104.4000091553
 20
139.99998474119991
 30
0.0
 11
-99.700012207000015
 21
139.99998474119991
 31
0.0
  0
LINE
  5
1FB
  8
LAYER1$C$L1
 62
     3
 10
-104.4000091553
 20
141.69999694820001
 30
0.0
 11
-99.700012207000015
 21
141.69999694820001
 31
0.0
  0
LINE
  5
1FC
  8
LAYER1$C$L1
 62
     3
 10
-104.4000091553
 20
143.09999084469999
 30
0.0
 11
-99.700012207000015
 21
143.09999084469999
 31
0.0
  0
LINE
  5
1FD
  8
LAYER1$C$L1
 62
     3
 10
-104.4000091553
 20
144.19999694820001
 30
0.0
 11
-99.700012207000015
 21
144.19999694820001
 31
0.0
  0
LINE
  5
1FE
  8
LAYER1$C$L1
 62
     3
 10
-104.4000091553
 20
145.0
 30
0.0
 11
-99.700012207000015
 21
145.0
 31
0.0
  0
LINE
  5
1FF
  8
LAYER1$C$L1
 62
     3
 10
-92.500022669900005
 20
144.99998129699989
 30
0.0
 11
-92.200018035599996
 21
144.69997666270001
 31
0.0
  0
LINE
  5
200
  8
LAYER1$C$L1
 62
     3
 10
-99.700004418299997
 20
145.4999710381999
 30
0.0
 11
-99.200003887500003
 21
144.99997050740001
 31
0.0
  0
LINE
  5
201
  8
LAYER1$C$L1
 62
     3
 10
-99.200012207000015
 20
145.0
 30
0.0
 11
-92.5
 21
145.0
 31
0.0
  0
LINE
  5
202
  8
LAYER1$C$L1
 62
     3
 10
-99.200012207000015
 20
145.0
 30
0.0
 11
-99.200012207000015
 21
131.0
 31
0.0
  0
LINE
  5
203
  8
LAYER1$C$L1
 62
     3
 10
-92.5
 20
145.0
 30
0.0
 11
-92.5
 21
131.0
 31
0.0
  0
LINE
  5
204
  8
LAYER1$C$L1
 62
     3
 10
-92.199996948199995
 20
144.69999694820001
 30
0.0
 11
-92.199996948199995
 21
131.0
 31
0.0
  0
LINE
  5
205
  8
LAYER1$C$L1
 62
     3
 10
-104.4000091553
 20
145.5
 30
0.0
 11
-99.700012207000015
 21
145.5
 31
0.0
  0
LINE
  5
206
  8
LAYER1$C$L1
 62
     3
 10
-99.700012207000015
 20
145.5
 30
0.0
 11
-99.700012207000015
 21
131.0
 31
0.0
  0
LINE
  5
207
  8
LAYER1$C$L1
 62
     3
 10
-105.1999816109
 20
144.49995540299989
 30
0.0
 11
-104.3999818776
 21
145.49995506959991
 31
0.0
  0
LINE
  5
208
  8
LAYER1$C$L1
 62
     3
 10
-104.4000091553
 20
145.5
 30
0.0
 11
-104.4000091553
 21
131.0
 31
0.0
  0
LINE
  5
209
  8
LAYER1$C$L1
 62
     3
 10
-105.1999969481999
 20
144.5
 30
0.0
 11
-105.1999969481999
 21
131.0
 31
0.0
  0
LINE
  5
20A
  8
LAYER1$C$L1
 62
     3
 10
-126.5999908446999
 20
125.6999969481999
 30
0.0
 11
-126.5999908446999
 21
117.6999969481999
 31
0.0
  0
LINE
  5
20B
  8
LAYER1$C$L1
 62
     3
 10
-154.69999694820001
 20
116.1999969482
 30
0.0
 11
-133.69999694820001
 21
116.1999969482
 31
0.0
  0
LINE
  5
20C
  8
LAYER1$C$L1
 62
     3
 10
-154.69999694820001
 20
130.99983215329991
 30
0.0
 11
-154.69999694820001
 21
116.1999969482
 31
0.0
  0
LINE
  5
214
  8
LAYER1$C$L1
 62
     3
 10
-133.69999694820001
 20
145.79981994629989
 30
0.0
 11
-133.69999694820001
 21
135.19981384280001
 31
0.0
  0
LINE
  5
215
  8
LAYER1$C$L1
 62
     3
 10
-133.69999694820001
 20
117.6999969481999
 30
0.0
 11
-126.5999908446999
 21
117.6999969481999
 31
0.0
  0
LINE
  5
216
  8
LAYER1$C$L1
 62
     3
 10
-133.69999694820001
 20
125.6999969481999
 30
0.0
 11
-126.5999908446999
 21
125.6999969481999
 31
0.0
  0
LINE
  5
219
  8
LAYER1$C$L1
 62
     3
 10
-133.69999694820001
 20
126.7998504639
 30
0.0
 11
-133.69999694820001
 21
116.1999969482
 31
0.0
  0
LINE
  5
21A
  8
LAYER1$C$L1
 62
     3
 10
-127.39999389649989
 20
125.6999969481999
 30
0.0
 11
-127.39999389649989
 21
117.6999969481999
 31
0.0
  0
LINE
  5
21B
  8
LAYER1$C$L1
 62
     3
 10
-145.10000610349991
 20
125.6999969481999
 30
0.0
 11
-145.10000610349991
 21
121.0000457764
 31
0.0
  0
LINE
  5
21C
  8
LAYER1$C$L1
 62
     3
 10
-124.6999969481999
 20
118.0
 30
0.0
 11
-121.6999969481999
 21
118.0
 31
0.0
  0
LINE
  5
21D
  8
LAYER1$C$L1
 62
     3
 10
-124.6999969481999
 20
125.39999389650001
 30
0.0
 11
-121.6999969481999
 21
125.39999389650001
 31
0.0
  0
LINE
  5
21E
  8
LAYER1$C$L1
 62
     3
 10
-124.6999969481999
 20
125.39999389650001
 30
0.0
 11
-124.6999969481999
 21
118.0
 31
0.0
  0
LINE
  5
21F
  8
LAYER1$C$L1
 62
     3
 10
-121.6999969481999
 20
125.39999389650001
 30
0.0
 11
-121.6999969481999
 21
118.0
 31
0.0
  0
LINE
  5
220
  8
LAYER1$C$L1
 62
     3
 10
-127.39999389649989
 20
138.0999908446999
 30
0.0
 11
-124.1999969482
 21
138.0999908446999
 31
0.0
  0
LINE
  5
221
  8
LAYER1$C$L1
 62
     3
 10
-127.39999389649989
 20
142.49998474119991
 30
0.0
 11
-124.1999969482
 21
142.49998474119991
 31
0.0
  0
LINE
  5
222
  8
LAYER1$C$L1
 62
     3
 10
-124.1999969482
 20
142.49998474119991
 30
0.0
 11
-124.1999969482
 21
138.0999908446999
 31
0.0
  0
LINE
  5
223
  8
LAYER1$C$L1
 62
     3
 10
-127.39999389649989
 20
142.49998474119991
 30
0.0
 11
-127.39999389649989
 21
138.0999908446999
 31
0.0
  0
LINE
  5
224
  8
LAYER1$C$L1
 62
     3
 10
-110.88000488279999
 20
128.89999389650001
 30
0.0
 11
-112.0
 21
128.89999389650001
 31
0.0
  0
LINE
  5
225
  8
LAYER1$C$L1
 62
     3
 10
-109.4933471679999
 20
126.2999877929999
 30
0.0
 11
-112.0
 21
126.2999877929999
 31
0.0
  0
LINE
  5
226
  8
LAYER1$C$L1
 62
     3
 10
-108.26667785639999
 20
124.0
 30
0.0
 11
-112.0
 21
124.0
 31
0.0
  0
LINE
  5
227
  8
LAYER1$C$L1
 62
     3
 10
-107.1999969481999
 20
122.0
 30
0.0
 11
-112.0
 21
122.0
 31
0.0
  0
LINE
  5
228
  8
LAYER1$C$L1
 62
     3
 10
-107.1999969481999
 20
120.2999877929999
 30
0.0
 11
-112.0
 21
120.2999877929999
 31
0.0
  0
LINE
  5
229
  8
LAYER1$C$L1
 62
     3
 10
-107.1999969481999
 20
118.89999389649989
 30
0.0
 11
-112.0
 21
118.89999389649989
 31
0.0
  0
LINE
  5
22A
  8
LAYER1$C$L1
 62
     3
 10
-107.1999969481999
 20
117.7999877929999
 30
0.0
 11
-112.0
 21
117.7999877929999
 31
0.0
  0
LINE
  5
22B
  8
LAYER1$C$L1
 62
     3
 10
-107.1999969481999
 20
117.0
 30
0.0
 11
-112.0
 21
117.0
 31
0.0
  0
LINE
  5
22C
  8
LAYER1$C$L1
 62
     3
 10
-108.32000732420001
 20
133.0999908446999
 30
0.0
 11
-107.1999969481999
 21
133.0999908446999
 31
0.0
  0
LINE
  5
22D
  8
LAYER1$C$L1
 62
     3
 10
-109.70668029789999
 20
135.69999694820001
 30
0.0
 11
-107.1999969481999
 21
135.69999694820001
 31
0.0
  0
LINE
  5
22E
  8
LAYER1$C$L1
 62
     3
 10
-110.9333496094
 20
137.99998474119991
 30
0.0
 11
-107.1999969481999
 21
137.99998474119991
 31
0.0
  0
LINE
  5
22F
  8
LAYER1$C$L1
 62
     3
 10
-112.0
 20
139.99998474119991
 30
0.0
 11
-107.1999969481999
 21
139.99998474119991
 31
0.0
  0
LINE
  5
230
  8
LAYER1$C$L1
 62
     3
 10
-112.0
 20
141.69999694820001
 30
0.0
 11
-107.1999969481999
 21
141.69999694820001
 31
0.0
  0
LINE
  5
231
  8
LAYER1$C$L1
 62
     3
 10
-112.0
 20
143.09999084469999
 30
0.0
 11
-107.1999969481999
 21
143.09999084469999
 31
0.0
  0
LINE
  5
232
  8
LAYER1$C$L1
 62
     3
 10
-112.0
 20
144.19999694820001
 30
0.0
 11
-107.1999969481999
 21
144.19999694820001
 31
0.0
  0
LINE
  5
233
  8
LAYER1$C$L1
 62
     3
 10
-112.0
 20
145.0
 30
0.0
 11
-107.1999969481999
 21
145.0
 31
0.0
  0
LINE
  5
234
  8
LAYER1$C$L1
 62
     3
 10
-114.5
 20
119.7999877929999
 30
0.0
 11
-118.200012207
 21
119.7999877929999
 31
0.0
  0
LINE
  5
235
  8
LAYER1$C$L1
 62
     3
 10
-112.0
 20
130.0
 30
0.0
 11
-113.5
 21
130.0
 31
0.0
  0
LINE
  5
236
  8
LAYER1$C$L1
 62
     3
 10
-107.1999969481999
 20
116.5
 30
0.0
 11
-112.0
 21
116.5
 31
0.0
  0
LINE
  5
237
  8
LAYER1$C$L1
 62
     3
 10
-114.5
 20
131.0
 30
0.0
 11
-114.5
 21
117.0
 31
0.0
  0
LINE
  5
238
  8
LAYER1$C$L1
 62
     3
 10
-112.0
 20
131.0
 30
0.0
 11
-112.0
 21
116.5
 31
0.0
  0
LINE
  5
239
  8
LAYER1$C$L1
 62
     3
 10
-107.1999969481999
 20
131.0
 30
0.0
 11
-107.1999969481999
 21
116.5
 31
0.0
  0
LINE
  5
23A
  8
LAYER1$C$L1
 62
     3
 10
-112.0
 20
117.0
 30
0.0
 11
-114.5
 21
117.0
 31
0.0
  0
LINE
  5
23B
  8
LAYER1$C$L1
 62
     3
 10
-114.5
 20
127.75
 30
0.0
 11
-118.200012207
 21
127.75
 31
0.0
  0
LINE
  5
23C
  8
LAYER1$C$L1
 62
     3
 10
-121.89999389649989
 20
131.0
 30
0.0
 11
-121.89999389649989
 21
126.7999877929999
 31
0.0
  0
LINE
  5
23D
  8
LAYER1$C$L1
 62
     3
 10
-126.0999908446999
 20
129.89999389649989
 30
0.0
 11
-126.0999908446999
 21
130.9999847412
 31
0.0
  0
LINE
  5
23E
  8
LAYER1$C$L1
 62
     3
 10
-133.69999694820001
 20
131.0
 30
0.0
 11
-133.69999694820001
 21
129.89999389649989
 31
0.0
  0
LINE
  5
24B
  8
LAYER1$C$L1
 62
     3
 10
-133.69999694820001
 20
129.89999389649989
 30
0.0
 11
-125.6999969481999
 21
129.89999389649989
 31
0.0
  0
LINE
  5
24C
  8
LAYER1$C$L1
 62
     3
 10
-120.1999969482
 20
131.0
 30
0.0
 11
-120.1999969482
 21
126.7999877929999
 31
0.0
  0
LINE
  5
24D
  8
LAYER1$C$L1
 62
     3
 10
-119.6999969481999
 20
131.0
 30
0.0
 11
-119.6999969481999
 21
126.7999877929999
 31
0.0
  0
LINE
  5
24E
  8
LAYER1$C$L1
 62
     3
 10
-119.6999969481999
 20
126.7999877929999
 30
0.0
 11
-133.69999694820001
 21
126.7999877929999
 31
0.0
  0
LINE
  5
24F
  8
LAYER1$C$L1
 62
     3
 10
-104.4000091553
 20
77.199996948199995
 30
0.0
 11
-99.700012207000015
 21
77.199996948199995
 31
0.0
  0
LINE
  5
250
  8
LAYER1$C$L1
 62
     3
 10
-104.4000091553
 20
74.699996948199995
 30
0.0
 11
-99.700012207000015
 21
74.699996948199995
 31
0.0
  0
LINE
  5
251
  8
LAYER1$C$L1
 62
     3
 10
-104.4000091553
 20
72.999984741199995
 30
0.0
 11
-99.700012207000015
 21
72.999984741199995
 31
0.0
  0
LINE
  5
252
  8
LAYER1$C$L1
 62
     3
 10
-104.4000091553
 20
76.099990844700002
 30
0.0
 11
-99.700012207000015
 21
76.099990844700002
 31
0.0
  0
LINE
  5
253
  8
LAYER1$C$L1
 62
     3
 10
-118.200012207
 20
120.0
 30
0.0
 11
-119.1999969482
 21
120.0
 31
0.0
  0
LINE
  5
254
  8
LAYER1$C$L1
 62
     3
 10
-105.700012207
 20
129.39999389650001
 30
0.0
 11
-105.700012207
 21
120.0
 31
0.0
  0
LINE
  5
255
  8
LAYER1$C$L1
 62
     3
 10
-106.9000091553
 20
131.0
 30
0.0
 11
-106.9000091553
 21
129.39999389650001
 31
0.0
  0
LINE
  5
256
  8
LAYER1$C$L1
 62
     3
 10
-105.1999969481999
 20
129.39999389650001
 30
0.0
 11
-106.9000091553
 21
129.39999389650001
 31
0.0
  0
LINE
  5
257
  8
LAYER1$C$L1
 62
     3
 10
-118.200012207
 20
127.75
 30
0.0
 11
-119.6999969481999
 21
127.75
 31
0.0
  0
LINE
  5
258
  8
LAYER1$C$L1
 62
     3
 10
-133.69999694820001
 20
129.89999389649989
 30
0.0
 11
-133.69999694820001
 21
131.0
 31
0.0
  0
LINE
  5
259
  8
LAYER1$C$L1
 62
     3
 10
-105.1999969481999
 20
120.0
 30
0.0
 11
-107.1999969481999
 21
120.0
 31
0.0
  0
LINE
  5
25A
  8
LAYER1$C$L1
 62
     3
 10
-118.200012207
 20
142.19999694820001
 30
0.0
 11
-114.5
 21
142.19999694820001
 31
0.0
  0
LINE
  5
25B
  8
LAYER1$C$L1
 62
     3
 10
-119.6999969481999
 20
126.7999877929999
 30
0.0
 11
-119.6999969481999
 21
116.6999969481999
 31
0.0
  0
LINE
  5
25C
  8
LAYER1$C$L1
 62
     3
 10
-118.200012207
 20
127.75
 30
0.0
 11
-118.200012207
 21
119.0
 31
0.0
  0
LINE
  5
25D
  8
LAYER1$C$L1
 62
     3
 10
-120.1999969482
 20
116.1999969482
 30
0.0
 11
-133.69999694820001
 21
116.1999969482
 31
0.0
  0
LINE
  5
25E
  8
LAYER1$C$L1
 62
     3
 10
-114.5
 20
119.0
 30
0.0
 11
-118.200012207
 21
119.0
 31
0.0
  0
LINE
  5
25F
  8
LAYER1$C$L1
 62
     3
 10
-133.69999694820001
 20
126.7999877929999
 30
0.0
 11
-133.69999694820001
 21
116.1999969482
 31
0.0
  0
LINE
  5
260
  8
LAYER1$C$L1
 62
     3
 10
-169.69998168949999
 20
63.999984741200002
 30
0.0
 11
-169.69998168949999
 21
60.000030517600003
 31
0.0
  0
LINE
  5
261
  8
LAYER1$C$L1
 62
     3
 10
-114.5
 20
145.0
 30
0.0
 11
-112.0
 21
145.0
 31
0.0
  0
LINE
  5
262
  8
LAYER1$C$L1
 62
     3
 10
-112.0
 20
145.5
 30
0.0
 11
-112.0
 21
131.0
 31
0.0
  0
LINE
  5
263
  8
LAYER1$C$L1
 62
     3
 10
-114.5
 20
145.0
 30
0.0
 11
-114.5
 21
131.0
 31
0.0
  0
LINE
  5
264
  8
LAYER1$C$L1
 62
     3
 10
-112.0
 20
145.5
 30
0.0
 11
-107.1999969481999
 21
145.5
 31
0.0
  0
LINE
  5
265
  8
LAYER1$C$L1
 62
     3
 10
-113.5
 20
132.0
 30
0.0
 11
-112.0
 21
132.0
 31
0.0
  0
LINE
  5
266
  8
LAYER1$C$L1
 62
     3
 10
-107.1999969481999
 20
145.5
 30
0.0
 11
-107.1999969481999
 21
131.0
 31
0.0
  0
LINE
  5
267
  8
LAYER1$C$L1
 62
     3
 10
-92.5
 20
78.0
 30
0.0
 11
-92.5
 21
64.0
 31
0.0
  0
LINE
  5
268
  8
LAYER1$C$L1
 62
     3
 10
-99.200012207000015
 20
78.0
 30
0.0
 11
-92.5
 21
78.0
 31
0.0
  0
LINE
  5
269
  8
LAYER1$C$L1
 62
     3
 10
-99.699997893999992
 20
78.499979577700003
 30
0.0
 11
-99.199997363200012
 21
77.999979004700009
 31
0.0
  0
LINE
  5
26A
  8
LAYER1$C$L1
 62
     3
 10
-92.500005073600008
 20
78.000000301499995
 30
0.0
 11
-92.200000439299984
 21
77.699995641900003
 31
0.0
  0
LINE
  5
26B
  8
LAYER1$C$L1
 62
     3
 10
-104.4000091553
 20
78.0
 30
0.0
 11
-99.700012207000015
 21
78.0
 31
0.0
  0
LINE
  5
26C
  8
LAYER1$C$L1
 62
     3
 10
-99.200012207000015
 20
78.0
 30
0.0
 11
-99.200012207000015
 21
64.0
 31
0.0
  0
LINE
  5
26D
  8
LAYER1$C$L1
 62
     3
 10
-105.19998693549989
 20
77.499961665299992
 30
0.0
 11
-104.39998720219999
 21
78.499961255599999
 31
0.0
  0
LINE
  5
26E
  8
LAYER1$C$L1
 62
     3
 10
-99.700012207000015
 20
78.5
 30
0.0
 11
-99.700012207000015
 21
64.0
 31
0.0
  0
LINE
  5
26F
  8
LAYER1$C$L1
 62
     3
 10
-104.4000091553
 20
78.5
 30
0.0
 11
-99.700012207000015
 21
78.5
 31
0.0
  0
LINE
  5
270
  8
LAYER1$C$L1
 62
     3
 10
-92.199996948199995
 20
77.699996948199995
 30
0.0
 11
-92.199996948199995
 21
64.0
 31
0.0
  0
DIMENSION
  5
271
  8
DIMENSIONS
  2
*D25
 10
-92.199996948199995
 20
109.0
 30
0.0
 11
-68.342895636149024
 21
109.0
 31
0.0
 70
   128
  1
<>13
 13
-105.1999969481999
 23
117.5
 33
0.0
 14
-92.199996948199995
 24
117.2999877929999
 34
0.0
1001
ACAD
1000
DSTYLE
1002
{
1070
    41
1040
1.9727878464999999
1070
    42
1040
2.5399999618999991
1070
    44
1040
3.8099999427999989
1070
    73
1070
     0
1070
   140
1040
3.1999998092999991
1070
   271
1070
     1
1070
   272
1070
     1
1002
}
  0
LINE
  5
27D
  8
LAYER1$C$L1
 62
     3
 10
-104.4000091553
 20
78.5
 30
0.0
 11
-104.4000091553
 21
64.0
 31
0.0
  0
LINE
  5
27E
  8
LAYER1$C$L1
 62
     3
 10
-105.1999969481999
 20
53.0
 30
0.0
 11
-107.1999969481999
 21
53.0
 31
0.0
  0
LINE
  5
27F
  8
LAYER1$C$L1
 62
     3
 10
-114.5
 20
52.799987793
 30
0.0
 11
-118.200012207
 21
52.799987793
 31
0.0
  0
LINE
  5
280
  8
LAYER1$C$L1
 62
     3
 10
-110.88000488279999
 20
61.899993896499993
 30
0.0
 11
-112.0
 21
61.899993896499993
 31
0.0
  0
LINE
  5
281
  8
LAYER1$C$L1
 62
     3
 10
-105.1999969481999
 20
77.5
 30
0.0
 11
-105.1999969481999
 21
64.0
 31
0.0
  0
LINE
  5
282
  8
LAYER1$C$L1
 62
     3
 10
-126.0999908446999
 20
130.9999847412
 30
0.0
 11
-126.0999908446999
 21
132.0999908446999
 31
0.0
  0
LINE
  5
283
  8
LAYER1$C$L1
 62
     3
 10
-118.200012207
 20
134.25
 30
0.0
 11
-114.5
 21
134.25
 31
0.0
  0
LINE
  5
286
  8
LAYER1$C$L1
 62
     3
 10
-133.69999694820001
 20
132.0999908446999
 30
0.0
 11
-133.69999694820001
 21
131.0
 31
0.0
  0
LINE
  5
287
  8
LAYER1$C$L1
 62
     3
 10
-125.6999969481999
 20
132.0999908446999
 30
0.0
 11
-133.69999694820001
 21
132.0999908446999
 31
0.0
  0
LINE
  5
288
  8
LAYER1$C$L1
 62
     3
 10
-120.1999969482
 20
135.19999694820001
 30
0.0
 11
-120.1999969482
 21
131.0
 31
0.0
  0
LINE
  5
289
  8
LAYER1$C$L1
 62
     3
 10
-119.6999969481999
 20
135.19999694820001
 30
0.0
 11
-119.6999969481999
 21
131.0
 31
0.0
  0
LINE
  5
28A
  8
LAYER1$C$L1
 62
     3
 10
-133.69999694820001
 20
135.19999694820001
 30
0.0
 11
-119.6999969481999
 21
135.19999694820001
 31
0.0
  0
LINE
  5
28B
  8
LAYER1$C$L1
 62
     3
 10
-133.69999694820001
 20
131.0
 30
0.0
 11
-133.69999694820001
 21
132.0999908446999
 31
0.0
  0
LINE
  5
28C
  8
LAYER1$C$L1
 62
     3
 10
-133.69999694820001
 20
136.2999877929999
 30
0.0
 11
-119.6999969481999
 21
136.2999877929999
 31
0.0
  0
LINE
  5
28D
  8
LAYER1$C$L1
 62
     3
 10
-119.6999969481999
 20
134.25
 30
0.0
 11
-118.200012207
 21
134.25
 31
0.0
  0
LINE
  5
28E
  8
LAYER1$C$L1
 62
     3
 10
-106.9000091553
 20
132.5999908446999
 30
0.0
 11
-105.1999969481999
 21
132.5999908446999
 31
0.0
  0
LINE
  5
28F
  8
LAYER1$C$L1
 62
     3
 10
-106.9000091553
 20
132.5999908446999
 30
0.0
 11
-106.9000091553
 21
131.0
 31
0.0
  0
LINE
  5
290
  8
LAYER1$C$L1
 62
     3
 10
-105.700012207
 20
142.0
 30
0.0
 11
-105.700012207
 21
132.5999908446999
 31
0.0
  0
LINE
  5
291
  8
LAYER1$C$L1
 62
     3
 10
-107.1999969481999
 20
142.0
 30
0.0
 11
-105.1999969481999
 21
142.0
 31
0.0
  0
LINE
  5
292
  8
LAYER1$C$L1
 62
     3
 10
-119.1999969482
 20
142.0
 30
0.0
 11
-118.200012207
 21
142.0
 31
0.0
  0
LINE
  5
293
  8
LAYER1$C$L1
 62
     3
 10
-118.200012207
 20
143.0
 30
0.0
 11
-114.5
 21
143.0
 31
0.0
  0
LINE
  5
294
  8
LAYER1$C$L1
 62
     3
 10
-133.69999694820001
 20
145.7999877929999
 30
0.0
 11
-120.1999969482
 21
145.7999877929999
 31
0.0
  0
LINE
  5
295
  8
LAYER1$C$L1
 62
     3
 10
-118.200012207
 20
143.0
 30
0.0
 11
-118.200012207
 21
134.25
 31
0.0
  0
LINE
  5
296
  8
LAYER1$C$L1
 62
     3
 10
-119.6999969481999
 20
145.2999877929999
 30
0.0
 11
-119.6999969481999
 21
135.19999694820001
 31
0.0
  0
LINE
  5
297
  8
LAYER1$C$L1
 62
     3
 10
-133.69999694820001
 20
145.7999877929999
 30
0.0
 11
-133.69999694820001
 21
135.19999694820001
 31
0.0
  0
LINE
  5
298
  8
LAYER3$C$L3
  6
CENTERLINE
 62
     3
 10
-178.2317657470999
 20
131.0
 30
0.0
 11
-78.199996948199995
 21
131.0
 31
0.0
  0
LINE
  5
299
  8
LAYER3$C$L3
  6
CENTERLINE
 62
     3
 10
-65.300003051800005
 20
64.0
 30
0.0
 11
-30.700012207
 21
64.0
 31
0.0
  0
LINE
  5
29A
  8
LAYER1$C$L1
 62
     3
 10
-48.000015258799991
 20
80.5
 30
0.0
 11
-43.800003051799997
 21
80.5
 31
0.0
  0
LINE
  5
29B
  8
LAYER1$C$L1
 62
     3
 10
-48.000015258799991
 20
47.5
 30
0.0
 11
-43.800003051799997
 21
47.5
 31
0.0
  0
LINE
  5
29C
  8
LAYER1$C$L1
 62
     3
 10
-43.800003051799997
 20
82.5
 30
0.0
 11
-43.800003051799997
 21
80.5
 31
0.0
  0
LINE
  5
29D
  8
LAYER1$C$L1
 62
     3
 10
-43.800003051799997
 20
47.5
 30
0.0
 11
-43.800003051799997
 21
45.499999999999993
 31
0.0
  0
LINE
  5
29E
  8
LAYER1$C$L1
 62
     3
 10
-46.90000915529999
 20
82.5
 30
0.0
 11
-46.90000915529999
 21
80.5
 31
0.0
  0
LINE
  5
29F
  8
LAYER1$C$L1
 62
     3
 10
-46.90000915529999
 20
47.5
 30
0.0
 11
-46.90000915529999
 21
45.499999999999993
 31
0.0
  0
LINE
  5
2A0
  8
LAYER1$C$L1
 62
     3
 10
-42.700012207
 20
82.0
 30
0.0
 11
-42.700012207
 21
82.5
 31
0.0
  0
LINE
  5
2A1
  8
LAYER1$C$L1
 62
     3
 10
-42.700012207
 20
46.0
 30
0.0
 11
-42.700012207
 21
45.499999999999993
 31
0.0
  0
LINE
  5
2A2
  8
LAYER1$C$L1
 62
     3
 10
-42.700012207
 20
82.0
 30
0.0
 11
-34.200012207
 21
82.0
 31
0.0
  0
LINE
  5
2A3
  8
LAYER1$C$L1
 62
     3
 10
-42.700012207
 20
46.0
 30
0.0
 11
-34.200012207
 21
46.0
 31
0.0
  0
LINE
  5
2A4
  8
LAYER1$C$L1
 62
     3
 10
-33.200012207
 20
81.0
 30
0.0
 11
-33.200012207
 21
47.0
 31
0.0
  0
LINE
  5
2A5
  8
LAYER1$C$L1
 62
     3
 10
-52.200012207
 20
80.5
 30
0.0
 11
-48.000015258799991
 21
80.5
 31
0.0
  0
LINE
  5
2A6
  8
LAYER1$C$L1
 62
     3
 10
-52.200012207
 20
47.5
 30
0.0
 11
-48.000015258799991
 21
47.5
 31
0.0
  0
LINE
  5
2A7
  8
LAYER3$C$L3
  6
CENTERLINE
 62
     3
 10
-48.0
 20
84.3240356445
 30
0.0
 11
-48.0
 21
43.115325927699999
 31
0.0
  0
LINE
  5
2A8
  8
LAYER1$C$L1
 62
     3
 10
-42.700012207
 20
45.499999999999993
 30
0.0
 11
-53.300003051799997
 21
45.499999999999993
 31
0.0
  0
LINE
  5
2A9
  8
LAYER1$C$L1
 62
     3
 10
-52.200012207
 20
80.5
 30
0.0
 11
-52.200012207
 21
82.5
 31
0.0
  0
LINE
  5
2AA
  8
LAYER1$C$L1
 62
     3
 10
-52.200012207
 20
45.499999999999993
 30
0.0
 11
-52.200012207
 21
47.5
 31
0.0
  0
LINE
  5
2AB
  8
LAYER1$C$L1
 62
     3
 10
-49.1000061035
 20
80.5
 30
0.0
 11
-49.1000061035
 21
82.5
 31
0.0
  0
LINE
  5
2AC
  8
LAYER1$C$L1
 62
     3
 10
-49.1000061035
 20
45.499999999999993
 30
0.0
 11
-49.1000061035
 21
47.5
 31
0.0
  0
DIMENSION
  5
2AD
  8
DIMENSIONS
  2
*D26
 10
-33.199996948200003
 20
88.499999999999986
 30
0.0
 11
-47.99999237059999
 21
88.499999999999986
 31
0.0
 70
     0
  1
<>30
 13
-62.799987793
 23
81.0
 33
0.0
 14
-33.199996948200003
 24
80.999984741199995
 34
0.0
1001
ACAD
1000
DSTYLE
1002
{
1070
    41
1040
1.9727878464999999
1070
    42
1040
2.5399999618999991
1070
    44
1040
3.8099999427999989
1070
    73
1070
     0
1070
   140
1040
3.1999998092999991
1070
   271
1070
     1
1070
   272
1070
     1
1002
}
  0
LINE
  5
2B9
  8
LAYER1$C$L1
 62
     3
 10
-53.300003051799997
 20
82.5
 30
0.0
 11
-42.700012207
 21
82.5
 31
0.0
  0
LINE
  5
2BA
  8
LAYER1$C$L1
 62
     3
 10
-53.300003051799997
 20
82.5
 30
0.0
 11
-53.300003051799997
 21
82.0
 31
0.0
  0
LINE
  5
2BB
  8
LAYER1$C$L1
 62
     3
 10
-53.300003051799997
 20
45.499999999999993
 30
0.0
 11
-53.300003051799997
 21
46.0
 31
0.0
  0
LINE
  5
2BC
  8
LAYER1$C$L1
 62
     3
 10
-61.800003051799997
 20
82.0
 30
0.0
 11
-53.300003051799997
 21
82.0
 31
0.0
  0
LINE
  5
2BD
  8
LAYER1$C$L1
 62
     3
 10
-61.800003051799997
 20
46.0
 30
0.0
 11
-53.300003051799997
 21
46.0
 31
0.0
  0
LINE
  5
2BE
  8
LAYER1$C$L1
 62
     3
 10
-62.800003051799997
 20
47.0
 30
0.0
 11
-62.800003051799997
 21
81.0
 31
0.0
  0
LINE
  5
2C3
  8
LAYER1$C$L1
 62
     3
 10
-121.9999847412
 20
126.80001831049999
 30
0.0
 11
-121.9999847412
 21
129.90002441409999
 31
0.0
  0
LINE
  5
2C4
  8
LAYER1$C$L1
 62
     3
 10
-133.70014953610001
 20
129.90002441409999
 30
0.0
 11
-121.9999847412
 21
129.90002441409999
 31
0.0
  0
LINE
  5
2C5
  8
LAYER1$C$L1
 62
     3
 10
-133.69999694820001
 20
132.09980773929991
 30
0.0
 11
-133.69999694820001
 21
129.89982604979991
 31
0.0
  0
LINE
  5
2C6
  8
LAYER1$C$L1
 62
     3
 10
-133.70014953610001
 20
132.09997558590001
 30
0.0
 11
-121.9999847412
 21
132.09997558590001
 31
0.0
  0
LINE
  5
2C7
  8
LAYER1$C$L1
 62
     3
 10
-121.9999847412
 20
135.19998168949999
 30
0.0
 11
-121.9999847412
 21
132.09997558590001
 31
0.0
  0
ARC
  5
2CF
  8
LAYER1$C$L1
 62
     3
 10
-169.39990234379991
 20
119.7998504639
 30
0.0
 40
0.2999999522999999
 50
180.00003597220001
 51
270.00001798609998
  0
ARC
  5
2D0
  8
LAYER1$C$L1
 62
     3
 10
-169.39990234379991
 20
120.6999969481999
 30
0.0
 40
0.2999999522999999
 50
89.999927372399995
 51
179.9999093863
  0
ARC
  5
2D1
  8
LAYER1$C$L1
 62
     3
 10
-167.69990539549991
 20
141.2997894287
 30
0.0
 40
0.2999999522999999
 50
180.00003597220001
 51
270.00001798609998
  0
ARC
  5
2D2
  8
LAYER1$C$L1
 62
     3
 10
-167.69990539549991
 20
142.1997833252
 30
0.0
 40
0.2999999522999999
 50
89.999927372399995
 51
179.9999093863
  0
ARC
  5
2D3
  8
LAYER1$C$L1
 62
     3
 10
-167.74658203129991
 20
123.0000457764
 30
0.0
 40
1.0
 50
213.5379586839
 51
270.00023655209992
  0
ARC
  5
2D4
  8
LAYER1$C$L1
 62
     3
 10
-167.74658203129991
 20
127.9998016356999
 30
0.0
 40
1.0
 50
89.999763447900008
 51
146.4620413161
  0
ARC
  5
2D5
  8
LAYER1$C$L1
 62
     3
 10
-163.97489929199989
 20
125.5000457763999
 30
0.0
 40
5.524999618499999
 50
146.4622598821999
 51
213.53772281499991
  0
ARC
  5
2D6
  8
LAYER1$C$L1
 62
     3
 10
-171.39991760250001
 20
131.69981384280001
 30
0.0
 40
0.2999999522999999
 50
89.999982013899995
 51
179.9999093863
  0
ARC
  5
2D7
  8
LAYER1$C$L1
 62
     3
 10
-161.49990844729999
 20
144.79978942869991
 30
0.0
 40
1.0
 50
89.999982013899995
 51
179.9999093863
  0
ARC
  5
2D8
  8
LAYER1$C$L1
 62
     3
 10
-171.39991760250001
 20
130.29978942869991
 30
0.0
 40
0.2999999522999999
 50
180.00003597220001
 51
270.00001798609998
  0
ARC
  5
2D9
  8
LAYER1$C$L1
 62
     3
 10
-161.49992370609999
 20
117.1999969482
 30
0.0
 40
1.0
 50
180.00003597220001
 51
270.00001798609998
  0
ARC
  5
2DA
  8
LAYER1$C$L1
 62
     3
 10
-163.97488403319991
 20
136.49980163570001
 30
0.0
 40
5.524999618499999
 50
146.4622598821999
 51
213.53772281499991
  0
ARC
  5
2DB
  8
LAYER1$C$L1
 62
     3
 10
-167.7465667724999
 20
138.99980163570001
 30
0.0
 40
1.0
 50
89.999763447900008
 51
146.4620413161
  0
ARC
  5
2DC
  8
LAYER1$C$L1
 62
     3
 10
-167.7465667724999
 20
133.99980163570001
 30
0.0
 40
1.0
 50
213.5379586839
 51
270.00023655209992
  0
ARC
  5
2DD
  8
LAYER1$C$L1
 62
     3
 10
-165.19998168949999
 20
119.8000488280999
 30
0.0
 40
0.3000000119
 50
179.9999640277999
 51
270.00000068319991
  0
ARC
  5
2DE
  8
LAYER1$C$L1
 62
     3
 10
-165.19998168949999
 20
131.6998291015999
 30
0.0
 40
0.3000000119
 50
89.999982013899995
 51
179.9999640277999
  0
LINE
  5
2E0
  8
LAYER4$C$L4
  6
PHANTOM
 62
     3
 10
-171.69995117190001
 20
126.0000152588
 30
0.0
 11
-171.69995117190001
 21
118.0
 31
0.0
  0
LINE
  5
2E1
  8
LAYER4$C$L4
  6
PHANTOM
 62
     3
 10
-158.69995117190001
 20
129.0
 30
0.0
 11
-158.69995117190001
 21
127.10000610349999
 31
0.0
  0
LINE
  5
2E3
  8
LAYER4$C$L4
  6
PHANTOM
 62
     3
 10
-158.69995117190001
 20
134.89990234379999
 30
0.0
 11
-158.69995117190001
 21
130.8999328612999
 31
0.0
  0
LINE
  5
2F0
  8
LAYER1$C$L1
 62
     3
 10
-165.49978681179991
 20
134.3838095353
 30
0.0
 11
-165.9997991498999
 21
135.2498278306
 31
0.0
  0
LINE
  5
2F1
  8
LAYER1$C$L1
 62
     3
 10
-165.49999252680001
 20
138.61594499860001
 30
0.0
 11
-165.9999891885
 21
137.7499528937
 31
0.0
  0
LINE
  5
2F2
  8
LAYER1$C$L1
 62
     3
 10
-166.0
 20
135.24983215329991
 30
0.0
 11
-166.0
 21
137.74983215329991
 31
0.0
  0
LINE
  5
2F3
  8
LAYER1$C$L1
 62
     3
 10
-166.62254425730001
 20
140.49990304249991
 30
0.0
 11
-167.19990832409991
 21
139.49990142670001
 31
0.0
  0
LINE
  5
2F4
  8
LAYER1$C$L1
 62
     3
 10
-166.62245590699999
 20
132.5000067002
 30
0.0
 11
-167.19975941940001
 21
133.4999023254
 31
0.0
  0
LINE
  5
2F5
  8
LAYER1$C$L1
 62
     3
 10
-167.19999694820001
 20
139.99983215329991
 30
0.0
 11
-167.7466583252
 21
139.99983215329991
 31
0.0
  0
LINE
  5
2F6
  8
LAYER1$C$L1
 62
     3
 10
-167.19999694820001
 20
132.99983215329999
 30
0.0
 11
-167.7466583252
 21
132.99983215329999
 31
0.0
  0
LINE
  5
2F7
  8
LAYER1$C$L1
 62
     3
 10
-166.62261962889991
 20
132.49983215329991
 30
0.0
 11
-165.5
 21
132.49983215329991
 31
0.0
  0
LINE
  5
2F8
  8
LAYER1$C$L1
 62
     3
 10
-165.5
 20
140.49983215329999
 30
0.0
 11
-166.62261962889991
 21
140.49983215329999
 31
0.0
  0
LINE
  5
2F9
  8
LAYER1$C$L1
 62
     3
 10
-167.19999694820001
 20
139.99983215329991
 30
0.0
 11
-167.19999694820001
 21
132.99983215329999
 31
0.0
  0
LINE
  5
2FA
  8
LAYER1$C$L1
 62
     3
 10
-169.6999664306999
 20
119.8000946045
 30
0.0
 11
-169.6999664306999
 21
120.6999969481999
 31
0.0
  0
LINE
  5
2FB
  8
LAYER1$C$L1
 62
     3
 10
-165.49996948239999
 20
121.0000457764
 30
0.0
 11
-169.39996337889991
 21
121.0000457764
 31
0.0
  0
LINE
  5
2FC
  8
LAYER1$C$L1
 62
     3
 10
-165.1999664306999
 20
119.5000457764
 30
0.0
 11
-169.39996337889991
 21
119.5000457764
 31
0.0
  0
LINE
  5
2FD
  8
LAYER1$C$L1
 62
     3
 10
-165.49996948239999
 20
140.99983215329991
 30
0.0
 11
-167.6999664306999
 21
140.99983215329991
 31
0.0
  0
LINE
  5
2FE
  8
LAYER1$C$L1
 62
     3
 10
-167.6999664306999
 20
142.49983215329991
 30
0.0
 11
-165.1999664306999
 21
142.49983215329991
 31
0.0
  0
LINE
  5
2FF
  8
LAYER1$C$L1
 62
     3
 10
-167.99996948239991
 20
142.19984436039999
 30
0.0
 11
-167.99996948239991
 21
141.2998504638999
 31
0.0
  0
LINE
  5
300
  8
LAYER1$C$L1
 62
     3
 10
-165.1999664306999
 20
142.49983215329991
 30
0.0
 11
-162.49996948239991
 21
142.49983215329991
 31
0.0
  0
LINE
  5
301
  8
LAYER1$C$L1
 62
     3
 10
-165.49996948239999
 20
140.99983215329991
 30
0.0
 11
-165.49996948239999
 21
131.99983215329999
 31
0.0
  0
LINE
  5
302
  8
LAYER1$C$L1
 62
     3
 10
-165.9999062929999
 20
126.74993692939999
 30
0.0
 11
-165.4999092139999
 21
127.6159287959
 31
0.0
  0
LINE
  5
303
  8
LAYER1$C$L1
 62
     3
 10
-165.99982480950001
 20
124.24993023339999
 30
0.0
 11
-165.49981288849989
 21
123.38391169969989
 31
0.0
  0
LINE
  5
304
  8
LAYER1$C$L1
 62
     3
 10
-165.99998474119991
 20
124.2500457763999
 30
0.0
 11
-165.99998474119991
 21
126.7500457764
 31
0.0
  0
LINE
  5
305
  8
LAYER1$C$L1
 62
     3
 10
-165.4999847412
 20
124.2500457763999
 30
0.0
 11
-165.4999847412
 21
126.7500457764
 31
0.0
  0
LINE
  5
306
  8
LAYER1$C$L1
 62
     3
 10
-167.19995674480001
 20
122.5001622023
 30
0.0
 11
-166.62255453040001
 21
121.5000945142999
 31
0.0
  0
LINE
  5
307
  8
LAYER1$C$L1
 62
     3
 10
-167.19988713469999
 20
128.49991338500001
 30
0.0
 11
-166.62252258609999
 21
129.49991472560001
 31
0.0
  0
LINE
  5
308
  8
LAYER1$C$L1
 62
     3
 10
-167.74664306639991
 20
122.0000457764
 30
0.0
 11
-167.19998168949999
 21
122.0000457764
 31
0.0
  0
LINE
  5
309
  8
LAYER1$C$L1
 62
     3
 10
-167.74664306639991
 20
128.9998626709
 30
0.0
 11
-167.19998168949999
 21
128.9998626709
 31
0.0
  0
LINE
  5
30A
  8
LAYER1$C$L1
 62
     3
 10
-165.4999847412
 20
129.4998626709
 30
0.0
 11
-166.62260437009991
 21
129.4998626709
 31
0.0
  0
LINE
  5
30B
  8
LAYER1$C$L1
 62
     3
 10
-166.62260437009991
 20
121.5000457764
 30
0.0
 11
-165.4999847412
 21
121.5000457764
 31
0.0
  0
LINE
  5
30C
  8
LAYER1$C$L1
 62
     3
 10
-167.19998168949999
 20
128.9998626709
 30
0.0
 11
-167.19998168949999
 21
122.0000457764
 31
0.0
  0
LINE
  5
30D
  8
LAYER1$C$L1
 62
     3
 10
-162.49998474119991
 20
131.99983215329999
 30
0.0
 11
-171.39991760250001
 21
131.99983215329999
 31
0.0
  0
LINE
  5
30E
  8
LAYER1$C$L1
 62
     3
 10
-165.19998168949999
 20
142.49983215329991
 30
0.0
 11
-162.49998474119991
 21
142.49983215329991
 31
0.0
  0
LINE
  5
30F
  8
LAYER1$C$L1
 62
     3
 10
-171.69998168949999
 20
131.69984436039999
 30
0.0
 11
-171.69998168949999
 21
130.99983215329991
 31
0.0
  0
ARC
  5
312
  8
LAYER4$C$L4
  6
PHANTOM
 62
     3
 10
-163.0999908446999
 20
54.600051879900001
 30
0.0
 40
0.5999999642000001
 50
270.00007262759988
 51
0.0
  0
ARC
  5
315
  8
LAYER1$C$L1
 62
     3
 10
-168.9122619629
 20
76.500015258800005
 30
0.0
 40
1.0
 50
89.999435598800005
 51
145.0263355525999
  0
ARC
  5
316
  8
LAYER1$C$L1
 62
     3
 10
-165.33834838870001
 20
74.000015258800005
 30
0.0
 40
5.3615283965999998
 50
145.02671804319999
 51
214.97326465399999
  0
ARC
  5
317
  8
LAYER1$C$L1
 62
     3
 10
-168.69989013669991
 20
68.900009155299983
 30
0.0
 40
1.0
 50
180.0000906137
 51
270.00001798609998
  0
ARC
  5
318
  8
LAYER1$C$L1
 62
     3
 10
-168.69989013669991
 20
73.000015258800005
 30
0.0
 40
1.0
 50
89.999982013899995
 51
179.9999640277999
  0
ARC
  5
319
  8
LAYER1$C$L1
 62
     3
 10
-164.49987792970001
 20
79.100006103499993
 30
0.0
 40
1.0
 50
89.999982013899995
 51
179.9999640277999
  0
ARC
  5
31A
  8
LAYER1$C$L1
 62
     3
 10
-170.69987487789999
 20
58.719268798800002
 30
0.0
 40
1.0
 50
104.0362393243
 51
179.9999640277999
  0
ARC
  5
31B
  8
LAYER1$C$L1
 62
     3
 10
-170.69987487789999
 20
49.350372314499992
 30
0.0
 40
1.0
 50
180.00003597220001
 51
260.73975679239999
  0
ARC
  5
31C
  8
LAYER1$C$L1
 62
     3
 10
-161.49987792970001
 20
81.000015258800005
 30
0.0
 40
1.0
 50
89.999982013899995
 51
179.9999640277999
  0
ARC
  5
31D
  8
LAYER1$C$L1
 62
     3
 10
-161.4998626709
 20
47.000030517600003
 30
0.0
 40
1.0
 50
180.00003597220001
 51
270.00001798609998
  0
LINE
  5
321
  8
LAYER4$C$L4
  6
PHANTOM
 62
     3
 10
-163.09997558590001
 20
54.000015258799998
 30
0.0
 11
-171.70002746579991
 21
54.000015258799998
 31
0.0
  0
LINE
  5
322
  8
LAYER4$C$L4
  6
PHANTOM
 62
     3
 10
-163.0999450683999
 20
64.0
 30
0.0
 11
-171.69999694820001
 21
64.0
 31
0.0
  0
LINE
  5
323
  8
LAYER4$C$L4
  6
PHANTOM
 62
     3
 10
-162.49995422360001
 20
54.6000061035
 30
0.0
 11
-162.49995422360001
 21
63.400009155299998
 31
0.0
  0
LINE
  5
331
  8
LAYER1$C$L1
 62
     3
 10
-169.69998168949999
 20
67.999969482400004
 30
0.0
 11
-169.69998168949999
 21
63.999984741200002
 31
0.0
  0
LINE
  5
332
  8
LAYER1$C$L1
 62
     3
 10
-168.1999664306999
 20
75.749969482400004
 30
0.0
 11
-168.39997863769989
 21
75.749969482400004
 31
0.0
  0
LINE
  5
333
  8
LAYER1$C$L1
 62
     3
 10
-165.49996948239999
 20
75.749969482400004
 30
0.0
 11
-166.69996643069999
 21
75.749969482400004
 31
0.0
  0
LINE
  5
334
  8
LAYER1$C$L1
 62
     3
 10
-168.19991832039989
 20
76.999986721300004
 30
0.0
 11
-167.62255583659999
 21
77.999989300799996
 31
0.0
  0
LINE
  5
335
  8
LAYER1$C$L1
 62
     3
 10
-167.62260437009991
 20
77.999969482400004
 30
0.0
 11
-166.69995117190001
 21
77.999969482400004
 31
0.0
  0
LINE
  5
336
  8
LAYER1$C$L1
 62
     3
 10
-168.1999664306999
 20
76.999969482400004
 30
0.0
 11
-168.1999664306999
 21
73.999969482400004
 31
0.0
  0
LINE
  5
337
  8
LAYER1$C$L1
 62
     3
 10
-166.69996643069999
 20
77.999969482400004
 30
0.0
 11
-166.69996643069999
 21
73.999969482400004
 31
0.0
  0
LINE
  5
338
  8
LAYER1$C$L1
 62
     3
 10
-168.9123535155999
 20
77.499969482400004
 30
0.0
 11
-168.39997863769989
 21
77.499969482400004
 31
0.0
  0
LINE
  5
339
  8
LAYER1$C$L1
 62
     3
 10
-168.39997863769989
 20
77.499969482400004
 30
0.0
 11
-168.39997863769989
 21
73.999969482400004
 31
0.0
  0
LINE
  5
33A
  8
LAYER1$C$L1
 62
     3
 10
-169.69998168949999
 20
68.899963378899997
 30
0.0
 11
-169.69998168949999
 21
63.999984741200002
 31
0.0
  0
LINE
  5
33B
  8
LAYER1$C$L1
 62
     3
 10
-162.49996948239991
 20
67.899963378899983
 30
0.0
 11
-168.69998168949999
 21
67.899963378899983
 31
0.0
  0
LINE
  5
33C
  8
LAYER1$C$L1
 62
     3
 10
-114.5
 20
52.0
 30
0.0
 11
-118.200012207
 21
52.0
 31
0.0
  0
LINE
  5
33D
  8
LAYER1$C$L1
 62
     3
 10
-107.1999969481999
 20
50.799987793
 30
0.0
 11
-112.0
 21
50.799987793
 31
0.0
  0
LINE
  5
33E
  8
LAYER1$C$L1
 62
     3
 10
-107.1999969481999
 20
53.299987793
 30
0.0
 11
-112.0
 21
53.299987793
 31
0.0
  0
LINE
  5
33F
  8
LAYER1$C$L1
 62
     3
 10
-107.1999969481999
 20
55.0
 30
0.0
 11
-112.0
 21
55.0
 31
0.0
  0
LINE
  5
340
  8
LAYER1$C$L1
 62
     3
 10
-108.26667785639999
 20
57.0
 30
0.0
 11
-112.0
 21
57.0
 31
0.0
  0
LINE
  5
341
  8
LAYER1$C$L1
 62
     3
 10
-109.4933471679999
 20
59.299987792999993
 30
0.0
 11
-112.0
 21
59.299987792999993
 31
0.0
  0
LINE
  5
342
  8
LAYER1$C$L1
 62
     3
 10
-107.1999969481999
 20
51.899993896499993
 30
0.0
 11
-112.0
 21
51.899993896499993
 31
0.0
  0
LINE
  5
343
  8
LAYER1$C$L1
 62
     3
 10
-107.1999969481999
 20
50.0
 30
0.0
 11
-112.0
 21
50.0
 31
0.0
  0
LINE
  5
344
  8
LAYER1$C$L1
 62
     3
 10
-112.0
 20
50.0
 30
0.0
 11
-114.5
 21
50.0
 31
0.0
  0
LINE
  5
345
  8
LAYER1$C$L1
 62
     3
 10
-107.1999969481999
 20
49.5
 30
0.0
 11
-112.0
 21
49.5
 31
0.0
  0
LINE
  5
346
  8
LAYER1$C$L1
 62
     3
 10
-112.0
 20
64.0
 30
0.0
 11
-112.0
 21
49.5
 31
0.0
  0
LINE
  5
347
  8
LAYER1$C$L1
 62
     3
 10
-114.5
 20
64.0
 30
0.0
 11
-114.5
 21
50.0
 31
0.0
  0
LINE
  5
348
  8
LAYER1$C$L1
 62
     3
 10
-107.1999969481999
 20
64.0
 30
0.0
 11
-107.1999969481999
 21
49.5
 31
0.0
  0
LINE
  5
349
  8
LAYER1$C$L1
 62
     3
 10
-119.6999969481999
 20
64.0
 30
0.0
 11
-119.6999969481999
 21
52.5
 31
0.0
  0
DIMENSION
  5
34A
  8
DIMENSIONS
  2
*D27
 10
-105.1999969481999
 20
95.755709001625164
 30
0.0
 11
-137.63598021571869
 21
95.755709001625164
 31
0.0
 70
   128
 13
-171.69998168949999
 23
130.99983215329991
 33
0.0
 14
-105.1999969481999
 24
117.5
 34
0.0
1001
ACAD
1000
DSTYLE
1002
{
1070
    41
1040
1.9727878464999999
1070
    42
1040
2.5399999618999991
1070
    44
1040
3.8099999427999989
1070
    73
1070
     0
1070
   140
1040
3.1999998092999991
1070
   271
1070
     1
1070
   272
1070
     1
1002
}
  0
LINE
  5
356
  8
LAYER1$C$L1
 62
     3
 10
-118.200012207
 20
53.0
 30
0.0
 11
-119.1999969482
 21
53.0
 31
0.0
  0
LINE
  5
357
  8
LAYER1$C$L1
 62
     3
 10
-118.200012207
 20
64.0
 30
0.0
 11
-118.200012207
 21
52.0
 31
0.0
  0
LINE
  5
358
  8
LAYER1$C$L1
 62
     3
 10
-120.1999969482
 20
46.0
 30
0.0
 11
-133.69999694820001
 21
46.0
 31
0.0
  0
LINE
  5
359
  8
LAYER1$C$L1
 62
     3
 10
-120.1999969482
 20
45.499999999999993
 30
0.0
 11
-133.69999694820001
 21
45.499999999999993
 31
0.0
  0
LINE
  5
35A
  8
LAYER1$C$L1
 62
     3
 10
-119.6999969481999
 20
52.5
 30
0.0
 11
-119.6999969481999
 21
46.0
 31
0.0
  0
LINE
  5
35B
  8
LAYER1$C$L1
 62
     3
 10
-133.69999694820001
 20
64.0
 30
0.0
 11
-133.69999694820001
 21
45.499999999999993
 31
0.0
  0
LINE
  5
35C
  8
LAYER1$C$L1
 62
     3
 10
-108.32000732420001
 20
66.099990844700002
 30
0.0
 11
-107.1999969481999
 21
66.099990844700002
 31
0.0
  0
LINE
  5
35D
  8
LAYER1$C$L1
 62
     3
 10
-112.0
 20
77.199996948199995
 30
0.0
 11
-107.1999969481999
 21
77.199996948199995
 31
0.0
  0
LINE
  5
35E
  8
LAYER1$C$L1
 62
     3
 10
-112.0
 20
74.699996948199995
 30
0.0
 11
-107.1999969481999
 21
74.699996948199995
 31
0.0
  0
LINE
  5
35F
  8
LAYER1$C$L1
 62
     3
 10
-112.0
 20
72.999984741199995
 30
0.0
 11
-107.1999969481999
 21
72.999984741199995
 31
0.0
  0
LINE
  5
360
  8
LAYER1$C$L1
 62
     3
 10
-110.9333496094
 20
70.999984741199995
 30
0.0
 11
-107.1999969481999
 21
70.999984741199995
 31
0.0
  0
LINE
  5
361
  8
LAYER1$C$L1
 62
     3
 10
-109.70668029789999
 20
68.699996948199995
 30
0.0
 11
-107.1999969481999
 21
68.699996948199995
 31
0.0
  0
LINE
  5
362
  8
LAYER1$C$L1
 62
     3
 10
-112.0
 20
76.099990844700002
 30
0.0
 11
-107.1999969481999
 21
76.099990844700002
 31
0.0
  0
LINE
  5
363
  8
LAYER1$C$L1
 62
     3
 10
-99.700012207000015
 20
49.5
 30
0.0
 11
-104.4000091553
 21
49.5
 31
0.0
  0
LINE
  5
364
  8
LAYER1$C$L1
 62
     3
 10
-165.49996948239999
 20
73.999969482400004
 30
0.0
 11
-168.69998168949999
 21
73.999969482400004
 31
0.0
  0
LINE
  5
365
  8
LAYER1$C$L1
 62
     3
 10
-169.69998168949999
 20
72.999969482400004
 30
0.0
 11
-169.69998168949999
 21
68.899963378899997
 31
0.0
  0
LINE
  5
366
  8
LAYER1$C$L1
 62
     3
 10
-165.49996948239999
 20
79.099960327100007
 30
0.0
 11
-165.49996948239999
 21
73.999969482400004
 31
0.0
  0
LINE
  5
367
  8
LAYER1$C$L1
 62
     3
 10
-164.49996948239991
 20
80.099960327100007
 30
0.0
 11
-162.49996948239991
 21
80.099960327100007
 31
0.0
  0
INSERT
  5
37A
  8
LAYER8$C$L8
 62
     3
 66
     1
  2
CADRA_ATTR_5
 10
0.0
 20
0.0
 30
0.0
  0
ATTRIB
  5
37B
  8
LAYER8$C$L8
 62
     3
 10
-39.491045999999997
 20
18.5
 30
0.0
 40
0.156
  1
ç?^HV  é
  2
20
 70
    11
  0
SEQEND
  5
37C
  8
LAYER8$C$L8
 62
     3
  0
INSERT
  5
4CC
  8
0
  2
*U30
 10
0.0
 20
0.0
 30
0.0
  0
ENDSEC
  0
EOF
