  0
SECTION
  2
HEADER
  9
$ACADVER
  1
AC1009
  9
$INSBASE
 10
0.0
 20
0.0
 30
0.0
  9
$EXTMIN
 10
-191.0
 20
0.0
 30
0.0
  9
$EXTMAX
 10
0.0
 20
175.4783996818968
 30
0.0
  9
$LIMMIN
 10
-215.17524414059989
 20
-3.1749999999999989
  9
$LIMMAX
 10
3.1749999999999989
 20
300.17500000000001
  9
$ORTHOMODE
 70
     1
  9
$REGENMODE
 70
     1
  9
$FILLMODE
 70
     1
  9
$QTEXTMODE
 70
     0
  9
$MIRRTEXT
 70
     0
  9
$DRAGMODE
 70
     2
  9
$LTSCALE
 40
1.0
  9
$OSMODE
 70
    39
  9
$ATTMODE
 70
     1
  9
$TEXTSIZE
 40
3.1999998092999991
  9
$TRACEWID
 40
0.05
  9
$TEXTSTYLE
  7
STANDARD
  9
$CLAYER
  8
DIMENSIONS
  9
$CELTYPE
  6
BYLAYER
  9
$CECOLOR
 62
   256
  9
$DIMSCALE
 40
1.0
  9
$DIMASZ
 40
1.9727878464999999
  9
$DIMEXO
 40
2.5399999618999991
  9
$DIMDLI
 40
0.38
  9
$DIMRND
 40
0.0
  9
$DIMDLE
 40
0.0
  9
$DIMEXE
 40
3.8099999427999989
  9
$DIMTP
 40
0.0
  9
$DIMTM
 40
0.0
  9
$DIMTXT
 40
3.1999998092999991
  9
$DIMCEN
 40
0.09
  9
$DIMTSZ
 40
0.0
  9
$DIMTOL
 70
     0
  9
$DIMLIM
 70
     0
  9
$DIMTIH
 70
     0
  9
$DIMTOH
 70
     1
  9
$DIMSE1
 70
     0
  9
$DIMSE2
 70
     0
  9
$DIMTAD
 70
     0
  9
$DIMZIN
 70
     0
  9
$DIMBLK
  1

  9
$DIMASO
 70
     1
  9
$DIMSHO
 70
     0
  9
$DIMPOST
  1

  9
$DIMAPOST
  1

  9
$DIMALT
 70
     0
  9
$DIMALTD
 70
     2
  9
$DIMALTF
 40
25.399999999999999
  9
$DIMLFAC
 40
1.0
  9
$DIMTOFL
 70
     0
  9
$DIMTVP
 40
0.0
  9
$DIMTIX
 70
     0
  9
$DIMSOXD
 70
     0
  9
$DIMSAH
 70
     0
  9
$DIMBLK1
  1

  9
$DIMBLK2
  1

  9
$DIMSTYLE
  2
STANDARD
  9
$DIMCLRD
 70
     0
  9
$DIMCLRE
 70
     0
  9
$DIMCLRT
 70
     0
  9
$DIMTFAC
 40
1.0
  9
$DIMGAP
 40
0.09
  9
$LUNITS
 70
     2
  9
$LUPREC
 70
     3
  9
$SKETCHINC
 40
0.1
  9
$FILLETRAD
 40
0.0625
  9
$AUNITS
 70
     0
  9
$AUPREC
 70
     0
  9
$MENU
  1
ACAD
  9
$ELEVATION
 40
0.0
  9
$PELEVATION
 40
0.0
  9
$THICKNESS
 40
0.0
  9
$LIMCHECK
 70
     0
  9
$BLIPMODE
 70
     0
  9
$CHAMFERA
 40
0.0
  9
$CHAMFERB
 40
0.0
  9
$SKPOLY
 70
     0
  9
$TDCREATE
 40
2452011.4021296292
  9
$TDUPDATE
 40
2452374.796756146
  9
$TDINDWG
 40
0.0466652546
  9
$TDUSRTIMER
 40
0.0466647917
  9
$USRTIMER
 70
     1
  9
$ANGBASE
 50
0.0
  9
$ANGDIR
 70
     0
  9
$PDMODE
 70
     0
  9
$PDSIZE
 40
0.0
  9
$PLINEWID
 40
0.0
  9
$COORDS
 70
     1
  9
$SPLFRAME
 70
     0
  9
$SPLINETYPE
 70
     6
  9
$SPLINESEGS
 70
     8
  9
$ATTDIA
 70
     0
  9
$ATTREQ
 70
     1
  9
$HANDLING
 70
  4097
  9
$HANDSEED
  5
6F5
  9
$SURFTAB1
 70
     6
  9
$SURFTAB2
 70
     6
  9
$SURFTYPE
 70
     6
  9
$SURFU
 70
     6
  9
$SURFV
 70
     6
  9
$UCSNAME
  2

  9
$UCSORG
 10
0.0
 20
0.0
 30
0.0
  9
$UCSXDIR
 10
1.0
 20
0.0
 30
0.0
  9
$UCSYDIR
 10
0.0
 20
1.0
 30
0.0
  9
$PUCSNAME
  2

  9
$PUCSORG
 10
0.0
 20
0.0
 30
0.0
  9
$PUCSXDIR
 10
1.0
 20
0.0
 30
0.0
  9
$PUCSYDIR
 10
0.0
 20
1.0
 30
0.0
  9
$USERI1
 70
     0
  9
$USERI2
 70
     0
  9
$USERI3
 70
     0
  9
$USERI4
 70
     0
  9
$USERI5
 70
     0
  9
$USERR1
 40
0.0
  9
$USERR2
 40
0.0
  9
$USERR3
 40
0.0
  9
$USERR4
 40
0.0
  9
$USERR5
 40
0.0
  9
$WORLDVIEW
 70
     1
  9
$SHADEDGE
 70
     3
  9
$SHADEDIF
 70
    70
  9
$TILEMODE
 70
     1
  9
$MAXACTVP
 70
    64
  9
$PLIMCHECK
 70
     0
  9
$PEXTMIN
 10
1.0000000000000000E+020
 20
1.0000000000000000E+020
 30
1.0000000000000000E+020
  9
$PEXTMAX
 10
-1.0000000000000000E+020
 20
-1.0000000000000000E+020
 30
-1.0000000000000000E+020
  9
$PLIMMIN
 10
0.0
 20
0.0
  9
$PLIMMAX
 10
12.0
 20
9.0
  9
$UNITMODE
 70
     0
  9
$VISRETAIN
 70
     1
  9
$PLINEGEN
 70
     0
  9
$PSLTSCALE
 70
     1
  0
ENDSEC
  0
SECTION
  2
TABLES
  0
TABLE
  2
VPORT
 70
     3
  0
VPORT
  2
*ACTIVE
 70
     0
 10
0.0
 20
0.0
 11
1.0
 21
1.0
 12
-123.8506150387114
 22
96.511855069849958
 13
0.0
 23
0.0
 14
1.0
 24
1.0
 15
0.0
 25
0.0
 16
0.0
 26
0.0
 36
1.0
 17
0.0
 27
0.0
 37
0.0
 40
213.26873175562349
 41
1.5653650254668929
 42
50.0
 43
0.0
 44
0.0
 50
0.0
 51
0.0
 71
     0
 72
   100
 73
     1
 74
     1
 75
     0
 76
     0
 77
     0
 78
     0
  0
ENDTAB
  0
TABLE
  2
LTYPE
 70
     6
  0
LTYPE
  2
CONTINUOUS
 70
     0
  3
Solid line
 72
    65
 73
     0
 40
0.0
  0
LTYPE
  2
SOLID
 70
     0
  3
Solid
 72
    65
 73
     0
 40
0.0
  0
LTYPE
  2
DASHED
 70
     0
  3
Dashed
 72
    65
 73
     2
 40
4.7625000000000002
 49
3.1749999999999989
 49
-1.587499999999999
  0
LTYPE
  2
CENTERLINE
 70
     0
  3
Centerline
 72
    65
 73
     4
 40
25.399999999999999
 49
19.050000000000001
 49
-1.587499999999999
 49
3.1749999999999989
 49
-1.587499999999999
  0
LTYPE
  2
CONSTRUCTION
 70
     0
  3
Construction
 72
    65
 73
     2
 40
1.016
 49
0.254
 49
-0.762
  0
LTYPE
  2
GAP
 70
     0
  3
Gap
 72
    65
 73
     3
 40
2540.9999980092002
 49
0.0
 49
-0.9999980092000002
 49
2540.0
  0
ENDTAB
  0
TABLE
  2
LAYER
 70
    10
  0
LAYER
  2
0
 70
     0
 62
     7
  6
CONTINUOUS
  0
LAYER
  2
LAYER0$C$L0
 70
     0
 62
     3
  6
SOLID
  0
LAYER
  2
LAYER1$C$L1
 70
     0
 62
     3
  6
SOLID
  0
LAYER
  2
LAYER2$C$L2
 70
     0
 62
     3
  6
SOLID
  0
LAYER
  2
LAYER3$C$L3
 70
     0
 62
     3
  6
SOLID
  0
LAYER
  2
LAYER6$C$L6
 70
     0
 62
     6
  6
SOLID
  0
LAYER
  2
LAYER8$C$L8
 70
     0
 62
    32
  6
SOLID
  0
LAYER
  2
LAYER9$C$L9
 70
     0
 62
     1
  6
SOLID
  0
LAYER
  2
DEFPOINTS
 70
     0
 62
     7
  6
CONTINUOUS
  0
LAYER
  2
DIMENSIONS
 70
     0
 62
     5
  6
CONTINUOUS
  0
ENDTAB
  0
TABLE
  2
STYLE
 70
     1
  0
STYLE
  2
STANDARD
 70
     0
 40
0.0
 41
1.0
 50
0.0
 71
     0
 42
3.1999998092999991
  3
txt
  4

  0
ENDTAB
  0
TABLE
  2
VIEW
 70
     0
  0
ENDTAB
  0
TABLE
  2
UCS
 70
     0
  0
ENDTAB
  0
TABLE
  2
APPID
 70
     1
  0
APPID
  2
ACAD
 70
     0
  0
ENDTAB
  0
TABLE
  2
DIMSTYLE
 70
     1
  0
DIMSTYLE
  2
STANDARD
 70
     0
  3

  4

  5

  6

  7

 40
1.0
 41
0.18
 42
0.0625
 43
0.38
 44
0.18
 45
0.0
 46
0.0
 47
0.0
 48
0.0
140
0.18
141
0.09
142
0.0
143
25.399999999999999
144
1.0
145
0.0
146
1.0
147
0.09
 71
     0
 72
     0
 73
     1
 74
     1
 75
     0
 76
     0
 77
     0
 78
     0
170
     0
171
     2
172
     0
173
     0
174
     0
175
     0
176
     0
177
     0
178
     0
  0
ENDTAB
  0
ENDSEC
  0
SECTION
  2
BLOCKS
  0
BLOCK
  8
0
  2
$MODEL_SPACE
 70
     0
 10
0.0
 20
0.0
 30
0.0
  3
$MODEL_SPACE
  1

  0
ENDBLK
  5
20
  8
0
  0
BLOCK
 67
     1
  8
0
  2
$PAPER_SPACE
 70
     0
 10
0.0
 20
0.0
 30
0.0
  3
$PAPER_SPACE
  1

  0
ENDBLK
  5
1C
 67
     1
  8
0
  0
BLOCK
  8
LAYER0$C$L0
  2
DETALE-Y
 70
     0
 10
0.0
 20
0.0
 30
0.0
  3
DETALE-Y
  1

  0
ARC
  5
A5
  8
LAYER2$C$L2
  6
DASHED
 62
     7
 10
-5.6925773620999998
 20
0.0
 30
0.0
 40
8.9999923705999993
 50
201.78019783900001
 51
228.5524630079999
  0
ARC
  5
A6
  8
LAYER2$C$L2
  6
DASHED
 62
     7
 10
-5.6925773620999998
 20
-0.000015258789063
 30
0.0
 40
8.9999923705999993
 50
131.44753699200001
 51
158.2182175570999
  0
ARC
  5
A7
  8
LAYER2$C$L2
  6
DASHED
 62
     7
 10
-8.7500724791999982
 20
-4.5
 30
0.0
 40
0.5
 50
0.0
 51
89.999982013899995
  0
ARC
  5
A8
  8
LAYER2$C$L2
  6
DASHED
 62
     7
 10
-8.7500724791999982
 20
4.5
 30
0.0
 40
0.5
 50
270.00001798609998
 51
0.0
  0
ARC
  5
A9
  8
LAYER2$C$L2
  6
DASHED
 62
     7
 10
-8.7500724791999982
 20
-4.5
 30
0.0
 40
0.5
 50
0.0
 51
89.999982013899995
  0
ARC
  5
AA
  8
LAYER2$C$L2
  6
DASHED
 62
     7
 10
-10.64997482299999
 20
17.0
 30
0.0
 40
1.0
 50
89.999982013899995
 51
179.9999640277999
  0
ARC
  5
AB
  8
LAYER2$C$L2
  6
DASHED
 62
     7
 10
-10.64997482299999
 20
-17.0
 30
0.0
 40
1.0
 50
179.9999640277999
 51
270.00000068319991
  0
LINE
  5
AC
  8
LAYER2$C$L2
  6
DASHED
 62
     7
 10
-10.449901580800001
 20
4.0
 30
0.0
 11
-10.449901580800001
 21
-4.0
 31
0.0
  0
LINE
  5
AD
  8
LAYER2$C$L2
  6
DASHED
 62
     7
 10
-14.0499992371
 20
3.339401245099999
 30
0.0
 11
-14.0499992371
 21
-3.339416503899999
 31
0.0
  0
LINE
  5
AE
  8
LAYER2$C$L2
  6
DASHED
 62
     7
 10
-8.9500236511000004
 20
-4.0
 30
0.0
 11
-8.7500724791999982
 21
-4.0
 31
0.0
  0
LINE
  5
AF
  8
LAYER2$C$L2
  6
DASHED
 62
     7
 10
-8.9500236511000004
 20
4.0
 30
0.0
 11
-8.7500724791999982
 21
4.0
 31
0.0
  0
LINE
  5
B0
  8
LAYER2$C$L2
  6
DASHED
 62
     7
 10
-8.2500724791999982
 20
-4.5
 30
0.0
 11
-8.2500724791999982
 21
-18.0
 31
0.0
  0
LINE
  5
B1
  8
LAYER2$C$L2
  6
DASHED
 62
     7
 10
-10.449901580800001
 20
-4.0
 30
0.0
 11
-8.7500724791999982
 21
-4.0
 31
0.0
  0
LINE
  5
B2
  8
LAYER2$C$L2
  6
DASHED
 62
     7
 10
-10.449901580800001
 20
4.0
 30
0.0
 11
-8.7500724791999982
 21
4.0
 31
0.0
  0
LINE
  5
B3
  8
LAYER2$C$L2
  6
DASHED
 62
     7
 10
-11.64997482299999
 20
-6.7460479735999996
 30
0.0
 11
-11.64997482299999
 21
-17.0
 31
0.0
  0
LINE
  5
B4
  8
LAYER2$C$L2
  6
DASHED
 62
     7
 10
-10.64997482299999
 20
-18.0
 30
0.0
 11
-8.2500724791999982
 21
-18.0
 31
0.0
  0
LINE
  5
B5
  8
LAYER2$C$L2
  6
DASHED
 62
     7
 10
-10.64997482299999
 20
18.0
 30
0.0
 11
-8.2500724791999982
 21
18.0
 31
0.0
  0
LINE
  5
B6
  8
LAYER2$C$L2
  6
DASHED
 62
     7
 10
-8.2500724791999982
 20
18.0
 30
0.0
 11
-8.2500724791999982
 21
4.5
 31
0.0
  0
LINE
  5
B7
  8
LAYER2$C$L2
  6
DASHED
 62
     7
 10
-11.64997482299999
 20
17.0
 30
0.0
 11
-11.64997482299999
 21
6.7460327148000001
 31
0.0
  0
POINT
  5
B8
  8
LAYER0$C$L0
 10
0.0
 20
0.0
 30
0.0
  0
POINT
  5
B9
  8
LAYER0$C$L0
 10
-14.0499992371
 20
0.0
 30
0.0
  0
POINT
  5
BA
  8
LAYER0$C$L0
 10
1.0
 20
0.0
 30
0.0
  0
POINT
  5
BB
  8
LAYER0$C$L0
 10
0.0
 20
0.0
 30
0.0
  0
ENDBLK
  5
BC
  8
LAYER0$C$L0
  0
BLOCK
  8
LAYER0$C$L0
  2
BLOCK1
 70
     0
 10
0.0
 20
0.0
 30
0.0
  3
BLOCK1
  1

  0
ARC
  5
BF
  8
LAYER2$C$L2
  6
DASHED
 62
     7
 10
-5.8500013350999991
 20
3.8999013900999988
 30
0.0
 40
0.2999999522999999
 50
0.0
 51
89.999982013899995
  0
ARC
  5
C0
  8
LAYER2$C$L2
  6
DASHED
 62
     7
 10
-5.8500013350999991
 20
1.499999046299999
 30
0.0
 40
0.2999999522999999
 50
270.00012726910001
 51
0.0
  0
ARC
  5
C1
  8
LAYER2$C$L2
  6
DASHED
 62
     7
 10
-12.3499994278
 20
-6.4999980926999994
 30
0.0
 40
1.0
 50
90.00003665540001
 51
180.00001866929989
  0
ARC
  5
C2
  8
LAYER2$C$L2
  6
DASHED
 62
     7
 10
-12.3499994278
 20
-13.7000713348
 30
0.0
 40
1.0
 50
180.0000906137
 51
270.00007262759988
  0
ARC
  5
C3
  8
LAYER2$C$L2
  6
DASHED
 62
     7
 10
-10.450006484999999
 20
-13.7000713348
 30
0.0
 40
1.0
 50
180.0000906137
 51
270.00007262759988
  0
ARC
  5
C4
  8
LAYER2$C$L2
  6
DASHED
 62
     7
 10
-10.450006484999999
 20
-5.9999980926999994
 30
0.0
 40
1.0
 50
180.0000906137
 51
270.00007262759988
  0
ARC
  5
C5
  8
LAYER2$C$L2
  6
DASHED
 62
     7
 10
-10.450006484999999
 20
13.6999502182
 30
0.0
 40
1.0
 50
90.00003665540001
 51
180.00001866929989
  0
LINE
  5
C6
  8
LAYER2$C$L2
  6
DASHED
 62
     7
 10
-5.5499973297
 20
3.8999004363999989
 30
0.0
 11
-5.5499973297
 21
1.4999980927000001
 31
0.0
  0
LINE
  5
C7
  8
LAYER2$C$L2
  6
DASHED
 62
     7
 10
-8.0499973297
 20
1.2000713348000001
 30
0.0
 11
-5.8500003815000001
 21
1.2000713348000001
 31
0.0
  0
LINE
  5
C8
  8
LAYER2$C$L2
  6
DASHED
 62
     7
 10
-8.0499973297
 20
4.1999492644999989
 30
0.0
 11
-5.8500003815000001
 21
4.1999492644999989
 31
0.0
  0
LINE
  5
C9
  8
LAYER2$C$L2
  6
DASHED
 62
     7
 10
-12.3499994278
 20
-5.4999990463000001
 30
0.0
 11
-11.4500055313
 21
-5.4999990463000001
 31
0.0
  0
LINE
  5
CA
  8
LAYER2$C$L2
  6
DASHED
 62
     7
 10
-13.3499984741
 20
-6.4999990463000001
 30
0.0
 11
-13.3499984741
 21
-13.700072288499999
 31
0.0
  0
LINE
  5
CB
  8
LAYER2$C$L2
  6
DASHED
 62
     7
 10
-8.0499973297
 20
-13.500121116600001
 30
0.0
 11
-8.0499973297
 21
-14.700072288499999
 31
0.0
  0
LINE
  5
CC
  8
LAYER2$C$L2
  6
DASHED
 62
     7
 10
-8.0499973297
 20
14.699949264500001
 30
0.0
 11
-8.0499973297
 21
-6.9999990463000001
 31
0.0
  0
LINE
  5
CD
  8
LAYER2$C$L2
  6
DASHED
 62
     7
 10
-10.24999427799999
 20
-6.9999990463000001
 30
0.0
 11
-10.24999427799999
 21
-13.500121116600001
 31
0.0
  0
LINE
  5
CE
  8
LAYER2$C$L2
  6
DASHED
 62
     7
 10
-10.24999427799999
 20
-13.500121116600001
 30
0.0
 11
-8.0499973297
 21
-13.500121116600001
 31
0.0
  0
LINE
  5
CF
  8
LAYER2$C$L2
  6
DASHED
 62
     7
 10
2.149996757499999
 20
-1.876097679099999
 30
0.0
 11
2.149996757499999
 21
-3.5745840072999999
 31
0.0
  0
LINE
  5
D0
  8
LAYER2$C$L2
  6
DASHED
 62
     7
 10
-0.1943481565
 20
4.1000957489000003
 30
0.0
 11
-0.1943481565
 21
1.1000957489000001
 31
0.0
  0
LINE
  5
D1
  8
LAYER2$C$L2
  6
DASHED
 62
     7
 10
1.6499967575000001
 20
4.1000957489000003
 30
0.0
 11
1.6499967575000001
 21
1.1000957489000001
 31
0.0
  0
LINE
  5
D2
  8
LAYER2$C$L2
  6
DASHED
 62
     7
 10
2.649996757499999
 20
4.1000957489000003
 30
0.0
 11
2.649996757499999
 21
1.1000957489000001
 31
0.0
  0
LINE
  5
D3
  8
LAYER2$C$L2
  6
DASHED
 62
     7
 10
2.649996757499999
 20
1.1000957489000001
 30
0.0
 11
-8.0499973297
 21
1.1000957489000001
 31
0.0
  0
LINE
  5
D4
  8
LAYER2$C$L2
  6
DASHED
 62
     7
 10
2.649996757499999
 20
4.1000957489000003
 30
0.0
 11
-5.6265659332000002
 21
4.1000957489000003
 31
0.0
  0
LINE
  5
D5
  8
LAYER2$C$L2
  6
DASHED
 62
     7
 10
2.649996757499999
 20
-1.1000967025999999
 30
0.0
 11
2.649996757499999
 21
-4.1000967026000001
 31
0.0
  0
LINE
  5
D6
  8
LAYER2$C$L2
  6
DASHED
 62
     7
 10
-8.0499973297
 20
-1.1000967025999999
 30
0.0
 11
2.649996757499999
 21
-1.1000967025999999
 31
0.0
  0
LINE
  5
D7
  8
LAYER2$C$L2
  6
DASHED
 62
     7
 10
-8.0499973297
 20
-4.1000967026000001
 30
0.0
 11
2.649996757499999
 21
-4.1000967026000001
 31
0.0
  0
LINE
  5
D8
  8
LAYER2$C$L2
  6
DASHED
 62
     7
 10
-11.4500055313
 20
13.699949264500001
 30
0.0
 11
-11.4500055313
 21
-13.700072288499999
 31
0.0
  0
LINE
  5
D9
  8
LAYER2$C$L2
  6
DASHED
 62
     7
 10
-10.450006484999999
 20
-6.9999990463000001
 30
0.0
 11
-8.0499973297
 21
-6.9999990463000001
 31
0.0
  0
LINE
  5
DA
  8
LAYER2$C$L2
  6
DASHED
 62
     7
 10
-10.450006484999999
 20
14.699949264500001
 30
0.0
 11
-8.0499973297
 21
14.699949264500001
 31
0.0
  0
LINE
  5
DB
  8
LAYER2$C$L2
  6
DASHED
 62
     7
 10
-12.3499994278
 20
-14.700072288499999
 30
0.0
 11
-8.0499973297
 21
-14.700072288499999
 31
0.0
  0
POINT
  5
DC
  8
LAYER0$C$L0
 10
0.0
 20
0.0
 30
0.0
  0
POINT
  5
DD
  8
LAYER0$C$L0
 10
0.6999999881
 20
0.0
 30
0.0
  0
POINT
  5
DE
  8
LAYER0$C$L0
 10
-13.3499984741
 20
0.0
 30
0.0
  0
POINT
  5
DF
  8
LAYER0$C$L0
 10
1.0
 20
0.0
 30
0.0
  0
POINT
  5
E0
  8
LAYER0$C$L0
 10
0.0
 20
0.0
 30
0.0
  0
ENDBLK
  5
E1
  8
LAYER0$C$L0
  0
BLOCK
  8
LAYER0$C$L0
  2
BLOCK2
 70
     0
 10
0.0
 20
0.0
 30
0.0
  3
BLOCK2
  1

  0
ARC
  5
E4
  8
LAYER2$C$L2
  6
DASHED
 62
     7
 10
-10.0
 20
-13.0
 30
0.0
 40
3.0999994277999989
 50
89.995446768299999
 51
270.0044812873
  0
CIRCLE
  5
E5
  8
LAYER2$C$L2
  6
DASHED
 62
     7
 10
9.3000488280999996
 20
13.0
 30
0.0
 40
3.1499996184999999
  0
ARC
  5
E6
  8
LAYER2$C$L2
  6
DASHED
 62
     7
 10
-9.3002929687999991
 20
-13.0
 30
0.0
 40
3.0999994277999989
 50
270.0045532316999
 51
89.995446768299999
  0
CIRCLE
  5
E7
  8
LAYER2$C$L2
  6
DASHED
 62
     7
 10
10.0
 20
0.0
 30
0.0
 40
3.0999994277999989
  0
ARC
  5
E8
  8
LAYER2$C$L2
  6
DASHED
 62
     7
 10
-13.699829101600001
 20
6.2999877929999988
 30
0.0
 40
1.0
 50
89.999982013899995
 51
179.9999640277999
  0
ARC
  5
E9
  8
LAYER2$C$L2
  6
DASHED
 62
     7
 10
-7.9998779297000002
 20
8.2999877929999997
 30
0.0
 40
1.0
 50
270.00001798609998
 51
0.0
  0
ARC
  5
EA
  8
LAYER2$C$L2
  6
DASHED
 62
     7
 10
-5.9998779297000002
 20
17.0
 30
0.0
 40
1.0
 50
89.999982013899995
 51
179.9999640277999
  0
ARC
  5
EB
  8
LAYER2$C$L2
  6
DASHED
 62
     7
 10
6.0
 20
-17.0
 30
0.0
 40
1.0
 50
270.00001798609998
 51
0.0
  0
ARC
  5
EC
  8
LAYER2$C$L2
  6
DASHED
 62
     7
 10
13.7000732422
 20
-6.3000030517999992
 30
0.0
 40
1.0
 50
270.00001798609998
 51
0.0
  0
ARC
  5
ED
  8
LAYER2$C$L2
  6
DASHED
 62
     7
 10
-13.6999511719
 20
-17.0
 30
0.0
 40
1.0
 50
179.9999640277999
 51
269.9999460416999
  0
ARC
  5
EE
  8
LAYER2$C$L2
  6
DASHED
 62
     7
 10
13.7000732422
 20
17.0
 30
0.0
 40
1.0
 50
0.0
 51
89.999982013899995
  0
LINE
  5
EF
  8
LAYER2$C$L2
  6
DASHED
 62
     7
 10
5.5
 20
6.7460327148000001
 30
0.0
 11
14.7000732422
 21
6.7460327148000001
 31
0.0
  0
LINE
  5
F0
  8
LAYER2$C$L2
  6
DASHED
 62
     7
 10
5.5
 20
-6.7460479735999996
 30
0.0
 11
14.7000732422
 21
-6.7460479735999996
 31
0.0
  0
LINE
  5
F1
  8
LAYER2$C$L2
  6
DASHED
 62
     7
 10
13.7000732422
 20
-3.790588378899999
 30
0.0
 11
13.7000732422
 21
-5.9376068114999994
 31
0.0
  0
LINE
  5
F2
  8
LAYER2$C$L2
  6
DASHED
 62
     7
 10
13.7000732422
 20
2.7436828612999991
 30
0.0
 11
13.7000732422
 21
-2.7442779541000002
 31
0.0
  0
LINE
  5
F3
  8
LAYER2$C$L2
  6
DASHED
 62
     7
 10
6.5
 20
3.8246459961000001
 30
0.0
 11
6.5
 21
6.0061798095999999
 31
0.0
  0
LINE
  5
F4
  8
LAYER2$C$L2
  6
DASHED
 62
     7
 10
6.5
 20
-2.7719879149999991
 30
0.0
 11
6.5
 21
2.8476257324000001
 31
0.0
  0
LINE
  5
F5
  8
LAYER2$C$L2
  6
DASHED
 62
     7
 10
13.7000732422
 20
6.0679931640999989
 30
0.0
 11
13.7000732422
 21
3.7761383056999991
 31
0.0
  0
LINE
  5
F6
  8
LAYER2$C$L2
  6
DASHED
 62
     7
 10
6.5
 20
-5.9994049071999997
 30
0.0
 11
6.5
 21
-3.8668060302999989
 31
0.0
  0
LINE
  5
F7
  8
LAYER2$C$L2
  6
DASHED
 62
     7
 10
-10.0
 20
-9.9000091552999994
 30
0.0
 11
-9.3002929687999991
 21
-9.9000091552999994
 31
0.0
  0
LINE
  5
F8
  8
LAYER2$C$L2
  6
DASHED
 62
     7
 10
-9.3002929687999991
 20
-16.1000061035
 30
0.0
 11
-10.0
 21
-16.1000061035
 31
0.0
  0
LINE
  5
F9
  8
LAYER2$C$L2
  6
DASHED
 62
     7
 10
5.5
 20
-6.7460479735999996
 30
0.0
 11
5.5
 21
6.7460327148000001
 31
0.0
  0
LINE
  5
FA
  8
LAYER2$C$L2
  6
DASHED
 62
     7
 10
5.5
 20
3.339401245099999
 30
0.0
 11
14.7000732422
 21
3.339401245099999
 31
0.0
  0
LINE
  5
FB
  8
LAYER2$C$L2
  6
DASHED
 62
     7
 10
5.5
 20
-3.339416503899999
 30
0.0
 11
14.7000732422
 21
-3.339416503899999
 31
0.0
  0
LINE
  5
FC
  8
LAYER2$C$L2
  6
DASHED
 62
     7
 10
-4.0999755858999993
 20
15.5
 30
0.0
 11
-1.0999755859
 21
15.5
 31
0.0
  0
LINE
  5
FD
  8
LAYER2$C$L2
  6
DASHED
 62
     7
 10
-4.0999755858999993
 20
13.599990844700001
 30
0.0
 11
-1.0999755859
 21
13.599990844700001
 31
0.0
  0
LINE
  5
FE
  8
LAYER2$C$L2
  6
DASHED
 62
     7
 10
-4.0999755858999993
 20
16.5
 30
0.0
 11
-1.0999755859
 21
16.5
 31
0.0
  0
LINE
  5
FF
  8
LAYER2$C$L2
  6
DASHED
 62
     7
 10
1.1000976563
 20
-13.60000610349999
 30
0.0
 11
4.1000976563
 21
-13.60000610349999
 31
0.0
  0
LINE
  5
100
  8
LAYER2$C$L2
  6
DASHED
 62
     7
 10
1.1000976563
 20
-15.5
 30
0.0
 11
4.1000976563
 21
-15.5
 31
0.0
  0
LINE
  5
101
  8
LAYER2$C$L2
  6
DASHED
 62
     7
 10
1.1000976563
 20
-16.5
 30
0.0
 11
4.1000976563
 21
-16.5
 31
0.0
  0
LINE
  5
102
  8
LAYER2$C$L2
  6
DASHED
 62
     7
 10
4.1000976563
 20
-13.60000610349999
 30
0.0
 11
4.1000976563
 21
-16.5
 31
0.0
  0
LINE
  5
103
  8
LAYER2$C$L2
  6
DASHED
 62
     7
 10
1.1000976563
 20
-13.60000610349999
 30
0.0
 11
1.1000976563
 21
-16.5
 31
0.0
  0
LINE
  5
104
  8
LAYER2$C$L2
  6
DASHED
 62
     7
 10
-4.0999755858999993
 20
16.5
 30
0.0
 11
-4.0999755858999993
 21
13.599990844700001
 31
0.0
  0
LINE
  5
105
  8
LAYER2$C$L2
  6
DASHED
 62
     7
 10
-1.0999755859
 20
16.5
 30
0.0
 11
-1.0999755859
 21
13.599990844700001
 31
0.0
  0
LINE
  5
106
  8
LAYER2$C$L2
  6
DASHED
 62
     7
 10
-6.9998779297000002
 20
17.0
 30
0.0
 11
-6.9998779297000002
 21
8.2999877929999997
 31
0.0
  0
LINE
  5
107
  8
LAYER2$C$L2
  6
DASHED
 62
     7
 10
7.0
 20
-7.3000030517999992
 30
0.0
 11
7.0
 21
-17.0
 31
0.0
  0
LINE
  5
108
  8
LAYER2$C$L2
  6
DASHED
 62
     7
 10
7.0
 20
-7.3000030517999992
 30
0.0
 11
13.7000732422
 21
-7.3000030517999992
 31
0.0
  0
LINE
  5
109
  8
LAYER2$C$L2
  6
DASHED
 62
     7
 10
-13.699829101600001
 20
7.2999877929999988
 30
0.0
 11
-7.9998779297000002
 21
7.2999877929999988
 31
0.0
  0
LINE
  5
10A
  8
LAYER2$C$L2
  6
DASHED
 62
     7
 10
-14.6999511719
 20
6.2999877929999988
 30
0.0
 11
-14.6999511719
 21
-17.0
 31
0.0
  0
LINE
  5
10B
  8
LAYER2$C$L2
  6
DASHED
 62
     7
 10
14.7000732422
 20
17.0
 30
0.0
 11
14.7000732422
 21
-6.3000030517999992
 31
0.0
  0
LINE
  5
10C
  8
LAYER2$C$L2
  6
DASHED
 62
     7
 10
-13.6999511719
 20
-18.0
 30
0.0
 11
6.0
 21
-18.0
 31
0.0
  0
LINE
  5
10D
  8
LAYER2$C$L2
  6
DASHED
 62
     7
 10
-6.0
 20
18.0
 30
0.0
 11
13.7000732422
 21
18.0
 31
0.0
  0
POINT
  5
10E
  8
LAYER0$C$L0
 10
0.0
 20
0.0
 30
0.0
  0
POINT
  5
10F
  8
LAYER0$C$L0
 10
1.0
 20
0.0
 30
0.0
  0
POINT
  5
110
  8
LAYER0$C$L0
 10
0.0
 20
0.0
 30
0.0
  0
ENDBLK
  5
111
  8
LAYER0$C$L0
  0
BLOCK
  8
LAYER8$C$L8
  2
CADRA_ATTR_0
 70
     2
 10
0.0
 20
0.0
 30
0.0
  3
CADRA_ATTR_0
  1

  0
TEXT
  5
114
  8
LAYER8$C$L8
 62
     3
 10
-66.233333141999992
 20
3.5
 30
0.0
 40
4.0
  1
WP-012
 41
1.0666670396363629
 72
     5
 11
-42.766658270000001
 21
3.5
 31
0.0
  0
ATTDEF
  5
115
  8
LAYER8$C$L8
 62
     3
 10
-54.499993999999987
 20
5.5
 30
0.0
 40
0.156
  1
ç5l?^HVé
  3

  2
110
 70
    11
  0
ENDBLK
  5
116
  8
LAYER8$C$L8
  0
BLOCK
  8
LAYER8$C$L8
  2
CADRA_ATTR_1
 70
     2
 10
0.0
 20
0.0
 30
0.0
  3
CADRA_ATTR_1
  1

  0
TEXT
  5
119
  8
LAYER8$C$L8
 62
     3
 10
-189.08331773110001
 20
17.75
 30
0.0
 40
2.5
  1
*
 41
1.300002808379997
 72
     5
 11
-186.91664638380001
 21
17.75
 31
0.0
  0
ATTDEF
  5
11A
  8
LAYER8$C$L8
 62
     3
 10
-187.99997699999989
 20
19.0
 30
0.0
 40
0.156
  1
ç@_JQ5-9f  é
  3

  2
60
 70
    11
  0
ENDBLK
  5
11B
  8
LAYER8$C$L8
  0
BLOCK
  8
LAYER8$C$L8
  2
CADRA_ATTR_2
 70
     2
 10
0.0
 20
0.0
 30
0.0
  3
CADRA_ATTR_2
  1

  0
TEXT
  5
11E
  8
LAYER8$C$L8
 62
     3
 10
-189.08331773110001
 20
23.75
 30
0.0
 40
2.5
  1
*
 41
1.300002808379997
 72
     5
 11
-186.91664638380001
 21
23.75
 31
0.0
  0
ATTDEF
  5
11F
  8
LAYER8$C$L8
 62
     3
 10
-187.99997699999989
 20
25.0
 30
0.0
 40
0.156
  1
ç@_JQ5-9f  é
  3

  2
60
 70
    11
  0
ENDBLK
  5
120
  8
LAYER8$C$L8
  0
BLOCK
  8
LAYER8$C$L8
  2
CADRA_ATTR_3
 70
     2
 10
0.0
 20
0.0
 30
0.0
  3
CADRA_ATTR_3
  1

  0
TEXT
  5
123
  8
LAYER8$C$L8
 62
     3
 10
-127.7999997221999
 20
18.5
 30
0.0
 40
3.0
  1
*
 41
1.3000029426999971
 72
     5
 11
-125.1999938368
 21
18.5
 31
0.0
  0
ATTDEF
  5
124
  8
LAYER8$C$L8
 62
     3
 10
-126.5
 20
20.0
 30
0.0
 40
0.156
  1
ç@_JQC4Ev<Té
  3

  2
100
 70
    11
  0
ENDBLK
  5
125
  8
LAYER8$C$L8
  0
BLOCK
  8
LAYER8$C$L8
  2
CADRA_ATTR_4
 70
     2
 10
0.0
 20
0.0
 30
0.0
  3
CADRA_ATTR_4
  1

  0
TEXT
  5
128
  8
LAYER8$C$L8
 62
     3
 10
-127.7999997221999
 20
24.5
 30
0.0
 40
3.0
  1
*
 41
1.3000029426999971
 72
     5
 11
-125.1999938368
 21
24.5
 31
0.0
  0
ATTDEF
  5
129
  8
LAYER8$C$L8
 62
     3
 10
-126.5
 20
26.0
 30
0.0
 40
0.156
  1
ç@_JQC4Ev<Té
  3

  2
100
 70
    11
  0
ENDBLK
  5
12A
  8
LAYER8$C$L8
  0
BLOCK
  8
LAYER8$C$L8
  2
CADRA_ATTR_5
 70
     2
 10
0.0
 20
0.0
 30
0.0
  3
CADRA_ATTR_5
  1

  0
TEXT
  5
12D
  8
LAYER8$C$L8
 62
     3
 10
-183.2999997222
 20
18.5
 30
0.0
 40
3.0
  1
*
 41
1.3000029427000039
 72
     5
 11
-180.69999383679991
 21
18.5
 31
0.0
  0
ATTDEF
  5
12E
  8
LAYER8$C$L8
 62
     3
 10
-182.0
 20
20.0
 30
0.0
 40
0.156
  1
ç@_JQ?té
  3

  2
70
 70
    11
  0
ENDBLK
  5
12F
  8
LAYER8$C$L8
  0
BLOCK
  8
LAYER8$C$L8
  2
CADRA_ATTR_6
 70
     2
 10
0.0
 20
0.0
 30
0.0
  3
CADRA_ATTR_6
  1

  0
TEXT
  5
132
  8
LAYER8$C$L8
 62
     3
 10
-183.2999997222
 20
24.5
 30
0.0
 40
3.0
  1
*
 41
1.3000029427000039
 72
     5
 11
-180.69999383679991
 21
24.5
 31
0.0
  0
ATTDEF
  5
133
  8
LAYER8$C$L8
 62
     3
 10
-182.0
 20
26.0
 30
0.0
 40
0.156
  1
ç@_JQ?té
  3

  2
70
 70
    11
  0
ENDBLK
  5
134
  8
LAYER8$C$L8
  0
BLOCK
  8
LAYER8$C$L8
  2
CADRA_ATTR_7
 70
     2
 10
0.0
 20
0.0
 30
0.0
  3
CADRA_ATTR_7
  1

  0
TEXT
  5
137
  8
LAYER8$C$L8
 62
     3
 10
-66.666666568699995
 20
16.0
 30
0.0
 40
5.0
  1
MA4-A01458
 41
1.0763638601432719
 72
     5
 11
-17.333322978799998
 21
16.0
 31
0.0
  0
ATTDEF
  5
138
  8
LAYER8$C$L8
 62
     3
 10
-41.999992999999989
 20
18.5
 30
0.0
 40
0.156
  1
ç?^HV  é
  3

  2
20
 70
    11
  0
ENDBLK
  5
139
  8
LAYER8$C$L8
  0
BLOCK
  8
LAYER8$C$L8
  2
CADRA_ATTR_8
 70
     2
 10
0.0
 20
0.0
 30
0.0
  3
CADRA_ATTR_8
  1

  0
TEXT
  5
13C
  8
LAYER8$C$L8
 62
     3
 10
-150.2999997222
 20
18.5
 30
0.0
 40
3.0
  1
*
 41
1.3000029427000039
 72
     5
 11
-147.69999383679991
 21
18.5
 31
0.0
  0
ATTDEF
  5
13D
  8
LAYER8$C$L8
 62
     3
 10
-149.0
 20
20.0
 30
0.0
 40
0.156
  1
ç@_JQG/7nF|é
  3

  2
90
 70
    11
  0
ENDBLK
  5
13E
  8
LAYER8$C$L8
  0
BLOCK
  8
LAYER8$C$L8
  2
CADRA_ATTR_9
 70
     2
 10
0.0
 20
0.0
 30
0.0
  3
CADRA_ATTR_9
  1

  0
TEXT
  5
141
  8
LAYER8$C$L8
 62
     3
 10
-150.2999997222
 20
24.5
 30
0.0
 40
3.0
  1
*
 41
1.3000029427000039
 72
     5
 11
-147.69999383679991
 21
24.5
 31
0.0
  0
ATTDEF
  5
142
  8
LAYER8$C$L8
 62
     3
 10
-149.0
 20
26.0
 30
0.0
 40
0.156
  1
ç@_JQG/7nF|é
  3

  2
90
 70
    11
  0
ENDBLK
  5
143
  8
LAYER8$C$L8
  0
BLOCK
  8
LAYER8$C$L8
  2
CADRA_ATTR_10
 70
     2
 10
0.0
 20
0.0
 30
0.0
  3
CADRA_ATTR_10
  1

  0
TEXT
  5
146
  8
LAYER8$C$L8
 62
     3
 10
-178.2999997222
 20
18.5
 30
0.0
 40
3.0
  1
*
 41
1.3000029427000039
 72
     5
 11
-175.69999383679991
 21
18.5
 31
0.0
  0
ATTDEF
  5
147
  8
LAYER8$C$L8
 62
     3
 10
-177.0
 20
20.0
 30
0.0
 40
0.156
  1
ç@_JQ#N#o  é
  3

  2
80
 70
    11
  0
ENDBLK
  5
148
  8
LAYER8$C$L8
  0
BLOCK
  8
LAYER8$C$L8
  2
CADRA_ATTR_11
 70
     2
 10
0.0
 20
0.0
 30
0.0
  3
CADRA_ATTR_11
  1

  0
TEXT
  5
14B
  8
LAYER8$C$L8
 62
     3
 10
-178.2999997222
 20
24.5
 30
0.0
 40
3.0
  1
*
 41
1.3000029427000039
 72
     5
 11
-175.69999383679991
 21
24.5
 31
0.0
  0
ATTDEF
  5
14C
  8
LAYER8$C$L8
 62
     3
 10
-177.0
 20
26.0
 30
0.0
 40
0.156
  1
ç@_JQ#N#o  é
  3

  2
80
 70
    11
  0
ENDBLK
  5
14D
  8
LAYER8$C$L8
  0
BLOCK
  8
0
  2
*D26
 70
     1
 10
0.0
 20
0.0
 30
0.0
  3
*D26
  1

  0
LINE
  5
67D
  8
DIMENSIONS
 62
     0
 10
-40.160012245099999
 20
45.499984741200002
 30
0.0
 11
-20.390012264199999
 21
45.499984741200002
 31
0.0
  0
LINE
  5
67E
  8
DIMENSIONS
 62
     0
 10
-40.160012245099999
 20
82.499984741199995
 30
0.0
 11
-20.390012264199989
 21
82.499984741199981
 31
0.0
  0
LINE
  5
67F
  8
DIMENSIONS
 62
     0
 10
-24.200012207
 20
47.4727725877
 30
0.0
 11
-24.200012207
 21
59.376651678024999
 31
0.0
  0
LINE
  5
680
  8
DIMENSIONS
 62
     0
 10
-24.20001220699999
 20
80.527196894699983
 30
0.0
 11
-24.200012207
 21
68.623317804374992
 31
0.0
  0
SOLID
  5
681
  8
DIMENSIONS
 62
     0
 10
-24.52881018141667
 20
47.4727725877
 30
0.0
 11
-23.871214232583331
 21
47.4727725877
 31
0.0
 12
-24.200012207
 22
45.499984741200002
 32
0.0
 13
-24.200012207
 23
45.499984741200002
 33
0.0
  0
SOLID
  5
682
  8
DIMENSIONS
 62
     0
 10
-24.528810181416659
 20
80.527196894699983
 30
0.0
 11
-23.871214232583331
 21
80.527196894699983
 31
0.0
 12
-24.20001220699999
 22
82.499984741199981
 32
0.0
 13
-24.20001220699999
 23
82.499984741199981
 33
0.0
  0
TEXT
  5
683
  8
DIMENSIONS
 62
     0
 10
-22.600012302350009
 20
59.466651678024988
 30
0.0
 40
3.1999998092999991
  1
37.0
 50
90.0
  0
POINT
  5
684
  8
DEFPOINTS
 62
     0
 10
-42.700012207
 20
45.499984741200002
 30
0.0
  0
POINT
  5
685
  8
DEFPOINTS
 62
     0
 10
-42.700012207
 20
82.499984741199995
 30
0.0
  0
POINT
  5
686
  8
DEFPOINTS
 62
     0
 10
-24.20001220699999
 20
82.499984741199981
 30
0.0
  0
ENDBLK
  5
166
  8
0
  0
BLOCK
  8
0
  2
*D27
 70
     1
 10
0.0
 20
0.0
 30
0.0
  3
*D27
  1

  0
LINE
  5
6A9
  8
DIMENSIONS
 62
     0
 10
-97.460030555700001
 20
125.3650722615328
 30
0.0
 11
-52.279514573891213
 21
125.3650722615328
 31
0.0
  0
LINE
  5
6AA
  8
DIMENSIONS
 62
     0
 10
-97.460030555700001
 20
154.36507226153279
 30
0.0
 11
-52.279514573891198
 21
154.36507226153279
 31
0.0
  0
LINE
  5
6AB
  8
DIMENSIONS
 62
     0
 10
-56.08951451669121
 20
127.3378601080328
 30
0.0
 11
-56.08951451669121
 21
133.429553703739
 31
0.0
  0
LINE
  5
6AC
  8
DIMENSIONS
 62
     0
 10
-56.089514516691203
 20
152.3922844150328
 30
0.0
 11
-56.089514516691203
 21
145.87621963938901
 31
0.0
  0
SOLID
  5
6AD
  8
DIMENSIONS
 62
     0
 10
-56.418312491107862
 20
127.3378601080328
 30
0.0
 11
-55.760716542274537
 21
127.3378601080328
 31
0.0
 12
-56.08951451669121
 22
125.3650722615328
 32
0.0
 13
-56.08951451669121
 23
125.3650722615328
 33
0.0
  0
SOLID
  5
6AE
  8
DIMENSIONS
 62
     0
 10
-56.418312491107862
 20
152.3922844150328
 30
0.0
 11
-55.76071654227453
 21
152.3922844150328
 31
0.0
 12
-56.089514516691203
 22
154.36507226153279
 32
0.0
 13
-56.089514516691203
 23
154.36507226153279
 33
0.0
  0
INSERT
  5
6AF
  8
DIMENSIONS
  2
*U41
 10
0.0
 20
0.0
 30
0.0
  0
POINT
  5
6B0
  8
DEFPOINTS
 62
     0
 10
-100.0000305176
 20
125.3650722615328
 30
0.0
  0
POINT
  5
6B1
  8
DEFPOINTS
 62
     0
 10
-100.0000305176
 20
154.36507226153279
 30
0.0
  0
POINT
  5
6B2
  8
DEFPOINTS
 62
     0
 10
-56.089514516691203
 20
154.36507226153279
 30
0.0
  0
ENDBLK
  5
172
  8
0
  0
BLOCK
  8
0
  2
*D28
 70
     1
 10
0.0
 20
0.0
 30
0.0
  3
*D28
  1

  0
LINE
  5
6B3
  8
DIMENSIONS
 62
     0
 10
-134.0000152588
 20
122.5250692478328
 30
0.0
 11
-134.0000152588
 21
111.5550723187328
 31
0.0
  0
LINE
  5
6B4
  8
DIMENSIONS
 62
     0
 10
-105.50001525879991
 20
123.82507229963279
 30
0.0
 11
-105.50001525879991
 21
111.5550723187328
 31
0.0
  0
LINE
  5
6B5
  8
DIMENSIONS
 62
     0
 10
-132.02722741229991
 20
115.3650722615328
 30
0.0
 11
-124.6400149727499
 21
115.3650722615328
 31
0.0
  0
LINE
  5
6B6
  8
DIMENSIONS
 62
     0
 10
-107.4728031052999
 20
115.3650722615328
 30
0.0
 11
-114.8600155448499
 21
115.3650722615328
 31
0.0
  0
SOLID
  5
6B7
  8
DIMENSIONS
 62
     0
 10
-132.02722741229991
 20
115.6938702359495
 30
0.0
 11
-132.02722741229991
 21
115.0362742871162
 31
0.0
 12
-134.0000152588
 22
115.3650722615328
 32
0.0
 13
-134.0000152588
 23
115.3650722615328
 33
0.0
  0
SOLID
  5
6B8
  8
DIMENSIONS
 62
     0
 10
-107.4728031052999
 20
115.6938702359495
 30
0.0
 11
-107.4728031052999
 21
115.0362742871162
 31
0.0
 12
-105.50001525879991
 22
115.3650722615328
 32
0.0
 13
-105.50001525879991
 23
115.3650722615328
 33
0.0
  0
TEXT
  5
6B9
  8
DIMENSIONS
 62
     0
 10
-124.55001497275001
 20
113.7650723568828
 30
0.0
 40
3.1999998092999991
  1
28.5
  0
POINT
  5
6BA
  8
DEFPOINTS
 62
     0
 10
-134.0000152588
 20
125.0650692097328
 30
0.0
  0
POINT
  5
6BB
  8
DEFPOINTS
 62
     0
 10
-105.50001525879991
 20
126.3650722615328
 30
0.0
  0
POINT
  5
6BC
  8
DEFPOINTS
 62
     0
 10
-105.50001525879991
 20
115.3650722615328
 30
0.0
  0
ENDBLK
  5
17E
  8
0
  0
BLOCK
  8
0
  2
*D31
 70
     1
 10
0.0
 20
0.0
 30
0.0
  3
*D31
  1

  0
LINE
  5
6BD
  8
DIMENSIONS
 62
     0
 10
-105.50001525879991
 20
123.82507229963279
 30
0.0
 11
-105.50001525879991
 21
111.5550723187328
 31
0.0
  0
LINE
  5
6BE
  8
DIMENSIONS
 62
     0
 10
-92.500015258800005
 20
123.62506009263279
 30
0.0
 11
-92.500015258800005
 21
111.5550723187328
 31
0.0
  0
LINE
  5
6BF
  8
DIMENSIONS
 62
     0
 10
-103.52722741229999
 20
115.3650722615328
 30
0.0
 11
-103.0900150204249
 21
115.3650722615328
 31
0.0
  0
LINE
  5
6C0
  8
DIMENSIONS
 62
     0
 10
-94.472803105299988
 20
115.3650722615328
 30
0.0
 11
-94.910015497174996
 21
115.3650722615328
 31
0.0
  0
SOLID
  5
6C1
  8
DIMENSIONS
 62
     0
 10
-103.52722741229999
 20
115.6938702359495
 30
0.0
 11
-103.52722741229999
 21
115.0362742871162
 31
0.0
 12
-105.50001525879991
 22
115.3650722615328
 32
0.0
 13
-105.50001525879991
 23
115.3650722615328
 33
0.0
  0
SOLID
  5
6C2
  8
DIMENSIONS
 62
     0
 10
-94.472803105299988
 20
115.6938702359495
 30
0.0
 11
-94.472803105299988
 21
115.0362742871162
 31
0.0
 12
-92.500015258800005
 22
115.3650722615328
 32
0.0
 13
-92.500015258800005
 23
115.3650722615328
 33
0.0
  0
TEXT
  5
6C3
  8
DIMENSIONS
 62
     0
 10
-103.0000150204249
 20
113.7650723568828
 30
0.0
 40
3.1999998092999991
  1
13.0
  0
POINT
  5
6C4
  8
DEFPOINTS
 62
     0
 10
-105.50001525879991
 20
126.3650722615328
 30
0.0
  0
POINT
  5
6C5
  8
DEFPOINTS
 62
     0
 10
-92.500015258800005
 20
126.1650600545328
 30
0.0
  0
POINT
  5
6C6
  8
DEFPOINTS
 62
     0
 10
-92.500015258800005
 20
115.3650722615328
 30
0.0
  0
ENDBLK
  5
1A2
  8
0
  0
BLOCK
  8
0
  2
*D35
 70
     1
 10
0.0
 20
0.0
 30
0.0
  3
*D35
  1

  0
LINE
  5
6C7
  8
DIMENSIONS
 62
     0
 10
-139.3500144277987
 20
123.6249993833254
 30
0.0
 11
-139.3500144277987
 21
99.947937469392514
 31
0.0
  0
LINE
  5
6C8
  8
DIMENSIONS
 62
     0
 10
-105.50001525879991
 20
123.82507229963279
 30
0.0
 11
-105.50001525879991
 21
99.947937469392514
 31
0.0
  0
LINE
  5
6C9
  8
DIMENSIONS
 62
     0
 10
-137.37722658129869
 20
103.7579374121925
 30
0.0
 11
-127.3150145572493
 21
103.7579374121925
 31
0.0
  0
LINE
  5
6CA
  8
DIMENSIONS
 62
     0
 10
-107.4728031052999
 20
103.7579374121925
 30
0.0
 11
-117.5350151293493
 21
103.7579374121925
 31
0.0
  0
SOLID
  5
6CB
  8
DIMENSIONS
 62
     0
 10
-137.37722658129869
 20
104.08673538660911
 30
0.0
 11
-137.37722658129869
 21
103.4291394377758
 31
0.0
 12
-139.3500144277987
 22
103.7579374121925
 32
0.0
 13
-139.3500144277987
 23
103.7579374121925
 33
0.0
  0
SOLID
  5
6CC
  8
DIMENSIONS
 62
     0
 10
-107.4728031052999
 20
104.08673538660911
 30
0.0
 11
-107.4728031052999
 21
103.4291394377758
 31
0.0
 12
-105.50001525879991
 22
103.7579374121925
 32
0.0
 13
-105.50001525879991
 23
103.7579374121925
 33
0.0
  0
TEXT
  5
6CD
  8
DIMENSIONS
 62
     0
 10
-127.2250145572493
 20
102.1579375075425
 30
0.0
 40
3.1999998092999991
  1
33.8
  0
POINT
  5
6CE
  8
DEFPOINTS
 62
     0
 10
-139.3500144277987
 20
126.1649993452254
 30
0.0
  0
POINT
  5
6CF
  8
DEFPOINTS
 62
     0
 10
-105.50001525879991
 20
126.3650722615328
 30
0.0
  0
POINT
  5
6D0
  8
DEFPOINTS
 62
     0
 10
-105.50001525879991
 20
103.7579374121925
 30
0.0
  0
ENDBLK
  5
5AC
  8
0
  0
BLOCK
  8
0
  2
*D36
 70
     1
 10
0.0
 20
0.0
 30
0.0
  3
*D36
  1

  0
LINE
  5
6D1
  8
DIMENSIONS
 62
     0
 10
-105.50001525879991
 20
123.82507229963279
 30
0.0
 11
-105.50001525879991
 21
99.847078300032436
 31
0.0
  0
LINE
  5
6D2
  8
DIMENSIONS
 62
     0
 10
-81.000015258800005
 20
134.7850723377328
 30
0.0
 11
-81.000015258800005
 21
99.847078300032436
 31
0.0
  0
LINE
  5
6D3
  8
DIMENSIONS
 62
     0
 10
-103.52722741229999
 20
103.6570782428324
 30
0.0
 11
-98.140014972749995
 21
103.6570782428324
 31
0.0
  0
LINE
  5
6D4
  8
DIMENSIONS
 62
     0
 10
-82.972803105300002
 20
103.6570782428324
 30
0.0
 11
-88.360015544849986
 21
103.6570782428324
 31
0.0
  0
SOLID
  5
6D5
  8
DIMENSIONS
 62
     0
 10
-103.52722741229999
 20
103.9858762172491
 30
0.0
 11
-103.52722741229999
 21
103.3282802684157
 31
0.0
 12
-105.50001525879991
 22
103.6570782428324
 32
0.0
 13
-105.50001525879991
 23
103.6570782428324
 33
0.0
  0
SOLID
  5
6D6
  8
DIMENSIONS
 62
     0
 10
-82.972803105300002
 20
103.9858762172491
 30
0.0
 11
-82.972803105300002
 21
103.3282802684157
 31
0.0
 12
-81.000015258800005
 22
103.6570782428324
 32
0.0
 13
-81.000015258800005
 23
103.6570782428324
 33
0.0
  0
TEXT
  5
6D7
  8
DIMENSIONS
 62
     0
 10
-98.050014972750006
 20
102.05707833818239
 30
0.0
 40
3.1999998092999991
  1
24.5
  0
POINT
  5
6D8
  8
DEFPOINTS
 62
     0
 10
-105.50001525879991
 20
126.3650722615328
 30
0.0
  0
POINT
  5
6D9
  8
DEFPOINTS
 62
     0
 10
-81.000015258800005
 20
137.32507229963281
 30
0.0
  0
POINT
  5
6DA
  8
DEFPOINTS
 62
     0
 10
-81.000015258800005
 20
103.6570782428324
 30
0.0
  0
ENDBLK
  5
628
  8
0
  0
BLOCK
  8
0
  2
*D37
 70
     1
 10
0.0
 20
0.0
 30
0.0
  3
*D37
  1

  0
LINE
  5
69F
  8
DIMENSIONS
 62
     0
 10
-87.420015334999988
 20
151.6650600545328
 30
0.0
 11
-59.001845539004968
 21
151.6650600545328
 31
0.0
  0
LINE
  5
6A0
  8
DIMENSIONS
 62
     0
 10
-87.420015334999988
 20
128.0650692097328
 30
0.0
 11
-59.001845539004982
 21
128.0650692097328
 31
0.0
  0
LINE
  5
6A1
  8
DIMENSIONS
 62
     0
 10
-62.811845481804973
 20
149.69227220803279
 30
0.0
 11
-62.811845481804973
 21
144.54288638551401
 31
0.0
  0
LINE
  5
6A2
  8
DIMENSIONS
 62
     0
 10
-62.811845481804973
 20
130.03785705623281
 30
0.0
 11
-62.811845481804973
 21
134.762886957614
 31
0.0
  0
SOLID
  5
6A3
  8
DIMENSIONS
 62
     0
 10
-63.140643456221632
 20
149.69227220803279
 30
0.0
 11
-62.483047507388299
 21
149.69227220803279
 31
0.0
 12
-62.811845481804973
 22
151.6650600545328
 32
0.0
 13
-62.811845481804973
 23
151.6650600545328
 33
0.0
  0
SOLID
  5
6A4
  8
DIMENSIONS
 62
     0
 10
-63.140643456221632
 20
130.03785705623281
 30
0.0
 11
-62.483047507388306
 21
130.03785705623281
 31
0.0
 12
-62.811845481804973
 22
128.0650692097328
 32
0.0
 13
-62.811845481804973
 23
128.0650692097328
 33
0.0
  0
TEXT
  5
6A5
  8
DIMENSIONS
 62
     0
 10
-61.211845577154989
 20
134.852886957614
 30
0.0
 40
3.1999998092999991
  1
23.6
 50
90.0
  0
POINT
  5
6A6
  8
DEFPOINTS
 62
     0
 10
-89.960015296899996
 20
151.6650600545328
 30
0.0
  0
POINT
  5
6A7
  8
DEFPOINTS
 62
     0
 10
-89.960015296899996
 20
128.0650692097328
 30
0.0
  0
POINT
  5
6A8
  8
DEFPOINTS
 62
     0
 10
-62.811845481804973
 20
128.0650692097328
 30
0.0
  0
ENDBLK
  5
640
  8
0
  0
BLOCK
  8
0
  2
*D38
 70
     1
 10
0.0
 20
0.0
 30
0.0
  3
*D38
  1

  0
LINE
  5
695
  8
DIMENSIONS
 62
     0
 10
-62.800003051799997
 20
83.539999961899994
 30
0.0
 11
-62.800003051799997
 21
96.960611829171043
 31
0.0
  0
LINE
  5
696
  8
DIMENSIONS
 62
     0
 10
-33.200012207000803
 20
83.53998597069004
 30
0.0
 11
-33.200012207000803
 21
96.960611829171043
 31
0.0
  0
LINE
  5
697
  8
DIMENSIONS
 62
     0
 10
-60.8272152053
 20
93.150611886371053
 30
0.0
 11
-53.133562709206743
 21
93.150611886371053
 31
0.0
  0
LINE
  5
698
  8
DIMENSIONS
 62
     0
 10
-35.172800053500801
 20
93.150611886371053
 30
0.0
 11
-43.353563281306748
 21
93.150611886371053
 31
0.0
  0
SOLID
  5
699
  8
DIMENSIONS
 62
     0
 10
-60.8272152053
 20
93.479409860787726
 30
0.0
 11
-60.8272152053
 21
92.821813911954379
 31
0.0
 12
-62.800003051799997
 22
93.150611886371053
 32
0.0
 13
-62.800003051799997
 23
93.150611886371053
 33
0.0
  0
SOLID
  5
69A
  8
DIMENSIONS
 62
     0
 10
-35.172800053500801
 20
93.479409860787726
 30
0.0
 11
-35.172800053500801
 21
92.821813911954379
 31
0.0
 12
-33.200012207000803
 22
93.150611886371053
 32
0.0
 13
-33.200012207000803
 23
93.150611886371053
 33
0.0
  0
TEXT
  5
69B
  8
DIMENSIONS
 62
     0
 10
-53.043562709206753
 20
91.550611981721033
 30
0.0
 40
3.1999998092999991
  1
29.6
  0
POINT
  5
69C
  8
DEFPOINTS
 62
     0
 10
-62.800003051799997
 20
81.0
 30
0.0
  0
POINT
  5
69D
  8
DEFPOINTS
 62
     0
 10
-33.200012207000803
 20
80.999986008790046
 30
0.0
  0
POINT
  5
69E
  8
DEFPOINTS
 62
     0
 10
-33.200012207000803
 20
93.150611886371053
 30
0.0
  0
ENDBLK
  5
694
  8
0
  0
BLOCK
  8
0
  2
*U39
 70
     1
 10
0.0
 20
0.0
 30
0.0
  3
*U39
  1

  0
TEXT
  5
6E6
  8
DIMENSIONS
 10
-141.37746936386739
 20
172.27839987259671
 30
0.0
 40
3.1999998092999991
  1
APW299
  0
TEXT
  5
6E7
  8
DIMENSIONS
 10
-141.37746936386739
 20
166.94506685709669
 30
0.0
 40
3.1999998092999991
  1
(dimensions in mm)
  0
ENDBLK
  5
6E9
  8
0
  0
BLOCK
  8
0
  2
*U40
 70
     1
 10
0.0
 20
0.0
 30
0.0
  3
*U40
  1

  0
TEXT
  5
6EB
  8
DIMENSIONS
 62
     0
 10
-41.289129312751427
 20
111.3236908755332
 30
0.0
 40
3.1999998092999991
  1
23.6
 50
90.0
  0
TEXT
  5
6EC
  8
DIMENSIONS
 62
     0
 10
-41.289129312751427
 20
121.99035690653319
 30
0.0
 40
3.1999998092999991
  1
\U+2205
 50
90.0
  0
TEXT
  5
6ED
  8
DIMENSIONS
 62
     0
 10
-41.289129312751427
 20
125.1903567158332
 30
0.0
 40
3.1999998092999991
  1
23.6
 50
90.0
  0
ENDBLK
  5
6EF
  8
0
  0
BLOCK
  8
0
  2
*U41
 70
     1
 10
0.0
 20
0.0
 30
0.0
  3
*U41
  1

  0
TEXT
  5
6F1
  8
DIMENSIONS
 62
     0
 10
-54.489514612041219
 20
133.51955370373901
 30
0.0
 40
3.1999998092999991
  1
\U+2205
 50
90.0
  0
TEXT
  5
6F2
  8
DIMENSIONS
 62
     0
 10
-54.489514612041219
 20
136.71955351303899
 30
0.0
 40
3.1999998092999991
  1
29.0
 50
90.0
  0
ENDBLK
  5
6F4
  8
0
  0
ENDSEC
  0
SECTION
  2
ENTITIES
  0
DIMENSION
  5
15B
  8
DIMENSIONS
  2
*D26
 10
-24.20001220699999
 20
82.499984741199981
 30
0.0
 11
-24.200012207000011
 21
63.999984741199988
 31
0.0
 70
     1
 13
-42.700012207
 23
45.499984741200002
 33
0.0
 14
-42.700012207
 24
82.499984741199995
 34
0.0
1001
ACAD
1000
DSTYLE
1002
{
1070
    41
1040
1.9727878464999999
1070
    42
1040
2.5399999618999991
1070
    44
1040
3.8099999427999989
1070
    73
1070
     0
1070
   140
1040
3.1999998092999991
1070
   271
1070
     1
1070
   272
1070
     1
1002
}
  0
DIMENSION
  5
167
  8
DIMENSIONS
  2
*D27
 10
-56.089514516691203
 20
154.36507226153279
 30
0.0
 11
-56.089514516691217
 21
139.652886671564
 31
0.0
 70
   129
  1
%%c<>
 13
-100.0000305176
 23
125.3650722615328
 33
0.0
 14
-100.0000305176
 24
154.36507226153279
 34
0.0
1001
ACAD
1000
DSTYLE
1002
{
1070
    41
1040
1.9727878464999999
1070
    42
1040
2.5399999618999991
1070
    44
1040
3.8099999427999989
1070
    73
1070
     0
1070
   140
1040
3.1999998092999991
1070
   271
1070
     1
1070
   272
1070
     1
1002
}
  0
DIMENSION
  5
173
  8
DIMENSIONS
  2
*D28
 10
-105.50001525879991
 20
115.3650722615328
 30
0.0
 11
-119.7500152588
 21
115.3650722615328
 31
0.0
 70
     0
 13
-134.0000152588
 23
125.0650692097328
 33
0.0
 14
-105.50001525879991
 24
126.3650722615328
 34
0.0
1001
ACAD
1000
DSTYLE
1002
{
1070
    41
1040
1.9727878464999999
1070
    42
1040
2.5399999618999991
1070
    44
1040
3.8099999427999989
1070
    73
1070
     0
1070
   140
1040
3.1999998092999991
1070
   271
1070
     1
1070
   272
1070
     1
1002
}
  0
DIMENSION
  5
197
  8
DIMENSIONS
  2
*D31
 10
-92.500015258800005
 20
115.3650722615328
 30
0.0
 11
-99.000015258800005
 21
115.3650722615328
 31
0.0
 70
     0
 13
-105.50001525879991
 23
126.3650722615328
 33
0.0
 14
-92.500015258800005
 24
126.1650600545328
 34
0.0
1001
ACAD
1000
DSTYLE
1002
{
1070
    41
1040
1.9727878464999999
1070
    42
1040
2.5399999618999991
1070
    44
1040
3.8099999427999989
1070
    73
1070
     0
1070
   140
1040
3.1999998092999991
1070
   271
1070
     1
1070
   272
1070
     1
1002
}
  0
INSERT
  5
1E2
  8
LAYER0$C$L0
 62
     3
  2
DETALE-Y
 10
-126.00001499999991
 20
64.0
 30
0.0
  0
INSERT
  5
1E3
  8
LAYER0$C$L0
 62
     3
  2
BLOCK1
 10
-126.00001499999991
 20
139.86507226153279
 30
0.0
  0
INSERT
  5
1E4
  8
LAYER0$C$L0
 62
     3
  2
BLOCK2
 10
-167.99998500000001
 20
63.999984999999988
 30
0.0
  0
TEXT
  5
205
  8
LAYER8$C$L8
 62
     3
 10
-48.0
 20
111.9000091553
 30
0.0
 40
2.5
  1

 72
     5
 11
-48.0
 21
111.9000091553
 31
0.0
  0
TEXT
  5
207
  8
LAYER8$C$L8
 62
     3
 10
-48.0
 20
111.9000091553
 30
0.0
 40
2.5
  1

 72
     5
 11
-48.0
 21
111.9000091553
 31
0.0
  0
TEXT
  5
209
  8
LAYER8$C$L8
 62
     3
 10
-48.0
 20
111.9000091553
 30
0.0
 40
2.5
  1

 72
     5
 11
-48.0
 21
111.9000091553
 31
0.0
  0
INSERT
  5
27F
  8
LAYER8$C$L8
 62
     3
 66
     1
  2
CADRA_ATTR_7
 10
0.0
 20
0.0
 30
0.0
  0
ATTRIB
  5
280
  8
LAYER8$C$L8
 62
     3
 10
-41.999992999999989
 20
18.5
 30
0.0
 40
0.156
  1
ç?^HV  é
  2
20
 70
    11
  0
SEQEND
  5
281
  8
LAYER8$C$L8
 62
     3
  0
CIRCLE
  5
295
  8
LAYER1$C$L1
 62
     3
 10
-48.0
 20
64.0
 30
0.0
 40
11.7999992371
  0
CIRCLE
  5
296
  8
LAYER1$C$L1
 62
     3
 10
-48.0
 20
64.0
 30
0.0
 40
14.0
  0
CIRCLE
  5
297
  8
LAYER1$C$L1
 62
     3
 10
-48.0
 20
64.0
 30
0.0
 40
14.5
  0
ARC
  5
298
  8
LAYER1$C$L1
 62
     3
 10
-34.200012207
 20
80.999984741199995
 30
0.0
 40
1.0
 50
0.000072627560058
 51
89.999982013899995
  0
ARC
  5
299
  8
LAYER1$C$L1
 62
     3
 10
-34.200012207
 20
47.0
 30
0.0
 40
1.0
 50
270.00012726910001
 51
0.000072627600094
  0
ARC
  5
29A
  8
LAYER1$C$L1
 62
     3
 10
-61.800003051799997
 20
81.0
 30
0.0
 40
1.0
 50
89.999982013899995
 51
179.9999640277999
  0
ARC
  5
29B
  8
LAYER1$C$L1
 62
     3
 10
-61.800003051799997
 20
47.000015258799998
 30
0.0
 40
1.0
 50
179.9999640277999
 51
269.9999460416999
  0
ARC
  5
29C
  8
LAYER1$C$L1
 62
     3
 10
-86.552825927699985
 20
57.124053955100003
 30
0.0
 40
4.0
 50
287.6635428779
 51
334.54850217119991
  0
ARC
  5
29D
  8
LAYER1$C$L1
 62
     3
 10
-86.552825927699985
 20
70.8759307861
 30
0.0
 40
4.0
 50
25.451497828800001
 51
72.336457122100015
  0
ARC
  5
29E
  8
LAYER1$C$L1
 62
     3
 10
-101.0000152588
 20
64.0
 30
0.0
 40
20.0
 50
334.54855681279992
 51
0.0
  0
ARC
  5
29F
  8
LAYER1$C$L1
 62
     3
 10
-92.500015258800005
 20
52.199996948200003
 30
0.0
 40
23.599990844699999
 50
72.3363478391
 51
89.999982013899995
  0
ARC
  5
2A0
  8
LAYER1$C$L1
 62
     3
 10
-92.500015258800005
 20
75.799987793
 30
0.0
 40
23.599990844699999
 50
270.00001798609998
 51
287.66365216090003
  0
ARC
  5
2A1
  8
LAYER1$C$L1
 62
     3
 10
-101.0000152588
 20
64.0
 30
0.0
 40
20.0
 50
0.0
 51
25.451443187199999
  0
ARC
  5
2A2
  8
LAYER1$C$L1
 62
     3
 10
-119.50001525879991
 20
52.5
 30
0.0
 40
0.5
 50
89.999982013899995
 51
180.00001866929989
  0
ARC
  5
2A3
  8
LAYER1$C$L1
 62
     3
 10
-120.50001525879991
 20
46.0
 30
0.0
 40
0.5
 50
270.00007262759988
 51
0.0
  0
ARC
  5
2A4
  8
LAYER1$C$L1
 62
     3
 10
-120.50001525879991
 20
46.5
 30
0.0
 40
0.5
 50
270.00007262759988
 51
0.0
  0
ARC
  5
2A5
  8
LAYER1$C$L1
 62
     3
 10
-119.50001525879991
 20
75.5
 30
0.0
 40
0.5
 50
179.9999640277999
 51
270.00000068319991
  0
ARC
  5
2A6
  8
LAYER1$C$L1
 62
     3
 10
-120.50001525879991
 20
82.0
 30
0.0
 40
0.5
 50
0.0
 51
89.999982013899995
  0
ARC
  5
2A7
  8
LAYER1$C$L1
 62
     3
 10
-120.50001525879991
 20
81.5
 30
0.0
 40
0.5
 50
0.0
 51
89.999982013899995
  0
ARC
  5
2A8
  8
LAYER1$C$L1
 62
     3
 10
-86.552825927699985
 20
146.7410030476328
 30
0.0
 40
4.0
 50
25.451497828800001
 51
72.336457122100015
  0
ARC
  5
2A9
  8
LAYER1$C$L1
 62
     3
 10
-92.500015258800005
 20
128.0650692097328
 30
0.0
 40
23.599990844699999
 50
72.3363478391
 51
89.999982013899995
  0
ARC
  5
2AA
  8
LAYER1$C$L1
 62
     3
 10
-101.0000152588
 20
139.86507226153279
 30
0.0
 40
20.0
 50
0.0
 51
25.451443187199999
  0
ARC
  5
2AB
  8
LAYER1$C$L1
 62
     3
 10
-86.552825927699985
 20
132.9891262166328
 30
0.0
 40
4.0
 50
287.6635428779
 51
334.54850217119991
  0
ARC
  5
2AC
  8
LAYER1$C$L1
 62
     3
 10
-92.500015258800005
 20
151.6650600545328
 30
0.0
 40
23.599990844699999
 50
270.00001798609998
 51
287.66365216090003
  0
ARC
  5
2AD
  8
LAYER1$C$L1
 62
     3
 10
-101.0000152588
 20
139.86507226153279
 30
0.0
 40
20.0
 50
334.54855681279992
 51
0.0
  0
ARC
  5
2AE
  8
LAYER1$C$L1
 62
     3
 10
-126.0384674071999
 20
130.5650692097328
 30
0.0
 40
5.3615369797000003
 50
139.2471212506
 51
220.75286144660001
  0
ARC
  5
2AF
  8
LAYER1$C$L1
 62
     3
 10
-113.80001831049989
 20
139.86507226153279
 30
0.0
 40
1.0
 50
180.0000906137
 51
270.00007262759988
  0
ARC
  5
2B0
  8
LAYER1$C$L1
 62
     3
 10
-120.50001525879991
 20
125.5650692097328
 30
0.0
 40
0.5
 50
270.00007262759988
 51
0.0
  0
ARC
  5
2B1
  8
LAYER1$C$L1
 62
     3
 10
-119.50001525879991
 20
128.36507226153279
 30
0.0
 40
0.5
 50
89.999982013899995
 51
180.00001866929989
  0
ARC
  5
2B2
  8
LAYER1$C$L1
 62
     3
 10
-113.80001831049989
 20
139.86507226153279
 30
0.0
 40
1.0
 50
89.999982013899995
 51
179.9999640277999
  0
ARC
  5
2B3
  8
LAYER1$C$L1
 62
     3
 10
-120.50001525879991
 20
154.1650600545328
 30
0.0
 40
0.5
 50
0.0
 51
89.999982013899995
  0
ARC
  5
2B4
  8
LAYER1$C$L1
 62
     3
 10
-119.50001525879991
 20
151.36507226153279
 30
0.0
 40
0.5
 50
179.9999640277999
 51
270.00000068319991
  0
ARC
  5
2B5
  8
LAYER1$C$L1
 62
     3
 10
-154.19999694820001
 20
81.0
 30
0.0
 40
1.0
 50
0.0
 51
89.999982013899995
  0
ARC
  5
2B6
  8
LAYER1$C$L1
 62
     3
 10
-181.7999877929999
 20
80.999984741199995
 30
0.0
 40
1.0
 50
89.999982013899995
 51
179.9999640277999
  0
ARC
  5
2B7
  8
LAYER1$C$L1
 62
     3
 10
-155.17158508299991
 20
80.528411865199999
 30
0.0
 40
0.1949999332
 50
6.3401811536999988
 51
83.659872577200005
  0
ARC
  5
2B8
  8
LAYER1$C$L1
 62
     3
 10
-155.17158508299991
 20
73.47157287600001
 30
0.0
 40
0.1949999332
 50
276.34023670580001
 51
353.65996569539988
  0
ARC
  5
2B9
  8
LAYER1$C$L1
 62
     3
 10
-146.02500915530001
 20
77.0
 30
0.0
 40
8.9699993134000007
 50
168.0311776584
 51
191.96869575569991
  0
ARC
  5
2BA
  8
LAYER1$C$L1
 62
     3
 10
-158.69999694820001
 20
89.674987792999985
 30
0.0
 40
8.9699993134000007
 50
270.00012726910001
 51
281.96885899699993
  0
ARC
  5
2BB
  8
LAYER1$C$L1
 62
     3
 10
-158.69999694820001
 20
64.324996948199995
 30
0.0
 40
8.9699993134000007
 50
78.031195644500002
 51
89.999982013899995
  0
ARC
  5
2BC
  8
LAYER1$C$L1
 62
     3
 10
-158.69999694820001
 20
77.0
 30
0.0
 40
3.4124994277999989
 50
270.00012726910001
 51
89.999982013899938
  0
ARC
  5
2BD
  8
LAYER1$C$L1
 62
     3
 10
-162.22840881350001
 20
80.528411865199999
 30
0.0
 40
0.1949999332
 50
96.340091450599999
 51
173.65985459109999
  0
ARC
  5
2BE
  8
LAYER1$C$L1
 62
     3
 10
-162.22840881350001
 20
73.47157287600001
 30
0.0
 40
0.1949999332
 50
186.3401454088999
 51
263.65990854939992
  0
ARC
  5
2BF
  8
LAYER1$C$L1
 62
     3
 10
-171.3749847412
 20
76.999984741199995
 30
0.0
 40
8.9699993134000007
 50
348.03128876269989
 51
11.968803444900029
  0
ARC
  5
2C0
  8
LAYER1$C$L1
 62
     3
 10
-158.69999694820001
 20
89.674987792999985
 30
0.0
 40
8.9699993134000007
 50
258.0312862582
 51
270.00001798609998
  0
ARC
  5
2C1
  8
LAYER1$C$L1
 62
     3
 10
-158.69999694820001
 20
64.324996948199995
 30
0.0
 40
8.9699993134000007
 50
89.999982013899995
 51
101.9687137417999
  0
ARC
  5
2C2
  8
LAYER1$C$L1
 62
     3
 10
-158.69999694820001
 20
77.0
 30
0.0
 40
3.4124994277999989
 50
89.999982013899995
 51
269.9999460416999
  0
ARC
  5
2C3
  8
LAYER1$C$L1
 62
     3
 10
-181.7999877929999
 20
47.0
 30
0.0
 40
1.0
 50
179.9999640277999
 51
269.9999460416999
  0
ARC
  5
2C4
  8
LAYER1$C$L1
 62
     3
 10
-154.19999694820001
 20
47.0
 30
0.0
 40
1.0
 50
270.00007262759988
 51
0.0
  0
ARC
  5
2C5
  8
LAYER1$C$L1
 62
     3
 10
-180.8283996582
 20
47.471588134799987
 30
0.0
 40
0.1949999332
 50
186.3402000504
 51
263.65990854939992
  0
ARC
  5
2C6
  8
LAYER1$C$L1
 62
     3
 10
-180.8283996582
 20
54.528411865199999
 30
0.0
 40
0.1949999332
 50
96.340146092099985
 51
173.65990923259989
  0
ARC
  5
2C7
  8
LAYER1$C$L1
 62
     3
 10
-189.97497558590001
 20
51.0
 30
0.0
 40
8.9699993134000007
 50
348.03123412109989
 51
11.96874880339999
  0
ARC
  5
2C8
  8
LAYER1$C$L1
 62
     3
 10
-177.2999877929999
 20
38.325027465799991
 30
0.0
 40
8.9699993134000007
 50
90.00003665540001
 51
101.9687683833
  0
ARC
  5
2C9
  8
LAYER1$C$L1
 62
     3
 10
-177.2999877929999
 20
63.674987792999993
 30
0.0
 40
8.9699993134000007
 50
258.0312862582
 51
270.00001798609998
  0
ARC
  5
2CA
  8
LAYER1$C$L1
 62
     3
 10
-177.2999877929999
 20
51.0
 30
0.0
 40
3.4124994277999989
 50
90.00003665540001
 51
269.9999460416999
  0
ARC
  5
2CB
  8
LAYER1$C$L1
 62
     3
 10
-173.77157592770001
 20
47.471603393599992
 30
0.0
 40
0.1949999332
 50
276.3401820643
 51
353.65991105389998
  0
ARC
  5
2CC
  8
LAYER1$C$L1
 62
     3
 10
-173.77157592770001
 20
54.528411865199999
 30
0.0
 40
0.1949999332
 50
6.3401265122000003
 51
83.659817935699976
  0
ARC
  5
2CD
  8
LAYER1$C$L1
 62
     3
 10
-164.625
 20
51.0
 30
0.0
 40
8.9699993134000007
 50
168.03123229990001
 51
191.9687503971999
  0
ARC
  5
2CE
  8
LAYER1$C$L1
 62
     3
 10
-177.2999877929999
 20
38.325027465799991
 30
0.0
 40
8.9699993134000007
 50
78.031195644500002
 51
89.999927372399995
  0
ARC
  5
2CF
  8
LAYER1$C$L1
 62
     3
 10
-177.2999877929999
 20
63.674987792999993
 30
0.0
 40
8.9699993134000007
 50
270.00007262759988
 51
281.96880435549991
  0
ARC
  5
2D0
  8
LAYER1$C$L1
 62
     3
 10
-177.2999877929999
 20
51.0
 30
0.0
 40
3.4124994277999989
 50
270.00007262759988
 51
89.999927372399895
  0
CIRCLE
  5
2D1
  8
LAYER1$C$L1
 62
     3
 10
-177.2999877929999
 20
63.999984741200002
 30
0.0
 40
2.5999994277999989
  0
CIRCLE
  5
2D2
  8
LAYER1$C$L1
 62
     3
 10
-158.69999694820001
 20
64.0
 30
0.0
 40
2.5999994277999989
  0
CIRCLE
  5
2D3
  8
LAYER1$C$L1
 62
     3
 10
-158.69999694820001
 20
64.0
 30
0.0
 40
1.5999994278
  0
CIRCLE
  5
2D4
  8
LAYER1$C$L1
 62
     3
 10
-177.2999877929999
 20
63.999984741200002
 30
0.0
 40
1.5999994278
  0
LINE
  5
2F0
  8
LAYER3$C$L3
  6
CENTERLINE
 62
     3
 10
-65.457260131799998
 20
64.0
 30
0.0
 11
-30.006912231400001
 21
64.0
 31
0.0
  0
LINE
  5
2F1
  8
LAYER1$C$L1
 62
     3
 10
-48.000015258799991
 20
80.5
 30
0.0
 11
-43.800003051799997
 21
80.5
 31
0.0
  0
LINE
  5
2F2
  8
LAYER1$C$L1
 62
     3
 10
-48.000015258799991
 20
47.5
 30
0.0
 11
-43.800003051799997
 21
47.5
 31
0.0
  0
LINE
  5
2F3
  8
LAYER3$C$L3
  6
CENTERLINE
 62
     3
 10
-48.000015258799991
 20
84.278167724599996
 30
0.0
 11
-48.000015258799991
 21
42.9923706055
 31
0.0
  0
LINE
  5
2F4
  8
LAYER1$C$L1
 62
     3
 10
-48.000015258799991
 20
82.5
 30
0.0
 11
-46.90000915529999
 21
82.5
 31
0.0
  0
LINE
  5
2F5
  8
LAYER1$C$L1
 62
     3
 10
-42.700012207
 20
45.499999999999993
 30
0.0
 11
-43.800003051799997
 21
45.499999999999993
 31
0.0
  0
LINE
  5
2F6
  8
LAYER1$C$L1
 62
     3
 10
-43.800003051799997
 20
82.5
 30
0.0
 11
-43.800003051799997
 21
80.5
 31
0.0
  0
LINE
  5
2F7
  8
LAYER1$C$L1
 62
     3
 10
-43.800003051799997
 20
47.5
 30
0.0
 11
-43.800003051799997
 21
45.499999999999993
 31
0.0
  0
LINE
  5
2F8
  8
LAYER1$C$L1
 62
     3
 10
-46.90000915529999
 20
82.5
 30
0.0
 11
-46.90000915529999
 21
80.5
 31
0.0
  0
LINE
  5
2F9
  8
LAYER1$C$L1
 62
     3
 10
-46.90000915529999
 20
47.5
 30
0.0
 11
-46.90000915529999
 21
45.499999999999993
 31
0.0
  0
LINE
  5
2FA
  8
LAYER1$C$L1
 62
     3
 10
-46.90000915529999
 20
45.499999999999993
 30
0.0
 11
-48.000015258799991
 21
45.499999999999993
 31
0.0
  0
LINE
  5
2FB
  8
LAYER1$C$L1
 62
     3
 10
-43.800003051799997
 20
82.5
 30
0.0
 11
-42.700012207
 21
82.5
 31
0.0
  0
LINE
  5
2FC
  8
LAYER1$C$L1
 62
     3
 10
-42.700012207
 20
82.0
 30
0.0
 11
-42.700012207
 21
82.5
 31
0.0
  0
LINE
  5
2FD
  8
LAYER1$C$L1
 62
     3
 10
-42.700012207
 20
46.0
 30
0.0
 11
-42.700012207
 21
45.499999999999993
 31
0.0
  0
LINE
  5
2FE
  8
LAYER1$C$L1
 62
     3
 10
-42.700012207
 20
82.0
 30
0.0
 11
-34.200012207
 21
82.0
 31
0.0
  0
LINE
  5
2FF
  8
LAYER1$C$L1
 62
     3
 10
-42.700012207
 20
46.0
 30
0.0
 11
-34.200012207
 21
46.0
 31
0.0
  0
LINE
  5
300
  8
LAYER1$C$L1
 62
     3
 10
-33.200012207
 20
81.0
 30
0.0
 11
-33.200012207
 21
47.0
 31
0.0
  0
LINE
  5
301
  8
LAYER1$C$L1
 62
     3
 10
-52.200012207
 20
80.5
 30
0.0
 11
-48.000015258799991
 21
80.5
 31
0.0
  0
LINE
  5
302
  8
LAYER1$C$L1
 62
     3
 10
-52.200012207
 20
47.5
 30
0.0
 11
-48.000015258799991
 21
47.5
 31
0.0
  0
LINE
  5
303
  8
LAYER1$C$L1
 62
     3
 10
-49.1000061035
 20
82.5
 30
0.0
 11
-48.000015258799991
 21
82.5
 31
0.0
  0
LINE
  5
304
  8
LAYER1$C$L1
 62
     3
 10
-52.200012207
 20
45.499999999999993
 30
0.0
 11
-53.300003051799997
 21
45.499999999999993
 31
0.0
  0
LINE
  5
305
  8
LAYER1$C$L1
 62
     3
 10
-52.200012207
 20
80.5
 30
0.0
 11
-52.200012207
 21
82.5
 31
0.0
  0
LINE
  5
306
  8
LAYER1$C$L1
 62
     3
 10
-52.200012207
 20
45.499999999999993
 30
0.0
 11
-52.200012207
 21
47.5
 31
0.0
  0
LINE
  5
307
  8
LAYER1$C$L1
 62
     3
 10
-49.1000061035
 20
80.5
 30
0.0
 11
-49.1000061035
 21
82.5
 31
0.0
  0
LINE
  5
308
  8
LAYER1$C$L1
 62
     3
 10
-49.1000061035
 20
45.499999999999993
 30
0.0
 11
-49.1000061035
 21
47.5
 31
0.0
  0
LINE
  5
309
  8
LAYER1$C$L1
 62
     3
 10
-48.000015258799991
 20
45.499999999999993
 30
0.0
 11
-49.1000061035
 21
45.499999999999993
 31
0.0
  0
LINE
  5
30A
  8
LAYER1$C$L1
 62
     3
 10
-53.300003051799997
 20
82.5
 30
0.0
 11
-52.200012207
 21
82.5
 31
0.0
  0
LINE
  5
30B
  8
LAYER1$C$L1
 62
     3
 10
-53.300003051799997
 20
82.5
 30
0.0
 11
-53.300003051799997
 21
82.0
 31
0.0
  0
LINE
  5
30C
  8
LAYER1$C$L1
 62
     3
 10
-53.300003051799997
 20
45.499999999999993
 30
0.0
 11
-53.300003051799997
 21
46.0
 31
0.0
  0
LINE
  5
30D
  8
LAYER1$C$L1
 62
     3
 10
-61.800003051799997
 20
82.0
 30
0.0
 11
-53.300003051799997
 21
82.0
 31
0.0
  0
LINE
  5
30E
  8
LAYER1$C$L1
 62
     3
 10
-61.800003051799997
 20
46.0
 30
0.0
 11
-53.300003051799997
 21
46.0
 31
0.0
  0
LINE
  5
30F
  8
LAYER1$C$L1
 62
     3
 10
-62.800003051799997
 20
47.0
 30
0.0
 11
-62.800003051799997
 21
81.0
 31
0.0
  0
LINE
  5
310
  8
LAYER1$C$L1
 62
     3
 10
-103.6033630371
 20
61.899993896499993
 30
0.0
 11
-104.70002746580001
 21
61.899993896499993
 31
0.0
  0
LINE
  5
311
  8
LAYER1$C$L1
 62
     3
 10
-102.28359985349999
 20
59.299987792999993
 30
0.0
 11
-104.70002746580001
 21
59.299987792999993
 31
0.0
  0
LINE
  5
312
  8
LAYER1$C$L1
 62
     3
 10
-101.0444641112999
 20
57.0
 30
0.0
 11
-104.70002746580001
 21
57.0
 31
0.0
  0
LINE
  5
313
  8
LAYER1$C$L1
 62
     3
 10
-100.0000305176
 20
55.0
 30
0.0
 11
-104.70002746580001
 21
55.0
 31
0.0
  0
LINE
  5
314
  8
LAYER1$C$L1
 62
     3
 10
-100.0000305176
 20
53.299987793
 30
0.0
 11
-104.70002746580001
 21
53.299987793
 31
0.0
  0
LINE
  5
315
  8
LAYER1$C$L1
 62
     3
 10
-100.0000305176
 20
51.899993896499993
 30
0.0
 11
-104.70002746580001
 21
51.899993896499993
 31
0.0
  0
LINE
  5
316
  8
LAYER1$C$L1
 62
     3
 10
-100.0000305176
 20
50.799987793
 30
0.0
 11
-104.70002746580001
 21
50.799987793
 31
0.0
  0
LINE
  5
317
  8
LAYER1$C$L1
 62
     3
 10
-100.0000305176
 20
50.0
 30
0.0
 11
-104.70002746580001
 21
50.0
 31
0.0
  0
LINE
  5
318
  8
LAYER1$C$L1
 62
     3
 10
-92.500022669900005
 20
50.3000037658
 30
0.0
 11
-92.800027304199986
 21
49.99999913149999
 31
0.0
  0
LINE
  5
319
  8
LAYER1$C$L1
 62
     3
 10
-99.500008521799998
 20
50.000009921099988
 30
0.0
 11
-100.00000905260001
 21
49.500009390300001
 31
0.0
  0
LINE
  5
31A
  8
LAYER1$C$L1
 62
     3
 10
-92.800018310499979
 20
50.0
 30
0.0
 11
-99.500030517599996
 21
50.0
 31
0.0
  0
LINE
  5
31B
  8
LAYER1$C$L1
 62
     3
 10
-99.500030517599996
 20
64.0
 30
0.0
 11
-99.500030517599996
 21
50.0
 31
0.0
  0
LINE
  5
31C
  8
LAYER1$C$L1
 62
     3
 10
-92.800018310499979
 20
64.0
 30
0.0
 11
-92.800018310499979
 21
50.0
 31
0.0
  0
LINE
  5
31D
  8
LAYER1$C$L1
 62
     3
 10
-92.500015258800005
 20
64.0
 30
0.0
 11
-92.500015258800005
 21
50.299987793
 31
0.0
  0
LINE
  5
31E
  8
LAYER1$C$L1
 62
     3
 10
-100.0000305176
 20
49.5
 30
0.0
 11
-104.70002746580001
 21
49.5
 31
0.0
  0
LINE
  5
31F
  8
LAYER1$C$L1
 62
     3
 10
-100.0000305176
 20
64.0
 30
0.0
 11
-100.0000305176
 21
49.5
 31
0.0
  0
LINE
  5
320
  8
LAYER1$C$L1
 62
     3
 10
-104.7000067993999
 20
49.499998988000002
 30
0.0
 11
-105.5000065326999
 21
50.499998654599999
 31
0.0
  0
LINE
  5
321
  8
LAYER1$C$L1
 62
     3
 10
-104.70002746580001
 20
64.0
 30
0.0
 11
-104.70002746580001
 21
49.5
 31
0.0
  0
LINE
  5
322
  8
LAYER1$C$L1
 62
     3
 10
-105.50001525879991
 20
64.0
 30
0.0
 11
-105.50001525879991
 21
50.5
 31
0.0
  0
LINE
  5
323
  8
LAYER1$C$L1
 62
     3
 10
-101.0966949463
 20
66.099990844700002
 30
0.0
 11
-100.0000305176
 21
66.099990844700002
 31
0.0
  0
LINE
  5
324
  8
LAYER1$C$L1
 62
     3
 10
-102.4544677733999
 20
68.699996948199995
 30
0.0
 11
-100.0000305176
 21
68.699996948199995
 31
0.0
  0
LINE
  5
325
  8
LAYER1$C$L1
 62
     3
 10
-103.65557861329989
 20
70.999984741199995
 30
0.0
 11
-100.0000305176
 21
70.999984741199995
 31
0.0
  0
LINE
  5
326
  8
LAYER1$C$L1
 62
     3
 10
-104.70002746580001
 20
72.999984741199995
 30
0.0
 11
-100.0000305176
 21
72.999984741199995
 31
0.0
  0
LINE
  5
327
  8
LAYER1$C$L1
 62
     3
 10
-104.70002746580001
 20
74.699996948199995
 30
0.0
 11
-100.0000305176
 21
74.699996948199995
 31
0.0
  0
LINE
  5
328
  8
LAYER1$C$L1
 62
     3
 10
-104.70002746580001
 20
76.099990844700002
 30
0.0
 11
-100.0000305176
 21
76.099990844700002
 31
0.0
  0
LINE
  5
329
  8
LAYER1$C$L1
 62
     3
 10
-104.70002746580001
 20
77.199996948199995
 30
0.0
 11
-100.0000305176
 21
77.199996948199995
 31
0.0
  0
LINE
  5
32A
  8
LAYER1$C$L1
 62
     3
 10
-104.70002746580001
 20
78.0
 30
0.0
 11
-100.0000305176
 21
78.0
 31
0.0
  0
LINE
  5
32B
  8
LAYER1$C$L1
 62
     3
 10
-92.800028652900011
 20
77.999984348899986
 30
0.0
 11
-92.500024018599987
 21
77.699979714600005
 31
0.0
  0
LINE
  5
32C
  8
LAYER1$C$L1
 62
     3
 10
-100.0000211909
 20
78.499963300600001
 30
0.0
 11
-99.500020660100006
 21
77.999962769799993
 31
0.0
  0
LINE
  5
32D
  8
LAYER1$C$L1
 62
     3
 10
-99.500030517599996
 20
78.0
 30
0.0
 11
-92.800018310499979
 21
78.0
 31
0.0
  0
LINE
  5
32E
  8
LAYER1$C$L1
 62
     3
 10
-99.500030517599996
 20
78.0
 30
0.0
 11
-99.500030517599996
 21
64.0
 31
0.0
  0
LINE
  5
32F
  8
LAYER1$C$L1
 62
     3
 10
-92.800018310499979
 20
78.0
 30
0.0
 11
-92.800018310499979
 21
64.0
 31
0.0
  0
LINE
  5
330
  8
LAYER1$C$L1
 62
     3
 10
-92.500015258800005
 20
77.699996948199995
 30
0.0
 11
-92.500015258800005
 21
64.0
 31
0.0
  0
LINE
  5
331
  8
LAYER1$C$L1
 62
     3
 10
-104.70002746580001
 20
78.5
 30
0.0
 11
-100.0000305176
 21
78.5
 31
0.0
  0
LINE
  5
332
  8
LAYER1$C$L1
 62
     3
 10
-100.0000305176
 20
78.5
 30
0.0
 11
-100.0000305176
 21
64.0
 31
0.0
  0
LINE
  5
333
  8
LAYER1$C$L1
 62
     3
 10
-105.5000083199
 20
77.499956440299997
 30
0.0
 11
-104.70000858660001
 21
78.499956107000003
 31
0.0
  0
LINE
  5
334
  8
LAYER1$C$L1
 62
     3
 10
-104.70002746580001
 20
78.5
 30
0.0
 11
-104.70002746580001
 21
64.0
 31
0.0
  0
LINE
  5
335
  8
LAYER1$C$L1
 62
     3
 10
-105.50001525879991
 20
77.5
 30
0.0
 11
-105.50001525879991
 21
64.0
 31
0.0
  0
LINE
  5
336
  8
LAYER1$C$L1
 62
     3
 10
-105.50001525879991
 20
53.0
 30
0.0
 11
-107.50001525879991
 21
53.0
 31
0.0
  0
LINE
  5
337
  8
LAYER1$C$L1
 62
     3
 10
-114.80001831049989
 20
52.799987793
 30
0.0
 11
-118.5000305176
 21
52.799987793
 31
0.0
  0
LINE
  5
338
  8
LAYER1$C$L1
 62
     3
 10
-114.80001831049989
 20
52.0
 30
0.0
 11
-118.5000305176
 21
52.0
 31
0.0
  0
LINE
  5
339
  8
LAYER1$C$L1
 62
     3
 10
-111.1800231934
 20
61.899993896499993
 30
0.0
 11
-112.30001831049999
 21
61.899993896499993
 31
0.0
  0
LINE
  5
33A
  8
LAYER1$C$L1
 62
     3
 10
-109.79336547849999
 20
59.299987792999993
 30
0.0
 11
-112.30001831049999
 21
59.299987792999993
 31
0.0
  0
LINE
  5
33B
  8
LAYER1$C$L1
 62
     3
 10
-108.566696167
 20
57.0
 30
0.0
 11
-112.30001831049999
 21
57.0
 31
0.0
  0
LINE
  5
33C
  8
LAYER1$C$L1
 62
     3
 10
-107.50001525879991
 20
55.0
 30
0.0
 11
-112.30001831049999
 21
55.0
 31
0.0
  0
LINE
  5
33D
  8
LAYER1$C$L1
 62
     3
 10
-107.50001525879991
 20
53.299987793
 30
0.0
 11
-112.30001831049999
 21
53.299987793
 31
0.0
  0
LINE
  5
33E
  8
LAYER1$C$L1
 62
     3
 10
-107.50001525879991
 20
51.899993896499993
 30
0.0
 11
-112.30001831049999
 21
51.899993896499993
 31
0.0
  0
LINE
  5
33F
  8
LAYER1$C$L1
 62
     3
 10
-107.50001525879991
 20
50.799987793
 30
0.0
 11
-112.30001831049999
 21
50.799987793
 31
0.0
  0
LINE
  5
340
  8
LAYER1$C$L1
 62
     3
 10
-107.50001525879991
 20
50.0
 30
0.0
 11
-112.30001831049999
 21
50.0
 31
0.0
  0
LINE
  5
341
  8
LAYER1$C$L1
 62
     3
 10
-112.30001831049999
 20
50.0
 30
0.0
 11
-114.80001831049989
 21
50.0
 31
0.0
  0
LINE
  5
342
  8
LAYER1$C$L1
 62
     3
 10
-107.50001525879991
 20
49.5
 30
0.0
 11
-112.30001831049999
 21
49.5
 31
0.0
  0
LINE
  5
343
  8
LAYER1$C$L1
 62
     3
 10
-112.30001831049999
 20
64.0
 30
0.0
 11
-112.30001831049999
 21
49.5
 31
0.0
  0
LINE
  5
344
  8
LAYER1$C$L1
 62
     3
 10
-114.80001831049989
 20
64.0
 30
0.0
 11
-114.80001831049989
 21
50.0
 31
0.0
  0
LINE
  5
345
  8
LAYER1$C$L1
 62
     3
 10
-107.50001525879991
 20
64.0
 30
0.0
 11
-107.50001525879991
 21
49.5
 31
0.0
  0
LINE
  5
346
  8
LAYER1$C$L1
 62
     3
 10
-120.00001525879991
 20
64.0
 30
0.0
 11
-120.00001525879991
 21
52.5
 31
0.0
  0
LINE
  5
347
  8
LAYER1$C$L1
 62
     3
 10
-118.5000305176
 20
53.0
 30
0.0
 11
-119.50001525879991
 21
53.0
 31
0.0
  0
LINE
  5
348
  8
LAYER1$C$L1
 62
     3
 10
-118.5000305176
 20
64.0
 30
0.0
 11
-118.5000305176
 21
52.0
 31
0.0
  0
LINE
  5
349
  8
LAYER1$C$L1
 62
     3
 10
-120.50001525879991
 20
46.0
 30
0.0
 11
-134.0000152588
 21
46.0
 31
0.0
  0
LINE
  5
34A
  8
LAYER1$C$L1
 62
     3
 10
-120.50001525879991
 20
45.499999999999993
 30
0.0
 11
-134.0000152588
 21
45.499999999999993
 31
0.0
  0
LINE
  5
34B
  8
LAYER1$C$L1
 62
     3
 10
-120.00001525879991
 20
52.5
 30
0.0
 11
-120.00001525879991
 21
46.0
 31
0.0
  0
LINE
  5
34C
  8
LAYER1$C$L1
 62
     3
 10
-134.0000152588
 20
64.0
 30
0.0
 11
-134.0000152588
 21
45.499999999999993
 31
0.0
  0
LINE
  5
34D
  8
LAYER1$C$L1
 62
     3
 10
-108.6200256347999
 20
66.099990844700002
 30
0.0
 11
-107.50001525879991
 21
66.099990844700002
 31
0.0
  0
LINE
  5
34E
  8
LAYER1$C$L1
 62
     3
 10
-110.0066986083999
 20
68.699996948199995
 30
0.0
 11
-107.50001525879991
 21
68.699996948199995
 31
0.0
  0
LINE
  5
34F
  8
LAYER1$C$L1
 62
     3
 10
-111.2333679199
 20
70.999984741199995
 30
0.0
 11
-107.50001525879991
 21
70.999984741199995
 31
0.0
  0
LINE
  5
350
  8
LAYER1$C$L1
 62
     3
 10
-112.30001831049999
 20
72.999984741199995
 30
0.0
 11
-107.50001525879991
 21
72.999984741199995
 31
0.0
  0
LINE
  5
351
  8
LAYER1$C$L1
 62
     3
 10
-112.30001831049999
 20
74.699996948199995
 30
0.0
 11
-107.50001525879991
 21
74.699996948199995
 31
0.0
  0
LINE
  5
352
  8
LAYER1$C$L1
 62
     3
 10
-112.30001831049999
 20
76.099990844700002
 30
0.0
 11
-107.50001525879991
 21
76.099990844700002
 31
0.0
  0
LINE
  5
353
  8
LAYER1$C$L1
 62
     3
 10
-112.30001831049999
 20
77.199996948199995
 30
0.0
 11
-107.50001525879991
 21
77.199996948199995
 31
0.0
  0
LINE
  5
354
  8
LAYER1$C$L1
 62
     3
 10
-112.30001831049999
 20
78.0
 30
0.0
 11
-107.50001525879991
 21
78.0
 31
0.0
  0
LINE
  5
355
  8
LAYER1$C$L1
 62
     3
 10
-114.80001831049989
 20
78.0
 30
0.0
 11
-112.30001831049999
 21
78.0
 31
0.0
  0
LINE
  5
356
  8
LAYER1$C$L1
 62
     3
 10
-112.30001831049999
 20
78.5
 30
0.0
 11
-107.50001525879991
 21
78.5
 31
0.0
  0
LINE
  5
357
  8
LAYER1$C$L1
 62
     3
 10
-112.30001831049999
 20
78.5
 30
0.0
 11
-112.30001831049999
 21
64.0
 31
0.0
  0
LINE
  5
358
  8
LAYER1$C$L1
 62
     3
 10
-114.80001831049989
 20
78.0
 30
0.0
 11
-114.80001831049989
 21
64.0
 31
0.0
  0
LINE
  5
359
  8
LAYER1$C$L1
 62
     3
 10
-107.50001525879991
 20
78.5
 30
0.0
 11
-107.50001525879991
 21
64.0
 31
0.0
  0
LINE
  5
35A
  8
LAYER1$C$L1
 62
     3
 10
-107.50001525879991
 20
75.0
 30
0.0
 11
-105.50001525879991
 21
75.0
 31
0.0
  0
LINE
  5
35B
  8
LAYER1$C$L1
 62
     3
 10
-118.5000305176
 20
75.199996948199995
 30
0.0
 11
-114.80001831049989
 21
75.199996948199995
 31
0.0
  0
LINE
  5
35C
  8
LAYER1$C$L1
 62
     3
 10
-120.00001525879991
 20
75.5
 30
0.0
 11
-120.00001525879991
 21
64.0
 31
0.0
  0
LINE
  5
35D
  8
LAYER1$C$L1
 62
     3
 10
-119.50001525879991
 20
75.0
 30
0.0
 11
-118.5000305176
 21
75.0
 31
0.0
  0
LINE
  5
35E
  8
LAYER1$C$L1
 62
     3
 10
-118.5000305176
 20
76.0
 30
0.0
 11
-114.80001831049989
 21
76.0
 31
0.0
  0
LINE
  5
35F
  8
LAYER1$C$L1
 62
     3
 10
-118.5000305176
 20
76.0
 30
0.0
 11
-118.5000305176
 21
64.0
 31
0.0
  0
LINE
  5
360
  8
LAYER1$C$L1
 62
     3
 10
-134.0000152588
 20
82.0
 30
0.0
 11
-120.50001525879991
 21
82.0
 31
0.0
  0
LINE
  5
361
  8
LAYER1$C$L1
 62
     3
 10
-134.0000152588
 20
82.5
 30
0.0
 11
-120.50001525879991
 21
82.5
 31
0.0
  0
LINE
  5
362
  8
LAYER1$C$L1
 62
     3
 10
-120.00001525879991
 20
82.0
 30
0.0
 11
-120.00001525879991
 21
75.5
 31
0.0
  0
LINE
  5
363
  8
LAYER1$C$L1
 62
     3
 10
-134.0000152588
 20
82.5
 30
0.0
 11
-134.0000152588
 21
64.0
 31
0.0
  0
LINE
  5
364
  8
LAYER3$C$L3
  6
CENTERLINE
 62
     3
 10
-143.65687561039999
 20
64.0
 30
0.0
 11
-78.35243225100001
 21
64.0
 31
0.0
  0
LINE
  5
365
  8
LAYER1$C$L1
 62
     3
 10
-103.6033630371
 20
137.76506615803279
 30
0.0
 11
-104.70002746580001
 21
137.76506615803279
 31
0.0
  0
LINE
  5
366
  8
LAYER1$C$L1
 62
     3
 10
-102.28359985349999
 20
135.1650600545328
 30
0.0
 11
-104.70002746580001
 21
135.1650600545328
 31
0.0
  0
LINE
  5
367
  8
LAYER1$C$L1
 62
     3
 10
-101.0444641112999
 20
132.86507226153279
 30
0.0
 11
-104.70002746580001
 21
132.86507226153279
 31
0.0
  0
LINE
  5
368
  8
LAYER1$C$L1
 62
     3
 10
-100.0000305176
 20
130.86507226153279
 30
0.0
 11
-104.70002746580001
 21
130.86507226153279
 31
0.0
  0
LINE
  5
369
  8
LAYER1$C$L1
 62
     3
 10
-100.0000305176
 20
129.1650600545328
 30
0.0
 11
-104.70002746580001
 21
129.1650600545328
 31
0.0
  0
LINE
  5
36A
  8
LAYER1$C$L1
 62
     3
 10
-100.0000305176
 20
127.76506615803279
 30
0.0
 11
-104.70002746580001
 21
127.76506615803279
 31
0.0
  0
LINE
  5
36B
  8
LAYER1$C$L1
 62
     3
 10
-100.0000305176
 20
126.6650600545328
 30
0.0
 11
-104.70002746580001
 21
126.6650600545328
 31
0.0
  0
LINE
  5
36C
  8
LAYER1$C$L1
 62
     3
 10
-100.0000305176
 20
125.8650722615328
 30
0.0
 11
-104.70002746580001
 21
125.8650722615328
 31
0.0
  0
LINE
  5
36D
  8
LAYER1$C$L1
 62
     3
 10
-92.500024018599987
 20
126.16507363643279
 30
0.0
 11
-92.800028652900011
 21
125.8650690021328
 31
0.0
  0
LINE
  5
36E
  8
LAYER1$C$L1
 62
     3
 10
-99.500009870499994
 20
125.8650797917328
 30
0.0
 11
-100.0000104012999
 21
125.3650792609328
 31
0.0
  0
LINE
  5
36F
  8
LAYER1$C$L1
 62
     3
 10
-92.800018310499979
 20
125.8650722615328
 30
0.0
 11
-99.500030517599996
 21
125.8650722615328
 31
0.0
  0
LINE
  5
370
  8
LAYER1$C$L1
 62
     3
 10
-99.500030517599996
 20
139.86507226153279
 30
0.0
 11
-99.500030517599996
 21
125.8650722615328
 31
0.0
  0
LINE
  5
371
  8
LAYER1$C$L1
 62
     3
 10
-92.800018310499979
 20
139.86507226153279
 30
0.0
 11
-92.800018310499979
 21
125.8650722615328
 31
0.0
  0
LINE
  5
372
  8
LAYER1$C$L1
 62
     3
 10
-92.500015258800005
 20
139.86507226153279
 30
0.0
 11
-92.500015258800005
 21
126.1650600545328
 31
0.0
  0
LINE
  5
373
  8
LAYER1$C$L1
 62
     3
 10
-100.0000305176
 20
125.3650722615328
 30
0.0
 11
-104.70002746580001
 21
125.3650722615328
 31
0.0
  0
LINE
  5
374
  8
LAYER1$C$L1
 62
     3
 10
-100.0000305176
 20
139.86507226153279
 30
0.0
 11
-100.0000305176
 21
125.3650722615328
 31
0.0
  0
LINE
  5
375
  8
LAYER1$C$L1
 62
     3
 10
-104.70001618249989
 20
125.3650828225328
 30
0.0
 11
-105.50001591580001
 21
126.3650824891328
 31
0.0
  0
LINE
  5
376
  8
LAYER1$C$L1
 62
     3
 10
-104.70002746580001
 20
139.86507226153279
 30
0.0
 11
-104.70002746580001
 21
125.3650722615328
 31
0.0
  0
LINE
  5
377
  8
LAYER1$C$L1
 62
     3
 10
-105.50001525879991
 20
139.86507226153279
 30
0.0
 11
-105.50001525879991
 21
126.3650722615328
 31
0.0
  0
LINE
  5
378
  8
LAYER1$C$L1
 62
     3
 10
-101.0966949463
 20
141.9650631062328
 30
0.0
 11
-100.0000305176
 21
141.9650631062328
 31
0.0
  0
LINE
  5
379
  8
LAYER1$C$L1
 62
     3
 10
-102.4544677733999
 20
144.5650692097328
 30
0.0
 11
-100.0000305176
 21
144.5650692097328
 31
0.0
  0
LINE
  5
37A
  8
LAYER1$C$L1
 62
     3
 10
-103.65557861329989
 20
146.86505700273281
 30
0.0
 11
-100.0000305176
 21
146.86505700273281
 31
0.0
  0
LINE
  5
37B
  8
LAYER1$C$L1
 62
     3
 10
-104.70002746580001
 20
148.86505700273281
 30
0.0
 11
-100.0000305176
 21
148.86505700273281
 31
0.0
  0
LINE
  5
37C
  8
LAYER1$C$L1
 62
     3
 10
-104.70002746580001
 20
150.5650692097328
 30
0.0
 11
-100.0000305176
 21
150.5650692097328
 31
0.0
  0
LINE
  5
37D
  8
LAYER1$C$L1
 62
     3
 10
-104.70002746580001
 20
151.9650631062328
 30
0.0
 11
-100.0000305176
 21
151.9650631062328
 31
0.0
  0
LINE
  5
37E
  8
LAYER1$C$L1
 62
     3
 10
-104.70002746580001
 20
153.0650692097328
 30
0.0
 11
-100.0000305176
 21
153.0650692097328
 31
0.0
  0
LINE
  5
37F
  8
LAYER1$C$L1
 62
     3
 10
-104.70002746580001
 20
153.86507226153279
 30
0.0
 11
-100.0000305176
 21
153.86507226153279
 31
0.0
  0
LINE
  5
380
  8
LAYER1$C$L1
 62
     3
 10
-92.800038093799998
 20
153.86504612743281
 30
0.0
 11
-92.500033459500003
 21
153.56504149303279
 31
0.0
  0
LINE
  5
381
  8
LAYER1$C$L1
 62
     3
 10
-100.0000306318
 20
154.36502507903279
 30
0.0
 11
-99.500030101000007
 21
153.86502454823281
 31
0.0
  0
LINE
  5
382
  8
LAYER1$C$L1
 62
     3
 10
-99.500030517599996
 20
153.86507226153279
 30
0.0
 11
-92.800018310499979
 21
153.86507226153279
 31
0.0
  0
LINE
  5
383
  8
LAYER1$C$L1
 62
     3
 10
-99.500030517599996
 20
153.86507226153279
 30
0.0
 11
-99.500030517599996
 21
139.86507226153279
 31
0.0
  0
LINE
  5
384
  8
LAYER1$C$L1
 62
     3
 10
-92.800018310499979
 20
153.86507226153279
 30
0.0
 11
-92.800018310499979
 21
139.86507226153279
 31
0.0
  0
LINE
  5
385
  8
LAYER1$C$L1
 62
     3
 10
-92.500015258800005
 20
153.56506920973291
 30
0.0
 11
-92.500015258800005
 21
139.86507226153279
 31
0.0
  0
LINE
  5
386
  8
LAYER1$C$L1
 62
     3
 10
-104.70002746580001
 20
154.36507226153279
 30
0.0
 11
-100.0000305176
 21
154.36507226153279
 31
0.0
  0
LINE
  5
387
  8
LAYER1$C$L1
 62
     3
 10
-100.0000305176
 20
154.36507226153279
 30
0.0
 11
-100.0000305176
 21
139.86507226153279
 31
0.0
  0
LINE
  5
388
  8
LAYER1$C$L1
 62
     3
 10
-105.5000184478
 20
153.3650204660328
 30
0.0
 11
-104.7000187145
 21
154.36502013263279
 31
0.0
  0
LINE
  5
389
  8
LAYER1$C$L1
 62
     3
 10
-104.70002746580001
 20
154.36507226153279
 30
0.0
 11
-104.70002746580001
 21
139.86507226153279
 31
0.0
  0
LINE
  5
38A
  8
LAYER1$C$L1
 62
     3
 10
-105.50001525879991
 20
153.36507226153279
 30
0.0
 11
-105.50001525879991
 21
139.86507226153279
 31
0.0
  0
LINE
  5
38B
  8
LAYER1$C$L1
 62
     3
 10
-126.9000091553
 20
134.5650692097328
 30
0.0
 11
-126.9000091553
 21
126.5650692097328
 31
0.0
  0
LINE
  5
38C
  8
LAYER1$C$L1
 62
     3
 10
-128.1999930120999
 20
129.56506663603281
 30
0.0
 11
-127.6999962924
 21
127.6990534903328
 31
0.0
  0
LINE
  5
38D
  8
LAYER1$C$L1
 62
     3
 10
-128.1999988346999
 20
131.56506558393289
 30
0.0
 11
-127.700002115
 21
133.43107872963279
 31
0.0
  0
LINE
  5
38E
  8
LAYER1$C$L1
 62
     3
 10
-128.20001220699999
 20
129.5650692097328
 30
0.0
 11
-128.20001220699999
 21
131.5650692097328
 31
0.0
  0
LINE
  5
38F
  8
LAYER1$C$L1
 62
     3
 10
-129.10000725800001
 20
128.56505829303279
 30
0.0
 11
-128.56410850899991
 21
126.5650539403328
 31
0.0
  0
LINE
  5
390
  8
LAYER1$C$L1
 62
     3
 10
-129.09999150469989
 20
132.56506659503279
 30
0.0
 11
-128.56409213859999
 21
134.56507070093281
 31
0.0
  0
LINE
  5
391
  8
LAYER1$C$L1
 62
     3
 10
-134.0000152588
 20
126.5650692097328
 30
0.0
 11
-126.9000091553
 21
126.5650692097328
 31
0.0
  0
LINE
  5
392
  8
LAYER1$C$L1
 62
     3
 10
-134.0000152588
 20
134.5650692097328
 30
0.0
 11
-126.9000091553
 21
134.5650692097328
 31
0.0
  0
LINE
  5
393
  8
LAYER1$C$L1
 62
     3
 10
-130.10000610349991
 20
127.0650692097328
 30
0.0
 11
-129.10000610349991
 21
127.0650692097328
 31
0.0
  0
LINE
  5
394
  8
LAYER1$C$L1
 62
     3
 10
-130.10000610349991
 20
134.0650692097328
 30
0.0
 11
-129.10000610349991
 21
134.0650692097328
 31
0.0
  0
LINE
  5
395
  8
LAYER1$C$L1
 62
     3
 10
-129.10000610349991
 20
134.0650692097328
 30
0.0
 11
-129.10000610349991
 21
127.0650692097328
 31
0.0
  0
LINE
  5
396
  8
LAYER1$C$L1
 62
     3
 10
-127.700012207
 20
134.5650692097328
 30
0.0
 11
-127.700012207
 21
126.5650692097328
 31
0.0
  0
LINE
  5
397
  8
LAYER3$C$L3
  6
CENTERLINE
 62
     3
 10
-133.37492370609999
 20
130.5650692097328
 30
0.0
 11
-125.47215271
 21
130.5650692097328
 31
0.0
  0
LINE
  5
398
  8
LAYER1$C$L1
 62
     3
 10
-125.0000152588
 20
126.8650722615328
 30
0.0
 11
-122.00001525879991
 21
126.8650722615328
 31
0.0
  0
LINE
  5
399
  8
LAYER1$C$L1
 62
     3
 10
-125.0000152588
 20
134.26506615803279
 30
0.0
 11
-122.00001525879991
 21
134.26506615803279
 31
0.0
  0
LINE
  5
39A
  8
LAYER1$C$L1
 62
     3
 10
-125.0000152588
 20
134.26506615803279
 30
0.0
 11
-125.0000152588
 21
126.8650722615328
 31
0.0
  0
LINE
  5
39B
  8
LAYER1$C$L1
 62
     3
 10
-122.00001525879991
 20
134.26506615803279
 30
0.0
 11
-122.00001525879991
 21
126.8650722615328
 31
0.0
  0
LINE
  5
39C
  8
LAYER1$C$L1
 62
     3
 10
-127.700012207
 20
146.9650631062328
 30
0.0
 11
-124.50001525879991
 21
146.9650631062328
 31
0.0
  0
LINE
  5
39D
  8
LAYER1$C$L1
 62
     3
 10
-127.700012207
 20
151.36505700273281
 30
0.0
 11
-124.50001525879991
 21
151.36505700273281
 31
0.0
  0
LINE
  5
39E
  8
LAYER1$C$L1
 62
     3
 10
-124.50001525879991
 20
151.36505700273281
 30
0.0
 11
-124.50001525879991
 21
146.9650631062328
 31
0.0
  0
LINE
  5
39F
  8
LAYER1$C$L1
 62
     3
 10
-127.700012207
 20
151.36505700273281
 30
0.0
 11
-127.700012207
 21
146.9650631062328
 31
0.0
  0
LINE
  5
3A0
  8
LAYER1$C$L1
 62
     3
 10
-111.1800231934
 20
137.76506615803279
 30
0.0
 11
-112.30001831049999
 21
137.76506615803279
 31
0.0
  0
LINE
  5
3A1
  8
LAYER1$C$L1
 62
     3
 10
-109.79336547849999
 20
135.1650600545328
 30
0.0
 11
-112.30001831049999
 21
135.1650600545328
 31
0.0
  0
LINE
  5
3A2
  8
LAYER1$C$L1
 62
     3
 10
-108.566696167
 20
132.86507226153279
 30
0.0
 11
-112.30001831049999
 21
132.86507226153279
 31
0.0
  0
LINE
  5
3A3
  8
LAYER1$C$L1
 62
     3
 10
-107.50001525879991
 20
130.86507226153279
 30
0.0
 11
-112.30001831049999
 21
130.86507226153279
 31
0.0
  0
LINE
  5
3A4
  8
LAYER1$C$L1
 62
     3
 10
-107.50001525879991
 20
129.1650600545328
 30
0.0
 11
-112.30001831049999
 21
129.1650600545328
 31
0.0
  0
LINE
  5
3A5
  8
LAYER1$C$L1
 62
     3
 10
-107.50001525879991
 20
127.76506615803279
 30
0.0
 11
-112.30001831049999
 21
127.76506615803279
 31
0.0
  0
LINE
  5
3A6
  8
LAYER1$C$L1
 62
     3
 10
-107.50001525879991
 20
126.6650600545328
 30
0.0
 11
-112.30001831049999
 21
126.6650600545328
 31
0.0
  0
LINE
  5
3A7
  8
LAYER1$C$L1
 62
     3
 10
-107.50001525879991
 20
125.8650722615328
 30
0.0
 11
-112.30001831049999
 21
125.8650722615328
 31
0.0
  0
LINE
  5
3A8
  8
LAYER1$C$L1
 62
     3
 10
-108.6200256347999
 20
141.9650631062328
 30
0.0
 11
-107.50001525879991
 21
141.9650631062328
 31
0.0
  0
LINE
  5
3A9
  8
LAYER1$C$L1
 62
     3
 10
-110.0066986083999
 20
144.5650692097328
 30
0.0
 11
-107.50001525879991
 21
144.5650692097328
 31
0.0
  0
LINE
  5
3AA
  8
LAYER1$C$L1
 62
     3
 10
-111.2333679199
 20
146.86505700273281
 30
0.0
 11
-107.50001525879991
 21
146.86505700273281
 31
0.0
  0
LINE
  5
3AB
  8
LAYER1$C$L1
 62
     3
 10
-112.30001831049999
 20
148.86505700273281
 30
0.0
 11
-107.50001525879991
 21
148.86505700273281
 31
0.0
  0
LINE
  5
3AC
  8
LAYER1$C$L1
 62
     3
 10
-112.30001831049999
 20
150.5650692097328
 30
0.0
 11
-107.50001525879991
 21
150.5650692097328
 31
0.0
  0
LINE
  5
3AD
  8
LAYER1$C$L1
 62
     3
 10
-112.30001831049999
 20
151.9650631062328
 30
0.0
 11
-107.50001525879991
 21
151.9650631062328
 31
0.0
  0
LINE
  5
3AE
  8
LAYER1$C$L1
 62
     3
 10
-112.30001831049999
 20
153.0650692097328
 30
0.0
 11
-107.50001525879991
 21
153.0650692097328
 31
0.0
  0
LINE
  5
3AF
  8
LAYER1$C$L1
 62
     3
 10
-112.30001831049999
 20
153.86507226153279
 30
0.0
 11
-107.50001525879991
 21
153.86507226153279
 31
0.0
  0
LINE
  5
3B0
  8
LAYER1$C$L1
 62
     3
 10
-114.80001831049989
 20
128.6650600545328
 30
0.0
 11
-118.5000305176
 21
128.6650600545328
 31
0.0
  0
LINE
  5
3B1
  8
LAYER1$C$L1
 62
     3
 10
-112.30001831049999
 20
138.86507226153279
 30
0.0
 11
-113.80001831049989
 21
138.86507226153279
 31
0.0
  0
LINE
  5
3B2
  8
LAYER1$C$L1
 62
     3
 10
-107.50001525879991
 20
125.3650722615328
 30
0.0
 11
-112.30001831049999
 21
125.3650722615328
 31
0.0
  0
LINE
  5
3B3
  8
LAYER1$C$L1
 62
     3
 10
-114.80001831049989
 20
139.86507226153279
 30
0.0
 11
-114.80001831049989
 21
125.8650722615328
 31
0.0
  0
LINE
  5
3B4
  8
LAYER1$C$L1
 62
     3
 10
-112.30001831049999
 20
139.86507226153279
 30
0.0
 11
-112.30001831049999
 21
125.3650722615328
 31
0.0
  0
LINE
  5
3B5
  8
LAYER1$C$L1
 62
     3
 10
-107.50001525879991
 20
139.86507226153279
 30
0.0
 11
-107.50001525879991
 21
125.3650722615328
 31
0.0
  0
LINE
  5
3B6
  8
LAYER1$C$L1
 62
     3
 10
-112.30001831049999
 20
125.8650722615328
 30
0.0
 11
-114.80001831049989
 21
125.8650722615328
 31
0.0
  0
LINE
  5
3B7
  8
LAYER1$C$L1
 62
     3
 10
-114.80001831049989
 20
136.61507226153279
 30
0.0
 11
-118.5000305176
 21
136.61507226153279
 31
0.0
  0
LINE
  5
3B8
  8
LAYER1$C$L1
 62
     3
 10
-122.200012207
 20
139.86507226153279
 30
0.0
 11
-122.200012207
 21
135.6650600545328
 31
0.0
  0
LINE
  5
3B9
  8
LAYER1$C$L1
 62
     3
 10
-126.4000091553
 20
138.76506615803279
 30
0.0
 11
-126.4000091553
 21
139.8650570027329
 31
0.0
  0
LINE
  5
3BA
  8
LAYER1$C$L1
 62
     3
 10
-129.10000610349991
 20
138.76506615803279
 30
0.0
 11
-129.10000610349991
 21
135.6650600545328
 31
0.0
  0
LINE
  5
3BB
  8
LAYER1$C$L1
 62
     3
 10
-131.5000152588
 20
138.76506615803279
 30
0.0
 11
-131.5000152588
 21
135.6650600545328
 31
0.0
  0
LINE
  5
3BC
  8
LAYER1$C$L1
 62
     3
 10
-127.0000152588
 20
138.76506615803279
 30
0.0
 11
-127.0000152588
 21
135.6650600545328
 31
0.0
  0
LINE
  5
3BD
  8
LAYER1$C$L1
 62
     3
 10
-126.0000152588
 20
138.76506615803279
 30
0.0
 11
-126.0000152588
 21
135.6650600545328
 31
0.0
  0
LINE
  5
3BE
  8
LAYER1$C$L1
 62
     3
 10
-134.0000152588
 20
139.86507226153279
 30
0.0
 11
-134.0000152588
 21
138.76506615803279
 31
0.0
  0
LINE
  5
3BF
  8
LAYER1$C$L1
 62
     3
 10
-134.0000152588
 20
138.76506615803279
 30
0.0
 11
-134.0000152588
 21
135.6650600545328
 31
0.0
  0
LINE
  5
3C0
  8
LAYER1$C$L1
 62
     3
 10
-134.0000152588
 20
138.76506615803279
 30
0.0
 11
-126.0000152588
 21
138.76506615803279
 31
0.0
  0
LINE
  5
3C1
  8
LAYER1$C$L1
 62
     3
 10
-120.50001525879991
 20
139.86507226153279
 30
0.0
 11
-120.50001525879991
 21
135.6650600545328
 31
0.0
  0
LINE
  5
3C2
  8
LAYER1$C$L1
 62
     3
 10
-120.00001525879991
 20
139.86507226153279
 30
0.0
 11
-120.00001525879991
 21
135.6650600545328
 31
0.0
  0
LINE
  5
3C3
  8
LAYER1$C$L1
 62
     3
 10
-120.00001525879991
 20
135.6650600545328
 30
0.0
 11
-134.0000152588
 21
135.6650600545328
 31
0.0
  0
LINE
  5
3C4
  8
LAYER1$C$L1
 62
     3
 10
-134.0000152588
 20
138.76506615803279
 30
0.0
 11
-134.0000152588
 21
139.86507226153279
 31
0.0
  0
LINE
  5
3C5
  8
LAYER1$C$L1
 62
     3
 10
-118.5000305176
 20
136.61507226153279
 30
0.0
 11
-120.00001525879991
 21
136.61507226153279
 31
0.0
  0
LINE
  5
3C6
  8
LAYER1$C$L1
 62
     3
 10
-105.50001525879991
 20
138.26506615803279
 30
0.0
 11
-107.20002746580001
 21
138.26506615803279
 31
0.0
  0
LINE
  5
3C7
  8
LAYER1$C$L1
 62
     3
 10
-107.20002746580001
 20
139.86507226153279
 30
0.0
 11
-107.20002746580001
 21
138.26506615803279
 31
0.0
  0
LINE
  5
3C8
  8
LAYER1$C$L1
 62
     3
 10
-106.0000305176
 20
138.26506615803279
 30
0.0
 11
-106.0000305176
 21
128.86507226153279
 31
0.0
  0
LINE
  5
3C9
  8
LAYER1$C$L1
 62
     3
 10
-105.50001525879991
 20
128.86507226153279
 30
0.0
 11
-107.50001525879991
 21
128.86507226153279
 31
0.0
  0
LINE
  5
3CA
  8
LAYER1$C$L1
 62
     3
 10
-118.5000305176
 20
128.86507226153279
 30
0.0
 11
-119.50001525879991
 21
128.86507226153279
 31
0.0
  0
LINE
  5
3CB
  8
LAYER1$C$L1
 62
     3
 10
-114.80001831049989
 20
127.8650722615328
 30
0.0
 11
-118.5000305176
 21
127.8650722615328
 31
0.0
  0
LINE
  5
3CC
  8
LAYER1$C$L1
 62
     3
 10
-120.50001525879991
 20
125.0650692097328
 30
0.0
 11
-134.0000152588
 21
125.0650692097328
 31
0.0
  0
LINE
  5
3CD
  8
LAYER1$C$L1
 62
     3
 10
-118.5000305176
 20
136.61507226153279
 30
0.0
 11
-118.5000305176
 21
127.8650722615328
 31
0.0
  0
LINE
  5
3CE
  8
LAYER1$C$L1
 62
     3
 10
-120.00001525879991
 20
135.6650600545328
 30
0.0
 11
-120.00001525879991
 21
125.5650692097328
 31
0.0
  0
LINE
  5
3CF
  8
LAYER1$C$L1
 62
     3
 10
-134.0000152588
 20
135.6650600545328
 30
0.0
 11
-134.0000152588
 21
125.0650692097328
 31
0.0
  0
LINE
  5
3D0
  8
LAYER1$C$L1
 62
     3
 10
-118.5000305176
 20
151.0650692097328
 30
0.0
 11
-114.80001831049989
 21
151.0650692097328
 31
0.0
  0
LINE
  5
3D1
  8
LAYER1$C$L1
 62
     3
 10
-113.80001831049989
 20
140.86507226153279
 30
0.0
 11
-112.30001831049999
 21
140.86507226153279
 31
0.0
  0
LINE
  5
3D2
  8
LAYER1$C$L1
 62
     3
 10
-112.30001831049999
 20
154.36507226153279
 30
0.0
 11
-107.50001525879991
 21
154.36507226153279
 31
0.0
  0
LINE
  5
3D3
  8
LAYER1$C$L1
 62
     3
 10
-114.80001831049989
 20
153.86507226153279
 30
0.0
 11
-114.80001831049989
 21
139.86507226153279
 31
0.0
  0
LINE
  5
3D4
  8
LAYER1$C$L1
 62
     3
 10
-112.30001831049999
 20
154.36507226153279
 30
0.0
 11
-112.30001831049999
 21
139.86507226153279
 31
0.0
  0
LINE
  5
3D5
  8
LAYER1$C$L1
 62
     3
 10
-107.50001525879991
 20
154.36507226153279
 30
0.0
 11
-107.50001525879991
 21
139.86507226153279
 31
0.0
  0
LINE
  5
3D6
  8
LAYER1$C$L1
 62
     3
 10
-114.80001831049989
 20
153.86507226153279
 30
0.0
 11
-112.30001831049999
 21
153.86507226153279
 31
0.0
  0
LINE
  5
3D7
  8
LAYER1$C$L1
 62
     3
 10
-118.5000305176
 20
143.11507226153279
 30
0.0
 11
-114.80001831049989
 21
143.11507226153279
 31
0.0
  0
LINE
  5
3D8
  8
LAYER1$C$L1
 62
     3
 10
-122.200012207
 20
144.0650692097328
 30
0.0
 11
-122.200012207
 21
139.86507226153279
 31
0.0
  0
LINE
  5
3D9
  8
LAYER1$C$L1
 62
     3
 10
-126.4000091553
 20
139.8650570027329
 30
0.0
 11
-126.4000091553
 21
140.9650631062328
 31
0.0
  0
LINE
  5
3DA
  8
LAYER1$C$L1
 62
     3
 10
-129.10000610349991
 20
144.0650692097328
 30
0.0
 11
-129.10000610349991
 21
140.9650631062328
 31
0.0
  0
LINE
  5
3DB
  8
LAYER1$C$L1
 62
     3
 10
-131.5000152588
 20
144.0650692097328
 30
0.0
 11
-131.5000152588
 21
140.9650631062328
 31
0.0
  0
LINE
  5
3DC
  8
LAYER1$C$L1
 62
     3
 10
-127.0000152588
 20
144.0650692097328
 30
0.0
 11
-127.0000152588
 21
140.9650631062328
 31
0.0
  0
LINE
  5
3DD
  8
LAYER1$C$L1
 62
     3
 10
-126.0000152588
 20
144.0650692097328
 30
0.0
 11
-126.0000152588
 21
140.9650631062328
 31
0.0
  0
LINE
  5
3DE
  8
LAYER1$C$L1
 62
     3
 10
-134.0000152588
 20
140.9650631062328
 30
0.0
 11
-134.0000152588
 21
139.86507226153279
 31
0.0
  0
LINE
  5
3DF
  8
LAYER1$C$L1
 62
     3
 10
-134.0000152588
 20
144.0650692097328
 30
0.0
 11
-134.0000152588
 21
140.9650631062328
 31
0.0
  0
LINE
  5
3E0
  8
LAYER1$C$L1
 62
     3
 10
-126.0000152588
 20
140.9650631062328
 30
0.0
 11
-134.0000152588
 21
140.9650631062328
 31
0.0
  0
LINE
  5
3E1
  8
LAYER1$C$L1
 62
     3
 10
-120.50001525879991
 20
144.0650692097328
 30
0.0
 11
-120.50001525879991
 21
139.86507226153279
 31
0.0
  0
LINE
  5
3E2
  8
LAYER1$C$L1
 62
     3
 10
-120.00001525879991
 20
144.0650692097328
 30
0.0
 11
-120.00001525879991
 21
139.86507226153279
 31
0.0
  0
LINE
  5
3E3
  8
LAYER1$C$L1
 62
     3
 10
-134.0000152588
 20
144.0650692097328
 30
0.0
 11
-120.00001525879991
 21
144.0650692097328
 31
0.0
  0
LINE
  5
3E4
  8
LAYER1$C$L1
 62
     3
 10
-134.0000152588
 20
139.86507226153279
 30
0.0
 11
-134.0000152588
 21
140.9650631062328
 31
0.0
  0
LINE
  5
3E5
  8
LAYER1$C$L1
 62
     3
 10
-134.0000152588
 20
145.1650600545328
 30
0.0
 11
-120.00001525879991
 21
145.1650600545328
 31
0.0
  0
LINE
  5
3E6
  8
LAYER1$C$L1
 62
     3
 10
-120.00001525879991
 20
143.11507226153279
 30
0.0
 11
-118.5000305176
 21
143.11507226153279
 31
0.0
  0
LINE
  5
3E7
  8
LAYER1$C$L1
 62
     3
 10
-107.20002746580001
 20
141.4650631062328
 30
0.0
 11
-105.50001525879991
 21
141.4650631062328
 31
0.0
  0
LINE
  5
3E8
  8
LAYER1$C$L1
 62
     3
 10
-107.20002746580001
 20
141.4650631062328
 30
0.0
 11
-107.20002746580001
 21
139.86507226153279
 31
0.0
  0
LINE
  5
3E9
  8
LAYER1$C$L1
 62
     3
 10
-106.0000305176
 20
150.86507226153279
 30
0.0
 11
-106.0000305176
 21
141.4650631062328
 31
0.0
  0
LINE
  5
3EA
  8
LAYER1$C$L1
 62
     3
 10
-107.50001525879991
 20
150.86507226153279
 30
0.0
 11
-105.50001525879991
 21
150.86507226153279
 31
0.0
  0
LINE
  5
3EB
  8
LAYER1$C$L1
 62
     3
 10
-119.50001525879991
 20
150.86507226153279
 30
0.0
 11
-118.5000305176
 21
150.86507226153279
 31
0.0
  0
LINE
  5
3EC
  8
LAYER1$C$L1
 62
     3
 10
-118.5000305176
 20
151.86507226153279
 30
0.0
 11
-114.80001831049989
 21
151.86507226153279
 31
0.0
  0
LINE
  5
3ED
  8
LAYER1$C$L1
 62
     3
 10
-134.0000152588
 20
154.6650600545328
 30
0.0
 11
-120.50001525879991
 21
154.6650600545328
 31
0.0
  0
LINE
  5
3EE
  8
LAYER1$C$L1
 62
     3
 10
-118.5000305176
 20
151.86507226153279
 30
0.0
 11
-118.5000305176
 21
143.11507226153279
 31
0.0
  0
LINE
  5
3EF
  8
LAYER1$C$L1
 62
     3
 10
-120.00001525879991
 20
154.1650600545328
 30
0.0
 11
-120.00001525879991
 21
144.0650692097328
 31
0.0
  0
LINE
  5
3F0
  8
LAYER1$C$L1
 62
     3
 10
-134.0000152588
 20
154.6650600545328
 30
0.0
 11
-134.0000152588
 21
144.0650692097328
 31
0.0
  0
LINE
  5
3F1
  8
LAYER3$C$L3
  6
CENTERLINE
 62
     3
 10
-141.02629089359999
 20
139.86507226153279
 30
0.0
 11
-78.733215332
 21
139.86507226153279
 31
0.0
  0
LINE
  5
3F3
  8
LAYER1$C$L1
 62
     3
 10
-179.09999084469999
 20
73.0
 30
0.0
 11
-181.19999694820001
 21
73.0
 31
0.0
  0
LINE
  5
3F4
  8
LAYER1$C$L1
 62
     3
 10
-179.09999084469999
 20
68.799987793
 30
0.0
 11
-181.19999694820001
 21
68.799987793
 31
0.0
  0
LINE
  5
3F5
  8
LAYER1$C$L1
 62
     3
 10
-179.09999084469999
 20
73.0
 30
0.0
 11
-179.09999084469999
 21
68.799987793
 31
0.0
  0
LINE
  5
3F6
  8
LAYER1$C$L1
 62
     3
 10
-156.89999389649989
 20
55.0
 30
0.0
 11
-154.7999877929999
 21
55.0
 31
0.0
  0
LINE
  5
3F7
  8
LAYER1$C$L1
 62
     3
 10
-156.89999389649989
 20
59.199996948199988
 30
0.0
 11
-154.7999877929999
 21
59.199996948199988
 31
0.0
  0
LINE
  5
3F8
  8
LAYER1$C$L1
 62
     3
 10
-156.89999389649989
 20
55.0
 30
0.0
 11
-156.89999389649989
 21
59.199996948199988
 31
0.0
  0
LINE
  5
3F9
  8
LAYER1$C$L1
 62
     3
 10
-154.7999877929999
 20
73.0
 30
0.0
 11
-156.89999389649989
 21
73.0
 31
0.0
  0
LINE
  5
3FA
  8
LAYER1$C$L1
 62
     3
 10
-154.7999877929999
 20
68.799987793
 30
0.0
 11
-156.89999389649989
 21
68.799987793
 31
0.0
  0
LINE
  5
3FB
  8
LAYER1$C$L1
 62
     3
 10
-156.89999389649989
 20
68.799987793
 30
0.0
 11
-156.89999389649989
 21
73.0
 31
0.0
  0
LINE
  5
3FC
  8
LAYER1$C$L1
 62
     3
 10
-154.7999877929999
 20
68.799987793
 30
0.0
 11
-154.7999877929999
 21
73.0
 31
0.0
  0
LINE
  5
3FD
  8
LAYER1$C$L1
 62
     3
 10
-166.89999389650001
 20
81.399993896499979
 30
0.0
 11
-163.7999877929999
 21
81.399993896499979
 31
0.0
  0
LINE
  5
3FE
  8
LAYER1$C$L1
 62
     3
 10
-172.19999694820001
 20
81.399993896499979
 30
0.0
 11
-169.0999908446999
 21
81.399993896499979
 31
0.0
  0
LINE
  5
3FF
  8
LAYER1$C$L1
 62
     3
 10
-166.89999389650001
 20
80.399993896499993
 30
0.0
 11
-163.7999877929999
 21
80.399993896499993
 31
0.0
  0
LINE
  5
400
  8
LAYER1$C$L1
 62
     3
 10
-172.19999694820001
 20
80.399993896499993
 30
0.0
 11
-169.0999908446999
 21
80.399993896499993
 31
0.0
  0
LINE
  5
401
  8
LAYER1$C$L1
 62
     3
 10
-166.89999389650001
 20
79.899993896499993
 30
0.0
 11
-163.7999877929999
 21
79.899993896499993
 31
0.0
  0
LINE
  5
402
  8
LAYER1$C$L1
 62
     3
 10
-172.19999694820001
 20
79.899993896499993
 30
0.0
 11
-169.0999908446999
 21
79.899993896499993
 31
0.0
  0
LINE
  5
403
  8
LAYER1$C$L1
 62
     3
 10
-154.7999877929999
 20
64.0
 30
0.0
 11
-154.7999877929999
 21
82.0
 31
0.0
  0
LINE
  5
404
  8
LAYER1$C$L1
 62
     3
 10
-159.389424085
 20
76.310558508400007
 30
0.0
 11
-158.69999066930001
 21
76.999991982299989
 31
0.0
  0
LINE
  5
405
  8
LAYER1$C$L1
 62
     3
 10
-158.69999066930001
 20
76.999991982299989
 30
0.0
 11
-158.01056804320001
 21
77.689414666499999
 31
0.0
  0
LINE
  5
406
  8
LAYER1$C$L1
 62
     3
 10
-157.32112372169991
 20
75.621125150899985
 30
0.0
 11
-158.69999066930001
 21
76.999991982299989
 31
0.0
  0
LINE
  5
407
  8
LAYER1$C$L1
 62
     3
 10
-158.69999066930001
 20
76.999991982299989
 30
0.0
 11
-160.0788468273999
 21
78.378848023999993
 31
0.0
  0
LINE
  5
408
  8
LAYER1$C$L1
 62
     3
 10
-155.5125242169
 20
78.218731679200005
 30
0.0
 11
-154.99497660949999
 21
78.218726306600004
 31
0.0
  0
LINE
  5
409
  8
LAYER1$C$L1
 62
     3
 10
-154.91179591069991
 20
78.218719573900003
 30
0.0
 11
-154.99498682859999
 21
78.218720475400005
 31
0.0
  0
LINE
  5
40A
  8
LAYER1$C$L1
 62
     3
 10
-155.51252746579991
 20
75.781127929700006
 30
0.0
 11
-154.9949798584
 21
75.781127929700006
 31
0.0
  0
LINE
  5
40B
  8
LAYER1$C$L1
 62
     3
 10
-154.91178894039999
 20
75.781234741199995
 30
0.0
 11
-154.9949798584
 21
75.781234741199995
 31
0.0
  0
LINE
  5
40C
  8
LAYER1$C$L1
 62
     3
 10
-157.48126220699999
 20
80.187408447300001
 30
0.0
 11
-157.48126220699999
 21
80.704956054700006
 31
0.0
  0
LINE
  5
40D
  8
LAYER1$C$L1
 62
     3
 10
-157.48124694820001
 20
80.788146972700005
 30
0.0
 11
-157.48124694820001
 21
80.704956054700006
 31
0.0
  0
LINE
  5
40E
  8
LAYER1$C$L1
 62
     3
 10
-157.48123439909989
 20
73.211797821700003
 30
0.0
 11
-157.4812333966
 21
73.294988739600001
 31
0.0
  0
LINE
  5
40F
  8
LAYER1$C$L1
 62
     3
 10
-157.48123168949999
 20
73.8125457764
 30
0.0
 11
-157.48123168949999
 21
73.294998168900008
 31
0.0
  0
LINE
  5
410
  8
LAYER1$C$L1
 62
     3
 10
-156.2624921689
 20
80.412481555299991
 30
0.0
 11
-155.28749051219989
 21
79.43747998069999
 31
0.0
  0
LINE
  5
411
  8
LAYER1$C$L1
 62
     3
 10
-155.28749030669991
 20
74.562482692200007
 30
0.0
 11
-156.26249188129989
 21
73.587481035500005
 31
0.0
  0
LINE
  5
412
  8
LAYER1$C$L1
 62
     3
 10
-154.7999877929999
 20
78.949996948199995
 30
0.0
 11
-154.7999877929999
 21
78.860183715800005
 31
0.0
  0
LINE
  5
413
  8
LAYER1$C$L1
 62
     3
 10
-156.74997907629989
 20
80.899963033299997
 30
0.0
 11
-155.15002291299999
 21
80.722189497299979
 31
0.0
  0
LINE
  5
414
  8
LAYER1$C$L1
 62
     3
 10
-154.9777459707999
 20
80.549937470299994
 30
0.0
 11
-154.7999723387999
 21
78.949981307000002
 31
0.0
  0
LINE
  5
415
  8
LAYER1$C$L1
 62
     3
 10
-154.7999860342
 20
75.049979703999995
 30
0.0
 11
-154.97775957019991
 21
73.450023540700002
 31
0.0
  0
LINE
  5
416
  8
LAYER1$C$L1
 62
     3
 10
-156.74998021280001
 20
73.099996138599991
 30
0.0
 11
-155.1500240494
 21
73.277769770600003
 31
0.0
  0
LINE
  5
417
  8
LAYER1$C$L1
 62
     3
 10
-156.75
 20
80.899993896499993
 30
0.0
 11
-156.83981323239991
 21
80.899993896499993
 31
0.0
  0
LINE
  5
418
  8
LAYER1$C$L1
 62
     3
 10
-156.83981323239991
 20
73.099990844700002
 30
0.0
 11
-156.75
 21
73.099990844700002
 31
0.0
  0
LINE
  5
419
  8
LAYER1$C$L1
 62
     3
 10
-154.7999877929999
 20
75.049987793
 30
0.0
 11
-154.7999877929999
 21
75.139816284199995
 31
0.0
  0
LINE
  5
41A
  8
LAYER1$C$L1
 62
     3
 10
-162.40498680370001
 20
78.218727305100003
 30
0.0
 11
-161.8874239374999
 21
78.218732677799991
 31
0.0
  0
LINE
  5
41B
  8
LAYER1$C$L1
 62
     3
 10
-162.4049613288999
 20
78.218729769600003
 30
0.0
 11
-162.4881522469
 21
78.218728868100001
 31
0.0
  0
LINE
  5
41C
  8
LAYER1$C$L1
 62
     3
 10
-162.40496826169991
 20
75.78135681149999
 30
0.0
 11
-161.88742065429989
 21
75.78135681149999
 31
0.0
  0
LINE
  5
41D
  8
LAYER1$C$L1
 62
     3
 10
-162.40496826169991
 20
75.781234741199995
 30
0.0
 11
-162.48815917970001
 21
75.781234741199995
 31
0.0
  0
LINE
  5
41E
  8
LAYER1$C$L1
 62
     3
 10
-159.91868591310001
 20
80.704971313499996
 30
0.0
 11
-159.91868591310001
 21
80.187423706099992
 31
0.0
  0
LINE
  5
41F
  8
LAYER1$C$L1
 62
     3
 10
-159.91870117190001
 20
80.704971313499996
 30
0.0
 11
-159.91870117190001
 21
80.788146972700005
 31
0.0
  0
LINE
  5
420
  8
LAYER1$C$L1
 62
     3
 10
-159.9187147696
 20
73.294978243700001
 30
0.0
 11
-159.9187137671999
 21
73.211802584599994
 31
0.0
  0
LINE
  5
421
  8
LAYER1$C$L1
 62
     3
 10
-159.9187164306999
 20
73.294998168900008
 30
0.0
 11
-159.9187164306999
 21
73.8125457764
 31
0.0
  0
LINE
  5
422
  8
LAYER1$C$L1
 62
     3
 10
-162.11249103200001
 20
79.437479693100002
 30
0.0
 11
-161.13748945739999
 21
80.412481349800004
 31
0.0
  0
LINE
  5
423
  8
LAYER1$C$L1
 62
     3
 10
-161.13748916980001
 20
73.587480830000004
 30
0.0
 11
-162.11249082649991
 21
74.562482404600004
 31
0.0
  0
LINE
  5
424
  8
LAYER1$C$L1
 62
     3
 10
-162.5999908446999
 20
78.860183715800005
 30
0.0
 11
-162.5999908446999
 21
78.949996948199995
 31
0.0
  0
LINE
  5
425
  8
LAYER1$C$L1
 62
     3
 10
-162.24991367049989
 20
80.72221554890001
 30
0.0
 11
-160.64997267269999
 21
80.899987495900007
 31
0.0
  0
LINE
  5
426
  8
LAYER1$C$L1
 62
     3
 10
-162.5999775711
 20
78.949971676199993
 30
0.0
 11
-162.42220572010001
 21
80.549912673999998
 31
0.0
  0
LINE
  5
427
  8
LAYER1$C$L1
 62
     3
 10
-162.42219006409991
 20
73.450032683800003
 30
0.0
 11
-162.59996369609999
 21
75.049988847099996
 31
0.0
  0
LINE
  5
428
  8
LAYER1$C$L1
 62
     3
 10
-162.24992721180001
 20
73.277745032399991
 30
0.0
 11
-160.64997104849999
 21
73.099971496400002
 31
0.0
  0
LINE
  5
429
  8
LAYER1$C$L1
 62
     3
 10
-160.5601806640999
 20
80.899993896499993
 30
0.0
 11
-160.64999389650001
 21
80.899993896499993
 31
0.0
  0
LINE
  5
42A
  8
LAYER1$C$L1
 62
     3
 10
-160.64999389650001
 20
73.099990844700002
 30
0.0
 11
-160.5601806640999
 21
73.099990844700002
 31
0.0
  0
LINE
  5
42B
  8
LAYER1$C$L1
 62
     3
 10
-162.5999908446999
 20
75.139816284199995
 30
0.0
 11
-162.5999908446999
 21
75.049987793
 31
0.0
  0
LINE
  5
42C
  8
LAYER1$C$L1
 62
     3
 10
-181.19999694820001
 20
80.299987792999985
 30
0.0
 11
-173.29998779300001
 21
80.299987792999985
 31
0.0
  0
LINE
  5
42D
  8
LAYER1$C$L1
 62
     3
 10
-168.44999694820001
 20
64.599990844700002
 30
0.0
 11
-167.5499877929999
 21
64.599990844700002
 31
0.0
  0
LINE
  5
42E
  8
LAYER1$C$L1
 62
     3
 10
-167.5499877929999
 20
67.799987793
 30
0.0
 11
-168.44999694820001
 21
67.799987793
 31
0.0
  0
LINE
  5
42F
  8
LAYER1$C$L1
 62
     3
 10
-167.5499877929999
 20
64.599990844700002
 30
0.0
 11
-167.5499877929999
 21
67.799987793
 31
0.0
  0
LINE
  5
430
  8
LAYER1$C$L1
 62
     3
 10
-168.44999694820001
 20
64.599990844700002
 30
0.0
 11
-168.44999694820001
 21
67.799987793
 31
0.0
  0
LINE
  5
431
  8
LAYER1$C$L1
 62
     3
 10
-167.99998474119991
 20
64.599990844700002
 30
0.0
 11
-167.99998474119991
 21
67.799987793
 31
0.0
  0
LINE
  5
432
  8
LAYER1$C$L1
 62
     3
 10
-170.99998474119991
 20
64.0
 30
0.0
 11
-170.99998474119991
 21
69.25
 31
0.0
  0
LINE
  5
433
  8
LAYER1$C$L1
 62
     3
 10
-164.99998474119991
 20
69.25
 30
0.0
 11
-164.99998474119991
 21
64.0
 31
0.0
  0
LINE
  5
434
  8
LAYER1$C$L1
 62
     3
 10
-164.99998474119991
 20
69.25
 30
0.0
 11
-170.99998474119991
 21
69.25
 31
0.0
  0
LINE
  5
435
  8
LAYER1$C$L1
 62
     3
 10
-164.99998474119991
 20
68.199996948199995
 30
0.0
 11
-170.99998474119991
 21
68.199996948199995
 31
0.0
  0
LINE
  5
436
  8
LAYER1$C$L1
 62
     3
 10
-162.69999694820001
 20
77.599990844700002
 30
0.0
 11
-167.99998474119991
 21
77.599990844700002
 31
0.0
  0
LINE
  5
437
  8
LAYER1$C$L1
 62
     3
 10
-166.89999389650001
 20
82.5
 30
0.0
 11
-167.99998474119991
 21
82.5
 31
0.0
  0
LINE
  5
438
  8
LAYER1$C$L1
 62
     3
 10
-162.69999694820001
 20
82.5
 30
0.0
 11
-163.7999877929999
 21
82.5
 31
0.0
  0
LINE
  5
439
  8
LAYER1$C$L1
 62
     3
 10
-166.89999389650001
 20
78.899993896499993
 30
0.0
 11
-163.7999877929999
 21
78.899993896499993
 31
0.0
  0
LINE
  5
43A
  8
LAYER1$C$L1
 62
     3
 10
-166.89999389650001
 20
78.899993896499993
 30
0.0
 11
-166.89999389650001
 21
82.5
 31
0.0
  0
LINE
  5
43B
  8
LAYER1$C$L1
 62
     3
 10
-163.7999877929999
 20
78.899993896499993
 30
0.0
 11
-163.7999877929999
 21
82.5
 31
0.0
  0
LINE
  5
43C
  8
LAYER1$C$L1
 62
     3
 10
-154.19999694820001
 20
82.0
 30
0.0
 11
-162.69999694820001
 21
82.0
 31
0.0
  0
LINE
  5
43D
  8
LAYER1$C$L1
 62
     3
 10
-162.69999694820001
 20
82.0
 30
0.0
 11
-162.69999694820001
 21
82.5
 31
0.0
  0
LINE
  5
43E
  8
LAYER1$C$L1
 62
     3
 10
-153.19999694820001
 20
81.0
 30
0.0
 11
-153.19999694820001
 21
64.0
 31
0.0
  0
LINE
  5
43F
  8
LAYER1$C$L1
 62
     3
 10
-167.99998474119991
 20
77.599990844700002
 30
0.0
 11
-173.29998779300001
 21
77.599990844700002
 31
0.0
  0
LINE
  5
440
  8
LAYER1$C$L1
 62
     3
 10
-173.29998779300001
 20
80.299987792999985
 30
0.0
 11
-173.29998779300001
 21
77.599990844700002
 31
0.0
  0
LINE
  5
441
  8
LAYER1$C$L1
 62
     3
 10
-181.19999694820001
 20
64.0
 30
0.0
 11
-181.19999694820001
 21
80.299987792999985
 31
0.0
  0
LINE
  5
442
  8
LAYER1$C$L1
 62
     3
 10
-167.99998474119991
 20
82.5
 30
0.0
 11
-169.0999908446999
 21
82.5
 31
0.0
  0
LINE
  5
443
  8
LAYER1$C$L1
 62
     3
 10
-172.19999694820001
 20
82.5
 30
0.0
 11
-173.29998779300001
 21
82.5
 31
0.0
  0
LINE
  5
444
  8
LAYER1$C$L1
 62
     3
 10
-172.19999694820001
 20
78.899993896499993
 30
0.0
 11
-169.0999908446999
 21
78.899993896499993
 31
0.0
  0
LINE
  5
445
  8
LAYER1$C$L1
 62
     3
 10
-169.0999908446999
 20
82.5
 30
0.0
 11
-169.0999908446999
 21
78.899993896499993
 31
0.0
  0
LINE
  5
446
  8
LAYER1$C$L1
 62
     3
 10
-172.19999694820001
 20
82.5
 30
0.0
 11
-172.19999694820001
 21
78.899993896499993
 31
0.0
  0
LINE
  5
447
  8
LAYER1$C$L1
 62
     3
 10
-173.29998779300001
 20
82.0
 30
0.0
 11
-181.7999877929999
 21
82.0
 31
0.0
  0
LINE
  5
448
  8
LAYER1$C$L1
 62
     3
 10
-173.29998779300001
 20
82.5
 30
0.0
 11
-173.29998779300001
 21
82.0
 31
0.0
  0
LINE
  5
449
  8
LAYER1$C$L1
 62
     3
 10
-182.7999877929999
 20
64.0
 30
0.0
 11
-182.7999877929999
 21
81.0
 31
0.0
  0
LINE
  5
44A
  8
LAYER1$C$L1
 62
     3
 10
-181.19999694820001
 20
55.0
 30
0.0
 11
-179.09999084469999
 21
55.0
 31
0.0
  0
LINE
  5
44B
  8
LAYER1$C$L1
 62
     3
 10
-181.19999694820001
 20
59.199996948199988
 30
0.0
 11
-179.09999084469999
 21
59.199996948199988
 31
0.0
  0
LINE
  5
44C
  8
LAYER1$C$L1
 62
     3
 10
-179.09999084469999
 20
59.199996948199988
 30
0.0
 11
-179.09999084469999
 21
55.0
 31
0.0
  0
LINE
  5
44D
  8
LAYER1$C$L1
 62
     3
 10
-181.19999694820001
 20
59.199996948199988
 30
0.0
 11
-181.19999694820001
 21
55.0
 31
0.0
  0
LINE
  5
44E
  8
LAYER1$C$L1
 62
     3
 10
-169.0999908446999
 20
46.6000061035
 30
0.0
 11
-172.19999694820001
 21
46.6000061035
 31
0.0
  0
LINE
  5
44F
  8
LAYER1$C$L1
 62
     3
 10
-163.7999877929999
 20
46.6000061035
 30
0.0
 11
-166.89999389650001
 21
46.6000061035
 31
0.0
  0
LINE
  5
450
  8
LAYER1$C$L1
 62
     3
 10
-169.0999908446999
 20
47.6000061035
 30
0.0
 11
-172.19999694820001
 21
47.6000061035
 31
0.0
  0
LINE
  5
451
  8
LAYER1$C$L1
 62
     3
 10
-163.7999877929999
 20
47.6000061035
 30
0.0
 11
-166.89999389650001
 21
47.6000061035
 31
0.0
  0
LINE
  5
452
  8
LAYER1$C$L1
 62
     3
 10
-169.0999908446999
 20
48.099990844700002
 30
0.0
 11
-172.19999694820001
 21
48.099990844700002
 31
0.0
  0
LINE
  5
453
  8
LAYER1$C$L1
 62
     3
 10
-163.7999877929999
 20
48.099990844700002
 30
0.0
 11
-166.89999389650001
 21
48.099990844700002
 31
0.0
  0
LINE
  5
454
  8
LAYER1$C$L1
 62
     3
 10
-181.19999694820001
 20
64.0
 30
0.0
 11
-181.19999694820001
 21
46.0
 31
0.0
  0
LINE
  5
455
  8
LAYER1$C$L1
 62
     3
 10
-176.6105325385
 20
51.689422819199997
 30
0.0
 11
-177.29996595419991
 21
50.999989403500003
 31
0.0
  0
LINE
  5
456
  8
LAYER1$C$L1
 62
     3
 10
-177.29996595419991
 20
50.999989403500003
 30
0.0
 11
-177.98938858029999
 21
50.310566777399998
 31
0.0
  0
LINE
  5
457
  8
LAYER1$C$L1
 62
     3
 10
-178.6788219959999
 20
52.378845445299987
 30
0.0
 11
-177.29996595419991
 21
50.999989403500003
 31
0.0
  0
LINE
  5
458
  8
LAYER1$C$L1
 62
     3
 10
-177.29996595419991
 20
50.999989403500003
 30
0.0
 11
-175.9211099124
 21
49.621133361699997
 31
0.0
  0
LINE
  5
459
  8
LAYER1$C$L1
 62
     3
 10
-180.48739828410001
 20
49.781231538599997
 30
0.0
 11
-181.00496115029989
 21
49.781236911400001
 31
0.0
  0
LINE
  5
45A
  8
LAYER1$C$L1
 62
     3
 10
-181.08815995680001
 20
49.781228546800001
 30
0.0
 11
-181.00496903889999
 21
49.781227645400001
 31
0.0
  0
LINE
  5
45B
  8
LAYER1$C$L1
 62
     3
 10
-180.48741149899999
 20
52.2185668945
 30
0.0
 11
-181.00497436520001
 21
52.2185668945
 31
0.0
  0
LINE
  5
45C
  8
LAYER1$C$L1
 62
     3
 10
-181.08815002439999
 20
52.218734741200002
 30
0.0
 11
-181.00497436520001
 21
52.218734741200002
 31
0.0
  0
LINE
  5
45D
  8
LAYER1$C$L1
 62
     3
 10
-178.5187377929999
 20
47.812530517600003
 30
0.0
 11
-178.5187377929999
 21
47.294982910199998
 31
0.0
  0
LINE
  5
45E
  8
LAYER1$C$L1
 62
     3
 10
-178.5187225341999
 20
47.211791992199998
 30
0.0
 11
-178.5187225341999
 21
47.294982910199998
 31
0.0
  0
LINE
  5
45F
  8
LAYER1$C$L1
 62
     3
 10
-178.51871840029989
 20
54.788162195200002
 30
0.0
 11
-178.51871940269999
 21
54.704986536
 31
0.0
  0
LINE
  5
460
  8
LAYER1$C$L1
 62
     3
 10
-178.5187225341999
 20
54.187438964799988
 30
0.0
 11
-178.5187225341999
 21
54.704986572299987
 31
0.0
  0
LINE
  5
461
  8
LAYER1$C$L1
 62
     3
 10
-179.73746449570001
 20
47.587500077000001
 30
0.0
 11
-180.71246607029991
 21
48.562501651600002
 31
0.0
  0
LINE
  5
462
  8
LAYER1$C$L1
 62
     3
 10
-180.71246607029991
 20
53.437498734599998
 30
0.0
 11
-179.73746449570001
 21
54.412500309199999
 31
0.0
  0
LINE
  5
463
  8
LAYER1$C$L1
 62
     3
 10
-181.19999694820001
 20
49.049987793
 30
0.0
 11
-181.19999694820001
 21
49.139816284200002
 31
0.0
  0
LINE
  5
464
  8
LAYER1$C$L1
 62
     3
 10
-179.24996859439989
 20
47.099977167200002
 30
0.0
 11
-180.84992475769999
 21
47.277750703299994
 31
0.0
  0
LINE
  5
465
  8
LAYER1$C$L1
 62
     3
 10
-181.02218390109991
 20
47.450027991199988
 30
0.0
 11
-181.1999574370999
 21
49.049984154499988
 31
0.0
  0
LINE
  5
466
  8
LAYER1$C$L1
 62
     3
 10
-181.19996163659991
 20
52.94996049649999
 30
0.0
 11
-181.0221881006
 21
54.54991665979999
 31
0.0
  0
LINE
  5
467
  8
LAYER1$C$L1
 62
     3
 10
-179.24996608000001
 20
54.8999826493
 30
0.0
 11
-180.8499222433
 21
54.722209113199987
 31
0.0
  0
LINE
  5
468
  8
LAYER1$C$L1
 62
     3
 10
-179.24998474119991
 20
47.1000061035
 30
0.0
 11
-179.1601715088
 21
47.1000061035
 31
0.0
  0
LINE
  5
469
  8
LAYER1$C$L1
 62
     3
 10
-179.1601715088
 20
54.899993896499993
 30
0.0
 11
-179.24998474119991
 21
54.899993896499993
 31
0.0
  0
LINE
  5
46A
  8
LAYER1$C$L1
 62
     3
 10
-181.19999694820001
 20
52.949996948199988
 30
0.0
 11
-181.19999694820001
 21
52.860183715799991
 31
0.0
  0
LINE
  5
46B
  8
LAYER1$C$L1
 62
     3
 10
-173.5949839562
 20
49.781233210099998
 30
0.0
 11
-174.11253156359999
 21
49.781227837499991
 31
0.0
  0
LINE
  5
46C
  8
LAYER1$C$L1
 62
     3
 10
-173.59497607119991
 20
49.781230587099998
 30
0.0
 11
-173.51178515320001
 21
49.781231488499998
 31
0.0
  0
LINE
  5
46D
  8
LAYER1$C$L1
 62
     3
 10
-173.59497070309999
 20
52.218872070299987
 30
0.0
 11
-174.11251831049989
 21
52.218872070299987
 31
0.0
  0
LINE
  5
46E
  8
LAYER1$C$L1
 62
     3
 10
-173.59497070309999
 20
52.218734741200002
 30
0.0
 11
-173.51179504389989
 21
52.218734741200002
 31
0.0
  0
LINE
  5
46F
  8
LAYER1$C$L1
 62
     3
 10
-176.08120727539989
 20
47.294982910199998
 30
0.0
 11
-176.08120727539989
 21
47.812530517600003
 31
0.0
  0
LINE
  5
470
  8
LAYER1$C$L1
 62
     3
 10
-176.08120727539989
 20
47.294982910199998
 30
0.0
 11
-176.08120727539989
 21
47.211807251000003
 31
0.0
  0
LINE
  5
471
  8
LAYER1$C$L1
 62
     3
 10
-176.0812104579999
 20
54.704954965200002
 30
0.0
 11
-176.0812114606
 21
54.788145883199988
 31
0.0
  0
LINE
  5
472
  8
LAYER1$C$L1
 62
     3
 10
-176.0812225341999
 20
54.704986572299987
 30
0.0
 11
-176.0812225341999
 21
54.187438964799988
 31
0.0
  0
LINE
  5
473
  8
LAYER1$C$L1
 62
     3
 10
-173.88746583810001
 20
48.562501651600002
 30
0.0
 11
-174.86246741269991
 21
47.587500077000001
 31
0.0
  0
LINE
  5
474
  8
LAYER1$C$L1
 62
     3
 10
-174.86246741269991
 20
54.412500309199999
 30
0.0
 11
-173.88746583810001
 21
53.437498734599998
 31
0.0
  0
LINE
  5
475
  8
LAYER1$C$L1
 62
     3
 10
-173.39999389649989
 20
49.139816284200002
 30
0.0
 11
-173.39999389649989
 21
49.049987793
 31
0.0
  0
LINE
  5
476
  8
LAYER1$C$L1
 62
     3
 10
-173.7500162593999
 20
47.277749482899999
 30
0.0
 11
-175.34997242279991
 21
47.099975946899988
 31
0.0
  0
LINE
  5
477
  8
LAYER1$C$L1
 62
     3
 10
-173.3999700997
 20
49.049968524299999
 30
0.0
 11
-173.5777419506999
 21
47.450027526499987
 31
0.0
  0
LINE
  5
478
  8
LAYER1$C$L1
 62
     3
 10
-173.57773943619989
 20
54.549932290000001
 30
0.0
 11
-173.39996590019999
 21
52.949976126700001
 31
0.0
  0
LINE
  5
479
  8
LAYER1$C$L1
 62
     3
 10
-173.75002045889991
 20
54.722195168100001
 30
0.0
 11
-175.34997662230001
 21
54.899968704199999
 31
0.0
  0
LINE
  5
47A
  8
LAYER1$C$L1
 62
     3
 10
-175.43980407709989
 20
47.1000061035
 30
0.0
 11
-175.34999084469999
 21
47.1000061035
 31
0.0
  0
LINE
  5
47B
  8
LAYER1$C$L1
 62
     3
 10
-175.34999084469999
 20
54.899993896499993
 30
0.0
 11
-175.43980407709989
 21
54.899993896499993
 31
0.0
  0
LINE
  5
47C
  8
LAYER1$C$L1
 62
     3
 10
-173.39999389649989
 20
52.860183715799991
 30
0.0
 11
-173.39999389649989
 21
52.949996948199988
 31
0.0
  0
LINE
  5
47D
  8
LAYER1$C$L1
 62
     3
 10
-154.7999877929999
 20
47.700012207
 30
0.0
 11
-162.69999694820001
 21
47.700012207
 31
0.0
  0
LINE
  5
47E
  8
LAYER1$C$L1
 62
     3
 10
-167.5499877929999
 20
63.399993896499993
 30
0.0
 11
-168.44999694820001
 21
63.399993896499993
 31
0.0
  0
LINE
  5
47F
  8
LAYER1$C$L1
 62
     3
 10
-168.44999694820001
 20
60.199996948200003
 30
0.0
 11
-167.5499877929999
 21
60.199996948200003
 31
0.0
  0
LINE
  5
480
  8
LAYER1$C$L1
 62
     3
 10
-168.44999694820001
 20
63.399993896499993
 30
0.0
 11
-168.44999694820001
 21
60.199996948200003
 31
0.0
  0
LINE
  5
481
  8
LAYER1$C$L1
 62
     3
 10
-167.5499877929999
 20
63.399993896499993
 30
0.0
 11
-167.5499877929999
 21
60.199996948200003
 31
0.0
  0
LINE
  5
482
  8
LAYER1$C$L1
 62
     3
 10
-167.99998474119991
 20
63.399993896499993
 30
0.0
 11
-167.99998474119991
 21
60.199996948200003
 31
0.0
  0
LINE
  5
483
  8
LAYER1$C$L1
 62
     3
 10
-164.99998474119991
 20
64.0
 30
0.0
 11
-164.99998474119991
 21
58.75
 31
0.0
  0
LINE
  5
484
  8
LAYER1$C$L1
 62
     3
 10
-170.99998474119991
 20
58.75
 30
0.0
 11
-170.99998474119991
 21
64.0
 31
0.0
  0
LINE
  5
485
  8
LAYER1$C$L1
 62
     3
 10
-170.99998474119991
 20
58.75
 30
0.0
 11
-164.99998474119991
 21
58.75
 31
0.0
  0
LINE
  5
486
  8
LAYER1$C$L1
 62
     3
 10
-170.99998474119991
 20
59.799987793
 30
0.0
 11
-164.99998474119991
 21
59.799987793
 31
0.0
  0
LINE
  5
487
  8
LAYER1$C$L1
 62
     3
 10
-173.29998779300001
 20
50.399993896499993
 30
0.0
 11
-167.99998474119991
 21
50.399993896499993
 31
0.0
  0
LINE
  5
488
  8
LAYER1$C$L1
 62
     3
 10
-169.0999908446999
 20
45.499999999999993
 30
0.0
 11
-167.99998474119991
 21
45.499999999999993
 31
0.0
  0
LINE
  5
489
  8
LAYER1$C$L1
 62
     3
 10
-173.29998779300001
 20
45.499999999999993
 30
0.0
 11
-172.19999694820001
 21
45.499999999999993
 31
0.0
  0
LINE
  5
48A
  8
LAYER1$C$L1
 62
     3
 10
-169.0999908446999
 20
49.099990844700002
 30
0.0
 11
-172.19999694820001
 21
49.099990844700002
 31
0.0
  0
LINE
  5
48B
  8
LAYER1$C$L1
 62
     3
 10
-169.0999908446999
 20
49.099990844700002
 30
0.0
 11
-169.0999908446999
 21
45.499999999999993
 31
0.0
  0
LINE
  5
48C
  8
LAYER1$C$L1
 62
     3
 10
-172.19999694820001
 20
49.099990844700002
 30
0.0
 11
-172.19999694820001
 21
45.499999999999993
 31
0.0
  0
LINE
  5
48D
  8
LAYER1$C$L1
 62
     3
 10
-181.7999877929999
 20
46.0
 30
0.0
 11
-173.29998779300001
 21
46.0
 31
0.0
  0
LINE
  5
48E
  8
LAYER1$C$L1
 62
     3
 10
-173.29998779300001
 20
46.0
 30
0.0
 11
-173.29998779300001
 21
45.499999999999993
 31
0.0
  0
LINE
  5
48F
  8
LAYER1$C$L1
 62
     3
 10
-182.7999877929999
 20
47.0
 30
0.0
 11
-182.7999877929999
 21
64.0
 31
0.0
  0
LINE
  5
490
  8
LAYER1$C$L1
 62
     3
 10
-167.99998474119991
 20
50.399993896499993
 30
0.0
 11
-162.69999694820001
 21
50.399993896499993
 31
0.0
  0
LINE
  5
491
  8
LAYER1$C$L1
 62
     3
 10
-162.69999694820001
 20
47.700012207
 30
0.0
 11
-162.69999694820001
 21
50.399993896499993
 31
0.0
  0
LINE
  5
492
  8
LAYER1$C$L1
 62
     3
 10
-154.7999877929999
 20
64.0
 30
0.0
 11
-154.7999877929999
 21
47.700012207
 31
0.0
  0
LINE
  5
493
  8
LAYER1$C$L1
 62
     3
 10
-167.99998474119991
 20
45.499999999999993
 30
0.0
 11
-166.89999389650001
 21
45.499999999999993
 31
0.0
  0
LINE
  5
494
  8
LAYER1$C$L1
 62
     3
 10
-163.7999877929999
 20
45.499999999999993
 30
0.0
 11
-162.69999694820001
 21
45.499999999999993
 31
0.0
  0
LINE
  5
495
  8
LAYER1$C$L1
 62
     3
 10
-163.7999877929999
 20
49.099990844700002
 30
0.0
 11
-166.89999389650001
 21
49.099990844700002
 31
0.0
  0
LINE
  5
496
  8
LAYER1$C$L1
 62
     3
 10
-166.89999389650001
 20
45.499999999999993
 30
0.0
 11
-166.89999389650001
 21
49.099990844700002
 31
0.0
  0
LINE
  5
497
  8
LAYER1$C$L1
 62
     3
 10
-163.7999877929999
 20
45.499999999999993
 30
0.0
 11
-163.7999877929999
 21
49.099990844700002
 31
0.0
  0
LINE
  5
498
  8
LAYER1$C$L1
 62
     3
 10
-162.69999694820001
 20
46.0
 30
0.0
 11
-154.19999694820001
 21
46.0
 31
0.0
  0
LINE
  5
499
  8
LAYER1$C$L1
 62
     3
 10
-162.69999694820001
 20
45.499999999999993
 30
0.0
 11
-162.69999694820001
 21
46.0
 31
0.0
  0
LINE
  5
49A
  8
LAYER1$C$L1
 62
     3
 10
-153.19999694820001
 20
64.0
 30
0.0
 11
-153.19999694820001
 21
47.0
 31
0.0
  0
LINE
  5
49B
  8
LAYER3$C$L3
  6
CENTERLINE
 62
     3
 10
-151.24484252929989
 20
64.0
 30
0.0
 11
-184.72137451169991
 21
64.0
 31
0.0
  0
LINE
  5
49C
  8
LAYER3$C$L3
  6
CENTERLINE
 62
     3
 10
-167.99998474119991
 20
84.850357055700002
 30
0.0
 11
-167.99998474119991
 21
43.403244018599999
 31
0.0
  0
POINT
  5
51B
  8
LAYER0$C$L0
 62
     3
 10
-18.200012207
 20
63.999984741200002
 30
0.0
  0
POINT
  5
51C
  8
LAYER0$C$L0
 62
     3
 10
-24.20001220699999
 20
63.999984741200002
 30
0.0
  0
POINT
  5
51D
  8
LAYER0$C$L0
 62
     3
 10
-48.000015258799991
 20
63.999984741200002
 30
0.0
  0
POINT
  5
51E
  8
LAYER0$C$L0
 62
     3
 10
-151.09243774410001
 20
138.6207332722328
 30
0.0
  0
POINT
  5
51F
  8
LAYER0$C$L0
 62
     3
 10
-167.4316864013999
 20
122.7556610106999
 30
0.0
  0
POINT
  5
522
  8
LAYER0$C$L0
 62
     3
 10
-126.0000152588
 20
64.0
 30
0.0
  0
POINT
  5
523
  8
LAYER0$C$L0
 62
     3
 10
-139.3499908446999
 20
99.500000000000014
 30
0.0
  0
POINT
  5
524
  8
LAYER0$C$L0
 62
     3
 10
-140.05000305179991
 20
99.500000000000014
 30
0.0
  0
POINT
  5
525
  8
LAYER0$C$L0
 62
     3
 10
-126.0000152588
 20
139.86507226153279
 30
0.0
  0
POINT
  5
526
  8
LAYER0$C$L0
 62
     3
 10
-134.0000152588
 20
139.86507226153279
 30
0.0
  0
POINT
  5
527
  8
LAYER0$C$L0
 62
     3
 10
-105.50001525879991
 20
99.500000000000014
 30
0.0
  0
POINT
  5
528
  8
LAYER0$C$L0
 62
     3
 10
-105.50001525879991
 20
93.499999999999986
 30
0.0
  0
POINT
  5
529
  8
LAYER0$C$L0
 62
     3
 10
-105.50001525879991
 20
126.36508752033281
 30
0.0
  0
POINT
  5
52A
  8
LAYER0$C$L0
 62
     3
 10
-81.000015258800005
 20
139.86507226153279
 30
0.0
  0
POINT
  5
52B
  8
LAYER0$C$L0
 62
     3
 10
-134.0000152588
 20
64.0
 30
0.0
  0
POINT
  5
52C
  8
LAYER0$C$L0
 62
     3
 10
-167.99998474119991
 20
63.999984741200002
 30
0.0
  0
POINT
  5
52F
  8
LAYER0$C$L0
 62
     3
 10
0.0
 20
0.0
 30
0.0
  0
INSERT
  5
537
  8
DIMENSIONS
  2
*U39
 10
0.0
 20
0.0
 30
0.0
  0
DIMENSION
  5
59F
  8
DIMENSIONS
  2
*D35
 10
-105.50001525879991
 20
103.7579374121925
 30
0.0
 11
-122.42501484329929
 21
103.7579374121925
 31
0.0
 70
     0
 13
-139.3500144277987
 23
126.1649993452254
 33
0.0
 14
-105.50001525879991
 24
126.3650722615328
 34
0.0
1001
ACAD
1000
DSTYLE
1002
{
1070
    41
1040
1.9727878464999999
1070
    42
1040
2.5399999618999991
1070
    44
1040
3.8099999427999989
1070
    73
1070
     0
1070
   140
1040
3.1999998092999991
1070
   271
1070
     1
1070
   272
1070
     1
1002
}
  0
DIMENSION
  5
61B
  8
DIMENSIONS
  2
*D36
 10
-81.000015258800005
 20
103.6570782428324
 30
0.0
 11
-93.250015258800005
 21
103.6570782428324
 31
0.0
 70
     0
 13
-105.50001525879991
 23
126.3650722615328
 33
0.0
 14
-81.000015258800005
 24
137.32507229963281
 34
0.0
1001
ACAD
1000
DSTYLE
1002
{
1070
    41
1040
1.9727878464999999
1070
    42
1040
2.5399999618999991
1070
    44
1040
3.8099999427999989
1070
    73
1070
     0
1070
   140
1040
3.1999998092999991
1070
   271
1070
     1
1070
   272
1070
     1
1002
}
  0
DIMENSION
  5
633
  8
DIMENSIONS
  2
*D37
 10
-62.811845481804973
 20
128.0650692097328
 30
0.0
 11
-62.811845481804987
 21
139.652886671564
 31
0.0
 70
   128
 13
-89.960015296899996
 23
151.6650600545328
 33
0.0
 14
-89.960015296899996
 24
128.0650692097328
 34
0.0
 50
90.0
1001
ACAD
1000
DSTYLE
1002
{
1070
    41
1040
1.9727878464999999
1070
    42
1040
2.5399999618999991
1070
    44
1040
3.8099999427999989
1070
    73
1070
     0
1070
   140
1040
3.1999998092999991
1070
   271
1070
     1
1070
   272
1070
     1
1002
}
  0
DIMENSION
  5
687
  8
DIMENSIONS
  2
*D38
 10
-33.200012207000803
 20
93.150611886371053
 30
0.0
 11
-48.243562995256752
 21
93.150611886371053
 31
0.0
 70
   128
 13
-62.800003051799997
 23
81.0
 33
0.0
 14
-33.200012207000803
 24
80.999986008790046
 34
0.0
1001
ACAD
1000
DSTYLE
1002
{
1070
    41
1040
1.9727878464999999
1070
    42
1040
2.5399999618999991
1070
    44
1040
3.8099999427999989
1070
    73
1070
     0
1070
   140
1040
3.1999998092999991
1070
   271
1070
     1
1070
   272
1070
     1
1002
}
  0
ENDSEC
  0
EOF
