  0
SECTION
  2
HEADER
  9
$ACADVER
  1
AC1009
  9
$INSBASE
 10
0.0
 20
0.0
 30
0.0
  9
$EXTMIN
 10
-182.94372558590001
 20
15.999999999999989
 30
0.0
  9
$EXTMAX
 10
-6.19000005719999
 20
171.841869397582
 30
0.0
  9
$LIMMIN
 10
-215.17524414059989
 20
-3.1749999999999989
  9
$LIMMAX
 10
3.1749999999999989
 20
300.17500000000001
  9
$ORTHOMODE
 70
     0
  9
$REGENMODE
 70
     1
  9
$FILLMODE
 70
     1
  9
$QTEXTMODE
 70
     0
  9
$MIRRTEXT
 70
     0
  9
$DRAGMODE
 70
     2
  9
$LTSCALE
 40
1.0
  9
$OSMODE
 70
    39
  9
$ATTMODE
 70
     1
  9
$TEXTSIZE
 40
3.1999998092999991
  9
$TRACEWID
 40
0.05
  9
$TEXTSTYLE
  7
STANDARD
  9
$CLAYER
  8
0
  9
$CELTYPE
  6
BYLAYER
  9
$CECOLOR
 62
   256
  9
$DIMSCALE
 40
1.0
  9
$DIMASZ
 40
1.9727878464999999
  9
$DIMEXO
 40
2.5399999618999991
  9
$DIMDLI
 40
0.38
  9
$DIMRND
 40
0.0
  9
$DIMDLE
 40
0.0
  9
$DIMEXE
 40
3.8099999427999989
  9
$DIMTP
 40
0.0
  9
$DIMTM
 40
0.0
  9
$DIMTXT
 40
3.1999998092999991
  9
$DIMCEN
 40
0.09
  9
$DIMTSZ
 40
0.0
  9
$DIMTOL
 70
     0
  9
$DIMLIM
 70
     0
  9
$DIMTIH
 70
     0
  9
$DIMTOH
 70
     1
  9
$DIMSE1
 70
     0
  9
$DIMSE2
 70
     0
  9
$DIMTAD
 70
     0
  9
$DIMZIN
 70
     0
  9
$DIMBLK
  1

  9
$DIMASO
 70
     1
  9
$DIMSHO
 70
     0
  9
$DIMPOST
  1

  9
$DIMAPOST
  1

  9
$DIMALT
 70
     0
  9
$DIMALTD
 70
     2
  9
$DIMALTF
 40
25.399999999999999
  9
$DIMLFAC
 40
1.0
  9
$DIMTOFL
 70
     0
  9
$DIMTVP
 40
0.0
  9
$DIMTIX
 70
     0
  9
$DIMSOXD
 70
     0
  9
$DIMSAH
 70
     0
  9
$DIMBLK1
  1

  9
$DIMBLK2
  1

  9
$DIMSTYLE
  2
STANDARD
  9
$DIMCLRD
 70
     0
  9
$DIMCLRE
 70
     0
  9
$DIMCLRT
 70
     0
  9
$DIMTFAC
 40
1.0
  9
$DIMGAP
 40
0.09
  9
$LUNITS
 70
     2
  9
$LUPREC
 70
     3
  9
$SKETCHINC
 40
0.1
  9
$FILLETRAD
 40
0.0625
  9
$AUNITS
 70
     0
  9
$AUPREC
 70
     0
  9
$MENU
  1
ACAD
  9
$ELEVATION
 40
0.0
  9
$PELEVATION
 40
0.0
  9
$THICKNESS
 40
0.0
  9
$LIMCHECK
 70
     0
  9
$BLIPMODE
 70
     0
  9
$CHAMFERA
 40
0.0
  9
$CHAMFERB
 40
0.0
  9
$SKPOLY
 70
     0
  9
$TDCREATE
 40
2452011.4134722222
  9
$TDUPDATE
 40
2452374.7964307871
  9
$TDINDWG
 40
0.0792919097
  9
$TDUSRTIMER
 40
0.0792914468
  9
$USRTIMER
 70
     1
  9
$ANGBASE
 50
0.0
  9
$ANGDIR
 70
     0
  9
$PDMODE
 70
     0
  9
$PDSIZE
 40
0.0
  9
$PLINEWID
 40
0.0
  9
$COORDS
 70
     1
  9
$SPLFRAME
 70
     0
  9
$SPLINETYPE
 70
     6
  9
$SPLINESEGS
 70
     8
  9
$ATTDIA
 70
     0
  9
$ATTREQ
 70
     1
  9
$HANDLING
 70
  4097
  9
$HANDSEED
  5
79B
  9
$SURFTAB1
 70
     6
  9
$SURFTAB2
 70
     6
  9
$SURFTYPE
 70
     6
  9
$SURFU
 70
     6
  9
$SURFV
 70
     6
  9
$UCSNAME
  2

  9
$UCSORG
 10
0.0
 20
0.0
 30
0.0
  9
$UCSXDIR
 10
1.0
 20
0.0
 30
0.0
  9
$UCSYDIR
 10
0.0
 20
1.0
 30
0.0
  9
$PUCSNAME
  2

  9
$PUCSORG
 10
0.0
 20
0.0
 30
0.0
  9
$PUCSXDIR
 10
1.0
 20
0.0
 30
0.0
  9
$PUCSYDIR
 10
0.0
 20
1.0
 30
0.0
  9
$USERI1
 70
     0
  9
$USERI2
 70
     0
  9
$USERI3
 70
     0
  9
$USERI4
 70
     0
  9
$USERI5
 70
     0
  9
$USERR1
 40
0.0
  9
$USERR2
 40
0.0
  9
$USERR3
 40
0.0
  9
$USERR4
 40
0.0
  9
$USERR5
 40
0.0
  9
$WORLDVIEW
 70
     1
  9
$SHADEDGE
 70
     3
  9
$SHADEDIF
 70
    70
  9
$TILEMODE
 70
     1
  9
$MAXACTVP
 70
    64
  9
$PLIMCHECK
 70
     0
  9
$PEXTMIN
 10
1.0000000000000000E+020
 20
1.0000000000000000E+020
 30
1.0000000000000000E+020
  9
$PEXTMAX
 10
-1.0000000000000000E+020
 20
-1.0000000000000000E+020
 30
-1.0000000000000000E+020
  9
$PLIMMIN
 10
0.0
 20
0.0
  9
$PLIMMAX
 10
12.0
 20
9.0
  9
$UNITMODE
 70
     0
  9
$VISRETAIN
 70
     1
  9
$PLINEGEN
 70
     0
  9
$PSLTSCALE
 70
     1
  0
ENDSEC
  0
SECTION
  2
TABLES
  0
TABLE
  2
VPORT
 70
     2
  0
VPORT
  2
*ACTIVE
 70
     0
 10
0.0
 20
0.0
 11
1.0
 21
1.0
 12
-96.548555974158688
 22
96.980333095863813
 13
0.0
 23
0.0
 14
1.0
 24
1.0
 15
0.0
 25
0.0
 16
0.0
 26
0.0
 36
1.0
 17
0.0
 27
0.0
 37
0.0
 40
197.72913640891849
 41
1.565365025466892
 42
50.0
 43
0.0
 44
0.0
 50
0.0
 51
0.0
 71
     0
 72
   100
 73
     1
 74
     1
 75
     0
 76
     0
 77
     0
 78
     0
  0
ENDTAB
  0
TABLE
  2
LTYPE
 70
     7
  0
LTYPE
  2
CONTINUOUS
 70
     0
  3
Solid line
 72
    65
 73
     0
 40
0.0
  0
LTYPE
  2
SOLID
 70
     0
  3
Solid
 72
    65
 73
     0
 40
0.0
  0
LTYPE
  2
DASHED
 70
     0
  3
Dashed
 72
    65
 73
     2
 40
4.7625000000000002
 49
3.1749999999999989
 49
-1.587499999999999
  0
LTYPE
  2
CENTERLINE
 70
     0
  3
Centerline
 72
    65
 73
     4
 40
25.399999999999999
 49
19.050000000000001
 49
-1.587499999999999
 49
3.1749999999999989
 49
-1.587499999999999
  0
LTYPE
  2
PHANTOM
 70
     0
  3
Phantom
 72
    65
 73
     6
 40
30.162500000000001
 49
19.050000000000001
 49
-1.587499999999999
 49
3.1749999999999989
 49
-1.587499999999999
 49
3.1749999999999989
 49
-1.587499999999999
  0
LTYPE
  2
CONSTRUCTION
 70
     0
  3
Construction
 72
    65
 73
     2
 40
1.016
 49
0.254
 49
-0.762
  0
LTYPE
  2
GAP
 70
     0
  3
Gap
 72
    65
 73
     3
 40
2540.9999980092002
 49
0.0
 49
-0.9999980092000002
 49
2540.0
  0
ENDTAB
  0
TABLE
  2
LAYER
 70
    11
  0
LAYER
  2
0
 70
     0
 62
     7
  6
CONTINUOUS
  0
LAYER
  2
LAYER0$C$L0
 70
     0
 62
     3
  6
SOLID
  0
LAYER
  2
LAYER1$C$L1
 70
     0
 62
     3
  6
SOLID
  0
LAYER
  2
LAYER2$C$L2
 70
     0
 62
     3
  6
SOLID
  0
LAYER
  2
LAYER3$C$L3
 70
     0
 62
     3
  6
SOLID
  0
LAYER
  2
LAYER4$C$L4
 70
     0
 62
     3
  6
SOLID
  0
LAYER
  2
LAYER6$C$L6
 70
     0
 62
     6
  6
SOLID
  0
LAYER
  2
LAYER8$C$L8
 70
     0
 62
    32
  6
SOLID
  0
LAYER
  2
LAYER9$C$L9
 70
     0
 62
     1
  6
SOLID
  0
LAYER
  2
DEFPOINTS
 70
     0
 62
     7
  6
CONTINUOUS
  0
LAYER
  2
DIMENSIONS
 70
     0
 62
     5
  6
CONTINUOUS
  0
ENDTAB
  0
TABLE
  2
STYLE
 70
     1
  0
STYLE
  2
STANDARD
 70
     0
 40
0.0
 41
1.0
 50
0.0
 71
     0
 42
3.1999998092999991
  3
txt
  4

  0
ENDTAB
  0
TABLE
  2
VIEW
 70
     0
  0
ENDTAB
  0
TABLE
  2
UCS
 70
     0
  0
ENDTAB
  0
TABLE
  2
APPID
 70
     1
  0
APPID
  2
ACAD
 70
     0
  0
ENDTAB
  0
TABLE
  2
DIMSTYLE
 70
     1
  0
DIMSTYLE
  2
STANDARD
 70
     0
  3

  4

  5

  6

  7

 40
1.0
 41
0.18
 42
0.0625
 43
0.38
 44
0.18
 45
0.0
 46
0.0
 47
0.0
 48
0.0
140
0.18
141
0.09
142
0.0
143
25.399999999999999
144
1.0
145
0.0
146
1.0
147
0.09
 71
     0
 72
     0
 73
     1
 74
     1
 75
     0
 76
     0
 77
     0
 78
     0
170
     0
171
     2
172
     0
173
     0
174
     0
175
     0
176
     0
177
     0
178
     0
  0
ENDTAB
  0
ENDSEC
  0
SECTION
  2
BLOCKS
  0
BLOCK
  8
0
  2
$MODEL_SPACE
 70
     0
 10
0.0
 20
0.0
 30
0.0
  3
$MODEL_SPACE
  1

  0
ENDBLK
  5
20
  8
0
  0
BLOCK
 67
     1
  8
0
  2
$PAPER_SPACE
 70
     0
 10
0.0
 20
0.0
 30
0.0
  3
$PAPER_SPACE
  1

  0
ENDBLK
  5
1C
 67
     1
  8
0
  0
BLOCK
  8
LAYER0$C$L0
  2
BLOCK0
 70
     0
 10
0.0
 20
0.0
 30
0.0
  3
BLOCK0
  1

  0
ARC
  5
CF
  8
LAYER1$C$L1
 10
0.0
 20
0.0
 30
0.0
 40
14.39999961849999
 50
215.00000165680001
 51
270.00001798609998
  0
ARC
  5
D0
  8
LAYER1$C$L1
 10
0.0
 20
0.0
 30
0.0
 40
13.0
 50
215.00000165680001
 51
270.00001798609998
  0
ARC
  5
D1
  8
LAYER1$C$L1
 10
0.0
 20
0.0
 30
0.0
 40
14.39999961849999
 50
334.99994352440001
 51
44.999926120199959
  0
ARC
  5
D2
  8
LAYER1$C$L1
 10
0.0
 20
0.0
 30
0.0
 40
13.0
 50
334.99994352440001
 51
44.999926120199959
  0
ARC
  5
D3
  8
LAYER1$C$L1
 10
0.0
 20
0.0
 30
0.0
 40
13.0
 50
95.000008335400011
 51
165.0000489878
  0
ARC
  5
D4
  8
LAYER1$C$L1
 10
0.0
 20
0.0
 30
0.0
 40
14.39999961849999
 50
95.000008335400011
 51
165.0000489878
  0
ARC
  5
D5
  8
LAYER1$C$L1
 10
0.0
 20
0.0
 30
0.0
 40
14.39999961849999
 50
270.00001798609998
 51
284.99998766769988
  0
ARC
  5
D6
  8
LAYER1$C$L1
 10
0.0
 20
0.0
 30
0.0
 40
13.0
 50
270.00001798609998
 51
284.99998766769988
  0
LINE
  5
D7
  8
LAYER1$C$L1
 10
-1.0545817669999991
 20
12.053953845800001
 30
0.0
 11
-1.1330214396
 21
12.95053066779999
 31
0.0
  0
LINE
  5
D8
  8
LAYER1$C$L1
 10
-1.3334793508
 20
15.241777393299991
 30
0.0
 11
-1.2550388787999991
 21
14.3452025787
 31
0.0
  0
LINE
  5
D9
  8
LAYER1$C$L1
 10
10.9663216113
 20
-5.1136800181000002
 30
0.0
 11
11.781999975399991
 21
-5.4940371059000004
 31
0.0
  0
LINE
  5
DA
  8
LAYER1$C$L1
 10
13.86650713329999
 20
-6.4660578367999992
 30
0.0
 11
13.050831201199991
 21
-6.0857022262999987
 31
0.0
  0
LINE
  5
DB
  8
LAYER1$C$L1
 10
-12.533025739299999
 20
-8.7757174883999998
 30
0.0
 11
-11.795789361300001
 21
-8.2594986873000007
 31
0.0
  0
LINE
  5
DC
  8
LAYER1$C$L1
 10
-9.9117385818999981
 20
-6.9402721846000004
 30
0.0
 11
-10.648976736899989
 21
-7.4564917577999994
 31
0.0
  0
LINE
  5
DD
  8
LAYER1$C$L1
 10
-13.233182840599991
 20
-3.5458174570999992
 30
0.0
 11
-12.533025737399999
 21
-8.7757153802999994
 31
0.0
  0
LINE
  5
DE
  8
LAYER1$C$L1
 10
-13.2331826567
 20
-3.5458192881000001
 30
0.0
 11
-9.9117380595000011
 21
-6.940272907999999
 31
0.0
  0
LINE
  5
DF
  8
LAYER1$C$L1
 10
9.6873611083000011
 20
-9.6873628059999994
 30
0.0
 11
13.866505854899991
 21
-6.4660585446000001
 31
0.0
  0
LINE
  5
E0
  8
LAYER1$C$L1
 10
10.966322630000001
 20
-5.1136787312000003
 30
0.0
 11
9.6873623512999991
 21
-9.687362113899999
 31
0.0
  0
LINE
  5
E1
  8
LAYER1$C$L1
 10
3.5458210327999988
 20
13.23318261359999
 30
0.0
 11
-1.3334803112999991
 21
15.2417771219
 31
0.0
  0
LINE
  5
E2
  8
LAYER1$C$L1
 10
3.5458219618999989
 20
13.2331822177
 30
0.0
 11
-1.054582582699999
 21
12.053953893299999
 31
0.0
  0
LINE
  5
E3
  8
LAYER1$C$L1
 10
3.7269910077999988
 20
-13.90933025819999
 30
0.0
 11
3.3646443583999992
 21
-12.55703549349999
 31
0.0
  0
LINE
  5
E4
  8
LAYER1$C$L1
 10
10.182337389000001
 20
10.182335672400001
 30
0.0
 11
9.1923880986000004
 21
9.1923865489000001
 31
0.0
  0
LINE
  5
E5
  8
LAYER1$C$L1
 10
-13.909329399900001
 20
3.7269927244000001
 30
0.0
 11
-12.55703471859999
 21
3.3646459081999991
 31
0.0
  0
POINT
  5
E6
  8
LAYER0$C$L0
 10
0.0
 20
0.0
 30
0.0
  0
POINT
  5
E7
  8
LAYER0$C$L0
 10
0.0
 20
0.0
 30
0.0
  0
POINT
  5
E8
  8
LAYER0$C$L0
 10
0.0
 20
0.0
 30
0.0
  0
POINT
  5
E9
  8
LAYER0$C$L0
 10
0.0
 20
0.0
 30
0.0
  0
POINT
  5
EA
  8
LAYER0$C$L0
 10
1.0
 20
0.0
 30
0.0
  0
POINT
  5
EB
  8
LAYER0$C$L0
 10
0.0
 20
0.0
 30
0.0
  0
ENDBLK
  5
EC
  8
LAYER0$C$L0
  0
BLOCK
  8
LAYER8$C$L8
  2
CADRA_ATTR_0
 70
     2
 10
0.0
 20
0.0
 30
0.0
  3
CADRA_ATTR_0
  1

  0
TEXT
  5
EF
  8
LAYER8$C$L8
 62
     3
 10
-168.86666630240001
 20
4.5
 30
0.0
 40
2.0
  1
TW-HW
 41
0.9125003342624989
 72
     5
 11
-159.13332940359999
 21
4.5
 31
0.0
  0
ATTDEF
  5
F0
  8
LAYER8$C$L8
 62
     3
 10
-164.0
 20
5.5
 30
0.0
 40
0.156
  1
ç%f!<%6!<  é
  3

  2
50
 70
    11
  0
ENDBLK
  5
F1
  8
LAYER8$C$L8
  0
BLOCK
  8
LAYER8$C$L8
  2
CADRA_ATTR_1
 70
     2
 10
0.0
 20
0.0
 30
0.0
  3
CADRA_ATTR_1
  1

  0
TEXT
  5
F4
  8
LAYER8$C$L8
 62
     3
 10
-176.86666630239989
 20
4.5
 30
0.0
 40
2.0
  1
A
 41
1.3000026740999919
 72
     5
 11
-175.13332940359999
 21
4.5
 31
0.0
  0
ATTDEF
  5
F5
  8
LAYER8$C$L8
 62
     3
 10
-176.0
 20
5.5
 30
0.0
 40
0.156
  1
ç%0%k!<%W  é
  3

  2
40
 70
    11
  0
ENDBLK
  5
F6
  8
LAYER8$C$L8
  0
BLOCK
  8
LAYER8$C$L8
  2
CADRA_ATTR_2
 70
     2
 10
0.0
 20
0.0
 30
0.0
  3
CADRA_ATTR_2
  1

  0
TEXT
  5
F9
  8
LAYER8$C$L8
 62
     3
 10
-66.302666215299993
 20
3.4200000763
 30
0.0
 40
4.1599998473999991
  1
*
 41
1.3000029426755879
 72
     5
 11
-62.697324853199987
 21
3.4200000763
 31
0.0
  0
ATTDEF
  5
FA
  8
LAYER8$C$L8
 62
     3
 10
-64.499995999999996
 20
5.5
 30
0.0
 40
0.156
  1
ç5l?^HVé
  3

  2
110
 70
    11
  0
ENDBLK
  5
FB
  8
LAYER8$C$L8
  0
BLOCK
  8
LAYER8$C$L8
  2
CADRA_ATTR_3
 70
     2
 10
0.0
 20
0.0
 30
0.0
  3
CADRA_ATTR_3
  1

  0
TEXT
  5
FE
  8
LAYER8$C$L8
 62
     3
 10
-99.676656388700025
 20
275.91641426090001
 30
0.0
 40
4.1671714783000002
  1
AVLW4
 41
0.9081207791708884
 72
     5
 11
-79.493749669700009
 21
275.91641426090001
 31
0.0
  0
ATTDEF
  5
FF
  8
LAYER8$C$L8
 62
     3
 10
-89.585205000000002
 20
278.0
 30
0.0
 40
0.156
  1
çL>>N!&7A<0é
  3

  2
10
 70
    11
  0
ENDBLK
  5
100
  8
LAYER8$C$L8
  0
BLOCK
  8
LAYER8$C$L8
  2
CADRA_ATTR_4
 70
     2
 10
0.0
 20
0.0
 30
0.0
  3
CADRA_ATTR_4
  1

  0
TEXT
  5
103
  8
LAYER8$C$L8
 62
     3
 10
-103.26429761449999
 20
284.30000019070002
 30
0.0
 40
3.3999996184999999
  1
TWÉVÉäÅ[ÉY è∆åıâüÉ{ÉCìÉXÉCÉbÉ`
 41
0.5813210724173495
 72
     5
 11
-50.557859629299998
 21
284.30000019070002
 31
0.0
  0
ATTDEF
  5
104
  8
LAYER8$C$L8
 62
     3
 10
-76.911079000000001
 20
286.0
 30
0.0
 40
0.156
  1
ç@=IJL>é
  3

  2
0
 70
    11
  0
ENDBLK
  5
105
  8
LAYER8$C$L8
  0
BLOCK
  8
LAYER8$C$L8
  2
CADRA_ATTR_5
 70
     2
 10
0.0
 20
0.0
 30
0.0
  3
CADRA_ATTR_5
  1

  0
TEXT
  5
108
  8
LAYER8$C$L8
 62
     3
 10
-66.511743726999995
 20
16.0
 30
0.0
 40
5.0
  1
MA4-A02279B
 41
1.029359854531428
 72
     5
 11
-12.470351364100001
 21
16.0
 31
0.0
  0
ATTDEF
  5
109
  8
LAYER8$C$L8
 62
     3
 10
-39.491045999999997
 20
18.5
 30
0.0
 40
0.156
  1
ç?^HV  é
  3

  2
20
 70
    11
  0
ENDBLK
  5
10A
  8
LAYER8$C$L8
  0
BLOCK
  8
0
  2
*D22
 70
     1
 10
0.0
 20
0.0
 30
0.0
  3
*D22
  1

  0
LINE
  5
6FF
  8
DIMENSIONS
 62
     0
 10
-29.460000038099999
 20
82.899993896499964
 30
0.0
 11
-6.19000005719999
 21
82.899993896499964
 31
0.0
  0
LINE
  5
700
  8
DIMENSIONS
 62
     0
 10
-25.460000038099999
 20
45.099990844700002
 30
0.0
 11
-6.1900000571999989
 21
45.099990844699988
 31
0.0
  0
LINE
  5
701
  8
DIMENSIONS
 62
     0
 10
-9.9999999999999911
 20
80.927206049999981
 30
0.0
 11
-9.9999999999999947
 21
68.889992084549988
 31
0.0
  0
LINE
  5
702
  8
DIMENSIONS
 62
     0
 10
-10.0
 20
47.072778691199993
 30
0.0
 11
-9.9999999999999982
 21
59.109992656649979
 31
0.0
  0
SOLID
  5
703
  8
DIMENSIONS
 62
     0
 10
-10.32879797441665
 20
80.927206049999981
 30
0.0
 11
-9.6712020255833266
 21
80.927206049999981
 31
0.0
 12
-9.9999999999999911
 22
82.899993896499964
 32
0.0
 13
-9.9999999999999911
 23
82.899993896499964
 33
0.0
  0
SOLID
  5
704
  8
DIMENSIONS
 62
     0
 10
-10.328797974416659
 20
47.072778691199993
 30
0.0
 11
-9.6712020255833338
 21
47.072778691199993
 31
0.0
 12
-10.0
 22
45.099990844699988
 32
0.0
 13
-10.0
 23
45.099990844699988
 33
0.0
  0
TEXT
  5
705
  8
0
 62
     0
 10
-8.4000000953500074
 20
59.199992656649982
 30
0.0
 40
3.1999998092999991
  1
37.8
 50
90.0
  0
POINT
  5
706
  8
DEFPOINTS
 62
     0
 10
-32.0
 20
82.899993896499993
 30
0.0
  0
POINT
  5
707
  8
DEFPOINTS
 62
     0
 10
-28.0
 20
45.099990844700002
 30
0.0
  0
POINT
  5
708
  8
DEFPOINTS
 62
     0
 10
-10.0
 20
45.099990844699988
 30
0.0
  0
ENDBLK
  5
186
  8
0
  0
BLOCK
  8
0
  2
*D23
 70
     1
 10
0.0
 20
0.0
 30
0.0
  3
*D23
  1

  0
LINE
  5
6F5
  8
DIMENSIONS
 62
     0
 10
-32.160012245099999
 20
45.499999999999993
 30
0.0
 11
-11.190000057200001
 21
45.499999999999993
 31
0.0
  0
LINE
  5
6F6
  8
DIMENSIONS
 62
     0
 10
-32.160012245099999
 20
82.5
 30
0.0
 11
-11.190000057200001
 21
82.499999999999986
 31
0.0
  0
LINE
  5
6F7
  8
DIMENSIONS
 62
     0
 10
-15.0
 20
47.472787846499983
 30
0.0
 11
-15.0
 21
59.376666936824989
 31
0.0
  0
LINE
  5
6F8
  8
DIMENSIONS
 62
     0
 10
-15.0
 20
80.527212153499988
 30
0.0
 11
-15.0
 21
68.623333063174982
 31
0.0
  0
SOLID
  5
6F9
  8
DIMENSIONS
 62
     0
 10
-15.32879797441667
 20
47.472787846499983
 30
0.0
 11
-14.671202025583341
 21
47.472787846499983
 31
0.0
 12
-15.0
 22
45.499999999999993
 32
0.0
 13
-15.0
 23
45.499999999999993
 33
0.0
  0
SOLID
  5
6FA
  8
DIMENSIONS
 62
     0
 10
-15.328797974416659
 20
80.527212153499988
 30
0.0
 11
-14.67120202558333
 21
80.527212153499988
 31
0.0
 12
-15.0
 22
82.499999999999986
 32
0.0
 13
-15.0
 23
82.499999999999986
 33
0.0
  0
TEXT
  5
6FB
  8
0
 62
     0
 10
-13.400000095350009
 20
59.466666936824979
 30
0.0
 40
3.1999998092999991
  1
37.0
 50
90.0
  0
POINT
  5
6FC
  8
DEFPOINTS
 62
     0
 10
-34.700012207
 20
45.499999999999993
 30
0.0
  0
POINT
  5
6FD
  8
DEFPOINTS
 62
     0
 10
-34.700012207
 20
82.5
 30
0.0
  0
POINT
  5
6FE
  8
DEFPOINTS
 62
     0
 10
-15.0
 20
82.499999999999986
 30
0.0
  0
ENDBLK
  5
192
  8
0
  0
BLOCK
  8
0
  2
*D24
 70
     1
 10
0.0
 20
0.0
 30
0.0
  3
*D24
  1

  0
LINE
  5
6D7
  8
DIMENSIONS
 62
     0
 10
-180.49998474119991
 20
109.4599847793
 30
0.0
 11
-180.49998474119991
 21
89.189984798400005
 31
0.0
  0
LINE
  5
6D8
  8
DIMENSIONS
 62
     0
 10
-91.0
 20
107.96000003810001
 30
0.0
 11
-91.0
 21
89.189984798400005
 31
0.0
  0
LINE
  5
6D9
  8
DIMENSIONS
 62
     0
 10
-178.5271968946999
 20
92.999984741199995
 30
0.0
 11
-140.6399920845499
 21
92.999984741199995
 31
0.0
  0
LINE
  5
6DA
  8
DIMENSIONS
 62
     0
 10
-92.972787846499997
 20
92.999984741199995
 30
0.0
 11
-130.85999265664989
 21
92.999984741199995
 31
0.0
  0
SOLID
  5
6DB
  8
DIMENSIONS
 62
     0
 10
-178.5271968946999
 20
93.328782715616683
 30
0.0
 11
-178.5271968946999
 21
92.671186766783336
 31
0.0
 12
-180.49998474119991
 22
92.999984741199995
 32
0.0
 13
-180.49998474119991
 23
92.999984741199995
 33
0.0
  0
SOLID
  5
6DC
  8
DIMENSIONS
 62
     0
 10
-92.972787846499997
 20
93.328782715616683
 30
0.0
 11
-92.972787846499997
 21
92.671186766783336
 31
0.0
 12
-91.0
 22
92.999984741199995
 32
0.0
 13
-91.0
 23
92.999984741199995
 33
0.0
  0
TEXT
  5
6DD
  8
0
 62
     0
 10
-140.5499920845499
 20
91.399984836550004
 30
0.0
 40
3.1999998092999991
  1
89.5
  0
POINT
  5
6DE
  8
DEFPOINTS
 62
     0
 10
-180.49998474119991
 20
111.9999847412
 30
0.0
  0
POINT
  5
6DF
  8
DEFPOINTS
 62
     0
 10
-91.0
 20
110.4999999999999
 30
0.0
  0
POINT
  5
6E0
  8
DEFPOINTS
 62
     0
 10
-91.0
 20
92.999984741199995
 30
0.0
  0
ENDBLK
  5
1BE
  8
0
  0
BLOCK
  8
0
  2
*D25
 70
     1
 10
0.0
 20
0.0
 30
0.0
  3
*D25
  1

  0
LINE
  5
6EB
  8
DIMENSIONS
 62
     0
 10
-54.800003051799997
 20
83.539999961899994
 30
0.0
 11
-54.800003051799997
 21
97.309999942800005
 31
0.0
  0
LINE
  5
6EC
  8
DIMENSIONS
 62
     0
 10
-25.20001220699999
 20
83.539999961899994
 30
0.0
 11
-25.20001220699999
 21
97.309999942800005
 31
0.0
  0
LINE
  5
6ED
  8
DIMENSIONS
 62
     0
 10
-52.8272152053
 20
93.499999999999986
 30
0.0
 11
-44.890007343349993
 21
93.499999999999986
 31
0.0
  0
LINE
  5
6EE
  8
DIMENSIONS
 62
     0
 10
-27.172800053500001
 20
93.499999999999986
 30
0.0
 11
-35.110007915449998
 21
93.499999999999986
 31
0.0
  0
SOLID
  5
6EF
  8
DIMENSIONS
 62
     0
 10
-52.8272152053
 20
93.828797974416673
 30
0.0
 11
-52.8272152053
 21
93.171202025583327
 31
0.0
 12
-54.800003051799997
 22
93.499999999999986
 32
0.0
 13
-54.800003051799997
 23
93.499999999999986
 33
0.0
  0
SOLID
  5
6F0
  8
DIMENSIONS
 62
     0
 10
-27.172800053500001
 20
93.828797974416673
 30
0.0
 11
-27.172800053500001
 21
93.171202025583327
 31
0.0
 12
-25.20001220699999
 22
93.499999999999986
 32
0.0
 13
-25.20001220699999
 23
93.499999999999986
 33
0.0
  0
TEXT
  5
6F1
  8
0
 62
     0
 10
-44.800007343350003
 20
91.900000095349995
 30
0.0
 40
3.1999998092999991
  1
29.6
  0
POINT
  5
6F2
  8
DEFPOINTS
 62
     0
 10
-54.800003051799997
 20
81.0
 30
0.0
  0
POINT
  5
6F3
  8
DEFPOINTS
 62
     0
 10
-25.20001220699999
 20
81.0
 30
0.0
  0
POINT
  5
6F4
  8
DEFPOINTS
 62
     0
 10
-25.20001220699999
 20
93.499999999999986
 30
0.0
  0
ENDBLK
  5
1D0
  8
0
  0
BLOCK
  8
0
  2
*D26
 70
     1
 10
0.0
 20
0.0
 30
0.0
  3
*D26
  1

  0
LINE
  5
6B9
  8
DIMENSIONS
 62
     0
 10
-70.065361976600016
 20
103.9999847412
 30
0.0
 11
-58.69000005720001
 21
103.9999847412
 31
0.0
  0
LINE
  5
6BA
  8
DIMENSIONS
 62
     0
 10
-70.065361976600016
 20
143.99995422360001
 30
0.0
 11
-58.690000057200002
 21
143.9999542235999
 31
0.0
  0
LINE
  5
6BB
  8
DIMENSIONS
 62
     0
 10
-62.5
 20
105.97277258770001
 30
0.0
 11
-62.5
 21
118.04330316535
 31
0.0
  0
LINE
  5
6BC
  8
DIMENSIONS
 62
     0
 10
-62.5
 20
142.02716637709989
 30
0.0
 11
-62.5
 21
129.95663579945
 31
0.0
  0
SOLID
  5
6BD
  8
DIMENSIONS
 62
     0
 10
-62.828797974416673
 20
105.97277258770001
 30
0.0
 11
-62.171202025583341
 21
105.97277258770001
 31
0.0
 12
-62.5
 22
103.9999847412
 32
0.0
 13
-62.5
 23
103.9999847412
 33
0.0
  0
SOLID
  5
6BE
  8
DIMENSIONS
 62
     0
 10
-62.828797974416659
 20
142.02716637709989
 30
0.0
 11
-62.171202025583341
 21
142.02716637709989
 31
0.0
 12
-62.5
 22
143.9999542235999
 32
0.0
 13
-62.5
 23
143.9999542235999
 33
0.0
  0
INSERT
  5
6BF
  8
0
  2
*U33
 10
0.0
 20
0.0
 30
0.0
  0
POINT
  5
6C0
  8
DEFPOINTS
 62
     0
 10
-72.60536193850001
 20
103.9999847412
 30
0.0
  0
POINT
  5
6C1
  8
DEFPOINTS
 62
     0
 10
-72.60536193850001
 20
143.99995422360001
 30
0.0
  0
POINT
  5
6C2
  8
DEFPOINTS
 62
     0
 10
-62.5
 20
143.9999542235999
 30
0.0
  0
ENDBLK
  5
286
  8
0
  0
BLOCK
  8
0
  2
*D27
 70
     1
 10
0.0
 20
0.0
 30
0.0
  3
*D27
  1

  0
LINE
  5
6CD
  8
DIMENSIONS
 62
     0
 10
-91.0
 20
107.96000003810001
 30
0.0
 11
-91.0
 21
89.189984798400005
 31
0.0
  0
LINE
  5
6CE
  8
DIMENSIONS
 62
     0
 10
-68.5
 20
121.4599847793
 30
0.0
 11
-68.5
 21
89.189984798400019
 31
0.0
  0
LINE
  5
6CF
  8
DIMENSIONS
 62
     0
 10
-89.027212153500003
 20
92.999984741199995
 30
0.0
 11
-84.639999713950004
 21
92.999984741199995
 31
0.0
  0
LINE
  5
6D0
  8
DIMENSIONS
 62
     0
 10
-70.472787846499997
 20
92.999984741199995
 30
0.0
 11
-74.860000286049996
 21
92.999984741199995
 31
0.0
  0
SOLID
  5
6D1
  8
DIMENSIONS
 62
     0
 10
-89.027212153500003
 20
93.328782715616683
 30
0.0
 11
-89.027212153500003
 21
92.671186766783336
 31
0.0
 12
-91.0
 22
92.999984741199995
 32
0.0
 13
-91.0
 23
92.999984741199995
 33
0.0
  0
SOLID
  5
6D2
  8
DIMENSIONS
 62
     0
 10
-70.472787846499997
 20
93.328782715616683
 30
0.0
 11
-70.472787846499997
 21
92.671186766783336
 31
0.0
 12
-68.5
 22
92.999984741199995
 32
0.0
 13
-68.5
 23
92.999984741199995
 33
0.0
  0
TEXT
  5
6D3
  8
0
 62
     0
 10
-84.549999713950001
 20
91.399984836550004
 30
0.0
 40
3.1999998092999991
  1
22.5
  0
POINT
  5
6D4
  8
DEFPOINTS
 62
     0
 10
-91.0
 20
110.4999999999999
 30
0.0
  0
POINT
  5
6D5
  8
DEFPOINTS
 62
     0
 10
-68.5
 20
123.9999847412
 30
0.0
  0
POINT
  5
6D6
  8
DEFPOINTS
 62
     0
 10
-68.5
 20
92.999984741199995
 30
0.0
  0
ENDBLK
  5
386
  8
0
  0
BLOCK
  8
0
  2
*D29
 70
     1
 10
0.0
 20
0.0
 30
0.0
  3
*D29
  1

  0
LINE
  5
6E1
  8
DIMENSIONS
 62
     0
 10
-177.49993896480001
 20
120.4598474501999
 30
0.0
 11
-177.49993896480001
 21
94.189984798400005
 31
0.0
  0
LINE
  5
6E2
  8
DIMENSIONS
 62
     0
 10
-91.000015258799991
 20
106.18615055079999
 30
0.0
 11
-91.000015258799991
 21
94.189984798400005
 31
0.0
  0
LINE
  5
6E3
  8
DIMENSIONS
 62
     0
 10
-175.52715111829991
 20
97.999984741200024
 30
0.0
 11
-139.1399768257499
 21
97.999984741200024
 31
0.0
  0
LINE
  5
6E4
  8
DIMENSIONS
 62
     0
 10
-92.972803105299974
 20
97.999984741200024
 30
0.0
 11
-129.35997739784989
 21
97.999984741200024
 31
0.0
  0
SOLID
  5
6E5
  8
DIMENSIONS
 62
     0
 10
-175.52715111829991
 20
98.328782715616683
 30
0.0
 11
-175.52715111829991
 21
97.671186766783336
 31
0.0
 12
-177.49993896480001
 22
97.999984741200024
 32
0.0
 13
-177.49993896480001
 23
97.999984741200024
 33
0.0
  0
SOLID
  5
6E6
  8
DIMENSIONS
 62
     0
 10
-92.972803105299974
 20
98.328782715616683
 30
0.0
 11
-92.972803105299974
 21
97.671186766783336
 31
0.0
 12
-91.000015258799991
 22
97.999984741200024
 32
0.0
 13
-91.000015258799991
 23
97.999984741200024
 33
0.0
  0
TEXT
  5
6E7
  8
0
 62
     0
 10
-139.04997682574989
 20
96.399984836550004
 30
0.0
 40
3.1999998092999991
  1
86.5
  0
POINT
  5
6E8
  8
DEFPOINTS
 62
     0
 10
-177.49993896480001
 20
122.9998474120999
 30
0.0
  0
POINT
  5
6E9
  8
DEFPOINTS
 62
     0
 10
-91.000015258799991
 20
108.7261505127
 30
0.0
  0
POINT
  5
6EA
  8
DEFPOINTS
 62
     0
 10
-91.000015258799991
 20
97.999984741200024
 30
0.0
  0
ENDBLK
  5
4D0
  8
0
  0
BLOCK
  8
0
  2
*D30
 70
     1
 10
0.0
 20
0.0
 30
0.0
  3
*D30
  1

  0
LINE
  5
6C3
  8
DIMENSIONS
 62
     0
 10
-78.0
 20
107.75998783109991
 30
0.0
 11
-78.0
 21
94.189984798400005
 31
0.0
  0
LINE
  5
6C4
  8
DIMENSIONS
 62
     0
 10
-91.0
 20
107.96000003810001
 30
0.0
 11
-91.0
 21
94.189984798400005
 31
0.0
  0
LINE
  5
6C5
  8
DIMENSIONS
 62
     0
 10
-79.972787846499983
 20
97.999984741200024
 30
0.0
 11
-89.027212153500003
 21
97.999984741200024
 31
0.0
  0
LINE
  5
6C6
  8
DIMENSIONS
 62
     0
 10
-91.0
 20
97.999984741200024
 30
0.0
 11
-92.972787846499997
 21
97.999984741200024
 31
0.0
  0
SOLID
  5
6C7
  8
DIMENSIONS
 62
     0
 10
-79.972787846499983
 20
98.328782715616683
 30
0.0
 11
-79.972787846499983
 21
97.671186766783336
 31
0.0
 12
-78.0
 22
97.999984741200024
 32
0.0
 13
-78.0
 23
97.999984741200024
 33
0.0
  0
SOLID
  5
6C8
  8
DIMENSIONS
 62
     0
 10
-89.027212153500003
 20
98.328782715616683
 30
0.0
 11
-89.027212153500003
 21
97.671186766783336
 31
0.0
 12
-91.0
 22
97.999984741200024
 32
0.0
 13
-91.0
 23
97.999984741200024
 33
0.0
  0
TEXT
  5
6C9
  8
0
 62
     0
 10
-106.3961203852499
 20
96.399984836550004
 30
0.0
 40
3.1999998092999991
  1
13.013
  0
POINT
  5
6CA
  8
DEFPOINTS
 62
     0
 10
-78.0
 20
110.2999877929999
 30
0.0
  0
POINT
  5
6CB
  8
DEFPOINTS
 62
     0
 10
-91.0
 20
110.4999999999999
 30
0.0
  0
POINT
  5
6CC
  8
DEFPOINTS
 62
     0
 10
-91.0
 20
97.999984741200024
 30
0.0
  0
ENDBLK
  5
4E2
  8
0
  0
BLOCK
  8
0
  2
*U33
 70
     1
 10
0.0
 20
0.0
 30
0.0
  3
*U33
  1

  0
TEXT
  5
792
  8
0
 62
     0
 10
-60.900000095350023
 20
118.1333031653499
 30
0.0
 40
3.1999998092999991
  1
\U+2205
 50
90.0
  0
TEXT
  5
793
  8
0
 62
     0
 10
-60.900000095350023
 20
121.3333029746499
 30
0.0
 40
3.1999998092999991
  1
40.0
 50
90.0
  0
ENDBLK
  5
795
  8
0
  0
BLOCK
  8
0
  2
*U34
 70
     1
 10
0.0
 20
0.0
 30
0.0
  3
*U34
  1

  0
TEXT
  5
797
  8
0
 10
-146.48681739808171
 20
168.64186958828191
 30
0.0
 40
3.1999998092999991
  1
ASLW39920 (w/covers)
  0
TEXT
  5
798
  8
0
 10
-146.48681739808171
 20
163.30853657278189
 30
0.0
 40
3.1999998092999991
  1
(dimensions in mm)
  0
ENDBLK
  5
79A
  8
0
  0
ENDSEC
  0
SECTION
  2
ENTITIES
  0
INSERT
  5
12B
  8
LAYER0$C$L0
 62
     3
  2
BLOCK0
 10
-40.0
 20
64.0
 30
0.0
 50
90.0
  0
CIRCLE
  5
12D
  8
LAYER1$C$L1
 62
     3
 10
-40.0
 20
64.0
 30
0.0
 40
10.0
  0
CIRCLE
  5
12E
  8
LAYER1$C$L1
 62
     3
 10
-40.0
 20
64.0
 30
0.0
 40
20.0
  0
ARC
  5
12F
  8
LAYER1$C$L1
 62
     3
 10
-26.20001220699999
 20
80.999984741199995
 30
0.0
 40
1.0
 50
0.000072627560058
 51
89.999982013899995
  0
ARC
  5
130
  8
LAYER1$C$L1
 62
     3
 10
-26.20001220699999
 20
47.0
 30
0.0
 40
1.0
 50
270.00012726910001
 51
0.000072627600094
  0
ARC
  5
131
  8
LAYER1$C$L1
 62
     3
 10
-53.800003051800012
 20
81.0
 30
0.0
 40
1.0
 50
89.999982013899995
 51
179.9999640277999
  0
TEXT
  5
13D
  8
LAYER8$C$L8
 62
     3
 10
-98.0
 20
232.58003234860001
 30
0.0
 40
2.5
  1

 72
     5
 11
-98.0
 21
232.58003234860001
 31
0.0
  0
TEXT
  5
140
  8
LAYER8$C$L8
 62
     3
 10
-98.0
 20
247.55001831049989
 30
0.0
 40
2.5
  1

 72
     5
 11
-98.0
 21
247.55001831049989
 31
0.0
  0
LINE
  5
172
  8
LAYER1$C$L1
 62
     3
 10
-72.605377197300001
 20
109.4999999999999
 30
0.0
 11
-74.500030517599996
 21
109.4999999999999
 31
0.0
  0
LINE
  5
173
  8
LAYER1$C$L1
 62
     3
 10
-72.605377197300001
 20
104.4999999999999
 30
0.0
 11
-74.500030517599996
 21
104.4999999999999
 31
0.0
  0
LINE
  5
174
  8
LAYER1$C$L1
 62
     3
 10
-74.500015258800005
 20
128.69993591310001
 30
0.0
 11
-72.60536193850001
 21
128.69993591310001
 31
0.0
  0
LINE
  5
175
  8
LAYER1$C$L1
 62
     3
 10
-72.605377197300001
 20
105.3000030518
 30
0.0
 11
-74.500030517599996
 21
105.3000030518
 31
0.0
  0
LINE
  5
176
  8
LAYER1$C$L1
 62
     3
 10
-72.605377197300001
 20
106.4000091553
 30
0.0
 11
-74.500030517599996
 21
106.4000091553
 31
0.0
  0
LINE
  5
177
  8
LAYER1$C$L1
 62
     3
 10
-72.605377197300001
 20
107.80001831049989
 30
0.0
 11
-74.500030517599996
 21
107.80001831049989
 31
0.0
  0
ARC
  5
178
  8
LAYER1$C$L1
 62
     3
 10
-53.800003051800012
 20
47.000015258799998
 30
0.0
 40
1.0
 50
179.9999640277999
 51
269.9999460416999
  0
ARC
  5
179
  8
LAYER1$C$L1
 62
     3
 10
-72.605346679700006
 20
81.9999542236
 30
0.0
 40
2.0
 50
13.342009562399999
 51
90.000255221499984
  0
ARC
  5
17A
  8
LAYER4$C$L4
  6
PHANTOM
 62
     3
 10
-32.000015258799991
 20
81.900054931599996
 30
0.0
 40
1.0
 50
5.7360065253999979
 51
89.999982013899995
  0
DIMENSION
  5
17B
  8
DIMENSIONS
  2
*D22
 10
-10.0
 20
45.099990844699988
 30
0.0
 11
-10.0
 21
63.999992370599983
 31
0.0
 70
     0
 13
-32.0
 23
82.899993896499993
 33
0.0
 14
-28.0
 24
45.099990844700002
 34
0.0
 50
270.0
1001
ACAD
1000
DSTYLE
1002
{
1070
    41
1040
1.9727878464999999
1070
    42
1040
2.5399999618999991
1070
    44
1040
3.8099999427999989
1070
    73
1070
     0
1070
   140
1040
3.1999998092999991
1070
   271
1070
     1
1070
   272
1070
     1
1002
}
  0
DIMENSION
  5
187
  8
DIMENSIONS
  2
*D23
 10
-15.0
 20
82.499999999999986
 30
0.0
 11
-15.000000000000011
 21
63.999999999999979
 31
0.0
 70
     1
 13
-34.700012207
 23
45.499999999999993
 33
0.0
 14
-34.700012207
 24
82.5
 34
0.0
1001
ACAD
1000
DSTYLE
1002
{
1070
    41
1040
1.9727878464999999
1070
    42
1040
2.5399999618999991
1070
    44
1040
3.8099999427999989
1070
    73
1070
     0
1070
   140
1040
3.1999998092999991
1070
   271
1070
     1
1070
   272
1070
     1
1002
}
  0
ARC
  5
193
  8
LAYER4$C$L4
  6
PHANTOM
 62
     3
 10
-48.0
 20
46.100051879900001
 30
0.0
 40
1.0
 50
185.74220332819991
 51
270.00001798609998
  0
ARC
  5
194
  8
LAYER4$C$L4
  6
PHANTOM
 62
     3
 10
-28.0
 20
46.100097656300001
 30
0.0
 40
1.0
 50
270.00007262759988
 51
354.25520643629989
  0
LINE
  5
195
  8
LAYER1$C$L1
 62
     3
 10
-25.20001220699999
 20
50.5478515625
 30
0.0
 11
-25.20001220699999
 21
47.0
 31
0.0
  0
LINE
  5
196
  8
LAYER2$C$L2
  6
DASHED
 62
     3
 10
-35.800003051799997
 20
82.5
 30
0.0
 11
-35.800003051799997
 21
80.5
 31
0.0
  0
LINE
  5
197
  8
LAYER2$C$L2
  6
DASHED
 62
     3
 10
-48.717803955100003
 20
82.0
 30
0.0
 11
-45.300003051799997
 21
82.0
 31
0.0
  0
LINE
  5
198
  8
LAYER1$C$L1
 62
     3
 10
-31.282211303699999
 20
82.0
 30
0.0
 11
-26.20001220699999
 21
82.0
 31
0.0
  0
LINE
  5
199
  8
LAYER2$C$L2
  6
DASHED
 62
     3
 10
-48.717803955100003
 20
46.0
 30
0.0
 11
-45.300003051799997
 21
46.0
 31
0.0
  0
LINE
  5
19A
  8
LAYER1$C$L1
 62
     3
 10
-31.282211303699999
 20
46.0
 30
0.0
 11
-26.20001220699999
 21
46.0
 31
0.0
  0
LINE
  5
19B
  8
LAYER2$C$L2
  6
DASHED
 62
     3
 10
-25.20001220699999
 20
77.452133178699995
 30
0.0
 11
-25.20001220699999
 21
50.5478515625
 31
0.0
  0
LINE
  5
19C
  8
LAYER2$C$L2
  6
DASHED
 62
     3
 10
-35.800003051799997
 20
47.5
 30
0.0
 11
-35.800003051799997
 21
45.499999999999993
 31
0.0
  0
LINE
  5
19D
  8
LAYER1$C$L1
 62
     3
 10
-54.800003051799997
 20
77.452133178699995
 30
0.0
 11
-54.800003051799997
 21
81.0
 31
0.0
  0
LINE
  5
19E
  8
LAYER2$C$L2
  6
DASHED
 62
     3
 10
-54.800003051799997
 20
50.5478515625
 30
0.0
 11
-54.800003051799997
 21
77.452133178699995
 31
0.0
  0
LINE
  5
19F
  8
LAYER2$C$L2
  6
DASHED
 62
     3
 10
-40.000015258799998
 20
80.5
 30
0.0
 11
-35.800003051799997
 21
80.5
 31
0.0
  0
LINE
  5
1A0
  8
LAYER2$C$L2
  6
DASHED
 62
     3
 10
-40.000015258799998
 20
47.5
 30
0.0
 11
-35.800003051799997
 21
47.5
 31
0.0
  0
LINE
  5
1A1
  8
LAYER2$C$L2
  6
DASHED
 62
     3
 10
-34.700012207
 20
45.499999999999993
 30
0.0
 11
-45.300003051799997
 21
45.499999999999993
 31
0.0
  0
LINE
  5
1A2
  8
LAYER2$C$L2
  6
DASHED
 62
     3
 10
-38.900009155299998
 20
82.5
 30
0.0
 11
-38.900009155299998
 21
80.5
 31
0.0
  0
LINE
  5
1A3
  8
LAYER2$C$L2
  6
DASHED
 62
     3
 10
-38.900009155299998
 20
47.5
 30
0.0
 11
-38.900009155299998
 21
45.499999999999993
 31
0.0
  0
LINE
  5
1A4
  8
LAYER2$C$L2
  6
DASHED
 62
     3
 10
-45.300003051799997
 20
82.5
 30
0.0
 11
-34.700012207
 21
82.5
 31
0.0
  0
ARC
  5
1A5
  8
LAYER4$C$L4
  6
PHANTOM
 62
     3
 10
-52.0
 20
81.900009155299983
 30
0.0
 40
1.0
 50
90.00003665540001
 51
174.26134837020001
  0
ARC
  5
1A6
  8
LAYER1$C$L1
 62
     3
 10
-148.5
 20
63.999984741200002
 30
0.0
 40
80.0
 50
346.65765917339991
 51
13.34234082660001
  0
ARC
  5
1A7
  8
LAYER4$C$L4
  6
PHANTOM
 62
     3
 10
-162.5000457763999
 20
129.49995422360001
 30
0.0
 40
0.5
 50
0.00176651437
 51
89.999927372399995
  0
ARC
  5
1A8
  8
LAYER4$C$L4
  6
PHANTOM
 62
     3
 10
-162.30006408689991
 20
122.2999114989999
 30
0.0
 40
0.2999999522999999
 50
270.00007262759988
 51
359.99990870309989
  0
ARC
  5
1A9
  8
LAYER4$C$L4
  6
PHANTOM
 62
     3
 10
-179.50007629389989
 20
111.99993896479999
 30
0.0
 40
1.0
 50
179.9999640277999
 51
269.9998914002
  0
ARC
  5
1AA
  8
LAYER4$C$L4
  6
PHANTOM
 62
     3
 10
-179.5000305175999
 20
131.9999084472999
 30
0.0
 40
1.0
 50
89.999982013899995
 51
179.9998001033
  0
ARC
  5
1AB
  8
LAYER4$C$L4
  6
PHANTOM
 62
     3
 10
-179.5000305175999
 20
135.9999084472999
 30
0.0
 40
1.0
 50
89.999982013899995
 51
179.9998001033
  0
LINE
  5
1AC
  8
LAYER4$C$L4
  6
PHANTOM
 62
     3
 10
-162.00006963789991
 20
122.2999125704999
 30
0.0
 11
-162.0000512796999
 21
129.49995529509991
 31
0.0
  0
LINE
  5
1AD
  8
LAYER4$C$L4
  6
PHANTOM
 62
     3
 10
-177.49998474119991
 20
119.0
 30
0.0
 11
-177.49998474119991
 21
110.9999847412
 31
0.0
  0
LINE
  5
1AE
  8
LAYER4$C$L4
  6
PHANTOM
 62
     3
 10
-164.4999847412
 20
121.9999847412
 30
0.0
 11
-164.4999847412
 21
120.0999908446999
 31
0.0
  0
LINE
  5
1AF
  8
LAYER4$C$L4
  6
PHANTOM
 62
     3
 10
-168.09980773929999
 20
127.8998870849999
 30
0.0
 11
-168.09980773929999
 21
123.8999176025
 31
0.0
  0
LINE
  5
1B0
  8
LAYER4$C$L4
  6
PHANTOM
 62
     3
 10
-164.4999847412
 20
127.8998870849999
 30
0.0
 11
-164.4999847412
 21
123.8999176025
 31
0.0
  0
LINE
  5
1B1
  8
LAYER4$C$L4
  6
PHANTOM
 62
     3
 10
-180.49998474119991
 20
123.8999176025
 30
0.0
 11
-164.4999847412
 21
123.8999176025
 31
0.0
  0
LINE
  5
1B2
  8
LAYER4$C$L4
  6
PHANTOM
 62
     3
 10
-180.49998474119991
 20
127.8998870849999
 30
0.0
 11
-164.4999847412
 21
127.8998870849999
 31
0.0
  0
DIMENSION
  5
1B3
  8
DIMENSIONS
  2
*D24
 10
-91.0
 20
92.999984741199995
 30
0.0
 11
-135.7499923705999
 21
92.999984741199995
 31
0.0
 70
     0
 13
-180.49998474119991
 23
111.9999847412
 33
0.0
 14
-91.0
 24
110.4999999999999
 34
0.0
1001
ACAD
1000
DSTYLE
1002
{
1070
    41
1040
1.9727878464999999
1070
    42
1040
2.5399999618999991
1070
    44
1040
3.8099999427999989
1070
    73
1070
     0
1070
   140
1040
3.1999998092999991
1070
   271
1070
     1
1070
   272
1070
     1
1002
}
  0
LINE
  5
1BF
  8
LAYER4$C$L4
  6
PHANTOM
 62
     3
 10
-175.17379033009991
 20
117.32616412829989
 30
0.0
 11
-177.4999726403
 21
114.9999818181
 31
0.0
  0
LINE
  5
1C0
  8
LAYER4$C$L4
  6
PHANTOM
 62
     3
 10
-177.4999834299
 20
118.99997527479989
 30
0.0
 11
-174.5000018243
 21
121.99995688040001
 31
0.0
  0
LINE
  5
1C1
  8
LAYER4$C$L4
  6
PHANTOM
 62
     3
 10
-174.5
 20
121.9999847412
 30
0.0
 11
-162.29997253420001
 21
121.9999847412
 31
0.0
  0
LINE
  5
1C2
  8
LAYER4$C$L4
  6
PHANTOM
 62
     3
 10
-174.5
 20
129.99996948239999
 30
0.0
 11
-162.49996948239991
 21
129.99996948239999
 31
0.0
  0
LINE
  5
1C3
  8
LAYER4$C$L4
  6
PHANTOM
 62
     3
 10
-177.49994027150001
 20
132.99990382039999
 30
0.0
 11
-174.49995866590001
 21
129.99992221479991
 31
0.0
  0
LINE
  5
1C4
  8
LAYER4$C$L4
  6
PHANTOM
 62
     3
 10
-177.49998474119991
 20
136.99996948239991
 30
0.0
 11
-177.49998474119991
 21
132.99993896480001
 31
0.0
  0
DIMENSION
  5
1C5
  8
DIMENSIONS
  2
*D25
 10
-25.20001220699999
 20
93.499999999999986
 30
0.0
 11
-40.000007629400002
 21
93.499999999999986
 31
0.0
 70
     1
 13
-54.800003051799997
 23
81.0
 33
0.0
 14
-25.20001220699999
 24
81.0
 34
0.0
1001
ACAD
1000
DSTYLE
1002
{
1070
    41
1040
1.9727878464999999
1070
    42
1040
2.5399999618999991
1070
    44
1040
3.8099999427999989
1070
    73
1070
     0
1070
   140
1040
3.1999998092999991
1070
   271
1070
     1
1070
   272
1070
     1
1002
}
  0
LINE
  5
1D1
  8
LAYER3$C$L3
  6
CENTERLINE
 62
     3
 10
-40.0
 20
85.5
 30
0.0
 11
-40.0
 21
42.5
 31
0.0
  0
LINE
  5
1D3
  8
LAYER3$C$L3
  6
CENTERLINE
 62
     3
 10
-61.5
 20
64.0
 30
0.0
 11
-18.5
 21
64.0
 31
0.0
  0
LINE
  5
1D4
  8
LAYER2$C$L2
  6
DASHED
 62
     3
 10
-34.700012207
 20
82.0
 30
0.0
 11
-34.700012207
 21
82.5
 31
0.0
  0
LINE
  5
1D5
  8
LAYER2$C$L2
  6
DASHED
 62
     3
 10
-44.200012207
 20
80.5
 30
0.0
 11
-44.200012207
 21
82.5
 31
0.0
  0
LINE
  5
1D6
  8
LAYER2$C$L2
  6
DASHED
 62
     3
 10
-44.200012207
 20
80.5
 30
0.0
 11
-40.000015258799998
 21
80.5
 31
0.0
  0
LINE
  5
1D7
  8
LAYER4$C$L4
  6
PHANTOM
 62
     3
 10
-168.09983825680001
 20
46.0
 30
0.0
 11
-162.0000457763999
 21
46.0
 31
0.0
  0
LINE
  5
1D8
  8
LAYER4$C$L4
  6
PHANTOM
 62
     3
 10
-179.5000152588
 20
62.0
 30
0.0
 11
-177.5000305175999
 21
62.0
 31
0.0
  0
LINE
  5
1D9
  8
LAYER4$C$L4
  6
PHANTOM
 62
     3
 10
-168.0998535155999
 20
82.000015258800005
 30
0.0
 11
-162.0000457763999
 21
82.000015258800005
 31
0.0
  0
LINE
  5
1DA
  8
LAYER4$C$L4
  6
PHANTOM
 62
     3
 10
-180.49998474119991
 20
46.100006103500007
 30
0.0
 11
-180.49998474119991
 21
81.899963378899983
 31
0.0
  0
LINE
  5
1DC
  8
LAYER1$C$L1
 62
     3
 10
-74.500015258800005
 20
138.49993896480001
 30
0.0
 11
-72.60536193850001
 21
138.49993896480001
 31
0.0
  0
LINE
  5
1DD
  8
LAYER2$C$L2
  6
DASHED
 62
     3
 10
-34.700012207
 20
46.0
 30
0.0
 11
-34.700012207
 21
45.499999999999993
 31
0.0
  0
LINE
  5
1DE
  8
LAYER4$C$L4
  6
PHANTOM
 62
     3
 10
-162.0000152588
 20
45.100036621099989
 30
0.0
 11
-162.0000152588
 21
46.000030517600003
 31
0.0
  0
ARC
  5
1DF
  8
LAYER1$C$L1
 62
     3
 10
-173.5466003418
 20
131.99978637699999
 30
0.0
 40
1.0
 50
89.999763447900008
 51
146.4620413161
  0
LINE
  5
1E0
  8
LAYER1$C$L1
 62
     3
 10
-131.10000610349991
 20
122.9000091553
 30
0.0
 11
-131.10000610349991
 21
125.09996032710001
 31
0.0
  0
LINE
  5
1E1
  8
LAYER1$C$L1
 62
     3
 10
-139.50003051760001
 20
119.7998352051
 30
0.0
 11
-139.50003051760001
 21
109.19998168950001
 31
0.0
  0
ARC
  5
1E2
  8
LAYER1$C$L1
 62
     3
 10
-171.00001525879989
 20
124.6998138428
 30
0.0
 40
0.3000000119
 50
89.999982013899995
 51
179.9999640277999
  0
ARC
  5
1E3
  8
LAYER1$C$L1
 62
     3
 10
-171.00001525879989
 20
112.8000335692999
 30
0.0
 40
0.3000000119
 50
179.9999640277999
 51
270.00000068319991
  0
ARC
  5
1E4
  8
LAYER1$C$L1
 62
     3
 10
-173.5466003418
 20
126.99978637700001
 30
0.0
 40
1.0
 50
213.5379586839
 51
270.00023655209992
  0
LINE
  5
1E5
  8
LAYER2$C$L2
  6
DASHED
 62
     3
 10
-45.300003051799997
 20
82.5
 30
0.0
 11
-45.300003051799997
 21
82.0
 31
0.0
  0
LINE
  5
1E6
  8
LAYER2$C$L2
  6
DASHED
 62
     3
 10
-41.1000061035
 20
45.499999999999993
 30
0.0
 11
-41.1000061035
 21
47.5
 31
0.0
  0
POLYLINE
  5
1E8
  8
LAYER1$C$L1
 62
     3
 66
     1
 10
0.0
 20
0.0
 30
0.0
  0
VERTEX
  5
713
  8
LAYER1$C$L1
 62
     3
 10
-135.32037387279999
 20
134.86394082429999
 30
0.0
  0
VERTEX
  5
714
  8
LAYER1$C$L1
 62
     3
 10
-135.3983306840999
 20
134.45777612929999
 30
0.0
  0
VERTEX
  5
715
  8
LAYER1$C$L1
 62
     3
 10
-135.45477333959991
 20
134.02994235770001
 30
0.0
  0
VERTEX
  5
716
  8
LAYER1$C$L1
 62
     3
 10
-135.48876672040001
 20
133.5875276843
 30
0.0
  0
VERTEX
  5
717
  8
LAYER1$C$L1
 62
     3
 10
-135.4997476380999
 20
133.13786185480001
 30
0.0
  0
VERTEX
  5
718
  8
LAYER1$C$L1
 62
     3
 10
-135.48753416529999
 20
132.68839474879991
 30
0.0
  0
VERTEX
  5
719
  8
LAYER1$C$L1
 62
     3
 10
-135.45232864979991
 20
132.24657295349991
 30
0.0
  0
VERTEX
  5
71A
  8
LAYER1$C$L1
 62
     3
 10
-135.39471436229991
 20
131.819716392
 30
0.0
  0
VERTEX
  5
71B
  8
LAYER1$C$L1
 62
     3
 10
-135.31564583269989
 20
131.41489704930001
 30
0.0
  0
VERTEX
  5
71C
  8
LAYER1$C$L1
 62
     3
 10
-135.2164330361
 20
131.03882180679989
 30
0.0
  0
VERTEX
  5
71D
  8
LAYER1$C$L1
 62
     3
 10
-135.0987196895
 20
130.69772132540001
 30
0.0
  0
VERTEX
  5
71E
  8
LAYER1$C$L1
 62
     3
 10
-134.96445601959991
 20
130.39724681850001
 30
0.0
  0
VERTEX
  5
71F
  8
LAYER1$C$L1
 62
     3
 10
-134.81586645199991
 20
130.14237642479989
 30
0.0
  0
VERTEX
  5
720
  8
LAYER1$C$L1
 62
     3
 10
-134.6554127579
 20
129.93733273300001
 30
0.0
  0
VERTEX
  5
721
  8
LAYER1$C$L1
 62
     3
 10
-134.48575326860001
 20
129.785512823
 30
0.0
  0
VERTEX
  5
722
  8
LAYER1$C$L1
 62
     3
 10
-134.30969883299991
 20
129.68943198519989
 30
0.0
  0
VERTEX
  5
723
  8
LAYER1$C$L1
 62
     3
 10
-134.13016624919999
 20
129.6506820475
 30
0.0
  0
VERTEX
  5
724
  8
LAYER1$C$L1
 62
     3
 10
-133.9501299396
 20
129.6699050030999
 30
0.0
  0
VERTEX
  5
725
  8
LAYER1$C$L1
 62
     3
 10
-133.77257267219991
 20
129.7467823739
 30
0.0
  0
VERTEX
  5
726
  8
LAYER1$C$L1
 62
     3
 10
-133.6004361432
 20
129.88004048709999
 30
0.0
  0
VERTEX
  5
727
  8
LAYER1$C$L1
 62
     3
 10
-133.43657224029991
 20
130.0674715767
 30
0.0
  0
VERTEX
  5
728
  8
LAYER1$C$L1
 62
     3
 10
-133.28369579379989
 20
130.30597036099999
 30
0.0
  0
SEQEND
  5
729
  8
LAYER1$C$L1
 62
     3
  0
POLYLINE
  5
200
  8
LAYER1$C$L1
 62
     3
 66
     1
 10
0.0
 20
0.0
 30
0.0
  0
VERTEX
  5
72A
  8
LAYER1$C$L1
 62
     3
 10
-133.22040231089991
 20
135.8732733782
 30
0.0
  0
VERTEX
  5
72B
  8
LAYER1$C$L1
 62
     3
 10
-133.35898381199999
 20
136.11975023799999
 30
0.0
  0
VERTEX
  5
72C
  8
LAYER1$C$L1
 62
     3
 10
-133.5084975108
 20
136.32239823329991
 30
0.0
  0
VERTEX
  5
72D
  8
LAYER1$C$L1
 62
     3
 10
-133.66673692599991
 20
136.47822674139991
 30
0.0
  0
VERTEX
  5
72E
  8
LAYER1$C$L1
 62
     3
 10
-133.8313668040999
 20
136.58493608849989
 30
0.0
  0
VERTEX
  5
72F
  8
LAYER1$C$L1
 62
     3
 10
-133.9999575832999
 20
136.64095148780001
 30
0.0
  0
VERTEX
  5
730
  8
LAYER1$C$L1
 62
     3
 10
-134.17002124780001
 20
136.64544627959989
 30
0.0
  0
VERTEX
  5
731
  8
LAYER1$C$L1
 62
     3
 10
-134.33904804540001
 20
136.59835413109991
 30
0.0
  0
VERTEX
  5
732
  8
LAYER1$C$L1
 62
     3
 10
-134.5045435255
 20
136.5003700149
 30
0.0
  0
VERTEX
  5
733
  8
LAYER1$C$L1
 62
     3
 10
-134.66406535190001
 20
136.35293995360001
 30
0.0
  0
VERTEX
  5
734
  8
LAYER1$C$L1
 62
     3
 10
-134.8152593458999
 20
136.1582396787999
 30
0.0
  0
VERTEX
  5
735
  8
LAYER1$C$L1
 62
     3
 10
-134.95589422859999
 20
135.91914252309999
 30
0.0
  0
VERTEX
  5
736
  8
LAYER1$C$L1
 62
     3
 10
-135.0838945495
 20
135.6391770157
 30
0.0
  0
SEQEND
  5
737
  8
LAYER1$C$L1
 62
     3
  0
POLYLINE
  5
20F
  8
LAYER1$C$L1
 62
     3
 66
     1
 10
0.0
 20
0.0
 30
0.0
  0
VERTEX
  5
738
  8
LAYER1$C$L1
 62
     3
 10
-132.54974365230001
 20
111.350112915
 30
0.0
  0
VERTEX
  5
739
  8
LAYER1$C$L1
 62
     3
 10
-132.36906626269999
 20
111.37938098630001
 30
0.0
  0
VERTEX
  5
73A
  8
LAYER1$C$L1
 62
     3
 10
-132.19141063229989
 20
111.4666957029
 30
0.0
  0
VERTEX
  5
73B
  8
LAYER1$C$L1
 62
     3
 10
-132.0197479828
 20
111.6105967602
 30
0.0
  0
VERTEX
  5
73C
  8
LAYER1$C$L1
 62
     3
 10
-131.85694930519989
 20
111.8086774687
 30
0.0
  0
VERTEX
  5
73D
  8
LAYER1$C$L1
 62
     3
 10
-131.70573734440001
 20
112.0576250054
 30
0.0
  0
VERTEX
  5
73E
  8
LAYER1$C$L1
 62
     3
 10
-131.56864106169991
 20
112.35327581929999
 30
0.0
  0
VERTEX
  5
73F
  8
LAYER1$C$L1
 62
     3
 10
-131.44795333929989
 20
112.6906852652
 30
0.0
  0
VERTEX
  5
740
  8
LAYER1$C$L1
 62
     3
 10
-131.34569263259991
 20
113.0642103011
 30
0.0
  0
VERTEX
  5
741
  8
LAYER1$C$L1
 62
     3
 10
-131.26356921219991
 20
113.4676038654999
 30
0.0
  0
VERTEX
  5
742
  8
LAYER1$C$L1
 62
     3
 10
-131.2029565604999
 20
113.8941193575
 30
0.0
  0
VERTEX
  5
743
  8
LAYER1$C$L1
 62
     3
 10
-131.1648684004999
 20
114.336623471
 30
0.0
  0
VERTEX
  5
744
  8
LAYER1$C$L1
 62
     3
 10
-131.14994174200001
 20
114.7877154963
 30
0.0
  0
VERTEX
  5
745
  8
LAYER1$C$L1
 62
     3
 10
-131.1584262275
 20
115.23985109429999
 30
0.0
  0
VERTEX
  5
746
  8
LAYER1$C$L1
 62
     3
 10
-131.19017995740001
 20
115.6854684723
 30
0.0
  0
VERTEX
  5
747
  8
LAYER1$C$L1
 62
     3
 10
-131.24467186269999
 20
116.1171148526999
 30
0.0
  0
VERTEX
  5
748
  8
LAYER1$C$L1
 62
     3
 10
-131.32099058750001
 20
116.52757111699999
 30
0.0
  0
VERTEX
  5
749
  8
LAYER1$C$L1
 62
     3
 10
-131.41785973079999
 20
116.9099725434999
 30
0.0
  0
VERTEX
  5
74A
  8
LAYER1$C$L1
 62
     3
 10
-131.53365919359999
 20
117.2579236166999
 30
0.0
  0
VERTEX
  5
74B
  8
LAYER1$C$L1
 62
     3
 10
-131.66645227489991
 20
117.56560498969991
 30
0.0
  0
VERTEX
  5
74C
  8
LAYER1$C$L1
 62
     3
 10
-131.814018062
 20
117.8278708109999
 30
0.0
  0
VERTEX
  5
74D
  8
LAYER1$C$L1
 62
     3
 10
-131.9738885740999
 20
118.0403347865
 30
0.0
  0
VERTEX
  5
74E
  8
LAYER1$C$L1
 62
     3
 10
-132.14339003919989
 20
118.1994435384
 30
0.0
  0
VERTEX
  5
74F
  8
LAYER1$C$L1
 62
     3
 10
-132.3196876106999
 20
118.3025360347
 30
0.0
  0
VERTEX
  5
750
  8
LAYER1$C$L1
 62
     3
 10
-132.4998327804
 20
118.3478880933999
 30
0.0
  0
SEQEND
  5
751
  8
LAYER1$C$L1
 62
     3
  0
POLYLINE
  5
22A
  8
LAYER1$C$L1
 62
     3
 66
     1
 10
0.0
 20
0.0
 30
0.0
  0
VERTEX
  5
752
  8
LAYER1$C$L1
 62
     3
 10
-132.4998327804
 20
129.6520813889999
 30
0.0
  0
VERTEX
  5
753
  8
LAYER1$C$L1
 62
     3
 10
-132.3196876106999
 20
129.69743344770001
 30
0.0
  0
VERTEX
  5
754
  8
LAYER1$C$L1
 62
     3
 10
-132.14339003919989
 20
129.8005259439999
 30
0.0
  0
VERTEX
  5
755
  8
LAYER1$C$L1
 62
     3
 10
-131.9738885740999
 20
129.95963469599999
 30
0.0
  0
VERTEX
  5
756
  8
LAYER1$C$L1
 62
     3
 10
-131.814018062
 20
130.17209867139999
 30
0.0
  0
VERTEX
  5
757
  8
LAYER1$C$L1
 62
     3
 10
-131.66645227489991
 20
130.43436449270001
 30
0.0
  0
VERTEX
  5
758
  8
LAYER1$C$L1
 62
     3
 10
-131.53365919359999
 20
130.74204586569991
 30
0.0
  0
VERTEX
  5
759
  8
LAYER1$C$L1
 62
     3
 10
-131.41785973079999
 20
131.0899969388999
 30
0.0
  0
VERTEX
  5
75A
  8
LAYER1$C$L1
 62
     3
 10
-131.32099058750001
 20
131.47239836540001
 30
0.0
  0
VERTEX
  5
75B
  8
LAYER1$C$L1
 62
     3
 10
-131.24467186269999
 20
131.88285462979999
 30
0.0
  0
VERTEX
  5
75C
  8
LAYER1$C$L1
 62
     3
 10
-131.19017995740001
 20
132.3145010101
 30
0.0
  0
VERTEX
  5
75D
  8
LAYER1$C$L1
 62
     3
 10
-131.1584262275
 20
132.7601183882
 30
0.0
  0
VERTEX
  5
75E
  8
LAYER1$C$L1
 62
     3
 10
-131.14994174200001
 20
133.21225398609991
 30
0.0
  0
VERTEX
  5
75F
  8
LAYER1$C$L1
 62
     3
 10
-131.1648684004999
 20
133.66334601139991
 30
0.0
  0
VERTEX
  5
760
  8
LAYER1$C$L1
 62
     3
 10
-131.2029565604999
 20
134.10585012489989
 30
0.0
  0
VERTEX
  5
761
  8
LAYER1$C$L1
 62
     3
 10
-131.26356921219991
 20
134.53236561689999
 30
0.0
  0
VERTEX
  5
762
  8
LAYER1$C$L1
 62
     3
 10
-131.34569263259991
 20
134.9357591813
 30
0.0
  0
VERTEX
  5
763
  8
LAYER1$C$L1
 62
     3
 10
-131.44795333929989
 20
135.3092842172
 30
0.0
  0
VERTEX
  5
764
  8
LAYER1$C$L1
 62
     3
 10
-131.56864106169991
 20
135.6466936631
 30
0.0
  0
VERTEX
  5
765
  8
LAYER1$C$L1
 62
     3
 10
-131.70573734440001
 20
135.94234447709991
 30
0.0
  0
VERTEX
  5
766
  8
LAYER1$C$L1
 62
     3
 10
-131.85694930519989
 20
136.19129201379999
 30
0.0
  0
VERTEX
  5
767
  8
LAYER1$C$L1
 62
     3
 10
-132.0197479828
 20
136.38937272219991
 30
0.0
  0
VERTEX
  5
768
  8
LAYER1$C$L1
 62
     3
 10
-132.19141063229989
 20
136.53327377950001
 30
0.0
  0
VERTEX
  5
769
  8
LAYER1$C$L1
 62
     3
 10
-132.36906626269999
 20
136.62058849609991
 30
0.0
  0
VERTEX
  5
76A
  8
LAYER1$C$L1
 62
     3
 10
-132.54974365230001
 20
136.64985656740001
 30
0.0
  0
SEQEND
  5
76B
  8
LAYER1$C$L1
 62
     3
  0
POLYLINE
  5
245
  8
LAYER1$C$L1
 62
     3
 66
     1
 10
0.0
 20
0.0
 30
0.0
  0
VERTEX
  5
76C
  8
LAYER1$C$L1
 62
     3
 10
-133.28369579379989
 20
117.6939991215
 30
0.0
  0
VERTEX
  5
76D
  8
LAYER1$C$L1
 62
     3
 10
-133.43657224029991
 20
117.9324979056999
 30
0.0
  0
VERTEX
  5
76E
  8
LAYER1$C$L1
 62
     3
 10
-133.6004361432
 20
118.1199289952999
 30
0.0
  0
VERTEX
  5
76F
  8
LAYER1$C$L1
 62
     3
 10
-133.77257267219991
 20
118.2531871085
 30
0.0
  0
VERTEX
  5
770
  8
LAYER1$C$L1
 62
     3
 10
-133.9501299396
 20
118.33006447930001
 30
0.0
  0
VERTEX
  5
771
  8
LAYER1$C$L1
 62
     3
 10
-134.13016624919999
 20
118.34928743489991
 30
0.0
  0
VERTEX
  5
772
  8
LAYER1$C$L1
 62
     3
 10
-134.30969883299991
 20
118.3105374972999
 30
0.0
  0
VERTEX
  5
773
  8
LAYER1$C$L1
 62
     3
 10
-134.48575326860001
 20
118.2144566594
 30
0.0
  0
VERTEX
  5
774
  8
LAYER1$C$L1
 62
     3
 10
-134.6554127579
 20
118.0626367494999
 30
0.0
  0
VERTEX
  5
775
  8
LAYER1$C$L1
 62
     3
 10
-134.81586645199991
 20
117.8575930575999
 30
0.0
  0
VERTEX
  5
776
  8
LAYER1$C$L1
 62
     3
 10
-134.96445601959991
 20
117.602722664
 30
0.0
  0
VERTEX
  5
777
  8
LAYER1$C$L1
 62
     3
 10
-135.0987196895
 20
117.30224815699999
 30
0.0
  0
VERTEX
  5
778
  8
LAYER1$C$L1
 62
     3
 10
-135.2164330361
 20
116.9611476755999
 30
0.0
  0
VERTEX
  5
779
  8
LAYER1$C$L1
 62
     3
 10
-135.31564583269989
 20
116.5850724330999
 30
0.0
  0
VERTEX
  5
77A
  8
LAYER1$C$L1
 62
     3
 10
-135.39471436229991
 20
116.1802530904
 30
0.0
  0
VERTEX
  5
77B
  8
LAYER1$C$L1
 62
     3
 10
-135.45232864979991
 20
115.7533965288999
 30
0.0
  0
VERTEX
  5
77C
  8
LAYER1$C$L1
 62
     3
 10
-135.48753416529999
 20
115.3115747337
 30
0.0
  0
VERTEX
  5
77D
  8
LAYER1$C$L1
 62
     3
 10
-135.4997476380999
 20
114.8621076276
 30
0.0
  0
VERTEX
  5
77E
  8
LAYER1$C$L1
 62
     3
 10
-135.48876672040001
 20
114.41244179809991
 30
0.0
  0
VERTEX
  5
77F
  8
LAYER1$C$L1
 62
     3
 10
-135.45477333959991
 20
113.9700271247999
 30
0.0
  0
VERTEX
  5
780
  8
LAYER1$C$L1
 62
     3
 10
-135.3983306840999
 20
113.5421933530999
 30
0.0
  0
VERTEX
  5
781
  8
LAYER1$C$L1
 62
     3
 10
-135.32037387279999
 20
113.1360286580999
 30
0.0
  0
SEQEND
  5
782
  8
LAYER1$C$L1
 62
     3
  0
POLYLINE
  5
25D
  8
LAYER1$C$L1
 62
     3
 66
     1
 10
0.0
 20
0.0
 30
0.0
  0
VERTEX
  5
783
  8
LAYER1$C$L1
 62
     3
 10
-135.0838945495
 20
112.3607924667
 30
0.0
  0
VERTEX
  5
784
  8
LAYER1$C$L1
 62
     3
 10
-134.95589422859999
 20
112.0808269594
 30
0.0
  0
VERTEX
  5
785
  8
LAYER1$C$L1
 62
     3
 10
-134.8152593458999
 20
111.8417298036
 30
0.0
  0
VERTEX
  5
786
  8
LAYER1$C$L1
 62
     3
 10
-134.66406535190001
 20
111.64702952889991
 30
0.0
  0
VERTEX
  5
787
  8
LAYER1$C$L1
 62
     3
 10
-134.5045435255
 20
111.4995994675
 30
0.0
  0
VERTEX
  5
788
  8
LAYER1$C$L1
 62
     3
 10
-134.33904804540001
 20
111.4016153512999
 30
0.0
  0
VERTEX
  5
789
  8
LAYER1$C$L1
 62
     3
 10
-134.17002124780001
 20
111.3545232028
 30
0.0
  0
VERTEX
  5
78A
  8
LAYER1$C$L1
 62
     3
 10
-133.9999575832999
 20
111.3590179945999
 30
0.0
  0
VERTEX
  5
78B
  8
LAYER1$C$L1
 62
     3
 10
-133.8313668040999
 20
111.4150333938999
 30
0.0
  0
VERTEX
  5
78C
  8
LAYER1$C$L1
 62
     3
 10
-133.66673692599991
 20
111.5217427409999
 30
0.0
  0
VERTEX
  5
78D
  8
LAYER1$C$L1
 62
     3
 10
-133.5084975108
 20
111.6775712491999
 30
0.0
  0
VERTEX
  5
78E
  8
LAYER1$C$L1
 62
     3
 10
-133.35898381199999
 20
111.8802192445
 30
0.0
  0
VERTEX
  5
78F
  8
LAYER1$C$L1
 62
     3
 10
-133.22040231089991
 20
112.12669610419999
 30
0.0
  0
SEQEND
  5
790
  8
LAYER1$C$L1
 62
     3
  0
ARC
  5
26C
  8
LAYER1$C$L1
 62
     3
 10
-175.19993591310001
 20
112.7998352050999
 30
0.0
 40
0.2999999522999999
 50
180.00003597220001
 51
270.00001798609998
  0
LINE
  5
26D
  8
LAYER1$C$L1
 62
     3
 10
-139.50003051760001
 20
125.0997924804999
 30
0.0
 11
-139.50003051760001
 21
122.89981079099999
 31
0.0
  0
LINE
  5
26E
  8
LAYER1$C$L1
 62
     3
 10
-171.2998252379999
 20
127.3837790636
 30
0.0
 11
-171.79983757619991
 21
128.2497973589
 31
0.0
  0
LINE
  5
26F
  8
LAYER1$C$L1
 62
     3
 10
-171.30002636200001
 20
131.61592317809999
 30
0.0
 11
-171.80002302380001
 21
130.7499310730999
 31
0.0
  0
LINE
  5
270
  8
LAYER1$C$L1
 62
     3
 10
-171.80003356930001
 20
128.24981689449999
 30
0.0
 11
-171.80003356930001
 21
130.74981689449999
 31
0.0
  0
LINE
  5
271
  8
LAYER1$C$L1
 62
     3
 10
-172.42257555610001
 20
133.4998728724
 30
0.0
 11
-172.9999396229
 21
132.4998712565
 31
0.0
  0
LINE
  5
272
  8
LAYER1$C$L1
 62
     3
 10
-172.42248122619989
 20
125.4999891313999
 30
0.0
 11
-172.9997847386
 21
126.4998847565999
 31
0.0
  0
LINE
  5
273
  8
LAYER1$C$L1
 62
     3
 10
-173.0000305175999
 20
132.99981689449999
 30
0.0
 11
-173.54669189449999
 21
132.99981689449999
 31
0.0
  0
LINE
  5
274
  8
LAYER1$C$L1
 62
     3
 10
-173.0000305175999
 20
125.9998168945
 30
0.0
 11
-173.54669189449999
 21
125.9998168945
 31
0.0
  0
LINE
  5
275
  8
LAYER1$C$L1
 62
     3
 10
-172.42265319820001
 20
125.4998168945
 30
0.0
 11
-171.30003356930001
 21
125.4998168945
 31
0.0
  0
LINE
  5
276
  8
LAYER1$C$L1
 62
     3
 10
-171.30003356930001
 20
133.49981689449999
 30
0.0
 11
-172.42265319820001
 21
133.49981689449999
 31
0.0
  0
LINE
  5
277
  8
LAYER2$C$L2
  6
DASHED
 62
     3
 10
-41.1000061035
 20
80.5
 30
0.0
 11
-41.1000061035
 21
82.5
 31
0.0
  0
LINE
  5
278
  8
LAYER4$C$L4
  6
PHANTOM
 62
     3
 10
-174.5
 20
45.100036621099989
 30
0.0
 11
-174.5
 21
47.000030517600003
 31
0.0
  0
LINE
  5
279
  8
LAYER4$C$L4
  6
PHANTOM
 62
     3
 10
-179.5000152588
 20
45.1000061035
 30
0.0
 11
-162.0000457763999
 21
45.1000061035
 31
0.0
  0
LINE
  5
27A
  8
LAYER4$C$L4
  6
PHANTOM
 62
     3
 10
-168.89994812009991
 20
63.999984741200002
 30
0.0
 11
-177.5
 21
63.999984741200002
 31
0.0
  0
DIMENSION
  5
27B
  8
DIMENSIONS
  2
*D26
 10
-62.5
 20
143.9999542235999
 30
0.0
 11
-62.500000000000021
 21
123.99996948239991
 31
0.0
 70
     1
  1
%%c<>
 13
-72.60536193850001
 23
103.9999847412
 33
0.0
 14
-72.60536193850001
 24
143.99995422360001
 34
0.0
1001
ACAD
1000
DSTYLE
1002
{
1070
    41
1040
1.9727878464999999
1070
    42
1040
2.5399999618999991
1070
    44
1040
3.8099999427999989
1070
    73
1070
     0
1070
   140
1040
3.1999998092999991
1070
   271
1070
     1
1070
   272
1070
     1
1002
}
  0
LINE
  5
287
  8
LAYER4$C$L4
  6
PHANTOM
 62
     3
 10
-179.5000152588
 20
82.899993896499993
 30
0.0
 11
-162.0000457763999
 21
82.899993896499993
 31
0.0
  0
LINE
  5
288
  8
LAYER1$C$L1
 62
     3
 10
-74.500015258800005
 20
136.49993896480001
 30
0.0
 11
-72.60536193850001
 21
136.49993896480001
 31
0.0
  0
LINE
  5
289
  8
LAYER1$C$L1
 62
     3
 10
-173.0000305175999
 20
132.99981689449999
 30
0.0
 11
-173.0000305175999
 21
125.9998168945
 31
0.0
  0
LINE
  5
28A
  8
LAYER1$C$L1
 62
     3
 10
-175.5
 20
112.8000793456999
 30
0.0
 11
-175.5
 21
113.69998168950001
 31
0.0
  0
LINE
  5
28B
  8
LAYER1$C$L1
 62
     3
 10
-171.30000305179991
 20
114.0000305175999
 30
0.0
 11
-175.19999694820001
 21
114.0000305175999
 31
0.0
  0
LINE
  5
28C
  8
LAYER1$C$L1
 62
     3
 10
-171.0
 20
112.5000305176
 30
0.0
 11
-175.19999694820001
 21
112.5000305176
 31
0.0
  0
LINE
  5
28D
  8
LAYER1$C$L1
 62
     3
 10
-171.30000305179991
 20
133.99981689449999
 30
0.0
 11
-173.5
 21
133.99981689449999
 31
0.0
  0
LINE
  5
28E
  8
LAYER1$C$L1
 62
     3
 10
-173.5
 20
135.49981689449999
 30
0.0
 11
-171.0
 21
135.49981689449999
 31
0.0
  0
LINE
  5
28F
  8
LAYER1$C$L1
 62
     3
 10
-173.80000305179991
 20
135.1998291015999
 30
0.0
 11
-173.80000305179991
 21
134.29983520510001
 31
0.0
  0
LINE
  5
290
  8
LAYER1$C$L1
 62
     3
 10
-171.0
 20
135.49981689449999
 30
0.0
 11
-168.30000305179991
 21
135.49981689449999
 31
0.0
  0
LINE
  5
291
  8
LAYER1$C$L1
 62
     3
 10
-168.30001831049989
 20
133.99981689449999
 30
0.0
 11
-160.50003051760001
 21
133.99981689449999
 31
0.0
  0
LINE
  5
292
  8
LAYER1$C$L1
 62
     3
 10
-164.50003051760001
 20
127.9998168945
 30
0.0
 11
-164.50003051760001
 21
123.9998168945
 31
0.0
  0
LINE
  5
293
  8
LAYER1$C$L1
 62
     3
 10
-168.30001831049989
 20
127.9998168945
 30
0.0
 11
-164.50003051760001
 21
127.9998168945
 31
0.0
  0
LINE
  5
294
  8
LAYER1$C$L1
 62
     3
 10
-166.50003051760001
 20
123.9998168945
 30
0.0
 11
-166.50003051760001
 21
127.9998168945
 31
0.0
  0
LINE
  5
295
  8
LAYER1$C$L1
 62
     3
 10
-171.30001831049989
 20
133.99981689449999
 30
0.0
 11
-171.30001831049989
 21
124.9998168945
 31
0.0
  0
LINE
  5
296
  8
LAYER1$C$L1
 62
     3
 10
-171.00001525879989
 20
135.49981689449999
 30
0.0
 11
-168.30001831049989
 21
135.49981689449999
 31
0.0
  0
LINE
  5
297
  8
LAYER1$C$L1
 62
     3
 10
-177.5000152588
 20
124.6998291016
 30
0.0
 11
-177.5000152588
 21
123.9998168945
 31
0.0
  0
LINE
  5
298
  8
LAYER1$C$L1
 62
     3
 10
-168.30001831049989
 20
124.9998168945
 30
0.0
 11
-177.1999511718999
 21
124.9998168945
 31
0.0
  0
LINE
  5
299
  8
LAYER1$C$L1
 62
     3
 10
-173.00001525879989
 20
121.9998474120999
 30
0.0
 11
-173.00001525879989
 21
115.0000305175999
 31
0.0
  0
LINE
  5
29A
  8
LAYER1$C$L1
 62
     3
 10
-172.42263793949999
 20
114.5000305176
 30
0.0
 11
-171.30001831049989
 21
114.5000305176
 31
0.0
  0
LINE
  5
29B
  8
LAYER1$C$L1
 62
     3
 10
-171.30001831049989
 20
122.4998474121
 30
0.0
 11
-172.42263793949999
 21
122.4998474121
 31
0.0
  0
LINE
  5
29C
  8
LAYER1$C$L1
 62
     3
 10
-173.5466766356999
 20
121.9998474120999
 30
0.0
 11
-173.00001525879989
 21
121.9998474120999
 31
0.0
  0
LINE
  5
29D
  8
LAYER1$C$L1
 62
     3
 10
-173.5466766356999
 20
115.0000305175999
 30
0.0
 11
-173.00001525879989
 21
115.0000305175999
 31
0.0
  0
LINE
  5
29E
  8
LAYER1$C$L1
 62
     3
 10
-172.99993502419991
 20
121.4998936166
 30
0.0
 11
-172.4225704756
 21
122.4998949571
 31
0.0
  0
ARC
  5
29F
  8
LAYER1$C$L1
 62
     3
 10
-167.2999420166
 20
137.79977416989991
 30
0.0
 40
1.0
 50
89.999982013899995
 51
179.9999093863
  0
ARC
  5
2A0
  8
LAYER1$C$L1
 62
     3
 10
-177.1999511718999
 20
124.69979858399989
 30
0.0
 40
0.2999999522999999
 50
89.999982013899995
 51
179.9999093863
  0
ARC
  5
2A1
  8
LAYER1$C$L1
 62
     3
 10
-169.7749328612999
 20
118.5000305176
 30
0.0
 40
5.524999618499999
 50
146.4622598821999
 51
213.53772281499991
  0
ARC
  5
2A2
  8
LAYER1$C$L1
 62
     3
 10
-173.54661560060001
 20
120.99978637700001
 30
0.0
 40
1.0
 50
89.999763447900008
 51
146.4620413161
  0
ARC
  5
2A3
  8
LAYER4$C$L4
  6
PHANTOM
 62
     3
 10
-179.49999999999989
 20
81.899993896499993
 30
0.0
 40
1.0
 50
89.999927372399995
 51
179.99985474479999
  0
LINE
  5
2A4
  8
LAYER4$C$L4
  6
PHANTOM
 62
     3
 10
-168.8999786377
 20
54.0
 30
0.0
 11
-177.5000305175999
 21
54.0
 31
0.0
  0
LINE
  5
2A5
  8
LAYER1$C$L1
 62
     3
 10
-131.09966680869999
 20
131.1500220293
 30
0.0
 11
-130.59966959549999
 21
129.30003190679989
 31
0.0
  0
LINE
  5
2A6
  8
LAYER1$C$L1
 62
     3
 10
-130.49149465939999
 20
137.40008120280001
 30
0.0
 11
-131.09961989809989
 21
135.15001663879991
 31
0.0
  0
LINE
  5
2A7
  8
LAYER1$C$L1
 62
     3
 10
-129.44118961379999
 20
136.6869169897999
 30
0.0
 11
-129.94118671269999
 21
134.836926753
 31
0.0
  0
LINE
  5
2A8
  8
LAYER1$C$L1
 62
     3
 10
-129.94123369479991
 20
131.46311198660001
 30
0.0
 11
-129.4412364817
 21
129.61312186410001
 31
0.0
  0
LINE
  5
2A9
  8
LAYER1$C$L1
 62
     3
 10
-129.9411315918
 20
131.90008544919991
 30
0.0
 11
-129.9411315918
 21
131.463180542
 31
0.0
  0
LINE
  5
2AA
  8
LAYER1$C$L1
 62
     3
 10
-129.39953613279991
 20
134.40007019039999
 30
0.0
 11
-130.59954833980001
 21
134.40007019039999
 31
0.0
  0
LINE
  5
2AB
  8
LAYER1$C$L1
 62
     3
 10
-129.39953613279991
 20
131.90008544919991
 30
0.0
 11
-130.59954833980001
 21
131.90008544919991
 31
0.0
  0
LINE
  5
2AC
  8
LAYER1$C$L1
 62
     3
 10
-129.9411315918
 20
134.83697509769991
 30
0.0
 11
-129.9411315918
 21
134.40007019039999
 31
0.0
  0
LINE
  5
2AD
  8
LAYER1$C$L1
 62
     3
 10
-131.09963989260001
 20
131.1499786377
 30
0.0
 11
-131.09963989260001
 21
131.3999786377
 31
0.0
  0
LINE
  5
2AE
  8
LAYER1$C$L1
 62
     3
 10
-130.59963989260001
 20
131.89997863769989
 30
0.0
 11
-130.59963989260001
 21
134.39996337889991
 31
0.0
  0
LINE
  5
2AF
  8
LAYER1$C$L1
 62
     3
 10
-135.0532997245999
 20
135.2018875478
 30
0.0
 11
-134.1573724022
 21
133.6500956415
 31
0.0
  0
LINE
  5
2B0
  8
LAYER1$C$L1
 62
     3
 10
-135.3202424390999
 20
134.8642275512999
 30
0.0
 11
-134.33059564539991
 21
133.1501087316
 31
0.0
  0
LINE
  5
2B1
  8
LAYER1$C$L1
 62
     3
 10
-134.330623812
 20
133.15004957650001
 30
0.0
 11
-134.96963893360001
 21
132.0432427309
 31
0.0
  0
LINE
  5
2B2
  8
LAYER1$C$L1
 62
     3
 10
-134.1574158274999
 20
132.65003623760001
 30
0.0
 11
-134.8198913345
 21
131.5025948055999
 31
0.0
  0
LINE
  5
2B3
  8
LAYER1$C$L1
 62
     3
 10
-133.28307854859989
 20
135.16443322119989
 30
0.0
 11
-134.1574146870999
 21
133.6500383488999
 31
0.0
  0
LINE
  5
2B4
  8
LAYER1$C$L1
 62
     3
 10
-133.05836253090001
 20
134.3536709947999
 30
0.0
 11
-133.75327059009999
 21
133.1500547249
 31
0.0
  0
LINE
  5
2B5
  8
LAYER1$C$L1
 62
     3
 10
-134.15737126170001
 20
132.65009353030001
 30
0.0
 11
-133.2170256096
 21
131.0213668072
 31
0.0
  0
LINE
  5
2B6
  8
LAYER1$C$L1
 62
     3
 10
-133.7532424236
 20
133.15010358329991
 30
0.0
 11
-132.9923324801
 21
131.832168677
 31
0.0
  0
LINE
  5
2B7
  8
LAYER1$C$L1
 62
     3
 10
-134.81980078099991
 20
131.50263311699999
 30
0.0
 11
-134.9695424507
 21
132.04328425319989
 31
0.0
  0
LINE
  5
2B8
  8
LAYER1$C$L1
 62
     3
 10
-133.05821509919991
 20
134.35371538019999
 30
0.0
 11
-133.28293313180001
 21
135.16447279670001
 31
0.0
  0
LINE
  5
2B9
  8
LAYER1$C$L1
 62
     3
 10
-134.85833740230001
 20
134.86410522459991
 30
0.0
 11
-135.3202209472999
 21
134.86410522459991
 31
0.0
  0
LINE
  5
2BA
  8
LAYER1$C$L1
 62
     3
 10
-132.32913208010001
 20
131.58203125
 30
0.0
 11
-132.55926513669991
 21
131.58203125
 31
0.0
  0
LINE
  5
2BB
  8
LAYER1$C$L1
 62
     3
 10
-132.55380249020001
 20
130.77122497560001
 30
0.0
 11
-132.78396606449999
 21
130.77122497560001
 31
0.0
  0
LINE
  5
2BC
  8
LAYER1$C$L1
 62
     3
 10
-132.55380410539999
 20
130.77123688579991
 30
0.0
 11
-132.32909987350001
 21
131.5820456370999
 31
0.0
  0
LINE
  5
2BD
  8
LAYER1$C$L1
 62
     3
 10
-133.6385365701
 20
132.65009657600001
 30
0.0
 11
-132.55385042009991
 21
130.77136473440001
 31
0.0
  0
LINE
  5
2BE
  8
LAYER1$C$L1
 62
     3
 10
-133.63848876949999
 20
133.64994812009999
 30
0.0
 11
-134.15734863279991
 21
133.64994812009999
 31
0.0
  0
LINE
  5
2BF
  8
LAYER1$C$L1
 62
     3
 10
-133.92718505859989
 20
133.14994812009991
 30
0.0
 11
-134.33056640629991
 21
133.14994812009991
 31
0.0
  0
LINE
  5
2C0
  8
LAYER1$C$L1
 62
     3
 10
-133.63848876949999
 20
132.6499633789
 30
0.0
 11
-134.15734863279991
 21
132.6499633789
 31
0.0
  0
LINE
  5
2C1
  8
LAYER1$C$L1
 62
     3
 10
-134.91686435959991
 20
134.86422563279999
 30
0.0
 11
-133.92721756599991
 21
133.15010681309991
 31
0.0
  0
LINE
  5
2C2
  8
LAYER1$C$L1
 62
     3
 10
-133.9272325179999
 20
133.1500438656999
 30
0.0
 11
-134.8388611325
 21
131.5710565192
 31
0.0
  0
LINE
  5
2C3
  8
LAYER1$C$L1
 62
     3
 10
-133.11478602060001
 20
134.55724271700001
 30
0.0
 11
-133.63855915159991
 21
133.65004088829991
 31
0.0
  0
LINE
  5
2C4
  8
LAYER1$C$L1
 62
     3
 10
-133.4997253418
 20
136.74285888669991
 30
0.0
 11
-133.4997253418
 21
138.69990539549991
 31
0.0
  0
LINE
  5
2C5
  8
LAYER1$C$L1
 62
     3
 10
-133.4997253418
 20
129.29989624020001
 30
0.0
 11
-133.4997253418
 21
129.55686950680001
 31
0.0
  0
LINE
  5
2C6
  8
LAYER1$C$L1
 62
     3
 10
-128.6611328125
 20
138.70005798339989
 30
0.0
 11
-128.6611328125
 21
129.2999572754
 31
0.0
  0
LINE
  5
2C7
  8
LAYER1$C$L1
 62
     3
 10
-119.80001831049999
 20
138.70004272459991
 30
0.0
 11
-139.49969482419991
 21
138.70004272459991
 31
0.0
  0
LINE
  5
2C8
  8
LAYER1$C$L1
 62
     3
 10
-128.66110229489991
 20
137.40005493160001
 30
0.0
 11
-133.49966430660001
 21
137.40005493160001
 31
0.0
  0
LINE
  5
2C9
  8
LAYER1$C$L1
 62
     3
 10
-130.99966430660001
 20
137.39999389650001
 30
0.0
 11
-130.99966430660001
 21
138.69998168949999
 31
0.0
  0
LINE
  5
2CA
  8
LAYER1$C$L1
 62
     3
 10
-128.66110229489991
 20
130.3000793457
 30
0.0
 11
-119.49969482419991
 21
130.3000793457
 31
0.0
  0
LINE
  5
2CB
  8
LAYER1$C$L1
 62
     3
 10
-137.42584228519991
 20
129.29992675779991
 30
0.0
 11
-137.42584228519991
 21
138.69999694820001
 31
0.0
  0
LINE
  5
2CC
  8
LAYER1$C$L1
 62
     3
 10
-132.50003051760001
 20
124.00007629389989
 30
0.0
 11
-132.50003051760001
 21
125.09996032710001
 31
0.0
  0
LINE
  5
2CD
  8
LAYER1$C$L1
 62
     3
 10
-160.50003051760001
 20
123.9998168945
 30
0.0
 11
-160.50003051760001
 21
109.19998168950001
 31
0.0
  0
LINE
  5
2CE
  8
LAYER1$C$L1
 62
     3
 10
-160.50003051760001
 20
109.19998168950001
 30
0.0
 11
-139.50003051760001
 21
109.19998168950001
 31
0.0
  0
LINE
  5
2CF
  8
LAYER1$C$L1
 62
     3
 10
-150.20004272459991
 20
114.0000305175999
 30
0.0
 11
-160.50003051760001
 21
114.0000305175999
 31
0.0
  0
LINE
  5
2D0
  8
LAYER1$C$L1
 62
     3
 10
-150.90003967289999
 20
118.69998168949989
 30
0.0
 11
-150.90003967289999
 21
114.0000305175999
 31
0.0
  0
LINE
  5
2D1
  8
LAYER1$C$L1
 62
     3
 10
-150.20004272459991
 20
114.0000305175999
 30
0.0
 11
-150.20004272459991
 21
109.19998168950001
 31
0.0
  0
LINE
  5
2D2
  8
LAYER1$C$L1
 62
     3
 10
-150.90003967289999
 20
118.69998168949989
 30
0.0
 11
-139.50003051760001
 21
118.69998168949989
 31
0.0
  0
LINE
  5
2D3
  8
LAYER1$C$L1
 62
     3
 10
-140.50003051760001
 20
123.9998168945
 30
0.0
 11
-140.50003051760001
 21
118.69998168949989
 31
0.0
  0
LINE
  5
2D4
  8
LAYER1$C$L1
 62
     3
 10
-141.50003051760001
 20
123.9998168945
 30
0.0
 11
-141.50003051760001
 21
118.69998168949989
 31
0.0
  0
LINE
  5
2D5
  8
LAYER1$C$L1
 62
     3
 10
-160.50003051760001
 20
138.79980468749989
 30
0.0
 11
-160.50003051760001
 21
123.9998168945
 31
0.0
  0
LINE
  5
2D6
  8
LAYER1$C$L1
 62
     3
 10
-139.50003051760001
 20
138.79980468749989
 30
0.0
 11
-139.50003051760001
 21
128.19979858400001
 31
0.0
  0
LINE
  5
2D7
  8
LAYER1$C$L1
 62
     3
 10
-139.50003051760001
 20
138.79980468749989
 30
0.0
 11
-160.50003051760001
 21
138.79980468749989
 31
0.0
  0
LINE
  5
2D8
  8
LAYER1$C$L1
 62
     3
 10
-160.50003051760001
 20
133.99981689449999
 30
0.0
 11
-150.20004272459991
 21
133.99981689449999
 31
0.0
  0
LINE
  5
2D9
  8
LAYER1$C$L1
 62
     3
 10
-150.90003967289999
 20
133.99981689449999
 30
0.0
 11
-150.90003967289999
 21
129.29980468749989
 31
0.0
  0
LINE
  5
2DA
  8
LAYER1$C$L1
 62
     3
 10
-150.20004272459991
 20
138.79980468749989
 30
0.0
 11
-150.20004272459991
 21
133.99981689449999
 31
0.0
  0
LINE
  5
2DB
  8
LAYER1$C$L1
 62
     3
 10
-139.50003051760001
 20
129.29980468749989
 30
0.0
 11
-150.90003967289999
 21
129.29980468749989
 31
0.0
  0
LINE
  5
2DC
  8
LAYER1$C$L1
 62
     3
 10
-140.50003051760001
 20
129.29980468749989
 30
0.0
 11
-140.50003051760001
 21
123.9998168945
 31
0.0
  0
LINE
  5
2DD
  8
LAYER1$C$L1
 62
     3
 10
-164.50003051760001
 20
123.9998168945
 30
0.0
 11
-164.50003051760001
 21
120.0000305175999
 31
0.0
  0
LINE
  5
2DE
  8
LAYER1$C$L1
 62
     3
 10
-160.50003051760001
 20
114.0000305175999
 30
0.0
 11
-168.30001831049989
 21
114.0000305175999
 31
0.0
  0
LINE
  5
2DF
  8
LAYER1$C$L1
 62
     3
 10
-168.30001831049989
 20
123.9998168945
 30
0.0
 11
-168.30001831049989
 21
110.19998168950001
 31
0.0
  0
LINE
  5
2E0
  8
LAYER1$C$L1
 62
     3
 10
-167.30001831049989
 20
109.19998168950001
 30
0.0
 11
-160.50003051760001
 21
109.19998168950001
 31
0.0
  0
LINE
  5
2E1
  8
LAYER1$C$L1
 62
     3
 10
-166.50003051760001
 20
120.0000305175999
 30
0.0
 11
-166.50003051760001
 21
123.9998168945
 31
0.0
  0
LINE
  5
2E2
  8
LAYER1$C$L1
 62
     3
 10
-141.50003051760001
 20
129.29980468749989
 30
0.0
 11
-141.50003051760001
 21
123.9998168945
 31
0.0
  0
LINE
  5
2E3
  8
LAYER1$C$L1
 62
     3
 10
-171.30001831049989
 20
124.6998138428
 30
0.0
 11
-171.30001831049989
 21
112.8000335692999
 31
0.0
  0
LINE
  5
2E4
  8
LAYER1$C$L1
 62
     3
 10
-168.30001831049989
 20
112.5000305176
 30
0.0
 11
-171.00001525879989
 21
112.5000305176
 31
0.0
  0
ARC
  5
2E5
  8
LAYER1$C$L1
 62
     3
 10
-169.77491760250001
 20
129.49978637699999
 30
0.0
 40
5.524999618499999
 50
146.4622598821999
 51
213.53772281499991
  0
ARC
  5
2E6
  8
LAYER1$C$L1
 62
     3
 10
-133.3041381836
 20
114.5012664795
 30
0.0
 40
3.2500324249000001
 50
255.83005289249991
 51
288.49518671120001
  0
ARC
  5
2E7
  8
LAYER1$C$L1
 62
     3
 10
-133.3041381836
 20
115.1989746094
 30
0.0
 40
3.2500247954999999
 50
71.506015402100005
 51
110.5385247727
  0
ARC
  5
2E8
  8
LAYER1$C$L1
 62
     3
 10
-130.59976196289989
 20
113.1001129149999
 30
0.0
 40
0.5
 50
89.999927372399995
 51
179.99985474479999
  0
ARC
  5
2E9
  8
LAYER1$C$L1
 62
     3
 10
-130.59976196289989
 20
116.600112915
 30
0.0
 40
0.5
 50
179.9999093863
 51
269.9999460416999
  0
ARC
  5
2EA
  8
LAYER1$C$L1
 62
     3
 10
-132.78411865230001
 20
116.72886657709989
 30
0.0
 40
0.5
 50
89.999927372399995
 51
149.99991538169991
  0
ARC
  5
2EB
  8
LAYER1$C$L1
 62
     3
 10
-132.5594177246
 20
115.9180603026999
 30
0.0
 40
0.5
 50
89.999818089400023
 51
149.99986074020001
  0
ARC
  5
2EC
  8
LAYER1$C$L1
 62
     3
 10
-134.62042236330001
 20
112.5483093262
 30
0.0
 40
0.5
 50
149.99980609859989
 51
202.03470070540001
  0
ARC
  5
2ED
  8
LAYER1$C$L1
 62
     3
 10
-139.29974365230001
 20
109.4999999999999
 30
0.0
 40
0.1999999881
 50
180.00003597220001
 51
270.00001798609998
  0
ARC
  5
2EE
  8
LAYER1$C$L1
 62
     3
 10
-133.3041381836
 20
133.49870300289999
 30
0.0
 40
3.2500324249000001
 50
71.504813288799994
 51
104.16994710749999
  0
ARC
  5
2EF
  8
LAYER1$C$L1
 62
     3
 10
-133.3041381836
 20
132.80099487299989
 30
0.0
 40
3.2500247954999999
 50
249.46147522730001
 51
288.49398459790001
  0
ARC
  5
2F0
  8
LAYER1$C$L1
 62
     3
 10
-130.59976196289989
 20
134.89985656740001
 30
0.0
 40
0.5
 50
180.00014525520001
 51
270.00007262759988
  0
ARC
  5
2F1
  8
LAYER1$C$L1
 62
     3
 10
-130.59976196289989
 20
131.39985656740001
 30
0.0
 40
0.5
 50
90.00003665540001
 51
180.00007331079999
  0
ARC
  5
2F2
  8
LAYER1$C$L1
 62
     3
 10
-132.78411865230001
 20
131.27110290530001
 30
0.0
 40
0.5
 50
210.00008461830001
 51
270.00007262759988
  0
ARC
  5
2F3
  8
LAYER1$C$L1
 62
     3
 10
-132.5594177246
 20
132.08190917970001
 30
0.0
 40
0.5
 50
210.00013925979991
 51
270.00018191060002
  0
ARC
  5
2F4
  8
LAYER1$C$L1
 62
     3
 10
-134.62042236330001
 20
135.45166015629991
 30
0.0
 40
0.5
 50
157.96528199170001
 51
210.00017659849999
  0
ARC
  5
2F5
  8
LAYER1$C$L1
 62
     3
 10
-139.29974365230001
 20
138.49996948239991
 30
0.0
 40
0.1999999881
 50
89.999982013899995
 51
179.9999640277999
  0
ARC
  5
2F6
  8
LAYER1$C$L1
 62
     3
 10
-119.80001831049999
 20
138.40003967289999
 30
0.0
 40
0.3000000119
 50
0.0
 51
89.999982013899995
  0
ARC
  5
2F7
  8
LAYER1$C$L1
 62
     3
 10
-119.7999877929999
 20
109.5999298095999
 30
0.0
 40
0.3000000119
 50
270.00001798609998
 51
0.0
  0
ARC
  5
2F8
  8
LAYER1$C$L1
 62
     3
 10
-167.2999572754
 20
110.19998168950001
 30
0.0
 40
1.0
 50
180.00003597220001
 51
270.00001798609998
  0
ARC
  5
2F9
  8
LAYER1$C$L1
 62
     3
 10
-177.1999511718999
 20
123.2997741699
 30
0.0
 40
0.2999999522999999
 50
180.00003597220001
 51
270.00001798609998
  0
ARC
  5
2FA
  8
LAYER1$C$L1
 62
     3
 10
-119.80001831049999
 20
138.40003967289999
 30
0.0
 40
0.3000000119
 50
0.0
 51
89.999982013899995
  0
ARC
  5
2FB
  8
LAYER1$C$L1
 62
     3
 10
-119.8000030518
 20
109.5999298095999
 30
0.0
 40
0.3000000119
 50
270.00001798609998
 51
0.0
  0
LINE
  5
2FC
  8
LAYER1$C$L1
 62
     3
 10
-164.50003051760001
 20
120.0000305175999
 30
0.0
 11
-168.30001831049989
 21
120.0000305175999
 31
0.0
  0
LINE
  5
2FD
  8
LAYER1$C$L1
 62
     3
 10
-141.4999847412
 20
82.299942016599999
 30
0.0
 11
-160.49998474119991
 21
82.299942016599999
 31
0.0
  0
ARC
  5
2FE
  8
LAYER1$C$L1
 62
     3
 10
-174.4998931884999
 20
73.0
 30
0.0
 40
1.0
 50
89.999982013899995
 51
179.9999640277999
  0
LINE
  5
2FF
  8
LAYER4$C$L4
  6
PHANTOM
 62
     3
 10
-179.49998474119991
 20
110.9999847412
 30
0.0
 11
-177.49998474119991
 21
110.9999847412
 31
0.0
  0
LINE
  5
300
  8
LAYER1$C$L1
 62
     3
 10
-139.5
 20
82.499954223599985
 30
0.0
 11
-139.5
 21
45.500015258799991
 31
0.0
  0
LINE
  5
301
  8
LAYER1$C$L1
 62
     3
 10
-25.20001220699999
 20
81.0
 30
0.0
 11
-25.20001220699999
 21
77.452133178699995
 31
0.0
  0
LINE
  5
302
  8
LAYER1$C$L1
 62
     3
 10
-139.5
 20
82.499954223599985
 30
0.0
 11
-140.4999847412
 21
82.499954223599985
 31
0.0
  0
LINE
  5
303
  8
LAYER4$C$L4
  6
PHANTOM
 62
     3
 10
-179.49998474119991
 20
132.99996948239991
 30
0.0
 11
-177.49998474119991
 21
132.99996948239991
 31
0.0
  0
LINE
  5
304
  8
LAYER1$C$L1
 62
     3
 10
-160.49998474119991
 20
63.999969482399997
 30
0.0
 11
-160.49998474119991
 21
82.299942016599999
 31
0.0
  0
ARC
  5
305
  8
LAYER1$C$L1
 62
     3
 10
-176.49987792970001
 20
58.719253539999997
 30
0.0
 40
1.0
 50
104.0362393243
 51
179.9999640277999
  0
LINE
  5
306
  8
LAYER4$C$L4
  6
PHANTOM
 62
     3
 10
-180.49998474119991
 20
135.99996948239991
 30
0.0
 11
-180.49998474119991
 21
111.9999847412
 31
0.0
  0
LINE
  5
307
  8
LAYER1$C$L1
 62
     3
 10
-160.49998474119991
 20
45.700210571299991
 30
0.0
 11
-141.4999847412
 21
45.700210571299991
 31
0.0
  0
LINE
  5
308
  8
LAYER1$C$L1
 62
     3
 10
-140.4999847412
 20
45.500015258799991
 30
0.0
 11
-139.5
 21
45.500015258799991
 31
0.0
  0
ARC
  5
309
  8
LAYER1$C$L1
 62
     3
 10
-174.71226501459989
 20
76.5
 30
0.0
 40
1.0
 50
89.999435598800005
 51
145.0263355525999
  0
ARC
  5
30A
  8
LAYER4$C$L4
  6
PHANTOM
 62
     3
 10
-179.49999999999989
 20
63.0000457764
 30
0.0
 40
1.0
 50
180.00003597220001
 51
269.99996334460002
  0
LINE
  5
30B
  8
LAYER2$C$L2
  6
DASHED
 62
     3
 10
-44.200012207
 20
47.5
 30
0.0
 11
-40.000015258799998
 21
47.5
 31
0.0
  0
LINE
  5
30C
  8
LAYER2$C$L2
  6
DASHED
 62
     3
 10
-34.700012207
 20
82.0
 30
0.0
 11
-31.282211303699999
 21
82.0
 31
0.0
  0
LINE
  5
30D
  8
LAYER1$C$L1
 62
     3
 10
-140.50003181679989
 20
45.500058104700003
 30
0.0
 11
-141.5000314248
 21
45.700070183299999
 31
0.0
  0
ARC
  5
30F
  8
LAYER1$C$L1
 62
     3
 10
-170.29988098139989
 20
79.099990844700002
 30
0.0
 40
1.0
 50
89.999982013899995
 51
179.9999640277999
  0
LINE
  5
310
  8
LAYER2$C$L2
  6
DASHED
 62
     3
 10
-44.200012207
 20
45.499999999999993
 30
0.0
 11
-44.200012207
 21
47.5
 31
0.0
  0
LINE
  5
311
  8
LAYER1$C$L1
 62
     3
 10
-160.49998474119991
 20
45.700210571299991
 30
0.0
 11
-160.49998474119991
 21
63.999969482399997
 31
0.0
  0
LINE
  5
312
  8
LAYER4$C$L4
  6
PHANTOM
 62
     3
 10
-168.2999572754
 20
54.599990844700002
 30
0.0
 11
-168.2999572754
 21
63.399993896499993
 31
0.0
  0
LINE
  5
313
  8
LAYER4$C$L4
  6
PHANTOM
 62
     3
 10
-177.5
 20
45.1000061035
 30
0.0
 11
-177.5
 21
82.899963378899997
 31
0.0
  0
LINE
  5
314
  8
LAYER4$C$L4
  6
PHANTOM
 62
     3
 10
-177.5000305175999
 20
73.999984741199995
 30
0.0
 11
-176.49987792970001
 21
73.999984741199995
 31
0.0
  0
LINE
  5
315
  8
LAYER4$C$L4
  6
PHANTOM
 62
     3
 10
-162.0000152588
 20
81.999984741199995
 30
0.0
 11
-162.0000152588
 21
82.899963378899997
 31
0.0
  0
LINE
  5
316
  8
LAYER4$C$L4
  6
PHANTOM
 62
     3
 10
-169.09988603790001
 20
80.999988882400004
 30
0.0
 11
-168.09983102829989
 21
82.000043891999994
 31
0.0
  0
LINE
  5
317
  8
LAYER4$C$L4
  6
PHANTOM
 62
     3
 10
-168.09986339709991
 20
45.999994885200003
 30
0.0
 11
-169.09984287949999
 21
46.999974367599997
 31
0.0
  0
LINE
  5
318
  8
LAYER4$C$L4
  6
PHANTOM
 62
     3
 10
-169.09988403319991
 20
80.999984741199995
 30
0.0
 11
-177.5000305175999
 21
80.999984741199995
 31
0.0
  0
ARC
  5
319
  8
LAYER1$C$L1
 62
     3
 10
-176.49987792970001
 20
49.350357055699988
 30
0.0
 40
1.0
 50
180.00003597220001
 51
260.73975679239999
  0
ARC
  5
31A
  8
LAYER1$C$L1
 62
     3
 10
-167.29988098139989
 20
81.0
 30
0.0
 40
1.0
 50
89.999982013899995
 51
179.9999640277999
  0
ARC
  5
31B
  8
LAYER1$C$L1
 62
     3
 10
-167.29986572269991
 20
47.000015258799998
 30
0.0
 40
1.0
 50
180.00003597220001
 51
270.00001798609998
  0
LINE
  5
31C
  8
LAYER1$C$L1
 62
     3
 10
-175.49998474119991
 20
67.9999542236
 30
0.0
 11
-175.49998474119991
 21
63.999969482399997
 31
0.0
  0
LINE
  5
31D
  8
LAYER1$C$L1
 62
     3
 10
-173.99996948239999
 20
75.7499542236
 30
0.0
 11
-174.19998168949999
 21
75.7499542236
 31
0.0
  0
LINE
  5
31E
  8
LAYER1$C$L1
 62
     3
 10
-171.29997253420001
 20
75.7499542236
 30
0.0
 11
-172.49996948239999
 21
75.7499542236
 31
0.0
  0
LINE
  5
31F
  8
LAYER1$C$L1
 62
     3
 10
-173.99992106959999
 20
76.999971483799996
 30
0.0
 11
-173.42255858589991
 21
77.9999740632
 31
0.0
  0
LINE
  5
320
  8
LAYER1$C$L1
 62
     3
 10
-173.4226074218999
 20
77.9999542236
 30
0.0
 11
-172.49995422360001
 21
77.9999542236
 31
0.0
  0
LINE
  5
321
  8
LAYER1$C$L1
 62
     3
 10
-173.99996948239999
 20
76.9999542236
 30
0.0
 11
-173.99996948239999
 21
73.999954223599985
 31
0.0
  0
LINE
  5
322
  8
LAYER1$C$L1
 62
     3
 10
-172.49996948239999
 20
77.9999542236
 30
0.0
 11
-172.49996948239999
 21
73.999954223599985
 31
0.0
  0
LINE
  5
323
  8
LAYER1$C$L1
 62
     3
 10
-174.71235656740001
 20
77.4999542236
 30
0.0
 11
-174.19998168949999
 21
77.4999542236
 31
0.0
  0
LINE
  5
324
  8
LAYER1$C$L1
 62
     3
 10
-174.19998168949999
 20
77.4999542236
 30
0.0
 11
-174.19998168949999
 21
73.999954223599985
 31
0.0
  0
LINE
  5
325
  8
LAYER1$C$L1
 62
     3
 10
-175.49998474119991
 20
68.899948120100007
 30
0.0
 11
-175.49998474119991
 21
63.999969482399997
 31
0.0
  0
LINE
  5
326
  8
LAYER1$C$L1
 62
     3
 10
-168.29997253420001
 20
67.899948120100007
 30
0.0
 11
-174.4999847412
 21
67.899948120100007
 31
0.0
  0
LINE
  5
327
  8
LAYER1$C$L1
 62
     3
 10
-171.29997253420001
 20
73.999954223599985
 30
0.0
 11
-174.4999847412
 21
73.999954223599985
 31
0.0
  0
LINE
  5
328
  8
LAYER1$C$L1
 62
     3
 10
-175.49998474119991
 20
72.9999542236
 30
0.0
 11
-175.49998474119991
 21
68.899948120100007
 31
0.0
  0
LINE
  5
329
  8
LAYER1$C$L1
 62
     3
 10
-171.29997253420001
 20
79.099945068400004
 30
0.0
 11
-171.29997253420001
 21
73.999954223599985
 31
0.0
  0
LINE
  5
32A
  8
LAYER1$C$L1
 62
     3
 10
-170.29997253420001
 20
80.099945068400004
 30
0.0
 11
-168.29997253420001
 21
80.099945068400004
 31
0.0
  0
LINE
  5
32B
  8
LAYER1$C$L1
 62
     3
 10
-175.49998474119991
 20
63.999969482399997
 30
0.0
 11
-175.49998474119991
 21
60.000015258799998
 31
0.0
  0
LINE
  5
32C
  8
LAYER1$C$L1
 62
     3
 10
-176.74256080879999
 20
59.689684128400003
 30
0.0
 11
-175.5000246507
 21
60.000318129799993
 31
0.0
  0
ARC
  5
32D
  8
LAYER1$C$L1
 62
     3
 10
-173.49993896480001
 20
135.19976806639991
 30
0.0
 40
0.2999999522999999
 50
89.999927372399995
 51
179.9999093863
  0
ARC
  5
32E
  8
LAYER1$C$L1
 62
     3
 10
-173.49993896480001
 20
134.29977416989991
 30
0.0
 40
0.2999999522999999
 50
180.00003597220001
 51
270.00001798609998
  0
LINE
  5
32F
  8
LAYER1$C$L1
 62
     3
 10
-171.30001831049989
 20
117.2500305175999
 30
0.0
 11
-171.30001831049989
 21
119.7500305176
 31
0.0
  0
ARC
  5
330
  8
LAYER4$C$L4
  6
PHANTOM
 62
     3
 10
-168.89999389650001
 20
54.600036621100003
 30
0.0
 40
0.5999999642000001
 50
270.00007262759988
 51
0.0
  0
LINE
  5
331
  8
LAYER1$C$L1
 62
     3
 10
-172.99999862979999
 20
115.50013980609999
 30
0.0
 11
-172.42259641539999
 21
114.50007211809999
 31
0.0
  0
LINE
  5
332
  8
LAYER1$C$L1
 62
     3
 10
-128.66110229489991
 20
110.59991455079999
 30
0.0
 11
-133.49966430660001
 21
110.59991455079999
 31
0.0
  0
LINE
  5
333
  8
LAYER1$C$L1
 62
     3
 10
-130.99966430660001
 20
110.5999755859
 30
0.0
 11
-130.99966430660001
 21
109.2999877929999
 31
0.0
  0
LINE
  5
334
  8
LAYER1$C$L1
 62
     3
 10
-128.66110229489991
 20
117.69989013670001
 30
0.0
 11
-119.49969482419991
 21
117.69989013670001
 31
0.0
  0
LINE
  5
335
  8
LAYER1$C$L1
 62
     3
 10
-137.42584228519991
 20
118.7000427245999
 30
0.0
 11
-137.42584228519991
 21
109.29997253419999
 31
0.0
  0
ARC
  5
336
  8
LAYER1$C$L1
 62
     3
 10
-173.54661560060001
 20
116.0000305175999
 30
0.0
 40
1.0
 50
213.5379586839
 51
270.00023655209992
  0
LINE
  5
337
  8
LAYER1$C$L1
 62
     3
 10
-150.8659545813999
 20
45.700427023400003
 30
0.0
 11
-139.5001553601
 21
51.000385424100003
 31
0.0
  0
TEXT
  5
33B
  8
LAYER8$C$L8
 62
     3
 10
-39.304443359399997
 20
127.4717712401999
 30
0.0
 40
2.5
  1

 72
     5
 11
-39.304443359399997
 21
127.4717712401999
 31
0.0
  0
TEXT
  5
33E
  8
LAYER8$C$L8
 62
     3
 10
-39.304443359399997
 20
127.4717712401999
 30
0.0
 40
2.5
  1

 72
     5
 11
-39.304443359399997
 21
127.4717712401999
 31
0.0
  0
TEXT
  5
340
  8
LAYER8$C$L8
 62
     3
 10
-39.304443359399997
 20
127.4717712401999
 30
0.0
 40
2.5
  1

 72
     5
 11
-39.304443359399997
 21
127.4717712401999
 31
0.0
  0
TEXT
  5
342
  8
LAYER8$C$L8
 62
     3
 10
-39.304443359399997
 20
127.4717712401999
 30
0.0
 40
2.5
  1

 72
     5
 11
-39.304443359399997
 21
127.4717712401999
 31
0.0
  0
TEXT
  5
344
  8
LAYER8$C$L8
 62
     3
 10
-39.304443359399997
 20
127.4717712401999
 30
0.0
 40
2.5
  1

 72
     5
 11
-39.304443359399997
 21
127.4717712401999
 31
0.0
  0
ARC
  5
349
  8
LAYER1$C$L1
 62
     3
 10
-175.19993591310001
 20
113.69998168950001
 30
0.0
 40
0.2999999522999999
 50
89.999927372399995
 51
179.9999093863
  0
LINE
  5
34A
  8
LAYER2$C$L2
  6
DASHED
 62
     3
 10
-34.700012207
 20
46.0
 30
0.0
 11
-31.282211303699999
 21
46.0
 31
0.0
  0
LINE
  5
34B
  8
LAYER1$C$L1
 62
     3
 10
-171.30000305179991
 20
133.99981689449999
 30
0.0
 11
-171.30000305179991
 21
124.9998168945
 31
0.0
  0
LINE
  5
34C
  8
LAYER1$C$L1
 62
     3
 10
-131.09963989260001
 20
134.8999633789
 30
0.0
 11
-131.09963989260001
 21
135.14996337889991
 31
0.0
  0
LINE
  5
34D
  8
LAYER1$C$L1
 62
     3
 10
-171.79994350449999
 20
119.749917881
 30
0.0
 11
-171.29994642549991
 21
120.6159097475
 31
0.0
  0
LINE
  5
34E
  8
LAYER1$C$L1
 62
     3
 10
-74.500015258800005
 20
131.5999298095999
 30
0.0
 11
-72.60536193850001
 21
131.5999298095999
 31
0.0
  0
LINE
  5
34F
  8
LAYER1$C$L1
 62
     3
 10
-72.605377197300001
 20
119.30000305179991
 30
0.0
 11
-74.500030517599996
 21
119.30000305179991
 31
0.0
  0
LINE
  5
350
  8
LAYER1$C$L1
 62
     3
 10
-72.605377197300001
 20
116.4000091553
 30
0.0
 11
-74.500030517599996
 21
116.4000091553
 31
0.0
  0
LINE
  5
351
  8
LAYER1$C$L1
 62
     3
 10
-72.605377197300001
 20
113.8000030518
 30
0.0
 11
-74.500030517599996
 21
113.8000030518
 31
0.0
  0
LINE
  5
352
  8
LAYER1$C$L1
 62
     3
 10
-72.605377197300001
 20
111.4999999999999
 30
0.0
 11
-74.500030517599996
 21
111.4999999999999
 31
0.0
  0
ARC
  5
353
  8
LAYER1$C$L1
 62
     3
 10
-72.605346679700006
 20
141.99995422360001
 30
0.0
 40
2.0
 50
13.342009562399999
 51
90.000255221499984
  0
LINE
  5
354
  8
LAYER1$C$L1
 62
     3
 10
-74.500015258800005
 20
134.19993591309989
 30
0.0
 11
-72.60536193850001
 21
134.19993591309989
 31
0.0
  0
ARC
  5
355
  8
LAYER1$C$L1
 62
     3
 10
-72.605346679700006
 20
106.00001525879991
 30
0.0
 40
2.0
 50
269.99974477849992
 51
346.65799043760001
  0
LINE
  5
356
  8
LAYER1$C$L1
 62
     3
 10
-78.0
 20
135.79997253420001
 30
0.0
 11
-74.5
 21
135.79997253420001
 31
0.0
  0
LINE
  5
357
  8
LAYER1$C$L1
 62
     3
 10
-74.500015258800005
 20
143.49995422360001
 30
0.0
 11
-72.60536193850001
 21
143.49995422360001
 31
0.0
  0
LINE
  5
358
  8
LAYER1$C$L1
 62
     3
 10
-74.500015258800005
 20
142.69995117190001
 30
0.0
 11
-72.60536193850001
 21
142.69995117190001
 31
0.0
  0
LINE
  5
359
  8
LAYER1$C$L1
 62
     3
 10
-74.500015258800005
 20
141.5999450683999
 30
0.0
 11
-72.60536193850001
 21
141.5999450683999
 31
0.0
  0
LINE
  5
35A
  8
LAYER1$C$L1
 62
     3
 10
-74.500015258800005
 20
140.19993591310001
 30
0.0
 11
-72.60536193850001
 21
140.19993591310001
 31
0.0
  0
LINE
  5
35B
  8
LAYER1$C$L1
 62
     3
 10
-78.0
 20
112.19998168950001
 30
0.0
 11
-74.5
 21
112.19998168950001
 31
0.0
  0
LINE
  5
35C
  8
LAYER1$C$L1
 62
     3
 10
-72.605377197300001
 20
59.300003051799997
 30
0.0
 11
-74.500030517599996
 21
59.300003051799997
 31
0.0
  0
LINE
  5
35D
  8
LAYER1$C$L1
 62
     3
 10
-74.5
 20
123.9999847412
 30
0.0
 11
-74.5
 21
103.9999847412
 31
0.0
  0
LINE
  5
35E
  8
LAYER1$C$L1
 62
     3
 10
-74.500015258800005
 20
103.9999847412
 30
0.0
 11
-72.60536193850001
 21
103.9999847412
 31
0.0
  0
LINE
  5
35F
  8
LAYER1$C$L1
 62
     3
 10
-74.500015258800005
 20
143.99995422360001
 30
0.0
 11
-72.60536193850001
 21
143.99995422360001
 31
0.0
  0
LINE
  5
360
  8
LAYER1$C$L1
 62
     3
 10
-72.605377197300001
 20
104.00001525879991
 30
0.0
 11
-72.605377197300001
 21
143.99995422360001
 31
0.0
  0
LINE
  5
361
  8
LAYER1$C$L1
 62
     3
 10
-74.5
 20
143.99998474119991
 30
0.0
 11
-74.5
 21
123.9999847412
 31
0.0
  0
LINE
  5
362
  8
LAYER1$C$L1
 62
     3
 10
-72.605377197300001
 20
56.40000915529999
 30
0.0
 11
-74.500030517599996
 21
56.40000915529999
 31
0.0
  0
LINE
  5
363
  8
LAYER1$C$L1
 62
     3
 10
-72.605377197300001
 20
53.800003051800012
 30
0.0
 11
-74.500030517599996
 21
53.800003051800012
 31
0.0
  0
LINE
  5
364
  8
LAYER1$C$L1
 62
     3
 10
-72.605377197300001
 20
51.500015258799998
 30
0.0
 11
-74.500030517599996
 21
51.500015258799998
 31
0.0
  0
LINE
  5
365
  8
LAYER1$C$L1
 62
     3
 10
-72.605377197300001
 20
49.500015258799998
 30
0.0
 11
-74.500030517599996
 21
49.500015258799998
 31
0.0
  0
LINE
  5
366
  8
LAYER1$C$L1
 62
     3
 10
-72.605377197300001
 20
47.800018310499993
 30
0.0
 11
-74.500030517599996
 21
47.800018310499993
 31
0.0
  0
LINE
  5
367
  8
LAYER1$C$L1
 62
     3
 10
-72.605377197300001
 20
46.40000915529999
 30
0.0
 11
-74.500030517599996
 21
46.40000915529999
 31
0.0
  0
LINE
  5
368
  8
LAYER1$C$L1
 62
     3
 10
-72.605377197300001
 20
45.300003051799997
 30
0.0
 11
-74.500030517599996
 21
45.300003051799997
 31
0.0
  0
LINE
  5
369
  8
LAYER1$C$L1
 62
     3
 10
-72.605377197300001
 20
44.5
 30
0.0
 11
-74.500030517599996
 21
44.5
 31
0.0
  0
LINE
  5
36A
  8
LAYER1$C$L1
 62
     3
 10
-74.500015258800005
 20
68.699935913100006
 30
0.0
 11
-72.60536193850001
 21
68.699935913100006
 31
0.0
  0
LINE
  5
36B
  8
LAYER1$C$L1
 62
     3
 10
-74.500015258800005
 20
71.599945068400004
 30
0.0
 11
-72.60536193850001
 21
71.599945068400004
 31
0.0
  0
LINE
  5
36C
  8
LAYER1$C$L1
 62
     3
 10
-74.500015258800005
 20
74.199935913100006
 30
0.0
 11
-72.60536193850001
 21
74.199935913100006
 31
0.0
  0
LINE
  5
36D
  8
LAYER1$C$L1
 62
     3
 10
-74.500015258800005
 20
76.499938964799995
 30
0.0
 11
-72.60536193850001
 21
76.499938964799995
 31
0.0
  0
LINE
  5
36E
  8
LAYER1$C$L1
 62
     3
 10
-74.500015258800005
 20
78.499938964799995
 30
0.0
 11
-72.60536193850001
 21
78.499938964799995
 31
0.0
  0
LINE
  5
36F
  8
LAYER1$C$L1
 62
     3
 10
-74.500015258800005
 20
80.199935913100006
 30
0.0
 11
-72.60536193850001
 21
80.199935913100006
 31
0.0
  0
LINE
  5
370
  8
LAYER1$C$L1
 62
     3
 10
-74.500015258800005
 20
81.599945068400004
 30
0.0
 11
-72.60536193850001
 21
81.599945068400004
 31
0.0
  0
LINE
  5
371
  8
LAYER1$C$L1
 62
     3
 10
-74.500015258800005
 20
82.699951171899997
 30
0.0
 11
-72.60536193850001
 21
82.699951171899997
 31
0.0
  0
LINE
  5
372
  8
LAYER1$C$L1
 62
     3
 10
-74.500015258800005
 20
83.499954223600014
 30
0.0
 11
-72.60536193850001
 21
83.499954223600014
 31
0.0
  0
LINE
  5
373
  8
LAYER1$C$L1
 62
     3
 10
-78.0
 20
52.1999816895
 30
0.0
 11
-74.5
 21
52.1999816895
 31
0.0
  0
LINE
  5
374
  8
LAYER1$C$L1
 62
     3
 10
-78.0
 20
75.799972534199995
 30
0.0
 11
-74.5
 21
75.799972534199995
 31
0.0
  0
LINE
  5
375
  8
LAYER1$C$L1
 62
     3
 10
-72.605377197300001
 20
44.000015258799991
 30
0.0
 11
-72.605377197300001
 21
83.999954223599985
 31
0.0
  0
LINE
  5
376
  8
LAYER1$C$L1
 62
     3
 10
-74.500015258800005
 20
83.999954223599985
 30
0.0
 11
-72.60536193850001
 21
83.999954223599985
 31
0.0
  0
LINE
  5
377
  8
LAYER1$C$L1
 62
     3
 10
-74.500015258800005
 20
43.999984741200002
 30
0.0
 11
-72.60536193850001
 21
43.999984741200002
 31
0.0
  0
LINE
  5
378
  8
LAYER1$C$L1
 62
     3
 10
-74.5
 20
63.999984741200002
 30
0.0
 11
-74.5
 21
43.999984741200002
 31
0.0
  0
LINE
  5
379
  8
LAYER1$C$L1
 62
     3
 10
-74.5
 20
83.999984741199995
 30
0.0
 11
-74.5
 21
63.999984741200002
 31
0.0
  0
DIMENSION
  5
37B
  8
DIMENSIONS
  2
*D27
 10
-68.5
 20
92.999984741199995
 30
0.0
 11
-79.75
 21
92.999984741199995
 31
0.0
 70
     0
 13
-91.0
 23
110.4999999999999
 33
0.0
 14
-68.5
 24
123.9999847412
 34
0.0
1001
ACAD
1000
DSTYLE
1002
{
1070
    41
1040
1.9727878464999999
1070
    42
1040
2.5399999618999991
1070
    44
1040
3.8099999427999989
1070
    73
1070
     0
1070
   140
1040
3.1999998092999991
1070
   271
1070
     1
1070
   272
1070
     1
1002
}
  0
ARC
  5
387
  8
LAYER1$C$L1
 62
     3
 10
-72.605346679700006
 20
46.000015258799991
 30
0.0
 40
2.0
 50
269.99974477849992
 51
346.65799043760001
  0
LINE
  5
395
  8
LAYER1$C$L1
 62
     3
 10
-171.79986100229991
 20
117.2499234079
 30
0.0
 11
-171.2998490812999
 21
116.3839048742
 31
0.0
  0
LINE
  5
396
  8
LAYER1$C$L1
 62
     3
 10
-171.80001831049989
 20
117.2500305175999
 30
0.0
 11
-171.80001831049989
 21
119.7500305176
 31
0.0
  0
TEXT
  5
397
  8
LAYER8$C$L8
 62
     3
 10
-135.45005798339989
 20
69.688196964399992
 30
0.0
 40
1.5
  1
UÇâ600V IÇîÇà10A
 50
270.0
 41
0.5474450447759033
 72
     5
 11
-135.45005798339989
 21
58.3287122853
 31
0.0
  0
ARC
  5
398
  8
LAYER1$C$L1
 62
     3
 10
-174.4998931884999
 20
68.899993896499993
 30
0.0
 40
1.0
 50
180.0000906137
 51
270.00001798609998
  0
TEXT
  5
39A
  8
LAYER8$C$L8
 62
     3
 10
-114.4999847412
 20
137.81665414179989
 30
0.0
 40
3.5
  1
TW
 50
270.0
 41
0.9333343142285741
 72
     5
 11
-114.4999847412
 21
131.2833139421999
 31
0.0
  0
LINE
  5
39C
  8
LAYER1$C$L1
 62
     3
 10
-168.29997253420001
 20
80.999954223600014
 30
0.0
 11
-168.29997253420001
 21
47.000015258799998
 31
0.0
  0
LINE
  5
39D
  8
LAYER1$C$L1
 62
     3
 10
-129.39962768549989
 20
129.29997253420001
 30
0.0
 11
-129.39962768549989
 21
137.40007019039999
 31
0.0
  0
ARC
  5
39E
  8
LAYER1$C$L1
 62
     3
 10
-133.56423950199999
 20
73.129806518599992
 30
0.0
 40
0.1999999881
 50
264.80169761259992
 51
345.52905237530001
  0
ARC
  5
39F
  8
LAYER1$C$L1
 62
     3
 10
-134.63345336910001
 20
73.674606323199995
 30
0.0
 40
0.1999999881
 50
264.80186153709991
 51
345.52899773379988
  0
ARC
  5
3A0
  8
LAYER1$C$L1
 62
     3
 10
-130.22520446780001
 20
79.683029174799984
 30
0.0
 40
0.1999999881
 50
320.47098027290002
 51
41.198427243200051
  0
ARC
  5
3A1
  8
LAYER1$C$L1
 62
     3
 10
-131.29440307620001
 20
80.227828979499989
 30
0.0
 40
0.1999999881
 50
320.47103491450002
 51
41.1982633187
  0
ARC
  5
3A2
  8
LAYER1$C$L1
 62
     3
 10
-135.83760070799991
 20
75.704879760699995
 30
0.0
 40
1.0
 50
170.57102448239999
 51
237.99996336509989
  0
ARC
  5
3A3
  8
LAYER1$C$L1
 62
     3
 10
-133.64472961429991
 20
80.008590698199995
 30
0.0
 40
1.0
 50
67.999942697299986
 51
135.42893622150001
  0
ARC
  5
3A4
  8
LAYER1$C$L1
 62
     3
 10
-127.9456787108999
 20
74.394210815400001
 30
0.0
 40
9.0
 50
135.42904550450001
 51
170.57102448239999
  0
ARC
  5
3A5
  8
LAYER1$C$L1
 62
     3
 10
-133.56423950199999
 20
54.8701629639
 30
0.0
 40
0.1999999881
 50
14.470910058599991
 51
95.198302387400005
  0
ARC
  5
3A6
  8
LAYER1$C$L1
 62
     3
 10
-134.63345336910001
 20
54.325363159200002
 30
0.0
 40
0.1999999881
 50
14.470964700199991
 51
95.198138462900005
  0
ARC
  5
3A7
  8
LAYER1$C$L1
 62
     3
 10
-130.22520446780001
 20
48.316940307599999
 30
0.0
 40
0.1999999881
 50
318.80156251149998
 51
39.5290197271
  0
ARC
  5
3A8
  8
LAYER1$C$L1
 62
     3
 10
-131.29440307620001
 20
47.772140502900001
 30
0.0
 40
0.1999999881
 50
318.80172643599991
 51
39.52896508550004
  0
ARC
  5
3A9
  8
LAYER1$C$L1
 62
     3
 10
-135.83760070799991
 20
52.295089721700002
 30
0.0
 40
1.0
 50
122.0000193321
 51
189.42901285630001
  0
ARC
  5
3AA
  8
LAYER1$C$L1
 62
     3
 10
-133.64472961429991
 20
47.991378784200002
 30
0.0
 40
1.0
 50
224.57100913699989
 51
292.00005730269999
  0
ARC
  5
3AB
  8
LAYER1$C$L1
 62
     3
 10
-127.9456787108999
 20
53.605758666999989
 30
0.0
 40
9.0
 50
189.42903015909991
 51
224.57100913699989
  0
ARC
  5
3AC
  8
LAYER1$C$L1
 62
     3
 10
-138.26007080080001
 20
61.389816284200002
 30
0.0
 40
0.067499935627
 50
180.00003597220001
 51
270.00001798609998
  0
ARC
  5
3AD
  8
LAYER1$C$L1
 62
     3
 10
-137.1800689696999
 20
61.389816284200002
 30
0.0
 40
0.067499935627
 50
270.00001798609998
 51
0.0
  0
ARC
  5
3AE
  8
LAYER1$C$L1
 62
     3
 10
-137.99006652829991
 20
62.334884643599999
 30
0.0
 40
0.3374999762
 50
89.999927372399995
 51
179.9999640277999
  0
ARC
  5
3AF
  8
LAYER1$C$L1
 62
     3
 10
-137.45005798339989
 20
62.334884643599999
 30
0.0
 40
0.3374999762
 50
0.0
 51
89.999927372399995
  0
ARC
  5
3B0
  8
LAYER1$C$L1
 62
     3
 10
-138.26007080080001
 20
62.919845581099999
 30
0.0
 40
0.067499935627
 50
180.00003597220001
 51
270.00001798609998
  0
ARC
  5
3B1
  8
LAYER1$C$L1
 62
     3
 10
-137.99006652829991
 20
63.954879760700003
 30
0.0
 40
0.3374999762
 50
89.999927372399995
 51
179.9999640277999
  0
ARC
  5
3B2
  8
LAYER1$C$L1
 62
     3
 10
-137.1800689696999
 20
62.919845581099999
 30
0.0
 40
0.067499935627
 50
270.00001798609998
 51
0.0
  0
ARC
  5
3B3
  8
LAYER1$C$L1
 62
     3
 10
-137.45005798339989
 20
63.954879760700003
 30
0.0
 40
0.3374999762
 50
0.0
 51
89.999927372399995
  0
ARC
  5
3B4
  8
LAYER1$C$L1
 62
     3
 10
-138.26007080080001
 20
64.539840698199995
 30
0.0
 40
0.067499935627
 50
180.00003597220001
 51
270.00001798609998
  0
ARC
  5
3B5
  8
LAYER1$C$L1
 62
     3
 10
-136.64006042479991
 20
64.539840698199995
 30
0.0
 40
0.067499935627
 50
270.00001798609998
 51
0.0
  0
ARC
  5
3B6
  8
LAYER1$C$L1
 62
     3
 10
-136.64006042479991
 20
65.034835815400001
 30
0.0
 40
0.067499935627
 50
0.0
 51
89.999927372399995
  0
ARC
  5
3B7
  8
LAYER1$C$L1
 62
     3
 10
-137.99006652829991
 20
65.529830932600007
 30
0.0
 40
0.3374999762
 50
89.999927372399995
 51
179.9999640277999
  0
ARC
  5
3B8
  8
LAYER1$C$L1
 62
     3
 10
-137.3150634765999
 20
65.529830932600007
 30
0.0
 40
0.3374999762
 50
0.0
 51
89.999927372399995
  0
ARC
  5
3B9
  8
LAYER1$C$L1
 62
     3
 10
-138.26007080080001
 20
66.114913940400001
 30
0.0
 40
0.067499935627
 50
180.00003597220001
 51
270.00001798609998
  0
ARC
  5
3BA
  8
LAYER1$C$L1
 62
     3
 10
-138.26007080080001
 20
66.609909057600007
 30
0.0
 40
0.067499935627
 50
89.999927372399995
 51
179.9999640277999
  0
ARC
  5
3BB
  8
LAYER1$C$L1
 62
     3
 10
-136.64006042479991
 20
66.114913940400001
 30
0.0
 40
0.067499935627
 50
270.00001798609998
 51
0.0
  0
ARC
  5
3BC
  8
LAYER1$C$L1
 62
     3
 10
-136.64006042479991
 20
66.609909057600007
 30
0.0
 40
0.067499935627
 50
0.0
 51
89.999927372399995
  0
ARC
  5
3BD
  8
LAYER1$C$L1
 62
     3
 10
-138.99993896480001
 20
82.000167846699995
 30
0.0
 40
0.5
 50
90.000091296900024
 51
180.00001866929989
  0
ARC
  5
3BE
  8
LAYER1$C$L1
 62
     3
 10
-130.89996337889991
 20
81.2002410889
 30
0.0
 40
0.5999999046
 50
90.000091296900024
 51
242.9999350450999
  0
ARC
  5
3BF
  8
LAYER1$C$L1
 62
     3
 10
-138.99996948239991
 20
46.000167846700002
 30
0.0
 40
0.5
 50
180.00003597220001
 51
269.99996334460002
  0
ARC
  5
3C0
  8
LAYER1$C$L1
 62
     3
 10
-130.89999389649989
 20
46.800216674799998
 30
0.0
 40
0.5999999046
 50
117.00004765209989
 51
269.9999460416999
  0
ARC
  5
3C1
  8
LAYER1$C$L1
 62
     3
 10
-132.63864135739999
 20
55.327438354499989
 30
0.0
 40
0.7999997139000001
 50
179.9999640277999
 51
206.9999750243999
  0
ARC
  5
3C2
  8
LAYER1$C$L1
 62
     3
 10
-132.63864135739999
 20
72.673141479500003
 30
0.0
 40
0.7999997139000001
 50
153.00006231419999
 51
180.00007331079999
  0
LINE
  5
3C3
  8
LAYER1$C$L1
 62
     3
 10
-119.5000305176
 20
129.2999572754
 30
0.0
 11
-139.50003051760001
 21
129.2999572754
 31
0.0
  0
LINE
  5
3C4
  8
LAYER1$C$L1
 62
     3
 10
-120.0000305175999
 20
138.70004272459991
 30
0.0
 11
-139.5
 21
138.70004272459991
 31
0.0
  0
LINE
  5
3C5
  8
LAYER1$C$L1
 62
     3
 10
-127.80001831049989
 20
128.1999664306999
 30
0.0
 11
-127.80001831049989
 21
125.09996032710001
 31
0.0
  0
LINE
  5
3C6
  8
LAYER1$C$L1
 62
     3
 10
-124.5000305175999
 20
128.1999664306999
 30
0.0
 11
-124.5000305175999
 21
124.0
 31
0.0
  0
LINE
  5
3C7
  8
LAYER1$C$L1
 62
     3
 10
-124.5000305175999
 20
128.1999664306999
 30
0.0
 11
-139.50003051760001
 21
128.1999664306999
 31
0.0
  0
LINE
  5
3C8
  8
LAYER1$C$L1
 62
     3
 10
-124.5000457763999
 20
128.1999664306999
 30
0.0
 11
-139.50006103519991
 21
128.1999664306999
 31
0.0
  0
LINE
  5
3C9
  8
LAYER1$C$L1
 62
     3
 10
-124.50006103520001
 20
128.1999664306999
 30
0.0
 11
-124.50006103520001
 21
124.0
 31
0.0
  0
LINE
  5
3CA
  8
LAYER1$C$L1
 62
     3
 10
-139.5001831054999
 20
125.09996032710001
 30
0.0
 11
-127.80001831049989
 21
125.09996032710001
 31
0.0
  0
LINE
  5
3CB
  8
LAYER1$C$L1
 62
     3
 10
-132.50003051760001
 20
123.9998931885
 30
0.0
 11
-132.50003051760001
 21
122.9000091553
 31
0.0
  0
LINE
  5
3CC
  8
LAYER1$C$L1
 62
     3
 10
-176.66091871119991
 20
48.363210196300003
 30
0.0
 11
-168.29999101870001
 21
47.000017406799998
 31
0.0
  0
ARC
  5
3CD
  8
LAYER1$C$L1
 62
     3
 10
-99.300003051800005
 20
124.0
 30
0.0
 40
1.0
 50
180.0000906137
 51
270.00007262759988
  0
ARC
  5
3CE
  8
LAYER1$C$L1
 62
     3
 10
-106.0
 20
109.6999969482
 30
0.0
 40
0.5
 50
270.00007262759988
 51
0.0
  0
ARC
  5
3CF
  8
LAYER1$C$L1
 62
     3
 10
-105.0
 20
112.5
 30
0.0
 40
0.5
 50
89.999927372399995
 51
179.9999640277999
  0
ARC
  5
3D0
  8
LAYER1$C$L1
 62
     3
 10
-99.300003051800005
 20
124.0
 30
0.0
 40
1.0
 50
89.999927372399995
 51
179.9999093863
  0
ARC
  5
3D1
  8
LAYER1$C$L1
 62
     3
 10
-105.9999847412
 20
138.2999877929999
 30
0.0
 40
0.5
 50
0.0
 51
89.999927372399995
  0
ARC
  5
3D2
  8
LAYER1$C$L1
 62
     3
 10
-104.9999847412
 20
135.49999999999989
 30
0.0
 40
0.5
 50
179.9999093863
 51
269.9999460416999
  0
ARC
  5
3D3
  8
LAYER1$C$L1
 62
     3
 10
-105.0
 20
52.499984741200002
 30
0.0
 40
0.5
 50
89.999927372399995
 51
179.9999640277999
  0
ARC
  5
3D4
  8
LAYER1$C$L1
 62
     3
 10
-106.0
 20
45.999984741200002
 30
0.0
 40
0.5
 50
270.00007262759988
 51
0.0
  0
ARC
  5
3D5
  8
LAYER1$C$L1
 62
     3
 10
-106.0
 20
46.499984741200002
 30
0.0
 40
0.5
 50
270.00007262759988
 51
0.0
  0
ARC
  5
3D6
  8
LAYER1$C$L1
 62
     3
 10
-104.9999847412
 20
75.499984741199995
 30
0.0
 40
0.5
 50
179.9999093863
 51
269.9999460416999
  0
ARC
  5
3D7
  8
LAYER1$C$L1
 62
     3
 10
-105.9999847412
 20
81.999984741199995
 30
0.0
 40
0.5
 50
0.0
 51
89.999927372399995
  0
ARC
  5
3D8
  8
LAYER1$C$L1
 62
     3
 10
-105.9999847412
 20
81.499984741199995
 30
0.0
 40
0.5
 50
0.0
 51
89.999927372399995
  0
LINE
  5
3D9
  8
LAYER1$C$L1
 62
     3
 10
-139.49998277040001
 20
77.000076232799998
 30
0.0
 11
-150.86578199169989
 21
82.300034633500005
 31
0.0
  0
LINE
  5
3DA
  8
LAYER1$C$L1
 62
     3
 10
-119.5
 20
45.500076293900001
 30
0.0
 11
-119.5
 21
82.49989318850001
 31
0.0
  0
LINE
  5
3DB
  8
LAYER1$C$L1
 62
     3
 10
-131.86349030389991
 20
79.7012346777
 30
0.0
 11
-132.57633903350001
 21
80.064449212699998
 31
0.0
  0
LINE
  5
3DC
  8
LAYER1$C$L1
 62
     3
 10
-134.54204509839991
 20
74.444274401499996
 30
0.0
 11
-135.25489382799989
 21
74.807488936599995
 31
0.0
  0
LINE
  5
3DD
  8
LAYER1$C$L1
 62
     3
 10
-132.70106373699991
 20
75.414284376799998
 30
0.0
 11
-132.8372830424
 21
75.146938911899994
 31
0.0
  0
LINE
  5
3DE
  8
LAYER1$C$L1
 62
     3
 10
-132.8371531812999
 20
75.146959861499994
 30
0.0
 11
-133.37065088759999
 21
73.079790116799998
 31
0.0
  0
LINE
  5
3DF
  8
LAYER1$C$L1
 62
     3
 10
-133.58247721989991
 20
72.930570307300002
 30
0.0
 11
-133.94949163370001
 21
72.963961637300002
 31
0.0
  0
LINE
  5
3E0
  8
LAYER1$C$L1
 62
     3
 10
-135.01869354219991
 20
73.508758139899996
 30
0.0
 11
-134.65169432449991
 21
73.4753681925
 31
0.0
  0
LINE
  5
3E1
  8
LAYER1$C$L1
 62
     3
 10
-134.43986736089991
 20
73.624516240000005
 30
0.0
 11
-133.9063696545999
 21
75.691685984700001
 31
0.0
  0
LINE
  5
3E2
  8
LAYER1$C$L1
 62
     3
 10
-131.56608758839999
 20
77.641800700199994
 30
0.0
 11
-131.42992370179991
 21
77.909037399699997
 31
0.0
  0
LINE
  5
3E3
  8
LAYER1$C$L1
 62
     3
 10
-131.4298891121999
 20
77.909112554999993
 30
0.0
 11
-130.07110549689989
 21
79.5557613979
 31
0.0
  0
LINE
  5
3E4
  8
LAYER1$C$L1
 62
     3
 10
-130.07491170899991
 20
79.814804109899995
 30
0.0
 11
-130.3176515472
 21
80.092098076499994
 31
0.0
  0
LINE
  5
3E5
  8
LAYER1$C$L1
 62
     3
 10
-132.4991997873
 20
78.453908962599996
 30
0.0
 11
-131.14041617199999
 21
80.100557805600005
 31
0.0
  0
LINE
  5
3E6
  8
LAYER1$C$L1
 62
     3
 10
-131.14410242619999
 20
80.359560281900002
 30
0.0
 11
-131.3868422644
 21
80.636854248500001
 31
0.0
  0
LINE
  5
3E7
  8
LAYER1$C$L1
 62
     3
 10
-133.68057680250001
 20
73.051338979299999
 30
0.0
 11
-134.21515853790001
 21
73.3237230294
 31
0.0
  0
LINE
  5
3E8
  8
LAYER1$C$L1
 62
     3
 10
-130.23024268730001
 20
79.823065737299984
 30
0.0
 11
-130.76482506639991
 21
80.095448500100005
 31
0.0
  0
LINE
  5
3E9
  8
LAYER1$C$L1
 62
     3
 10
-134.2875697323999
 20
79.569597415000004
 30
0.0
 11
-135.9649109552
 21
78.480319432299993
 31
0.0
  0
LINE
  5
3EA
  8
LAYER1$C$L1
 62
     3
 10
-135.9124553298999
 20
77.481477640600005
 30
0.0
 11
-135.9647912925
 21
78.480107150999999
 31
0.0
  0
LINE
  5
3EB
  8
LAYER1$C$L1
 62
     3
 10
-133.3247248013999
 20
75.732055530899999
 30
0.0
 11
-132.75723672709989
 21
76.845813692600004
 31
0.0
  0
LINE
  5
3EC
  8
LAYER1$C$L1
 62
     3
 10
-132.18974865279989
 20
77.959571854300009
 30
0.0
 11
-132.75723672709989
 21
76.845813692600004
 31
0.0
  0
LINE
  5
3ED
  8
LAYER1$C$L1
 62
     3
 10
-133.7702280661
 20
75.959050760699995
 30
0.0
 11
-133.3247248013999
 21
75.732055530899999
 31
0.0
  0
LINE
  5
3EE
  8
LAYER1$C$L1
 62
     3
 10
-132.6352519173999
 20
78.186567083999975
 30
0.0
 11
-132.18974865279989
 21
77.959571854300009
 31
0.0
  0
LINE
  5
3EF
  8
LAYER1$C$L1
 62
     3
 10
-132.25556047239991
 20
75.187289147100003
 30
0.0
 11
-131.1205843237999
 21
77.414805470399997
 31
0.0
  0
LINE
  5
3F0
  8
LAYER1$C$L1
 62
     3
 10
-132.70106373699991
 20
75.414284376799998
 30
0.0
 11
-132.25556047239991
 21
75.187289147100003
 31
0.0
  0
LINE
  5
3F1
  8
LAYER1$C$L1
 62
     3
 10
-131.56608758839999
 20
77.641800700199994
 30
0.0
 11
-131.1205843237999
 21
77.414805470399997
 31
0.0
  0
LINE
  5
3F2
  8
LAYER1$C$L1
 62
     3
 10
-134.27873180770001
 20
76.723254800699991
 30
0.0
 11
-133.20274170819991
 21
77.072865110099997
 31
0.0
  0
LINE
  5
3F3
  8
LAYER1$C$L1
 62
     3
 10
-132.6579402708
 20
78.14202668770001
 30
0.0
 11
-133.73393037029999
 21
77.792416378300004
 31
0.0
  0
LINE
  5
3F4
  8
LAYER1$C$L1
 62
     3
 10
-132.32662986379989
 20
80.554408185699998
 30
0.0
 11
-133.27028165670001
 21
80.935668269399997
 31
0.0
  0
LINE
  5
3F5
  8
LAYER1$C$L1
 62
     3
 10
-136.36771411359999
 20
74.856870087800004
 30
0.0
 11
-135.50455188430001
 21
74.317506519799991
 31
0.0
  0
LINE
  5
3F6
  8
LAYER1$C$L1
 62
     3
 10
-132.32662211329989
 20
80.554546310000006
 30
0.0
 11
-135.50455532940001
 21
74.317500604700001
 31
0.0
  0
LINE
  5
3F7
  8
LAYER1$C$L1
 62
     3
 10
-133.9495375004999
 20
72.9640164212
 30
0.0
 11
-135.01870182949989
 21
73.508782804999996
 31
0.0
  0
LINE
  5
3F8
  8
LAYER1$C$L1
 62
     3
 10
-135.01870182949989
 20
73.508782804999996
 30
0.0
 11
-131.3867781539999
 21
80.636835039600001
 31
0.0
  0
LINE
  5
3F9
  8
LAYER1$C$L1
 62
     3
 10
-130.317613825
 20
80.092068655800006
 30
0.0
 11
-131.3867781539999
 21
80.636835039600001
 31
0.0
  0
LINE
  5
3FA
  8
LAYER1$C$L1
 62
     3
 10
-132.57626889030001
 20
47.935577664999997
 30
0.0
 11
-131.8634201607
 21
48.298792200000001
 31
0.0
  0
LINE
  5
3FB
  8
LAYER1$C$L1
 62
     3
 10
-135.25480983009999
 20
53.192510749799993
 30
0.0
 11
-134.5419611005
 21
53.555725284799991
 31
0.0
  0
LINE
  5
3FC
  8
LAYER1$C$L1
 62
     3
 10
-132.83721289920001
 20
52.853087965900002
 30
0.0
 11
-132.70100744850001
 21
52.585769692200003
 31
0.0
  0
LINE
  5
3FD
  8
LAYER1$C$L1
 62
     3
 10
-133.37062133829991
 20
54.920215619499999
 30
0.0
 11
-132.83713507120001
 21
52.853090198799997
 31
0.0
  0
LINE
  5
3FE
  8
LAYER1$C$L1
 62
     3
 10
-133.9494819617999
 20
55.03601472319999
 30
0.0
 11
-133.58246754809991
 21
55.069406053199998
 31
0.0
  0
LINE
  5
3FF
  8
LAYER1$C$L1
 62
     3
 10
-134.6516846527
 20
54.524608168100002
 30
0.0
 11
-135.01868387039991
 21
54.491218220599997
 31
0.0
  0
LINE
  5
400
  8
LAYER1$C$L1
 62
     3
 10
-133.90633629219991
 20
52.308304976800002
 30
0.0
 11
-134.43983018540001
 21
54.375459946899987
 31
0.0
  0
LINE
  5
401
  8
LAYER1$C$L1
 62
     3
 10
-131.4298397039999
 20
50.090962286699991
 30
0.0
 11
-131.56604515459989
 21
50.358280560299988
 31
0.0
  0
LINE
  5
402
  8
LAYER1$C$L1
 62
     3
 10
-130.0710844690999
 20
48.444340861899988
 30
0.0
 11
-131.4298680844
 21
50.090989704800002
 31
0.0
  0
LINE
  5
403
  8
LAYER1$C$L1
 62
     3
 10
-130.3175969847
 20
47.907985733300002
 30
0.0
 11
-130.07485714649999
 21
48.185279699799992
 31
0.0
  0
LINE
  5
404
  8
LAYER1$C$L1
 62
     3
 10
-131.1403562973999
 20
47.899497377499991
 30
0.0
 11
-132.49913991259999
 21
49.546146220399997
 31
0.0
  0
LINE
  5
405
  8
LAYER1$C$L1
 62
     3
 10
-131.3867762207999
 20
47.363219510799993
 30
0.0
 11
-131.14403638249991
 21
47.64051347729999
 31
0.0
  0
LINE
  5
406
  8
LAYER1$C$L1
 62
     3
 10
-134.21509766080001
 20
54.676291532199997
 30
0.0
 11
-133.68051592539999
 21
54.948675582299998
 31
0.0
  0
LINE
  5
407
  8
LAYER1$C$L1
 62
     3
 10
-130.76481441239989
 20
47.904659967699999
 30
0.0
 11
-130.23023203330001
 21
48.177042730399997
 31
0.0
  0
LINE
  5
408
  8
LAYER1$C$L1
 62
     3
 10
-135.96488219959991
 20
49.519756102199999
 30
0.0
 11
-134.28754097679999
 21
48.430478119500002
 31
0.0
  0
LINE
  5
409
  8
LAYER1$C$L1
 62
     3
 10
-135.96481442449999
 20
49.519773323700001
 30
0.0
 11
-135.91247846190001
 21
50.518402834100002
 31
0.0
  0
LINE
  5
40A
  8
LAYER1$C$L1
 62
     3
 10
-132.75718043859999
 20
51.154240376499999
 30
0.0
 11
-133.32466851289999
 21
52.267998538100002
 31
0.0
  0
LINE
  5
40B
  8
LAYER1$C$L1
 62
     3
 10
-132.75718043859999
 20
51.154240376499999
 30
0.0
 11
-132.1897062189999
 21
50.040509406200002
 31
0.0
  0
LINE
  5
40C
  8
LAYER1$C$L1
 62
     3
 10
-133.32466851289999
 20
52.267998538100002
 30
0.0
 11
-133.77017177749991
 21
52.041003308400001
 31
0.0
  0
LINE
  5
40D
  8
LAYER1$C$L1
 62
     3
 10
-132.1897062189999
 20
50.040509406200002
 30
0.0
 11
-132.63520948359991
 21
49.8135141765
 31
0.0
  0
LINE
  5
40E
  8
LAYER1$C$L1
 62
     3
 10
-131.12054188990001
 20
50.58527578999999
 30
0.0
 11
-132.25550418389989
 21
52.812764921999992
 31
0.0
  0
LINE
  5
40F
  8
LAYER1$C$L1
 62
     3
 10
-132.25550418389989
 20
52.812764921999992
 30
0.0
 11
-132.70100744850001
 21
52.585769692200003
 31
0.0
  0
LINE
  5
410
  8
LAYER1$C$L1
 62
     3
 10
-131.12054188990001
 20
50.58527578999999
 30
0.0
 11
-131.56604515459989
 21
50.358280560299988
 31
0.0
  0
LINE
  5
411
  8
LAYER1$C$L1
 62
     3
 10
-133.20277191100001
 20
50.927142400800001
 30
0.0
 11
-134.27876201049989
 21
51.276752710200007
 31
0.0
  0
LINE
  5
412
  8
LAYER1$C$L1
 62
     3
 10
-133.73397000349999
 20
50.207562108700003
 30
0.0
 11
-132.6579653920999
 21
49.857947084099997
 31
0.0
  0
LINE
  5
413
  8
LAYER1$C$L1
 62
     3
 10
-133.2702136337999
 20
47.064330659600003
 30
0.0
 11
-132.3265476931999
 21
47.445596459299999
 31
0.0
  0
LINE
  5
414
  8
LAYER1$C$L1
 62
     3
 10
-135.50452327089991
 20
53.682539585199997
 30
0.0
 11
-136.36768550019991
 21
53.1431760173
 31
0.0
  0
LINE
  5
415
  8
LAYER1$C$L1
 62
     3
 10
-135.50449904089999
 20
53.682553464399987
 30
0.0
 11
-132.32657967950001
 21
47.445534950400003
 31
0.0
  0
LINE
  5
416
  8
LAYER1$C$L1
 62
     3
 10
-135.01864554100001
 20
54.4912712641
 30
0.0
 11
-133.94948121199991
 21
55.036037647900002
 31
0.0
  0
LINE
  5
417
  8
LAYER1$C$L1
 62
     3
 10
-131.38673572019991
 20
47.363246220800001
 30
0.0
 11
-135.01864554100001
 21
54.4912712641
 31
0.0
  0
LINE
  5
418
  8
LAYER1$C$L1
 62
     3
 10
-131.38673572019991
 20
47.363246220800001
 30
0.0
 11
-130.31757139109999
 21
47.908012604600003
 31
0.0
  0
LINE
  5
419
  8
LAYER1$C$L1
 62
     3
 10
-137.65257263180001
 20
62.357345581099992
 30
0.0
 11
-137.78756713870001
 21
62.357345581099992
 31
0.0
  0
LINE
  5
41A
  8
LAYER1$C$L1
 62
     3
 10
-137.78756713870001
 20
61.3223114014
 30
0.0
 11
-138.26007080080001
 21
61.3223114014
 31
0.0
  0
LINE
  5
41B
  8
LAYER1$C$L1
 62
     3
 10
-137.65257263180001
 20
62.357345581099992
 30
0.0
 11
-137.65257263180001
 21
61.3223114014
 31
0.0
  0
LINE
  5
41C
  8
LAYER1$C$L1
 62
     3
 10
-137.78756713870001
 20
62.357345581099992
 30
0.0
 11
-137.78756713870001
 21
61.3223114014
 31
0.0
  0
LINE
  5
41D
  8
LAYER1$C$L1
 62
     3
 10
-138.3275604248
 20
62.334884643599999
 30
0.0
 11
-138.3275604248
 21
61.389816284200002
 31
0.0
  0
LINE
  5
41E
  8
LAYER1$C$L1
 62
     3
 10
-137.45005798339989
 20
62.672409057599999
 30
0.0
 11
-137.99006652829991
 21
62.672409057599999
 31
0.0
  0
LINE
  5
41F
  8
LAYER1$C$L1
 62
     3
 10
-137.9225616455
 20
62.852340698199988
 30
0.0
 11
-138.26007080080001
 21
62.852340698199988
 31
0.0
  0
LINE
  5
420
  8
LAYER1$C$L1
 62
     3
 10
-137.42756652829991
 20
63.482345581099999
 30
0.0
 11
-137.78756713870001
 21
63.482345581099999
 31
0.0
  0
LINE
  5
421
  8
LAYER1$C$L1
 62
     3
 10
-137.42756652829991
 20
63.617355346700002
 30
0.0
 11
-137.9225616455
 21
63.617355346700002
 31
0.0
  0
LINE
  5
422
  8
LAYER1$C$L1
 62
     3
 10
-137.42756652829991
 20
63.617355346700002
 30
0.0
 11
-137.42756652829991
 21
63.482345581099999
 31
0.0
  0
LINE
  5
423
  8
LAYER1$C$L1
 62
     3
 10
-137.78756713870001
 20
63.482345581099999
 30
0.0
 11
-137.78756713870001
 21
62.852340698199988
 31
0.0
  0
LINE
  5
424
  8
LAYER1$C$L1
 62
     3
 10
-137.9225616455
 20
63.617355346700002
 30
0.0
 11
-137.9225616455
 21
62.852340698199988
 31
0.0
  0
LINE
  5
425
  8
LAYER1$C$L1
 62
     3
 10
-138.3275604248
 20
63.954879760700003
 30
0.0
 11
-138.3275604248
 21
62.919845581099999
 31
0.0
  0
LINE
  5
426
  8
LAYER1$C$L1
 62
     3
 10
-137.1800689696999
 20
62.852340698199988
 30
0.0
 11
-137.78756713870001
 21
62.852340698199988
 31
0.0
  0
LINE
  5
427
  8
LAYER1$C$L1
 62
     3
 10
-137.11256408689999
 20
62.334884643599999
 30
0.0
 11
-137.11256408689999
 21
61.389816284200002
 31
0.0
  0
LINE
  5
428
  8
LAYER1$C$L1
 62
     3
 10
-137.11256408689999
 20
63.954879760700003
 30
0.0
 11
-137.11256408689999
 21
62.919845581099999
 31
0.0
  0
LINE
  5
429
  8
LAYER1$C$L1
 62
     3
 10
-137.45005798339989
 20
64.292404174799984
 30
0.0
 11
-137.99006652829991
 21
64.292404174799984
 31
0.0
  0
LINE
  5
42A
  8
LAYER1$C$L1
 62
     3
 10
-136.64006042479991
 20
64.472335815400001
 30
0.0
 11
-138.26007080080001
 21
64.472335815400001
 31
0.0
  0
LINE
  5
42B
  8
LAYER1$C$L1
 62
     3
 10
-137.65257263180001
 20
65.2373504639
 30
0.0
 11
-137.65257263180001
 21
65.102340698199995
 31
0.0
  0
LINE
  5
42C
  8
LAYER1$C$L1
 62
     3
 10
-136.64006042479991
 20
65.102340698199995
 30
0.0
 11
-137.65257263180001
 21
65.102340698199995
 31
0.0
  0
LINE
  5
42D
  8
LAYER1$C$L1
 62
     3
 10
-136.97756958010001
 20
65.2373504639
 30
0.0
 11
-137.65257263180001
 21
65.2373504639
 31
0.0
  0
LINE
  5
42E
  8
LAYER1$C$L1
 62
     3
 10
-137.3150634765999
 20
65.867355346699995
 30
0.0
 11
-137.99006652829991
 21
65.867355346699995
 31
0.0
  0
LINE
  5
42F
  8
LAYER1$C$L1
 62
     3
 10
-136.97756958010001
 20
66.677413940400001
 30
0.0
 11
-138.26007080080001
 21
66.677413940400001
 31
0.0
  0
LINE
  5
430
  8
LAYER1$C$L1
 62
     3
 10
-136.97756958010001
 20
66.047409057600007
 30
0.0
 11
-138.26007080080001
 21
66.047409057600007
 31
0.0
  0
LINE
  5
431
  8
LAYER1$C$L1
 62
     3
 10
-136.57257080080001
 20
65.034835815400001
 30
0.0
 11
-136.57257080080001
 21
64.539840698199995
 31
0.0
  0
LINE
  5
432
  8
LAYER1$C$L1
 62
     3
 10
-138.3275604248
 20
65.529830932600007
 30
0.0
 11
-138.3275604248
 21
64.539840698199995
 31
0.0
  0
LINE
  5
433
  8
LAYER1$C$L1
 62
     3
 10
-136.97756958010001
 20
65.529830932600007
 30
0.0
 11
-136.97756958010001
 21
65.2373504639
 31
0.0
  0
LINE
  5
434
  8
LAYER1$C$L1
 62
     3
 10
-136.84255981449999
 20
66.677413940400001
 30
0.0
 11
-136.84255981449999
 21
66.047409057600007
 31
0.0
  0
LINE
  5
435
  8
LAYER1$C$L1
 62
     3
 10
-136.97756958010001
 20
66.677413940400001
 30
0.0
 11
-136.97756958010001
 21
66.047409057600007
 31
0.0
  0
LINE
  5
436
  8
LAYER1$C$L1
 62
     3
 10
-136.64006042479991
 20
66.047409057600007
 30
0.0
 11
-136.84255981449999
 21
66.047409057600007
 31
0.0
  0
LINE
  5
437
  8
LAYER1$C$L1
 62
     3
 10
-136.57257080080001
 20
66.609909057600007
 30
0.0
 11
-136.57257080080001
 21
66.114913940400001
 31
0.0
  0
LINE
  5
438
  8
LAYER1$C$L1
 62
     3
 10
-138.3275604248
 20
66.609909057600007
 30
0.0
 11
-138.3275604248
 21
66.114913940400001
 31
0.0
  0
LINE
  5
439
  8
LAYER1$C$L1
 62
     3
 10
-136.64006042479991
 20
66.677413940400001
 30
0.0
 11
-136.84255981449999
 21
66.677413940400001
 31
0.0
  0
LINE
  5
43A
  8
LAYER1$C$L1
 62
     3
 10
-137.1800689696999
 20
61.3223114014
 30
0.0
 11
-137.65257263180001
 21
61.3223114014
 31
0.0
  0
LINE
  5
43B
  8
LAYER1$C$L1
 62
     3
 10
-136.20008850100001
 20
60.999801635699988
 30
0.0
 11
-138.70008850100001
 21
60.999801635699988
 31
0.0
  0
LINE
  5
43C
  8
LAYER1$C$L1
 62
     3
 10
-136.20008850100001
 20
66.999801635699995
 30
0.0
 11
-138.70008850100001
 21
66.999801635699995
 31
0.0
  0
LINE
  5
43D
  8
LAYER1$C$L1
 62
     3
 10
-133.70008850100001
 20
57.999801635699988
 30
0.0
 11
-133.70008850100001
 21
69.999786376999992
 31
0.0
  0
LINE
  5
43E
  8
LAYER1$C$L1
 62
     3
 10
-135.70008850100001
 20
57.999801635699988
 30
0.0
 11
-135.70008850100001
 21
69.999786376999992
 31
0.0
  0
LINE
  5
43F
  8
LAYER1$C$L1
 62
     3
 10
-136.20008850100001
 20
60.999801635699988
 30
0.0
 11
-136.20008850100001
 21
66.999801635699995
 31
0.0
  0
LINE
  5
440
  8
LAYER1$C$L1
 62
     3
 10
-133.70008850100001
 20
69.999786376999992
 30
0.0
 11
-135.70008850100001
 21
69.999786376999992
 31
0.0
  0
LINE
  5
441
  8
LAYER1$C$L1
 62
     3
 10
-133.70008850100001
 20
57.999801635699988
 30
0.0
 11
-135.70008850100001
 21
57.999801635699988
 31
0.0
  0
LINE
  5
442
  8
LAYER1$C$L1
 62
     3
 10
-138.70008850100001
 20
60.999801635699988
 30
0.0
 11
-138.70008850100001
 21
66.999801635699995
 31
0.0
  0
LINE
  5
443
  8
LAYER1$C$L1
 62
     3
 10
-134.10002136229991
 20
71.899810790999993
 30
0.0
 11
-133.40003967289999
 21
71.899810790999993
 31
0.0
  0
LINE
  5
444
  8
LAYER1$C$L1
 62
     3
 10
-133.40003967289999
 20
56.099899292000003
 30
0.0
 11
-134.10002136229991
 21
56.099899292000003
 31
0.0
  0
LINE
  5
445
  8
LAYER1$C$L1
 62
     3
 10
-137.42553489030001
 20
73.999419763199995
 30
0.0
 11
-133.43871029510001
 21
71.968031361200005
 31
0.0
  0
LINE
  5
446
  8
LAYER1$C$L1
 62
     3
 10
-134.10000610349991
 20
70.799789428699995
 30
0.0
 11
-134.10000610349991
 21
72.305145263699998
 31
0.0
  0
LINE
  5
447
  8
LAYER1$C$L1
 62
     3
 10
-134.10000610349991
 20
55.69448852539999
 30
0.0
 11
-134.10000610349991
 21
57.199859619099989
 31
0.0
  0
LINE
  5
448
  8
LAYER1$C$L1
 62
     3
 10
-138.70007324220001
 20
70.099838256799998
 30
0.0
 11
-139.5
 21
70.099838256799998
 31
0.0
  0
LINE
  5
449
  8
LAYER1$C$L1
 62
     3
 10
-138.70007324220001
 20
57.899810791000007
 30
0.0
 11
-139.5
 21
57.899810791000007
 31
0.0
  0
LINE
  5
44A
  8
LAYER1$C$L1
 62
     3
 10
-138.70007324220001
 20
67.399765014600007
 30
0.0
 11
-139.5
 21
67.399765014600007
 31
0.0
  0
LINE
  5
44B
  8
LAYER1$C$L1
 62
     3
 10
-138.70007324220001
 20
60.599884033199999
 30
0.0
 11
-139.5
 21
60.599884033199999
 31
0.0
  0
LINE
  5
44C
  8
LAYER1$C$L1
 62
     3
 10
-139.5
 20
70.799789428699995
 30
0.0
 11
-134.10000610349991
 21
70.799789428699995
 31
0.0
  0
LINE
  5
44D
  8
LAYER1$C$L1
 62
     3
 10
-139.5
 20
70.699813842799998
 30
0.0
 11
-134.0000152588
 21
70.699813842799998
 31
0.0
  0
LINE
  5
44E
  8
LAYER1$C$L1
 62
     3
 10
-139.5
 20
76.899749755900004
 30
0.0
 11
-136.5898895263999
 21
76.899749755900004
 31
0.0
  0
LINE
  5
44F
  8
LAYER1$C$L1
 62
     3
 10
-139.5
 20
73.999725341800001
 30
0.0
 11
-137.4252166748
 21
73.999725341800001
 31
0.0
  0
LINE
  5
450
  8
LAYER1$C$L1
 62
     3
 10
-134.10000610349991
 20
57.199859619099989
 30
0.0
 11
-139.5
 21
57.199859619099989
 31
0.0
  0
LINE
  5
451
  8
LAYER1$C$L1
 62
     3
 10
-134.0
 20
57.299835205100003
 30
0.0
 11
-139.5
 21
57.299835205100003
 31
0.0
  0
LINE
  5
452
  8
LAYER1$C$L1
 62
     3
 10
-136.58978271480001
 20
51.099807739300012
 30
0.0
 11
-139.5
 21
51.099807739300012
 31
0.0
  0
LINE
  5
453
  8
LAYER1$C$L1
 62
     3
 10
-133.43871229359999
 20
56.031666557299992
 30
0.0
 11
-137.42550969749999
 21
54.000292010099997
 31
0.0
  0
LINE
  5
454
  8
LAYER1$C$L1
 62
     3
 10
-139.5
 20
46.000167846700002
 30
0.0
 11
-139.5
 21
82.000167846699995
 31
0.0
  0
LINE
  5
455
  8
LAYER1$C$L1
 62
     3
 10
-137.4252166748
 20
53.999786377
 30
0.0
 11
-139.5
 21
53.999786377
 31
0.0
  0
LINE
  5
456
  8
LAYER1$C$L1
 62
     3
 10
-128.6617431640999
 20
45.500091552699999
 30
0.0
 11
-128.6617431640999
 21
46.200531005899997
 31
0.0
  0
LINE
  5
457
  8
LAYER1$C$L1
 62
     3
 10
-128.662109375
 20
81.800018310500008
 30
0.0
 11
-128.662109375
 21
82.499969482400004
 31
0.0
  0
LINE
  5
458
  8
LAYER1$C$L1
 62
     3
 10
-138.70007324220001
 20
67.400009155299998
 30
0.0
 11
-138.70007324220001
 21
70.099960327100007
 31
0.0
  0
LINE
  5
459
  8
LAYER1$C$L1
 62
     3
 10
-139.4999847412
 20
70.099960327100007
 30
0.0
 11
-138.70007324220001
 21
70.099960327100007
 31
0.0
  0
LINE
  5
45A
  8
LAYER1$C$L1
 62
     3
 10
-139.4999847412
 20
67.400009155299998
 30
0.0
 11
-138.70007324220001
 21
67.400009155299998
 31
0.0
  0
LINE
  5
45B
  8
LAYER1$C$L1
 62
     3
 10
-138.70007324220001
 20
57.900054931599989
 30
0.0
 11
-138.70007324220001
 21
60.600128173800002
 31
0.0
  0
LINE
  5
45C
  8
LAYER1$C$L1
 62
     3
 10
-138.70007324220001
 20
57.900054931599989
 30
0.0
 11
-139.4999847412
 21
57.900054931599989
 31
0.0
  0
LINE
  5
45D
  8
LAYER1$C$L1
 62
     3
 10
-138.70007324220001
 20
60.600128173800002
 30
0.0
 11
-139.4999847412
 21
60.600128173800002
 31
0.0
  0
LINE
  5
45E
  8
LAYER1$C$L1
 62
     3
 10
-119.5006517838999
 20
78.254553404899994
 30
0.0
 11
-127.8332813270999
 21
82.500239817099995
 31
0.0
  0
LINE
  5
45F
  8
LAYER1$C$L1
 62
     3
 10
-119.50065527389989
 20
77.132228982800001
 30
0.0
 11
-128.66218627709989
 21
81.800261743999997
 31
0.0
  0
LINE
  5
460
  8
LAYER1$C$L1
 62
     3
 10
-127.8329924239
 20
45.500634913999988
 30
0.0
 11
-119.50036288059989
 21
49.746321326100002
 31
0.0
  0
LINE
  5
461
  8
LAYER1$C$L1
 62
     3
 10
-128.6618973738999
 20
46.200612987100001
 30
0.0
 11
-119.50036637059991
 21
50.86864574829999
 31
0.0
  0
LINE
  5
462
  8
LAYER1$C$L1
 62
     3
 10
-139.0
 20
82.499969482400004
 30
0.0
 11
-119.5
 21
82.499969482400004
 31
0.0
  0
LINE
  5
463
  8
LAYER1$C$L1
 62
     3
 10
-130.0005807638
 20
80.068356984299996
 30
0.0
 11
-131.1729635005
 21
80.665715768799984
 31
0.0
  0
LINE
  5
464
  8
LAYER1$C$L1
 62
     3
 10
-130.0
 20
79.172821044900004
 30
0.0
 11
-130.0
 21
80.067962646499993
 31
0.0
  0
LINE
  5
465
  8
LAYER1$C$L1
 62
     3
 10
-130.9000244140999
 20
81.800018310500008
 30
0.0
 11
-128.66149902340001
 21
81.800018310500008
 31
0.0
  0
LINE
  5
466
  8
LAYER1$C$L1
 62
     3
 10
-133.40060336510001
 20
72.500324825600003
 30
0.0
 11
-130.00060675569989
 21
79.173194520699994
 31
0.0
  0
LINE
  5
467
  8
LAYER1$C$L1
 62
     3
 10
-133.4000244140999
 20
70.700057983400001
 30
0.0
 11
-133.4000244140999
 21
72.499969482400004
 31
0.0
  0
LINE
  5
468
  8
LAYER1$C$L1
 62
     3
 10
-139.4999847412
 20
70.700057983400001
 30
0.0
 11
-133.4000244140999
 21
70.700057983400001
 31
0.0
  0
LINE
  5
469
  8
LAYER1$C$L1
 62
     3
 10
-122.0004502014
 20
70.600349610400002
 30
0.0
 11
-121.6003725638999
 21
71.000428192200005
 31
0.0
  0
LINE
  5
46A
  8
LAYER1$C$L1
 62
     3
 10
-122.00029135779999
 20
67.600350134999999
 30
0.0
 11
-121.6002995648999
 21
67.200358342000001
 31
0.0
  0
LINE
  5
46B
  8
LAYER1$C$L1
 62
     3
 10
-133.1003943133
 20
67.2003643611
 30
0.0
 11
-132.70031573139991
 21
67.600441998699992
 31
0.0
  0
LINE
  5
46C
  8
LAYER1$C$L1
 62
     3
 10
-133.10027940439991
 20
71.000366691899998
 30
0.0
 11
-132.7002876114
 21
70.6003748989
 31
0.0
  0
LINE
  5
46D
  8
LAYER1$C$L1
 62
     3
 10
-122.0
 20
67.600082397500003
 30
0.0
 11
-122.0
 21
70.600082397500003
 31
0.0
  0
LINE
  5
46E
  8
LAYER1$C$L1
 62
     3
 10
-132.70007324220001
 20
67.600082397500003
 30
0.0
 11
-132.70007324220001
 21
70.600082397500003
 31
0.0
  0
LINE
  5
46F
  8
LAYER1$C$L1
 62
     3
 10
-133.10009765629991
 20
67.200057983400001
 30
0.0
 11
-133.10009765629991
 21
70.999984741199995
 31
0.0
  0
LINE
  5
470
  8
LAYER1$C$L1
 62
     3
 10
-121.60009765629989
 20
67.200057983400001
 30
0.0
 11
-121.60009765629989
 21
70.999984741199995
 31
0.0
  0
LINE
  5
471
  8
LAYER1$C$L1
 62
     3
 10
-132.70007324220001
 20
70.600082397500003
 30
0.0
 11
-122.0
 21
70.600082397500003
 31
0.0
  0
LINE
  5
472
  8
LAYER1$C$L1
 62
     3
 10
-132.70007324220001
 20
67.600082397500003
 30
0.0
 11
-122.0
 21
67.600082397500003
 31
0.0
  0
LINE
  5
473
  8
LAYER1$C$L1
 62
     3
 10
-133.10009765629991
 20
70.999984741199995
 30
0.0
 11
-121.60009765629989
 21
70.999984741199995
 31
0.0
  0
LINE
  5
474
  8
LAYER1$C$L1
 62
     3
 10
-133.10009765629991
 20
67.200057983400001
 30
0.0
 11
-121.60009765629989
 21
67.200057983400001
 31
0.0
  0
LINE
  5
475
  8
LAYER1$C$L1
 62
     3
 10
-119.5
 20
45.500091552699999
 30
0.0
 11
-139.0
 21
45.500091552699999
 31
0.0
  0
LINE
  5
476
  8
LAYER1$C$L1
 62
     3
 10
-131.17273694339991
 20
47.335281323399997
 30
0.0
 11
-130.00035420660001
 21
47.932640107899992
 31
0.0
  0
LINE
  5
477
  8
LAYER1$C$L1
 62
     3
 10
-130.0
 20
47.932098388699998
 30
0.0
 11
-130.0
 21
48.827239990200013
 31
0.0
  0
LINE
  5
478
  8
LAYER1$C$L1
 62
     3
 10
-128.66149902340001
 20
46.200164794899997
 30
0.0
 11
-130.9000244140999
 21
46.200164794899997
 31
0.0
  0
LINE
  5
479
  8
LAYER1$C$L1
 62
     3
 10
-130.0003801986
 20
48.827802571499987
 30
0.0
 11
-133.40036944760001
 21
55.500657821200001
 31
0.0
  0
LINE
  5
47A
  8
LAYER1$C$L1
 62
     3
 10
-133.4000244140999
 20
55.500152587899997
 30
0.0
 11
-133.4000244140999
 21
57.300079345699999
 31
0.0
  0
LINE
  5
47B
  8
LAYER1$C$L1
 62
     3
 10
-133.4000244140999
 20
57.300079345699999
 30
0.0
 11
-139.4999847412
 21
57.300079345699999
 31
0.0
  0
LINE
  5
47C
  8
LAYER1$C$L1
 62
     3
 10
-121.6003509837
 20
57.000398225399991
 30
0.0
 11
-122.0003423045999
 21
57.400390490399992
 31
0.0
  0
LINE
  5
47D
  8
LAYER1$C$L1
 62
     3
 10
-121.6002995648999
 20
60.8003170211
 30
0.0
 11
-122.00029135779999
 21
60.400325228199989
 31
0.0
  0
LINE
  5
47E
  8
LAYER1$C$L1
 62
     3
 10
-132.70033731160001
 20
60.400384418900011
 30
0.0
 11
-133.1003295765999
 21
60.800375739800003
 31
0.0
  0
LINE
  5
47F
  8
LAYER1$C$L1
 62
     3
 10
-132.70037392809991
 20
57.4003867809
 30
0.0
 11
-133.10036572109999
 21
57.000394987999996
 31
0.0
  0
LINE
  5
480
  8
LAYER1$C$L1
 62
     3
 10
-122.0
 20
57.400054931599989
 30
0.0
 11
-122.0
 21
60.400054931599989
 31
0.0
  0
LINE
  5
481
  8
LAYER1$C$L1
 62
     3
 10
-132.70007324220001
 20
57.400054931599989
 30
0.0
 11
-132.70007324220001
 21
60.400054931599989
 31
0.0
  0
LINE
  5
482
  8
LAYER1$C$L1
 62
     3
 10
-133.10009765629991
 20
57.000030517600003
 30
0.0
 11
-133.10009765629991
 21
60.800079345699999
 31
0.0
  0
LINE
  5
483
  8
LAYER1$C$L1
 62
     3
 10
-121.60009765629989
 20
57.000030517600003
 30
0.0
 11
-121.60009765629989
 21
60.800079345699999
 31
0.0
  0
LINE
  5
484
  8
LAYER1$C$L1
 62
     3
 10
-122.0
 20
57.400054931599989
 30
0.0
 11
-132.70007324220001
 21
57.400054931599989
 31
0.0
  0
LINE
  5
485
  8
LAYER1$C$L1
 62
     3
 10
-122.0
 20
60.400054931599989
 30
0.0
 11
-132.70007324220001
 21
60.400054931599989
 31
0.0
  0
LINE
  5
486
  8
LAYER1$C$L1
 62
     3
 10
-121.60009765629989
 20
57.000030517600003
 30
0.0
 11
-133.10009765629991
 21
57.000030517600003
 31
0.0
  0
LINE
  5
487
  8
LAYER1$C$L1
 62
     3
 10
-121.60009765629989
 20
60.800079345699999
 30
0.0
 11
-133.10009765629991
 21
60.800079345699999
 31
0.0
  0
LINE
  5
488
  8
LAYER1$C$L1
 62
     3
 10
-130.00001825439989
 20
48.386393006200002
 30
0.0
 11
-133.3515922915999
 21
54.964228043599988
 31
0.0
  0
LINE
  5
489
  8
LAYER1$C$L1
 62
     3
 10
-133.43867492679991
 20
55.327316284200002
 30
0.0
 11
-133.43867492679991
 21
57.299972534200002
 31
0.0
  0
LINE
  5
48A
  8
LAYER1$C$L1
 62
     3
 10
-133.3515636388999
 20
73.036228004600005
 30
0.0
 11
-130.00005887509991
 21
79.613927085200004
 31
0.0
  0
LINE
  5
48B
  8
LAYER1$C$L1
 62
     3
 10
-133.4386596679999
 20
70.699935913100006
 30
0.0
 11
-133.4386596679999
 21
72.673080444299998
 31
0.0
  0
LINE
  5
48C
  8
LAYER1$C$L1
 62
     3
 10
-108.00109863279999
 20
128.10000610349991
 30
0.0
 11
-108.00109863279999
 21
125.0999908446999
 31
0.0
  0
LINE
  5
48D
  8
LAYER1$C$L1
 62
     3
 10
-107.99993896479999
 20
128.10000610349991
 30
0.0
 11
-119.5
 21
128.10000610349991
 31
0.0
  0
LINE
  5
48E
  8
LAYER1$C$L1
 62
     3
 10
-177.20001220699999
 20
122.9998474120999
 30
0.0
 11
-168.30001831049989
 21
122.9998474120999
 31
0.0
  0
LINE
  5
48F
  8
LAYER1$C$L1
 62
     3
 10
-119.7999877929999
 20
109.29992675779999
 30
0.0
 11
-139.49969482419991
 21
109.29992675779999
 31
0.0
  0
LINE
  5
490
  8
LAYER1$C$L1
 62
     3
 10
-128.6611328125
 20
109.299911499
 30
0.0
 11
-128.6611328125
 21
118.700012207
 31
0.0
  0
LINE
  5
491
  8
LAYER1$C$L1
 62
     3
 10
-133.4997253418
 20
118.70007324219991
 30
0.0
 11
-133.4997253418
 21
118.44309997559991
 31
0.0
  0
LINE
  5
492
  8
LAYER1$C$L1
 62
     3
 10
-177.5000152588
 20
123.9998168945
 30
0.0
 11
-177.5000152588
 21
123.2998352050999
 31
0.0
  0
LINE
  5
493
  8
LAYER1$C$L1
 62
     3
 10
-133.4997253418
 20
111.2571105957
 30
0.0
 11
-133.4997253418
 21
109.30006408689999
 31
0.0
  0
LINE
  5
494
  8
LAYER1$C$L1
 62
     3
 10
-160.50003051760001
 20
138.79980468749989
 30
0.0
 11
-167.30001831049989
 21
138.79980468749989
 31
0.0
  0
LINE
  5
495
  8
LAYER1$C$L1
 62
     3
 10
-168.30001831049989
 20
137.79980468749989
 30
0.0
 11
-168.30001831049989
 21
123.9998168945
 31
0.0
  0
LINE
  5
496
  8
LAYER1$C$L1
 62
     3
 10
-133.11477131169991
 20
113.4427655148
 30
0.0
 11
-133.63854444270001
 21
114.3499673435
 31
0.0
  0
LINE
  5
497
  8
LAYER1$C$L1
 62
     3
 10
-133.92721780909989
 20
114.84996436599999
 30
0.0
 11
-134.83884642359999
 21
116.42895171249999
 31
0.0
  0
LINE
  5
498
  8
LAYER1$C$L1
 62
     3
 10
-134.91687906850001
 20
113.1357825989999
 30
0.0
 11
-133.92723227479991
 21
114.8499014187
 31
0.0
  0
ARC
  5
499
  8
LAYER4$C$L4
  6
PHANTOM
 62
     3
 10
-168.89994812009991
 20
63.4000396729
 30
0.0
 40
0.5999999642000001
 50
0.0
 51
89.999872730899995
  0
LINE
  5
49A
  8
LAYER1$C$L1
 62
     3
 10
-133.63848876949999
 20
115.35000610349999
 30
0.0
 11
-134.15734863279991
 21
115.35000610349999
 31
0.0
  0
LINE
  5
49B
  8
LAYER1$C$L1
 62
     3
 10
-133.92718505859989
 20
114.8500213623
 30
0.0
 11
-134.33056640629991
 21
114.8500213623
 31
0.0
  0
LINE
  5
49C
  8
LAYER1$C$L1
 62
     3
 10
-133.63848876949999
 20
114.3500213622999
 30
0.0
 11
-134.15734863279991
 21
114.3500213622999
 31
0.0
  0
LINE
  5
49D
  8
LAYER1$C$L1
 62
     3
 10
-108.00109863279999
 20
119.8999633789
 30
0.0
 11
-108.00109863279999
 21
122.8999786377
 31
0.0
  0
ARC
  5
49E
  8
LAYER4$C$L4
  6
PHANTOM
 62
     3
 10
-179.5000457763999
 20
46.100067138699991
 30
0.0
 40
1.0
 50
180.00003597220001
 51
269.99996334460002
  0
LINE
  5
49F
  8
LAYER1$C$L1
 62
     3
 10
-107.99993896479999
 20
119.8999633789
 30
0.0
 11
-119.49993896479999
 21
119.8999633789
 31
0.0
  0
LINE
  5
4A0
  8
LAYER4$C$L4
  6
PHANTOM
 62
     3
 10
-179.49998474119991
 20
136.99996948239991
 30
0.0
 11
-177.49998474119991
 21
136.99996948239991
 31
0.0
  0
LINE
  5
4A1
  8
LAYER1$C$L1
 62
     3
 10
-133.6385512789999
 20
115.3499116557
 30
0.0
 11
-132.553865129
 21
117.2286434973
 31
0.0
  0
LINE
  5
4A2
  8
LAYER1$C$L1
 62
     3
 10
-132.55381087609999
 20
117.22874151480001
 30
0.0
 11
-132.32910664420001
 21
116.41793276360001
 31
0.0
  0
LINE
  5
4A3
  8
LAYER1$C$L1
 62
     3
 10
-132.55380249020001
 20
117.2287445068
 30
0.0
 11
-132.78396606449999
 21
117.2287445068
 31
0.0
  0
LINE
  5
4A4
  8
LAYER1$C$L1
 62
     3
 10
-132.32913208010001
 20
116.4179382324
 30
0.0
 11
-132.55926513669991
 21
116.4179382324
 31
0.0
  0
LINE
  5
4A5
  8
LAYER1$C$L1
 62
     3
 10
-134.85833740230001
 20
113.13586425779999
 30
0.0
 11
-135.3202209472999
 21
113.13586425779999
 31
0.0
  0
LINE
  5
4A6
  8
LAYER1$C$L1
 62
     3
 10
-133.0582135832
 20
113.6462520729
 30
0.0
 11
-133.28293161580001
 21
112.8354946563999
 31
0.0
  0
LINE
  5
4A7
  8
LAYER1$C$L1
 62
     3
 10
-134.8198054632999
 20
116.4973253024
 30
0.0
 11
-134.96954713299999
 21
115.9566741663
 31
0.0
  0
LINE
  5
4A8
  8
LAYER1$C$L1
 62
     3
 10
-133.75325713239999
 20
114.8499046485
 30
0.0
 11
-132.9923471889999
 21
116.1678395547
 31
0.0
  0
LINE
  5
4A9
  8
LAYER1$C$L1
 62
     3
 10
-134.1573859705999
 20
115.3499147015
 30
0.0
 11
-133.21704031850001
 21
116.9786414245999
 31
0.0
  0
LINE
  5
4AA
  8
LAYER1$C$L1
 62
     3
 10
-133.058347822
 20
113.6463372369
 30
0.0
 11
-133.7532558812
 21
114.84995350689999
 31
0.0
  0
LINE
  5
4AB
  8
LAYER1$C$L1
 62
     3
 10
-133.28306383969991
 20
112.8355750105999
 30
0.0
 11
-134.15739997819989
 21
114.3499698829
 31
0.0
  0
LINE
  5
4AC
  8
LAYER1$C$L1
 62
     3
 10
-134.15740111860001
 20
115.3499719940999
 30
0.0
 11
-134.8198766255999
 21
116.4974134261
 31
0.0
  0
LINE
  5
4AD
  8
LAYER1$C$L1
 62
     3
 10
-134.3306091030999
 20
114.8499586552
 30
0.0
 11
-134.9696242247
 21
115.9567655008
 31
0.0
  0
LINE
  5
4AE
  8
LAYER1$C$L1
 62
     3
 10
-135.32025714790001
 20
113.1357806803999
 30
0.0
 11
-134.33061035430001
 21
114.84989950009999
 31
0.0
  0
LINE
  5
4AF
  8
LAYER1$C$L1
 62
     3
 10
-135.05331443349991
 20
112.7981206839999
 30
0.0
 11
-134.15738711110001
 21
114.34991259019991
 31
0.0
  0
LINE
  5
4B0
  8
LAYER1$C$L1
 62
     3
 10
-130.59963989260001
 20
116.0999908446999
 30
0.0
 11
-130.59963989260001
 21
113.60000610349999
 31
0.0
  0
LINE
  5
4B1
  8
LAYER1$C$L1
 62
     3
 10
-131.09963989260001
 20
116.8499908446999
 30
0.0
 11
-131.09963989260001
 21
116.5999908446999
 31
0.0
  0
LINE
  5
4B2
  8
LAYER1$C$L1
 62
     3
 10
-129.9411315918
 20
113.16300964359991
 30
0.0
 11
-129.9411315918
 21
113.59991455079999
 31
0.0
  0
LINE
  5
4B3
  8
LAYER1$C$L1
 62
     3
 10
-129.39953613279991
 20
116.0998840331999
 30
0.0
 11
-130.59954833980001
 21
116.0998840331999
 31
0.0
  0
LINE
  5
4B4
  8
LAYER1$C$L1
 62
     3
 10
-129.39953613279991
 20
113.599899292
 30
0.0
 11
-130.59954833980001
 21
113.599899292
 31
0.0
  0
LINE
  5
4B5
  8
LAYER1$C$L1
 62
     3
 10
-129.9411315918
 20
116.0998992919999
 30
0.0
 11
-129.9411315918
 21
116.53680419920001
 31
0.0
  0
LINE
  5
4B6
  8
LAYER1$C$L1
 62
     3
 10
-129.94124237869991
 20
116.5368685455
 30
0.0
 11
-129.44124516549991
 21
118.3868586680999
 31
0.0
  0
LINE
  5
4B7
  8
LAYER1$C$L1
 62
     3
 10
-129.44115484089991
 20
111.313044495
 30
0.0
 11
-129.9411559209
 21
113.16304946209991
 31
0.0
  0
LINE
  5
4B8
  8
LAYER1$C$L1
 62
     3
 10
-130.49145988649991
 20
110.599880282
 30
0.0
 11
-131.0995891064
 21
112.8499595762999
 31
0.0
  0
LINE
  5
4B9
  8
LAYER1$C$L1
 62
     3
 10
-131.09967549250001
 20
116.84995850279989
 30
0.0
 11
-130.59967827939991
 21
118.6999486254
 31
0.0
  0
LINE
  5
4BA
  8
LAYER1$C$L1
 62
     3
 10
-131.09963989260001
 20
113.10000610349999
 30
0.0
 11
-131.09963989260001
 21
112.85000610349999
 31
0.0
  0
LINE
  5
4BB
  8
LAYER1$C$L1
 62
     3
 10
-129.39962768549989
 20
118.6999969481999
 30
0.0
 11
-129.39962768549989
 21
110.599899292
 31
0.0
  0
LINE
  5
4BC
  8
LAYER1$C$L1
 62
     3
 10
-119.5000305176
 20
118.700012207
 30
0.0
 11
-139.50003051760001
 21
118.700012207
 31
0.0
  0
LINE
  5
4BD
  8
LAYER1$C$L1
 62
     3
 10
-120.0000305175999
 20
109.29992675779999
 30
0.0
 11
-139.5
 21
109.29992675779999
 31
0.0
  0
LINE
  5
4BE
  8
LAYER1$C$L1
 62
     3
 10
-127.80001831049989
 20
119.8000030518
 30
0.0
 11
-127.80001831049989
 21
122.9000091553
 31
0.0
  0
LINE
  5
4BF
  8
LAYER1$C$L1
 62
     3
 10
-124.5000305175999
 20
119.8000030518
 30
0.0
 11
-124.5000305175999
 21
123.99996948239991
 31
0.0
  0
LINE
  5
4C0
  8
LAYER1$C$L1
 62
     3
 10
-124.5000305175999
 20
119.8000030518
 30
0.0
 11
-139.50003051760001
 21
119.8000030518
 31
0.0
  0
LINE
  5
4C1
  8
LAYER1$C$L1
 62
     3
 10
-124.5000457763999
 20
119.8000030518
 30
0.0
 11
-139.50006103519991
 21
119.8000030518
 31
0.0
  0
LINE
  5
4C2
  8
LAYER1$C$L1
 62
     3
 10
-124.50006103520001
 20
119.8000030518
 30
0.0
 11
-124.50006103520001
 21
123.99996948239991
 31
0.0
  0
LINE
  5
4C3
  8
LAYER1$C$L1
 62
     3
 10
-139.5001831054999
 20
122.9000091553
 30
0.0
 11
-127.80001831049989
 21
122.9000091553
 31
0.0
  0
LINE
  5
4C4
  8
LAYER1$C$L1
 62
     3
 10
-139.50003051760001
 20
123.9999847412
 30
0.0
 11
-119.5000305176
 21
123.9999847412
 31
0.0
  0
DIMENSION
  5
4C5
  8
DIMENSIONS
  2
*D29
 10
-91.000015258799991
 20
97.999984741200024
 30
0.0
 11
-134.24997711179989
 21
97.999984741200024
 31
0.0
 70
     0
 13
-177.49993896480001
 23
122.9998474120999
 33
0.0
 14
-91.000015258799991
 24
108.7261505127
 34
0.0
1001
ACAD
1000
DSTYLE
1002
{
1070
    41
1040
1.9727878464999999
1070
    42
1040
2.5399999618999991
1070
    44
1040
3.8099999427999989
1070
    73
1070
     0
1070
   140
1040
3.1999998092999991
1070
   271
1070
     1
1070
   272
1070
     1
1002
}
  0
LINE
  5
4D1
  8
LAYER1$C$L1
 62
     3
 10
-141.50000449300001
 20
82.299984394399999
 30
0.0
 11
-140.50000488500001
 21
82.499996472999996
 31
0.0
  0
ARC
  5
4D2
  8
LAYER1$C$L1
 62
     3
 10
-171.13835144039999
 20
74.0
 30
0.0
 40
5.3615283965999998
 50
145.02671804319999
 51
214.97326465399999
  0
LINE
  5
4D3
  8
LAYER1$C$L1
 62
     3
 10
-160.49998474119991
 20
81.9999542236
 30
0.0
 11
-150.22253417970001
 21
81.9999542236
 31
0.0
  0
LINE
  5
4D4
  8
LAYER1$C$L1
 62
     3
 10
-150.22253417970001
 20
46.000015258799991
 30
0.0
 11
-160.49998474119991
 21
46.000015258799991
 31
0.0
  0
LINE
  5
4D5
  8
LAYER4$C$L4
  6
PHANTOM
 62
     3
 10
-174.5
 20
80.999954223600014
 30
0.0
 11
-174.5
 21
82.899948120100007
 31
0.0
  0
ARC
  5
4D6
  8
LAYER1$C$L1
 62
     3
 10
-148.5
 20
123.9999847412
 30
0.0
 40
80.0
 50
346.65765917339991
 51
13.34234082660001
  0
DIMENSION
  5
4D7
  8
DIMENSIONS
  2
*D30
 10
-91.0
 20
97.999984741200024
 30
0.0
 11
-99.729454115875015
 21
97.999984741200024
 31
0.0
 70
     0
  1
<>13
 13
-78.0
 23
110.2999877929999
 33
0.0
 14
-91.0
 24
110.4999999999999
 34
0.0
 50
180.0
1001
ACAD
1000
DSTYLE
1002
{
1070
    41
1040
1.9727878464999999
1070
    42
1040
2.5399999618999991
1070
    44
1040
3.8099999427999989
1070
    73
1070
     0
1070
   140
1040
3.1999998092999991
1070
   271
1070
     1
1070
   272
1070
     1
1002
}
  0
LINE
  5
4F4
  8
LAYER4$C$L4
  6
PHANTOM
 62
     3
 10
-48.0
 20
45.099990844700002
 30
0.0
 11
-28.0
 21
45.099990844700002
 31
0.0
  0
LINE
  5
4F5
  8
LAYER1$C$L1
 62
     3
 10
-54.800003051799997
 20
47.0
 30
0.0
 11
-54.800003051799997
 21
50.5478515625
 31
0.0
  0
LINE
  5
4F6
  8
LAYER1$C$L1
 62
     3
 10
-53.800003051800012
 20
46.0
 30
0.0
 11
-48.717803955100003
 21
46.0
 31
0.0
  0
LINE
  5
4F7
  8
LAYER1$C$L1
 62
     3
 10
-53.800003051800012
 20
82.0
 30
0.0
 11
-48.717803955100003
 21
82.0
 31
0.0
  0
LINE
  5
4F8
  8
LAYER2$C$L2
  6
DASHED
 62
     3
 10
-45.300003051799997
 20
45.499999999999993
 30
0.0
 11
-45.300003051799997
 21
46.0
 31
0.0
  0
LINE
  5
4F9
  8
LAYER4$C$L4
  6
PHANTOM
 62
     3
 10
-52.0
 20
82.899993896499993
 30
0.0
 11
-32.0
 21
82.899993896499993
 31
0.0
  0
LINE
  5
50E
  8
LAYER1$C$L1
 62
     3
 10
-160.49998474119991
 20
46.000015258799991
 30
0.0
 11
-167.29997253420001
 21
46.000015258799991
 31
0.0
  0
LINE
  5
50F
  8
LAYER4$C$L4
  6
PHANTOM
 62
     3
 10
-177.5000305175999
 20
47.0
 30
0.0
 11
-169.09983825680001
 21
47.0
 31
0.0
  0
LINE
  5
510
  8
LAYER1$C$L1
 62
     3
 10
-139.4999847412
 20
68.999969482400004
 30
0.0
 11
-139.4999847412
 21
58.999969482399997
 31
0.0
  0
LINE
  5
511
  8
LAYER1$C$L1
 62
     3
 10
-177.49998474119991
 20
58.719253539999997
 30
0.0
 11
-177.49998474119991
 21
49.350357055699988
 31
0.0
  0
LINE
  5
512
  8
LAYER1$C$L1
 62
     3
 10
-167.29997253420001
 20
81.9999542236
 30
0.0
 11
-160.49998474119991
 21
81.9999542236
 31
0.0
  0
LINE
  5
514
  8
LAYER1$C$L1
 62
     3
 10
-119.5
 20
125.0999755859
 30
0.0
 11
-119.5
 21
122.8999786377
 31
0.0
  0
LINE
  5
515
  8
LAYER1$C$L1
 62
     3
 10
-119.5
 20
119.89994812010001
 30
0.0
 11
-119.5
 21
109.19998168950001
 31
0.0
  0
LINE
  5
516
  8
LAYER1$C$L1
 62
     3
 10
-96.680007934599985
 20
121.89999389649989
 30
0.0
 11
-97.800003051800005
 21
121.89999389649989
 31
0.0
  0
LINE
  5
517
  8
LAYER1$C$L1
 62
     3
 10
-95.293350219699974
 20
119.2999877929999
 30
0.0
 11
-97.800003051800005
 21
119.2999877929999
 31
0.0
  0
LINE
  5
518
  8
LAYER1$C$L1
 62
     3
 10
-94.066680908199999
 20
117.0
 30
0.0
 11
-97.800003051800005
 21
117.0
 31
0.0
  0
LINE
  5
519
  8
LAYER1$C$L1
 62
     3
 10
-93.0
 20
115.0
 30
0.0
 11
-97.800003051800005
 21
115.0
 31
0.0
  0
LINE
  5
51A
  8
LAYER1$C$L1
 62
     3
 10
-93.0
 20
113.2999877929999
 30
0.0
 11
-97.800003051800005
 21
113.2999877929999
 31
0.0
  0
LINE
  5
51B
  8
LAYER1$C$L1
 62
     3
 10
-93.0
 20
111.89999389650001
 30
0.0
 11
-97.800003051800005
 21
111.89999389650001
 31
0.0
  0
LINE
  5
51C
  8
LAYER1$C$L1
 62
     3
 10
-93.0
 20
110.7999877929999
 30
0.0
 11
-97.800003051800005
 21
110.7999877929999
 31
0.0
  0
LINE
  5
51D
  8
LAYER1$C$L1
 62
     3
 10
-93.0
 20
109.9999847412
 30
0.0
 11
-97.800003051800005
 21
109.9999847412
 31
0.0
  0
LINE
  5
51E
  8
LAYER1$C$L1
 62
     3
 10
-94.12001037600001
 20
126.0999908446999
 30
0.0
 11
-93.0
 21
126.0999908446999
 31
0.0
  0
LINE
  5
51F
  8
LAYER1$C$L1
 62
     3
 10
-95.506683349599996
 20
128.69999694820001
 30
0.0
 11
-93.0
 21
128.69999694820001
 31
0.0
  0
LINE
  5
520
  8
LAYER1$C$L1
 62
     3
 10
-96.733352661100014
 20
130.9999847412
 30
0.0
 11
-93.0
 21
130.9999847412
 31
0.0
  0
LINE
  5
521
  8
LAYER1$C$L1
 62
     3
 10
-97.800003051800005
 20
132.9999847412
 30
0.0
 11
-93.0
 21
132.9999847412
 31
0.0
  0
LINE
  5
522
  8
LAYER1$C$L1
 62
     3
 10
-97.800003051800005
 20
134.69999694820001
 30
0.0
 11
-93.0
 21
134.69999694820001
 31
0.0
  0
LINE
  5
523
  8
LAYER1$C$L1
 62
     3
 10
-97.800003051800005
 20
136.0999908446999
 30
0.0
 11
-93.0
 21
136.0999908446999
 31
0.0
  0
LINE
  5
524
  8
LAYER1$C$L1
 62
     3
 10
-97.800003051800005
 20
137.19999694820001
 30
0.0
 11
-93.0
 21
137.19999694820001
 31
0.0
  0
LINE
  5
525
  8
LAYER1$C$L1
 62
     3
 10
-97.800003051800005
 20
137.99998474119991
 30
0.0
 11
-93.0
 21
137.99998474119991
 31
0.0
  0
LINE
  5
526
  8
LAYER1$C$L1
 62
     3
 10
-100.3000030518
 20
112.7999877929999
 30
0.0
 11
-104.00001525879991
 21
112.7999877929999
 31
0.0
  0
LINE
  5
527
  8
LAYER1$C$L1
 62
     3
 10
-97.800003051800005
 20
122.9999847412
 30
0.0
 11
-99.300003051800005
 21
122.9999847412
 31
0.0
  0
LINE
  5
528
  8
LAYER1$C$L1
 62
     3
 10
-93.0
 20
109.4999847412
 30
0.0
 11
-97.800003051800005
 21
109.4999847412
 31
0.0
  0
LINE
  5
529
  8
LAYER1$C$L1
 62
     3
 10
-100.3000030518
 20
123.9999847412
 30
0.0
 11
-100.3000030518
 21
109.9999847412
 31
0.0
  0
LINE
  5
52A
  8
LAYER1$C$L1
 62
     3
 10
-97.800003051800005
 20
123.9999847412
 30
0.0
 11
-97.800003051800005
 21
109.4999847412
 31
0.0
  0
LINE
  5
52B
  8
LAYER1$C$L1
 62
     3
 10
-93.0
 20
123.9999847412
 30
0.0
 11
-93.0
 21
109.4999847412
 31
0.0
  0
LINE
  5
52C
  8
LAYER1$C$L1
 62
     3
 10
-97.800003051800005
 20
109.9999847412
 30
0.0
 11
-100.3000030518
 21
109.9999847412
 31
0.0
  0
LINE
  5
52D
  8
LAYER1$C$L1
 62
     3
 10
-100.3000030518
 20
120.7499847412
 30
0.0
 11
-104.00001525879991
 21
120.7499847412
 31
0.0
  0
LINE
  5
52E
  8
LAYER1$C$L1
 62
     3
 10
-107.6999969482
 20
123.9999847412
 30
0.0
 11
-107.6999969482
 21
119.7999877929999
 31
0.0
  0
LINE
  5
52F
  8
LAYER1$C$L1
 62
     3
 10
-111.8999786377
 20
122.89999389649989
 30
0.0
 11
-111.8999786377
 21
123.9999847412
 31
0.0
  0
LINE
  5
530
  8
LAYER1$C$L1
 62
     3
 10
-119.5
 20
122.89999389649989
 30
0.0
 11
-107.6999969482
 21
122.89999389649989
 31
0.0
  0
LINE
  5
531
  8
LAYER1$C$L1
 62
     3
 10
-106.0
 20
123.9999847412
 30
0.0
 11
-106.0
 21
119.7999877929999
 31
0.0
  0
LINE
  5
532
  8
LAYER1$C$L1
 62
     3
 10
-105.4999999999999
 20
123.9999847412
 30
0.0
 11
-105.4999999999999
 21
119.7999877929999
 31
0.0
  0
LINE
  5
533
  8
LAYER1$C$L1
 62
     3
 10
-105.4999999999999
 20
119.7999877929999
 30
0.0
 11
-119.5
 21
119.7999877929999
 31
0.0
  0
LINE
  5
534
  8
LAYER1$C$L1
 62
     3
 10
-105.4999999999999
 20
118.6999969481999
 30
0.0
 11
-119.5
 21
118.6999969481999
 31
0.0
  0
LINE
  5
535
  8
LAYER1$C$L1
 62
     3
 10
-104.00001525879991
 20
120.7499847412
 30
0.0
 11
-105.4999999999999
 21
120.7499847412
 31
0.0
  0
LINE
  5
536
  8
LAYER1$C$L1
 62
     3
 10
-91.0
 20
122.39999389650001
 30
0.0
 11
-92.700012207000015
 21
122.39999389650001
 31
0.0
  0
LINE
  5
537
  8
LAYER1$C$L1
 62
     3
 10
-92.700012207000015
 20
123.9999847412
 30
0.0
 11
-92.700012207000015
 21
122.39999389650001
 31
0.0
  0
LINE
  5
538
  8
LAYER1$C$L1
 62
     3
 10
-91.500015258799976
 20
122.39999389650001
 30
0.0
 11
-91.500015258799976
 21
112.9999847412
 31
0.0
  0
LINE
  5
539
  8
LAYER1$C$L1
 62
     3
 10
-91.0
 20
112.9999847412
 30
0.0
 11
-93.0
 21
112.9999847412
 31
0.0
  0
LINE
  5
53A
  8
LAYER1$C$L1
 62
     3
 10
-104.00001525879991
 20
112.9999847412
 30
0.0
 11
-105.0
 21
112.9999847412
 31
0.0
  0
LINE
  5
53B
  8
LAYER1$C$L1
 62
     3
 10
-100.3000030518
 20
111.9999847412
 30
0.0
 11
-104.00001525879991
 21
111.9999847412
 31
0.0
  0
LINE
  5
53C
  8
LAYER1$C$L1
 62
     3
 10
-106.0
 20
109.1999969481999
 30
0.0
 11
-119.5
 21
109.1999969481999
 31
0.0
  0
LINE
  5
53D
  8
LAYER1$C$L1
 62
     3
 10
-104.00001525879991
 20
120.7499847412
 30
0.0
 11
-104.00001525879991
 21
111.9999847412
 31
0.0
  0
LINE
  5
53E
  8
LAYER1$C$L1
 62
     3
 10
-105.4999999999999
 20
119.7999877929999
 30
0.0
 11
-105.4999999999999
 21
109.6999969482
 31
0.0
  0
LINE
  5
53F
  8
LAYER1$C$L1
 62
     3
 10
-104.00001525879991
 20
135.19999694820001
 30
0.0
 11
-100.3000030518
 21
135.19999694820001
 31
0.0
  0
LINE
  5
540
  8
LAYER1$C$L1
 62
     3
 10
-99.300003051800005
 20
124.9999847412
 30
0.0
 11
-97.800003051800005
 21
124.9999847412
 31
0.0
  0
LINE
  5
541
  8
LAYER1$C$L1
 62
     3
 10
-97.800003051800005
 20
138.49998474119991
 30
0.0
 11
-93.0
 21
138.49998474119991
 31
0.0
  0
LINE
  5
542
  8
LAYER1$C$L1
 62
     3
 10
-100.3000030518
 20
137.99998474119991
 30
0.0
 11
-100.3000030518
 21
123.9999847412
 31
0.0
  0
LINE
  5
543
  8
LAYER1$C$L1
 62
     3
 10
-97.800003051800005
 20
138.49998474119991
 30
0.0
 11
-97.800003051800005
 21
123.9999847412
 31
0.0
  0
LINE
  5
544
  8
LAYER1$C$L1
 62
     3
 10
-93.0
 20
138.49998474119991
 30
0.0
 11
-93.0
 21
123.9999847412
 31
0.0
  0
LINE
  5
545
  8
LAYER1$C$L1
 62
     3
 10
-100.3000030518
 20
137.99998474119991
 30
0.0
 11
-97.800003051800005
 21
137.99998474119991
 31
0.0
  0
LINE
  5
546
  8
LAYER1$C$L1
 62
     3
 10
-104.00001525879991
 20
127.2499847412
 30
0.0
 11
-100.3000030518
 21
127.2499847412
 31
0.0
  0
LINE
  5
547
  8
LAYER1$C$L1
 62
     3
 10
-107.6999969482
 20
128.19999694820001
 30
0.0
 11
-107.6999969482
 21
123.9999847412
 31
0.0
  0
LINE
  5
548
  8
LAYER1$C$L1
 62
     3
 10
-111.8999786377
 20
123.9999847412
 30
0.0
 11
-111.8999786377
 21
125.0999908446999
 31
0.0
  0
LINE
  5
549
  8
LAYER1$C$L1
 62
     3
 10
-107.6999969482
 20
125.0999908446999
 30
0.0
 11
-119.5
 21
125.0999908446999
 31
0.0
  0
LINE
  5
54A
  8
LAYER1$C$L1
 62
     3
 10
-106.0
 20
128.19999694820001
 30
0.0
 11
-106.0
 21
123.9999847412
 31
0.0
  0
LINE
  5
54B
  8
LAYER1$C$L1
 62
     3
 10
-105.4999999999999
 20
128.19999694820001
 30
0.0
 11
-105.4999999999999
 21
123.9999847412
 31
0.0
  0
LINE
  5
54C
  8
LAYER1$C$L1
 62
     3
 10
-119.5
 20
128.19999694820001
 30
0.0
 11
-105.4999999999999
 21
128.19999694820001
 31
0.0
  0
LINE
  5
54D
  8
LAYER1$C$L1
 62
     3
 10
-119.5
 20
129.2999877929999
 30
0.0
 11
-105.4999999999999
 21
129.2999877929999
 31
0.0
  0
LINE
  5
54E
  8
LAYER1$C$L1
 62
     3
 10
-105.4999999999999
 20
127.2499847412
 30
0.0
 11
-104.00001525879991
 21
127.2499847412
 31
0.0
  0
LINE
  5
54F
  8
LAYER1$C$L1
 62
     3
 10
-92.700012207000015
 20
125.5999908446999
 30
0.0
 11
-91.0
 21
125.5999908446999
 31
0.0
  0
LINE
  5
550
  8
LAYER1$C$L1
 62
     3
 10
-92.700012207000015
 20
125.5999908446999
 30
0.0
 11
-92.700012207000015
 21
123.9999847412
 31
0.0
  0
LINE
  5
551
  8
LAYER1$C$L1
 62
     3
 10
-91.500015258799976
 20
134.9999847412
 30
0.0
 11
-91.500015258799976
 21
125.5999908446999
 31
0.0
  0
LINE
  5
552
  8
LAYER1$C$L1
 62
     3
 10
-93.0
 20
134.9999847412
 30
0.0
 11
-91.0
 21
134.9999847412
 31
0.0
  0
LINE
  5
553
  8
LAYER1$C$L1
 62
     3
 10
-105.0
 20
134.9999847412
 30
0.0
 11
-104.00001525879991
 21
134.9999847412
 31
0.0
  0
LINE
  5
554
  8
LAYER1$C$L1
 62
     3
 10
-104.00001525879991
 20
135.9999847412
 30
0.0
 11
-100.3000030518
 21
135.9999847412
 31
0.0
  0
LINE
  5
555
  8
LAYER1$C$L1
 62
     3
 10
-119.5
 20
138.7999877929999
 30
0.0
 11
-106.0
 21
138.7999877929999
 31
0.0
  0
LINE
  5
556
  8
LAYER1$C$L1
 62
     3
 10
-104.00001525879991
 20
135.9999847412
 30
0.0
 11
-104.00001525879991
 21
127.2499847412
 31
0.0
  0
LINE
  5
557
  8
LAYER1$C$L1
 62
     3
 10
-105.4999999999999
 20
138.2999877929999
 30
0.0
 11
-105.4999999999999
 21
128.19999694820001
 31
0.0
  0
LINE
  5
558
  8
LAYER1$C$L1
 62
     3
 10
-119.5
 20
138.7999877929999
 30
0.0
 11
-119.5
 21
128.10000610349991
 31
0.0
  0
LINE
  5
559
  8
LAYER3$C$L3
  6
CENTERLINE
 62
     3
 10
-182.69834899899999
 20
123.9999847412
 30
0.0
 11
-66.024276733400001
 21
123.9999847412
 31
0.0
  0
LINE
  5
55A
  8
LAYER1$C$L1
 62
     3
 10
-89.103332519500015
 20
121.89999389649989
 30
0.0
 11
-90.199996948199995
 21
121.89999389649989
 31
0.0
  0
LINE
  5
55B
  8
LAYER1$C$L1
 62
     3
 10
-87.783569335899998
 20
119.2999877929999
 30
0.0
 11
-90.199996948199995
 21
119.2999877929999
 31
0.0
  0
LINE
  5
55C
  8
LAYER1$C$L1
 62
     3
 10
-86.544448852499997
 20
117.0
 30
0.0
 11
-90.199996948199995
 21
117.0
 31
0.0
  0
LINE
  5
55D
  8
LAYER1$C$L1
 62
     3
 10
-85.5
 20
115.0
 30
0.0
 11
-90.199996948199995
 21
115.0
 31
0.0
  0
LINE
  5
55E
  8
LAYER1$C$L1
 62
     3
 10
-85.5
 20
113.2999877929999
 30
0.0
 11
-90.199996948199995
 21
113.2999877929999
 31
0.0
  0
LINE
  5
55F
  8
LAYER1$C$L1
 62
     3
 10
-85.5
 20
111.89999389650001
 30
0.0
 11
-90.199996948199995
 21
111.89999389650001
 31
0.0
  0
LINE
  5
560
  8
LAYER1$C$L1
 62
     3
 10
-85.5
 20
110.7999877929999
 30
0.0
 11
-90.199996948199995
 21
110.7999877929999
 31
0.0
  0
LINE
  5
561
  8
LAYER1$C$L1
 62
     3
 10
-85.5
 20
110.0
 30
0.0
 11
-90.199996948199995
 21
110.0
 31
0.0
  0
LINE
  5
562
  8
LAYER1$C$L1
 62
     3
 10
-78.000018066400003
 20
110.3000027236
 30
0.0
 11
-78.300022700699998
 21
109.99999808929999
 31
0.0
  0
LINE
  5
563
  8
LAYER1$C$L1
 62
     3
 10
-85.000003918399997
 20
109.9999872996999
 30
0.0
 11
-85.500004449200006
 21
109.4999867688999
 31
0.0
  0
LINE
  5
564
  8
LAYER1$C$L1
 62
     3
 10
-78.300003051800005
 20
110.0
 30
0.0
 11
-85.0
 21
110.0
 31
0.0
  0
LINE
  5
565
  8
LAYER1$C$L1
 62
     3
 10
-85.0
 20
124.0
 30
0.0
 11
-85.0
 21
110.0
 31
0.0
  0
LINE
  5
566
  8
LAYER1$C$L1
 62
     3
 10
-78.300003051800005
 20
124.0
 30
0.0
 11
-78.300003051800005
 21
110.0
 31
0.0
  0
LINE
  5
567
  8
LAYER1$C$L1
 62
     3
 10
-78.0
 20
124.0
 30
0.0
 11
-78.0
 21
110.2999877929999
 31
0.0
  0
LINE
  5
568
  8
LAYER1$C$L1
 62
     3
 10
-85.5
 20
109.4999999999999
 30
0.0
 11
-90.199996948199995
 21
109.4999999999999
 31
0.0
  0
LINE
  5
569
  8
LAYER1$C$L1
 62
     3
 10
-85.5
 20
124.0
 30
0.0
 11
-85.5
 21
109.4999999999999
 31
0.0
  0
LINE
  5
56A
  8
LAYER1$C$L1
 62
     3
 10
-90.200010739500001
 20
109.49999924159989
 30
0.0
 11
-91.000010472900016
 21
110.4999989083
 31
0.0
  0
LINE
  5
56B
  8
LAYER1$C$L1
 62
     3
 10
-90.199996948199995
 20
124.0
 30
0.0
 11
-90.199996948199995
 21
109.4999999999999
 31
0.0
  0
LINE
  5
56C
  8
LAYER1$C$L1
 62
     3
 10
-91.0
 20
124.0
 30
0.0
 11
-91.0
 21
110.4999999999999
 31
0.0
  0
LINE
  5
56D
  8
LAYER1$C$L1
 62
     3
 10
-86.596664428700009
 20
126.0999908446999
 30
0.0
 11
-85.5
 21
126.0999908446999
 31
0.0
  0
LINE
  5
56E
  8
LAYER1$C$L1
 62
     3
 10
-87.954437255900004
 20
128.69999694820001
 30
0.0
 11
-85.5
 21
128.69999694820001
 31
0.0
  0
LINE
  5
56F
  8
LAYER1$C$L1
 62
     3
 10
-89.155548095699999
 20
130.9999847412
 30
0.0
 11
-85.5
 21
130.9999847412
 31
0.0
  0
LINE
  5
570
  8
LAYER1$C$L1
 62
     3
 10
-90.199996948199995
 20
132.9999847412
 30
0.0
 11
-85.5
 21
132.9999847412
 31
0.0
  0
LINE
  5
571
  8
LAYER1$C$L1
 62
     3
 10
-90.199996948199995
 20
134.69999694820001
 30
0.0
 11
-85.5
 21
134.69999694820001
 31
0.0
  0
LINE
  5
572
  8
LAYER1$C$L1
 62
     3
 10
-90.199996948199995
 20
136.0999908446999
 30
0.0
 11
-85.5
 21
136.0999908446999
 31
0.0
  0
LINE
  5
573
  8
LAYER1$C$L1
 62
     3
 10
-90.199996948199995
 20
137.19999694820001
 30
0.0
 11
-85.5
 21
137.19999694820001
 31
0.0
  0
LINE
  5
574
  8
LAYER1$C$L1
 62
     3
 10
-90.199996948199995
 20
138.0
 30
0.0
 11
-85.5
 21
138.0
 31
0.0
  0
LINE
  5
575
  8
LAYER1$C$L1
 62
     3
 10
-78.300022700699998
 20
137.9999846554999
 30
0.0
 11
-78.000018066400003
 21
137.69998002109989
 31
0.0
  0
LINE
  5
576
  8
LAYER1$C$L1
 62
     3
 10
-85.500015238800003
 20
138.49998518629999
 30
0.0
 11
-85.000014707999995
 21
137.9999846554999
 31
0.0
  0
LINE
  5
577
  8
LAYER1$C$L1
 62
     3
 10
-85.0
 20
138.0
 30
0.0
 11
-78.300003051800005
 21
138.0
 31
0.0
  0
LINE
  5
578
  8
LAYER1$C$L1
 62
     3
 10
-85.0
 20
138.0
 30
0.0
 11
-85.0
 21
124.0
 31
0.0
  0
LINE
  5
579
  8
LAYER1$C$L1
 62
     3
 10
-78.300003051800005
 20
138.0
 30
0.0
 11
-78.300003051800005
 21
124.0
 31
0.0
  0
LINE
  5
57A
  8
LAYER1$C$L1
 62
     3
 10
-78.0
 20
137.69999694820001
 30
0.0
 11
-78.0
 21
124.0
 31
0.0
  0
LINE
  5
57B
  8
LAYER1$C$L1
 62
     3
 10
-90.199996948199995
 20
138.5
 30
0.0
 11
-85.5
 21
138.5
 31
0.0
  0
LINE
  5
57C
  8
LAYER1$C$L1
 62
     3
 10
-85.5
 20
138.5
 30
0.0
 11
-85.5
 21
124.0
 31
0.0
  0
LINE
  5
57D
  8
LAYER1$C$L1
 62
     3
 10
-90.999988727800002
 20
137.49997918379989
 30
0.0
 11
-90.199988994499989
 21
138.49997885039991
 31
0.0
  0
LINE
  5
57E
  8
LAYER1$C$L1
 62
     3
 10
-90.199996948199995
 20
138.5
 30
0.0
 11
-90.199996948199995
 21
124.0
 31
0.0
  0
LINE
  5
57F
  8
LAYER1$C$L1
 62
     3
 10
-91.0
 20
137.5
 30
0.0
 11
-91.0
 21
124.0
 31
0.0
  0
LINE
  5
580
  8
LAYER1$C$L1
 62
     3
 10
-91.0
 20
52.9999542236
 30
0.0
 11
-93.0
 21
52.9999542236
 31
0.0
  0
LINE
  5
581
  8
LAYER1$C$L1
 62
     3
 10
-100.3000030518
 20
52.799957275399997
 30
0.0
 11
-104.00001525879991
 21
52.799957275399997
 31
0.0
  0
LINE
  5
582
  8
LAYER1$C$L1
 62
     3
 10
-100.3000030518
 20
51.9999542236
 30
0.0
 11
-104.00001525879991
 21
51.9999542236
 31
0.0
  0
LINE
  5
583
  8
LAYER1$C$L1
 62
     3
 10
-96.680007934599985
 20
61.899963378900011
 30
0.0
 11
-97.800003051800005
 21
61.899963378900011
 31
0.0
  0
LINE
  5
584
  8
LAYER1$C$L1
 62
     3
 10
-95.293350219699974
 20
59.29995727539999
 30
0.0
 11
-97.800003051800005
 21
59.29995727539999
 31
0.0
  0
LINE
  5
585
  8
LAYER1$C$L1
 62
     3
 10
-94.066680908199999
 20
56.99996948239999
 30
0.0
 11
-97.800003051800005
 21
56.99996948239999
 31
0.0
  0
LINE
  5
586
  8
LAYER1$C$L1
 62
     3
 10
-93.0
 20
54.99996948239999
 30
0.0
 11
-97.800003051800005
 21
54.99996948239999
 31
0.0
  0
LINE
  5
587
  8
LAYER1$C$L1
 62
     3
 10
-93.0
 20
53.299957275399997
 30
0.0
 11
-97.800003051800005
 21
53.299957275399997
 31
0.0
  0
LINE
  5
588
  8
LAYER1$C$L1
 62
     3
 10
-93.0
 20
51.899963378900011
 30
0.0
 11
-97.800003051800005
 21
51.899963378900011
 31
0.0
  0
LINE
  5
589
  8
LAYER1$C$L1
 62
     3
 10
-93.0
 20
50.799957275399997
 30
0.0
 11
-97.800003051800005
 21
50.799957275399997
 31
0.0
  0
LINE
  5
58A
  8
LAYER1$C$L1
 62
     3
 10
-93.0
 20
49.9999542236
 30
0.0
 11
-97.800003051800005
 21
49.9999542236
 31
0.0
  0
LINE
  5
58B
  8
LAYER1$C$L1
 62
     3
 10
-97.800003051800005
 20
49.9999542236
 30
0.0
 11
-100.3000030518
 21
49.9999542236
 31
0.0
  0
LINE
  5
58C
  8
LAYER1$C$L1
 62
     3
 10
-93.0
 20
49.4999542236
 30
0.0
 11
-97.800003051800005
 21
49.4999542236
 31
0.0
  0
LINE
  5
58D
  8
LAYER1$C$L1
 62
     3
 10
-97.800003051800005
 20
63.999954223599993
 30
0.0
 11
-97.800003051800005
 21
49.4999542236
 31
0.0
  0
LINE
  5
58E
  8
LAYER1$C$L1
 62
     3
 10
-100.3000030518
 20
63.999954223599993
 30
0.0
 11
-100.3000030518
 21
49.9999542236
 31
0.0
  0
LINE
  5
58F
  8
LAYER1$C$L1
 62
     3
 10
-93.0
 20
63.999954223599993
 30
0.0
 11
-93.0
 21
49.4999542236
 31
0.0
  0
LINE
  5
590
  8
LAYER1$C$L1
 62
     3
 10
-105.4999999999999
 20
63.999954223599993
 30
0.0
 11
-105.4999999999999
 21
52.4999542236
 31
0.0
  0
LINE
  5
591
  8
LAYER1$C$L1
 62
     3
 10
-104.00001525879991
 20
52.9999542236
 30
0.0
 11
-105.0
 21
52.9999542236
 31
0.0
  0
LINE
  5
592
  8
LAYER1$C$L1
 62
     3
 10
-104.00001525879991
 20
63.999954223599993
 30
0.0
 11
-104.00001525879991
 21
51.9999542236
 31
0.0
  0
LINE
  5
593
  8
LAYER1$C$L1
 62
     3
 10
-106.0
 20
45.9999542236
 30
0.0
 11
-119.5
 21
45.9999542236
 31
0.0
  0
LINE
  5
594
  8
LAYER1$C$L1
 62
     3
 10
-106.0
 20
45.4999542236
 30
0.0
 11
-119.5
 21
45.4999542236
 31
0.0
  0
LINE
  5
595
  8
LAYER1$C$L1
 62
     3
 10
-105.4999999999999
 20
52.4999542236
 30
0.0
 11
-105.4999999999999
 21
45.9999542236
 31
0.0
  0
LINE
  5
596
  8
LAYER1$C$L1
 62
     3
 10
-119.5
 20
63.999954223599993
 30
0.0
 11
-119.5
 21
45.4999542236
 31
0.0
  0
LINE
  5
597
  8
LAYER1$C$L1
 62
     3
 10
-94.12001037600001
 20
66.099960327100007
 30
0.0
 11
-93.0
 21
66.099960327100007
 31
0.0
  0
LINE
  5
598
  8
LAYER1$C$L1
 62
     3
 10
-95.506683349599996
 20
68.699966430700002
 30
0.0
 11
-93.0
 21
68.699966430700002
 31
0.0
  0
LINE
  5
599
  8
LAYER1$C$L1
 62
     3
 10
-96.733352661100014
 20
70.9999542236
 30
0.0
 11
-93.0
 21
70.9999542236
 31
0.0
  0
LINE
  5
59A
  8
LAYER1$C$L1
 62
     3
 10
-97.800003051800005
 20
72.9999542236
 30
0.0
 11
-93.0
 21
72.9999542236
 31
0.0
  0
LINE
  5
59B
  8
LAYER1$C$L1
 62
     3
 10
-97.800003051800005
 20
74.699966430700002
 30
0.0
 11
-93.0
 21
74.699966430700002
 31
0.0
  0
LINE
  5
59C
  8
LAYER1$C$L1
 62
     3
 10
-97.800003051800005
 20
76.099960327100007
 30
0.0
 11
-93.0
 21
76.099960327100007
 31
0.0
  0
LINE
  5
59D
  8
LAYER1$C$L1
 62
     3
 10
-97.800003051800005
 20
77.199966430700002
 30
0.0
 11
-93.0
 21
77.199966430700002
 31
0.0
  0
LINE
  5
59E
  8
LAYER1$C$L1
 62
     3
 10
-97.800003051800005
 20
77.9999542236
 30
0.0
 11
-93.0
 21
77.9999542236
 31
0.0
  0
LINE
  5
59F
  8
LAYER1$C$L1
 62
     3
 10
-100.3000030518
 20
77.9999542236
 30
0.0
 11
-97.800003051800005
 21
77.9999542236
 31
0.0
  0
LINE
  5
5A0
  8
LAYER1$C$L1
 62
     3
 10
-97.800003051800005
 20
78.4999542236
 30
0.0
 11
-93.0
 21
78.4999542236
 31
0.0
  0
LINE
  5
5A1
  8
LAYER1$C$L1
 62
     3
 10
-97.800003051800005
 20
78.4999542236
 30
0.0
 11
-97.800003051800005
 21
63.999954223599993
 31
0.0
  0
LINE
  5
5A2
  8
LAYER1$C$L1
 62
     3
 10
-100.3000030518
 20
77.9999542236
 30
0.0
 11
-100.3000030518
 21
63.999954223599993
 31
0.0
  0
LINE
  5
5A3
  8
LAYER1$C$L1
 62
     3
 10
-93.0
 20
78.4999542236
 30
0.0
 11
-93.0
 21
63.999954223599993
 31
0.0
  0
LINE
  5
5A4
  8
LAYER1$C$L1
 62
     3
 10
-93.0
 20
74.9999542236
 30
0.0
 11
-91.0
 21
74.9999542236
 31
0.0
  0
LINE
  5
5A5
  8
LAYER1$C$L1
 62
     3
 10
-104.00001525879991
 20
75.199966430700002
 30
0.0
 11
-100.3000030518
 21
75.199966430700002
 31
0.0
  0
LINE
  5
5A6
  8
LAYER1$C$L1
 62
     3
 10
-105.4999999999999
 20
75.4999542236
 30
0.0
 11
-105.4999999999999
 21
63.999954223599993
 31
0.0
  0
LINE
  5
5A7
  8
LAYER1$C$L1
 62
     3
 10
-105.0
 20
74.9999542236
 30
0.0
 11
-104.00001525879991
 21
74.9999542236
 31
0.0
  0
LINE
  5
5A8
  8
LAYER1$C$L1
 62
     3
 10
-104.00001525879991
 20
75.9999542236
 30
0.0
 11
-100.3000030518
 21
75.9999542236
 31
0.0
  0
LINE
  5
5A9
  8
LAYER1$C$L1
 62
     3
 10
-104.00001525879991
 20
75.9999542236
 30
0.0
 11
-104.00001525879991
 21
63.999954223599993
 31
0.0
  0
LINE
  5
5AA
  8
LAYER1$C$L1
 62
     3
 10
-119.5
 20
81.9999542236
 30
0.0
 11
-106.0
 21
81.9999542236
 31
0.0
  0
LINE
  5
5AB
  8
LAYER1$C$L1
 62
     3
 10
-119.5
 20
82.499954223599985
 30
0.0
 11
-106.0
 21
82.499954223599985
 31
0.0
  0
LINE
  5
5AC
  8
LAYER1$C$L1
 62
     3
 10
-105.4999999999999
 20
81.9999542236
 30
0.0
 11
-105.4999999999999
 21
75.4999542236
 31
0.0
  0
LINE
  5
5AD
  8
LAYER1$C$L1
 62
     3
 10
-119.5
 20
82.499954223599985
 30
0.0
 11
-119.5
 21
63.999954223599993
 31
0.0
  0
LINE
  5
5AE
  8
LAYER3$C$L3
  6
CENTERLINE
 62
     3
 10
-182.94372558590001
 20
63.999984741200002
 30
0.0
 11
-66.219635009800001
 21
63.999984741200002
 31
0.0
  0
LINE
  5
5AF
  8
LAYER1$C$L1
 62
     3
 10
-89.103332519500015
 20
61.899978637700002
 30
0.0
 11
-90.199996948199995
 21
61.899978637700002
 31
0.0
  0
LINE
  5
5B0
  8
LAYER1$C$L1
 62
     3
 10
-87.783569335899998
 20
59.299972534200002
 30
0.0
 11
-90.199996948199995
 21
59.299972534200002
 31
0.0
  0
LINE
  5
5B1
  8
LAYER1$C$L1
 62
     3
 10
-86.544448852499997
 20
56.999984741200002
 30
0.0
 11
-90.199996948199995
 21
56.999984741200002
 31
0.0
  0
LINE
  5
5B2
  8
LAYER1$C$L1
 62
     3
 10
-85.5
 20
54.999984741200002
 30
0.0
 11
-90.199996948199995
 21
54.999984741200002
 31
0.0
  0
LINE
  5
5B3
  8
LAYER1$C$L1
 62
     3
 10
-85.5
 20
53.299972534200002
 30
0.0
 11
-90.199996948199995
 21
53.299972534200002
 31
0.0
  0
LINE
  5
5B4
  8
LAYER1$C$L1
 62
     3
 10
-85.5
 20
51.899978637700002
 30
0.0
 11
-90.199996948199995
 21
51.899978637700002
 31
0.0
  0
LINE
  5
5B5
  8
LAYER1$C$L1
 62
     3
 10
-85.5
 20
50.799972534200002
 30
0.0
 11
-90.199996948199995
 21
50.799972534200002
 31
0.0
  0
LINE
  5
5B6
  8
LAYER1$C$L1
 62
     3
 10
-85.5
 20
49.999984741200002
 30
0.0
 11
-90.199996948199995
 21
49.999984741200002
 31
0.0
  0
LINE
  5
5B7
  8
LAYER1$C$L1
 62
     3
 10
-78.000007276800005
 20
50.299971397
 30
0.0
 11
-78.3000119111
 21
49.999966762700012
 31
0.0
  0
LINE
  5
5B8
  8
LAYER1$C$L1
 62
     3
 10
-84.999993128799986
 20
49.999955973100001
 30
0.0
 11
-85.499993659599994
 21
49.499955442299992
 31
0.0
  0
LINE
  5
5B9
  8
LAYER1$C$L1
 62
     3
 10
-78.300003051800005
 20
49.999984741200002
 30
0.0
 11
-85.0
 21
49.999984741200002
 31
0.0
  0
LINE
  5
5BA
  8
LAYER1$C$L1
 62
     3
 10
-85.0
 20
63.999984741200002
 30
0.0
 11
-85.0
 21
49.999984741200002
 31
0.0
  0
LINE
  5
5BB
  8
LAYER1$C$L1
 62
     3
 10
-78.300003051800005
 20
63.999984741200002
 30
0.0
 11
-78.300003051800005
 21
49.999984741200002
 31
0.0
  0
LINE
  5
5BC
  8
LAYER1$C$L1
 62
     3
 10
-78.0
 20
63.999984741200002
 30
0.0
 11
-78.0
 21
50.299972534200002
 31
0.0
  0
LINE
  5
5BD
  8
LAYER1$C$L1
 62
     3
 10
-85.5
 20
49.499984741200002
 30
0.0
 11
-90.199996948199995
 21
49.499984741200002
 31
0.0
  0
LINE
  5
5BE
  8
LAYER1$C$L1
 62
     3
 10
-85.5
 20
63.999984741200002
 30
0.0
 11
-85.5
 21
49.499984741200002
 31
0.0
  0
LINE
  5
5BF
  8
LAYER1$C$L1
 62
     3
 10
-90.199986611399979
 20
49.499979923799998
 30
0.0
 11
-90.999986344800007
 21
50.499979590400002
 31
0.0
  0
LINE
  5
5C0
  8
LAYER1$C$L1
 62
     3
 10
-90.199996948199995
 20
63.999984741200002
 30
0.0
 11
-90.199996948199995
 21
49.499984741200002
 31
0.0
  0
LINE
  5
5C1
  8
LAYER1$C$L1
 62
     3
 10
-91.0
 20
63.999984741200002
 30
0.0
 11
-91.0
 21
50.499984741200002
 31
0.0
  0
LINE
  5
5C2
  8
LAYER1$C$L1
 62
     3
 10
-86.596664428700009
 20
66.099975585899983
 30
0.0
 11
-85.5
 21
66.099975585899983
 31
0.0
  0
LINE
  5
5C3
  8
LAYER1$C$L1
 62
     3
 10
-87.954437255900004
 20
68.699981689499992
 30
0.0
 11
-85.5
 21
68.699981689499992
 31
0.0
  0
LINE
  5
5C4
  8
LAYER1$C$L1
 62
     3
 10
-89.155548095699999
 20
70.999969482400004
 30
0.0
 11
-85.5
 21
70.999969482400004
 31
0.0
  0
LINE
  5
5C5
  8
LAYER1$C$L1
 62
     3
 10
-90.199996948199995
 20
72.999969482400004
 30
0.0
 11
-85.5
 21
72.999969482400004
 31
0.0
  0
LINE
  5
5C6
  8
LAYER1$C$L1
 62
     3
 10
-90.199996948199995
 20
74.699981689499992
 30
0.0
 11
-85.5
 21
74.699981689499992
 31
0.0
  0
LINE
  5
5C7
  8
LAYER1$C$L1
 62
     3
 10
-90.199996948199995
 20
76.099975585899983
 30
0.0
 11
-85.5
 21
76.099975585899983
 31
0.0
  0
LINE
  5
5C8
  8
LAYER1$C$L1
 62
     3
 10
-90.199996948199995
 20
77.199981689499992
 30
0.0
 11
-85.5
 21
77.199981689499992
 31
0.0
  0
LINE
  5
5C9
  8
LAYER1$C$L1
 62
     3
 10
-90.199996948199995
 20
77.999984741199995
 30
0.0
 11
-85.5
 21
77.999984741199995
 31
0.0
  0
LINE
  5
5CA
  8
LAYER1$C$L1
 62
     3
 10
-78.300005167600006
 20
77.999938493199991
 30
0.0
 11
-78.000011322899994
 21
77.699944648499994
 31
0.0
  0
LINE
  5
5CB
  8
LAYER1$C$L1
 62
     3
 10
-85.500008495299994
 20
78.499949813599997
 30
0.0
 11
-85.000007964500014
 21
77.999949282800003
 31
0.0
  0
LINE
  5
5CC
  8
LAYER1$C$L1
 62
     3
 10
-85.0
 20
77.999984741199995
 30
0.0
 11
-78.300003051800005
 21
77.999984741199995
 31
0.0
  0
LINE
  5
5CD
  8
LAYER1$C$L1
 62
     3
 10
-85.0
 20
77.999984741199995
 30
0.0
 11
-85.0
 21
63.999984741200002
 31
0.0
  0
LINE
  5
5CE
  8
LAYER1$C$L1
 62
     3
 10
-78.300003051800005
 20
77.999984741199995
 30
0.0
 11
-78.300003051800005
 21
63.999984741200002
 31
0.0
  0
LINE
  5
5CF
  8
LAYER1$C$L1
 62
     3
 10
-78.0
 20
77.699981689499992
 30
0.0
 11
-78.0
 21
63.999984741200002
 31
0.0
  0
LINE
  5
5D0
  8
LAYER1$C$L1
 62
     3
 10
-90.199996948199995
 20
78.499984741199995
 30
0.0
 11
-85.5
 21
78.499984741199995
 31
0.0
  0
LINE
  5
5D1
  8
LAYER1$C$L1
 62
     3
 10
-85.5
 20
78.499984741199995
 30
0.0
 11
-85.5
 21
63.999984741200002
 31
0.0
  0
LINE
  5
5D2
  8
LAYER1$C$L1
 62
     3
 10
-90.999991706599999
 20
77.499946610400002
 30
0.0
 11
-90.1999919732
 21
78.499946276999992
 31
0.0
  0
LINE
  5
5DF
  8
LAYER1$C$L1
 62
     3
 10
-90.199996948199995
 20
78.499984741199995
 30
0.0
 11
-90.199996948199995
 21
63.999984741200002
 31
0.0
  0
LINE
  5
5E0
  8
LAYER1$C$L1
 62
     3
 10
-91.0
 20
77.499984741199995
 30
0.0
 11
-91.0
 21
63.999984741200002
 31
0.0
  0
INSERT
  5
5F3
  8
LAYER8$C$L8
 62
     3
 66
     1
  2
CADRA_ATTR_5
 10
0.0
 20
0.0
 30
0.0
  0
ATTRIB
  5
5F4
  8
LAYER8$C$L8
 62
     3
 10
-39.491045999999997
 20
18.5
 30
0.0
 40
0.156
  1
ç?^HV  é
  2
20
 70
    11
  0
SEQEND
  5
5F5
  8
LAYER8$C$L8
 62
     3
  0
INSERT
  5
709
  8
0
  2
*U34
 10
0.0
 20
0.0
 30
0.0
  0
ENDSEC
  0
EOF
