  0
SECTION
  2
HEADER
  9
$ACADVER
  1
AC1009
  9
$INSBASE
 10
0.0
 20
0.0
 30
0.0
  9
$EXTMIN
 10
-170.20221454425001
 20
12.499999999999989
 30
0.0
  9
$EXTMAX
 10
-4.396461778289213
 20
196.8189903232329
 30
0.0
  9
$LIMMIN
 10
-215.17524414059989
 20
-3.1749999999999989
  9
$LIMMAX
 10
3.1749999999999989
 20
300.17500000000001
  9
$ORTHOMODE
 70
     0
  9
$REGENMODE
 70
     1
  9
$FILLMODE
 70
     1
  9
$QTEXTMODE
 70
     0
  9
$MIRRTEXT
 70
     0
  9
$DRAGMODE
 70
     2
  9
$LTSCALE
 40
1.0
  9
$OSMODE
 70
    39
  9
$ATTMODE
 70
     1
  9
$TEXTSIZE
 40
3.1999998092999991
  9
$TRACEWID
 40
0.05
  9
$TEXTSTYLE
  7
STANDARD
  9
$CLAYER
  8
0
  9
$CELTYPE
  6
BYLAYER
  9
$CECOLOR
 62
   256
  9
$DIMSCALE
 40
1.0
  9
$DIMASZ
 40
1.9727878464999999
  9
$DIMEXO
 40
2.5399999618999991
  9
$DIMDLI
 40
0.38
  9
$DIMRND
 40
0.0
  9
$DIMDLE
 40
0.0
  9
$DIMEXE
 40
3.8099999427999989
  9
$DIMTP
 40
0.0
  9
$DIMTM
 40
0.0
  9
$DIMTXT
 40
3.1999998092999991
  9
$DIMCEN
 40
0.09
  9
$DIMTSZ
 40
0.0
  9
$DIMTOL
 70
     0
  9
$DIMLIM
 70
     0
  9
$DIMTIH
 70
     0
  9
$DIMTOH
 70
     1
  9
$DIMSE1
 70
     0
  9
$DIMSE2
 70
     0
  9
$DIMTAD
 70
     0
  9
$DIMZIN
 70
     0
  9
$DIMBLK
  1

  9
$DIMASO
 70
     1
  9
$DIMSHO
 70
     0
  9
$DIMPOST
  1

  9
$DIMAPOST
  1

  9
$DIMALT
 70
     0
  9
$DIMALTD
 70
     2
  9
$DIMALTF
 40
25.399999999999999
  9
$DIMLFAC
 40
1.0
  9
$DIMTOFL
 70
     0
  9
$DIMTVP
 40
0.0
  9
$DIMTIX
 70
     0
  9
$DIMSOXD
 70
     0
  9
$DIMSAH
 70
     0
  9
$DIMBLK1
  1

  9
$DIMBLK2
  1

  9
$DIMSTYLE
  2
STANDARD
  9
$DIMCLRD
 70
     0
  9
$DIMCLRE
 70
     0
  9
$DIMCLRT
 70
     0
  9
$DIMTFAC
 40
1.0
  9
$DIMGAP
 40
0.09
  9
$LUNITS
 70
     2
  9
$LUPREC
 70
     3
  9
$SKETCHINC
 40
0.1
  9
$FILLETRAD
 40
0.0625
  9
$AUNITS
 70
     0
  9
$AUPREC
 70
     0
  9
$MENU
  1
ACAD
  9
$ELEVATION
 40
0.0
  9
$PELEVATION
 40
0.0
  9
$THICKNESS
 40
0.0
  9
$LIMCHECK
 70
     0
  9
$BLIPMODE
 70
     0
  9
$CHAMFERA
 40
0.0
  9
$CHAMFERB
 40
0.0
  9
$SKPOLY
 70
     0
  9
$TDCREATE
 40
2452011.415729166
  9
$TDUPDATE
 40
2452374.7961903932
  9
$TDINDWG
 40
0.0768507986
  9
$TDUSRTIMER
 40
0.0768503356
  9
$USRTIMER
 70
     1
  9
$ANGBASE
 50
0.0
  9
$ANGDIR
 70
     0
  9
$PDMODE
 70
     0
  9
$PDSIZE
 40
0.0
  9
$PLINEWID
 40
0.0
  9
$COORDS
 70
     1
  9
$SPLFRAME
 70
     0
  9
$SPLINETYPE
 70
     6
  9
$SPLINESEGS
 70
     8
  9
$ATTDIA
 70
     0
  9
$ATTREQ
 70
     1
  9
$HANDLING
 70
  4097
  9
$HANDSEED
  5
78A
  9
$SURFTAB1
 70
     6
  9
$SURFTAB2
 70
     6
  9
$SURFTYPE
 70
     6
  9
$SURFU
 70
     6
  9
$SURFV
 70
     6
  9
$UCSNAME
  2

  9
$UCSORG
 10
0.0
 20
0.0
 30
0.0
  9
$UCSXDIR
 10
1.0
 20
0.0
 30
0.0
  9
$UCSYDIR
 10
0.0
 20
1.0
 30
0.0
  9
$PUCSNAME
  2

  9
$PUCSORG
 10
0.0
 20
0.0
 30
0.0
  9
$PUCSXDIR
 10
1.0
 20
0.0
 30
0.0
  9
$PUCSYDIR
 10
0.0
 20
1.0
 30
0.0
  9
$USERI1
 70
     0
  9
$USERI2
 70
     0
  9
$USERI3
 70
     0
  9
$USERI4
 70
     0
  9
$USERI5
 70
     0
  9
$USERR1
 40
0.0
  9
$USERR2
 40
0.0
  9
$USERR3
 40
0.0
  9
$USERR4
 40
0.0
  9
$USERR5
 40
0.0
  9
$WORLDVIEW
 70
     1
  9
$SHADEDGE
 70
     3
  9
$SHADEDIF
 70
    70
  9
$TILEMODE
 70
     1
  9
$MAXACTVP
 70
    64
  9
$PLIMCHECK
 70
     0
  9
$PEXTMIN
 10
1.0000000000000000E+020
 20
1.0000000000000000E+020
 30
1.0000000000000000E+020
  9
$PEXTMAX
 10
-1.0000000000000000E+020
 20
-1.0000000000000000E+020
 30
-1.0000000000000000E+020
  9
$PLIMMIN
 10
0.0
 20
0.0
  9
$PLIMMAX
 10
12.0
 20
9.0
  9
$UNITMODE
 70
     0
  9
$VISRETAIN
 70
     1
  9
$PLINEGEN
 70
     0
  9
$PSLTSCALE
 70
     1
  0
ENDSEC
  0
SECTION
  2
TABLES
  0
TABLE
  2
VPORT
 70
     2
  0
VPORT
  2
*ACTIVE
 70
     0
 10
0.0
 20
0.0
 11
1.0
 21
1.0
 12
-93.683297437472646
 22
128.3071394691892
 13
0.0
 23
0.0
 14
1.0
 24
1.0
 15
0.0
 25
0.0
 16
0.0
 26
0.0
 36
1.0
 17
0.0
 27
0.0
 37
0.0
 40
190.09920151846441
 41
1.565365025466892
 42
50.0
 43
0.0
 44
0.0
 50
0.0
 51
0.0
 71
     0
 72
   100
 73
     1
 74
     1
 75
     0
 76
     0
 77
     0
 78
     0
  0
ENDTAB
  0
TABLE
  2
LTYPE
 70
     7
  0
LTYPE
  2
CONTINUOUS
 70
     0
  3
Solid line
 72
    65
 73
     0
 40
0.0
  0
LTYPE
  2
SOLID
 70
     0
  3
Solid
 72
    65
 73
     0
 40
0.0
  0
LTYPE
  2
DASHED
 70
     0
  3
Dashed
 72
    65
 73
     2
 40
4.7625000000000002
 49
3.1749999999999989
 49
-1.587499999999999
  0
LTYPE
  2
CENTERLINE
 70
     0
  3
Centerline
 72
    65
 73
     4
 40
25.399999999999999
 49
19.050000000000001
 49
-1.587499999999999
 49
3.1749999999999989
 49
-1.587499999999999
  0
LTYPE
  2
PHANTOM
 70
     0
  3
Phantom
 72
    65
 73
     6
 40
30.162500000000001
 49
19.050000000000001
 49
-1.587499999999999
 49
3.1749999999999989
 49
-1.587499999999999
 49
3.1749999999999989
 49
-1.587499999999999
  0
LTYPE
  2
CONSTRUCTION
 70
     0
  3
Construction
 72
    65
 73
     2
 40
1.016
 49
0.254
 49
-0.762
  0
LTYPE
  2
GAP
 70
     0
  3
Gap
 72
    65
 73
     3
 40
2540.9999980092002
 49
0.0
 49
-0.9999980092000002
 49
2540.0
  0
ENDTAB
  0
TABLE
  2
LAYER
 70
    10
  0
LAYER
  2
0
 70
     0
 62
     7
  6
CONTINUOUS
  0
LAYER
  2
LAYER1$C$L1
 70
     0
 62
     3
  6
SOLID
  0
LAYER
  2
LAYER2$C$L2
 70
     0
 62
     3
  6
SOLID
  0
LAYER
  2
LAYER3$C$L3
 70
     0
 62
     3
  6
SOLID
  0
LAYER
  2
LAYER4$C$L4
 70
     0
 62
     3
  6
SOLID
  0
LAYER
  2
LAYER6$C$L6
 70
     0
 62
     6
  6
SOLID
  0
LAYER
  2
LAYER8$C$L8
 70
     0
 62
    32
  6
SOLID
  0
LAYER
  2
LAYER9$C$L9
 70
     0
 62
     1
  6
SOLID
  0
LAYER
  2
DEFPOINTS
 70
     0
 62
     7
  6
CONTINUOUS
  0
LAYER
  2
DIMENSIONS
 70
     0
 62
     5
  6
CONTINUOUS
  0
ENDTAB
  0
TABLE
  2
STYLE
 70
     1
  0
STYLE
  2
STANDARD
 70
     0
 40
0.0
 41
1.0
 50
0.0
 71
     0
 42
3.1999998092999991
  3
txt
  4

  0
ENDTAB
  0
TABLE
  2
VIEW
 70
     0
  0
ENDTAB
  0
TABLE
  2
UCS
 70
     0
  0
ENDTAB
  0
TABLE
  2
APPID
 70
     1
  0
APPID
  2
ACAD
 70
     0
  0
ENDTAB
  0
TABLE
  2
DIMSTYLE
 70
     1
  0
DIMSTYLE
  2
STANDARD
 70
     0
  3

  4

  5

  6

  7

 40
1.0
 41
0.18
 42
0.0625
 43
0.38
 44
0.18
 45
0.0
 46
0.0
 47
0.0
 48
0.0
140
0.18
141
0.09
142
0.0
143
25.399999999999999
144
1.0
145
0.0
146
1.0
147
0.09
 71
     0
 72
     0
 73
     1
 74
     1
 75
     0
 76
     0
 77
     0
 78
     0
170
     0
171
     2
172
     0
173
     0
174
     0
175
     0
176
     0
177
     0
178
     0
  0
ENDTAB
  0
ENDSEC
  0
SECTION
  2
BLOCKS
  0
BLOCK
  8
0
  2
$MODEL_SPACE
 70
     0
 10
0.0
 20
0.0
 30
0.0
  3
$MODEL_SPACE
  1

  0
ENDBLK
  5
20
  8
0
  0
BLOCK
 67
     1
  8
0
  2
$PAPER_SPACE
 70
     0
 10
0.0
 20
0.0
 30
0.0
  3
$PAPER_SPACE
  1

  0
ENDBLK
  5
1C
 67
     1
  8
0
  0
BLOCK
  8
LAYER8$C$L8
  2
CADRA_ATTR_0
 70
     2
 10
0.0
 20
0.0
 30
0.0
  3
CADRA_ATTR_0
  1

  0
TEXT
  5
BB
  8
LAYER8$C$L8
 62
     3
 10
-65.666666568699995
 20
12.5
 30
0.0
 40
5.0
  1
MA4-A03374
 41
1.0385967071557889
 72
     5
 11
-16.333322978799998
 21
12.5
 31
0.0
  0
ATTDEF
  5
BC
  8
LAYER8$C$L8
 62
     3
 10
-40.999992999999989
 20
15.0
 30
0.0
 40
0.156
  1
ç?^HV  é
  3

  2
20
 70
    11
  0
ENDBLK
  5
BD
  8
LAYER8$C$L8
  0
BLOCK
  8
LAYER8$C$L8
  2
CADRA_ATTR_1
 70
     2
 10
0.0
 20
0.0
 30
0.0
  3
CADRA_ATTR_1
  1

  0
TEXT
  5
C0
  8
LAYER8$C$L8
 62
     3
 10
-83.200923478800007
 20
38.5
 30
0.0
 40
4.0
  1
TW SERIES SELCTOR SWITCH
 41
0.698695624213733
 72
     5
 11
-17.0577377199
 21
38.5
 31
0.0
  0
ATTDEF
  5
C1
  8
LAYER8$C$L8
 62
     3
 10
-50.129328999999998
 20
40.499999999999993
 30
0.0
 40
0.156
  1
ç@=IJL>é
  3

  2
0
 70
    11
  0
ENDBLK
  5
C2
  8
LAYER8$C$L8
  0
BLOCK
  8
LAYER8$C$L8
  2
CADRA_ATTR_2
 70
     2
 10
0.0
 20
0.0
 30
0.0
  3
CADRA_ATTR_2
  1

  0
TEXT
  5
C5
  8
LAYER8$C$L8
 62
     3
 10
-168.86666630240001
 20
4.5
 30
0.0
 40
2.0
  1
TW-HW
 41
0.9125003342624989
 72
     5
 11
-159.13332940359999
 21
4.5
 31
0.0
  0
ATTDEF
  5
C6
  8
LAYER8$C$L8
 62
     3
 10
-164.0
 20
5.5
 30
0.0
 40
0.156
  1
ç%f!<%6!<  é
  3

  2
50
 70
    11
  0
ENDBLK
  5
C7
  8
LAYER8$C$L8
  0
BLOCK
  8
LAYER8$C$L8
  2
CADRA_ATTR_3
 70
     2
 10
0.0
 20
0.0
 30
0.0
  3
CADRA_ATTR_3
  1

  0
TEXT
  5
CA
  8
LAYER8$C$L8
 62
     3
 10
-176.86666630239989
 20
4.5
 30
0.0
 40
2.0
  1
A
 41
1.3000026740999919
 72
     5
 11
-175.13332940359999
 21
4.5
 31
0.0
  0
ATTDEF
  5
CB
  8
LAYER8$C$L8
 62
     3
 10
-176.0
 20
5.5
 30
0.0
 40
0.156
  1
ç%0%k!<%W  é
  3

  2
40
 70
    11
  0
ENDBLK
  5
CC
  8
LAYER8$C$L8
  0
BLOCK
  8
LAYER8$C$L8
  2
CADRA_ATTR_4
 70
     2
 10
0.0
 20
0.0
 30
0.0
  3
CADRA_ATTR_4
  1

  0
TEXT
  5
CF
  8
LAYER8$C$L8
 62
     3
 10
-66.302666215299993
 20
3.4200000763
 30
0.0
 40
4.1599998473999991
  1
*
 41
1.3000029426755879
 72
     5
 11
-62.697324853199987
 21
3.4200000763
 31
0.0
  0
ATTDEF
  5
D0
  8
LAYER8$C$L8
 62
     3
 10
-64.499995999999996
 20
5.5
 30
0.0
 40
0.156
  1
ç5l?^HVé
  3

  2
110
 70
    11
  0
ENDBLK
  5
D1
  8
LAYER8$C$L8
  0
BLOCK
  8
LAYER8$C$L8
  2
CADRA_ATTR_5
 70
     2
 10
0.0
 20
0.0
 30
0.0
  3
CADRA_ATTR_5
  1

  0
TEXT
  5
D4
  8
LAYER8$C$L8
 62
     3
 10
-83.733333141999992
 20
29.5
 30
0.0
 40
4.0
  1
ASW2
 41
0.9666671794999999
 72
     5
 11
-68.266658269999994
 21
29.5
 31
0.0
  0
ATTDEF
  5
D5
  8
LAYER8$C$L8
 62
     3
 10
-75.999992000000006
 20
31.5
 30
0.0
 40
0.156
  1
çL>>N!&7A<0é
  3

  2
10
 70
    11
  0
ENDBLK
  5
D6
  8
LAYER8$C$L8
  0
BLOCK
  8
0
  2
*D18
 70
     1
 10
0.0
 20
0.0
 30
0.0
  3
*D18
  1

  0
LINE
  5
696
  8
DIMENSIONS
 62
     0
 10
-45.460015296899989
 20
98.899993896500007
 30
0.0
 11
-4.396461778289213
 21
98.899993896499979
 31
0.0
  0
LINE
  5
697
  8
DIMENSIONS
 62
     0
 10
-45.460015296899989
 20
59.100036621099989
 30
0.0
 11
-4.3964617782892219
 21
59.100036621099981
 31
0.0
  0
LINE
  5
698
  8
DIMENSIONS
 62
     0
 10
-8.2064617210892106
 20
96.927206049999981
 30
0.0
 11
-8.2064617210892141
 21
83.229856360814068
 31
0.0
  0
LINE
  5
699
  8
DIMENSIONS
 62
     0
 10
-8.2064617210892177
 20
61.072824467599979
 30
0.0
 11
-8.2064617210892141
 21
73.449856932914045
 31
0.0
  0
SOLID
  5
69A
  8
DIMENSIONS
 62
     0
 10
-8.5352596955058768
 20
96.927206049999981
 30
0.0
 11
-7.8776637466725443
 21
96.927206049999981
 31
0.0
 12
-8.2064617210892106
 22
98.899993896499979
 32
0.0
 13
-8.2064617210892106
 23
98.899993896499979
 33
0.0
  0
SOLID
  5
69B
  8
DIMENSIONS
 62
     0
 10
-8.5352596955058821
 20
61.072824467599979
 30
0.0
 11
-7.8776637466725523
 21
61.072824467599979
 31
0.0
 12
-8.2064617210892195
 22
59.100036621099981
 32
0.0
 13
-8.2064617210892195
 23
59.100036621099981
 33
0.0
  0
TEXT
  5
69C
  8
0
 62
     0
 10
-6.6064618164392259
 20
73.539856932914063
 30
0.0
 40
3.1999998092999991
  1
39.8
 50
90.0
  0
POINT
  5
69D
  8
DEFPOINTS
 62
     0
 10
-48.000015258799991
 20
98.899993896500007
 30
0.0
  0
POINT
  5
69E
  8
DEFPOINTS
 62
     0
 10
-48.000015258799991
 20
59.100036621100003
 30
0.0
  0
POINT
  5
69F
  8
DEFPOINTS
 62
     0
 10
-8.2064617210892195
 20
59.100036621099981
 30
0.0
  0
ENDBLK
  5
F7
  8
0
  0
BLOCK
  8
0
  2
*D19
 70
     1
 10
0.0
 20
0.0
 30
0.0
  3
*D19
  1

  0
LINE
  5
6A0
  8
DIMENSIONS
 62
     0
 10
-40.160012245099999
 20
60.5
 30
0.0
 11
-13.7329149997854
 21
60.499999999999993
 31
0.0
  0
LINE
  5
6A1
  8
DIMENSIONS
 62
     0
 10
-40.160012245099999
 20
97.499984741200009
 30
0.0
 11
-13.73291499978539
 21
97.499984741199995
 31
0.0
  0
LINE
  5
6A2
  8
DIMENSIONS
 62
     0
 10
-17.542914942585401
 20
62.47278784649999
 30
0.0
 11
-17.542914942585401
 21
71.160431606737717
 31
0.0
  0
LINE
  5
6A3
  8
DIMENSIONS
 62
     0
 10
-17.542914942585391
 20
95.527196894699998
 30
0.0
 11
-17.542914942585391
 21
86.807097351687702
 31
0.0
  0
SOLID
  5
6A4
  8
DIMENSIONS
 62
     0
 10
-17.871712917002061
 20
62.47278784649999
 30
0.0
 11
-17.214116968168732
 21
62.47278784649999
 31
0.0
 12
-17.542914942585401
 22
60.5
 32
0.0
 13
-17.542914942585401
 23
60.5
 33
0.0
  0
SOLID
  5
6A5
  8
DIMENSIONS
 62
     0
 10
-17.871712917002061
 20
95.527196894699998
 30
0.0
 11
-17.214116968168721
 21
95.527196894699998
 31
0.0
 12
-17.542914942585391
 22
97.499984741199995
 32
0.0
 13
-17.542914942585391
 23
97.499984741199995
 33
0.0
  0
TEXT
  5
6A6
  8
0
 62
     0
 10
-15.942915037935411
 20
71.250431606737706
 30
0.0
 40
3.1999998092999991
  1
37.037
 50
90.0
  0
POINT
  5
6A7
  8
DEFPOINTS
 62
     0
 10
-42.700012207
 20
60.5
 30
0.0
  0
POINT
  5
6A8
  8
DEFPOINTS
 62
     0
 10
-42.700012207
 20
97.499984741200009
 30
0.0
  0
POINT
  5
6A9
  8
DEFPOINTS
 62
     0
 10
-17.542914942585391
 20
97.499984741199995
 30
0.0
  0
ENDBLK
  5
112
  8
0
  0
BLOCK
  8
0
  2
*D20
 70
     1
 10
0.0
 20
0.0
 30
0.0
  3
*D20
  1

  0
LINE
  5
6AA
  8
DIMENSIONS
 62
     0
 10
-62.800003051799997
 20
98.539999961899994
 30
0.0
 11
-62.800003051799997
 21
114.34527292730721
 31
0.0
  0
LINE
  5
6AB
  8
DIMENSIONS
 62
     0
 10
-33.200012207
 20
98.539984703100004
 30
0.0
 11
-33.200012207
 21
114.34527292730721
 31
0.0
  0
LINE
  5
6AC
  8
DIMENSIONS
 62
     0
 10
-60.8272152053
 20
110.5352729845072
 30
0.0
 11
-55.629232922307423
 21
110.5352729845072
 31
0.0
  0
LINE
  5
6AD
  8
DIMENSIONS
 62
     0
 10
-35.172800053499991
 20
110.5352729845072
 30
0.0
 11
-39.982567177357417
 21
110.5352729845072
 31
0.0
  0
SOLID
  5
6AE
  8
DIMENSIONS
 62
     0
 10
-60.8272152053
 20
110.8640709589239
 30
0.0
 11
-60.8272152053
 21
110.2064750100906
 31
0.0
 12
-62.800003051799997
 22
110.5352729845072
 32
0.0
 13
-62.800003051799997
 23
110.5352729845072
 33
0.0
  0
SOLID
  5
6AF
  8
DIMENSIONS
 62
     0
 10
-35.172800053499991
 20
110.8640709589239
 30
0.0
 11
-35.172800053499991
 21
110.2064750100906
 31
0.0
 12
-33.200012207
 22
110.5352729845072
 32
0.0
 13
-33.200012207
 23
110.5352729845072
 33
0.0
  0
TEXT
  5
6B0
  8
0
 62
     0
 10
-55.539232922307413
 20
108.9352730798572
 30
0.0
 40
3.1999998092999991
  1
29.630
  0
POINT
  5
6B1
  8
DEFPOINTS
 62
     0
 10
-62.800003051799997
 20
96.0
 30
0.0
  0
POINT
  5
6B2
  8
DEFPOINTS
 62
     0
 10
-33.200012207
 20
95.999984741200009
 30
0.0
  0
POINT
  5
6B3
  8
DEFPOINTS
 62
     0
 10
-33.200012207
 20
110.5352729845072
 30
0.0
  0
ENDBLK
  5
11E
  8
0
  0
BLOCK
  8
0
  2
*D21
 70
     1
 10
0.0
 20
0.0
 30
0.0
  3
*D21
  1

  0
LINE
  5
6B4
  8
DIMENSIONS
 62
     0
 10
-102.96000003809991
 20
163.49998474119991
 30
0.0
 11
-59.771285387820377
 21
163.49998474119991
 31
0.0
  0
LINE
  5
6B5
  8
DIMENSIONS
 62
     0
 10
-102.96000003809991
 20
134.49998474119991
 30
0.0
 11
-59.771285387820377
 21
134.49998474119991
 31
0.0
  0
LINE
  5
6B6
  8
DIMENSIONS
 62
     0
 10
-63.581285330620368
 20
161.5271968946999
 30
0.0
 11
-63.581285330620368
 21
157.30528899581509
 31
0.0
  0
LINE
  5
6B7
  8
DIMENSIONS
 62
     0
 10
-63.581285330620382
 20
136.47277258769989
 30
0.0
 11
-63.581285330620382
 21
138.45862344156501
 31
0.0
  0
SOLID
  5
6B8
  8
DIMENSIONS
 62
     0
 10
-63.910083305037041
 20
161.5271968946999
 30
0.0
 11
-63.252487356203709
 21
161.5271968946999
 31
0.0
 12
-63.581285330620368
 22
163.49998474119991
 32
0.0
 13
-63.581285330620368
 23
163.49998474119991
 33
0.0
  0
SOLID
  5
6B9
  8
DIMENSIONS
 62
     0
 10
-63.910083305037048
 20
136.47277258769989
 30
0.0
 11
-63.252487356203709
 21
136.47277258769989
 31
0.0
 12
-63.581285330620382
 22
134.49998474119991
 32
0.0
 13
-63.581285330620382
 23
134.49998474119991
 33
0.0
  0
INSERT
  5
6BA
  8
0
  2
*U31
 10
0.0
 20
0.0
 30
0.0
  0
POINT
  5
6BB
  8
DEFPOINTS
 62
     0
 10
-105.4999999999999
 20
163.49998474119991
 30
0.0
  0
POINT
  5
6BC
  8
DEFPOINTS
 62
     0
 10
-105.4999999999999
 20
134.49998474119991
 30
0.0
  0
POINT
  5
6BD
  8
DEFPOINTS
 62
     0
 10
-63.581285330620382
 20
134.49998474119991
 30
0.0
  0
ENDBLK
  5
27F
  8
0
  0
BLOCK
  8
0
  2
*D22
 70
     1
 10
0.0
 20
0.0
 30
0.0
  3
*D22
  1

  0
LINE
  5
6C8
  8
DIMENSIONS
 62
     0
 10
-111.0
 20
132.95998477929999
 30
0.0
 11
-111.0
 21
116.06194367368001
 31
0.0
  0
LINE
  5
6C9
  8
DIMENSIONS
 62
     0
 10
-86.0
 20
137.56636905670001
 30
0.0
 11
-86.0
 21
116.06194367368001
 31
0.0
  0
LINE
  5
6CA
  8
DIMENSIONS
 62
     0
 10
-109.0272121534999
 20
119.87194361648
 30
0.0
 11
-106.4968032524957
 21
119.87194361648
 31
0.0
  0
LINE
  5
6CB
  8
DIMENSIONS
 62
     0
 10
-87.972787846499997
 20
119.87194361648
 30
0.0
 11
-90.850137507545725
 21
119.87194361648
 31
0.0
  0
SOLID
  5
6CC
  8
DIMENSIONS
 62
     0
 10
-109.0272121534999
 20
120.2007415908967
 30
0.0
 11
-109.0272121534999
 21
119.54314564206329
 31
0.0
 12
-111.0
 22
119.87194361648
 32
0.0
 13
-111.0
 23
119.87194361648
 33
0.0
  0
SOLID
  5
6CD
  8
DIMENSIONS
 62
     0
 10
-87.972787846499997
 20
120.2007415908967
 30
0.0
 11
-87.972787846499997
 21
119.54314564206329
 31
0.0
 12
-86.0
 22
119.87194361648
 32
0.0
 13
-86.0
 23
119.87194361648
 33
0.0
  0
TEXT
  5
6CE
  8
0
 62
     0
 10
-106.40680325249571
 20
118.27194371183
 30
0.0
 40
3.1999998092999991
  1
25.025
  0
POINT
  5
6CF
  8
DEFPOINTS
 62
     0
 10
-111.0
 20
135.49998474119991
 30
0.0
  0
POINT
  5
6D0
  8
DEFPOINTS
 62
     0
 10
-86.0
 20
140.10636901859999
 30
0.0
  0
POINT
  5
6D1
  8
DEFPOINTS
 62
     0
 10
-86.0
 20
119.87194361648
 30
0.0
  0
ENDBLK
  5
28B
  8
0
  0
BLOCK
  8
0
  2
*D23
 70
     1
 10
0.0
 20
0.0
 30
0.0
  3
*D23
  1

  0
LINE
  5
68C
  8
DIMENSIONS
 62
     0
 10
-95.460000038100006
 20
66.999893188499996
 30
0.0
 11
-71.361365248987781
 21
66.999893188499996
 31
0.0
  0
LINE
  5
68D
  8
DIMENSIONS
 62
     0
 10
-95.460000038100006
 20
91.001022338899986
 30
0.0
 11
-71.361365248987781
 21
91.001022338899986
 31
0.0
  0
LINE
  5
68E
  8
DIMENSIONS
 62
     0
 10
-75.171365191787785
 20
68.972681034999994
 30
0.0
 11
-75.171365191787785
 21
69.238477785913346
 31
0.0
  0
LINE
  5
68F
  8
DIMENSIONS
 62
     0
 10
-75.171365191787785
 20
89.028234492399989
 30
0.0
 11
-75.171365191787785
 21
88.085143340163356
 31
0.0
  0
SOLID
  5
690
  8
DIMENSIONS
 62
     0
 10
-75.500163166204459
 20
68.972681034999994
 30
0.0
 11
-74.842567217371112
 21
68.972681034999994
 31
0.0
 12
-75.171365191787785
 22
66.999893188499996
 32
0.0
 13
-75.171365191787785
 23
66.999893188499996
 33
0.0
  0
SOLID
  5
691
  8
DIMENSIONS
 62
     0
 10
-75.500163166204459
 20
89.028234492399989
 30
0.0
 11
-74.842567217371112
 21
89.028234492399989
 31
0.0
 12
-75.171365191787785
 22
91.001022338899986
 32
0.0
 13
-75.171365191787785
 23
91.001022338899986
 33
0.0
  0
INSERT
  5
692
  8
0
  2
*U30
 10
0.0
 20
0.0
 30
0.0
  0
POINT
  5
693
  8
DEFPOINTS
 62
     0
 10
-98.0
 20
66.99989318850001
 30
0.0
  0
POINT
  5
694
  8
DEFPOINTS
 62
     0
 10
-98.0
 20
91.0010223389
 30
0.0
  0
POINT
  5
695
  8
DEFPOINTS
 62
     0
 10
-75.171365191787785
 20
91.001022338899986
 30
0.0
  0
ENDBLK
  5
2BA
  8
0
  0
BLOCK
  8
0
  2
*D24
 70
     1
 10
0.0
 20
0.0
 30
0.0
  3
*D24
  1

  0
LINE
  5
6BE
  8
DIMENSIONS
 62
     0
 10
-111.0
 20
132.96000003809999
 30
0.0
 11
-111.0
 21
116.06194367368001
 31
0.0
  0
LINE
  5
6BF
  8
DIMENSIONS
 62
     0
 10
-163.0
 20
132.3599939346
 30
0.0
 11
-163.0
 21
116.06194367368001
 31
0.0
  0
LINE
  5
6C0
  8
DIMENSIONS
 62
     0
 10
-112.9727878465
 20
119.87194361648
 30
0.0
 11
-132.03984233153781
 21
119.87194361648
 31
0.0
  0
LINE
  5
6C1
  8
DIMENSIONS
 62
     0
 10
-161.0272121534999
 20
119.87194361648
 30
0.0
 11
-141.28650845788781
 21
119.87194361648
 31
0.0
  0
SOLID
  5
6C2
  8
DIMENSIONS
 62
     0
 10
-112.9727878465
 20
120.2007415908967
 30
0.0
 11
-112.9727878465
 21
119.54314564206329
 31
0.0
 12
-111.0
 22
119.87194361648
 32
0.0
 13
-111.0
 23
119.87194361648
 33
0.0
  0
SOLID
  5
6C3
  8
DIMENSIONS
 62
     0
 10
-161.0272121534999
 20
120.2007415908967
 30
0.0
 11
-161.0272121534999
 21
119.54314564206329
 31
0.0
 12
-163.0
 22
119.87194361648
 32
0.0
 13
-163.0
 23
119.87194361648
 33
0.0
  0
TEXT
  5
6C4
  8
0
 62
     0
 10
-141.1965084578878
 20
118.27194371183
 30
0.0
 40
3.1999998092999991
  1
52.0
  0
POINT
  5
6C5
  8
DEFPOINTS
 62
     0
 10
-111.0
 20
135.49999999999989
 30
0.0
  0
POINT
  5
6C6
  8
DEFPOINTS
 62
     0
 10
-163.0
 20
134.89999389650001
 30
0.0
  0
POINT
  5
6C7
  8
DEFPOINTS
 62
     0
 10
-163.0
 20
119.87194361648
 30
0.0
  0
ENDBLK
  5
2E9
  8
0
  0
BLOCK
  8
0
  2
*D25
 70
     1
 10
0.0
 20
0.0
 30
0.0
  3
*D25
  1

  0
LINE
  5
65A
  8
DIMENSIONS
 62
     0
 10
-159.49999999999989
 20
131.75998783109989
 30
0.0
 11
-159.49999999999989
 21
124.38999700540001
 31
0.0
  0
LINE
  5
65B
  8
DIMENSIONS
 62
     0
 10
-160.29997253420001
 20
143.309975624
 30
0.0
 11
-160.29997253420001
 21
124.38999700540001
 31
0.0
  0
LINE
  5
65C
  8
DIMENSIONS
 62
     0
 10
-157.5272121534999
 20
128.19999694820001
 30
0.0
 11
-155.55442430700001
 21
128.19999694820001
 31
0.0
  0
LINE
  5
65D
  8
DIMENSIONS
 62
     0
 10
-162.27276038069999
 20
128.19999694820001
 30
0.0
 11
-164.2455482272
 21
128.19999694820001
 31
0.0
  0
SOLID
  5
65E
  8
DIMENSIONS
 62
     0
 10
-157.5272121534999
 20
128.52879492261661
 30
0.0
 11
-157.5272121534999
 21
127.87119897378329
 31
0.0
 12
-159.49999999999989
 22
128.19999694820001
 32
0.0
 13
-159.49999999999989
 23
128.19999694820001
 33
0.0
  0
SOLID
  5
65F
  8
DIMENSIONS
 62
     0
 10
-162.27276038069999
 20
128.52879492261661
 30
0.0
 11
-162.27276038069999
 21
127.87119897378329
 31
0.0
 12
-160.29997253420001
 22
128.19999694820001
 32
0.0
 13
-160.29997253420001
 23
128.19999694820001
 33
0.0
  0
TEXT
  5
660
  8
0
 62
     0
 10
-170.20221454425001
 20
126.59999704355
 30
0.0
 40
3.1999998092999991
  1
0.8
  0
POINT
  5
661
  8
DEFPOINTS
 62
     0
 10
-159.49999999999989
 20
134.2999877929999
 30
0.0
  0
POINT
  5
662
  8
DEFPOINTS
 62
     0
 10
-160.29997253420001
 20
145.84997558590001
 30
0.0
  0
POINT
  5
663
  8
DEFPOINTS
 62
     0
 10
-160.29997253420001
 20
128.19999694820001
 30
0.0
  0
ENDBLK
  5
305
  8
0
  0
BLOCK
  8
0
  2
*D26
 70
     1
 10
0.0
 20
0.0
 30
0.0
  3
*D26
  1

  0
LINE
  5
646
  8
DIMENSIONS
 62
     0
 10
-159.49998474119991
 20
131.7599725723
 30
0.0
 11
-159.49998474119991
 21
124.38999700540001
 31
0.0
  0
LINE
  5
647
  8
DIMENSIONS
 62
     0
 10
-111.0
 20
132.96000003809999
 30
0.0
 11
-111.0
 21
124.38999700540001
 31
0.0
  0
LINE
  5
648
  8
DIMENSIONS
 62
     0
 10
-157.5271968946999
 20
128.19999694820001
 30
0.0
 11
-140.1399920845499
 21
128.19999694820001
 31
0.0
  0
LINE
  5
649
  8
DIMENSIONS
 62
     0
 10
-112.9727878465
 20
128.19999694820001
 30
0.0
 11
-130.35999265664989
 21
128.19999694820001
 31
0.0
  0
SOLID
  5
64A
  8
DIMENSIONS
 62
     0
 10
-157.5271968946999
 20
128.52879492261661
 30
0.0
 11
-157.5271968946999
 21
127.87119897378329
 31
0.0
 12
-159.49998474119991
 22
128.19999694820001
 32
0.0
 13
-159.49998474119991
 23
128.19999694820001
 33
0.0
  0
SOLID
  5
64B
  8
DIMENSIONS
 62
     0
 10
-112.9727878465
 20
128.52879492261661
 30
0.0
 11
-112.9727878465
 21
127.87119897378329
 31
0.0
 12
-111.0
 22
128.19999694820001
 32
0.0
 13
-111.0
 23
128.19999694820001
 33
0.0
  0
TEXT
  5
64C
  8
0
 62
     0
 10
-140.0499920845499
 20
126.59999704355
 30
0.0
 40
3.1999998092999991
  1
48.5
  0
POINT
  5
64D
  8
DEFPOINTS
 62
     0
 10
-159.49998474119991
 20
134.29997253420001
 30
0.0
  0
POINT
  5
64E
  8
DEFPOINTS
 62
     0
 10
-111.0
 20
135.49999999999989
 30
0.0
  0
POINT
  5
64F
  8
DEFPOINTS
 62
     0
 10
-111.0
 20
128.19999694820001
 30
0.0
  0
ENDBLK
  5
3CC
  8
0
  0
BLOCK
  8
0
  2
*D27
 70
     1
 10
0.0
 20
0.0
 30
0.0
  3
*D27
  1

  0
LINE
  5
6E6
  8
DIMENSIONS
 62
     0
 10
-98.0
 20
132.75998783109989
 30
0.0
 11
-98.0
 21
124.11079793466369
 31
0.0
  0
LINE
  5
6E7
  8
DIMENSIONS
 62
     0
 10
-111.0
 20
132.96000003809999
 30
0.0
 11
-111.0
 21
124.11079793466369
 31
0.0
  0
LINE
  5
6E8
  8
DIMENSIONS
 62
     0
 10
-109.0272121534999
 20
127.9207978774637
 30
0.0
 11
-99.972787846499983
 21
127.9207978774637
 31
0.0
  0
LINE
  5
6E9
  8
DIMENSIONS
 62
     0
 10
-98.0
 20
127.9207978774637
 30
0.0
 11
-75.489098204958694
 21
127.9207978774637
 31
0.0
  0
SOLID
  5
6EA
  8
DIMENSIONS
 62
     0
 10
-109.0272121534999
 20
128.2495958518804
 30
0.0
 11
-109.0272121534999
 21
127.5919999030471
 31
0.0
 12
-111.0
 22
127.9207978774637
 32
0.0
 13
-111.0
 23
127.9207978774637
 33
0.0
  0
SOLID
  5
6EB
  8
DIMENSIONS
 62
     0
 10
-99.972787846499983
 20
128.2495958518804
 30
0.0
 11
-99.972787846499983
 21
127.5919999030471
 31
0.0
 12
-98.0
 22
127.9207978774637
 32
0.0
 13
-98.0
 23
127.9207978774637
 33
0.0
  0
TEXT
  5
6EC
  8
0
 62
     0
 10
-75.39909820495869
 20
126.32079797281369
 30
0.0
 40
3.1999998092999991
  1
13.013
  0
POINT
  5
6ED
  8
DEFPOINTS
 62
     0
 10
-98.0
 20
135.2999877929999
 30
0.0
  0
POINT
  5
6EE
  8
DEFPOINTS
 62
     0
 10
-111.0
 20
135.49999999999989
 30
0.0
  0
POINT
  5
6EF
  8
DEFPOINTS
 62
     0
 10
-111.0
 20
127.9207978774637
 30
0.0
  0
ENDBLK
  5
3D8
  8
0
  0
BLOCK
  8
0
  2
*U30
 70
     1
 10
0.0
 20
0.0
 30
0.0
  3
*U30
  1

  0
TEXT
  5
77A
  8
0
 62
     0
 10
-73.571365287137795
 20
69.328477785913336
 30
0.0
 40
3.1999998092999991
  1
24.0
 50
90.0
  0
TEXT
  5
77B
  8
0
 62
     0
 10
-73.571365287137795
 20
79.461810515363339
 30
0.0
 40
3.1999998092999991
  1
\U+2205
 50
90.0
  0
TEXT
  5
77C
  8
0
 62
     0
 10
-73.571365287137795
 20
82.661810324663335
 30
0.0
 40
3.1999998092999991
  1
24
 50
90.0
  0
ENDBLK
  5
77E
  8
0
  0
BLOCK
  8
0
  2
*U31
 70
     1
 10
0.0
 20
0.0
 30
0.0
  3
*U31
  1

  0
TEXT
  5
780
  8
0
 62
     0
 10
-61.981285425970398
 20
138.5486234415651
 30
0.0
 40
3.1999998092999991
  1
29.0
 50
90.0
  0
TEXT
  5
781
  8
0
 62
     0
 10
-61.981285425970398
 20
148.681956171015
 30
0.0
 40
3.1999998092999991
  1
\U+2205
 50
90.0
  0
TEXT
  5
782
  8
0
 62
     0
 10
-61.981285425970398
 20
151.8819559803151
 30
0.0
 40
3.1999998092999991
  1
29
 50
90.0
  0
ENDBLK
  5
784
  8
0
  0
BLOCK
  8
0
  2
*U32
 70
     1
 10
0.0
 20
0.0
 30
0.0
  3
*U32
  1

  0
TEXT
  5
786
  8
0
 10
-128.79779798692439
 20
193.61899051393291
 30
0.0
 40
3.1999998092999991
  1
ASW210 (w/ cover)
  0
TEXT
  5
787
  8
0
 10
-128.79779798692439
 20
188.2856574984329
 30
0.0
 40
3.1999998092999991
  1
(dimensions in mm)
  0
ENDBLK
  5
789
  8
0
  0
ENDSEC
  0
SECTION
  2
ENTITIES
  0
ARC
  5
D7
  8
LAYER1$C$L1
 62
     3
 10
-48.0
 20
79.0
 30
0.0
 40
11.5
 50
331.60158631799999
 51
118.3983786204
  0
ARC
  5
D8
  8
LAYER1$C$L1
 62
     3
 10
-48.0
 20
79.0
 30
0.0
 40
11.5
 50
298.39846923409999
 51
331.60158631799999
  0
ARC
  5
D9
  8
LAYER1$C$L1
 62
     3
 10
-57.236434936499997
 20
83.993804931599996
 30
0.0
 40
1.0
 50
151.6014581382999
 51
224.99992771399999
  0
ARC
  5
DA
  8
LAYER1$C$L1
 62
     3
 10
-52.993804931600003
 20
88.23643493649999
 30
0.0
 40
1.0
 50
45.000018327699998
 51
118.398433262
  0
ARC
  5
DB
  8
LAYER1$C$L1
 62
     3
 10
-48.0
 20
79.0
 30
0.0
 40
11.5
 50
118.3983786203999
 51
134.9999457001
  0
ARC
  5
DC
  8
LAYER1$C$L1
 62
     3
 10
-48.0
 20
79.0
 30
0.0
 40
11.5
 50
151.6014581382999
 51
298.39834264829989
  0
ARC
  5
DD
  8
LAYER1$C$L1
 62
     3
 10
-44.888732910199998
 20
75.8887176514
 30
0.0
 40
0.5999999642000001
 50
224.99999965839999
 51
45.000001252200029
  0
ARC
  5
DE
  8
LAYER1$C$L1
 62
     3
 10
-48.0
 20
79.0
 30
0.0
 40
11.5
 50
134.9999457001
 51
151.6014581382999
  0
CIRCLE
  5
DF
  8
LAYER1$C$L1
 62
     3
 10
-48.0
 20
79.0
 30
0.0
 40
14.0
  0
CIRCLE
  5
E0
  8
LAYER1$C$L1
 62
     3
 10
-48.0
 20
79.0
 30
0.0
 40
14.5
  0
ARC
  5
E1
  8
LAYER1$C$L1
 62
     3
 10
-43.006179809599999
 20
69.763549804700006
 30
0.0
 40
1.0
 50
224.9999450169
 51
298.39841459259992
  0
ARC
  5
E2
  8
LAYER1$C$L1
 62
     3
 10
-38.763549804699991
 20
74.006179809599985
 30
0.0
 40
1.0
 50
331.60158631799999
 51
45.000018327699991
  0
ARC
  5
E3
  8
LAYER4$C$L4
  6
PHANTOM
 62
     3
 10
-48.5
 20
59.600051879900001
 30
0.0
 40
0.5
 50
269.99996334460002
 51
359.99987273089988
  0
ARC
  5
E4
  8
LAYER4$C$L4
  6
PHANTOM
 62
     3
 10
-61.599990844700002
 20
59.600051879900001
 30
0.0
 40
0.5
 50
180.0000906137
 51
270.00001798609998
  0
ARC
  5
E5
  8
LAYER4$C$L4
  6
PHANTOM
 62
     3
 10
-61.6000061035
 20
98.400024414100002
 30
0.0
 40
0.5
 50
90.000145938500026
 51
180.00007331079999
  0
ARC
  5
E6
  8
LAYER4$C$L4
  6
PHANTOM
 62
     3
 10
-48.500015258799991
 20
98.400024414100002
 30
0.0
 40
0.5
 50
0.0
 51
89.999982013899995
  0
ARC
  5
E7
  8
LAYER1$C$L1
 62
     3
 10
-34.200012207
 20
95.999984741200009
 30
0.0
 40
1.0
 50
0.000072627560058
 51
89.999982013899995
  0
ARC
  5
E8
  8
LAYER1$C$L1
 62
     3
 10
-34.200012207
 20
62.0
 30
0.0
 40
1.0
 50
270.00012726910001
 51
0.000072627600094
  0
ARC
  5
E9
  8
LAYER1$C$L1
 62
     3
 10
-61.800003051799997
 20
96.0
 30
0.0
 40
1.0
 50
89.999982013899995
 51
179.9999640277999
  0
ARC
  5
EA
  8
LAYER1$C$L1
 62
     3
 10
-61.800003051799997
 20
62.000015258799998
 30
0.0
 40
1.0
 50
179.9999640277999
 51
269.9999460416999
  0
DIMENSION
  5
EB
  8
DIMENSIONS
  2
*D18
 10
-8.2064617210892195
 20
59.100036621099981
 30
0.0
 11
-8.2064617210892266
 21
78.339856646864064
 31
0.0
 70
   128
 13
-48.000015258799991
 23
98.899993896500007
 33
0.0
 14
-48.000015258799991
 24
59.100036621100003
 34
0.0
 50
270.0
1001
ACAD
1000
DSTYLE
1002
{
1070
    41
1040
1.9727878464999999
1070
    42
1040
2.5399999618999991
1070
    44
1040
3.8099999427999989
1070
    73
1070
     0
1070
   140
1040
3.1999998092999991
1070
   271
1070
     1
1070
   272
1070
     1
1002
}
  0
LINE
  5
F8
  8
LAYER1$C$L1
 62
     3
 10
-45.312992285500002
 20
75.464440244599999
 30
0.0
 11
-56.544914528900001
 21
86.696365328300004
 31
0.0
  0
LINE
  5
F9
  8
LAYER1$C$L1
 62
     3
 10
-44.4644661775
 20
76.312966138099995
 30
0.0
 11
-55.6963884209
 21
87.5448912218
 31
0.0
  0
LINE
  5
FA
  8
LAYER1$C$L1
 62
     3
 10
-38.949031345900003
 20
73.484549034700009
 30
0.0
 11
-42.484565787299992
 21
69.949015487300002
 31
0.0
  0
LINE
  5
FB
  8
LAYER1$C$L1
 62
     3
 10
-38.949049785299998
 20
73.484551802499993
 30
0.0
 11
-54.169497094799993
 21
88.70499911200001
 31
0.0
  0
LINE
  5
FC
  8
LAYER1$C$L1
 62
     3
 10
-42.484583630700001
 20
69.949017956999995
 30
0.0
 11
-57.705030940299999
 21
85.169465266599985
 31
0.0
  0
LINE
  5
FD
  8
LAYER1$C$L1
 62
     3
 10
-52.286702320799989
 20
88.9435246452
 30
0.0
 11
-38.0564591224
 21
74.713281446799996
 31
0.0
  0
LINE
  5
FE
  8
LAYER1$C$L1
 62
     3
 10
-57.943567263100007
 20
83.286681282100005
 30
0.0
 11
-43.713313275099999
 21
69.056427294100004
 31
0.0
  0
LINE
  5
FF
  8
LAYER4$C$L4
  6
PHANTOM
 62
     3
 10
-48.000030517600003
 20
59.600036621100003
 30
0.0
 11
-48.000030517600003
 21
60.5
 31
0.0
  0
LINE
  5
100
  8
LAYER4$C$L4
  6
PHANTOM
 62
     3
 10
-48.000030517600003
 20
97.5
 30
0.0
 11
-48.000030517600003
 21
98.399993896499993
 31
0.0
  0
LINE
  5
101
  8
LAYER4$C$L4
  6
PHANTOM
 62
     3
 10
-62.099990844700002
 20
96.953933715800005
 30
0.0
 11
-62.099990844700002
 21
98.399993896499993
 31
0.0
  0
LINE
  5
102
  8
LAYER4$C$L4
  6
PHANTOM
 62
     3
 10
-48.0
 20
59.600036621100003
 30
0.0
 11
-48.0
 21
60.5
 31
0.0
  0
LINE
  5
103
  8
LAYER4$C$L4
  6
PHANTOM
 62
     3
 10
-48.5
 20
59.100036621100003
 30
0.0
 11
-61.599990844700002
 21
59.100036621100003
 31
0.0
  0
LINE
  5
104
  8
LAYER4$C$L4
  6
PHANTOM
 62
     3
 10
-62.099990844700002
 20
59.600036621100003
 30
0.0
 11
-62.099990844700002
 21
61.046066284200002
 31
0.0
  0
LINE
  5
105
  8
LAYER4$C$L4
  6
PHANTOM
 62
     3
 10
-61.599990844700002
 20
98.899993896500007
 30
0.0
 11
-48.5
 21
98.899993896500007
 31
0.0
  0
LINE
  5
106
  8
LAYER4$C$L4
  6
PHANTOM
 62
     3
 10
-48.0
 20
97.5
 30
0.0
 11
-48.0
 21
98.399993896499993
 31
0.0
  0
DIMENSION
  5
107
  8
DIMENSIONS
  2
*D19
 10
-17.542914942585391
 20
97.499984741199995
 30
0.0
 11
-17.542914942585409
 21
78.983764479212709
 31
0.0
 70
   129
  1
<>37
 13
-42.700012207
 23
60.5
 33
0.0
 14
-42.700012207
 24
97.499984741200009
 34
0.0
1001
ACAD
1000
DSTYLE
1002
{
1070
    41
1040
1.9727878464999999
1070
    42
1040
2.5399999618999991
1070
    44
1040
3.8099999427999989
1070
    73
1070
     0
1070
   140
1040
3.1999998092999991
1070
   271
1070
     1
1070
   272
1070
     1
1002
}
  0
DIMENSION
  5
113
  8
DIMENSIONS
  2
*D20
 10
-33.200012207
 20
110.5352729845072
 30
0.0
 11
-47.80590004983241
 21
110.5352729845072
 31
0.0
 70
   128
  1
<>30
 13
-62.800003051799997
 23
96.0
 33
0.0
 14
-33.200012207
 24
95.999984741200009
 34
0.0
1001
ACAD
1000
DSTYLE
1002
{
1070
    41
1040
1.9727878464999999
1070
    42
1040
2.5399999618999991
1070
    44
1040
3.8099999427999989
1070
    73
1070
     0
1070
   140
1040
3.1999998092999991
1070
   271
1070
     1
1070
   272
1070
     1
1002
}
  0
LINE
  5
11F
  8
LAYER1$C$L1
 62
     3
 10
-48.000015258799991
 20
95.5
 30
0.0
 11
-43.800003051799997
 21
95.5
 31
0.0
  0
LINE
  5
120
  8
LAYER1$C$L1
 62
     3
 10
-48.000015258799991
 20
62.5
 30
0.0
 11
-43.800003051799997
 21
62.5
 31
0.0
  0
LINE
  5
121
  8
LAYER1$C$L1
 62
     3
 10
-48.000015258799991
 20
97.5
 30
0.0
 11
-46.90000915529999
 21
97.5
 31
0.0
  0
LINE
  5
122
  8
LAYER1$C$L1
 62
     3
 10
-42.700012207
 20
60.5
 30
0.0
 11
-52.200012207
 21
60.5
 31
0.0
  0
LINE
  5
123
  8
LAYER1$C$L1
 62
     3
 10
-43.800003051799997
 20
97.5
 30
0.0
 11
-43.800003051799997
 21
95.5
 31
0.0
  0
LINE
  5
124
  8
LAYER1$C$L1
 62
     3
 10
-43.800003051799997
 20
62.5
 30
0.0
 11
-43.800003051799997
 21
60.5
 31
0.0
  0
LINE
  5
125
  8
LAYER1$C$L1
 62
     3
 10
-46.90000915529999
 20
97.5
 30
0.0
 11
-46.90000915529999
 21
95.5
 31
0.0
  0
LINE
  5
126
  8
LAYER1$C$L1
 62
     3
 10
-46.90000915529999
 20
62.5
 30
0.0
 11
-46.90000915529999
 21
60.5
 31
0.0
  0
LINE
  5
127
  8
LAYER1$C$L1
 62
     3
 10
-46.90000915529999
 20
60.5
 30
0.0
 11
-48.000015258799991
 21
60.5
 31
0.0
  0
LINE
  5
128
  8
LAYER1$C$L1
 62
     3
 10
-52.200012207
 20
97.5
 30
0.0
 11
-42.700012207
 21
97.5
 31
0.0
  0
LINE
  5
129
  8
LAYER1$C$L1
 62
     3
 10
-42.700012207
 20
97.0
 30
0.0
 11
-42.700012207
 21
97.5
 31
0.0
  0
LINE
  5
12A
  8
LAYER1$C$L1
 62
     3
 10
-42.700012207
 20
61.0
 30
0.0
 11
-42.700012207
 21
60.5
 31
0.0
  0
LINE
  5
12B
  8
LAYER1$C$L1
 62
     3
 10
-42.700012207
 20
97.0
 30
0.0
 11
-34.200012207
 21
97.0
 31
0.0
  0
LINE
  5
12C
  8
LAYER1$C$L1
 62
     3
 10
-42.700012207
 20
61.0
 30
0.0
 11
-34.200012207
 21
61.0
 31
0.0
  0
LINE
  5
12D
  8
LAYER1$C$L1
 62
     3
 10
-33.200012207
 20
96.0
 30
0.0
 11
-33.200012207
 21
62.0
 31
0.0
  0
LINE
  5
12E
  8
LAYER1$C$L1
 62
     3
 10
-52.200012207
 20
95.5
 30
0.0
 11
-48.000015258799991
 21
95.5
 31
0.0
  0
LINE
  5
12F
  8
LAYER1$C$L1
 62
     3
 10
-52.200012207
 20
62.5
 30
0.0
 11
-48.000015258799991
 21
62.5
 31
0.0
  0
LINE
  5
130
  8
LAYER1$C$L1
 62
     3
 10
-49.1000061035
 20
97.5
 30
0.0
 11
-48.000015258799991
 21
97.5
 31
0.0
  0
LINE
  5
131
  8
LAYER1$C$L1
 62
     3
 10
-52.200012207
 20
60.5
 30
0.0
 11
-53.300003051799997
 21
60.5
 31
0.0
  0
LINE
  5
132
  8
LAYER1$C$L1
 62
     3
 10
-52.200012207
 20
95.5
 30
0.0
 11
-52.200012207
 21
97.5
 31
0.0
  0
LINE
  5
133
  8
LAYER1$C$L1
 62
     3
 10
-52.200012207
 20
60.5
 30
0.0
 11
-52.200012207
 21
62.5
 31
0.0
  0
LINE
  5
134
  8
LAYER1$C$L1
 62
     3
 10
-49.1000061035
 20
95.5
 30
0.0
 11
-49.1000061035
 21
97.5
 31
0.0
  0
LINE
  5
135
  8
LAYER1$C$L1
 62
     3
 10
-49.1000061035
 20
60.5
 30
0.0
 11
-49.1000061035
 21
62.5
 31
0.0
  0
LINE
  5
136
  8
LAYER1$C$L1
 62
     3
 10
-48.000015258799991
 20
60.5
 30
0.0
 11
-49.1000061035
 21
60.5
 31
0.0
  0
LINE
  5
137
  8
LAYER1$C$L1
 62
     3
 10
-53.300003051799997
 20
97.5
 30
0.0
 11
-52.200012207
 21
97.5
 31
0.0
  0
LINE
  5
138
  8
LAYER1$C$L1
 62
     3
 10
-53.300003051799997
 20
97.5
 30
0.0
 11
-53.300003051799997
 21
97.0
 31
0.0
  0
LINE
  5
139
  8
LAYER1$C$L1
 62
     3
 10
-53.300003051799997
 20
60.5
 30
0.0
 11
-53.300003051799997
 21
61.0
 31
0.0
  0
LINE
  5
13A
  8
LAYER1$C$L1
 62
     3
 10
-61.800003051799997
 20
97.0
 30
0.0
 11
-53.300003051799997
 21
97.0
 31
0.0
  0
LINE
  5
13B
  8
LAYER1$C$L1
 62
     3
 10
-61.800003051799997
 20
61.0
 30
0.0
 11
-53.300003051799997
 21
61.0
 31
0.0
  0
LINE
  5
13C
  8
LAYER1$C$L1
 62
     3
 10
-62.800003051799997
 20
62.0
 30
0.0
 11
-62.800003051799997
 21
96.0
 31
0.0
  0
LINE
  5
13D
  8
LAYER3$C$L3
  6
CENTERLINE
 62
     3
 10
-48.000015258799991
 20
56.689743041999989
 30
0.0
 11
-48.000015258799991
 21
101.4022521973
 31
0.0
  0
LINE
  5
13E
  8
LAYER3$C$L3
  6
CENTERLINE
 62
     3
 10
-65.554000854500003
 20
79.0
 30
0.0
 11
-30.633987426800001
 21
79.0
 31
0.0
  0
TEXT
  5
13F
  8
LAYER8$C$L8
 62
     3
 10
-155.4500579834
 20
84.688196964399978
 30
0.0
 40
1.5
  1
UÇâ600V IÇîÇà10A
 50
270.0
 41
0.5474450447759033
 72
     5
 11
-155.4500579834
 21
73.3287122853
 31
0.0
  0
TEXT
  5
140
  8
LAYER8$C$L8
 62
     3
 10
-134.49998474119991
 20
162.81665414179989
 30
0.0
 40
3.5
  1
TW
 50
270.0
 41
0.9333343142285741
 72
     5
 11
-134.49998474119991
 21
156.2833139421999
 31
0.0
  0
POLYLINE
  5
141
  8
LAYER1$C$L1
 62
     3
 66
     1
 10
0.0
 20
0.0
 30
0.0
  0
VERTEX
  5
6FA
  8
LAYER1$C$L1
 62
     3
 10
-153.28365001739991
 20
142.6939991214999
 30
0.0
  0
VERTEX
  5
6FB
  8
LAYER1$C$L1
 62
     3
 10
-153.43652646399991
 20
142.93249790569999
 30
0.0
  0
VERTEX
  5
6FC
  8
LAYER1$C$L1
 62
     3
 10
-153.60039036680001
 20
143.11992899529989
 30
0.0
  0
VERTEX
  5
6FD
  8
LAYER1$C$L1
 62
     3
 10
-153.77252689580001
 20
143.25318710849999
 30
0.0
  0
VERTEX
  5
6FE
  8
LAYER1$C$L1
 62
     3
 10
-153.9500841631999
 20
143.33006447930001
 30
0.0
  0
VERTEX
  5
6FF
  8
LAYER1$C$L1
 62
     3
 10
-154.1301204728
 20
143.34928743489991
 30
0.0
  0
VERTEX
  5
700
  8
LAYER1$C$L1
 62
     3
 10
-154.30965305660001
 20
143.3105374973
 30
0.0
  0
VERTEX
  5
701
  8
LAYER1$C$L1
 62
     3
 10
-154.48570749219991
 20
143.21445665940001
 30
0.0
  0
VERTEX
  5
702
  8
LAYER1$C$L1
 62
     3
 10
-154.6553669816
 20
143.06263674949989
 30
0.0
  0
VERTEX
  5
703
  8
LAYER1$C$L1
 62
     3
 10
-154.81582067569991
 20
142.85759305760001
 30
0.0
  0
VERTEX
  5
704
  8
LAYER1$C$L1
 62
     3
 10
-154.96441024329991
 20
142.602722664
 30
0.0
  0
VERTEX
  5
705
  8
LAYER1$C$L1
 62
     3
 10
-155.0986739132
 20
142.30224815700001
 30
0.0
  0
VERTEX
  5
706
  8
LAYER1$C$L1
 62
     3
 10
-155.2163872596999
 20
141.9611476755999
 30
0.0
  0
VERTEX
  5
707
  8
LAYER1$C$L1
 62
     3
 10
-155.3156000562999
 20
141.5850724330999
 30
0.0
  0
VERTEX
  5
708
  8
LAYER1$C$L1
 62
     3
 10
-155.39466858590001
 20
141.18025309039999
 30
0.0
  0
VERTEX
  5
709
  8
LAYER1$C$L1
 62
     3
 10
-155.45228287340001
 20
140.75339652889991
 30
0.0
  0
VERTEX
  5
70A
  8
LAYER1$C$L1
 62
     3
 10
-155.4874883889
 20
140.31157473370001
 30
0.0
  0
VERTEX
  5
70B
  8
LAYER1$C$L1
 62
     3
 10
-155.4997018617
 20
139.86210762760001
 30
0.0
  0
VERTEX
  5
70C
  8
LAYER1$C$L1
 62
     3
 10
-155.48872094399991
 20
139.41244179809991
 30
0.0
  0
VERTEX
  5
70D
  8
LAYER1$C$L1
 62
     3
 10
-155.45472756320001
 20
138.97002712479991
 30
0.0
  0
VERTEX
  5
70E
  8
LAYER1$C$L1
 62
     3
 10
-155.39828490779999
 20
138.5421933531
 30
0.0
  0
VERTEX
  5
70F
  8
LAYER1$C$L1
 62
     3
 10
-155.32032809649999
 20
138.13602865809989
 30
0.0
  0
SEQEND
  5
710
  8
LAYER1$C$L1
 62
     3
  0
POLYLINE
  5
159
  8
LAYER1$C$L1
 62
     3
 66
     1
 10
0.0
 20
0.0
 30
0.0
  0
VERTEX
  5
711
  8
LAYER1$C$L1
 62
     3
 10
-155.08384877309999
 20
137.36079246669991
 30
0.0
  0
VERTEX
  5
712
  8
LAYER1$C$L1
 62
     3
 10
-154.9558484522
 20
137.08082695940001
 30
0.0
  0
VERTEX
  5
713
  8
LAYER1$C$L1
 62
     3
 10
-154.8152135695
 20
136.8417298036
 30
0.0
  0
VERTEX
  5
714
  8
LAYER1$C$L1
 62
     3
 10
-154.66401957549991
 20
136.64702952889991
 30
0.0
  0
VERTEX
  5
715
  8
LAYER1$C$L1
 62
     3
 10
-154.50449774910001
 20
136.49959946749991
 30
0.0
  0
VERTEX
  5
716
  8
LAYER1$C$L1
 62
     3
 10
-154.33900226899991
 20
136.40161535129991
 30
0.0
  0
VERTEX
  5
717
  8
LAYER1$C$L1
 62
     3
 10
-154.16997547150001
 20
136.35452320280001
 30
0.0
  0
VERTEX
  5
718
  8
LAYER1$C$L1
 62
     3
 10
-153.99991180699999
 20
136.3590179945999
 30
0.0
  0
VERTEX
  5
719
  8
LAYER1$C$L1
 62
     3
 10
-153.83132102779999
 20
136.4150333938999
 30
0.0
  0
VERTEX
  5
71A
  8
LAYER1$C$L1
 62
     3
 10
-153.6666911495999
 20
136.52174274099991
 30
0.0
  0
VERTEX
  5
71B
  8
LAYER1$C$L1
 62
     3
 10
-153.5084517345
 20
136.67757124920001
 30
0.0
  0
VERTEX
  5
71C
  8
LAYER1$C$L1
 62
     3
 10
-153.3589380356
 20
136.88021924450001
 30
0.0
  0
VERTEX
  5
71D
  8
LAYER1$C$L1
 62
     3
 10
-153.2203565346
 20
137.12669610419991
 30
0.0
  0
SEQEND
  5
71E
  8
LAYER1$C$L1
 62
     3
  0
POLYLINE
  5
168
  8
LAYER4$C$L4
  6
PHANTOM
 62
     3
 66
     1
 10
0.0
 20
0.0
 30
0.0
  0
VERTEX
  5
71F
  8
LAYER4$C$L4
  6
PHANTOM
 62
     3
 10
-160.8886948780999
 20
142.65546017189999
 30
0.0
  0
VERTEX
  5
720
  8
LAYER4$C$L4
  6
PHANTOM
 62
     3
 10
-161.0934352047999
 20
142.48382578019999
 30
0.0
  0
VERTEX
  5
721
  8
LAYER4$C$L4
  6
PHANTOM
 62
     3
 10
-161.28508340740001
 20
142.25010924360001
 30
0.0
  0
VERTEX
  5
722
  8
LAYER4$C$L4
  6
PHANTOM
 62
     3
 10
-161.45978116849989
 20
141.95901581140001
 30
0.0
  0
VERTEX
  5
723
  8
LAYER4$C$L4
  6
PHANTOM
 62
     3
 10
-161.61401142189999
 20
141.6164058615999
 30
0.0
  0
VERTEX
  5
724
  8
LAYER4$C$L4
  6
PHANTOM
 62
     3
 10
-161.7446691589999
 20
141.22917691750001
 30
0.0
  0
VERTEX
  5
725
  8
LAYER4$C$L4
  6
PHANTOM
 62
     3
 10
-161.84912394029999
 20
140.80512478509991
 30
0.0
  0
VERTEX
  5
726
  8
LAYER4$C$L4
  6
PHANTOM
 62
     3
 10
-161.9252728516
 20
140.3527866055999
 30
0.0
  0
VERTEX
  5
727
  8
LAYER4$C$L4
  6
PHANTOM
 62
     3
 10
-161.97158284080001
 20
139.8812689829999
 30
0.0
  0
VERTEX
  5
728
  8
LAYER4$C$L4
  6
PHANTOM
 62
     3
 10
-161.9871215819
 20
139.40006464769991
 30
0.0
  0
VERTEX
  5
729
  8
LAYER4$C$L4
  6
PHANTOM
 62
     3
 10
-161.97157624409991
 20
138.91886134549989
 30
0.0
  0
VERTEX
  5
72A
  8
LAYER4$C$L4
  6
PHANTOM
 62
     3
 10
-161.925259791
 20
138.44734680170001
 30
0.0
  0
VERTEX
  5
72B
  8
LAYER4$C$L4
  6
PHANTOM
 62
     3
 10
-161.84910467869989
 20
137.99501368439991
 30
0.0
  0
VERTEX
  5
72C
  8
LAYER4$C$L4
  6
PHANTOM
 62
     3
 10
-161.74464408430001
 20
137.57096849600001
 30
0.0
  0
VERTEX
  5
72D
  8
LAYER4$C$L4
  6
PHANTOM
 62
     3
 10
-161.61398103879989
 20
137.18374823760001
 30
0.0
  0
VERTEX
  5
72E
  8
LAYER4$C$L4
  6
PHANTOM
 62
     3
 10
-161.4597460887999
 20
136.8411485405999
 30
0.0
  0
VERTEX
  5
72F
  8
LAYER4$C$L4
  6
PHANTOM
 62
     3
 10
-161.28504433719991
 20
136.55006672170001
 30
0.0
  0
VERTEX
  5
730
  8
LAYER4$C$L4
  6
PHANTOM
 62
     3
 10
-161.09339293069991
 20
136.31636292519991
 30
0.0
  0
VERTEX
  5
731
  8
LAYER4$C$L4
  6
PHANTOM
 62
     3
 10
-160.8886502512
 20
136.14474214389989
 30
0.0
  0
SEQEND
  5
732
  8
LAYER4$C$L4
  6
PHANTOM
 62
     3
  0
POLYLINE
  5
17D
  8
LAYER1$C$L1
 62
     3
 66
     1
 10
0.0
 20
0.0
 30
0.0
  0
VERTEX
  5
733
  8
LAYER1$C$L1
 62
     3
 10
-152.5497131347999
 20
136.35011291500001
 30
0.0
  0
VERTEX
  5
734
  8
LAYER1$C$L1
 62
     3
 10
-152.36903771429991
 20
136.37938098629999
 30
0.0
  0
VERTEX
  5
735
  8
LAYER1$C$L1
 62
     3
 10
-152.19138402019999
 20
136.46669570290001
 30
0.0
  0
VERTEX
  5
736
  8
LAYER1$C$L1
 62
     3
 10
-152.01972324159991
 20
136.61059676019991
 30
0.0
  0
VERTEX
  5
737
  8
LAYER1$C$L1
 62
     3
 10
-151.85692633830001
 20
136.80867746870001
 30
0.0
  0
VERTEX
  5
738
  8
LAYER1$C$L1
 62
     3
 10
-151.70571602559991
 20
137.05762500540001
 30
0.0
  0
VERTEX
  5
739
  8
LAYER1$C$L1
 62
     3
 10
-151.5686212370999
 20
137.35327581929991
 30
0.0
  0
VERTEX
  5
73A
  8
LAYER1$C$L1
 62
     3
 10
-151.44793483009991
 20
137.69068526519999
 30
0.0
  0
VERTEX
  5
73B
  8
LAYER1$C$L1
 62
     3
 10
-151.34567523789991
 20
138.06421030109999
 30
0.0
  0
VERTEX
  5
73C
  8
LAYER1$C$L1
 62
     3
 10
-151.2635527125999
 20
138.46760386549991
 30
0.0
  0
VERTEX
  5
73D
  8
LAYER1$C$L1
 62
     3
 10
-151.2029407215
 20
138.89411935749999
 30
0.0
  0
VERTEX
  5
73E
  8
LAYER1$C$L1
 62
     3
 10
-151.1648529766
 20
139.33662347099991
 30
0.0
  0
VERTEX
  5
73F
  8
LAYER1$C$L1
 62
     3
 10
-151.14992648079991
 20
139.7877154963
 30
0.0
  0
VERTEX
  5
740
  8
LAYER1$C$L1
 62
     3
 10
-151.15841087379991
 20
140.23985109430001
 30
0.0
  0
VERTEX
  5
741
  8
LAYER1$C$L1
 62
     3
 10
-151.1901642576
 20
140.6854684722999
 30
0.0
  0
VERTEX
  5
742
  8
LAYER1$C$L1
 62
     3
 10
-151.24465556899989
 20
141.11711485270001
 30
0.0
  0
VERTEX
  5
743
  8
LAYER1$C$L1
 62
     3
 10
-151.32097346200001
 20
141.52757111700001
 30
0.0
  0
VERTEX
  5
744
  8
LAYER1$C$L1
 62
     3
 10
-151.41784154949991
 20
141.9099725435
 30
0.0
  0
VERTEX
  5
745
  8
LAYER1$C$L1
 62
     3
 10
-151.53363975030001
 20
142.25792361669991
 30
0.0
  0
VERTEX
  5
746
  8
LAYER1$C$L1
 62
     3
 10
-151.66643138430001
 20
142.56560498970001
 30
0.0
  0
VERTEX
  5
747
  8
LAYER1$C$L1
 62
     3
 10
-151.81399556299991
 20
142.82787081099991
 30
0.0
  0
VERTEX
  5
748
  8
LAYER1$C$L1
 62
     3
 10
-151.97386433279999
 20
143.0403347864999
 30
0.0
  0
VERTEX
  5
749
  8
LAYER1$C$L1
 62
     3
 10
-152.14336395039999
 20
143.1994435384
 30
0.0
  0
VERTEX
  5
74A
  8
LAYER1$C$L1
 62
     3
 10
-152.31965960049999
 20
143.3025360346999
 30
0.0
  0
VERTEX
  5
74B
  8
LAYER1$C$L1
 62
     3
 10
-152.49980280679989
 20
143.34788809339989
 30
0.0
  0
SEQEND
  5
74C
  8
LAYER1$C$L1
 62
     3
  0
POLYLINE
  5
198
  8
LAYER4$C$L4
  6
PHANTOM
 62
     3
 66
     1
 10
0.0
 20
0.0
 30
0.0
  0
VERTEX
  5
74D
  8
LAYER4$C$L4
  6
PHANTOM
 62
     3
 10
-160.21281862859999
 20
141.73721065699999
 30
0.0
  0
VERTEX
  5
74E
  8
LAYER4$C$L4
  6
PHANTOM
 62
     3
 10
-160.39489821219991
 20
142.0985379121
 30
0.0
  0
VERTEX
  5
74F
  8
LAYER4$C$L4
  6
PHANTOM
 62
     3
 10
-160.60064939439999
 20
142.39186246520001
 30
0.0
  0
VERTEX
  5
750
  8
LAYER4$C$L4
  6
PHANTOM
 62
     3
 10
-160.8248870571
 20
142.60979226899991
 30
0.0
  0
VERTEX
  5
751
  8
LAYER4$C$L4
  6
PHANTOM
 62
     3
 10
-161.06196020609991
 20
142.746835293
 30
0.0
  0
VERTEX
  5
752
  8
LAYER4$C$L4
  6
PHANTOM
 62
     3
 10
-161.30589438119989
 20
142.79953792769999
 30
0.0
  0
VERTEX
  5
753
  8
LAYER4$C$L4
  6
PHANTOM
 62
     3
 10
-161.5505422178
 20
142.76657201849989
 30
0.0
  0
VERTEX
  5
754
  8
LAYER4$C$L4
  6
PHANTOM
 62
     3
 10
-161.78973836659989
 20
142.64876833639991
 30
0.0
  0
VERTEX
  5
755
  8
LAYER4$C$L4
  6
PHANTOM
 62
     3
 10
-162.01745486589999
 20
142.449095642
 30
0.0
  0
VERTEX
  5
756
  8
LAYER4$C$L4
  6
PHANTOM
 62
     3
 10
-162.22795305139991
 20
142.17258586989999
 30
0.0
  0
VERTEX
  5
757
  8
LAYER4$C$L4
  6
PHANTOM
 62
     3
 10
-162.4159281762999
 20
141.8262073194
 30
0.0
  0
VERTEX
  5
758
  8
LAYER4$C$L4
  6
PHANTOM
 62
     3
 10
-162.5766430955
 20
141.41868904680001
 30
0.0
  0
VERTEX
  5
759
  8
LAYER4$C$L4
  6
PHANTOM
 62
     3
 10
-162.70604764589999
 20
140.96030088570001
 30
0.0
  0
VERTEX
  5
75A
  8
LAYER4$C$L4
  6
PHANTOM
 62
     3
 10
-162.80088071439991
 20
140.46259463690001
 30
0.0
  0
VERTEX
  5
75B
  8
LAYER4$C$L4
  6
PHANTOM
 62
     3
 10
-162.8587524209
 20
139.9381129535
 30
0.0
  0
VERTEX
  5
75C
  8
LAYER4$C$L4
  6
PHANTOM
 62
     3
 10
-162.8782043455999
 20
139.40007325379989
 30
0.0
  0
VERTEX
  5
75D
  8
LAYER4$C$L4
  6
PHANTOM
 62
     3
 10
-162.858746282
 20
138.86203463049989
 30
0.0
  0
VERTEX
  5
75E
  8
LAYER4$C$L4
  6
PHANTOM
 62
     3
 10
-162.80086859119999
 20
138.33755614910001
 30
0.0
  0
VERTEX
  5
75F
  8
LAYER4$C$L4
  6
PHANTOM
 62
     3
 10
-162.70602984399989
 20
137.8398551475
 30
0.0
  0
VERTEX
  5
760
  8
LAYER4$C$L4
  6
PHANTOM
 62
     3
 10
-162.57662006349989
 20
137.38147414619999
 30
0.0
  0
VERTEX
  5
761
  8
LAYER4$C$L4
  6
PHANTOM
 62
     3
 10
-162.4159004947
 20
136.97396476579991
 30
0.0
  0
VERTEX
  5
762
  8
LAYER4$C$L4
  6
PHANTOM
 62
     3
 10
-162.2279214177
 20
136.6275966156999
 30
0.0
  0
VERTEX
  5
763
  8
LAYER4$C$L4
  6
PHANTOM
 62
     3
 10
-162.01742007729999
 20
136.35109849019989
 30
0.0
  0
VERTEX
  5
764
  8
LAYER4$C$L4
  6
PHANTOM
 62
     3
 10
-161.7897012999
 20
136.1514383949
 30
0.0
  0
VERTEX
  5
765
  8
LAYER4$C$L4
  6
PHANTOM
 62
     3
 10
-161.55050380700001
 20
136.03364794709989
 30
0.0
  0
VERTEX
  5
766
  8
LAYER4$C$L4
  6
PHANTOM
 62
     3
 10
-161.30585559439999
 20
136.0006955737999
 30
0.0
  0
VERTEX
  5
767
  8
LAYER4$C$L4
  6
PHANTOM
 62
     3
 10
-161.06192202080001
 20
136.0534117048999
 30
0.0
  0
VERTEX
  5
768
  8
LAYER4$C$L4
  6
PHANTOM
 62
     3
 10
-160.82485043540001
 20
136.19046784569991
 30
0.0
  0
VERTEX
  5
769
  8
LAYER4$C$L4
  6
PHANTOM
 62
     3
 10
-160.60061525930001
 20
136.40841005600001
 30
0.0
  0
VERTEX
  5
76A
  8
LAYER4$C$L4
  6
PHANTOM
 62
     3
 10
-160.3948674239999
 20
136.7017459928
 30
0.0
  0
VERTEX
  5
76B
  8
LAYER4$C$L4
  6
PHANTOM
 62
     3
 10
-160.2127919630999
 20
137.0630833219
 30
0.0
  0
SEQEND
  5
76C
  8
LAYER4$C$L4
  6
PHANTOM
 62
     3
  0
ARC
  5
1B9
  8
LAYER4$C$L4
  6
PHANTOM
 62
     3
 10
-154.59996032709989
 20
147.99996948239991
 30
0.0
 40
1.0
 50
0.0
 51
89.999982013899995
  0
ARC
  5
1BA
  8
LAYER4$C$L4
  6
PHANTOM
 62
     3
 10
-160.33084106449999
 20
139.40011596679989
 30
0.0
 40
2.1680212020999998
 50
295.00004031069989
 51
64.999959689300027
  0
ARC
  5
1BB
  8
LAYER1$C$L1
 62
     3
 10
-140.0
 20
134.7999877929999
 30
0.0
 40
0.5
 50
270.00001798609998
 51
0.0
  0
ARC
  5
1BC
  8
LAYER1$C$L1
 62
     3
 10
-159.2997131347999
 20
134.49999999999989
 30
0.0
 40
0.1999999881
 50
180.00003597220001
 51
270.00001798609998
  0
ARC
  5
1BD
  8
LAYER1$C$L1
 62
     3
 10
-154.62037658689991
 20
137.54830932620001
 30
0.0
 40
0.5
 50
149.99980609859989
 51
202.03470070540001
  0
ARC
  5
1BE
  8
LAYER1$C$L1
 62
     3
 10
-152.55937194820001
 20
140.91806030270001
 30
0.0
 40
0.5
 50
89.999818089400023
 51
149.99986074020001
  0
ARC
  5
1BF
  8
LAYER1$C$L1
 62
     3
 10
-152.78407287600001
 20
141.72886657709989
 30
0.0
 40
0.5
 50
89.999927372399995
 51
149.99991538169991
  0
ARC
  5
1C0
  8
LAYER1$C$L1
 62
     3
 10
-150.5997161864999
 20
141.60011291500001
 30
0.0
 40
0.5
 50
179.9999093863
 51
269.9999460416999
  0
ARC
  5
1C1
  8
LAYER1$C$L1
 62
     3
 10
-150.5997161864999
 20
138.10011291500001
 30
0.0
 40
0.5
 50
89.999927372399995
 51
179.99985474479999
  0
ARC
  5
1C2
  8
LAYER1$C$L1
 62
     3
 10
-153.30410766599999
 20
140.19897460940001
 30
0.0
 40
3.2500247954999999
 50
71.506015402100005
 51
110.5385247727
  0
ARC
  5
1C3
  8
LAYER1$C$L1
 62
     3
 10
-153.30410766599999
 20
139.5012664795
 30
0.0
 40
3.2500324249000001
 50
255.83005289249991
 51
288.49518671120001
  0
ARC
  5
1C4
  8
LAYER1$C$L1
 62
     3
 10
-159.79997253420001
 20
145.84997558590001
 30
0.0
 40
0.5
 50
179.9999640277999
 51
269.9999460416999
  0
ARC
  5
1C5
  8
LAYER1$C$L1
 62
     3
 10
-159.79997253420001
 20
152.1499786377
 30
0.0
 40
0.5
 50
89.999982013899995
 51
179.9999640277999
  0
ARC
  5
1C6
  8
LAYER1$C$L1
 62
     3
 10
-87.000015258799991
 20
142.80784606930001
 30
0.0
 40
1.0
 50
273.68334776019998
 51
0.0
  0
ARC
  5
1C7
  8
LAYER1$C$L1
 62
     3
 10
-95.976577758800005
 20
140.8036193847999
 30
0.0
 40
0.4234089851
 50
93.683311788000012
 51
273.68333045729997
  0
ARC
  5
1C8
  8
LAYER1$C$L1
 62
     3
 10
-87.000015258799991
 20
140.10636901859999
 30
0.0
 40
1.0
 50
272.79941199860002
 51
0.0
  0
ARC
  5
1C9
  8
LAYER1$C$L1
 62
     3
 10
-87.000015258799991
 20
145.74441528319991
 30
0.0
 40
1.0
 50
273.93764936339988
 51
0.0
  0
ARC
  5
1CA
  8
LAYER1$C$L1
 62
     3
 10
-97.500015258800005
 20
160.1873626709
 30
0.0
 40
0.5
 50
359.99990938629992
 51
88.567773307199985
  0
ARC
  5
1CB
  8
LAYER1$C$L1
 62
     3
 10
-97.499969482400004
 20
137.84230041500001
 30
0.0
 40
0.5
 50
274.76377440380003
 51
0.0001279523000353
  0
ARC
  5
1CC
  8
LAYER1$C$L1
 62
     3
 10
-86.500015258799976
 20
159.93614196780001
 30
0.0
 40
0.5
 50
0.0
 51
88.567882590300002
  0
ARC
  5
1CD
  8
LAYER1$C$L1
 62
     3
 10
-87.000015258799991
 20
140.64028930660001
 30
0.0
 40
1.0
 50
272.79941199860002
 51
0.0
  0
ARC
  5
1CE
  8
LAYER1$C$L1
 62
     3
 10
-87.000015258799991
 20
144.37632751459989
 30
0.0
 40
1.0
 50
273.93764936339988
 51
0.0
  0
ARC
  5
1CF
  8
LAYER1$C$L1
 62
     3
 10
-87.000015258799991
 20
141.959274292
 30
0.0
 40
1.0
 50
273.68334776019998
 51
0.0
  0
ARC
  5
1D0
  8
LAYER1$C$L1
 62
     3
 10
-87.000015258799991
 20
85.192123413100006
 30
0.0
 40
1.0
 50
0.0
 51
86.316652239799978
  0
ARC
  5
1D1
  8
LAYER1$C$L1
 62
     3
 10
-95.976577758800005
 20
87.1963348389
 30
0.0
 40
0.4234089851
 50
86.316652239799978
 51
266.3166709091999
  0
ARC
  5
1D2
  8
LAYER1$C$L1
 62
     3
 10
-87.000015258799991
 20
87.893600463899986
 30
0.0
 40
1.0
 50
0.0
 51
87.200588001400007
  0
ARC
  5
1D3
  8
LAYER1$C$L1
 62
     3
 10
-87.000015258799991
 20
82.255538940400001
 30
0.0
 40
1.0
 50
0.0
 51
86.062350636599987
  0
ARC
  5
1D4
  8
LAYER1$C$L1
 62
     3
 10
-97.500015258800005
 20
67.81260681149999
 30
0.0
 40
0.5
 50
271.43222669279987
 51
0.0000906137000634
  0
ARC
  5
1D5
  8
LAYER1$C$L1
 62
     3
 10
-97.499969482400004
 20
90.157669067399993
 30
0.0
 40
0.5
 50
359.99987204769991
 51
85.236225596200086
  0
ARC
  5
1D6
  8
LAYER1$C$L1
 62
     3
 10
-86.500015258799976
 20
68.063827514600007
 30
0.0
 40
0.5
 50
271.43211740970003
 51
0.0
  0
ARC
  5
1D7
  8
LAYER1$C$L1
 62
     3
 10
-87.000015258799991
 20
87.359680175799994
 30
0.0
 40
1.0
 50
0.0
 51
87.200588001400007
  0
ARC
  5
1D8
  8
LAYER1$C$L1
 62
     3
 10
-87.000015258799991
 20
83.623641967799983
 30
0.0
 40
1.0
 50
0.0
 51
86.062350636599987
  0
ARC
  5
1D9
  8
LAYER1$C$L1
 62
     3
 10
-87.000015258799991
 20
86.040695190400015
 30
0.0
 40
1.0
 50
0.0
 51
86.316652239799978
  0
ARC
  5
1DA
  8
LAYER4$C$L4
  6
PHANTOM
 62
     3
 10
-157.2127990722999
 20
67.499984741199995
 30
0.0
 40
1.0
 50
26.99991878909999
 51
89.999708806300006
  0
ARC
  5
1DB
  8
LAYER4$C$L4
  6
PHANTOM
 62
     3
 10
-157.21269226070001
 20
90.499969482400004
 30
0.0
 40
1.0
 50
270.00023655209992
 51
333.00011877700001
  0
ARC
  5
1DC
  8
LAYER1$C$L1
 62
     3
 10
-153.56423950199999
 20
88.129806518600006
 30
0.0
 40
0.1999999881
 50
264.80169761259992
 51
345.52905237530001
  0
ARC
  5
1DD
  8
LAYER1$C$L1
 62
     3
 10
-154.63345336910001
 20
88.674606323199995
 30
0.0
 40
0.1999999881
 50
264.80186153709991
 51
345.52899773379988
  0
ARC
  5
1DE
  8
LAYER1$C$L1
 62
     3
 10
-150.22520446780001
 20
94.683029174799998
 30
0.0
 40
0.1999999881
 50
320.47098027290002
 51
41.198427243200051
  0
ARC
  5
1DF
  8
LAYER1$C$L1
 62
     3
 10
-151.29440307620001
 20
95.227828979499989
 30
0.0
 40
0.1999999881
 50
320.47103491450002
 51
41.1982633187
  0
ARC
  5
1E0
  8
LAYER1$C$L1
 62
     3
 10
-155.83760070799991
 20
90.704879760699995
 30
0.0
 40
1.0
 50
170.57102448239999
 51
237.99996336509989
  0
ARC
  5
1E1
  8
LAYER1$C$L1
 62
     3
 10
-153.64472961429991
 20
95.008590698199995
 30
0.0
 40
1.0
 50
67.999942697299986
 51
135.42893622150001
  0
ARC
  5
1E2
  8
LAYER1$C$L1
 62
     3
 10
-147.94567871090001
 20
89.394210815400015
 30
0.0
 40
9.0
 50
135.42904550450001
 51
170.57102448239999
  0
ARC
  5
1E3
  8
LAYER1$C$L1
 62
     3
 10
-153.56423950199999
 20
69.8701629639
 30
0.0
 40
0.1999999881
 50
14.470910058599991
 51
95.198302387400005
  0
ARC
  5
1E4
  8
LAYER1$C$L1
 62
     3
 10
-154.63345336910001
 20
69.325363159199995
 30
0.0
 40
0.1999999881
 50
14.470964700199991
 51
95.198138462900005
  0
ARC
  5
1E5
  8
LAYER1$C$L1
 62
     3
 10
-150.22520446780001
 20
63.316940307599999
 30
0.0
 40
0.1999999881
 50
318.80156251149998
 51
39.5290197271
  0
ARC
  5
1E6
  8
LAYER1$C$L1
 62
     3
 10
-151.29440307620001
 20
62.772140502900001
 30
0.0
 40
0.1999999881
 50
318.80172643599991
 51
39.52896508550004
  0
ARC
  5
1E7
  8
LAYER1$C$L1
 62
     3
 10
-155.83760070799991
 20
67.295089721699995
 30
0.0
 40
1.0
 50
122.0000193321
 51
189.42901285630001
  0
ARC
  5
1E8
  8
LAYER1$C$L1
 62
     3
 10
-153.64472961429991
 20
62.991378784200002
 30
0.0
 40
1.0
 50
224.57100913699989
 51
292.00005730269999
  0
ARC
  5
1E9
  8
LAYER1$C$L1
 62
     3
 10
-147.94567871090001
 20
68.605758667000003
 30
0.0
 40
9.0
 50
189.42903015909991
 51
224.57100913699989
  0
ARC
  5
1EA
  8
LAYER1$C$L1
 62
     3
 10
-158.26007080080001
 20
76.389816284199995
 30
0.0
 40
0.067499935627
 50
180.00003597220001
 51
270.00001798609998
  0
ARC
  5
1EB
  8
LAYER1$C$L1
 62
     3
 10
-157.1800689696999
 20
76.389816284199995
 30
0.0
 40
0.067499935627
 50
270.00001798609998
 51
0.0
  0
ARC
  5
1EC
  8
LAYER1$C$L1
 62
     3
 10
-157.99006652829991
 20
77.334884643599992
 30
0.0
 40
0.3374999762
 50
89.999927372399995
 51
179.9999640277999
  0
ARC
  5
1ED
  8
LAYER1$C$L1
 62
     3
 10
-157.45005798339989
 20
77.334884643599992
 30
0.0
 40
0.3374999762
 50
0.0
 51
89.999927372399995
  0
ARC
  5
1EE
  8
LAYER1$C$L1
 62
     3
 10
-158.26007080080001
 20
77.919845581099992
 30
0.0
 40
0.067499935627
 50
180.00003597220001
 51
270.00001798609998
  0
ARC
  5
1EF
  8
LAYER1$C$L1
 62
     3
 10
-157.99006652829991
 20
78.954879760699995
 30
0.0
 40
0.3374999762
 50
89.999927372399995
 51
179.9999640277999
  0
ARC
  5
1F0
  8
LAYER1$C$L1
 62
     3
 10
-157.1800689696999
 20
77.919845581099992
 30
0.0
 40
0.067499935627
 50
270.00001798609998
 51
0.0
  0
ARC
  5
1F1
  8
LAYER1$C$L1
 62
     3
 10
-157.45005798339989
 20
78.954879760699995
 30
0.0
 40
0.3374999762
 50
0.0
 51
89.999927372399995
  0
ARC
  5
1F2
  8
LAYER1$C$L1
 62
     3
 10
-158.26007080080001
 20
79.539840698199995
 30
0.0
 40
0.067499935627
 50
180.00003597220001
 51
270.00001798609998
  0
ARC
  5
1F3
  8
LAYER1$C$L1
 62
     3
 10
-156.6400604248
 20
79.539840698199995
 30
0.0
 40
0.067499935627
 50
270.00001798609998
 51
0.0
  0
ARC
  5
1F4
  8
LAYER1$C$L1
 62
     3
 10
-156.6400604248
 20
80.034835815400015
 30
0.0
 40
0.067499935627
 50
0.0
 51
89.999927372399995
  0
ARC
  5
1F5
  8
LAYER1$C$L1
 62
     3
 10
-157.99006652829991
 20
80.529830932600007
 30
0.0
 40
0.3374999762
 50
89.999927372399995
 51
179.9999640277999
  0
ARC
  5
1F6
  8
LAYER1$C$L1
 62
     3
 10
-157.3150634765999
 20
80.529830932600007
 30
0.0
 40
0.3374999762
 50
0.0
 51
89.999927372399995
  0
ARC
  5
1F7
  8
LAYER1$C$L1
 62
     3
 10
-158.26007080080001
 20
81.114913940399987
 30
0.0
 40
0.067499935627
 50
180.00003597220001
 51
270.00001798609998
  0
ARC
  5
1F8
  8
LAYER1$C$L1
 62
     3
 10
-158.26007080080001
 20
81.609909057600007
 30
0.0
 40
0.067499935627
 50
89.999927372399995
 51
179.9999640277999
  0
ARC
  5
1F9
  8
LAYER1$C$L1
 62
     3
 10
-156.6400604248
 20
81.114913940399987
 30
0.0
 40
0.067499935627
 50
270.00001798609998
 51
0.0
  0
ARC
  5
1FA
  8
LAYER1$C$L1
 62
     3
 10
-156.6400604248
 20
81.609909057600007
 30
0.0
 40
0.067499935627
 50
0.0
 51
89.999927372399995
  0
ARC
  5
1FB
  8
LAYER1$C$L1
 62
     3
 10
-158.9999389647999
 20
97.000167846699995
 30
0.0
 40
0.5
 50
90.000091296900024
 51
180.00001866929989
  0
ARC
  5
1FC
  8
LAYER1$C$L1
 62
     3
 10
-150.89996337889991
 20
96.2002410889
 30
0.0
 40
0.5999999046
 50
90.000091296900024
 51
242.9999350450999
  0
ARC
  5
1FD
  8
LAYER1$C$L1
 62
     3
 10
-158.99996948239991
 20
61.000167846700002
 30
0.0
 40
0.5
 50
180.00003597220001
 51
269.99996334460002
  0
ARC
  5
1FE
  8
LAYER1$C$L1
 62
     3
 10
-150.89999389650001
 20
61.800216674799998
 30
0.0
 40
0.5999999046
 50
117.00004765209989
 51
269.9999460416999
  0
ARC
  5
1FF
  8
LAYER1$C$L1
 62
     3
 10
-152.63864135739991
 20
70.327438354500003
 30
0.0
 40
0.7999997139000001
 50
179.9999640277999
 51
206.9999750243999
  0
ARC
  5
200
  8
LAYER1$C$L1
 62
     3
 10
-152.63864135739991
 20
87.673141479500003
 30
0.0
 40
0.7999997139000001
 50
153.00006231419999
 51
180.00007331079999
  0
ARC
  5
201
  8
LAYER1$C$L1
 62
     3
 10
-159.79997253420001
 20
74.499984741199995
 30
0.0
 40
0.5
 50
179.9999640277999
 51
269.9999460416999
  0
ARC
  5
202
  8
LAYER1$C$L1
 62
     3
 10
-159.79997253420001
 20
83.499984741199995
 30
0.0
 40
0.5
 50
89.999982013899995
 51
179.9999640277999
  0
ARC
  5
203
  8
LAYER1$C$L1
 62
     3
 10
-119.30000305179991
 20
149.0
 30
0.0
 40
1.0
 50
180.0000906137
 51
270.00007262759988
  0
ARC
  5
204
  8
LAYER1$C$L1
 62
     3
 10
-126.0
 20
134.69999694820001
 30
0.0
 40
0.5
 50
270.00007262759988
 51
0.0
  0
ARC
  5
205
  8
LAYER1$C$L1
 62
     3
 10
-125.0
 20
137.5
 30
0.0
 40
0.5
 50
89.999927372399995
 51
179.9999640277999
  0
ARC
  5
206
  8
LAYER1$C$L1
 62
     3
 10
-119.30000305179991
 20
149.0
 30
0.0
 40
1.0
 50
89.999927372399995
 51
179.9999093863
  0
ARC
  5
207
  8
LAYER1$C$L1
 62
     3
 10
-125.9999847412
 20
163.2999877929999
 30
0.0
 40
0.5
 50
0.0
 51
89.999927372399995
  0
ARC
  5
208
  8
LAYER1$C$L1
 62
     3
 10
-124.9999847412
 20
160.49999999999989
 30
0.0
 40
0.5
 50
179.9999093863
 51
269.9999460416999
  0
ARC
  5
209
  8
LAYER1$C$L1
 62
     3
 10
-125.0
 20
67.499984741199995
 30
0.0
 40
0.5
 50
89.999927372399995
 51
179.9999640277999
  0
ARC
  5
20A
  8
LAYER1$C$L1
 62
     3
 10
-126.0
 20
60.999984741200002
 30
0.0
 40
0.5
 50
270.00007262759988
 51
0.0
  0
ARC
  5
20B
  8
LAYER1$C$L1
 62
     3
 10
-126.0
 20
61.499984741200002
 30
0.0
 40
0.5
 50
270.00007262759988
 51
0.0
  0
ARC
  5
20C
  8
LAYER1$C$L1
 62
     3
 10
-124.9999847412
 20
90.499984741199995
 30
0.0
 40
0.5
 50
179.9999093863
 51
269.9999460416999
  0
ARC
  5
20D
  8
LAYER1$C$L1
 62
     3
 10
-125.9999847412
 20
96.999984741199995
 30
0.0
 40
0.5
 50
0.0
 51
89.999927372399995
  0
ARC
  5
20E
  8
LAYER1$C$L1
 62
     3
 10
-125.9999847412
 20
96.499984741200024
 30
0.0
 40
0.5
 50
0.0
 51
89.999927372399995
  0
LINE
  5
20F
  8
LAYER1$C$L1
 62
     3
 10
-139.91496276859999
 20
175.62980651859999
 30
0.0
 11
-116.6544952393
 21
175.62980651859999
 31
0.0
  0
LINE
  5
210
  8
LAYER4$C$L4
  6
PHANTOM
 62
     3
 10
-159.41451546109991
 20
141.3650075770999
 30
0.0
 11
-160.2127345646
 21
141.7372232004999
 31
0.0
  0
LINE
  5
211
  8
LAYER4$C$L4
  6
PHANTOM
 62
     3
 10
-160.21283670129989
 20
137.0630014834
 30
0.0
 11
-159.41463142699999
 21
137.43521065829989
 31
0.0
  0
LINE
  5
212
  8
LAYER4$C$L4
  6
PHANTOM
 62
     3
 10
-159.40000915530001
 20
137.4421081543
 30
0.0
 11
-159.40000915530001
 21
141.35824584959991
 31
0.0
  0
LINE
  5
213
  8
LAYER4$C$L4
  6
PHANTOM
 62
     3
 10
-159.60000610349999
 20
137.34884643549989
 30
0.0
 11
-159.60000610349999
 21
141.4515075683999
 31
0.0
  0
LINE
  5
214
  8
LAYER4$C$L4
  6
PHANTOM
 62
     3
 10
-160.21281433109999
 20
134.9001159668
 30
0.0
 11
-160.21281433109999
 21
137.06295776370001
 31
0.0
  0
LINE
  5
215
  8
LAYER4$C$L4
  6
PHANTOM
 62
     3
 10
-160.21281433109999
 20
141.7371520996
 30
0.0
 11
-160.21281433109999
 21
148.99996948239999
 31
0.0
  0
LINE
  5
216
  8
LAYER4$C$L4
  6
PHANTOM
 62
     3
 10
-162.0
 20
147.90000915530001
 30
0.0
 11
-163.0
 21
147.90000915530001
 31
0.0
  0
LINE
  5
217
  8
LAYER4$C$L4
  6
PHANTOM
 62
     3
 10
-162.0
 20
144.70004272459991
 30
0.0
 11
-162.0
 21
147.89999389650001
 31
0.0
  0
LINE
  5
218
  8
LAYER4$C$L4
  6
PHANTOM
 62
     3
 10
-161.94515991209991
 20
144.70005798339989
 30
0.0
 11
-163.0
 21
144.70005798339989
 31
0.0
  0
LINE
  5
219
  8
LAYER4$C$L4
  6
PHANTOM
 62
     3
 10
-161.94515991209991
 20
144.70004272459991
 30
0.0
 11
-161.94515991209991
 21
148.99996948239999
 31
0.0
  0
LINE
  5
21A
  8
LAYER4$C$L4
  6
PHANTOM
 62
     3
 10
-149.5999908446999
 20
145.17636108400001
 30
0.0
 11
-149.5999908446999
 21
147.52975463870001
 31
0.0
  0
LINE
  5
21B
  8
LAYER4$C$L4
  6
PHANTOM
 62
     3
 10
-149.0999908446999
 20
144.70004272459991
 30
0.0
 11
-149.0999908446999
 21
147.89999389650001
 31
0.0
  0
LINE
  5
21C
  8
LAYER4$C$L4
  6
PHANTOM
 62
     3
 10
-149.0999908446999
 20
147.90000915530001
 30
0.0
 11
-153.59996032709989
 21
147.90000915530001
 31
0.0
  0
LINE
  5
21D
  8
LAYER4$C$L4
  6
PHANTOM
 62
     3
 10
-149.0999908446999
 20
144.70005798339989
 30
0.0
 11
-153.59996032709989
 21
144.70005798339989
 31
0.0
  0
LINE
  5
21E
  8
LAYER4$C$L4
  6
PHANTOM
 62
     3
 10
-152.5999908446999
 20
135.80003356930001
 30
0.0
 11
-153.59996032709989
 21
135.80003356930001
 31
0.0
  0
LINE
  5
21F
  8
LAYER4$C$L4
  6
PHANTOM
 62
     3
 10
-154.59996032709989
 20
148.9999847412
 30
0.0
 11
-163.0
 21
148.9999847412
 31
0.0
  0
LINE
  5
220
  8
LAYER4$C$L4
  6
PHANTOM
 62
     3
 10
-152.5999908446999
 20
134.90000915530001
 30
0.0
 11
-163.0
 21
134.90000915530001
 31
0.0
  0
LINE
  5
221
  8
LAYER4$C$L4
  6
PHANTOM
 62
     3
 10
-153.59996032709989
 20
135.80001831049989
 30
0.0
 11
-153.59996032709989
 21
147.99996948239991
 31
0.0
  0
LINE
  5
222
  8
LAYER4$C$L4
  6
PHANTOM
 62
     3
 10
-152.5999908446999
 20
134.89999389650001
 30
0.0
 11
-152.5999908446999
 21
135.80001831049989
 31
0.0
  0
LINE
  5
223
  8
LAYER4$C$L4
  6
PHANTOM
 62
     3
 10
-163.0
 20
134.89999389650001
 30
0.0
 11
-163.0
 21
148.99996948239999
 31
0.0
  0
POLYLINE
  5
224
  8
LAYER8$C$L8
 62
     3
 66
     1
 10
0.0
 20
0.0
 30
0.0
  0
VERTEX
  5
76D
  8
LAYER8$C$L8
 62
     3
 10
-115.74826049799989
 20
93.470947265599989
 30
0.0
  0
VERTEX
  5
76E
  8
LAYER8$C$L8
 62
     3
 10
-110.9707013861
 20
102.9489969519999
 30
0.0
  0
VERTEX
  5
76F
  8
LAYER8$C$L8
 62
     3
 10
-110.9707013861
 20
102.9489969519999
 30
0.0
  0
SEQEND
  5
770
  8
LAYER8$C$L8
 62
     3
  0
LINE
  5
229
  8
LAYER8$C$L8
 62
     3
 10
-115.74826049799989
 20
93.470947265599989
 30
0.0
 11
-114.51690721200001
 21
95.046945072399993
 31
0.0
  0
LINE
  5
22A
  8
LAYER8$C$L8
 62
     3
 10
-115.74826049799989
 20
93.470947265599989
 30
0.0
 11
-115.2137466499
 21
95.398197884500007
 31
0.0
  0
LINE
  5
22B
  8
LAYER1$C$L1
 62
     3
 10
-149.50000226349991
 20
154.29998451189991
 30
0.0
 11
-141.4999941769
 21
159.29998963639991
 31
0.0
  0
LINE
  5
22C
  8
LAYER1$C$L1
 62
     3
 10
-141.5
 20
163.69998168949999
 30
0.0
 11
-139.5
 21
163.69998168949999
 31
0.0
  0
LINE
  5
22D
  8
LAYER1$C$L1
 62
     3
 10
-141.5
 20
163.69998168949999
 30
0.0
 11
-141.5
 21
154.2999877929999
 31
0.0
  0
LINE
  5
22E
  8
LAYER1$C$L1
 62
     3
 10
-154.75
 20
153.19998168949999
 30
0.0
 11
-154.75
 21
150.0999908446999
 31
0.0
  0
LINE
  5
22F
  8
LAYER1$C$L1
 62
     3
 10
-157.0
 20
153.19998168949999
 30
0.0
 11
-157.0
 21
150.0999908446999
 31
0.0
  0
LINE
  5
230
  8
LAYER1$C$L1
 62
     3
 10
-152.5
 20
150.0999908446999
 30
0.0
 11
-152.5
 21
148.9999847412
 31
0.0
  0
LINE
  5
231
  8
LAYER1$C$L1
 62
     3
 10
-151.5
 20
153.19998168949999
 30
0.0
 11
-151.5
 21
148.9999847412
 31
0.0
  0
LINE
  5
232
  8
LAYER1$C$L1
 62
     3
 10
-159.49999999999989
 20
150.0999908446999
 30
0.0
 11
-152.5
 21
150.0999908446999
 31
0.0
  0
LINE
  5
233
  8
LAYER1$C$L1
 62
     3
 10
-139.5
 20
154.2999877929999
 30
0.0
 11
-159.49999999999989
 21
154.2999877929999
 31
0.0
  0
LINE
  5
234
  8
LAYER1$C$L1
 62
     3
 10
-159.49999999999989
 20
153.19998168949999
 30
0.0
 11
-144.5
 21
153.19998168949999
 31
0.0
  0
LINE
  5
235
  8
LAYER1$C$L1
 62
     3
 10
-147.80000305179991
 20
148.9999847412
 30
0.0
 11
-147.80000305179991
 21
153.19998168949999
 31
0.0
  0
LINE
  5
236
  8
LAYER1$C$L1
 62
     3
 10
-144.5
 20
148.9999847412
 30
0.0
 11
-144.5
 21
153.19998168949999
 31
0.0
  0
LINE
  5
237
  8
LAYER1$C$L1
 62
     3
 10
-159.49999999999989
 20
154.2999877929999
 30
0.0
 11
-159.49999999999989
 21
148.9999847412
 31
0.0
  0
LINE
  5
238
  8
LAYER1$C$L1
 62
     3
 10
-152.5
 20
148.99989318850001
 30
0.0
 11
-152.5
 21
147.90000915530001
 31
0.0
  0
LINE
  5
239
  8
LAYER1$C$L1
 62
     3
 10
-151.47924804690001
 20
148.99989318850001
 30
0.0
 11
-151.47924804690001
 21
144.80000305179991
 31
0.0
  0
LINE
  5
23A
  8
LAYER1$C$L1
 62
     3
 10
-154.58567810059989
 20
147.90000915530001
 30
0.0
 11
-154.58567810059989
 21
144.80000305179991
 31
0.0
  0
LINE
  5
23B
  8
LAYER1$C$L1
 62
     3
 10
-157.0
 20
147.90000915530001
 30
0.0
 11
-157.0
 21
144.80000305179991
 31
0.0
  0
LINE
  5
23C
  8
LAYER1$C$L1
 62
     3
 10
-157.42581176760001
 20
143.70004272459991
 30
0.0
 11
-157.42581176760001
 21
134.29997253420001
 31
0.0
  0
LINE
  5
23D
  8
LAYER1$C$L1
 62
     3
 10
-148.66107177730001
 20
142.69989013669991
 30
0.0
 11
-139.49966430660001
 21
142.69989013669991
 31
0.0
  0
LINE
  5
23E
  8
LAYER1$C$L1
 62
     3
 10
-150.99961853030001
 20
135.59997558590001
 30
0.0
 11
-150.99961853030001
 21
134.2999877929999
 31
0.0
  0
LINE
  5
23F
  8
LAYER1$C$L1
 62
     3
 10
-148.66107177730001
 20
135.59991455080001
 30
0.0
 11
-153.49961853030001
 21
135.59991455080001
 31
0.0
  0
LINE
  5
240
  8
LAYER1$C$L1
 62
     3
 10
-139.99996948239991
 20
134.29992675779999
 30
0.0
 11
-159.49964904789999
 21
134.29992675779999
 31
0.0
  0
LINE
  5
241
  8
LAYER1$C$L1
 62
     3
 10
-148.66108703610001
 20
134.29991149899999
 30
0.0
 11
-148.66108703610001
 21
143.70001220699999
 31
0.0
  0
LINE
  5
242
  8
LAYER1$C$L1
 62
     3
 10
-153.49967956539999
 20
143.70007324219989
 30
0.0
 11
-153.49967956539999
 21
143.44309997560001
 31
0.0
  0
LINE
  5
243
  8
LAYER1$C$L1
 62
     3
 10
-153.49967956539999
 20
136.2571105957
 30
0.0
 11
-153.49967956539999
 21
134.30006408689999
 31
0.0
  0
LINE
  5
244
  8
LAYER1$C$L1
 62
     3
 10
-153.11472257089989
 20
138.44274113279991
 30
0.0
 11
-153.63849570179991
 21
139.34994296150001
 31
0.0
  0
LINE
  5
245
  8
LAYER1$C$L1
 62
     3
 10
-153.92716906829989
 20
139.849939984
 30
0.0
 11
-154.83879768279999
 21
141.4289273304999
 31
0.0
  0
LINE
  5
246
  8
LAYER1$C$L1
 62
     3
 10
-154.9168231688999
 20
138.13576514120001
 30
0.0
 11
-153.92717637529989
 21
139.8498839609
 31
0.0
  0
LINE
  5
247
  8
LAYER1$C$L1
 62
     3
 10
-153.63845825199999
 20
140.35000610349991
 30
0.0
 11
-154.15730285639989
 21
140.35000610349991
 31
0.0
  0
LINE
  5
248
  8
LAYER1$C$L1
 62
     3
 10
-153.9271392821999
 20
139.8500213623
 30
0.0
 11
-154.33052062990001
 21
139.8500213623
 31
0.0
  0
LINE
  5
249
  8
LAYER1$C$L1
 62
     3
 10
-153.63844299319999
 20
139.35002136229991
 30
0.0
 11
-154.15730285639989
 21
139.35002136229991
 31
0.0
  0
LINE
  5
24A
  8
LAYER1$C$L1
 62
     3
 10
-153.63849537940001
 20
140.3498941979
 30
0.0
 11
-152.5538092294
 21
142.22862603949989
 31
0.0
  0
LINE
  5
24B
  8
LAYER1$C$L1
 62
     3
 10
-152.55376842399991
 20
142.22871706270001
 30
0.0
 11
-152.32906419209991
 21
141.41790831139991
 31
0.0
  0
LINE
  5
24C
  8
LAYER1$C$L1
 62
     3
 10
-152.55377197269991
 20
142.22874450680001
 30
0.0
 11
-152.78393554690001
 21
142.22874450680001
 31
0.0
  0
LINE
  5
24D
  8
LAYER1$C$L1
 62
     3
 10
-152.32908630369991
 20
141.41793823239991
 30
0.0
 11
-152.55923461910001
 21
141.41793823239991
 31
0.0
  0
LINE
  5
24E
  8
LAYER1$C$L1
 62
     3
 10
-154.85829162600001
 20
138.13586425779999
 30
0.0
 11
-155.32019042970001
 21
138.13586425779999
 31
0.0
  0
LINE
  5
24F
  8
LAYER1$C$L1
 62
     3
 10
-153.05816352670001
 20
138.6462414284
 30
0.0
 11
-153.28288155929991
 21
137.83548401190001
 31
0.0
  0
LINE
  5
250
  8
LAYER1$C$L1
 62
     3
 10
-154.81976331059991
 20
141.4973514186
 30
0.0
 11
-154.96950498029989
 21
140.9567002824999
 31
0.0
  0
LINE
  5
251
  8
LAYER1$C$L1
 62
     3
 10
-153.75320123290001
 20
139.84988719069989
 30
0.0
 11
-152.99229128939999
 21
141.16782209690001
 31
0.0
  0
LINE
  5
252
  8
LAYER1$C$L1
 62
     3
 10
-154.1573300709999
 20
140.34989724370001
 30
0.0
 11
-153.216984419
 21
141.9786239668
 31
0.0
  0
LINE
  5
253
  8
LAYER1$C$L1
 62
     3
 10
-153.0582990812
 20
138.6463128549
 30
0.0
 11
-153.75320714040001
 21
139.84992912489989
 31
0.0
  0
LINE
  5
254
  8
LAYER1$C$L1
 62
     3
 10
-153.28301509889991
 20
137.8355506286
 30
0.0
 11
-154.15735123729991
 21
139.34994550079989
 31
0.0
  0
LINE
  5
255
  8
LAYER1$C$L1
 62
     3
 10
-154.15735237780001
 20
140.3499476120999
 30
0.0
 11
-154.81982788479991
 21
141.4973890441
 31
0.0
  0
LINE
  5
256
  8
LAYER1$C$L1
 62
     3
 10
-154.33056036229991
 20
139.84993427320001
 30
0.0
 11
-154.9695754837999
 21
140.9567411187999
 31
0.0
  0
LINE
  5
257
  8
LAYER1$C$L1
 62
     3
 10
-155.3202012484
 20
138.13576322259991
 30
0.0
 11
-154.33055445470001
 21
139.8498820422999
 31
0.0
  0
LINE
  5
258
  8
LAYER1$C$L1
 62
     3
 10
-155.05325853389991
 20
137.7981032262
 30
0.0
 11
-154.15733121150001
 21
139.34989513240001
 31
0.0
  0
LINE
  5
259
  8
LAYER1$C$L1
 62
     3
 10
-150.5995941162
 20
141.0999908446999
 30
0.0
 11
-150.5995941162
 21
138.60000610349999
 31
0.0
  0
LINE
  5
25A
  8
LAYER1$C$L1
 62
     3
 10
-151.0995941162
 20
141.8499908446999
 30
0.0
 11
-151.0995941162
 21
141.5999908446999
 31
0.0
  0
LINE
  5
25B
  8
LAYER1$C$L1
 62
     3
 10
-149.94110107419999
 20
138.16300964359999
 30
0.0
 11
-149.94110107419999
 21
138.599899292
 31
0.0
  0
LINE
  5
25C
  8
LAYER1$C$L1
 62
     3
 10
-149.39950561520001
 20
141.09988403319991
 30
0.0
 11
-150.5995178222999
 21
141.09988403319991
 31
0.0
  0
LINE
  5
25D
  8
LAYER1$C$L1
 62
     3
 10
-149.39950561520001
 20
138.599899292
 30
0.0
 11
-150.5995178222999
 21
138.599899292
 31
0.0
  0
LINE
  5
25E
  8
LAYER1$C$L1
 62
     3
 10
-149.94110107419999
 20
141.09989929199989
 30
0.0
 11
-149.94110107419999
 21
141.53678894039999
 31
0.0
  0
LINE
  5
25F
  8
LAYER1$C$L1
 62
     3
 10
-149.94119527629991
 20
141.5368425689
 30
0.0
 11
-149.44119806319989
 21
143.3868326914
 31
0.0
  0
LINE
  5
260
  8
LAYER1$C$L1
 62
     3
 10
-149.44112569259991
 20
136.31305365049991
 30
0.0
 11
-149.94112677269999
 21
138.1630586176
 31
0.0
  0
LINE
  5
261
  8
LAYER1$C$L1
 62
     3
 10
-150.49143073830001
 20
135.5998894375
 30
0.0
 11
-151.0995599581
 21
137.84996873179989
 31
0.0
  0
LINE
  5
262
  8
LAYER1$C$L1
 62
     3
 10
-151.09962839019991
 20
141.84993252620001
 30
0.0
 11
-150.59963117709989
 21
143.69992264870001
 31
0.0
  0
LINE
  5
263
  8
LAYER1$C$L1
 62
     3
 10
-151.0995941162
 20
138.10000610349991
 30
0.0
 11
-151.0995941162
 21
137.85000610349999
 31
0.0
  0
LINE
  5
264
  8
LAYER1$C$L1
 62
     3
 10
-149.3995971679999
 20
143.69999694820001
 30
0.0
 11
-149.3995971679999
 21
135.599899292
 31
0.0
  0
LINE
  5
265
  8
LAYER1$C$L1
 62
     3
 10
-139.4999847412
 20
143.70001220699999
 30
0.0
 11
-159.49999999999989
 21
143.70001220699999
 31
0.0
  0
LINE
  5
266
  8
LAYER1$C$L1
 62
     3
 10
-140.0
 20
134.29992675779999
 30
0.0
 11
-159.49996948239991
 21
134.29992675779999
 31
0.0
  0
LINE
  5
267
  8
LAYER1$C$L1
 62
     3
 10
-159.49999999999989
 20
148.99989318850001
 30
0.0
 11
-159.49999999999989
 21
134.2999877929999
 31
0.0
  0
LINE
  5
268
  8
LAYER1$C$L1
 62
     3
 10
-147.7999877929999
 20
144.80000305179991
 30
0.0
 11
-147.7999877929999
 21
148.99996948239999
 31
0.0
  0
LINE
  5
269
  8
LAYER1$C$L1
 62
     3
 10
-144.5
 20
144.80000305179991
 30
0.0
 11
-144.5
 21
148.99996948239999
 31
0.0
  0
LINE
  5
26A
  8
LAYER1$C$L1
 62
     3
 10
-144.5
 20
144.80000305179991
 30
0.0
 11
-159.49999999999989
 21
144.80000305179991
 31
0.0
  0
LINE
  5
26B
  8
LAYER1$C$L1
 62
     3
 10
-144.5000152588
 20
144.80000305179991
 30
0.0
 11
-159.50003051760001
 21
144.80000305179991
 31
0.0
  0
LINE
  5
26C
  8
LAYER1$C$L1
 62
     3
 10
-147.80001831049989
 20
144.80000305179991
 30
0.0
 11
-147.80001831049989
 21
148.99996948239999
 31
0.0
  0
LINE
  5
26D
  8
LAYER1$C$L1
 62
     3
 10
-144.50003051760001
 20
144.80000305179991
 30
0.0
 11
-144.50003051760001
 21
148.99996948239999
 31
0.0
  0
LINE
  5
26E
  8
LAYER1$C$L1
 62
     3
 10
-159.50013732909991
 20
147.90000915530001
 30
0.0
 11
-152.5
 21
147.90000915530001
 31
0.0
  0
LINE
  5
26F
  8
LAYER1$C$L1
 62
     3
 10
-159.49999999999989
 20
148.9999847412
 30
0.0
 11
-139.5
 21
148.9999847412
 31
0.0
  0
LINE
  5
270
  8
LAYER1$C$L1
 62
     3
 10
-160.29997253420001
 20
152.1499786377
 30
0.0
 11
-160.29997253420001
 21
145.84997558590001
 31
0.0
  0
LINE
  5
271
  8
LAYER1$C$L1
 62
     3
 10
-159.49998474119991
 20
152.6499786377
 30
0.0
 11
-159.79997253420001
 21
152.6499786377
 31
0.0
  0
LINE
  5
272
  8
LAYER1$C$L1
 62
     3
 10
-159.49998474119991
 20
145.34997558590001
 30
0.0
 11
-159.49998474119991
 21
152.6499786377
 31
0.0
  0
LINE
  5
273
  8
LAYER1$C$L1
 62
     3
 10
-159.79997253420001
 20
145.34997558590001
 30
0.0
 11
-159.49998474119991
 21
145.34997558590001
 31
0.0
  0
DIMENSION
  5
274
  8
DIMENSIONS
  2
*D21
 10
-63.581285330620382
 20
134.49998474119991
 30
0.0
 11
-63.581285330620403
 21
147.88195621869011
 31
0.0
 70
   128
  1
<>%%c29
 13
-105.4999999999999
 23
163.49998474119991
 33
0.0
 14
-105.4999999999999
 24
134.49998474119991
 34
0.0
 50
270.0
1001
ACAD
1000
DSTYLE
1002
{
1070
    41
1040
1.9727878464999999
1070
    42
1040
2.5399999618999991
1070
    44
1040
3.8099999427999989
1070
    73
1070
     0
1070
   140
1040
3.1999998092999991
1070
   271
1070
     1
1070
   272
1070
     1
1002
}
  0
DIMENSION
  5
280
  8
DIMENSIONS
  2
*D22
 10
-86.0
 20
119.87194361648
 30
0.0
 11
-98.673470380020731
 21
119.87194361648
 31
0.0
 70
   128
  1
<>25
 13
-111.0
 23
135.49998474119991
 33
0.0
 14
-86.0
 24
140.10636901859999
 34
0.0
1001
ACAD
1000
DSTYLE
1002
{
1070
    41
1040
1.9727878464999999
1070
    42
1040
2.5399999618999991
1070
    44
1040
3.8099999427999989
1070
    73
1070
     0
1070
   140
1040
3.1999998092999991
1070
   271
1070
     1
1070
   272
1070
     1
1002
}
  0
LINE
  5
28C
  8
LAYER1$C$L1
 62
     3
 10
-98.0
 20
139.1501159668
 30
0.0
 11
-97.000015258799991
 21
139.1501159668
 31
0.0
  0
LINE
  5
28D
  8
LAYER1$C$L1
 62
     3
 10
-98.0
 20
142.68563842770001
 30
0.0
 11
-97.000015258799991
 21
142.68563842770001
 31
0.0
  0
LINE
  5
28E
  8
LAYER1$C$L1
 62
     3
 10
-97.000015258799991
 20
144.05374145510001
 30
0.0
 11
-97.000015258799991
 21
160.1874084472999
 31
0.0
  0
LINE
  5
28F
  8
LAYER1$C$L1
 62
     3
 10
-98.0
 20
144.05374145510001
 30
0.0
 11
-97.000015258799991
 21
144.05374145510001
 31
0.0
  0
LINE
  5
290
  8
LAYER1$C$L1
 62
     3
 10
-98.0
 20
138.6162109375
 30
0.0
 11
-97.000015258799991
 21
138.6162109375
 31
0.0
  0
LINE
  5
291
  8
LAYER1$C$L1
 62
     3
 10
-97.000015258799991
 20
149.53034973139989
 30
0.0
 11
-87.000015258799991
 21
149.53034973139989
 31
0.0
  0
LINE
  5
292
  8
LAYER1$C$L1
 62
     3
 10
-97.000015258799991
 20
150.2374572754
 30
0.0
 11
-87.000015258799991
 21
150.2374572754
 31
0.0
  0
LINE
  5
293
  8
LAYER1$C$L1
 62
     3
 10
-97.000015258799991
 20
150.94454956049989
 30
0.0
 11
-87.000015258799991
 21
150.94454956049989
 31
0.0
  0
LINE
  5
294
  8
LAYER1$C$L1
 62
     3
 10
-97.000015258799991
 20
151.65167236330001
 30
0.0
 11
-87.000015258799991
 21
151.65167236330001
 31
0.0
  0
LINE
  5
295
  8
LAYER1$C$L1
 62
     3
 10
-97.000015258799991
 20
152.3587341308999
 30
0.0
 11
-87.000015258799991
 21
152.3587341308999
 31
0.0
  0
LINE
  5
296
  8
LAYER1$C$L1
 62
     3
 10
-97.000015258799991
 20
153.06584167479991
 30
0.0
 11
-87.000015258799991
 21
153.06584167479991
 31
0.0
  0
LINE
  5
297
  8
LAYER1$C$L1
 62
     3
 10
-97.000015258799991
 20
153.77296447750001
 30
0.0
 11
-87.000015258799991
 21
153.77296447750001
 31
0.0
  0
LINE
  5
298
  8
LAYER1$C$L1
 62
     3
 10
-97.000015258799991
 20
154.4800567627
 30
0.0
 11
-87.000015258799991
 21
154.4800567627
 31
0.0
  0
LINE
  5
299
  8
LAYER1$C$L1
 62
     3
 10
-97.000015258799991
 20
155.18717956539999
 30
0.0
 11
-87.000015258799991
 21
155.18717956539999
 31
0.0
  0
LINE
  5
29A
  8
LAYER1$C$L1
 62
     3
 10
-97.000015258799991
 20
155.89427185060001
 30
0.0
 11
-87.000015258799991
 21
155.89427185060001
 31
0.0
  0
LINE
  5
29B
  8
LAYER1$C$L1
 62
     3
 10
-97.000015258799991
 20
156.60137939449999
 30
0.0
 11
-87.000015258799991
 21
156.60137939449999
 31
0.0
  0
LINE
  5
29C
  8
LAYER1$C$L1
 62
     3
 10
-97.000015258799991
 20
157.30848693850001
 30
0.0
 11
-87.000015258799991
 21
157.30848693850001
 31
0.0
  0
LINE
  5
29D
  8
LAYER1$C$L1
 62
     3
 10
-97.000015258799991
 20
158.01559448239991
 30
0.0
 11
-87.000015258799991
 21
158.01559448239991
 31
0.0
  0
LINE
  5
29E
  8
LAYER1$C$L1
 62
     3
 10
-97.000015258799991
 20
158.7227020263999
 30
0.0
 11
-87.000015258799991
 21
158.7227020263999
 31
0.0
  0
LINE
  5
29F
  8
LAYER1$C$L1
 62
     3
 10
-97.000015258799991
 20
148.8232421875
 30
0.0
 11
-87.000015258799991
 21
148.8232421875
 31
0.0
  0
LINE
  5
2A0
  8
LAYER1$C$L1
 62
     3
 10
-97.000015258799991
 20
148.11613464359999
 30
0.0
 11
-87.000015258799991
 21
148.11613464359999
 31
0.0
  0
LINE
  5
2A1
  8
LAYER1$C$L1
 62
     3
 10
-97.000015258799991
 20
147.4090270996
 30
0.0
 11
-87.000015258799991
 21
147.4090270996
 31
0.0
  0
LINE
  5
2A2
  8
LAYER1$C$L1
 62
     3
 10
-97.000015258799991
 20
146.7019195556999
 30
0.0
 11
-87.000015258799991
 21
146.7019195556999
 31
0.0
  0
LINE
  5
2A3
  8
LAYER1$C$L1
 62
     3
 10
-97.000015258799991
 20
145.99481201169991
 30
0.0
 11
-87.000015258799991
 21
145.99481201169991
 31
0.0
  0
LINE
  5
2A4
  8
LAYER1$C$L1
 62
     3
 10
-98.000007957799994
 20
160.72379297949999
 30
0.0
 11
-86.487521993099989
 21
160.43598067589991
 31
0.0
  0
LINE
  5
2A5
  8
LAYER1$C$L1
 62
     3
 10
-86.931330290499986
 20
143.37868439869999
 30
0.0
 11
-97.000004895300009
 21
142.68563155870001
 31
0.0
  0
LINE
  5
2A6
  8
LAYER1$C$L1
 62
     3
 10
-97.000012069799993
 20
139.15011843519989
 30
0.0
 11
-86.951166082399993
 21
139.64147858070001
 31
0.0
  0
LINE
  5
2A7
  8
LAYER1$C$L1
 62
     3
 10
-86.935767109799997
 20
141.80991003919999
 30
0.0
 11
-96.003773664899995
 21
141.2261567379999
 31
0.0
  0
LINE
  5
2A8
  8
LAYER1$C$L1
 62
     3
 10
-95.949372391200015
 20
140.3810889563
 30
0.0
 11
-86.935772870299999
 21
140.9613398022999
 31
0.0
  0
LINE
  5
2A9
  8
LAYER1$C$L1
 62
     3
 10
-86.931344546999995
 20
144.7467810741999
 30
0.0
 11
-97.000003929100004
 21
144.05372928200001
 31
0.0
  0
LINE
  5
2AA
  8
LAYER1$C$L1
 62
     3
 10
-97.000013483399997
 20
138.61620181929999
 30
0.0
 11
-86.951167496000025
 21
139.1075619646999
 31
0.0
  0
LINE
  5
2AB
  8
LAYER1$C$L1
 62
     3
 10
-97.975119586700004
 20
137.30102413689991
 30
0.0
 11
-97.458447331700015
 21
137.3440801271999
 31
0.0
  0
LINE
  5
2AC
  8
LAYER1$C$L1
 62
     3
 10
-97.967575997800012
 20
160.6992473487999
 30
0.0
 11
-97.487516630200005
 21
160.68724585809991
 31
0.0
  0
LINE
  5
2AD
  8
LAYER1$C$L1
 62
     3
 10
-97.000015258799991
 20
137.8423614502
 30
0.0
 11
-97.000015258799991
 21
138.6162109375
 31
0.0
  0
LINE
  5
2AE
  8
LAYER1$C$L1
 62
     3
 10
-86.000015258799991
 20
159.93614196780001
 30
0.0
 11
-86.000015258799991
 21
140.10636901859999
 31
0.0
  0
DIMENSION
  5
2AF
  8
DIMENSIONS
  2
*D23
 10
-75.171365191787785
 20
91.001022338899986
 30
0.0
 11
-75.1713651917878
 21
78.66181056303833
 31
0.0
 70
   129
  1
<>%%c24
 13
-98.0
 23
66.99989318850001
 33
0.0
 14
-98.0
 24
91.0010223389
 34
0.0
1001
ACAD
1000
DSTYLE
1002
{
1070
    41
1040
1.9727878464999999
1070
    42
1040
2.5399999618999991
1070
    44
1040
3.8099999427999989
1070
    73
1070
     0
1070
   140
1040
3.1999998092999991
1070
   271
1070
     1
1070
   272
1070
     1
1002
}
  0
LINE
  5
2BB
  8
LAYER1$C$L1
 62
     3
 10
-98.0
 20
88.849838256799998
 30
0.0
 11
-97.000015258799991
 21
88.849838256799998
 31
0.0
  0
LINE
  5
2BC
  8
LAYER1$C$L1
 62
     3
 10
-98.0
 20
85.314331054700006
 30
0.0
 11
-97.000015258799991
 21
85.314331054700006
 31
0.0
  0
LINE
  5
2BD
  8
LAYER1$C$L1
 62
     3
 10
-97.000015258799991
 20
83.946228027299995
 30
0.0
 11
-97.000015258799991
 21
67.812561035200005
 31
0.0
  0
LINE
  5
2BE
  8
LAYER1$C$L1
 62
     3
 10
-98.0
 20
83.946228027299995
 30
0.0
 11
-97.000015258799991
 21
83.946228027299995
 31
0.0
  0
LINE
  5
2BF
  8
LAYER1$C$L1
 62
     3
 10
-98.0
 20
89.383758544900004
 30
0.0
 11
-97.000015258799991
 21
89.383758544900004
 31
0.0
  0
LINE
  5
2C0
  8
LAYER1$C$L1
 62
     3
 10
-97.000015258799991
 20
78.46961975100001
 30
0.0
 11
-87.000015258799991
 21
78.46961975100001
 31
0.0
  0
LINE
  5
2C1
  8
LAYER1$C$L1
 62
     3
 10
-97.000015258799991
 20
77.762512207
 30
0.0
 11
-87.000015258799991
 21
77.762512207
 31
0.0
  0
LINE
  5
2C2
  8
LAYER1$C$L1
 62
     3
 10
-97.000015258799991
 20
77.055404663100006
 30
0.0
 11
-87.000015258799991
 21
77.055404663100006
 31
0.0
  0
LINE
  5
2C3
  8
LAYER1$C$L1
 62
     3
 10
-97.000015258799991
 20
76.348297119099996
 30
0.0
 11
-87.000015258799991
 21
76.348297119099996
 31
0.0
  0
LINE
  5
2C4
  8
LAYER1$C$L1
 62
     3
 10
-97.000015258799991
 20
75.641220092799998
 30
0.0
 11
-87.000015258799991
 21
75.641220092799998
 31
0.0
  0
LINE
  5
2C5
  8
LAYER1$C$L1
 62
     3
 10
-97.000015258799991
 20
74.934112548800002
 30
0.0
 11
-87.000015258799991
 21
74.934112548800002
 31
0.0
  0
LINE
  5
2C6
  8
LAYER1$C$L1
 62
     3
 10
-97.000015258799991
 20
74.227005004899993
 30
0.0
 11
-87.000015258799991
 21
74.227005004899993
 31
0.0
  0
LINE
  5
2C7
  8
LAYER1$C$L1
 62
     3
 10
-97.000015258799991
 20
73.519897460899998
 30
0.0
 11
-87.000015258799991
 21
73.519897460899998
 31
0.0
  0
LINE
  5
2C8
  8
LAYER1$C$L1
 62
     3
 10
-97.000015258799991
 20
72.812789917000003
 30
0.0
 11
-87.000015258799991
 21
72.812789917000003
 31
0.0
  0
LINE
  5
2C9
  8
LAYER1$C$L1
 62
     3
 10
-97.000015258799991
 20
72.105682373000008
 30
0.0
 11
-87.000015258799991
 21
72.105682373000008
 31
0.0
  0
LINE
  5
2CA
  8
LAYER1$C$L1
 62
     3
 10
-97.000015258799991
 20
71.398590087900004
 30
0.0
 11
-87.000015258799991
 21
71.398590087900004
 31
0.0
  0
LINE
  5
2CB
  8
LAYER1$C$L1
 62
     3
 10
-97.000015258799991
 20
70.691482543899994
 30
0.0
 11
-87.000015258799991
 21
70.691482543899994
 31
0.0
  0
LINE
  5
2CC
  8
LAYER1$C$L1
 62
     3
 10
-97.000015258799991
 20
69.984375
 30
0.0
 11
-87.000015258799991
 21
69.984375
 31
0.0
  0
LINE
  5
2CD
  8
LAYER1$C$L1
 62
     3
 10
-97.000015258799991
 20
69.277267456099992
 30
0.0
 11
-87.000015258799991
 21
69.277267456099992
 31
0.0
  0
LINE
  5
2CE
  8
LAYER1$C$L1
 62
     3
 10
-97.000015258799991
 20
79.176727294900004
 30
0.0
 11
-87.000015258799991
 21
79.176727294900004
 31
0.0
  0
LINE
  5
2CF
  8
LAYER1$C$L1
 62
     3
 10
-97.000015258799991
 20
79.8838348389
 30
0.0
 11
-87.000015258799991
 21
79.8838348389
 31
0.0
  0
LINE
  5
2D0
  8
LAYER1$C$L1
 62
     3
 10
-97.000015258799991
 20
80.590942382799994
 30
0.0
 11
-87.000015258799991
 21
80.590942382799994
 31
0.0
  0
LINE
  5
2D1
  8
LAYER1$C$L1
 62
     3
 10
-97.000015258799991
 20
81.298049926800005
 30
0.0
 11
-87.000015258799991
 21
81.298049926800005
 31
0.0
  0
LINE
  5
2D2
  8
LAYER1$C$L1
 62
     3
 10
-97.000015258799991
 20
82.005157470699984
 30
0.0
 11
-87.000015258799991
 21
82.005157470699984
 31
0.0
  0
LINE
  5
2D3
  8
LAYER1$C$L1
 62
     3
 10
-98.00000262479999
 20
67.276171127099985
 30
0.0
 11
-86.487516660200001
 21
67.563983430699992
 31
0.0
  0
LINE
  5
2D4
  8
LAYER1$C$L1
 62
     3
 10
-86.931335722999975
 20
84.621272466500002
 30
0.0
 11
-97.000010327800013
 21
85.314325306499995
 31
0.0
  0
LINE
  5
2D5
  8
LAYER1$C$L1
 62
     3
 10
-97.000001040800001
 20
88.849845652599996
 30
0.0
 11
-86.951170293999994
 21
88.358486252299997
 31
0.0
  0
LINE
  5
2D6
  8
LAYER1$C$L1
 62
     3
 10
-86.935780267099986
 20
86.190050921200012
 30
0.0
 11
-96.003786822300015
 21
86.773804222299987
 31
0.0
  0
LINE
  5
2D7
  8
LAYER1$C$L1
 62
     3
 10
-95.949370321200007
 20
87.618871023799997
 30
0.0
 11
-86.935770800399993
 21
87.038620177800027
 31
0.0
  0
LINE
  5
2D8
  8
LAYER1$C$L1
 62
     3
 10
-86.931349979500027
 20
83.253175791000004
 30
0.0
 11
-97.000009361499991
 21
83.946227583199999
 31
0.0
  0
LINE
  5
2D9
  8
LAYER1$C$L1
 62
     3
 10
-97.000002454400004
 20
89.383762268500007
 30
0.0
 11
-86.951171707599997
 21
88.892402868299996
 31
0.0
  0
LINE
  5
2DA
  8
LAYER1$C$L1
 62
     3
 10
-97.975122992300001
 20
90.698950885100004
 30
0.0
 11
-97.458465943299998
 21
90.655896161900003
 31
0.0
  0
LINE
  5
2DB
  8
LAYER1$C$L1
 62
     3
 10
-97.967570664899995
 20
67.300716757800004
 30
0.0
 11
-97.487511297299989
 21
67.312718248500005
 31
0.0
  0
LINE
  5
2DC
  8
LAYER1$C$L1
 62
     3
 10
-97.000015258799991
 20
90.157608032199988
 30
0.0
 11
-97.000015258799991
 21
89.383758544900004
 31
0.0
  0
LINE
  5
2DD
  8
LAYER1$C$L1
 62
     3
 10
-86.000015258799991
 20
68.063827514600007
 30
0.0
 11
-86.000015258799991
 21
87.893600463899986
 31
0.0
  0
DIMENSION
  5
2DE
  8
DIMENSIONS
  2
*D24
 10
-163.0
 20
119.87194361648
 30
0.0
 11
-136.66317539471279
 21
119.87194361648
 31
0.0
 70
   128
 13
-111.0
 23
135.49999999999989
 33
0.0
 14
-163.0
 24
134.89999389650001
 34
0.0
 50
180.0
1001
ACAD
1000
DSTYLE
1002
{
1070
    41
1040
1.9727878464999999
1070
    42
1040
2.5399999618999991
1070
    44
1040
3.8099999427999989
1070
    73
1070
     0
1070
   140
1040
3.1999998092999991
1070
   271
1070
     1
1070
   272
1070
     1
1002
}
  0
LINE
  5
2EA
  8
LAYER4$C$L4
  6
PHANTOM
 62
     3
 10
-159.80000305179991
 20
75.199981689499992
 30
0.0
 11
-159.59999084469999
 21
75.199981689499992
 31
0.0
  0
LINE
  5
2EB
  8
LAYER4$C$L4
  6
PHANTOM
 62
     3
 10
-159.80000305179991
 20
82.799972534199995
 30
0.0
 11
-159.59999084469999
 21
82.799972534199995
 31
0.0
  0
LINE
  5
2EC
  8
LAYER4$C$L4
  6
PHANTOM
 62
     3
 10
-152.59996767690001
 20
60.649506309000003
 30
0.0
 11
-156.32178057670001
 21
67.953976096199995
 31
0.0
  0
LINE
  5
2ED
  8
LAYER4$C$L4
  6
PHANTOM
 62
     3
 10
-160.21281038609999
 20
59.100026650499998
 30
0.0
 11
-162.99999979949999
 21
64.570194391200005
 31
0.0
  0
LINE
  5
2EE
  8
LAYER4$C$L4
  6
PHANTOM
 62
     3
 10
-152.5999908446999
 20
59.099990844700002
 30
0.0
 11
-152.5999908446999
 21
60.649551391599999
 31
0.0
  0
LINE
  5
2EF
  8
LAYER4$C$L4
  6
PHANTOM
 62
     3
 10
-152.5999908446999
 20
59.099990844700002
 30
0.0
 11
-160.2127990722999
 21
59.099990844700002
 31
0.0
  0
LINE
  5
2F0
  8
LAYER4$C$L4
  6
PHANTOM
 62
     3
 10
-157.2127990722999
 20
68.499984741199995
 30
0.0
 11
-159.80000305179991
 21
68.499984741199995
 31
0.0
  0
LINE
  5
2F1
  8
LAYER4$C$L4
  6
PHANTOM
 62
     3
 10
-156.3216943315999
 20
90.045968268099983
 30
0.0
 11
-152.5999381494
 21
97.350326740699998
 31
0.0
  0
LINE
  5
2F2
  8
LAYER4$C$L4
  6
PHANTOM
 62
     3
 10
-159.80000305179991
 20
68.499984741199995
 30
0.0
 11
-159.80000305179991
 21
89.499969482400004
 31
0.0
  0
LINE
  5
2F3
  8
LAYER4$C$L4
  6
PHANTOM
 62
     3
 10
-162.9998938084
 20
93.429654285400005
 30
0.0
 11
-160.21269746769991
 21
98.899835621700021
 31
0.0
  0
LINE
  5
2F4
  8
LAYER4$C$L4
  6
PHANTOM
 62
     3
 10
-152.5999908446999
 20
97.350402832000015
 30
0.0
 11
-152.5999908446999
 21
98.899963378899997
 31
0.0
  0
LINE
  5
2F5
  8
LAYER4$C$L4
  6
PHANTOM
 62
     3
 10
-163.0
 20
64.570175170900001
 30
0.0
 11
-163.0
 21
93.429779052699999
 31
0.0
  0
LINE
  5
2F6
  8
LAYER4$C$L4
  6
PHANTOM
 62
     3
 10
-159.59999084469999
 20
75.199981689499992
 30
0.0
 11
-159.59999084469999
 21
82.799972534199995
 31
0.0
  0
LINE
  5
2F7
  8
LAYER4$C$L4
  6
PHANTOM
 62
     3
 10
-160.2127990722999
 20
98.899963378899997
 30
0.0
 11
-152.5999908446999
 21
98.899963378899997
 31
0.0
  0
LINE
  5
2F8
  8
LAYER4$C$L4
  6
PHANTOM
 62
     3
 10
-159.80000305179991
 20
89.499969482400004
 30
0.0
 11
-157.21269226070001
 21
89.499969482400004
 31
0.0
  0
DIMENSION
  5
2F9
  8
DIMENSIONS
  2
*D25
 10
-160.29997253420001
 20
128.19999694820001
 30
0.0
 11
-167.268881385725
 21
128.19999694820001
 31
0.0
 70
     0
 13
-159.49999999999989
 23
134.2999877929999
 33
0.0
 14
-160.29997253420001
 24
145.84997558590001
 34
0.0
 50
180.0
1001
ACAD
1000
DSTYLE
1002
{
1070
    41
1040
1.9727878464999999
1070
    42
1040
2.5399999618999991
1070
    44
1040
3.8099999427999989
1070
    73
1070
     0
1070
   140
1040
3.1999998092999991
1070
   271
1070
     1
1070
   272
1070
     1
1002
}
  0
LINE
  5
306
  8
LAYER1$C$L1
 62
     3
 10
-139.5
 20
60.500076293900001
 30
0.0
 11
-139.5
 21
97.49989318850001
 31
0.0
  0
LINE
  5
307
  8
LAYER1$C$L1
 62
     3
 10
-151.86349207320001
 20
94.701234443799976
 30
0.0
 11
-152.57634080279999
 21
95.064448978899975
 31
0.0
  0
LINE
  5
308
  8
LAYER1$C$L1
 62
     3
 10
-154.54204686770001
 20
89.444274167700001
 30
0.0
 11
-155.25489559729991
 21
89.807488702699999
 31
0.0
  0
LINE
  5
309
  8
LAYER1$C$L1
 62
     3
 10
-152.7010655062999
 20
90.414284142999975
 30
0.0
 11
-152.8372848116999
 21
90.146938677999998
 31
0.0
  0
LINE
  5
30A
  8
LAYER1$C$L1
 62
     3
 10
-152.83715011589999
 20
90.146951292000011
 30
0.0
 11
-153.3706440091
 21
88.079796321900005
 31
0.0
  0
LINE
  5
30B
  8
LAYER1$C$L1
 62
     3
 10
-153.5824802818
 20
87.930579225700001
 30
0.0
 11
-153.94949469549991
 21
87.963970555700001
 31
0.0
  0
LINE
  5
30C
  8
LAYER1$C$L1
 62
     3
 10
-155.0186966039999
 20
88.508767058299995
 30
0.0
 11
-154.6516973862999
 21
88.475377110899998
 31
0.0
  0
LINE
  5
30D
  8
LAYER1$C$L1
 62
     3
 10
-154.43986048240001
 20
88.6245224452
 30
0.0
 11
-153.90636658919991
 21
90.691677415200004
 31
0.0
  0
LINE
  5
30E
  8
LAYER1$C$L1
 62
     3
 10
-151.56608935770001
 20
92.641800466299998
 30
0.0
 11
-151.42992547110001
 21
92.909037165899989
 31
0.0
  0
LINE
  5
30F
  8
LAYER1$C$L1
 62
     3
 10
-151.42989256519991
 20
92.909105329300004
 30
0.0
 11
-150.07110894990001
 21
94.555754172199997
 31
0.0
  0
LINE
  5
310
  8
LAYER1$C$L1
 62
     3
 10
-150.07491986069999
 20
94.814805666400005
 30
0.0
 11
-150.3176596989
 21
95.092099632900016
 31
0.0
  0
LINE
  5
311
  8
LAYER1$C$L1
 62
     3
 10
-152.49920324030001
 20
93.453901737000024
 30
0.0
 11
-151.14041962499991
 21
95.100550579899988
 31
0.0
  0
LINE
  5
312
  8
LAYER1$C$L1
 62
     3
 10
-151.14411057789999
 20
95.359561838399983
 30
0.0
 11
-151.3868504161
 21
95.636855804999996
 31
0.0
  0
LINE
  5
313
  8
LAYER1$C$L1
 62
     3
 10
-153.68057257629991
 20
88.051336074899993
 30
0.0
 11
-154.21515431159989
 21
88.323720125099996
 31
0.0
  0
LINE
  5
314
  8
LAYER1$C$L1
 62
     3
 10
-150.2302388377
 20
94.823050139500026
 30
0.0
 11
-150.76482121679999
 21
95.09543290229999
 31
0.0
  0
LINE
  5
315
  8
LAYER1$C$L1
 62
     3
 10
-154.28756493439991
 20
94.569601665299999
 30
0.0
 11
-155.96490615720001
 21
93.480323682600002
 31
0.0
  0
LINE
  5
316
  8
LAYER1$C$L1
 62
     3
 10
-155.91246498519999
 20
92.481483288400014
 30
0.0
 11
-155.96480094789999
 21
93.480112798799993
 31
0.0
  0
LINE
  5
317
  8
LAYER1$C$L1
 62
     3
 10
-153.32472657069991
 20
90.732055297100004
 30
0.0
 11
-152.75723849639991
 21
91.845813458799995
 31
0.0
  0
LINE
  5
318
  8
LAYER1$C$L1
 62
     3
 10
-152.18975042209991
 20
92.959571620400027
 30
0.0
 11
-152.75723849639991
 21
91.845813458799995
 31
0.0
  0
LINE
  5
319
  8
LAYER1$C$L1
 62
     3
 10
-153.77022983539999
 20
90.959050526799999
 30
0.0
 11
-153.32472657069991
 21
90.732055297100004
 31
0.0
  0
LINE
  5
31A
  8
LAYER1$C$L1
 62
     3
 10
-152.63525368669991
 20
93.186566850199995
 30
0.0
 11
-152.18975042209991
 21
92.959571620400027
 31
0.0
  0
LINE
  5
31B
  8
LAYER1$C$L1
 62
     3
 10
-152.25556224170001
 20
90.187288913299994
 30
0.0
 11
-151.12058609309989
 21
92.414805236599989
 31
0.0
  0
LINE
  5
31C
  8
LAYER1$C$L1
 62
     3
 10
-152.7010655062999
 20
90.414284142999975
 30
0.0
 11
-152.25556224170001
 21
90.187288913299994
 31
0.0
  0
LINE
  5
31D
  8
LAYER1$C$L1
 62
     3
 10
-151.56608935770001
 20
92.641800466299998
 30
0.0
 11
-151.12058609309989
 21
92.414805236599989
 31
0.0
  0
LINE
  5
31E
  8
LAYER1$C$L1
 62
     3
 10
-154.2787333405999
 20
91.723249638600009
 30
0.0
 11
-153.20274324109991
 21
92.072859947999987
 31
0.0
  0
LINE
  5
31F
  8
LAYER1$C$L1
 62
     3
 10
-152.6579418037
 20
93.142021525499999
 30
0.0
 11
-153.7339319031999
 21
92.792411216100007
 31
0.0
  0
LINE
  5
320
  8
LAYER1$C$L1
 62
     3
 10
-152.32663139819991
 20
95.554418041299996
 30
0.0
 11
-153.270283191
 21
95.935678124999995
 31
0.0
  0
LINE
  5
321
  8
LAYER1$C$L1
 62
     3
 10
-156.36770786019991
 20
89.856866147099993
 30
0.0
 11
-155.50454563089991
 21
89.317502579099994
 31
0.0
  0
LINE
  5
322
  8
LAYER1$C$L1
 62
     3
 10
-152.3266238825999
 20
95.554546076200012
 30
0.0
 11
-155.50455709869999
 21
89.317500370900007
 31
0.0
  0
LINE
  5
323
  8
LAYER1$C$L1
 62
     3
 10
-153.94953926979991
 20
87.964016187300004
 30
0.0
 11
-155.0187035987999
 21
88.508782571200015
 31
0.0
  0
LINE
  5
324
  8
LAYER1$C$L1
 62
     3
 10
-155.0187035987999
 20
88.508782571200015
 30
0.0
 11
-151.38678555169989
 21
95.6368237593
 31
0.0
  0
LINE
  5
325
  8
LAYER1$C$L1
 62
     3
 10
-150.31762122270001
 20
95.092057375499991
 30
0.0
 11
-151.38678555169989
 21
95.6368237593
 31
0.0
  0
LINE
  5
326
  8
LAYER1$C$L1
 62
     3
 10
-152.57626130200001
 20
62.935573415199997
 30
0.0
 11
-151.86341257230001
 21
63.298787950200001
 31
0.0
  0
LINE
  5
327
  8
LAYER1$C$L1
 62
     3
 10
-155.2548091690999
 20
68.192520095600003
 30
0.0
 11
-154.5419604395
 21
68.555734630700002
 31
0.0
  0
LINE
  5
328
  8
LAYER1$C$L1
 62
     3
 10
-152.83721223809999
 20
67.853097311699983
 30
0.0
 11
-152.70100678750001
 21
67.5857790381
 31
0.0
  0
LINE
  5
329
  8
LAYER1$C$L1
 62
     3
 10
-153.37062935360001
 20
69.920205620000004
 30
0.0
 11
-152.83714308649999
 21
67.85308019930001
 31
0.0
  0
LINE
  5
32A
  8
LAYER1$C$L1
 62
     3
 10
-153.94948679359999
 20
70.036005163900001
 30
0.0
 11
-153.58247237989991
 21
70.069396493900001
 31
0.0
  0
LINE
  5
32B
  8
LAYER1$C$L1
 62
     3
 10
-154.6516894845
 20
69.524598608800005
 30
0.0
 11
-155.01868870219991
 21
69.491208661300007
 31
0.0
  0
LINE
  5
32C
  8
LAYER1$C$L1
 62
     3
 10
-153.90634430750001
 20
67.308294977399996
 30
0.0
 11
-154.43983820069991
 21
69.3754499474
 31
0.0
  0
LINE
  5
32D
  8
LAYER1$C$L1
 62
     3
 10
-151.42983211559991
 20
65.090958036800004
 30
0.0
 11
-151.56603756620001
 21
65.358276310500003
 31
0.0
  0
LINE
  5
32E
  8
LAYER1$C$L1
 62
     3
 10
-150.0710841714999
 20
63.444336771400003
 30
0.0
 11
-151.4298677868
 21
65.090985614299996
 31
0.0
  0
LINE
  5
32F
  8
LAYER1$C$L1
 62
     3
 10
-150.31760076149999
 20
62.907993123099999
 30
0.0
 11
-150.07486092319991
 21
63.185287089699997
 31
0.0
  0
LINE
  5
330
  8
LAYER1$C$L1
 62
     3
 10
-151.14035599979999
 20
62.899493286999999
 30
0.0
 11
-152.49913961509989
 21
64.546142129899991
 31
0.0
  0
LINE
  5
331
  8
LAYER1$C$L1
 62
     3
 10
-151.38677999750001
 20
62.363226900599997
 30
0.0
 11
-151.1440401593
 21
62.640520867200003
 31
0.0
  0
LINE
  5
332
  8
LAYER1$C$L1
 62
     3
 10
-154.21510096829991
 20
69.6762965243
 30
0.0
 11
-153.6805192329999
 21
69.948680574400001
 31
0.0
  0
LINE
  5
333
  8
LAYER1$C$L1
 62
     3
 10
-150.76481497180001
 20
62.90464416959999
 30
0.0
 11
-150.23023259269991
 21
63.177026932399997
 31
0.0
  0
LINE
  5
334
  8
LAYER1$C$L1
 62
     3
 10
-155.96487557570001
 20
64.5197602378
 30
0.0
 11
-154.2875343529999
 21
63.430482255100003
 31
0.0
  0
LINE
  5
335
  8
LAYER1$C$L1
 62
     3
 10
-155.96481318100001
 20
64.519773186199998
 30
0.0
 11
-155.9124772184
 21
65.518402696599992
 31
0.0
  0
LINE
  5
336
  8
LAYER1$C$L1
 62
     3
 10
-152.75717977759999
 20
66.154249722299994
 30
0.0
 11
-153.32466785189999
 21
67.268007883999999
 31
0.0
  0
LINE
  5
337
  8
LAYER1$C$L1
 62
     3
 10
-152.75717977759999
 20
66.154249722299994
 30
0.0
 11
-152.18969863059991
 21
65.040505156400002
 31
0.0
  0
LINE
  5
338
  8
LAYER1$C$L1
 62
     3
 10
-153.32466785189999
 20
67.268007883999999
 30
0.0
 11
-153.77017111649991
 21
67.041012654300005
 31
0.0
  0
LINE
  5
339
  8
LAYER1$C$L1
 62
     3
 10
-152.18969863059991
 20
65.040505156400002
 30
0.0
 11
-152.63520189530001
 21
64.813509926600005
 31
0.0
  0
LINE
  5
33A
  8
LAYER1$C$L1
 62
     3
 10
-151.12053430159989
 20
65.585271540200011
 30
0.0
 11
-152.25550352280001
 21
67.812774267799995
 31
0.0
  0
LINE
  5
33B
  8
LAYER1$C$L1
 62
     3
 10
-152.25550352280001
 20
67.812774267799995
 30
0.0
 11
-152.70100678750001
 21
67.5857790381
 31
0.0
  0
LINE
  5
33C
  8
LAYER1$C$L1
 62
     3
 10
-151.12053430159989
 20
65.585271540200011
 30
0.0
 11
-151.56603756620001
 21
65.358276310500003
 31
0.0
  0
LINE
  5
33D
  8
LAYER1$C$L1
 62
     3
 10
-153.2027892337
 20
65.927147202699999
 30
0.0
 11
-154.27877933319991
 21
66.276757512100005
 31
0.0
  0
LINE
  5
33E
  8
LAYER1$C$L1
 62
     3
 10
-153.73398732620001
 20
65.207566910599994
 30
0.0
 11
-152.65798271479991
 21
64.857951885999995
 31
0.0
  0
LINE
  5
33F
  8
LAYER1$C$L1
 62
     3
 10
-153.27022509109989
 20
62.064323473899996
 30
0.0
 11
-152.32655915059999
 21
62.445589273599992
 31
0.0
  0
LINE
  5
340
  8
LAYER1$C$L1
 62
     3
 10
-155.50452507959989
 20
68.6825383738
 30
0.0
 11
-156.3676873089
 21
68.143174805800001
 31
0.0
  0
LINE
  5
341
  8
LAYER1$C$L1
 62
     3
 10
-155.5044983798999
 20
68.682562810200011
 30
0.0
 11
-152.32657209120001
 21
62.445530700600003
 31
0.0
  0
LINE
  5
342
  8
LAYER1$C$L1
 62
     3
 10
-155.01864488000001
 20
69.491280609900002
 30
0.0
 11
-153.94948055099991
 21
70.036046993799999
 31
0.0
  0
LINE
  5
343
  8
LAYER1$C$L1
 62
     3
 10
-151.3867281318
 20
62.363241971000001
 30
0.0
 11
-155.01864488000001
 21
69.491280609900002
 31
0.0
  0
LINE
  5
344
  8
LAYER1$C$L1
 62
     3
 10
-151.3867281318
 20
62.363241971000001
 30
0.0
 11
-150.31756380280001
 21
62.908008354799989
 31
0.0
  0
LINE
  5
345
  8
LAYER1$C$L1
 62
     3
 10
-157.65257263180001
 20
77.357345581099992
 30
0.0
 11
-157.78756713870001
 21
77.357345581099992
 31
0.0
  0
LINE
  5
346
  8
LAYER1$C$L1
 62
     3
 10
-157.78756713870001
 20
76.3223114014
 30
0.0
 11
-158.26007080080001
 21
76.3223114014
 31
0.0
  0
LINE
  5
347
  8
LAYER1$C$L1
 62
     3
 10
-157.65257263180001
 20
77.357345581099992
 30
0.0
 11
-157.65257263180001
 21
76.3223114014
 31
0.0
  0
LINE
  5
348
  8
LAYER1$C$L1
 62
     3
 10
-157.78756713870001
 20
77.357345581099992
 30
0.0
 11
-157.78756713870001
 21
76.3223114014
 31
0.0
  0
LINE
  5
349
  8
LAYER1$C$L1
 62
     3
 10
-158.3275604248
 20
77.334884643599992
 30
0.0
 11
-158.3275604248
 21
76.389816284199995
 31
0.0
  0
LINE
  5
34A
  8
LAYER1$C$L1
 62
     3
 10
-157.45005798339989
 20
77.672409057600007
 30
0.0
 11
-157.99006652829991
 21
77.672409057600007
 31
0.0
  0
LINE
  5
34B
  8
LAYER1$C$L1
 62
     3
 10
-157.9225616455
 20
77.852340698199995
 30
0.0
 11
-158.26007080080001
 21
77.852340698199995
 31
0.0
  0
LINE
  5
34C
  8
LAYER1$C$L1
 62
     3
 10
-157.42756652829991
 20
78.482345581099992
 30
0.0
 11
-157.78756713870001
 21
78.482345581099992
 31
0.0
  0
LINE
  5
34D
  8
LAYER1$C$L1
 62
     3
 10
-157.42756652829991
 20
78.617355346699995
 30
0.0
 11
-157.9225616455
 21
78.617355346699995
 31
0.0
  0
LINE
  5
34E
  8
LAYER1$C$L1
 62
     3
 10
-157.42756652829991
 20
78.617355346699995
 30
0.0
 11
-157.42756652829991
 21
78.482345581099992
 31
0.0
  0
LINE
  5
34F
  8
LAYER1$C$L1
 62
     3
 10
-157.78756713870001
 20
78.482345581099992
 30
0.0
 11
-157.78756713870001
 21
77.852340698199995
 31
0.0
  0
LINE
  5
350
  8
LAYER1$C$L1
 62
     3
 10
-157.9225616455
 20
78.617355346699995
 30
0.0
 11
-157.9225616455
 21
77.852340698199995
 31
0.0
  0
LINE
  5
351
  8
LAYER1$C$L1
 62
     3
 10
-158.3275604248
 20
78.954879760699995
 30
0.0
 11
-158.3275604248
 21
77.919845581099992
 31
0.0
  0
LINE
  5
352
  8
LAYER1$C$L1
 62
     3
 10
-157.1800689696999
 20
77.852340698199995
 30
0.0
 11
-157.78756713870001
 21
77.852340698199995
 31
0.0
  0
LINE
  5
353
  8
LAYER1$C$L1
 62
     3
 10
-157.11256408689991
 20
77.334884643599992
 30
0.0
 11
-157.11256408689991
 21
76.389816284199995
 31
0.0
  0
LINE
  5
354
  8
LAYER1$C$L1
 62
     3
 10
-157.11256408689991
 20
78.954879760699995
 30
0.0
 11
-157.11256408689991
 21
77.919845581099992
 31
0.0
  0
LINE
  5
355
  8
LAYER1$C$L1
 62
     3
 10
-157.45005798339989
 20
79.292404174799984
 30
0.0
 11
-157.99006652829991
 21
79.292404174799984
 31
0.0
  0
LINE
  5
356
  8
LAYER1$C$L1
 62
     3
 10
-156.6400604248
 20
79.472335815400001
 30
0.0
 11
-158.26007080080001
 21
79.472335815400001
 31
0.0
  0
LINE
  5
357
  8
LAYER1$C$L1
 62
     3
 10
-157.65257263180001
 20
80.237350463899986
 30
0.0
 11
-157.65257263180001
 21
80.102340698199995
 31
0.0
  0
LINE
  5
358
  8
LAYER1$C$L1
 62
     3
 10
-156.6400604248
 20
80.102340698199995
 30
0.0
 11
-157.65257263180001
 21
80.102340698199995
 31
0.0
  0
LINE
  5
359
  8
LAYER1$C$L1
 62
     3
 10
-156.97756958010001
 20
80.237350463899986
 30
0.0
 11
-157.65257263180001
 21
80.237350463899986
 31
0.0
  0
LINE
  5
35A
  8
LAYER1$C$L1
 62
     3
 10
-157.3150634765999
 20
80.867355346699995
 30
0.0
 11
-157.99006652829991
 21
80.867355346699995
 31
0.0
  0
LINE
  5
35B
  8
LAYER1$C$L1
 62
     3
 10
-156.97756958010001
 20
81.677413940400001
 30
0.0
 11
-158.26007080080001
 21
81.677413940400001
 31
0.0
  0
LINE
  5
35C
  8
LAYER1$C$L1
 62
     3
 10
-156.97756958010001
 20
81.047409057600007
 30
0.0
 11
-158.26007080080001
 21
81.047409057600007
 31
0.0
  0
LINE
  5
35D
  8
LAYER1$C$L1
 62
     3
 10
-156.57257080080001
 20
80.034835815400015
 30
0.0
 11
-156.57257080080001
 21
79.539840698199995
 31
0.0
  0
LINE
  5
35E
  8
LAYER1$C$L1
 62
     3
 10
-158.3275604248
 20
80.529830932600007
 30
0.0
 11
-158.3275604248
 21
79.539840698199995
 31
0.0
  0
LINE
  5
35F
  8
LAYER1$C$L1
 62
     3
 10
-156.97756958010001
 20
80.529830932600007
 30
0.0
 11
-156.97756958010001
 21
80.237350463899986
 31
0.0
  0
LINE
  5
360
  8
LAYER1$C$L1
 62
     3
 10
-156.84255981449999
 20
81.677413940400001
 30
0.0
 11
-156.84255981449999
 21
81.047409057600007
 31
0.0
  0
LINE
  5
361
  8
LAYER1$C$L1
 62
     3
 10
-156.97756958010001
 20
81.677413940400001
 30
0.0
 11
-156.97756958010001
 21
81.047409057600007
 31
0.0
  0
LINE
  5
362
  8
LAYER1$C$L1
 62
     3
 10
-156.6400604248
 20
81.047409057600007
 30
0.0
 11
-156.84255981449999
 21
81.047409057600007
 31
0.0
  0
LINE
  5
363
  8
LAYER1$C$L1
 62
     3
 10
-156.57257080080001
 20
81.609909057600007
 30
0.0
 11
-156.57257080080001
 21
81.114913940399987
 31
0.0
  0
LINE
  5
364
  8
LAYER1$C$L1
 62
     3
 10
-158.3275604248
 20
81.609909057600007
 30
0.0
 11
-158.3275604248
 21
81.114913940399987
 31
0.0
  0
LINE
  5
365
  8
LAYER1$C$L1
 62
     3
 10
-156.6400604248
 20
81.677413940400001
 30
0.0
 11
-156.84255981449999
 21
81.677413940400001
 31
0.0
  0
LINE
  5
366
  8
LAYER1$C$L1
 62
     3
 10
-157.1800689696999
 20
76.3223114014
 30
0.0
 11
-157.65257263180001
 21
76.3223114014
 31
0.0
  0
LINE
  5
367
  8
LAYER1$C$L1
 62
     3
 10
-156.20008850100001
 20
75.999801635699995
 30
0.0
 11
-158.70008850100001
 21
75.999801635699995
 31
0.0
  0
LINE
  5
368
  8
LAYER1$C$L1
 62
     3
 10
-156.20008850100001
 20
81.999801635699995
 30
0.0
 11
-158.70008850100001
 21
81.999801635699995
 31
0.0
  0
LINE
  5
369
  8
LAYER1$C$L1
 62
     3
 10
-153.70008850100001
 20
72.999801635699995
 30
0.0
 11
-153.70008850100001
 21
84.999786376999992
 31
0.0
  0
LINE
  5
36A
  8
LAYER1$C$L1
 62
     3
 10
-155.70008850100001
 20
72.999801635699995
 30
0.0
 11
-155.70008850100001
 21
84.999786376999992
 31
0.0
  0
LINE
  5
36B
  8
LAYER1$C$L1
 62
     3
 10
-156.20008850100001
 20
75.999801635699995
 30
0.0
 11
-156.20008850100001
 21
81.999801635699995
 31
0.0
  0
LINE
  5
36C
  8
LAYER1$C$L1
 62
     3
 10
-153.70008850100001
 20
84.999786376999992
 30
0.0
 11
-155.70008850100001
 21
84.999786376999992
 31
0.0
  0
LINE
  5
36D
  8
LAYER1$C$L1
 62
     3
 10
-153.70008850100001
 20
72.999801635699995
 30
0.0
 11
-155.70008850100001
 21
72.999801635699995
 31
0.0
  0
LINE
  5
36E
  8
LAYER1$C$L1
 62
     3
 10
-158.70008850100001
 20
75.999801635699995
 30
0.0
 11
-158.70008850100001
 21
81.999801635699995
 31
0.0
  0
LINE
  5
36F
  8
LAYER1$C$L1
 62
     3
 10
-154.1000213623
 20
86.899810790999993
 30
0.0
 11
-153.40003967289999
 21
86.899810790999993
 31
0.0
  0
LINE
  5
370
  8
LAYER1$C$L1
 62
     3
 10
-153.40003967289999
 20
71.099899292000003
 30
0.0
 11
-154.1000213623
 21
71.099899292000003
 31
0.0
  0
LINE
  5
371
  8
LAYER1$C$L1
 62
     3
 10
-157.4255362266999
 20
88.999420379099988
 30
0.0
 11
-153.43871163139991
 21
86.968031977099997
 31
0.0
  0
LINE
  5
372
  8
LAYER1$C$L1
 62
     3
 10
-154.10000610349991
 20
85.799789428699995
 30
0.0
 11
-154.10000610349991
 21
87.305145263700012
 31
0.0
  0
LINE
  5
373
  8
LAYER1$C$L1
 62
     3
 10
-154.10000610349991
 20
70.694488525400004
 30
0.0
 11
-154.10000610349991
 21
72.199859619099996
 31
0.0
  0
LINE
  5
374
  8
LAYER1$C$L1
 62
     3
 10
-158.70007324220001
 20
85.099838256799998
 30
0.0
 11
-159.49999999999989
 21
85.099838256799998
 31
0.0
  0
LINE
  5
375
  8
LAYER1$C$L1
 62
     3
 10
-158.70007324220001
 20
72.899810791000007
 30
0.0
 11
-159.49999999999989
 21
72.899810791000007
 31
0.0
  0
LINE
  5
376
  8
LAYER1$C$L1
 62
     3
 10
-158.70007324220001
 20
82.399765014600007
 30
0.0
 11
-159.49999999999989
 21
82.399765014600007
 31
0.0
  0
LINE
  5
377
  8
LAYER1$C$L1
 62
     3
 10
-158.70007324220001
 20
75.599884033199999
 30
0.0
 11
-159.49999999999989
 21
75.599884033199999
 31
0.0
  0
LINE
  5
378
  8
LAYER1$C$L1
 62
     3
 10
-159.49999999999989
 20
85.799789428699995
 30
0.0
 11
-154.10000610349991
 21
85.799789428699995
 31
0.0
  0
LINE
  5
379
  8
LAYER1$C$L1
 62
     3
 10
-159.49999999999989
 20
85.699813842799998
 30
0.0
 11
-154.0000152588
 21
85.699813842799998
 31
0.0
  0
LINE
  5
37A
  8
LAYER1$C$L1
 62
     3
 10
-159.49999999999989
 20
91.899749755900004
 30
0.0
 11
-156.5898895263999
 21
91.899749755900004
 31
0.0
  0
LINE
  5
37B
  8
LAYER1$C$L1
 62
     3
 10
-159.49999999999989
 20
88.999725341799987
 30
0.0
 11
-157.4252166748
 21
88.999725341799987
 31
0.0
  0
LINE
  5
37C
  8
LAYER1$C$L1
 62
     3
 10
-154.10000610349991
 20
72.199859619099996
 30
0.0
 11
-159.49999999999989
 21
72.199859619099996
 31
0.0
  0
LINE
  5
37D
  8
LAYER1$C$L1
 62
     3
 10
-154.0
 20
72.299835205099996
 30
0.0
 11
-159.49999999999989
 21
72.299835205099996
 31
0.0
  0
LINE
  5
37E
  8
LAYER1$C$L1
 62
     3
 10
-156.58978271480001
 20
66.099807739300005
 30
0.0
 11
-159.49999999999989
 21
66.099807739300005
 31
0.0
  0
LINE
  5
37F
  8
LAYER1$C$L1
 62
     3
 10
-153.4387116325999
 20
71.031675903199996
 30
0.0
 11
-157.42550903639989
 21
69.000301356000008
 31
0.0
  0
LINE
  5
380
  8
LAYER1$C$L1
 62
     3
 10
-159.49999999999989
 20
61.000167846700002
 30
0.0
 11
-159.49999999999989
 21
97.000167846699995
 31
0.0
  0
LINE
  5
381
  8
LAYER1$C$L1
 62
     3
 10
-157.4252166748
 20
68.999786376999992
 30
0.0
 11
-159.49999999999989
 21
68.999786376999992
 31
0.0
  0
LINE
  5
382
  8
LAYER1$C$L1
 62
     3
 10
-148.6617431640999
 20
60.500091552699999
 30
0.0
 11
-148.6617431640999
 21
61.200531005899997
 31
0.0
  0
LINE
  5
383
  8
LAYER1$C$L1
 62
     3
 10
-148.662109375
 20
96.800018310499993
 30
0.0
 11
-148.662109375
 21
97.499969482400004
 31
0.0
  0
LINE
  5
384
  8
LAYER1$C$L1
 62
     3
 10
-158.70007324220001
 20
82.400009155299998
 30
0.0
 11
-158.70007324220001
 21
85.099960327100007
 31
0.0
  0
LINE
  5
385
  8
LAYER1$C$L1
 62
     3
 10
-159.49998474119991
 20
85.099960327100007
 30
0.0
 11
-158.70007324220001
 21
85.099960327100007
 31
0.0
  0
LINE
  5
386
  8
LAYER1$C$L1
 62
     3
 10
-159.49998474119991
 20
82.400009155299998
 30
0.0
 11
-158.70007324220001
 21
82.400009155299998
 31
0.0
  0
LINE
  5
387
  8
LAYER1$C$L1
 62
     3
 10
-158.70007324220001
 20
72.900054931599996
 30
0.0
 11
-158.70007324220001
 21
75.600128173800002
 31
0.0
  0
LINE
  5
388
  8
LAYER1$C$L1
 62
     3
 10
-158.70007324220001
 20
72.900054931599996
 30
0.0
 11
-159.49998474119991
 21
72.900054931599996
 31
0.0
  0
LINE
  5
389
  8
LAYER1$C$L1
 62
     3
 10
-158.70007324220001
 20
75.600128173800002
 30
0.0
 11
-159.49998474119991
 21
75.600128173800002
 31
0.0
  0
LINE
  5
38A
  8
LAYER1$C$L1
 62
     3
 10
-139.5006591815999
 20
93.254542124599993
 30
0.0
 11
-147.8332887249
 21
97.500228536799995
 31
0.0
  0
LINE
  5
38B
  8
LAYER1$C$L1
 62
     3
 10
-139.50066267159991
 20
92.132217702499986
 30
0.0
 11
-148.66219367490001
 21
96.80025046370001
 31
0.0
  0
LINE
  5
38C
  8
LAYER1$C$L1
 62
     3
 10
-147.8329848354999
 20
60.500630664200003
 30
0.0
 11
-139.50035529219991
 21
64.746317076300002
 31
0.0
  0
LINE
  5
38D
  8
LAYER1$C$L1
 62
     3
 10
-148.66188978549991
 20
61.200608737199993
 30
0.0
 11
-139.5003587823
 21
65.868641498399995
 31
0.0
  0
LINE
  5
38E
  8
LAYER1$C$L1
 62
     3
 10
-159.0
 20
97.499969482400004
 30
0.0
 11
-139.5
 21
97.499969482400004
 31
0.0
  0
LINE
  5
38F
  8
LAYER1$C$L1
 62
     3
 10
-150.00058816149991
 20
95.068345703999995
 30
0.0
 11
-151.17297089830001
 21
95.665704488499983
 31
0.0
  0
LINE
  5
390
  8
LAYER1$C$L1
 62
     3
 10
-150.0
 20
94.172821044900004
 30
0.0
 11
-150.0
 21
95.067962646499993
 31
0.0
  0
LINE
  5
391
  8
LAYER1$C$L1
 62
     3
 10
-150.90002441409999
 20
96.800018310499993
 30
0.0
 11
-148.66149902340001
 21
96.800018310499993
 31
0.0
  0
LINE
  5
392
  8
LAYER1$C$L1
 62
     3
 10
-153.4006047014
 20
87.500325441499996
 30
0.0
 11
-150.0006085249999
 21
94.173194286899985
 31
0.0
  0
LINE
  5
393
  8
LAYER1$C$L1
 62
     3
 10
-153.4000244140999
 20
85.700057983400001
 30
0.0
 11
-153.4000244140999
 21
87.499969482400004
 31
0.0
  0
LINE
  5
394
  8
LAYER1$C$L1
 62
     3
 10
-159.49998474119991
 20
85.700057983400001
 30
0.0
 11
-153.4000244140999
 21
85.700057983400001
 31
0.0
  0
LINE
  5
395
  8
LAYER1$C$L1
 62
     3
 10
-142.00044597659991
 20
85.600341931999992
 30
0.0
 11
-141.600368339
 21
86.000420513799995
 31
0.0
  0
LINE
  5
396
  8
LAYER1$C$L1
 62
     3
 10
-142.00029101039999
 20
82.600344479599997
 30
0.0
 11
-141.60029921750001
 21
82.200352686599999
 31
0.0
  0
LINE
  5
397
  8
LAYER1$C$L1
 62
     3
 10
-153.1003978434
 20
82.200360728900009
 30
0.0
 11
-152.7003192615999
 21
82.600438366399985
 31
0.0
  0
LINE
  5
398
  8
LAYER1$C$L1
 62
     3
 10
-153.10027905699991
 20
86.000361036499996
 30
0.0
 11
-152.70028726399991
 21
85.600369243599999
 31
0.0
  0
LINE
  5
399
  8
LAYER1$C$L1
 62
     3
 10
-142.0
 20
82.600082397500003
 30
0.0
 11
-142.0
 21
85.600082397500003
 31
0.0
  0
LINE
  5
39A
  8
LAYER1$C$L1
 62
     3
 10
-152.70007324220001
 20
82.600082397500003
 30
0.0
 11
-152.70007324220001
 21
85.600082397500003
 31
0.0
  0
LINE
  5
39B
  8
LAYER1$C$L1
 62
     3
 10
-153.10009765629991
 20
82.200057983400001
 30
0.0
 11
-153.10009765629991
 21
85.999984741200009
 31
0.0
  0
LINE
  5
39C
  8
LAYER1$C$L1
 62
     3
 10
-141.60009765629991
 20
82.200057983400001
 30
0.0
 11
-141.60009765629991
 21
85.999984741200009
 31
0.0
  0
LINE
  5
39D
  8
LAYER1$C$L1
 62
     3
 10
-152.70007324220001
 20
85.600082397500003
 30
0.0
 11
-142.0
 21
85.600082397500003
 31
0.0
  0
LINE
  5
39E
  8
LAYER1$C$L1
 62
     3
 10
-152.70007324220001
 20
82.600082397500003
 30
0.0
 11
-142.0
 21
82.600082397500003
 31
0.0
  0
LINE
  5
39F
  8
LAYER1$C$L1
 62
     3
 10
-153.10009765629991
 20
85.999984741200009
 30
0.0
 11
-141.60009765629991
 21
85.999984741200009
 31
0.0
  0
LINE
  5
3A0
  8
LAYER1$C$L1
 62
     3
 10
-153.10009765629991
 20
82.200057983400001
 30
0.0
 11
-141.60009765629991
 21
82.200057983400001
 31
0.0
  0
LINE
  5
3A1
  8
LAYER1$C$L1
 62
     3
 10
-139.5
 20
60.500091552699999
 30
0.0
 11
-159.0
 21
60.500091552699999
 31
0.0
  0
LINE
  5
3A2
  8
LAYER1$C$L1
 62
     3
 10
-151.172729355
 20
62.335277073599997
 30
0.0
 11
-150.0003466183
 21
62.932635858000012
 31
0.0
  0
LINE
  5
3A3
  8
LAYER1$C$L1
 62
     3
 10
-150.0
 20
62.932098388699998
 30
0.0
 11
-150.0
 21
63.827239990200013
 31
0.0
  0
LINE
  5
3A4
  8
LAYER1$C$L1
 62
     3
 10
-148.66149902340001
 20
61.200164794899997
 30
0.0
 11
-150.90002441409999
 21
61.200164794899997
 31
0.0
  0
LINE
  5
3A5
  8
LAYER1$C$L1
 62
     3
 10
-150.0003726102
 20
63.827798321700001
 30
0.0
 11
-153.40036878660001
 21
70.500667167000003
 31
0.0
  0
LINE
  5
3A6
  8
LAYER1$C$L1
 62
     3
 10
-153.4000244140999
 20
70.500152587900004
 30
0.0
 11
-153.4000244140999
 21
72.300079345699999
 31
0.0
  0
LINE
  5
3A7
  8
LAYER1$C$L1
 62
     3
 10
-153.4000244140999
 20
72.300079345699999
 30
0.0
 11
-159.49998474119991
 21
72.300079345699999
 31
0.0
  0
LINE
  5
3A8
  8
LAYER1$C$L1
 62
     3
 10
-141.60036530339991
 20
72.000405382700009
 30
0.0
 11
-142.00035662440001
 21
72.400397647700004
 31
0.0
  0
LINE
  5
3A9
  8
LAYER1$C$L1
 62
     3
 10
-141.60029921750001
 20
75.800311365799999
 30
0.0
 11
-142.00029101039999
 21
75.400319572800001
 31
0.0
  0
LINE
  5
3AA
  8
LAYER1$C$L1
 62
     3
 10
-152.7003330867
 20
75.400376740500008
 30
0.0
 11
-153.10032535170001
 21
75.800368061399993
 31
0.0
  0
LINE
  5
3AB
  8
LAYER1$C$L1
 62
     3
 10
-152.7003735806999
 20
72.400381125600006
 30
0.0
 11
-153.10036537369999
 21
72.000389332599994
 31
0.0
  0
LINE
  5
3AC
  8
LAYER1$C$L1
 62
     3
 10
-142.0
 20
72.400054931599996
 30
0.0
 11
-142.0
 21
75.400054931599996
 31
0.0
  0
LINE
  5
3AD
  8
LAYER1$C$L1
 62
     3
 10
-152.70007324220001
 20
72.400054931599996
 30
0.0
 11
-152.70007324220001
 21
75.400054931599996
 31
0.0
  0
LINE
  5
3AE
  8
LAYER1$C$L1
 62
     3
 10
-153.10009765629991
 20
72.000030517599996
 30
0.0
 11
-153.10009765629991
 21
75.800079345699999
 31
0.0
  0
LINE
  5
3AF
  8
LAYER1$C$L1
 62
     3
 10
-141.60009765629991
 20
72.000030517599996
 30
0.0
 11
-141.60009765629991
 21
75.800079345699999
 31
0.0
  0
LINE
  5
3B0
  8
LAYER1$C$L1
 62
     3
 10
-142.0
 20
72.400054931599996
 30
0.0
 11
-152.70007324220001
 21
72.400054931599996
 31
0.0
  0
LINE
  5
3B1
  8
LAYER1$C$L1
 62
     3
 10
-142.0
 20
75.400054931599996
 30
0.0
 11
-152.70007324220001
 21
75.400054931599996
 31
0.0
  0
LINE
  5
3B2
  8
LAYER1$C$L1
 62
     3
 10
-141.60009765629991
 20
72.000030517599996
 30
0.0
 11
-153.10009765629991
 21
72.000030517599996
 31
0.0
  0
LINE
  5
3B3
  8
LAYER1$C$L1
 62
     3
 10
-141.60009765629991
 20
75.800079345699999
 30
0.0
 11
-153.10009765629991
 21
75.800079345699999
 31
0.0
  0
LINE
  5
3B4
  8
LAYER1$C$L1
 62
     3
 10
-150.00001066600001
 20
63.386388756400002
 30
0.0
 11
-153.3515916305999
 21
69.964237389399983
 31
0.0
  0
LINE
  5
3B5
  8
LAYER1$C$L1
 62
     3
 10
-153.43867492679991
 20
70.327316284199995
 30
0.0
 11
-153.43867492679991
 21
72.299972534199995
 31
0.0
  0
LINE
  5
3B6
  8
LAYER1$C$L1
 62
     3
 10
-153.3515654082
 20
88.036227770799997
 30
0.0
 11
-150.0000662729
 21
94.613915804800001
 31
0.0
  0
LINE
  5
3B7
  8
LAYER1$C$L1
 62
     3
 10
-153.4386596679999
 20
85.699935913100006
 30
0.0
 11
-153.4386596679999
 21
87.673080444299998
 31
0.0
  0
LINE
  5
3B8
  8
LAYER1$C$L1
 62
     3
 10
-128.00109863279999
 20
153.10000610349991
 30
0.0
 11
-128.00109863279999
 21
150.0999908446999
 31
0.0
  0
LINE
  5
3B9
  8
LAYER1$C$L1
 62
     3
 10
-127.9999389647999
 20
153.10000610349991
 30
0.0
 11
-139.5
 21
153.10000610349991
 31
0.0
  0
LINE
  5
3BA
  8
LAYER1$C$L1
 62
     3
 10
-128.00109863279999
 20
150.0999908446999
 30
0.0
 11
-139.5
 21
150.0999908446999
 31
0.0
  0
LINE
  5
3BB
  8
LAYER1$C$L1
 62
     3
 10
-139.5
 20
163.69998168949999
 30
0.0
 11
-139.5
 21
153.10000610349991
 31
0.0
  0
LINE
  5
3BC
  8
LAYER1$C$L1
 62
     3
 10
-128.00109863279999
 20
144.8999633789
 30
0.0
 11
-128.00109863279999
 21
147.8999786377
 31
0.0
  0
LINE
  5
3BD
  8
LAYER1$C$L1
 62
     3
 10
-139.49995422360001
 20
134.7999877929999
 30
0.0
 11
-139.49995422360001
 21
144.89994812009991
 31
0.0
  0
LINE
  5
3BE
  8
LAYER1$C$L1
 62
     3
 10
-127.9999389647999
 20
144.8999633789
 30
0.0
 11
-139.49993896480001
 21
144.8999633789
 31
0.0
  0
LINE
  5
3BF
  8
LAYER1$C$L1
 62
     3
 10
-128.00109863279999
 20
147.8999786377
 30
0.0
 11
-139.49995422360001
 21
147.8999786377
 31
0.0
  0
LINE
  5
3C0
  8
LAYER1$C$L1
 62
     3
 10
-139.5
 20
150.0999908446999
 30
0.0
 11
-139.5
 21
147.89994812009991
 31
0.0
  0
DIMENSION
  5
3C1
  8
DIMENSIONS
  2
*D26
 10
-111.0
 20
128.19999694820001
 30
0.0
 11
-135.2499923705999
 21
128.19999694820001
 31
0.0
 70
     0
 13
-159.49998474119991
 23
134.29997253420001
 33
0.0
 14
-111.0
 24
135.49999999999989
 34
0.0
1001
ACAD
1000
DSTYLE
1002
{
1070
    41
1040
1.9727878464999999
1070
    42
1040
2.5399999618999991
1070
    44
1040
3.8099999427999989
1070
    73
1070
     0
1070
   140
1040
3.1999998092999991
1070
   271
1070
     1
1070
   272
1070
     1
1002
}
  0
DIMENSION
  5
3CD
  8
DIMENSIONS
  2
*D27
 10
-111.0
 20
127.9207978774637
 30
0.0
 11
-68.732431935583691
 21
127.9207978774637
 31
0.0
 70
   128
  1
<>13
 13
-98.0
 23
135.2999877929999
 33
0.0
 14
-111.0
 24
135.49999999999989
 34
0.0
 50
180.0
1001
ACAD
1000
DSTYLE
1002
{
1070
    41
1040
1.9727878464999999
1070
    42
1040
2.5399999618999991
1070
    44
1040
3.8099999427999989
1070
    73
1070
     0
1070
   140
1040
3.1999998092999991
1070
   271
1070
     1
1070
   272
1070
     1
1002
}
  0
TEXT
  5
3D9
  8
LAYER8$C$L8
 62
     3
 10
-139.2384690982999
 20
175.91011047360001
 30
0.0
 40
2.5
  1
DUNNY BLOCK
 41
0.8312501755237494
 72
     5
 11
-117.07179775100001
 21
175.91011047360001
 31
0.0
  0
POLYLINE
  5
3DA
  8
LAYER8$C$L8
 62
     3
 66
     1
 10
0.0
 20
0.0
 30
0.0
  0
VERTEX
  5
771
  8
LAYER8$C$L8
 62
     3
 10
-145.42402648929991
 20
156.11857604979991
 30
0.0
  0
VERTEX
  5
772
  8
LAYER8$C$L8
 62
     3
 10
-139.91495830819991
 20
175.6298141266999
 30
0.0
  0
VERTEX
  5
773
  8
LAYER8$C$L8
 62
     3
 10
-139.91495830819991
 20
175.6298141266999
 30
0.0
  0
SEQEND
  5
774
  8
LAYER8$C$L8
 62
     3
  0
LINE
  5
3DF
  8
LAYER8$C$L8
 62
     3
 10
-145.42402648929991
 20
156.11857604979991
 30
0.0
 11
-144.51551004289999
 21
157.9003161736
 31
0.0
  0
LINE
  5
3E0
  8
LAYER8$C$L8
 62
     3
 10
-145.42402648929991
 20
156.11857604979991
 30
0.0
 11
-145.2665091657
 21
158.11236347449989
 31
0.0
  0
LINE
  5
3E1
  8
LAYER1$C$L1
 62
     3
 10
-160.29997253420001
 20
80.999969482400004
 30
0.0
 11
-159.49998474119991
 21
80.999969482400004
 31
0.0
  0
LINE
  5
3E2
  8
LAYER1$C$L1
 62
     3
 10
-159.49998474119991
 20
76.999969482400004
 30
0.0
 11
-160.29997253420001
 21
76.999969482400004
 31
0.0
  0
LINE
  5
3E3
  8
LAYER1$C$L1
 62
     3
 10
-159.49998474119991
 20
83.999969482400004
 30
0.0
 11
-159.49998474119991
 21
73.999969482400004
 31
0.0
  0
LINE
  5
3E4
  8
LAYER1$C$L1
 62
     3
 10
-159.79997253420001
 20
83.999969482400004
 30
0.0
 11
-159.49998474119991
 21
83.999969482400004
 31
0.0
  0
LINE
  5
3E5
  8
LAYER1$C$L1
 62
     3
 10
-160.29997253420001
 20
74.499969482400004
 30
0.0
 11
-160.29997253420001
 21
83.499969482400004
 31
0.0
  0
LINE
  5
3E6
  8
LAYER1$C$L1
 62
     3
 10
-159.49998474119991
 20
73.999969482400004
 30
0.0
 11
-159.79997253420001
 21
73.999969482400004
 31
0.0
  0
LINE
  5
3E7
  8
LAYER1$C$L1
 62
     3
 10
-139.5
 20
150.09997558590001
 30
0.0
 11
-139.5
 21
147.8999786377
 31
0.0
  0
LINE
  5
3E8
  8
LAYER1$C$L1
 62
     3
 10
-139.5
 20
144.79997253420001
 30
0.0
 11
-139.5
 21
134.19998168949999
 31
0.0
  0
LINE
  5
3E9
  8
LAYER1$C$L1
 62
     3
 10
-116.6800079345999
 20
146.89999389650001
 30
0.0
 11
-117.8000030518
 21
146.89999389650001
 31
0.0
  0
LINE
  5
3EA
  8
LAYER1$C$L1
 62
     3
 10
-115.2933502196999
 20
144.2999877929999
 30
0.0
 11
-117.8000030518
 21
144.2999877929999
 31
0.0
  0
LINE
  5
3EB
  8
LAYER1$C$L1
 62
     3
 10
-114.0666809082
 20
142.0
 30
0.0
 11
-117.8000030518
 21
142.0
 31
0.0
  0
LINE
  5
3EC
  8
LAYER1$C$L1
 62
     3
 10
-113.0
 20
140.0
 30
0.0
 11
-117.8000030518
 21
140.0
 31
0.0
  0
LINE
  5
3ED
  8
LAYER1$C$L1
 62
     3
 10
-113.0
 20
138.2999877929999
 30
0.0
 11
-117.8000030518
 21
138.2999877929999
 31
0.0
  0
LINE
  5
3EE
  8
LAYER1$C$L1
 62
     3
 10
-113.0
 20
136.89999389650001
 30
0.0
 11
-117.8000030518
 21
136.89999389650001
 31
0.0
  0
LINE
  5
3EF
  8
LAYER1$C$L1
 62
     3
 10
-113.0
 20
135.7999877929999
 30
0.0
 11
-117.8000030518
 21
135.7999877929999
 31
0.0
  0
LINE
  5
3F0
  8
LAYER1$C$L1
 62
     3
 10
-113.0
 20
134.9999847412
 30
0.0
 11
-117.8000030518
 21
134.9999847412
 31
0.0
  0
LINE
  5
3F1
  8
LAYER1$C$L1
 62
     3
 10
-114.120010376
 20
151.0999908446999
 30
0.0
 11
-113.0
 21
151.0999908446999
 31
0.0
  0
LINE
  5
3F2
  8
LAYER1$C$L1
 62
     3
 10
-115.5066833495999
 20
153.69999694820001
 30
0.0
 11
-113.0
 21
153.69999694820001
 31
0.0
  0
LINE
  5
3F3
  8
LAYER1$C$L1
 62
     3
 10
-116.7333526611
 20
155.9999847412
 30
0.0
 11
-113.0
 21
155.9999847412
 31
0.0
  0
LINE
  5
3F4
  8
LAYER1$C$L1
 62
     3
 10
-117.8000030518
 20
157.9999847412
 30
0.0
 11
-113.0
 21
157.9999847412
 31
0.0
  0
LINE
  5
3F5
  8
LAYER1$C$L1
 62
     3
 10
-117.8000030518
 20
159.69999694820001
 30
0.0
 11
-113.0
 21
159.69999694820001
 31
0.0
  0
LINE
  5
3F6
  8
LAYER1$C$L1
 62
     3
 10
-117.8000030518
 20
161.0999908446999
 30
0.0
 11
-113.0
 21
161.0999908446999
 31
0.0
  0
LINE
  5
3F7
  8
LAYER1$C$L1
 62
     3
 10
-117.8000030518
 20
162.19999694820001
 30
0.0
 11
-113.0
 21
162.19999694820001
 31
0.0
  0
LINE
  5
3F8
  8
LAYER1$C$L1
 62
     3
 10
-117.8000030518
 20
162.99998474119991
 30
0.0
 11
-113.0
 21
162.99998474119991
 31
0.0
  0
LINE
  5
3F9
  8
LAYER1$C$L1
 62
     3
 10
-120.30000305179991
 20
137.7999877929999
 30
0.0
 11
-124.0000152588
 21
137.7999877929999
 31
0.0
  0
LINE
  5
3FA
  8
LAYER1$C$L1
 62
     3
 10
-117.8000030518
 20
147.99998474119991
 30
0.0
 11
-119.30000305179991
 21
147.99998474119991
 31
0.0
  0
LINE
  5
3FB
  8
LAYER1$C$L1
 62
     3
 10
-113.0
 20
134.49998474119991
 30
0.0
 11
-117.8000030518
 21
134.49998474119991
 31
0.0
  0
LINE
  5
3FC
  8
LAYER1$C$L1
 62
     3
 10
-120.30000305179991
 20
148.9999847412
 30
0.0
 11
-120.30000305179991
 21
134.9999847412
 31
0.0
  0
LINE
  5
3FD
  8
LAYER1$C$L1
 62
     3
 10
-117.8000030518
 20
148.9999847412
 30
0.0
 11
-117.8000030518
 21
134.49998474119991
 31
0.0
  0
LINE
  5
3FE
  8
LAYER1$C$L1
 62
     3
 10
-113.0
 20
148.9999847412
 30
0.0
 11
-113.0
 21
134.49998474119991
 31
0.0
  0
LINE
  5
3FF
  8
LAYER1$C$L1
 62
     3
 10
-117.8000030518
 20
134.9999847412
 30
0.0
 11
-120.30000305179991
 21
134.9999847412
 31
0.0
  0
LINE
  5
400
  8
LAYER1$C$L1
 62
     3
 10
-120.30000305179991
 20
145.7499847412
 30
0.0
 11
-124.0000152588
 21
145.7499847412
 31
0.0
  0
LINE
  5
401
  8
LAYER1$C$L1
 62
     3
 10
-127.6999969482
 20
148.9999847412
 30
0.0
 11
-127.6999969482
 21
144.7999877929999
 31
0.0
  0
LINE
  5
402
  8
LAYER1$C$L1
 62
     3
 10
-131.89997863769989
 20
147.89999389650001
 30
0.0
 11
-131.89997863769989
 21
148.9999847412
 31
0.0
  0
LINE
  5
403
  8
LAYER1$C$L1
 62
     3
 10
-139.5
 20
147.89999389650001
 30
0.0
 11
-127.6999969482
 21
147.89999389650001
 31
0.0
  0
LINE
  5
404
  8
LAYER1$C$L1
 62
     3
 10
-126.0
 20
148.9999847412
 30
0.0
 11
-126.0
 21
144.7999877929999
 31
0.0
  0
LINE
  5
405
  8
LAYER1$C$L1
 62
     3
 10
-125.5
 20
148.9999847412
 30
0.0
 11
-125.5
 21
144.7999877929999
 31
0.0
  0
LINE
  5
406
  8
LAYER1$C$L1
 62
     3
 10
-125.5
 20
144.7999877929999
 30
0.0
 11
-139.5
 21
144.7999877929999
 31
0.0
  0
LINE
  5
407
  8
LAYER1$C$L1
 62
     3
 10
-125.5
 20
143.69999694820001
 30
0.0
 11
-139.5
 21
143.69999694820001
 31
0.0
  0
LINE
  5
408
  8
LAYER1$C$L1
 62
     3
 10
-124.0000152588
 20
145.7499847412
 30
0.0
 11
-125.5
 21
145.7499847412
 31
0.0
  0
LINE
  5
409
  8
LAYER1$C$L1
 62
     3
 10
-111.0
 20
147.39999389650001
 30
0.0
 11
-112.700012207
 21
147.39999389650001
 31
0.0
  0
LINE
  5
40A
  8
LAYER1$C$L1
 62
     3
 10
-112.700012207
 20
148.9999847412
 30
0.0
 11
-112.700012207
 21
147.39999389650001
 31
0.0
  0
LINE
  5
40B
  8
LAYER1$C$L1
 62
     3
 10
-111.5000152588
 20
147.39999389650001
 30
0.0
 11
-111.5000152588
 21
137.99998474119991
 31
0.0
  0
LINE
  5
40C
  8
LAYER1$C$L1
 62
     3
 10
-111.0
 20
137.99998474119991
 30
0.0
 11
-113.0
 21
137.99998474119991
 31
0.0
  0
LINE
  5
40D
  8
LAYER1$C$L1
 62
     3
 10
-124.0000152588
 20
137.99998474119991
 30
0.0
 11
-125.0
 21
137.99998474119991
 31
0.0
  0
LINE
  5
40E
  8
LAYER1$C$L1
 62
     3
 10
-120.30000305179991
 20
136.99998474119991
 30
0.0
 11
-124.0000152588
 21
136.99998474119991
 31
0.0
  0
LINE
  5
40F
  8
LAYER1$C$L1
 62
     3
 10
-126.0
 20
134.19999694820001
 30
0.0
 11
-139.5
 21
134.19999694820001
 31
0.0
  0
LINE
  5
410
  8
LAYER1$C$L1
 62
     3
 10
-124.0000152588
 20
145.7499847412
 30
0.0
 11
-124.0000152588
 21
136.99998474119991
 31
0.0
  0
LINE
  5
411
  8
LAYER1$C$L1
 62
     3
 10
-125.5
 20
144.7999877929999
 30
0.0
 11
-125.5
 21
134.69999694820001
 31
0.0
  0
LINE
  5
412
  8
LAYER1$C$L1
 62
     3
 10
-124.0000152588
 20
160.19999694820001
 30
0.0
 11
-120.30000305179991
 21
160.19999694820001
 31
0.0
  0
LINE
  5
413
  8
LAYER1$C$L1
 62
     3
 10
-119.30000305179991
 20
149.99998474119991
 30
0.0
 11
-117.8000030518
 21
149.99998474119991
 31
0.0
  0
LINE
  5
414
  8
LAYER1$C$L1
 62
     3
 10
-117.8000030518
 20
163.49998474119991
 30
0.0
 11
-113.0
 21
163.49998474119991
 31
0.0
  0
LINE
  5
415
  8
LAYER1$C$L1
 62
     3
 10
-120.30000305179991
 20
162.99998474119991
 30
0.0
 11
-120.30000305179991
 21
148.9999847412
 31
0.0
  0
LINE
  5
416
  8
LAYER1$C$L1
 62
     3
 10
-117.8000030518
 20
163.49998474119991
 30
0.0
 11
-117.8000030518
 21
148.9999847412
 31
0.0
  0
LINE
  5
417
  8
LAYER1$C$L1
 62
     3
 10
-113.0
 20
163.49998474119991
 30
0.0
 11
-113.0
 21
148.9999847412
 31
0.0
  0
LINE
  5
418
  8
LAYER1$C$L1
 62
     3
 10
-120.30000305179991
 20
162.99998474119991
 30
0.0
 11
-117.8000030518
 21
162.99998474119991
 31
0.0
  0
LINE
  5
419
  8
LAYER1$C$L1
 62
     3
 10
-124.0000152588
 20
152.24998474119991
 30
0.0
 11
-120.30000305179991
 21
152.24998474119991
 31
0.0
  0
LINE
  5
41A
  8
LAYER1$C$L1
 62
     3
 10
-127.6999969482
 20
153.19999694820001
 30
0.0
 11
-127.6999969482
 21
148.9999847412
 31
0.0
  0
LINE
  5
41B
  8
LAYER1$C$L1
 62
     3
 10
-131.89997863769989
 20
148.9999847412
 30
0.0
 11
-131.89997863769989
 21
150.0999908446999
 31
0.0
  0
LINE
  5
41C
  8
LAYER1$C$L1
 62
     3
 10
-127.6999969482
 20
150.0999908446999
 30
0.0
 11
-139.5
 21
150.0999908446999
 31
0.0
  0
LINE
  5
41D
  8
LAYER1$C$L1
 62
     3
 10
-126.0
 20
153.19999694820001
 30
0.0
 11
-126.0
 21
148.9999847412
 31
0.0
  0
LINE
  5
41E
  8
LAYER1$C$L1
 62
     3
 10
-125.5
 20
153.19999694820001
 30
0.0
 11
-125.5
 21
148.9999847412
 31
0.0
  0
LINE
  5
41F
  8
LAYER1$C$L1
 62
     3
 10
-139.5
 20
153.19999694820001
 30
0.0
 11
-125.5
 21
153.19999694820001
 31
0.0
  0
LINE
  5
420
  8
LAYER1$C$L1
 62
     3
 10
-139.5
 20
154.2999877929999
 30
0.0
 11
-125.5
 21
154.2999877929999
 31
0.0
  0
LINE
  5
421
  8
LAYER1$C$L1
 62
     3
 10
-125.5
 20
152.24998474119991
 30
0.0
 11
-124.0000152588
 21
152.24998474119991
 31
0.0
  0
LINE
  5
422
  8
LAYER1$C$L1
 62
     3
 10
-112.700012207
 20
150.5999908446999
 30
0.0
 11
-111.0
 21
150.5999908446999
 31
0.0
  0
LINE
  5
423
  8
LAYER1$C$L1
 62
     3
 10
-112.700012207
 20
150.5999908446999
 30
0.0
 11
-112.700012207
 21
148.9999847412
 31
0.0
  0
LINE
  5
424
  8
LAYER1$C$L1
 62
     3
 10
-111.5000152588
 20
159.9999847412
 30
0.0
 11
-111.5000152588
 21
150.5999908446999
 31
0.0
  0
LINE
  5
425
  8
LAYER1$C$L1
 62
     3
 10
-113.0
 20
159.9999847412
 30
0.0
 11
-111.0
 21
159.9999847412
 31
0.0
  0
LINE
  5
426
  8
LAYER1$C$L1
 62
     3
 10
-125.0
 20
159.9999847412
 30
0.0
 11
-124.0000152588
 21
159.9999847412
 31
0.0
  0
LINE
  5
427
  8
LAYER1$C$L1
 62
     3
 10
-124.0000152588
 20
160.9999847412
 30
0.0
 11
-120.30000305179991
 21
160.9999847412
 31
0.0
  0
LINE
  5
428
  8
LAYER1$C$L1
 62
     3
 10
-139.5
 20
163.7999877929999
 30
0.0
 11
-126.0
 21
163.7999877929999
 31
0.0
  0
LINE
  5
429
  8
LAYER1$C$L1
 62
     3
 10
-124.0000152588
 20
160.9999847412
 30
0.0
 11
-124.0000152588
 21
152.24998474119991
 31
0.0
  0
LINE
  5
42A
  8
LAYER1$C$L1
 62
     3
 10
-125.5
 20
163.2999877929999
 30
0.0
 11
-125.5
 21
153.19999694820001
 31
0.0
  0
LINE
  5
42B
  8
LAYER1$C$L1
 62
     3
 10
-139.5
 20
163.7999877929999
 30
0.0
 11
-139.5
 21
153.19998168949999
 31
0.0
  0
LINE
  5
42C
  8
LAYER3$C$L3
  6
CENTERLINE
 62
     3
 10
-165.1925659179999
 20
148.9999847412
 30
0.0
 11
-83.906356811500004
 21
148.9999847412
 31
0.0
  0
LINE
  5
42D
  8
LAYER1$C$L1
 62
     3
 10
-109.1033325195
 20
146.89999389650001
 30
0.0
 11
-110.1999969481999
 21
146.89999389650001
 31
0.0
  0
LINE
  5
42E
  8
LAYER1$C$L1
 62
     3
 10
-107.7835693359
 20
144.2999877929999
 30
0.0
 11
-110.1999969481999
 21
144.2999877929999
 31
0.0
  0
LINE
  5
42F
  8
LAYER1$C$L1
 62
     3
 10
-106.5444488525
 20
142.0
 30
0.0
 11
-110.1999969481999
 21
142.0
 31
0.0
  0
LINE
  5
430
  8
LAYER1$C$L1
 62
     3
 10
-105.4999999999999
 20
140.0
 30
0.0
 11
-110.1999969481999
 21
140.0
 31
0.0
  0
LINE
  5
431
  8
LAYER1$C$L1
 62
     3
 10
-105.4999999999999
 20
138.2999877929999
 30
0.0
 11
-110.1999969481999
 21
138.2999877929999
 31
0.0
  0
LINE
  5
432
  8
LAYER1$C$L1
 62
     3
 10
-105.4999999999999
 20
136.89999389650001
 30
0.0
 11
-110.1999969481999
 21
136.89999389650001
 31
0.0
  0
LINE
  5
433
  8
LAYER1$C$L1
 62
     3
 10
-105.4999999999999
 20
135.7999877929999
 30
0.0
 11
-110.1999969481999
 21
135.7999877929999
 31
0.0
  0
LINE
  5
434
  8
LAYER1$C$L1
 62
     3
 10
-105.4999999999999
 20
135.0
 30
0.0
 11
-110.1999969481999
 21
135.0
 31
0.0
  0
LINE
  5
435
  8
LAYER1$C$L1
 62
     3
 10
-98.000006929400016
 20
135.2999968945999
 30
0.0
 11
-98.300011563700025
 21
134.99999226029999
 31
0.0
  0
LINE
  5
436
  8
LAYER1$C$L1
 62
     3
 10
-104.9999927813999
 20
134.99998147069999
 30
0.0
 11
-105.4999933121999
 21
134.4999809398999
 31
0.0
  0
LINE
  5
437
  8
LAYER1$C$L1
 62
     3
 10
-98.300003051800005
 20
135.0
 30
0.0
 11
-105.0
 21
135.0
 31
0.0
  0
LINE
  5
438
  8
LAYER1$C$L1
 62
     3
 10
-105.0
 20
149.0
 30
0.0
 11
-105.0
 21
135.0
 31
0.0
  0
LINE
  5
439
  8
LAYER1$C$L1
 62
     3
 10
-98.300003051800005
 20
149.0
 30
0.0
 11
-98.300003051800005
 21
135.0
 31
0.0
  0
LINE
  5
43A
  8
LAYER1$C$L1
 62
     3
 10
-98.0
 20
149.0
 30
0.0
 11
-98.0
 21
135.2999877929999
 31
0.0
  0
LINE
  5
43B
  8
LAYER1$C$L1
 62
     3
 10
-105.4999999999999
 20
134.49999999999989
 30
0.0
 11
-110.1999969481999
 21
134.49999999999989
 31
0.0
  0
LINE
  5
43C
  8
LAYER1$C$L1
 62
     3
 10
-105.4999999999999
 20
149.0
 30
0.0
 11
-105.4999999999999
 21
134.49999999999989
 31
0.0
  0
LINE
  5
43D
  8
LAYER1$C$L1
 62
     3
 10
-110.2000040721999
 20
134.49999090749989
 30
0.0
 11
-111.0000038054999
 21
135.4999905741
 31
0.0
  0
LINE
  5
43E
  8
LAYER1$C$L1
 62
     3
 10
-110.1999969481999
 20
149.0
 30
0.0
 11
-110.1999969481999
 21
134.49999999999989
 31
0.0
  0
LINE
  5
43F
  8
LAYER1$C$L1
 62
     3
 10
-111.0
 20
149.0
 30
0.0
 11
-111.0
 21
135.49999999999989
 31
0.0
  0
LINE
  5
440
  8
LAYER1$C$L1
 62
     3
 10
-106.5966644287
 20
151.0999908446999
 30
0.0
 11
-105.4999999999999
 21
151.0999908446999
 31
0.0
  0
LINE
  5
441
  8
LAYER1$C$L1
 62
     3
 10
-107.9544372559
 20
153.69999694820001
 30
0.0
 11
-105.4999999999999
 21
153.69999694820001
 31
0.0
  0
LINE
  5
442
  8
LAYER1$C$L1
 62
     3
 10
-109.1555480957
 20
155.9999847412
 30
0.0
 11
-105.4999999999999
 21
155.9999847412
 31
0.0
  0
LINE
  5
443
  8
LAYER1$C$L1
 62
     3
 10
-110.1999969481999
 20
157.9999847412
 30
0.0
 11
-105.4999999999999
 21
157.9999847412
 31
0.0
  0
LINE
  5
444
  8
LAYER1$C$L1
 62
     3
 10
-110.1999969481999
 20
159.69999694820001
 30
0.0
 11
-105.4999999999999
 21
159.69999694820001
 31
0.0
  0
LINE
  5
445
  8
LAYER1$C$L1
 62
     3
 10
-110.1999969481999
 20
161.0999908446999
 30
0.0
 11
-105.4999999999999
 21
161.0999908446999
 31
0.0
  0
LINE
  5
446
  8
LAYER1$C$L1
 62
     3
 10
-110.1999969481999
 20
162.19999694820001
 30
0.0
 11
-105.4999999999999
 21
162.19999694820001
 31
0.0
  0
LINE
  5
447
  8
LAYER1$C$L1
 62
     3
 10
-110.1999969481999
 20
163.0
 30
0.0
 11
-105.4999999999999
 21
163.0
 31
0.0
  0
LINE
  5
448
  8
LAYER1$C$L1
 62
     3
 10
-98.300011563700025
 20
162.9999788264
 30
0.0
 11
-98.000006929400016
 21
162.6999741921
 31
0.0
  0
LINE
  5
449
  8
LAYER1$C$L1
 62
     3
 10
-105.5000041018
 20
163.49997935719989
 30
0.0
 11
-105.00000357099999
 21
162.9999788264
 31
0.0
  0
LINE
  5
44A
  8
LAYER1$C$L1
 62
     3
 10
-105.0
 20
163.0
 30
0.0
 11
-98.300003051800005
 21
163.0
 31
0.0
  0
LINE
  5
44B
  8
LAYER1$C$L1
 62
     3
 10
-105.0
 20
163.0
 30
0.0
 11
-105.0
 21
149.0
 31
0.0
  0
LINE
  5
44C
  8
LAYER1$C$L1
 62
     3
 10
-98.300003051800005
 20
163.0
 30
0.0
 11
-98.300003051800005
 21
149.0
 31
0.0
  0
LINE
  5
44D
  8
LAYER1$C$L1
 62
     3
 10
-98.0
 20
162.69999694820001
 30
0.0
 11
-98.0
 21
149.0
 31
0.0
  0
LINE
  5
44E
  8
LAYER1$C$L1
 62
     3
 10
-110.1999969481999
 20
163.49999999999989
 30
0.0
 11
-105.4999999999999
 21
163.49999999999989
 31
0.0
  0
LINE
  5
44F
  8
LAYER1$C$L1
 62
     3
 10
-105.4999999999999
 20
163.49999999999989
 30
0.0
 11
-105.4999999999999
 21
149.0
 31
0.0
  0
LINE
  5
450
  8
LAYER1$C$L1
 62
     3
 10
-110.9999820604
 20
162.4999708496
 30
0.0
 11
-110.1999823270999
 21
163.49997051619999
 31
0.0
  0
LINE
  5
451
  8
LAYER1$C$L1
 62
     3
 10
-110.1999969481999
 20
163.49999999999989
 30
0.0
 11
-110.1999969481999
 21
149.0
 31
0.0
  0
LINE
  5
452
  8
LAYER1$C$L1
 62
     3
 10
-111.0
 20
162.5
 30
0.0
 11
-111.0
 21
149.0
 31
0.0
  0
LINE
  5
453
  8
LAYER1$C$L1
 62
     3
 10
-111.0
 20
67.9999542236
 30
0.0
 11
-113.0
 21
67.9999542236
 31
0.0
  0
LINE
  5
454
  8
LAYER1$C$L1
 62
     3
 10
-120.30000305179991
 20
67.799957275400004
 30
0.0
 11
-124.0000152588
 21
67.799957275400004
 31
0.0
  0
LINE
  5
455
  8
LAYER1$C$L1
 62
     3
 10
-120.30000305179991
 20
66.9999542236
 30
0.0
 11
-124.0000152588
 21
66.9999542236
 31
0.0
  0
LINE
  5
456
  8
LAYER1$C$L1
 62
     3
 10
-116.6800079345999
 20
76.899963378899997
 30
0.0
 11
-117.8000030518
 21
76.899963378899997
 31
0.0
  0
LINE
  5
457
  8
LAYER1$C$L1
 62
     3
 10
-115.2933502196999
 20
74.299957275400004
 30
0.0
 11
-117.8000030518
 21
74.299957275400004
 31
0.0
  0
LINE
  5
458
  8
LAYER1$C$L1
 62
     3
 10
-114.0666809082
 20
71.999969482400004
 30
0.0
 11
-117.8000030518
 21
71.999969482400004
 31
0.0
  0
LINE
  5
459
  8
LAYER1$C$L1
 62
     3
 10
-113.0
 20
69.999969482400004
 30
0.0
 11
-117.8000030518
 21
69.999969482400004
 31
0.0
  0
LINE
  5
45A
  8
LAYER1$C$L1
 62
     3
 10
-113.0
 20
68.299957275400004
 30
0.0
 11
-117.8000030518
 21
68.299957275400004
 31
0.0
  0
LINE
  5
45B
  8
LAYER1$C$L1
 62
     3
 10
-113.0
 20
66.899963378899997
 30
0.0
 11
-117.8000030518
 21
66.899963378899997
 31
0.0
  0
LINE
  5
45C
  8
LAYER1$C$L1
 62
     3
 10
-113.0
 20
65.799957275400004
 30
0.0
 11
-117.8000030518
 21
65.799957275400004
 31
0.0
  0
LINE
  5
45D
  8
LAYER1$C$L1
 62
     3
 10
-113.0
 20
64.9999542236
 30
0.0
 11
-117.8000030518
 21
64.9999542236
 31
0.0
  0
LINE
  5
45E
  8
LAYER1$C$L1
 62
     3
 10
-117.8000030518
 20
64.9999542236
 30
0.0
 11
-120.30000305179991
 21
64.9999542236
 31
0.0
  0
LINE
  5
45F
  8
LAYER1$C$L1
 62
     3
 10
-113.0
 20
64.4999542236
 30
0.0
 11
-117.8000030518
 21
64.4999542236
 31
0.0
  0
LINE
  5
460
  8
LAYER1$C$L1
 62
     3
 10
-117.8000030518
 20
78.999954223599985
 30
0.0
 11
-117.8000030518
 21
64.4999542236
 31
0.0
  0
LINE
  5
461
  8
LAYER1$C$L1
 62
     3
 10
-120.30000305179991
 20
78.999954223599985
 30
0.0
 11
-120.30000305179991
 21
64.9999542236
 31
0.0
  0
LINE
  5
462
  8
LAYER1$C$L1
 62
     3
 10
-113.0
 20
78.999954223599985
 30
0.0
 11
-113.0
 21
64.4999542236
 31
0.0
  0
LINE
  5
463
  8
LAYER1$C$L1
 62
     3
 10
-125.5
 20
78.999954223599985
 30
0.0
 11
-125.5
 21
67.4999542236
 31
0.0
  0
LINE
  5
464
  8
LAYER1$C$L1
 62
     3
 10
-124.0000152588
 20
67.9999542236
 30
0.0
 11
-125.0
 21
67.9999542236
 31
0.0
  0
LINE
  5
465
  8
LAYER1$C$L1
 62
     3
 10
-124.0000152588
 20
78.999954223599985
 30
0.0
 11
-124.0000152588
 21
66.9999542236
 31
0.0
  0
LINE
  5
466
  8
LAYER1$C$L1
 62
     3
 10
-126.0
 20
60.9999542236
 30
0.0
 11
-139.5
 21
60.9999542236
 31
0.0
  0
LINE
  5
467
  8
LAYER1$C$L1
 62
     3
 10
-126.0
 20
60.4999542236
 30
0.0
 11
-139.5
 21
60.4999542236
 31
0.0
  0
LINE
  5
468
  8
LAYER1$C$L1
 62
     3
 10
-125.5
 20
67.4999542236
 30
0.0
 11
-125.5
 21
60.9999542236
 31
0.0
  0
LINE
  5
469
  8
LAYER1$C$L1
 62
     3
 10
-139.5
 20
78.999954223599985
 30
0.0
 11
-139.5
 21
60.4999542236
 31
0.0
  0
LINE
  5
46A
  8
LAYER1$C$L1
 62
     3
 10
-114.120010376
 20
81.099960327100007
 30
0.0
 11
-113.0
 21
81.099960327100007
 31
0.0
  0
LINE
  5
46B
  8
LAYER1$C$L1
 62
     3
 10
-115.5066833495999
 20
83.699966430700016
 30
0.0
 11
-113.0
 21
83.699966430700016
 31
0.0
  0
LINE
  5
46C
  8
LAYER1$C$L1
 62
     3
 10
-116.7333526611
 20
85.999954223600014
 30
0.0
 11
-113.0
 21
85.999954223600014
 31
0.0
  0
LINE
  5
46D
  8
LAYER1$C$L1
 62
     3
 10
-117.8000030518
 20
87.9999542236
 30
0.0
 11
-113.0
 21
87.9999542236
 31
0.0
  0
LINE
  5
46E
  8
LAYER1$C$L1
 62
     3
 10
-117.8000030518
 20
89.699966430700002
 30
0.0
 11
-113.0
 21
89.699966430700002
 31
0.0
  0
LINE
  5
46F
  8
LAYER1$C$L1
 62
     3
 10
-117.8000030518
 20
91.099960327099978
 30
0.0
 11
-113.0
 21
91.099960327099978
 31
0.0
  0
LINE
  5
470
  8
LAYER1$C$L1
 62
     3
 10
-117.8000030518
 20
92.199966430700002
 30
0.0
 11
-113.0
 21
92.199966430700002
 31
0.0
  0
LINE
  5
471
  8
LAYER1$C$L1
 62
     3
 10
-117.8000030518
 20
92.9999542236
 30
0.0
 11
-113.0
 21
92.9999542236
 31
0.0
  0
LINE
  5
472
  8
LAYER1$C$L1
 62
     3
 10
-120.30000305179991
 20
92.9999542236
 30
0.0
 11
-117.8000030518
 21
92.9999542236
 31
0.0
  0
LINE
  5
473
  8
LAYER1$C$L1
 62
     3
 10
-117.8000030518
 20
93.499954223600014
 30
0.0
 11
-113.0
 21
93.499954223600014
 31
0.0
  0
LINE
  5
474
  8
LAYER1$C$L1
 62
     3
 10
-117.8000030518
 20
93.499954223600014
 30
0.0
 11
-117.8000030518
 21
78.999954223599985
 31
0.0
  0
LINE
  5
475
  8
LAYER1$C$L1
 62
     3
 10
-120.30000305179991
 20
92.9999542236
 30
0.0
 11
-120.30000305179991
 21
78.999954223599985
 31
0.0
  0
LINE
  5
476
  8
LAYER1$C$L1
 62
     3
 10
-113.0
 20
93.499954223600014
 30
0.0
 11
-113.0
 21
78.999954223599985
 31
0.0
  0
LINE
  5
477
  8
LAYER1$C$L1
 62
     3
 10
-113.0
 20
89.999954223599985
 30
0.0
 11
-111.0
 21
89.999954223599985
 31
0.0
  0
LINE
  5
478
  8
LAYER1$C$L1
 62
     3
 10
-124.0000152588
 20
90.199966430699988
 30
0.0
 11
-120.30000305179991
 21
90.199966430699988
 31
0.0
  0
LINE
  5
479
  8
LAYER1$C$L1
 62
     3
 10
-125.5
 20
90.4999542236
 30
0.0
 11
-125.5
 21
78.999954223599985
 31
0.0
  0
LINE
  5
47A
  8
LAYER1$C$L1
 62
     3
 10
-125.0
 20
89.999954223599985
 30
0.0
 11
-124.0000152588
 21
89.999954223599985
 31
0.0
  0
LINE
  5
47B
  8
LAYER1$C$L1
 62
     3
 10
-124.0000152588
 20
90.999954223600014
 30
0.0
 11
-120.30000305179991
 21
90.999954223600014
 31
0.0
  0
LINE
  5
47C
  8
LAYER1$C$L1
 62
     3
 10
-124.0000152588
 20
90.999954223600014
 30
0.0
 11
-124.0000152588
 21
78.999954223599985
 31
0.0
  0
LINE
  5
47D
  8
LAYER1$C$L1
 62
     3
 10
-139.5
 20
96.9999542236
 30
0.0
 11
-126.0
 21
96.9999542236
 31
0.0
  0
LINE
  5
47E
  8
LAYER1$C$L1
 62
     3
 10
-139.5
 20
97.499954223600014
 30
0.0
 11
-126.0
 21
97.499954223600014
 31
0.0
  0
LINE
  5
47F
  8
LAYER1$C$L1
 62
     3
 10
-125.5
 20
96.9999542236
 30
0.0
 11
-125.5
 21
90.4999542236
 31
0.0
  0
LINE
  5
480
  8
LAYER1$C$L1
 62
     3
 10
-139.5
 20
97.499954223600014
 30
0.0
 11
-139.5
 21
78.999954223599985
 31
0.0
  0
LINE
  5
481
  8
LAYER3$C$L3
  6
CENTERLINE
 62
     3
 10
-165.6611785888999
 20
78.999984741199995
 30
0.0
 11
-84.572006225600006
 21
78.999984741199995
 31
0.0
  0
LINE
  5
482
  8
LAYER1$C$L1
 62
     3
 10
-109.1033325195
 20
76.899978637700002
 30
0.0
 11
-110.1999969481999
 21
76.899978637700002
 31
0.0
  0
LINE
  5
483
  8
LAYER1$C$L1
 62
     3
 10
-107.7835693359
 20
74.299972534199995
 30
0.0
 11
-110.1999969481999
 21
74.299972534199995
 31
0.0
  0
LINE
  5
484
  8
LAYER1$C$L1
 62
     3
 10
-106.5444488525
 20
71.999984741199995
 30
0.0
 11
-110.1999969481999
 21
71.999984741199995
 31
0.0
  0
LINE
  5
485
  8
LAYER1$C$L1
 62
     3
 10
-105.4999999999999
 20
69.999984741199995
 30
0.0
 11
-110.1999969481999
 21
69.999984741199995
 31
0.0
  0
LINE
  5
486
  8
LAYER1$C$L1
 62
     3
 10
-105.4999999999999
 20
68.299972534199995
 30
0.0
 11
-110.1999969481999
 21
68.299972534199995
 31
0.0
  0
LINE
  5
487
  8
LAYER1$C$L1
 62
     3
 10
-105.4999999999999
 20
66.899978637700002
 30
0.0
 11
-110.1999969481999
 21
66.899978637700002
 31
0.0
  0
LINE
  5
488
  8
LAYER1$C$L1
 62
     3
 10
-105.4999999999999
 20
65.799972534199995
 30
0.0
 11
-110.1999969481999
 21
65.799972534199995
 31
0.0
  0
LINE
  5
489
  8
LAYER1$C$L1
 62
     3
 10
-105.4999999999999
 20
64.999984741199995
 30
0.0
 11
-110.1999969481999
 21
64.999984741199995
 31
0.0
  0
LINE
  5
48A
  8
LAYER1$C$L1
 62
     3
 10
-98.000017718999985
 20
65.299976531300004
 30
0.0
 11
-98.300022353299994
 21
64.999971896999995
 31
0.0
  0
LINE
  5
48B
  8
LAYER1$C$L1
 62
     3
 10
-105.00000357099999
 20
64.999961107399983
 30
0.0
 11
-105.5000041018
 21
64.499960576600003
 31
0.0
  0
LINE
  5
48C
  8
LAYER1$C$L1
 62
     3
 10
-98.300003051800005
 20
64.999984741199995
 30
0.0
 11
-105.0
 21
64.999984741199995
 31
0.0
  0
LINE
  5
48D
  8
LAYER1$C$L1
 62
     3
 10
-105.0
 20
78.999984741199995
 30
0.0
 11
-105.0
 21
64.999984741199995
 31
0.0
  0
LINE
  5
48E
  8
LAYER1$C$L1
 62
     3
 10
-98.300003051800005
 20
78.999984741199995
 30
0.0
 11
-98.300003051800005
 21
64.999984741199995
 31
0.0
  0
LINE
  5
48F
  8
LAYER1$C$L1
 62
     3
 10
-98.0
 20
78.999984741199995
 30
0.0
 11
-98.0
 21
65.299972534199995
 31
0.0
  0
LINE
  5
490
  8
LAYER1$C$L1
 62
     3
 10
-105.4999999999999
 20
64.499984741199995
 30
0.0
 11
-110.1999969481999
 21
64.499984741199995
 31
0.0
  0
LINE
  5
491
  8
LAYER1$C$L1
 62
     3
 10
-105.4999999999999
 20
78.999984741199995
 30
0.0
 11
-105.4999999999999
 21
64.499984741199995
 31
0.0
  0
LINE
  5
492
  8
LAYER1$C$L1
 62
     3
 10
-110.19997994409999
 20
64.499974923300002
 30
0.0
 11
-110.99997967739991
 21
65.499974589899992
 31
0.0
  0
LINE
  5
493
  8
LAYER1$C$L1
 62
     3
 10
-110.1999969481999
 20
78.999984741199995
 30
0.0
 11
-110.1999969481999
 21
64.499984741199995
 31
0.0
  0
LINE
  5
494
  8
LAYER1$C$L1
 62
     3
 10
-111.0
 20
78.999984741199995
 30
0.0
 11
-111.0
 21
65.499984741199995
 31
0.0
  0
LINE
  5
495
  8
LAYER1$C$L1
 62
     3
 10
-106.5966644287
 20
81.099975585899998
 30
0.0
 11
-105.4999999999999
 21
81.099975585899998
 31
0.0
  0
LINE
  5
496
  8
LAYER1$C$L1
 62
     3
 10
-107.9544372559
 20
83.699981689499992
 30
0.0
 11
-105.4999999999999
 21
83.699981689499992
 31
0.0
  0
LINE
  5
497
  8
LAYER1$C$L1
 62
     3
 10
-109.1555480957
 20
85.999969482400004
 30
0.0
 11
-105.4999999999999
 21
85.999969482400004
 31
0.0
  0
LINE
  5
498
  8
LAYER1$C$L1
 62
     3
 10
-110.1999969481999
 20
87.999969482400004
 30
0.0
 11
-105.4999999999999
 21
87.999969482400004
 31
0.0
  0
LINE
  5
499
  8
LAYER1$C$L1
 62
     3
 10
-110.1999969481999
 20
89.699981689500007
 30
0.0
 11
-105.4999999999999
 21
89.699981689500007
 31
0.0
  0
LINE
  5
49A
  8
LAYER1$C$L1
 62
     3
 10
-110.1999969481999
 20
91.099975585899998
 30
0.0
 11
-105.4999999999999
 21
91.099975585899998
 31
0.0
  0
LINE
  5
49B
  8
LAYER1$C$L1
 62
     3
 10
-110.1999969481999
 20
92.199981689500007
 30
0.0
 11
-105.4999999999999
 21
92.199981689500007
 31
0.0
  0
LINE
  5
49C
  8
LAYER1$C$L1
 62
     3
 10
-110.1999969481999
 20
92.999984741199995
 30
0.0
 11
-105.4999999999999
 21
92.999984741199995
 31
0.0
  0
LINE
  5
49D
  8
LAYER1$C$L1
 62
     3
 10
-98.300012912400007
 20
92.999946324799978
 30
0.0
 11
-98.000019067700009
 21
92.699952480100009
 31
0.0
  0
LINE
  5
49E
  8
LAYER1$C$L1
 62
     3
 10
-105.5000162400999
 20
93.499957645199999
 30
0.0
 11
-105.0000157092999
 21
92.999957114400004
 31
0.0
  0
LINE
  5
49F
  8
LAYER1$C$L1
 62
     3
 10
-105.0
 20
92.999984741199995
 30
0.0
 11
-98.300003051800005
 21
92.999984741199995
 31
0.0
  0
LINE
  5
4A0
  8
LAYER1$C$L1
 62
     3
 10
-105.0
 20
92.999984741199995
 30
0.0
 11
-105.0
 21
78.999984741199995
 31
0.0
  0
LINE
  5
4A1
  8
LAYER1$C$L1
 62
     3
 10
-98.300003051800005
 20
92.999984741199995
 30
0.0
 11
-98.300003051800005
 21
78.999984741199995
 31
0.0
  0
LINE
  5
4A2
  8
LAYER1$C$L1
 62
     3
 10
-98.0
 20
92.699981689500007
 30
0.0
 11
-98.0
 21
78.999984741199995
 31
0.0
  0
LINE
  5
4A3
  8
LAYER1$C$L1
 62
     3
 10
-110.1999969481999
 20
93.499984741200009
 30
0.0
 11
-105.4999999999999
 21
93.499984741200009
 31
0.0
  0
LINE
  5
4A4
  8
LAYER1$C$L1
 62
     3
 10
-105.4999999999999
 20
93.499984741200009
 30
0.0
 11
-105.4999999999999
 21
78.999984741199995
 31
0.0
  0
LINE
  5
4A5
  8
LAYER1$C$L1
 62
     3
 10
-110.99999755010001
 20
92.499950397199996
 30
0.0
 11
-110.19999781680001
 21
93.499950063899988
 31
0.0
  0
LINE
  5
4A6
  8
LAYER1$C$L1
 62
     3
 10
-110.1999969481999
 20
93.499984741200009
 30
0.0
 11
-110.1999969481999
 21
78.999984741199995
 31
0.0
  0
LINE
  5
4A7
  8
LAYER1$C$L1
 62
     3
 10
-111.0
 20
92.499984741200009
 30
0.0
 11
-111.0
 21
78.999984741199995
 31
0.0
  0
TEXT
  5
4F1
  8
LAYER8$C$L8
 62
     3
 10
-110.58995530430001
 20
103.0860290526999
 30
0.0
 40
2.5
  1
ADJUSTMENT RING
 41
0.8418605957358145
 72
     5
 11
-80.423283957099983
 21
103.0860290526999
 31
0.0
  0
POLYLINE
  5
508
  8
LAYER8$C$L8
 62
     3
 66
     1
 10
0.0
 20
0.0
 30
0.0
  0
VERTEX
  5
775
  8
LAYER8$C$L8
 62
     3
 10
-152.5498046875
 20
95.644592285200005
 30
0.0
  0
VERTEX
  5
776
  8
LAYER8$C$L8
 62
     3
 10
-143.91664226450001
 20
110.59766974590001
 30
0.0
  0
VERTEX
  5
777
  8
LAYER8$C$L8
 62
     3
 10
-143.91664226450001
 20
110.59766974590001
 30
0.0
  0
SEQEND
  5
778
  8
LAYER8$C$L8
 62
     3
  0
LINE
  5
50D
  8
LAYER8$C$L8
 62
     3
 10
-152.5498046875
 20
95.644592285200005
 30
0.0
 11
-151.23111312290001
 21
97.148271958300001
 31
0.0
  0
LINE
  5
50E
  8
LAYER8$C$L8
 62
     3
 10
-152.5498046875
 20
95.644592285200005
 30
0.0
 11
-151.9069258397999
 21
97.538452572800011
 31
0.0
  0
LINE
  5
50F
  8
LAYER1$C$L1
 62
     3
 10
-143.91665649410001
 20
110.5976867676
 30
0.0
 11
-104.9460449219
 21
110.5976867676
 31
0.0
  0
TEXT
  5
513
  8
LAYER8$C$L8
 62
     3
 10
-143.93980881999991
 20
111.1540069579999
 30
0.0
 40
2.5
  1
TERMINAL SCREW M3.5
 41
0.8481482521622217
 72
     5
 11
-105.7731374727
 21
111.1540069579999
 31
0.0
  0
LINE
  5
514
  8
LAYER1$C$L1
 62
     3
 10
-111.0
 20
162.5
 30
0.0
 11
-111.0
 21
171.2999877929999
 31
0.0
  0
LINE
  5
515
  8
LAYER1$C$L1
 62
     3
 10
-112.9999694824
 20
163.49998474119991
 30
0.0
 11
-112.9999694824
 21
171.2999877929999
 31
0.0
  0
LINE
  5
516
  8
LAYER1$C$L1
 62
     3
 10
-112.9999694824
 20
169.7999877929999
 30
0.0
 11
-111.0
 21
169.7999877929999
 31
0.0
  0
LINE
  5
518
  8
LAYER1$C$L1
 62
     3
 10
-110.9707031249999
 20
102.94900512700001
 30
0.0
 11
-80.070709228500007
 21
102.94900512700001
 31
0.0
  0
TEXT
  5
52F
  8
LAYER8$C$L8
 62
     3
 10
-40.586822509800001
 20
143.39054870609999
 30
0.0
 40
2.5
  1

 72
     5
 11
-40.586822509800001
 21
143.39054870609999
 31
0.0
  0
TEXT
  5
531
  8
LAYER8$C$L8
 62
     3
 10
-40.586822509800001
 20
143.39054870609999
 30
0.0
 40
2.5
  1

 72
     5
 11
-40.586822509800001
 21
143.39054870609999
 31
0.0
  0
INSERT
  5
543
  8
LAYER8$C$L8
 62
     3
 66
     1
  2
CADRA_ATTR_0
 10
0.0
 20
0.0
 30
0.0
  0
ATTRIB
  5
544
  8
LAYER8$C$L8
 62
     3
 10
-40.999992999999989
 20
15.0
 30
0.0
 40
0.156
  1
ç?^HV  é
  2
20
 70
    11
  0
SEQEND
  5
545
  8
LAYER8$C$L8
 62
     3
  0
INSERT
  5
6F0
  8
0
  2
*U32
 10
0.0
 20
0.0
 30
0.0
  0
ENDSEC
  0
EOF
