  0
SECTION
  2
HEADER
  9
$ACADVER
  1
AC1009
  9
$INSBASE
 10
0.0
 20
0.0
 30
0.0
  9
$EXTMIN
 10
-172.66117858889999
 20
47.87499773807243
 30
0.0
  9
$EXTMAX
 10
26.428963549942189
 20
210.8971023416606
 30
0.0
  9
$LIMMIN
 10
-215.17524414059989
 20
-3.1749999999999989
  9
$LIMMAX
 10
3.1749999999999989
 20
300.17500000000001
  9
$ORTHOMODE
 70
     1
  9
$REGENMODE
 70
     1
  9
$FILLMODE
 70
     1
  9
$QTEXTMODE
 70
     0
  9
$MIRRTEXT
 70
     0
  9
$DRAGMODE
 70
     2
  9
$LTSCALE
 40
1.0
  9
$OSMODE
 70
    39
  9
$ATTMODE
 70
     1
  9
$TEXTSIZE
 40
3.0
  9
$TRACEWID
 40
0.05
  9
$TEXTSTYLE
  7
STANDARD
  9
$CLAYER
  8
0
  9
$CELTYPE
  6
BYLAYER
  9
$CECOLOR
 62
   256
  9
$DIMSCALE
 40
1.0
  9
$DIMASZ
 40
1.972787845999999
  9
$DIMEXO
 40
2.5399999618999991
  9
$DIMDLI
 40
0.38
  9
$DIMRND
 40
0.0
  9
$DIMDLE
 40
0.0
  9
$DIMEXE
 40
3.8099999427999989
  9
$DIMTP
 40
0.0
  9
$DIMTM
 40
0.0
  9
$DIMTXT
 40
2.9999940394999989
  9
$DIMCEN
 40
0.09
  9
$DIMTSZ
 40
0.0
  9
$DIMTOL
 70
     0
  9
$DIMLIM
 70
     0
  9
$DIMTIH
 70
     0
  9
$DIMTOH
 70
     1
  9
$DIMSE1
 70
     0
  9
$DIMSE2
 70
     0
  9
$DIMTAD
 70
     0
  9
$DIMZIN
 70
     0
  9
$DIMBLK
  1

  9
$DIMASO
 70
     1
  9
$DIMSHO
 70
     0
  9
$DIMPOST
  1

  9
$DIMAPOST
  1

  9
$DIMALT
 70
     0
  9
$DIMALTD
 70
     2
  9
$DIMALTF
 40
25.399999999999999
  9
$DIMLFAC
 40
1.0
  9
$DIMTOFL
 70
     0
  9
$DIMTVP
 40
0.0
  9
$DIMTIX
 70
     0
  9
$DIMSOXD
 70
     0
  9
$DIMSAH
 70
     0
  9
$DIMBLK1
  1

  9
$DIMBLK2
  1

  9
$DIMSTYLE
  2
STANDARD
  9
$DIMCLRD
 70
     0
  9
$DIMCLRE
 70
     0
  9
$DIMCLRT
 70
     0
  9
$DIMTFAC
 40
1.0
  9
$DIMGAP
 40
0.09
  9
$LUNITS
 70
     2
  9
$LUPREC
 70
     3
  9
$SKETCHINC
 40
0.1
  9
$FILLETRAD
 40
0.0625
  9
$AUNITS
 70
     0
  9
$AUPREC
 70
     0
  9
$MENU
  1
ACAD
  9
$ELEVATION
 40
0.0
  9
$PELEVATION
 40
0.0
  9
$THICKNESS
 40
0.0
  9
$LIMCHECK
 70
     0
  9
$BLIPMODE
 70
     0
  9
$CHAMFERA
 40
0.0
  9
$CHAMFERB
 40
0.0
  9
$SKPOLY
 70
     0
  9
$TDCREATE
 40
2452011.3829513891
  9
$TDUPDATE
 40
2452374.7960718288
  9
$TDINDWG
 40
0.0581665162
  9
$TDUSRTIMER
 40
0.058166169
  9
$USRTIMER
 70
     1
  9
$ANGBASE
 50
0.0
  9
$ANGDIR
 70
     0
  9
$PDMODE
 70
     0
  9
$PDSIZE
 40
0.0
  9
$PLINEWID
 40
0.0
  9
$COORDS
 70
     1
  9
$SPLFRAME
 70
     0
  9
$SPLINETYPE
 70
     6
  9
$SPLINESEGS
 70
     8
  9
$ATTDIA
 70
     0
  9
$ATTREQ
 70
     1
  9
$HANDLING
 70
  4097
  9
$HANDSEED
  5
8E6
  9
$SURFTAB1
 70
     6
  9
$SURFTAB2
 70
     6
  9
$SURFTYPE
 70
     6
  9
$SURFU
 70
     6
  9
$SURFV
 70
     6
  9
$UCSNAME
  2

  9
$UCSORG
 10
0.0
 20
0.0
 30
0.0
  9
$UCSXDIR
 10
1.0
 20
0.0
 30
0.0
  9
$UCSYDIR
 10
0.0
 20
1.0
 30
0.0
  9
$PUCSNAME
  2

  9
$PUCSORG
 10
0.0
 20
0.0
 30
0.0
  9
$PUCSXDIR
 10
1.0
 20
0.0
 30
0.0
  9
$PUCSYDIR
 10
0.0
 20
1.0
 30
0.0
  9
$USERI1
 70
     0
  9
$USERI2
 70
     0
  9
$USERI3
 70
     0
  9
$USERI4
 70
     0
  9
$USERI5
 70
     0
  9
$USERR1
 40
0.0
  9
$USERR2
 40
0.0
  9
$USERR3
 40
0.0
  9
$USERR4
 40
0.0
  9
$USERR5
 40
0.0
  9
$WORLDVIEW
 70
     1
  9
$SHADEDGE
 70
     3
  9
$SHADEDIF
 70
    70
  9
$TILEMODE
 70
     1
  9
$MAXACTVP
 70
    64
  9
$PLIMCHECK
 70
     0
  9
$PEXTMIN
 10
1.0000000000000000E+020
 20
1.0000000000000000E+020
 30
1.0000000000000000E+020
  9
$PEXTMAX
 10
-1.0000000000000000E+020
 20
-1.0000000000000000E+020
 30
-1.0000000000000000E+020
  9
$PLIMMIN
 10
0.0
 20
0.0
  9
$PLIMMAX
 10
12.0
 20
9.0
  9
$UNITMODE
 70
     0
  9
$VISRETAIN
 70
     1
  9
$PLINEGEN
 70
     0
  9
$PSLTSCALE
 70
     1
  0
ENDSEC
  0
SECTION
  2
TABLES
  0
TABLE
  2
VPORT
 70
     2
  0
VPORT
  2
*ACTIVE
 70
     0
 10
0.0
 20
0.0
 11
1.0
 21
1.0
 12
-86.773979293418904
 22
111.6149927071356
 13
0.0
 23
0.0
 14
1.0
 24
1.0
 15
0.0
 25
0.0
 16
0.0
 26
0.0
 36
1.0
 17
0.0
 27
0.0
 37
0.0
 40
238.6968906028836
 41
1.565365025466892
 42
50.0
 43
0.0
 44
0.0
 50
0.0
 51
0.0
 71
     0
 72
   100
 73
     1
 74
     1
 75
     0
 76
     0
 77
     0
 78
     0
  0
ENDTAB
  0
TABLE
  2
LTYPE
 70
     7
  0
LTYPE
  2
CONTINUOUS
 70
     0
  3
Solid line
 72
    65
 73
     0
 40
0.0
  0
LTYPE
  2
SOLID
 70
     0
  3
Solid
 72
    65
 73
     0
 40
0.0
  0
LTYPE
  2
CONSTRUCTION
 70
     0
  3
Construction
 72
    65
 73
     2
 40
1.016
 49
0.254
 49
-0.762
  0
LTYPE
  2
GAP
 70
     0
  3
Gap
 72
    65
 73
     3
 40
2540.9999980092002
 49
0.0
 49
-0.9999980092000002
 49
2540.0
  0
LTYPE
  2
DASH
 70
     0
  3
Dash
 72
    65
 73
     2
 40
2.0
 49
1.0
 49
-1.0
  0
LTYPE
  2
CENTER
 70
     0
  3
Center
 72
    65
 73
     4
 40
9.1000000237999998
 49
6.5
 49
-0.8000000119
 49
1.0
 49
-0.8000000119
  0
LTYPE
  2
PHANTOM
 70
     0
  3
Phantom
 72
    65
 73
     6
 40
9.5000001191999992
 49
4.8000001906999987
 49
-0.8999999761999999
 49
1.0
 49
-0.8999999761999999
 49
1.0
 49
-0.8999999761999999
  0
ENDTAB
  0
TABLE
  2
LAYER
 70
     7
  0
LAYER
  2
0
 70
     0
 62
     7
  6
CONTINUOUS
  0
LAYER
  2
LAYER1$C$L1
 70
     0
 62
     3
  6
SOLID
  0
LAYER
  2
LAYER6$C$L6
 70
     0
 62
    31
  6
SOLID
  0
LAYER
  2
LAYER8$C$L8
 70
     0
 62
     7
  6
SOLID
  0
LAYER
  2
LAYER9$C$L9
 70
     0
 62
     2
  6
SOLID
  0
LAYER
  2
DEFPOINTS
 70
     0
 62
     7
  6
CONTINUOUS
  0
LAYER
  2
DIMENSIONS
 70
     0
 62
     5
  6
CONTINUOUS
  0
ENDTAB
  0
TABLE
  2
STYLE
 70
     1
  0
STYLE
  2
STANDARD
 70
     0
 40
0.0
 41
1.0
 50
0.0
 71
     0
 42
3.0
  3
txt
  4

  0
ENDTAB
  0
TABLE
  2
VIEW
 70
     0
  0
ENDTAB
  0
TABLE
  2
UCS
 70
     0
  0
ENDTAB
  0
TABLE
  2
APPID
 70
     1
  0
APPID
  2
ACAD
 70
     0
  0
ENDTAB
  0
TABLE
  2
DIMSTYLE
 70
     1
  0
DIMSTYLE
  2
STANDARD
 70
     0
  3

  4

  5

  6

  7

 40
1.0
 41
0.18
 42
0.0625
 43
0.38
 44
0.18
 45
0.0
 46
0.0
 47
0.0
 48
0.0
140
0.18
141
0.09
142
0.0
143
25.399999999999999
144
1.0
145
0.0
146
1.0
147
0.09
 71
     0
 72
     0
 73
     1
 74
     1
 75
     0
 76
     0
 77
     0
 78
     0
170
     0
171
     2
172
     0
173
     0
174
     0
175
     0
176
     0
177
     0
178
     0
  0
ENDTAB
  0
ENDSEC
  0
SECTION
  2
BLOCKS
  0
BLOCK
  8
0
  2
$MODEL_SPACE
 70
     0
 10
0.0
 20
0.0
 30
0.0
  3
$MODEL_SPACE
  1

  0
ENDBLK
  5
20
  8
0
  0
BLOCK
 67
     1
  8
0
  2
$PAPER_SPACE
 70
     0
 10
0.0
 20
0.0
 30
0.0
  3
$PAPER_SPACE
  1

  0
ENDBLK
  5
1C
 67
     1
  8
0
  0
BLOCK
  8
LAYER8$C$L8
  2
CADRA_ATTR_0
 70
     2
 10
0.0
 20
0.0
 30
0.0
  3
CADRA_ATTR_0
  1

  0
TEXT
  5
102
  8
LAYER8$C$L8
 62
     3
 10
-168.8046972471999
 20
4.5
 30
0.0
 40
2.0
  1
ÇsÇvÅ|ÇgÇv
 41
0.5930584444346927
 72
     5
 11
-159.1180759881
 21
4.5
 31
0.0
  0
ATTDEF
  5
103
  8
LAYER8$C$L8
 62
     3
 10
-163.96138799999991
 20
5.5
 30
0.0
 40
0.156
  1
ç%fé
  3

  2
50
 70
    11
  0
ENDBLK
  5
104
  8
LAYER8$C$L8
  0
BLOCK
  8
LAYER8$C$L8
  2
CADRA_ATTR_1
 70
     2
 10
0.0
 20
0.0
 30
0.0
  3
CADRA_ATTR_1
  1

  0
TEXT
  5
107
  8
LAYER8$C$L8
 62
     3
 10
-103.58424993440001
 20
283.91641426090001
 30
0.0
 40
4.1671714783000002
  1
ÇsÇvÉVÉä-ÉY âüÉ{ÉCìÉXÉCÉbÉ`
 41
0.5316731843318149
 72
     5
 11
-50.779752247399998
 21
283.91641426090001
 31
0.0
  0
ATTDEF
  5
108
  8
LAYER8$C$L8
 62
     3
 10
-77.182001
 20
286.0
 30
0.0
 40
0.156
  1
çéE
  3

  2
0
 70
    11
  0
ENDBLK
  5
109
  8
LAYER8$C$L8
  0
BLOCK
  8
LAYER8$C$L8
  2
CADRA_ATTR_2
 70
     2
 10
0.0
 20
0.0
 30
0.0
  3
CADRA_ATTR_2
  1

  0
TEXT
  5
10C
  8
LAYER8$C$L8
 62
     3
 10
-99.676656343100007
 20
275.91641426090001
 30
0.0
 40
4.1671714783000002
  1
Ç`ÇjÇvÇQ
 41
0.607760473424993
 72
     5
 11
-83.636589643299985
 21
275.91641426090001
 31
0.0
  0
ATTDEF
  5
10D
  8
LAYER8$C$L8
 62
     3
 10
-91.656623999999994
 20
278.0
 30
0.0
 40
0.156
  1
çL>éK
  3

  2
10
 70
    11
  0
ENDBLK
  5
10E
  8
LAYER8$C$L8
  0
BLOCK
  8
LAYER8$C$L8
  2
CADRA_ATTR_3
 70
     2
 10
0.0
 20
0.0
 30
0.0
  3
CADRA_ATTR_3
  1

  0
TEXT
  5
111
  8
LAYER8$C$L8
 62
     3
 10
-66.511744086299998
 20
16.0
 30
0.0
 40
5.0
  1
ÇlÇ`ÇSÅ|Ç`ÇOÇOÇQÇPÇVÇb
 41
0.6004599284588887
 72
     5
 11
-12.470350525000001
 21
16.0
 31
0.0
  0
ATTDEF
  5
112
  8
LAYER8$C$L8
 62
     3
 10
-39.491045999999997
 20
18.5
 30
0.0
 40
0.156
  1
  
  3

  2
20
 70
    11
  0
ENDBLK
  5
113
  8
LAYER8$C$L8
  0
BLOCK
  8
LAYER8$C$L8
  2
CADRA_ATTR_4
 70
     2
 10
0.0
 20
0.0
 30
0.0
  3
CADRA_ATTR_4
  1

  0
TEXT
  5
116
  8
LAYER8$C$L8
 62
     3
 10
-66.173770592799997
 20
3.4200000763
 30
0.0
 40
4.1599998473999991
  1
*
 41
1.2999984847186921
 72
     5
 11
-62.568441594100001
 21
3.4200000763
 31
0.0
  0
ATTDEF
  5
117
  8
LAYER8$C$L8
 62
     3
 10
-64.371105
 20
5.5
 30
0.0
 40
0.156
  1
çéL
  3

  2
110
 70
    11
  0
ENDBLK
  5
118
  8
LAYER8$C$L8
  0
BLOCK
  8
LAYER8$C$L8
  2
CADRA_ATTR_5
 70
     2
 10
0.0
 20
0.0
 30
0.0
  3
CADRA_ATTR_5
  1

  0
TEXT
  5
11B
  8
LAYER8$C$L8
 62
     3
 10
-176.80469724720001
 20
4.5
 30
0.0
 40
2.0
  1
Ç`
 41
0.866665459700016
 72
     5
 11
-175.07136632779989
 21
4.5
 31
0.0
  0
ATTDEF
  5
11C
  8
LAYER8$C$L8
 62
     3
 10
-175.93803399999999
 20
5.5
 30
0.0
 40
0.156
  1
ç%0é
  3

  2
40
 70
    11
  0
ENDBLK
  5
11D
  8
LAYER8$C$L8
  0
BLOCK
  8
0
  2
*D25
 70
     1
 10
0.0
 20
0.0
 30
0.0
  3
*D25
  1

  0
LINE
  5
7D4
  8
DIMENSIONS
 62
     0
 10
-33.015664385501978
 20
74.460000038100006
 30
0.0
 11
-33.015664385501978
 21
47.87499773807243
 31
0.0
  0
LINE
  5
7D5
  8
DIMENSIONS
 62
     0
 10
-3.4156735407019698
 20
74.460000038100006
 30
0.0
 11
-3.415673540701972
 21
47.87499773807243
 31
0.0
  0
LINE
  5
7D6
  8
DIMENSIONS
 62
     0
 10
-31.042876539501979
 20
51.684997680872442
 30
0.0
 11
-22.805660022351969
 21
51.684997680872442
 31
0.0
  0
LINE
  5
7D7
  8
DIMENSIONS
 62
     0
 10
-5.3884613867019713
 20
51.684997680872442
 30
0.0
 11
-13.625677903851971
 21
51.684997680872442
 31
0.0
  0
SOLID
  5
7D8
  8
DIMENSIONS
 62
     0
 10
-31.042876539501979
 20
52.013795655205783
 30
0.0
 11
-31.042876539501979
 21
51.356199706539108
 31
0.0
 12
-33.015664385501978
 22
51.684997680872442
 32
0.0
 13
-33.015664385501978
 23
51.684997680872442
 33
0.0
  0
SOLID
  5
7D9
  8
DIMENSIONS
 62
     0
 10
-5.3884613867019713
 20
52.013795655205783
 30
0.0
 11
-5.3884613867019713
 21
51.356199706539108
 31
0.0
 12
-3.4156735407019712
 22
51.684997680872442
 32
0.0
 13
-3.4156735407019712
 23
51.684997680872442
 33
0.0
  0
TEXT
  5
7DA
  8
0
 62
     0
 10
-22.715660022351969
 20
50.185000661122437
 30
0.0
 40
2.9999940394999989
  1
29.6
  0
POINT
  5
7DB
  8
DEFPOINTS
 62
     0
 10
-33.015664385501978
 20
77.0
 30
0.0
  0
POINT
  5
7DC
  8
DEFPOINTS
 62
     0
 10
-3.4156735407019698
 20
77.0
 30
0.0
  0
POINT
  5
7DD
  8
DEFPOINTS
 62
     0
 10
-3.4156735407019712
 20
51.684997680872442
 30
0.0
  0
ENDBLK
  5
13A
  8
0
  0
BLOCK
  8
0
  2
*D28
 70
     1
 10
0.0
 20
0.0
 30
0.0
  3
*D28
  1

  0
LINE
  5
7B6
  8
DIMENSIONS
 62
     0
 10
-118.0
 20
152.96000003809991
 30
0.0
 11
-118.0
 21
133.06243324144251
 31
0.0
  0
LINE
  5
7B7
  8
DIMENSIONS
 62
     0
 10
-166.5
 20
151.75994205469999
 30
0.0
 11
-166.5
 21
133.06243324144251
 31
0.0
  0
LINE
  5
7B8
  8
DIMENSIONS
 62
     0
 10
-119.972787846
 20
136.87243318424251
 30
0.0
 11
-136.83801713566609
 21
136.87243318424251
 31
0.0
  0
LINE
  5
7B9
  8
DIMENSIONS
 62
     0
 10
-164.52721215400001
 20
136.87243318424251
 30
0.0
 11
-146.01799925416611
 21
136.87243318424251
 31
0.0
  0
SOLID
  5
7BA
  8
DIMENSIONS
 62
     0
 10
-119.972787846
 20
137.20123115857581
 30
0.0
 11
-119.972787846
 21
136.54363520990921
 31
0.0
 12
-118.0
 22
136.87243318424251
 32
0.0
 13
-118.0
 23
136.87243318424251
 33
0.0
  0
SOLID
  5
7BB
  8
DIMENSIONS
 62
     0
 10
-164.52721215400001
 20
137.20123115857581
 30
0.0
 11
-164.52721215400001
 21
136.54363520990921
 31
0.0
 12
-166.5
 22
136.87243318424251
 32
0.0
 13
-166.5
 23
136.87243318424251
 33
0.0
  0
TEXT
  5
7BC
  8
0
 62
     0
 10
-145.92799925416611
 20
135.37243616449251
 30
0.0
 40
2.9999940394999989
  1
48.5
  0
POINT
  5
7BD
  8
DEFPOINTS
 62
     0
 10
-118.0
 20
155.49999999999989
 30
0.0
  0
POINT
  5
7BE
  8
DEFPOINTS
 62
     0
 10
-166.5
 20
154.29994201659991
 30
0.0
  0
POINT
  5
7BF
  8
DEFPOINTS
 62
     0
 10
-166.5
 20
136.87243318424251
 30
0.0
  0
ENDBLK
  5
299
  8
0
  0
BLOCK
  8
0
  2
*D34
 70
     1
 10
0.0
 20
0.0
 30
0.0
  3
*D34
  1

  0
LINE
  5
798
  8
DIMENSIONS
 62
     0
 10
-109.96000070149999
 20
183.49987900149989
 30
0.0
 11
-48.379264501051551
 21
183.49987900149989
 31
0.0
  0
LINE
  5
799
  8
DIMENSIONS
 62
     0
 10
-109.9600078735
 20
154.4999033867
 30
0.0
 11
-48.379264501051559
 21
154.49990338669991
 31
0.0
  0
LINE
  5
79A
  8
DIMENSIONS
 62
     0
 10
-52.189264443851549
 20
181.5270911554999
 30
0.0
 11
-52.189264443851549
 21
177.7408384991673
 31
0.0
  0
LINE
  5
79B
  8
DIMENSIONS
 62
     0
 10
-52.189264443851549
 20
156.4726912326999
 30
0.0
 11
-52.189264443851549
 21
160.06087326875061
 31
0.0
  0
SOLID
  5
79C
  8
DIMENSIONS
 62
     0
 10
-52.518062418184883
 20
181.5270911554999
 30
0.0
 11
-51.860466469518222
 21
181.5270911554999
 31
0.0
 12
-52.189264443851549
 22
183.49987900149989
 32
0.0
 13
-52.189264443851549
 23
183.49987900149989
 33
0.0
  0
SOLID
  5
79D
  8
DIMENSIONS
 62
     0
 10
-52.518062418184883
 20
156.4726912326999
 30
0.0
 11
-51.860466469518222
 21
156.4726912326999
 31
0.0
 12
-52.189264443851549
 22
154.49990338669991
 32
0.0
 13
-52.189264443851549
 23
154.49990338669991
 33
0.0
  0
INSERT
  5
79E
  8
0
  2
*U42
 10
0.0
 20
0.0
 30
0.0
  0
POINT
  5
79F
  8
DEFPOINTS
 62
     0
 10
-112.5000006634
 20
183.49987900149989
 30
0.0
  0
POINT
  5
7A0
  8
DEFPOINTS
 62
     0
 10
-112.5000078354
 20
154.4999033867
 30
0.0
  0
POINT
  5
7A1
  8
DEFPOINTS
 62
     0
 10
-52.189264443851549
 20
154.49990338669991
 30
0.0
  0
ENDBLK
  5
42C
  8
0
  0
BLOCK
  8
0
  2
*D35
 70
     1
 10
0.0
 20
0.0
 30
0.0
  3
*D35
  1

  0
LINE
  5
7CA
  8
DIMENSIONS
 62
     0
 10
-98.459994256200005
 20
105.7995858044
 30
0.0
 11
-61.767020399387988
 21
105.7995858043999
 31
0.0
  0
LINE
  5
7CB
  8
DIMENSIONS
 62
     0
 10
-98.460053705800021
 20
82.199493692499999
 30
0.0
 11
-61.767020399387988
 21
82.199493692499985
 31
0.0
  0
LINE
  5
7CC
  8
DIMENSIONS
 62
     0
 10
-65.577020342187978
 20
103.82679795839989
 30
0.0
 11
-65.577020342187978
 21
103.0714297711891
 31
0.0
  0
LINE
  5
7CD
  8
DIMENSIONS
 62
     0
 10
-65.577020342187993
 20
84.172281538499988
 30
0.0
 11
-65.577020342187993
 21
84.891465534189194
 31
0.0
  0
SOLID
  5
7CE
  8
DIMENSIONS
 62
     0
 10
-65.905818316521305
 20
103.82679795839989
 30
0.0
 11
-65.248222367854652
 21
103.82679795839989
 31
0.0
 12
-65.577020342187978
 22
105.7995858043999
 32
0.0
 13
-65.577020342187978
 23
105.7995858043999
 33
0.0
  0
SOLID
  5
7CF
  8
DIMENSIONS
 62
     0
 10
-65.905818316521319
 20
84.172281538499988
 30
0.0
 11
-65.248222367854666
 21
84.172281538499988
 31
0.0
 12
-65.577020342187993
 22
82.199493692499985
 32
0.0
 13
-65.577020342187993
 23
82.199493692499985
 33
0.0
  0
INSERT
  5
7D0
  8
0
  2
*U43
 10
0.0
 20
0.0
 30
0.0
  0
POINT
  5
7D1
  8
DEFPOINTS
 62
     0
 10
-100.9999942180999
 20
105.7995858044
 30
0.0
  0
POINT
  5
7D2
  8
DEFPOINTS
 62
     0
 10
-101.0000536676999
 20
82.199493692499999
 30
0.0
  0
POINT
  5
7D3
  8
DEFPOINTS
 62
     0
 10
-65.577020342187993
 20
82.199493692499985
 30
0.0
  0
ENDBLK
  5
438
  8
0
  0
BLOCK
  8
0
  2
*D36
 70
     1
 10
0.0
 20
0.0
 30
0.0
  3
*D36
  1

  0
LINE
  5
7C0
  8
DIMENSIONS
 62
     0
 10
-118.00001525879991
 20
77.960025355400006
 30
0.0
 11
-118.00001525879991
 21
64.690000057199995
 31
0.0
  0
LINE
  5
7C1
  8
DIMENSIONS
 62
     0
 10
-71.0
 20
91.460015296899996
 30
0.0
 11
-71.0
 21
64.690000057199995
 31
0.0
  0
LINE
  5
7C2
  8
DIMENSIONS
 62
     0
 10
-116.0272274127999
 20
68.5
 30
0.0
 11
-101.8399932248583
 21
68.5
 31
0.0
  0
LINE
  5
7C3
  8
DIMENSIONS
 62
     0
 10
-72.972787846000003
 20
68.5
 30
0.0
 11
-87.160022033941658
 21
68.5
 31
0.0
  0
SOLID
  5
7C4
  8
DIMENSIONS
 62
     0
 10
-116.0272274127999
 20
68.828797974333327
 30
0.0
 11
-116.0272274127999
 21
68.171202025666673
 31
0.0
 12
-118.00001525879991
 22
68.5
 32
0.0
 13
-118.00001525879991
 23
68.5
 33
0.0
  0
SOLID
  5
7C5
  8
DIMENSIONS
 62
     0
 10
-72.972787846000003
 20
68.828797974333327
 30
0.0
 11
-72.972787846000003
 21
68.171202025666673
 31
0.0
 12
-71.0
 22
68.5
 32
0.0
 13
-71.0
 23
68.5
 33
0.0
  0
TEXT
  5
7C6
  8
0
 62
     0
 10
-101.7499932248583
 20
67.000002980250002
 30
0.0
 40
2.9999940394999989
  1
47.047
  0
POINT
  5
7C7
  8
DEFPOINTS
 62
     0
 10
-118.00001525879991
 20
80.500025317299986
 30
0.0
  0
POINT
  5
7C8
  8
DEFPOINTS
 62
     0
 10
-71.0
 20
94.000015258799976
 30
0.0
  0
POINT
  5
7C9
  8
DEFPOINTS
 62
     0
 10
-71.0
 20
68.5
 30
0.0
  0
ENDBLK
  5
444
  8
0
  0
BLOCK
  8
0
  2
*D37
 70
     1
 10
0.0
 20
0.0
 30
0.0
  3
*D37
  1

  0
LINE
  5
7AC
  8
DIMENSIONS
 62
     0
 10
-118.0
 20
152.96000003809991
 30
0.0
 11
-118.0
 21
133.06243324144251
 31
0.0
  0
LINE
  5
7AD
  8
DIMENSIONS
 62
     0
 10
-93.499999999999986
 20
155.8052301406
 30
0.0
 11
-93.499999999999986
 21
133.06243324144251
 31
0.0
  0
LINE
  5
7AE
  8
DIMENSIONS
 62
     0
 10
-116.027212154
 20
136.87243318424251
 30
0.0
 11
-110.9599214627451
 21
136.87243318424251
 31
0.0
  0
LINE
  5
7AF
  8
DIMENSIONS
 62
     0
 10
-95.472787846000017
 20
136.87243318424251
 30
0.0
 11
-101.77993934424509
 21
136.87243318424251
 31
0.0
  0
SOLID
  5
7B0
  8
DIMENSIONS
 62
     0
 10
-116.027212154
 20
137.20123115857581
 30
0.0
 11
-116.027212154
 21
136.54363520990921
 31
0.0
 12
-118.0
 22
136.87243318424251
 32
0.0
 13
-118.0
 23
136.87243318424251
 33
0.0
  0
SOLID
  5
7B1
  8
DIMENSIONS
 62
     0
 10
-95.472787846000017
 20
137.20123115857581
 30
0.0
 11
-95.472787846000017
 21
136.54363520990921
 31
0.0
 12
-93.499999999999986
 22
136.87243318424251
 32
0.0
 13
-93.499999999999986
 23
136.87243318424251
 33
0.0
  0
TEXT
  5
7B2
  8
0
 62
     0
 10
-110.8699214627451
 20
135.37243616449251
 30
0.0
 40
2.9999940394999989
  1
24.5
  0
POINT
  5
7B3
  8
DEFPOINTS
 62
     0
 10
-118.0
 20
155.49999999999989
 30
0.0
  0
POINT
  5
7B4
  8
DEFPOINTS
 62
     0
 10
-93.499999999999986
 20
158.34523010250001
 30
0.0
  0
POINT
  5
7B5
  8
DEFPOINTS
 62
     0
 10
-93.499999999999986
 20
136.87243318424251
 30
0.0
  0
ENDBLK
  5
450
  8
0
  0
BLOCK
  8
0
  2
*D38
 70
     1
 10
0.0
 20
0.0
 30
0.0
  3
*D38
  1

  0
LINE
  5
7A2
  8
DIMENSIONS
 62
     0
 10
-118.0
 20
152.96000003809991
 30
0.0
 11
-118.0
 21
140.29917074264191
 31
0.0
  0
LINE
  5
7A3
  8
DIMENSIONS
 62
     0
 10
-105.0
 20
152.7600030898999
 30
0.0
 11
-105.0
 21
140.29917074264191
 31
0.0
  0
LINE
  5
7A4
  8
DIMENSIONS
 62
     0
 10
-116.027212154
 20
144.10917068544191
 30
0.0
 11
-106.9727878459999
 21
144.10917068544191
 31
0.0
  0
LINE
  5
7A5
  8
DIMENSIONS
 62
     0
 10
-105.0
 20
144.10917068544191
 30
0.0
 11
-83.639805230809444
 21
144.10917068544191
 31
0.0
  0
SOLID
  5
7A6
  8
DIMENSIONS
 62
     0
 10
-116.027212154
 20
144.43796865977521
 30
0.0
 11
-116.027212154
 21
143.78037271110861
 31
0.0
 12
-118.0
 22
144.10917068544191
 32
0.0
 13
-118.0
 23
144.10917068544191
 33
0.0
  0
SOLID
  5
7A7
  8
DIMENSIONS
 62
     0
 10
-106.9727878459999
 20
144.43796865977521
 30
0.0
 11
-106.9727878459999
 21
143.78037271110861
 31
0.0
 12
-105.0
 22
144.10917068544191
 32
0.0
 13
-105.0
 23
144.10917068544191
 33
0.0
  0
TEXT
  5
7A8
  8
0
 62
     0
 10
-83.549805230809454
 20
142.60917366569191
 30
0.0
 40
2.9999940394999989
  1
13.013
  0
POINT
  5
7A9
  8
DEFPOINTS
 62
     0
 10
-118.0
 20
155.49999999999989
 30
0.0
  0
POINT
  5
7AA
  8
DEFPOINTS
 62
     0
 10
-105.0
 20
155.30000305179991
 30
0.0
  0
POINT
  5
7AB
  8
DEFPOINTS
 62
     0
 10
-105.0
 20
144.10917068544191
 30
0.0
  0
ENDBLK
  5
45C
  8
0
  0
BLOCK
  8
0
  2
*D39
 70
     1
 10
0.0
 20
0.0
 30
0.0
  3
*D39
  1

  0
LINE
  5
7E8
  8
DIMENSIONS
 62
     0
 10
-10.375673578801971
 20
112.4999542235999
 30
0.0
 11
26.428963549942189
 21
112.4999542235999
 31
0.0
  0
LINE
  5
7E9
  8
DIMENSIONS
 62
     0
 10
-10.375673578801971
 20
75.499969482400004
 30
0.0
 11
26.428963549942178
 21
75.499969482400004
 31
0.0
  0
LINE
  5
7EA
  8
DIMENSIONS
 62
     0
 10
22.618963607142192
 20
110.5271663776
 30
0.0
 11
22.618963607142192
 21
101.3399474484583
 31
0.0
  0
LINE
  5
7EB
  8
DIMENSIONS
 62
     0
 10
22.618963607142192
 20
77.472757328400007
 30
0.0
 11
22.618963607142192
 21
86.659976257541672
 31
0.0
  0
SOLID
  5
7EC
  8
DIMENSIONS
 62
     0
 10
22.290165632808861
 20
110.5271663776
 30
0.0
 11
22.947761581475518
 21
110.5271663776
 31
0.0
 12
22.618963607142192
 22
112.4999542235999
 32
0.0
 13
22.618963607142192
 23
112.4999542235999
 33
0.0
  0
SOLID
  5
7ED
  8
DIMENSIONS
 62
     0
 10
22.290165632808851
 20
77.472757328400007
 30
0.0
 11
22.947761581475518
 21
77.472757328400007
 31
0.0
 12
22.618963607142192
 22
75.499969482400004
 32
0.0
 13
22.618963607142192
 23
75.499969482400004
 33
0.0
  0
TEXT
  5
7EE
  8
0
 62
     0
 10
24.118960626892171
 20
86.749976257541675
 30
0.0
 40
2.9999940394999989
  1
37.037
 50
90.0
  0
POINT
  5
7EF
  8
DEFPOINTS
 62
     0
 10
-12.91567354070197
 20
112.4999542235999
 30
0.0
  0
POINT
  5
7F0
  8
DEFPOINTS
 62
     0
 10
-12.91567354070197
 20
75.499969482400004
 30
0.0
  0
POINT
  5
7F1
  8
DEFPOINTS
 62
     0
 10
22.618963607142192
 20
75.499969482400004
 30
0.0
  0
ENDBLK
  5
468
  8
0
  0
BLOCK
  8
0
  2
*U42
 70
     1
 10
0.0
 20
0.0
 30
0.0
  3
*U42
  1

  0
TEXT
  5
8D6
  8
0
 62
     0
 10
-50.689267424101587
 20
160.15087326875059
 30
0.0
 40
2.9999940394999989
  1
29.0
 50
90.0
  0
TEXT
  5
8D7
  8
0
 62
     0
 10
-50.689267424101587
 20
169.65085439383401
 30
0.0
 40
2.9999940394999989
  1
\U+2205
 50
90.0
  0
TEXT
  5
8D8
  8
0
 62
     0
 10
-50.689267424101587
 20
172.650848433334
 30
0.0
 40
2.9999940394999989
  1
29
 50
90.0
  0
ENDBLK
  5
8DA
  8
0
  0
BLOCK
  8
0
  2
*U43
 70
     1
 10
0.0
 20
0.0
 30
0.0
  3
*U43
  1

  0
TEXT
  5
8DC
  8
0
 62
     0
 10
-64.077023322437995
 20
84.981465534189184
 30
0.0
 40
2.9999940394999989
  1
23.6
 50
90.0
  0
TEXT
  5
8DD
  8
0
 62
     0
 10
-64.077023322437995
 20
94.981445665855844
 30
0.0
 40
2.9999940394999989
  1
\U+2205
 50
90.0
  0
TEXT
  5
8DE
  8
0
 62
     0
 10
-64.077023322437995
 20
97.981439705355854
 30
0.0
 40
2.9999940394999989
  1
24
 50
90.0
  0
ENDBLK
  5
8E0
  8
0
  0
BLOCK
  8
0
  2
*U44
 70
     1
 10
0.0
 20
0.0
 30
0.0
  3
*U44
  1

  0
TEXT
  5
8E2
  8
0
 10
-121.5796341411663
 20
207.8971023416606
 30
0.0
 40
3.0
  1
ASW2K10
  0
TEXT
  5
8E3
  8
0
 10
-121.5796341411663
 20
202.8971023416606
 30
0.0
 40
3.0
  1
(dimensions in mm)
  0
ENDBLK
  5
8E5
  8
0
  0
ENDSEC
  0
SECTION
  2
ENTITIES
  0
DIMENSION
  5
12F
  8
DIMENSIONS
  2
*D25
 10
-3.4156735407019712
 20
51.684997680872442
 30
0.0
 11
-18.215668963101969
 21
51.684997680872442
 31
0.0
 70
   129
 13
-33.015664385501978
 23
77.0
 33
0.0
 14
-3.4156735407019698
 24
77.0
 34
0.0
1001
ACAD
1000
DSTYLE
1002
{
1070
    41
1040
1.972787845999999
1070
    42
1040
2.5399999618999991
1070
    44
1040
3.8099999427999989
1070
    73
1070
     0
1070
   140
1040
2.9999940394999989
1070
   271
1070
     1
1070
   272
1070
     1
1002
}
  0
TEXT
  5
14F
  8
LAYER8$C$L8
 62
     3
 10
-162.45005798339989
 20
99.688151188099994
 30
0.0
 40
1.5
  1
UÇâ600V IÇîÇà10A
 50
270.0
 41
0.5474450447807225
 72
     5
 11
-162.45005798339989
 21
88.3286665089
 31
0.0
  0
ARC
  5
153
  8
LAYER1$C$L1
 62
     3
 10
-160.56423950199999
 20
103.12976074219991
 30
0.0
 40
0.1999999881
 50
264.80169761259992
 51
345.52905237530001
  0
ARC
  5
154
  8
LAYER1$C$L1
 62
     3
 10
-161.63345336910001
 20
103.6745605469
 30
0.0
 40
0.1999999881
 50
264.80186153709991
 51
345.52899773379988
  0
ARC
  5
155
  8
LAYER1$C$L1
 62
     3
 10
-157.22520446780001
 20
109.6829833983999
 30
0.0
 40
0.1999999881
 50
320.47098027290002
 51
41.198427243200051
  0
ARC
  5
156
  8
LAYER1$C$L1
 62
     3
 10
-158.29440307620001
 20
110.2277832030999
 30
0.0
 40
0.1999999881
 50
320.47103491450002
 51
41.1982633187
  0
ARC
  5
157
  8
LAYER1$C$L1
 62
     3
 10
-162.83760070799991
 20
105.7048339844
 30
0.0
 40
1.0
 50
170.57102448239999
 51
237.99996336509989
  0
ARC
  5
158
  8
LAYER1$C$L1
 62
     3
 10
-160.64472961429991
 20
110.0085449219
 30
0.0
 40
1.0
 50
67.999942697299986
 51
135.42893622150001
  0
ARC
  5
159
  8
LAYER1$C$L1
 62
     3
 10
-154.94567871090001
 20
104.3941650390999
 30
0.0
 40
9.0
 50
135.42904550450001
 51
170.57102448239999
  0
ARC
  5
15A
  8
LAYER1$C$L1
 62
     3
 10
-160.56423950199999
 20
84.8701171875
 30
0.0
 40
0.1999999881
 50
14.470910058599991
 51
95.198302387400005
  0
ARC
  5
15B
  8
LAYER1$C$L1
 62
     3
 10
-161.63345336910001
 20
84.325317382799994
 30
0.0
 40
0.1999999881
 50
14.470964700199991
 51
95.198138462900005
  0
ARC
  5
15C
  8
LAYER1$C$L1
 62
     3
 10
-157.22520446780001
 20
78.316894531299994
 30
0.0
 40
0.1999999881
 50
318.80156251149998
 51
39.5290197271
  0
ARC
  5
15D
  8
LAYER1$C$L1
 62
     3
 10
-158.29440307620001
 20
77.772094726600002
 30
0.0
 40
0.1999999881
 50
318.80172643599991
 51
39.52896508550004
  0
ARC
  5
15E
  8
LAYER1$C$L1
 62
     3
 10
-162.83760070799991
 20
82.295043945299994
 30
0.0
 40
1.0
 50
122.0000193321
 51
189.42901285630001
  0
ARC
  5
15F
  8
LAYER1$C$L1
 62
     3
 10
-160.64472961429991
 20
77.991333007799994
 30
0.0
 40
1.0
 50
224.57100913699989
 51
292.00005730269999
  0
ARC
  5
160
  8
LAYER1$C$L1
 62
     3
 10
-154.94567871090001
 20
83.605712890600003
 30
0.0
 40
9.0
 50
189.42903015909991
 51
224.57100913699989
  0
ARC
  5
161
  8
LAYER1$C$L1
 62
     3
 10
-165.26007080080001
 20
91.389770507800009
 30
0.0
 40
0.067499935627
 50
180.00003597220001
 51
270.00001798609998
  0
ARC
  5
162
  8
LAYER1$C$L1
 62
     3
 10
-164.1800689696999
 20
91.389770507800009
 30
0.0
 40
0.067499935627
 50
270.00001798609998
 51
0.0
  0
ARC
  5
163
  8
LAYER1$C$L1
 62
     3
 10
-164.99006652829991
 20
92.334838867200006
 30
0.0
 40
0.3374999762
 50
89.999927372399995
 51
179.9999640277999
  0
ARC
  5
164
  8
LAYER1$C$L1
 62
     3
 10
-164.4500579834
 20
92.334838867200006
 30
0.0
 40
0.3374999762
 50
0.0
 51
89.999927372399995
  0
ARC
  5
165
  8
LAYER1$C$L1
 62
     3
 10
-165.26007080080001
 20
92.919799804699991
 30
0.0
 40
0.067499935627
 50
180.00003597220001
 51
270.00001798609998
  0
ARC
  5
166
  8
LAYER1$C$L1
 62
     3
 10
-164.99006652829991
 20
93.954833984400011
 30
0.0
 40
0.3374999762
 50
89.999927372399995
 51
179.9999640277999
  0
ARC
  5
167
  8
LAYER1$C$L1
 62
     3
 10
-164.1800689696999
 20
92.919799804699991
 30
0.0
 40
0.067499935627
 50
270.00001798609998
 51
0.0
  0
ARC
  5
168
  8
LAYER1$C$L1
 62
     3
 10
-164.4500579834
 20
93.954833984400011
 30
0.0
 40
0.3374999762
 50
0.0
 51
89.999927372399995
  0
ARC
  5
169
  8
LAYER1$C$L1
 62
     3
 10
-165.26007080080001
 20
94.539794921900011
 30
0.0
 40
0.067499935627
 50
180.00003597220001
 51
270.00001798609998
  0
ARC
  5
16A
  8
LAYER1$C$L1
 62
     3
 10
-163.64006042479991
 20
94.539794921900011
 30
0.0
 40
0.067499935627
 50
270.00001798609998
 51
0.0
  0
ARC
  5
16B
  8
LAYER1$C$L1
 62
     3
 10
-163.64006042479991
 20
95.034790039099988
 30
0.0
 40
0.067499935627
 50
0.0
 51
89.999927372399995
  0
ARC
  5
16C
  8
LAYER1$C$L1
 62
     3
 10
-164.99006652829991
 20
95.529785156299994
 30
0.0
 40
0.3374999762
 50
89.999927372399995
 51
179.9999640277999
  0
ARC
  5
16D
  8
LAYER1$C$L1
 62
     3
 10
-164.3150634765999
 20
95.529785156299994
 30
0.0
 40
0.3374999762
 50
0.0
 51
89.999927372399995
  0
ARC
  5
16E
  8
LAYER1$C$L1
 62
     3
 10
-165.26007080080001
 20
96.114868164100002
 30
0.0
 40
0.067499935627
 50
180.00003597220001
 51
270.00001798609998
  0
ARC
  5
16F
  8
LAYER1$C$L1
 62
     3
 10
-165.26007080080001
 20
96.609863281299994
 30
0.0
 40
0.067499935627
 50
89.999927372399995
 51
179.9999640277999
  0
ARC
  5
170
  8
LAYER1$C$L1
 62
     3
 10
-163.64006042479991
 20
96.114868164100002
 30
0.0
 40
0.067499935627
 50
270.00001798609998
 51
0.0
  0
ARC
  5
171
  8
LAYER1$C$L1
 62
     3
 10
-163.64006042479991
 20
96.609863281299994
 30
0.0
 40
0.067499935627
 50
0.0
 51
89.999927372399995
  0
ARC
  5
172
  8
LAYER1$C$L1
 62
     3
 10
-165.99993896480001
 20
112.00012207029999
 30
0.0
 40
0.5
 50
90.000091296900024
 51
180.00001866929989
  0
ARC
  5
173
  8
LAYER1$C$L1
 62
     3
 10
-157.89996337889991
 20
111.2001953125
 30
0.0
 40
0.5999999046
 50
90.000091296900024
 51
242.9999350450999
  0
ARC
  5
174
  8
LAYER1$C$L1
 62
     3
 10
-165.99996948239991
 20
76.000122070299994
 30
0.0
 40
0.5
 50
180.00003597220001
 51
269.99996334460002
  0
ARC
  5
175
  8
LAYER1$C$L1
 62
     3
 10
-157.89999389650001
 20
76.800170898399983
 30
0.0
 40
0.5999999046
 50
117.00004765209989
 51
269.9999460416999
  0
ARC
  5
176
  8
LAYER1$C$L1
 62
     3
 10
-159.63864135739991
 20
85.327392578100003
 30
0.0
 40
0.7999997139000001
 50
179.9999640277999
 51
206.9999750243999
  0
ARC
  5
177
  8
LAYER1$C$L1
 62
     3
 10
-159.63864135739991
 20
102.6730957030999
 30
0.0
 40
0.7999997139000001
 50
153.00006231419999
 51
180.00007331079999
  0
ARC
  5
17A
  8
LAYER1$C$L1
 62
     3
 10
-132.0
 20
82.499938964799995
 30
0.0
 40
0.5
 50
89.999927372399995
 51
179.9999640277999
  0
ARC
  5
17B
  8
LAYER1$C$L1
 62
     3
 10
-133.0
 20
75.999938964799995
 30
0.0
 40
0.5
 50
270.00007262759988
 51
0.0
  0
ARC
  5
17C
  8
LAYER1$C$L1
 62
     3
 10
-133.0
 20
76.499938964799995
 30
0.0
 40
0.5
 50
270.00007262759988
 51
0.0
  0
ARC
  5
17D
  8
LAYER1$C$L1
 62
     3
 10
-131.9999847412
 20
105.4999389647999
 30
0.0
 40
0.5
 50
179.9999093863
 51
269.9999460416999
  0
ARC
  5
17E
  8
LAYER1$C$L1
 62
     3
 10
-132.9999847412
 20
111.99993896479999
 30
0.0
 40
0.5
 50
0.0
 51
89.999927372399995
  0
ARC
  5
17F
  8
LAYER1$C$L1
 62
     3
 10
-132.9999847412
 20
111.4999389647999
 30
0.0
 40
0.5
 50
0.0
 51
89.999927372399995
  0
LINE
  5
187
  8
LAYER1$C$L1
 62
     3
 10
-146.5
 20
75.500030517599996
 30
0.0
 11
-146.5
 21
112.4998474120999
 31
0.0
  0
LINE
  5
188
  8
LAYER1$C$L1
 62
     3
 10
-158.86348641469999
 20
109.7011862558999
 30
0.0
 11
-159.5763351443
 21
110.0644007909999
 31
0.0
  0
LINE
  5
189
  8
LAYER1$C$L1
 62
     3
 10
-161.54204120910001
 20
104.4442259797999
 30
0.0
 11
-162.25488993880001
 21
104.80744051479989
 31
0.0
  0
LINE
  5
18A
  8
LAYER1$C$L1
 62
     3
 10
-159.7010598478
 20
105.4142359550999
 30
0.0
 11
-159.83727915310001
 21
105.14689049009991
 31
0.0
  0
LINE
  5
18B
  8
LAYER1$C$L1
 62
     3
 10
-159.8371507713
 20
105.14690305000001
 30
0.0
 11
-160.37064466449999
 21
103.0797480799999
 31
0.0
  0
LINE
  5
18C
  8
LAYER1$C$L1
 62
     3
 10
-160.5824803463
 20
102.9305360888999
 30
0.0
 11
-160.94949476010001
 21
102.9639274188999
 31
0.0
  0
LINE
  5
18D
  8
LAYER1$C$L1
 62
     3
 10
-162.0186966686
 20
103.50872392149989
 30
0.0
 11
-161.6516974509
 21
103.47533397399989
 31
0.0
  0
LINE
  5
18E
  8
LAYER1$C$L1
 62
     3
 10
-161.43986113779999
 20
103.62447420319999
 30
0.0
 11
-160.90636724449999
 21
105.6916291732999
 31
0.0
  0
LINE
  5
18F
  8
LAYER1$C$L1
 62
     3
 10
-158.56608369919999
 20
107.64175227840001
 30
0.0
 11
-158.42991981259991
 21
107.90898897789999
 31
0.0
  0
LINE
  5
190
  8
LAYER1$C$L1
 62
     3
 10
-158.4298939016
 20
107.90906305759999
 30
0.0
 11
-157.07111028639989
 21
109.5557119004999
 31
0.0
  0
LINE
  5
191
  8
LAYER1$C$L1
 62
     3
 10
-157.0749191315
 20
109.814758399
 30
0.0
 11
-157.31765896979991
 21
110.0920523654999
 31
0.0
  0
LINE
  5
192
  8
LAYER1$C$L1
 62
     3
 10
-159.49920457670001
 20
108.4538594653
 30
0.0
 11
-158.1404209614999
 21
110.10050830819991
 31
0.0
  0
LINE
  5
193
  8
LAYER1$C$L1
 62
     3
 10
-158.1441098487999
 20
110.35951457100001
 30
0.0
 11
-158.38684968699999
 21
110.6368085374999
 31
0.0
  0
LINE
  5
194
  8
LAYER1$C$L1
 62
     3
 10
-160.68057361539999
 20
103.0512903754999
 30
0.0
 11
-161.21515535079999
 21
103.3236744255999
 31
0.0
  0
LINE
  5
195
  8
LAYER1$C$L1
 62
     3
 10
-157.23023801400001
 20
109.8230182562999
 30
0.0
 11
-157.7648203931
 21
110.0954010191
 31
0.0
  0
LINE
  5
196
  8
LAYER1$C$L1
 62
     3
 10
-161.28755759419991
 20
109.5695529958
 30
0.0
 11
-162.96489881700001
 21
108.4802750131
 31
0.0
  0
LINE
  5
197
  8
LAYER1$C$L1
 62
     3
 10
-162.91245808950001
 20
107.4814368598999
 30
0.0
 11
-162.96479405209999
 21
108.48006637029999
 31
0.0
  0
LINE
  5
198
  8
LAYER1$C$L1
 62
     3
 10
-160.32472091209991
 20
105.7320071092
 30
0.0
 11
-159.75723283779999
 21
106.8457652708
 31
0.0
  0
LINE
  5
199
  8
LAYER1$C$L1
 62
     3
 10
-159.18974476349999
 20
107.95952343250001
 30
0.0
 11
-159.75723283779999
 21
106.8457652708
 31
0.0
  0
LINE
  5
19A
  8
LAYER1$C$L1
 62
     3
 10
-160.77022417680001
 20
105.95900233889989
 30
0.0
 11
-160.32472091209991
 21
105.7320071092
 31
0.0
  0
LINE
  5
19B
  8
LAYER1$C$L1
 62
     3
 10
-159.63524802820001
 20
108.1865186621999
 30
0.0
 11
-159.18974476349999
 21
107.95952343250001
 31
0.0
  0
LINE
  5
19C
  8
LAYER1$C$L1
 62
     3
 10
-159.25555658309989
 20
105.1872407253
 30
0.0
 11
-158.1205804345
 21
107.4147570487
 31
0.0
  0
LINE
  5
19D
  8
LAYER1$C$L1
 62
     3
 10
-159.7010598478
 20
105.4142359550999
 30
0.0
 11
-159.25555658309989
 21
105.1872407253
 31
0.0
  0
LINE
  5
19E
  8
LAYER1$C$L1
 62
     3
 10
-158.56608369919999
 20
107.64175227840001
 30
0.0
 11
-158.1205804345
 21
107.4147570487
 31
0.0
  0
LINE
  5
19F
  8
LAYER1$C$L1
 62
     3
 10
-161.27873907849991
 20
106.7232052527
 30
0.0
 11
-160.20274897900001
 21
107.0728155620999
 31
0.0
  0
LINE
  5
1A0
  8
LAYER1$C$L1
 62
     3
 10
-159.65794754160001
 20
108.1419771395999
 30
0.0
 11
-160.73393764109991
 21
107.7923668302
 31
0.0
  0
LINE
  5
1A1
  8
LAYER1$C$L1
 62
     3
 10
-159.3266349573999
 20
110.5543671041
 30
0.0
 11
-160.2702867502
 21
110.93562718770001
 31
0.0
  0
LINE
  5
1A2
  8
LAYER1$C$L1
 62
     3
 10
-163.36770721560001
 20
104.8568196121999
 30
0.0
 11
-162.5045449863
 21
104.3174560441999
 31
0.0
  0
LINE
  5
1A3
  8
LAYER1$C$L1
 62
     3
 10
-159.3266182241
 20
110.55449788830001
 30
0.0
 11
-162.5045514402
 21
104.3174521829
 31
0.0
  0
LINE
  5
1A4
  8
LAYER1$C$L1
 62
     3
 10
-160.9495336112999
 20
102.9639679994
 30
0.0
 11
-162.01869794029989
 21
103.50873438319989
 31
0.0
  0
LINE
  5
1A5
  8
LAYER1$C$L1
 62
     3
 10
-162.01869794029989
 20
103.50873438319989
 30
0.0
 11
-158.38677426469999
 21
110.6367866179
 31
0.0
  0
LINE
  5
1A6
  8
LAYER1$C$L1
 62
     3
 10
-157.31760993570001
 20
110.0920202339999
 30
0.0
 11
-158.38677426469999
 21
110.6367866179
 31
0.0
  0
LINE
  5
1A7
  8
LAYER1$C$L1
 62
     3
 10
-159.57626696049999
 20
77.935525227200003
 30
0.0
 11
-158.86341823090001
 21
78.298739762300002
 31
0.0
  0
LINE
  5
1A8
  8
LAYER1$C$L1
 62
     3
 10
-162.25480790029991
 20
83.192458311999985
 30
0.0
 11
-161.54195917070001
 21
83.555672847099999
 31
0.0
  0
LINE
  5
1A9
  8
LAYER1$C$L1
 62
     3
 10
-159.83721096939999
 20
82.853035528100008
 30
0.0
 11
-159.70100551869999
 21
82.585717254499997
 31
0.0
  0
LINE
  5
1AA
  8
LAYER1$C$L1
 62
     3
 10
-160.37062869819991
 20
84.920157378100001
 30
0.0
 11
-159.83714243110001
 21
82.853031957399992
 31
0.0
  0
LINE
  5
1AB
  8
LAYER1$C$L1
 62
     3
 10
-160.9494867290999
 20
85.035962027099984
 30
0.0
 11
-160.58247231530001
 21
85.069353357099999
 31
0.0
  0
LINE
  5
1AC
  8
LAYER1$C$L1
 62
     3
 10
-161.65168941990001
 20
84.524555471900001
 30
0.0
 11
-162.01868863760001
 21
84.491165524500005
 31
0.0
  0
LINE
  5
1AD
  8
LAYER1$C$L1
 62
     3
 10
-160.90634365209991
 20
82.308246735500006
 30
0.0
 11
-161.43983754539991
 21
84.375401705499996
 31
0.0
  0
LINE
  5
1AE
  8
LAYER1$C$L1
 62
     3
 10
-158.42983777409989
 20
80.090909848899983
 30
0.0
 11
-158.5660432247999
 21
80.358228122499995
 31
0.0
  0
LINE
  5
1AF
  8
LAYER1$C$L1
 62
     3
 10
-157.07108283509999
 20
78.444294499700007
 30
0.0
 11
-158.42986645039991
 21
80.090943342599999
 31
0.0
  0
LINE
  5
1B0
  8
LAYER1$C$L1
 62
     3
 10
-157.3176014906
 20
77.907945855699992
 30
0.0
 11
-157.0748616523999
 21
78.185239822299991
 31
0.0
  0
LINE
  5
1B1
  8
LAYER1$C$L1
 62
     3
 10
-158.14035466339999
 20
77.899451015300002
 30
0.0
 11
-159.4991382787
 21
79.546099858199995
 31
0.0
  0
LINE
  5
1B2
  8
LAYER1$C$L1
 62
     3
 10
-158.38678072670001
 20
77.363179633199991
 30
0.0
 11
-158.14404088840001
 21
77.640473599700002
 31
0.0
  0
LINE
  5
1B3
  8
LAYER1$C$L1
 62
     3
 10
-161.21509863029999
 20
84.676248275599988
 30
0.0
 11
-160.68051689489991
 21
84.948632325800006
 31
0.0
  0
LINE
  5
1B4
  8
LAYER1$C$L1
 62
     3
 10
-157.764811033
 20
77.904602939300005
 30
0.0
 11
-157.2302286538999
 21
78.176985702099998
 31
0.0
  0
LINE
  5
1B5
  8
LAYER1$C$L1
 62
     3
 10
-162.96488291590001
 20
79.519711568199995
 30
0.0
 11
-161.28754169309991
 21
78.430433585499998
 31
0.0
  0
LINE
  5
1B6
  8
LAYER1$C$L1
 62
     3
 10
-162.96482007680001
 20
79.519726757599997
 30
0.0
 11
-162.91248411410001
 21
80.518356268000005
 31
0.0
  0
LINE
  5
1B7
  8
LAYER1$C$L1
 62
     3
 10
-159.7571785088
 20
81.154187938700005
 30
0.0
 11
-160.3246665831
 21
82.267946100399996
 31
0.0
  0
LINE
  5
1B8
  8
LAYER1$C$L1
 62
     3
 10
-159.7571785088
 20
81.154187938700005
 30
0.0
 11
-159.18970428910001
 21
80.040456968399994
 31
0.0
  0
LINE
  5
1B9
  8
LAYER1$C$L1
 62
     3
 10
-160.3246665831
 20
82.267946100399996
 30
0.0
 11
-160.7701698477
 21
82.040950870699987
 31
0.0
  0
LINE
  5
1BA
  8
LAYER1$C$L1
 62
     3
 10
-159.18970428910001
 20
80.040456968399994
 30
0.0
 11
-159.6352075538
 21
79.813461738699999
 31
0.0
  0
LINE
  5
1BB
  8
LAYER1$C$L1
 62
     3
 10
-158.12053996009999
 20
80.585223352200003
 30
0.0
 11
-159.25550225399999
 21
82.812712484200006
 31
0.0
  0
LINE
  5
1BC
  8
LAYER1$C$L1
 62
     3
 10
-159.25550225399999
 20
82.812712484200006
 30
0.0
 11
-159.70100551869999
 21
82.585717254499997
 31
0.0
  0
LINE
  5
1BD
  8
LAYER1$C$L1
 62
     3
 10
-158.12053996009999
 20
80.585223352200003
 30
0.0
 11
-158.5660432247999
 21
80.358228122499995
 31
0.0
  0
LINE
  5
1BE
  8
LAYER1$C$L1
 62
     3
 10
-160.20278437990001
 20
80.927100095800014
 30
0.0
 11
-161.27877447930001
 21
81.276710405200006
 31
0.0
  0
LINE
  5
1BF
  8
LAYER1$C$L1
 62
     3
 10
-160.7339824723999
 20
80.207519803799997
 30
0.0
 11
-159.6579778608999
 21
79.857904779099997
 31
0.0
  0
LINE
  5
1C0
  8
LAYER1$C$L1
 62
     3
 10
-160.270227248
 20
77.064286684300001
 30
0.0
 11
-159.32656130739991
 21
77.445552484099991
 31
0.0
  0
LINE
  5
1C1
  8
LAYER1$C$L1
 62
     3
 10
-162.5045292618
 20
83.6824975002
 30
0.0
 11
-163.36769149099999
 21
83.143133932200001
 31
0.0
  0
LINE
  5
1C2
  8
LAYER1$C$L1
 62
     3
 10
-162.50449711109991
 20
83.682501026599994
 30
0.0
 11
-159.32657774969999
 21
77.445482512600009
 31
0.0
  0
LINE
  5
1C3
  8
LAYER1$C$L1
 62
     3
 10
-162.01864361119999
 20
84.491218826299999
 30
0.0
 11
-160.94947928219989
 21
85.035985210199996
 31
0.0
  0
LINE
  5
1C4
  8
LAYER1$C$L1
 62
     3
 10
-158.38673379030001
 20
77.363193783
 30
0.0
 11
-162.01864361119999
 21
84.491218826299999
 31
0.0
  0
LINE
  5
1C5
  8
LAYER1$C$L1
 62
     3
 10
-158.38673379030001
 20
77.363193783
 30
0.0
 11
-157.31756946129991
 21
77.907960166899997
 31
0.0
  0
LINE
  5
1C6
  8
LAYER1$C$L1
 62
     3
 10
-164.65257263180001
 20
92.357299804699991
 30
0.0
 11
-164.78756713870001
 21
92.357299804699991
 31
0.0
  0
LINE
  5
1C7
  8
LAYER1$C$L1
 62
     3
 10
-164.78756713870001
 20
91.322265624999986
 30
0.0
 11
-165.26007080080001
 21
91.322265624999986
 31
0.0
  0
LINE
  5
1C8
  8
LAYER1$C$L1
 62
     3
 10
-164.65257263180001
 20
92.357299804699991
 30
0.0
 11
-164.65257263180001
 21
91.322265624999986
 31
0.0
  0
LINE
  5
1C9
  8
LAYER1$C$L1
 62
     3
 10
-164.78756713870001
 20
92.357299804699991
 30
0.0
 11
-164.78756713870001
 21
91.322265624999986
 31
0.0
  0
LINE
  5
1CA
  8
LAYER1$C$L1
 62
     3
 10
-165.32756042479991
 20
92.334838867200006
 30
0.0
 11
-165.32756042479991
 21
91.389770507800009
 31
0.0
  0
LINE
  5
1CB
  8
LAYER1$C$L1
 62
     3
 10
-164.4500579834
 20
92.672363281299994
 30
0.0
 11
-164.99006652829991
 21
92.672363281299994
 31
0.0
  0
LINE
  5
1CC
  8
LAYER1$C$L1
 62
     3
 10
-164.9225616455
 20
92.852294921900011
 30
0.0
 11
-165.26007080080001
 21
92.852294921900011
 31
0.0
  0
LINE
  5
1CD
  8
LAYER1$C$L1
 62
     3
 10
-164.42756652829991
 20
93.482299804700006
 30
0.0
 11
-164.78756713870001
 21
93.482299804700006
 31
0.0
  0
LINE
  5
1CE
  8
LAYER1$C$L1
 62
     3
 10
-164.42756652829991
 20
93.617309570300009
 30
0.0
 11
-164.9225616455
 21
93.617309570300009
 31
0.0
  0
LINE
  5
1CF
  8
LAYER1$C$L1
 62
     3
 10
-164.42756652829991
 20
93.617309570300009
 30
0.0
 11
-164.42756652829991
 21
93.482299804700006
 31
0.0
  0
LINE
  5
1D0
  8
LAYER1$C$L1
 62
     3
 10
-164.78756713870001
 20
93.482299804700006
 30
0.0
 11
-164.78756713870001
 21
92.852294921900011
 31
0.0
  0
LINE
  5
1D1
  8
LAYER1$C$L1
 62
     3
 10
-164.9225616455
 20
93.617309570300009
 30
0.0
 11
-164.9225616455
 21
92.852294921900011
 31
0.0
  0
LINE
  5
1D2
  8
LAYER1$C$L1
 62
     3
 10
-165.32756042479991
 20
93.954833984400011
 30
0.0
 11
-165.32756042479991
 21
92.919799804699991
 31
0.0
  0
LINE
  5
1D3
  8
LAYER1$C$L1
 62
     3
 10
-164.1800689696999
 20
92.852294921900011
 30
0.0
 11
-164.78756713870001
 21
92.852294921900011
 31
0.0
  0
LINE
  5
1D4
  8
LAYER1$C$L1
 62
     3
 10
-164.11256408689999
 20
92.334838867200006
 30
0.0
 11
-164.11256408689999
 21
91.389770507800009
 31
0.0
  0
LINE
  5
1D5
  8
LAYER1$C$L1
 62
     3
 10
-164.11256408689999
 20
93.954833984400011
 30
0.0
 11
-164.11256408689999
 21
92.919799804699991
 31
0.0
  0
LINE
  5
1D6
  8
LAYER1$C$L1
 62
     3
 10
-164.4500579834
 20
94.292358398399998
 30
0.0
 11
-164.99006652829991
 21
94.292358398399998
 31
0.0
  0
LINE
  5
1D7
  8
LAYER1$C$L1
 62
     3
 10
-163.64006042479991
 20
94.472290039100017
 30
0.0
 11
-165.26007080080001
 21
94.472290039100017
 31
0.0
  0
LINE
  5
1D8
  8
LAYER1$C$L1
 62
     3
 10
-164.65257263180001
 20
95.237304687500014
 30
0.0
 11
-164.65257263180001
 21
95.102294921900011
 31
0.0
  0
LINE
  5
1D9
  8
LAYER1$C$L1
 62
     3
 10
-163.64006042479991
 20
95.102294921900011
 30
0.0
 11
-164.65257263180001
 21
95.102294921900011
 31
0.0
  0
LINE
  5
1DA
  8
LAYER1$C$L1
 62
     3
 10
-163.97756958010001
 20
95.237304687500014
 30
0.0
 11
-164.65257263180001
 21
95.237304687500014
 31
0.0
  0
LINE
  5
1DB
  8
LAYER1$C$L1
 62
     3
 10
-164.3150634765999
 20
95.867309570300009
 30
0.0
 11
-164.99006652829991
 21
95.867309570300009
 31
0.0
  0
LINE
  5
1DC
  8
LAYER1$C$L1
 62
     3
 10
-163.97756958010001
 20
96.677368164100002
 30
0.0
 11
-165.26007080080001
 21
96.677368164100002
 31
0.0
  0
LINE
  5
1DD
  8
LAYER1$C$L1
 62
     3
 10
-163.97756958010001
 20
96.047363281299994
 30
0.0
 11
-165.26007080080001
 21
96.047363281299994
 31
0.0
  0
LINE
  5
1DE
  8
LAYER1$C$L1
 62
     3
 10
-163.57257080080001
 20
95.034790039099988
 30
0.0
 11
-163.57257080080001
 21
94.539794921900011
 31
0.0
  0
LINE
  5
1DF
  8
LAYER1$C$L1
 62
     3
 10
-165.32756042479991
 20
95.529785156299994
 30
0.0
 11
-165.32756042479991
 21
94.539794921900011
 31
0.0
  0
LINE
  5
1E0
  8
LAYER1$C$L1
 62
     3
 10
-163.97756958010001
 20
95.529785156299994
 30
0.0
 11
-163.97756958010001
 21
95.237304687500014
 31
0.0
  0
LINE
  5
1E1
  8
LAYER1$C$L1
 62
     3
 10
-163.84255981449999
 20
96.677368164100002
 30
0.0
 11
-163.84255981449999
 21
96.047363281299994
 31
0.0
  0
LINE
  5
1E2
  8
LAYER1$C$L1
 62
     3
 10
-163.97756958010001
 20
96.677368164100002
 30
0.0
 11
-163.97756958010001
 21
96.047363281299994
 31
0.0
  0
LINE
  5
1E3
  8
LAYER1$C$L1
 62
     3
 10
-163.64006042479991
 20
96.047363281299994
 30
0.0
 11
-163.84255981449999
 21
96.047363281299994
 31
0.0
  0
LINE
  5
1E4
  8
LAYER1$C$L1
 62
     3
 10
-163.57257080080001
 20
96.609863281299994
 30
0.0
 11
-163.57257080080001
 21
96.114868164100002
 31
0.0
  0
LINE
  5
1E5
  8
LAYER1$C$L1
 62
     3
 10
-165.32756042479991
 20
96.609863281299994
 30
0.0
 11
-165.32756042479991
 21
96.114868164100002
 31
0.0
  0
LINE
  5
1E6
  8
LAYER1$C$L1
 62
     3
 10
-163.64006042479991
 20
96.677368164100002
 30
0.0
 11
-163.84255981449999
 21
96.677368164100002
 31
0.0
  0
LINE
  5
1E7
  8
LAYER1$C$L1
 62
     3
 10
-164.1800689696999
 20
91.322265624999986
 30
0.0
 11
-164.65257263180001
 21
91.322265624999986
 31
0.0
  0
LINE
  5
1E8
  8
LAYER1$C$L1
 62
     3
 10
-163.20008850100001
 20
90.999755859400011
 30
0.0
 11
-165.70008850100001
 21
90.999755859400011
 31
0.0
  0
LINE
  5
1E9
  8
LAYER1$C$L1
 62
     3
 10
-163.20008850100001
 20
96.999755859400025
 30
0.0
 11
-165.70008850100001
 21
96.999755859400025
 31
0.0
  0
LINE
  5
1EA
  8
LAYER1$C$L1
 62
     3
 10
-160.70008850100001
 20
87.999755859400025
 30
0.0
 11
-160.70008850100001
 21
99.999740600599992
 31
0.0
  0
LINE
  5
1EB
  8
LAYER1$C$L1
 62
     3
 10
-162.70008850100001
 20
87.999755859400025
 30
0.0
 11
-162.70008850100001
 21
99.999740600599992
 31
0.0
  0
LINE
  5
1EC
  8
LAYER1$C$L1
 62
     3
 10
-163.20008850100001
 20
90.999755859400011
 30
0.0
 11
-163.20008850100001
 21
96.999755859400025
 31
0.0
  0
LINE
  5
1ED
  8
LAYER1$C$L1
 62
     3
 10
-160.70008850100001
 20
99.999740600599992
 30
0.0
 11
-162.70008850100001
 21
99.999740600599992
 31
0.0
  0
LINE
  5
1EE
  8
LAYER1$C$L1
 62
     3
 10
-160.70008850100001
 20
87.999755859400025
 30
0.0
 11
-162.70008850100001
 21
87.999755859400025
 31
0.0
  0
LINE
  5
1EF
  8
LAYER1$C$L1
 62
     3
 10
-165.70008850100001
 20
90.999755859400011
 30
0.0
 11
-165.70008850100001
 21
96.999755859400025
 31
0.0
  0
LINE
  5
1F0
  8
LAYER1$C$L1
 62
     3
 10
-161.10002136229991
 20
101.89976501459989
 30
0.0
 11
-160.40003967289999
 21
101.89976501459989
 31
0.0
  0
LINE
  5
1F1
  8
LAYER1$C$L1
 62
     3
 10
-160.40003967289999
 20
86.099853515599975
 30
0.0
 11
-161.10002136229991
 21
86.099853515599975
 31
0.0
  0
LINE
  5
1F2
  8
LAYER1$C$L1
 62
     3
 10
-164.42553100110001
 20
103.99937134140001
 30
0.0
 11
-160.43870640579991
 21
101.9679829395
 31
0.0
  0
LINE
  5
1F3
  8
LAYER1$C$L1
 62
     3
 10
-161.10000610349991
 20
100.79974365229999
 30
0.0
 11
-161.10000610349991
 21
102.3050994872999
 31
0.0
  0
LINE
  5
1F4
  8
LAYER1$C$L1
 62
     3
 10
-161.10000610349991
 20
85.694442748999975
 30
0.0
 11
-161.10000610349991
 21
87.199813842800026
 31
0.0
  0
LINE
  5
1F5
  8
LAYER1$C$L1
 62
     3
 10
-165.70007324220001
 20
100.0997924804999
 30
0.0
 11
-166.5
 21
100.0997924804999
 31
0.0
  0
LINE
  5
1F6
  8
LAYER1$C$L1
 62
     3
 10
-165.70007324220001
 20
87.899765014599993
 30
0.0
 11
-166.5
 21
87.899765014599993
 31
0.0
  0
LINE
  5
1F7
  8
LAYER1$C$L1
 62
     3
 10
-165.70007324220001
 20
97.399719238299994
 30
0.0
 11
-166.5
 21
97.399719238299994
 31
0.0
  0
LINE
  5
1F8
  8
LAYER1$C$L1
 62
     3
 10
-165.70007324220001
 20
90.599838256799984
 30
0.0
 11
-166.5
 21
90.599838256799984
 31
0.0
  0
LINE
  5
1F9
  8
LAYER1$C$L1
 62
     3
 10
-166.5
 20
100.79974365229999
 30
0.0
 11
-161.10000610349991
 21
100.79974365229999
 31
0.0
  0
LINE
  5
1FA
  8
LAYER1$C$L1
 62
     3
 10
-166.5
 20
100.6997680663999
 30
0.0
 11
-161.0000152588
 21
100.6997680663999
 31
0.0
  0
LINE
  5
1FB
  8
LAYER1$C$L1
 62
     3
 10
-166.5
 20
106.8997039795
 30
0.0
 11
-163.5898895263999
 21
106.8997039795
 31
0.0
  0
LINE
  5
1FC
  8
LAYER1$C$L1
 62
     3
 10
-166.5
 20
103.9996795654
 30
0.0
 11
-164.4252166748
 21
103.9996795654
 31
0.0
  0
LINE
  5
1FD
  8
LAYER1$C$L1
 62
     3
 10
-161.10000610349991
 20
87.199813842800026
 30
0.0
 11
-166.5
 21
87.199813842800026
 31
0.0
  0
LINE
  5
1FE
  8
LAYER1$C$L1
 62
     3
 10
-161.0
 20
87.299789428700009
 30
0.0
 11
-166.5
 21
87.299789428700009
 31
0.0
  0
LINE
  5
1FF
  8
LAYER1$C$L1
 62
     3
 10
-163.5897827147999
 20
81.099761962900004
 30
0.0
 11
-166.5
 21
81.099761962900004
 31
0.0
  0
LINE
  5
200
  8
LAYER1$C$L1
 62
     3
 10
-160.43871729110001
 20
86.031627715300004
 30
0.0
 11
-164.42551469499989
 21
84.000253168099988
 31
0.0
  0
LINE
  5
201
  8
LAYER1$C$L1
 62
     3
 10
-166.5
 20
76.000122070299994
 30
0.0
 11
-166.5
 21
112.00012207029999
 31
0.0
  0
LINE
  5
202
  8
LAYER1$C$L1
 62
     3
 10
-164.4252166748
 20
83.999740600600006
 30
0.0
 11
-166.5
 21
83.999740600600006
 31
0.0
  0
LINE
  5
203
  8
LAYER1$C$L1
 62
     3
 10
-155.6617431640999
 20
75.5000457764
 30
0.0
 11
-155.6617431640999
 21
76.200485229500003
 31
0.0
  0
LINE
  5
204
  8
LAYER1$C$L1
 62
     3
 10
-155.662109375
 20
111.7999725341999
 30
0.0
 11
-155.662109375
 21
112.49992370610001
 31
0.0
  0
LINE
  5
205
  8
LAYER1$C$L1
 62
     3
 10
-165.70007324220001
 20
97.399963378899997
 30
0.0
 11
-165.70007324220001
 21
100.09991455079999
 31
0.0
  0
LINE
  5
206
  8
LAYER1$C$L1
 62
     3
 10
-166.4999847412
 20
100.09991455079999
 30
0.0
 11
-165.70007324220001
 21
100.09991455079999
 31
0.0
  0
LINE
  5
207
  8
LAYER1$C$L1
 62
     3
 10
-166.4999847412
 20
97.399963378899997
 30
0.0
 11
-165.70007324220001
 21
97.399963378899997
 31
0.0
  0
LINE
  5
208
  8
LAYER1$C$L1
 62
     3
 10
-165.70007324220001
 20
87.900009155300012
 30
0.0
 11
-165.70007324220001
 21
90.600082397500003
 31
0.0
  0
LINE
  5
209
  8
LAYER1$C$L1
 62
     3
 10
-165.70007324220001
 20
87.900009155300012
 30
0.0
 11
-166.4999847412
 21
87.900009155300012
 31
0.0
  0
LINE
  5
20A
  8
LAYER1$C$L1
 62
     3
 10
-165.70007324220001
 20
90.600082397500003
 30
0.0
 11
-166.4999847412
 21
90.600082397500003
 31
0.0
  0
LINE
  5
20B
  8
LAYER1$C$L1
 62
     3
 10
-146.50064789459989
 20
108.25450498319989
 30
0.0
 11
-154.83327743789999
 21
112.50019139530001
 31
0.0
  0
LINE
  5
20C
  8
LAYER1$C$L1
 62
     3
 10
-146.50065138459999
 20
107.1321805611
 30
0.0
 11
-155.6621823879
 21
111.8002133222999
 31
0.0
  0
LINE
  5
20D
  8
LAYER1$C$L1
 62
     3
 10
-154.83299049409999
 20
75.500582476199995
 30
0.0
 11
-146.5003609508
 21
79.746268888399996
 31
0.0
  0
LINE
  5
20E
  8
LAYER1$C$L1
 62
     3
 10
-155.6618954441
 20
76.200560549299993
 30
0.0
 11
-146.50036444080001
 21
80.868593310500003
 31
0.0
  0
LINE
  5
20F
  8
LAYER1$C$L1
 62
     3
 10
-166.0
 20
112.49992370610001
 30
0.0
 11
-146.5
 21
112.49992370610001
 31
0.0
  0
LINE
  5
210
  8
LAYER1$C$L1
 62
     3
 10
-157.00057687450001
 20
110.0683085626
 30
0.0
 11
-158.1729596113
 21
110.665667347
 31
0.0
  0
LINE
  5
211
  8
LAYER1$C$L1
 62
     3
 10
-157.0
 20
109.17277526860001
 30
0.0
 11
-157.0
 21
110.06791687010001
 31
0.0
  0
LINE
  5
212
  8
LAYER1$C$L1
 62
     3
 10
-157.9000244140999
 20
111.7999725341999
 30
0.0
 11
-155.66149902340001
 21
111.7999725341999
 31
0.0
  0
LINE
  5
213
  8
LAYER1$C$L1
 62
     3
 10
-160.40059947579991
 20
102.5002764038999
 30
0.0
 11
-157.0006028663999
 21
109.17314609889991
 31
0.0
  0
LINE
  5
214
  8
LAYER1$C$L1
 62
     3
 10
-160.4000244140999
 20
100.700012207
 30
0.0
 11
-160.4000244140999
 21
102.49992370610001
 31
0.0
  0
LINE
  5
215
  8
LAYER1$C$L1
 62
     3
 10
-166.4999847412
 20
100.700012207
 30
0.0
 11
-160.4000244140999
 21
100.700012207
 31
0.0
  0
LINE
  5
216
  8
LAYER1$C$L1
 62
     3
 10
-149.0004508655999
 20
100.60030163730001
 30
0.0
 11
-148.60037322799991
 21
101.00038021909999
 31
0.0
  0
LINE
  5
217
  8
LAYER1$C$L1
 62
     3
 10
-149.00029101039999
 20
97.600293395300014
 30
0.0
 11
-148.60029921750001
 21
97.200301602300016
 31
0.0
  0
LINE
  5
218
  8
LAYER1$C$L1
 62
     3
 10
-160.10039295440001
 20
97.200320434100007
 30
0.0
 11
-159.7003143725
 21
97.600398071699999
 31
0.0
  0
LINE
  5
219
  8
LAYER1$C$L1
 62
     3
 10
-160.10027905699991
 20
101.0003099521999
 30
0.0
 11
-159.700287264
 21
100.6003181592
 31
0.0
  0
LINE
  5
21A
  8
LAYER1$C$L1
 62
     3
 10
-149.0
 20
97.600036621100017
 30
0.0
 11
-149.0
 21
100.6000366210999
 31
0.0
  0
LINE
  5
21B
  8
LAYER1$C$L1
 62
     3
 10
-159.70007324220001
 20
97.600036621100017
 30
0.0
 11
-159.70007324220001
 21
100.6000366210999
 31
0.0
  0
LINE
  5
21C
  8
LAYER1$C$L1
 62
     3
 10
-160.10009765629999
 20
97.200012207000015
 30
0.0
 11
-160.10009765629999
 21
100.9999389647999
 31
0.0
  0
LINE
  5
21D
  8
LAYER1$C$L1
 62
     3
 10
-148.60009765629999
 20
97.200012207000015
 30
0.0
 11
-148.60009765629999
 21
100.9999389647999
 31
0.0
  0
LINE
  5
21E
  8
LAYER1$C$L1
 62
     3
 10
-159.70007324220001
 20
100.6000366210999
 30
0.0
 11
-149.0
 21
100.6000366210999
 31
0.0
  0
LINE
  5
21F
  8
LAYER1$C$L1
 62
     3
 10
-159.70007324220001
 20
97.600036621100017
 30
0.0
 11
-149.0
 21
97.600036621100017
 31
0.0
  0
LINE
  5
220
  8
LAYER1$C$L1
 62
     3
 10
-160.10009765629999
 20
100.9999389647999
 30
0.0
 11
-148.60009765629999
 21
100.9999389647999
 31
0.0
  0
LINE
  5
221
  8
LAYER1$C$L1
 62
     3
 10
-160.10009765629999
 20
97.200012207000015
 30
0.0
 11
-148.60009765629999
 21
97.200012207000015
 31
0.0
  0
LINE
  5
222
  8
LAYER1$C$L1
 62
     3
 10
-146.5
 20
75.5000457764
 30
0.0
 11
-166.0
 21
75.5000457764
 31
0.0
  0
LINE
  5
223
  8
LAYER1$C$L1
 62
     3
 10
-158.1727350136
 20
77.335228885600003
 30
0.0
 11
-157.00035227679999
 21
77.932587670100006
 31
0.0
  0
LINE
  5
224
  8
LAYER1$C$L1
 62
     3
 10
-157.0
 20
77.932052612299984
 30
0.0
 11
-157.0
 21
78.8271942139
 31
0.0
  0
LINE
  5
225
  8
LAYER1$C$L1
 62
     3
 10
-155.66149902340001
 20
76.200119018599992
 30
0.0
 11
-157.9000244140999
 21
76.200119018599992
 31
0.0
  0
LINE
  5
226
  8
LAYER1$C$L1
 62
     3
 10
-157.00037826869999
 20
78.827750133699993
 30
0.0
 11
-160.40037444519999
 21
85.500618979099997
 31
0.0
  0
LINE
  5
227
  8
LAYER1$C$L1
 62
     3
 10
-160.4000244140999
 20
85.500106811499975
 30
0.0
 11
-160.4000244140999
 21
87.300033569299998
 31
0.0
  0
LINE
  5
228
  8
LAYER1$C$L1
 62
     3
 10
-160.4000244140999
 20
87.300033569299998
 30
0.0
 11
-166.4999847412
 21
87.300033569299998
 31
0.0
  0
LINE
  5
229
  8
LAYER1$C$L1
 62
     3
 10
-148.6003604144
 20
87.000365087999995
 30
0.0
 11
-149.0003517353
 21
87.40035735299999
 31
0.0
  0
LINE
  5
22A
  8
LAYER1$C$L1
 62
     3
 10
-148.60029921750001
 20
90.800260281499988
 30
0.0
 11
-149.00029101039999
 21
90.400268488500004
 31
0.0
  0
LINE
  5
22B
  8
LAYER1$C$L1
 62
     3
 10
-159.70033797569999
 20
90.400336445799994
 30
0.0
 11
-160.1003302407
 21
90.800327766699994
 31
0.0
  0
LINE
  5
22C
  8
LAYER1$C$L1
 62
     3
 10
-159.70036279109999
 20
87.400340830900006
 30
0.0
 11
-160.1003545840999
 21
87.000349037900008
 31
0.0
  0
LINE
  5
22D
  8
LAYER1$C$L1
 62
     3
 10
-149.0
 20
87.400009155300026
 30
0.0
 11
-149.0
 21
90.400009155300012
 31
0.0
  0
LINE
  5
22E
  8
LAYER1$C$L1
 62
     3
 10
-159.70007324220001
 20
87.400009155300026
 30
0.0
 11
-159.70007324220001
 21
90.400009155300012
 31
0.0
  0
LINE
  5
22F
  8
LAYER1$C$L1
 62
     3
 10
-160.10009765629999
 20
86.999984741199995
 30
0.0
 11
-160.10009765629999
 21
90.800033569299984
 31
0.0
  0
LINE
  5
230
  8
LAYER1$C$L1
 62
     3
 10
-148.60009765629999
 20
86.999984741199995
 30
0.0
 11
-148.60009765629999
 21
90.800033569299984
 31
0.0
  0
LINE
  5
231
  8
LAYER1$C$L1
 62
     3
 10
-149.0
 20
87.400009155300026
 30
0.0
 11
-159.70007324220001
 21
87.400009155300026
 31
0.0
  0
LINE
  5
232
  8
LAYER1$C$L1
 62
     3
 10
-149.0
 20
90.400009155300012
 30
0.0
 11
-159.70007324220001
 21
90.400009155300012
 31
0.0
  0
LINE
  5
233
  8
LAYER1$C$L1
 62
     3
 10
-148.60009765629999
 20
86.999984741199995
 30
0.0
 11
-160.10009765629999
 21
86.999984741199995
 31
0.0
  0
LINE
  5
234
  8
LAYER1$C$L1
 62
     3
 10
-148.60009765629999
 20
90.800033569299984
 30
0.0
 11
-160.10009765629999
 21
90.800033569299984
 31
0.0
  0
LINE
  5
235
  8
LAYER1$C$L1
 62
     3
 10
-157.0000163245
 20
78.386340568500003
 30
0.0
 11
-160.35159036179991
 21
84.964175605799994
 31
0.0
  0
LINE
  5
236
  8
LAYER1$C$L1
 62
     3
 10
-160.43867492679991
 20
85.327270507799994
 30
0.0
 11
-160.43867492679991
 21
87.299926757800009
 31
0.0
  0
LINE
  5
237
  8
LAYER1$C$L1
 62
     3
 10
-160.3515597496999
 20
103.0361795828
 30
0.0
 11
-157.00005498589991
 21
109.6138786633999
 31
0.0
  0
LINE
  5
238
  8
LAYER1$C$L1
 62
     3
 10
-160.4386596679999
 20
100.69989013669991
 30
0.0
 11
-160.4386596679999
 21
102.6730346679999
 31
0.0
  0
LINE
  5
242
  8
LAYER1$C$L1
 62
     3
 10
-166.4999847412
 20
98.999923706100006
 30
0.0
 11
-166.4999847412
 21
88.999923706100006
 31
0.0
  0
LINE
  5
248
  8
LAYER1$C$L1
 62
     3
 10
-127.3000030518
 20
82.799911498999975
 30
0.0
 11
-131.0000152588
 21
82.799911498999975
 31
0.0
  0
LINE
  5
249
  8
LAYER1$C$L1
 62
     3
 10
-127.3000030518
 20
81.999908447300015
 30
0.0
 11
-131.0000152588
 21
81.999908447300015
 31
0.0
  0
LINE
  5
24A
  8
LAYER1$C$L1
 62
     3
 10
-123.6800079345999
 20
91.899917602499997
 30
0.0
 11
-124.8000030518
 21
91.899917602499997
 31
0.0
  0
LINE
  5
24B
  8
LAYER1$C$L1
 62
     3
 10
-122.2933502196999
 20
89.29991149899999
 30
0.0
 11
-124.8000030518
 21
89.29991149899999
 31
0.0
  0
LINE
  5
24C
  8
LAYER1$C$L1
 62
     3
 10
-121.0666809082
 20
86.999923706100006
 30
0.0
 11
-124.8000030518
 21
86.999923706100006
 31
0.0
  0
LINE
  5
24D
  8
LAYER1$C$L1
 62
     3
 10
-120.0
 20
84.999923706100006
 30
0.0
 11
-124.8000030518
 21
84.999923706100006
 31
0.0
  0
LINE
  5
24E
  8
LAYER1$C$L1
 62
     3
 10
-120.0
 20
83.29991149899999
 30
0.0
 11
-124.8000030518
 21
83.29991149899999
 31
0.0
  0
LINE
  5
24F
  8
LAYER1$C$L1
 62
     3
 10
-120.0
 20
81.899917602499997
 30
0.0
 11
-124.8000030518
 21
81.899917602499997
 31
0.0
  0
LINE
  5
250
  8
LAYER1$C$L1
 62
     3
 10
-120.0
 20
80.79991149899999
 30
0.0
 11
-124.8000030518
 21
80.79991149899999
 31
0.0
  0
LINE
  5
251
  8
LAYER1$C$L1
 62
     3
 10
-120.0
 20
79.999908447300001
 30
0.0
 11
-124.8000030518
 21
79.999908447300001
 31
0.0
  0
LINE
  5
252
  8
LAYER1$C$L1
 62
     3
 10
-124.8000030518
 20
79.999908447300001
 30
0.0
 11
-127.3000030518
 21
79.999908447300001
 31
0.0
  0
LINE
  5
253
  8
LAYER1$C$L1
 62
     3
 10
-120.0
 20
79.499908447300001
 30
0.0
 11
-124.8000030518
 21
79.499908447300001
 31
0.0
  0
LINE
  5
254
  8
LAYER1$C$L1
 62
     3
 10
-124.8000030518
 20
93.999908447300001
 30
0.0
 11
-124.8000030518
 21
79.499908447300001
 31
0.0
  0
LINE
  5
255
  8
LAYER1$C$L1
 62
     3
 10
-127.3000030518
 20
93.999908447300001
 30
0.0
 11
-127.3000030518
 21
79.999908447300001
 31
0.0
  0
LINE
  5
256
  8
LAYER1$C$L1
 62
     3
 10
-120.0
 20
93.999908447300001
 30
0.0
 11
-120.0
 21
79.499908447300001
 31
0.0
  0
LINE
  5
257
  8
LAYER1$C$L1
 62
     3
 10
-132.49999999999989
 20
93.999908447300001
 30
0.0
 11
-132.49999999999989
 21
82.499908447300001
 31
0.0
  0
LINE
  5
258
  8
LAYER1$C$L1
 62
     3
 10
-131.0000152588
 20
82.999908447300001
 30
0.0
 11
-132.0
 21
82.999908447300001
 31
0.0
  0
LINE
  5
259
  8
LAYER1$C$L1
 62
     3
 10
-131.0000152588
 20
93.999908447300001
 30
0.0
 11
-131.0000152588
 21
81.999908447300015
 31
0.0
  0
LINE
  5
25A
  8
LAYER1$C$L1
 62
     3
 10
-133.0
 20
75.999908447300001
 30
0.0
 11
-146.5
 21
75.999908447300001
 31
0.0
  0
LINE
  5
25B
  8
LAYER1$C$L1
 62
     3
 10
-133.0
 20
75.499908447300001
 30
0.0
 11
-146.5
 21
75.499908447300001
 31
0.0
  0
LINE
  5
25C
  8
LAYER1$C$L1
 62
     3
 10
-132.49999999999989
 20
82.499908447300001
 30
0.0
 11
-132.49999999999989
 21
75.999908447300001
 31
0.0
  0
LINE
  5
25D
  8
LAYER1$C$L1
 62
     3
 10
-146.5
 20
93.999908447300001
 30
0.0
 11
-146.5
 21
75.499908447300001
 31
0.0
  0
LINE
  5
25E
  8
LAYER1$C$L1
 62
     3
 10
-121.120010376
 20
96.099914550799994
 30
0.0
 11
-120.0
 21
96.099914550799994
 31
0.0
  0
LINE
  5
25F
  8
LAYER1$C$L1
 62
     3
 10
-122.5066833495999
 20
98.699920654300001
 30
0.0
 11
-120.0
 21
98.699920654300001
 31
0.0
  0
LINE
  5
260
  8
LAYER1$C$L1
 62
     3
 10
-123.7333526610999
 20
100.9999084473
 30
0.0
 11
-120.0
 21
100.9999084473
 31
0.0
  0
LINE
  5
261
  8
LAYER1$C$L1
 62
     3
 10
-124.8000030518
 20
102.9999084473
 30
0.0
 11
-120.0
 21
102.9999084473
 31
0.0
  0
LINE
  5
262
  8
LAYER1$C$L1
 62
     3
 10
-124.8000030518
 20
104.6999206543
 30
0.0
 11
-120.0
 21
104.6999206543
 31
0.0
  0
LINE
  5
263
  8
LAYER1$C$L1
 62
     3
 10
-124.8000030518
 20
106.09991455079989
 30
0.0
 11
-120.0
 21
106.09991455079989
 31
0.0
  0
LINE
  5
264
  8
LAYER1$C$L1
 62
     3
 10
-124.8000030518
 20
107.1999206542999
 30
0.0
 11
-120.0
 21
107.1999206542999
 31
0.0
  0
LINE
  5
265
  8
LAYER1$C$L1
 62
     3
 10
-124.8000030518
 20
107.9999084473
 30
0.0
 11
-120.0
 21
107.9999084473
 31
0.0
  0
LINE
  5
266
  8
LAYER1$C$L1
 62
     3
 10
-127.3000030518
 20
107.9999084473
 30
0.0
 11
-124.8000030518
 21
107.9999084473
 31
0.0
  0
LINE
  5
267
  8
LAYER1$C$L1
 62
     3
 10
-124.8000030518
 20
108.4999084472999
 30
0.0
 11
-120.0
 21
108.4999084472999
 31
0.0
  0
LINE
  5
268
  8
LAYER1$C$L1
 62
     3
 10
-124.8000030518
 20
108.4999084472999
 30
0.0
 11
-124.8000030518
 21
93.999908447300001
 31
0.0
  0
LINE
  5
269
  8
LAYER1$C$L1
 62
     3
 10
-127.3000030518
 20
107.9999084473
 30
0.0
 11
-127.3000030518
 21
93.999908447300001
 31
0.0
  0
LINE
  5
26A
  8
LAYER1$C$L1
 62
     3
 10
-120.0
 20
108.4999084472999
 30
0.0
 11
-120.0
 21
93.999908447300001
 31
0.0
  0
LINE
  5
26B
  8
LAYER1$C$L1
 62
     3
 10
-131.0000152588
 20
105.1999206542999
 30
0.0
 11
-127.3000030518
 21
105.1999206542999
 31
0.0
  0
LINE
  5
26C
  8
LAYER1$C$L1
 62
     3
 10
-132.49999999999989
 20
105.4999084472999
 30
0.0
 11
-132.49999999999989
 21
93.999908447300001
 31
0.0
  0
LINE
  5
26D
  8
LAYER1$C$L1
 62
     3
 10
-132.0
 20
104.9999084473
 30
0.0
 11
-131.0000152588
 21
104.9999084473
 31
0.0
  0
LINE
  5
26E
  8
LAYER1$C$L1
 62
     3
 10
-131.0000152588
 20
105.9999084473
 30
0.0
 11
-127.3000030518
 21
105.9999084473
 31
0.0
  0
LINE
  5
26F
  8
LAYER1$C$L1
 62
     3
 10
-131.0000152588
 20
105.9999084473
 30
0.0
 11
-131.0000152588
 21
93.999908447300001
 31
0.0
  0
LINE
  5
270
  8
LAYER1$C$L1
 62
     3
 10
-146.5
 20
111.9999084473
 30
0.0
 11
-133.0
 21
111.9999084473
 31
0.0
  0
LINE
  5
271
  8
LAYER1$C$L1
 62
     3
 10
-146.5
 20
112.4999084473
 30
0.0
 11
-133.0
 21
112.4999084473
 31
0.0
  0
LINE
  5
272
  8
LAYER1$C$L1
 62
     3
 10
-132.49999999999989
 20
111.9999084473
 30
0.0
 11
-132.49999999999989
 21
105.4999084472999
 31
0.0
  0
LINE
  5
273
  8
LAYER1$C$L1
 62
     3
 10
-146.5
 20
112.4999084473
 30
0.0
 11
-146.5
 21
93.999908447300001
 31
0.0
  0
LINE
  5
274
  8
LAYER1$C$L1
  6
CENTER
 62
     3
 10
-172.66117858889999
 20
93.999938964799995
 30
0.0
 11
-66.000015258800005
 21
93.999938964799995
 31
0.0
  0
DIMENSION
  5
28E
  8
DIMENSIONS
  2
*D28
 10
-166.5
 20
136.87243318424251
 30
0.0
 11
-141.42800819491609
 21
136.87243318424251
 31
0.0
 70
   128
 13
-118.0
 23
155.49999999999989
 33
0.0
 14
-166.5
 24
154.29994201659991
 34
0.0
 50
180.0
1001
ACAD
1000
DSTYLE
1002
{
1070
    41
1040
1.972787845999999
1070
    42
1040
2.5399999618999991
1070
    44
1040
3.8099999427999989
1070
    73
1070
     0
1070
   140
1040
2.9999940394999989
1070
   271
1070
     1
1070
   272
1070
     1
1002
}
  0
LINE
  5
2DC
  8
LAYER1$C$L1
  6
PHANTOM
 62
     3
 10
-156.5999908446999
 20
165.17631530759991
 30
0.0
 11
-156.5999908446999
 21
167.5297088623
 31
0.0
  0
LINE
  5
2DD
  8
LAYER1$C$L1
  6
PHANTOM
 62
     3
 10
-156.0999908446999
 20
164.69999694820001
 30
0.0
 11
-156.0999908446999
 21
167.89994812009999
 31
0.0
  0
LINE
  5
2DE
  8
LAYER1$C$L1
  6
PHANTOM
 62
     3
 10
-156.0999908446999
 20
167.8999633789
 30
0.0
 11
-160.59996032709989
 21
167.8999633789
 31
0.0
  0
LINE
  5
2DF
  8
LAYER1$C$L1
  6
PHANTOM
 62
     3
 10
-156.0999908446999
 20
164.70001220699999
 30
0.0
 11
-160.59996032709989
 21
164.70001220699999
 31
0.0
  0
LINE
  5
2E1
  8
LAYER1$C$L1
  6
PHANTOM
 62
     3
 10
-161.59996032709989
 20
168.99993896480001
 30
0.0
 11
-170.0
 21
168.99993896480001
 31
0.0
  0
TEXT
  5
2EF
  8
LAYER8$C$L8
 62
     3
 10
-141.4999847412
 20
182.81660836539999
 30
0.0
 40
3.5
  1
TW
 50
270.0
 41
0.9333343142285702
 72
     5
 11
-141.4999847412
 21
176.2832681658
 31
0.0
  0
POLYLINE
  5
2F0
  8
LAYER1$C$L1
 62
     3
 66
     1
 10
0.0
 20
0.0
 30
0.0
  0
VERTEX
  5
806
  8
LAYER1$C$L1
 62
     3
 10
-159.5497131347999
 20
156.35006713870001
 30
0.0
  0
VERTEX
  5
807
  8
LAYER1$C$L1
 62
     3
 10
-159.36903771429991
 20
156.37933520990001
 30
0.0
  0
VERTEX
  5
808
  8
LAYER1$C$L1
 62
     3
 10
-159.19138402019999
 20
156.4666499265999
 30
0.0
  0
VERTEX
  5
809
  8
LAYER1$C$L1
 62
     3
 10
-159.01972324159991
 20
156.6105509837999
 30
0.0
  0
VERTEX
  5
80A
  8
LAYER1$C$L1
 62
     3
 10
-158.85692633830001
 20
156.80863169229991
 30
0.0
  0
VERTEX
  5
80B
  8
LAYER1$C$L1
 62
     3
 10
-158.7057160256
 20
157.057579229
 30
0.0
  0
VERTEX
  5
80C
  8
LAYER1$C$L1
 62
     3
 10
-158.5686212370999
 20
157.35323004290001
 30
0.0
  0
VERTEX
  5
80D
  8
LAYER1$C$L1
 62
     3
 10
-158.4479348301
 20
157.6906394888999
 30
0.0
  0
VERTEX
  5
80E
  8
LAYER1$C$L1
 62
     3
 10
-158.34567523789991
 20
158.06416452469989
 30
0.0
  0
VERTEX
  5
80F
  8
LAYER1$C$L1
 62
     3
 10
-158.2635527125999
 20
158.46755808910001
 30
0.0
  0
VERTEX
  5
810
  8
LAYER1$C$L1
 62
     3
 10
-158.2029407215
 20
158.89407358119999
 30
0.0
  0
VERTEX
  5
811
  8
LAYER1$C$L1
 62
     3
 10
-158.1648529766
 20
159.33657769469991
 30
0.0
  0
VERTEX
  5
812
  8
LAYER1$C$L1
 62
     3
 10
-158.14992648079991
 20
159.78766972
 30
0.0
  0
VERTEX
  5
813
  8
LAYER1$C$L1
 62
     3
 10
-158.15841087379999
 20
160.23980531789999
 30
0.0
  0
VERTEX
  5
814
  8
LAYER1$C$L1
 62
     3
 10
-158.19016425759989
 20
160.6854226959
 30
0.0
  0
VERTEX
  5
815
  8
LAYER1$C$L1
 62
     3
 10
-158.24465556899989
 20
161.1170690763
 30
0.0
  0
VERTEX
  5
816
  8
LAYER1$C$L1
 62
     3
 10
-158.32097346200001
 20
161.52752534059991
 30
0.0
  0
VERTEX
  5
817
  8
LAYER1$C$L1
 62
     3
 10
-158.4178415495
 20
161.90992676720001
 30
0.0
  0
VERTEX
  5
818
  8
LAYER1$C$L1
 62
     3
 10
-158.53363975030001
 20
162.25787784030001
 30
0.0
  0
VERTEX
  5
819
  8
LAYER1$C$L1
 62
     3
 10
-158.66643138430001
 20
162.56555921340001
 30
0.0
  0
VERTEX
  5
81A
  8
LAYER1$C$L1
 62
     3
 10
-158.81399556299991
 20
162.82782503469991
 30
0.0
  0
VERTEX
  5
81B
  8
LAYER1$C$L1
 62
     3
 10
-158.97386433279999
 20
163.04028901009991
 30
0.0
  0
VERTEX
  5
81C
  8
LAYER1$C$L1
 62
     3
 10
-159.14336395039999
 20
163.19939776199999
 30
0.0
  0
VERTEX
  5
81D
  8
LAYER1$C$L1
 62
     3
 10
-159.3196596004999
 20
163.30249025840001
 30
0.0
  0
VERTEX
  5
81E
  8
LAYER1$C$L1
 62
     3
 10
-159.49980280680001
 20
163.34784231699999
 30
0.0
  0
SEQEND
  5
81F
  8
LAYER1$C$L1
 62
     3
  0
POLYLINE
  5
30B
  8
LAYER1$C$L1
 62
     3
 66
     1
 10
0.0
 20
0.0
 30
0.0
  0
VERTEX
  5
820
  8
LAYER1$C$L1
 62
     3
 10
-162.0838487730999
 20
157.36074669029989
 30
0.0
  0
VERTEX
  5
821
  8
LAYER1$C$L1
 62
     3
 10
-161.9558484522
 20
157.08078118299991
 30
0.0
  0
VERTEX
  5
822
  8
LAYER1$C$L1
 62
     3
 10
-161.8152135695
 20
156.8416840273
 30
0.0
  0
VERTEX
  5
823
  8
LAYER1$C$L1
 62
     3
 10
-161.66401957549999
 20
156.64698375250001
 30
0.0
  0
VERTEX
  5
824
  8
LAYER1$C$L1
 62
     3
 10
-161.50449774910001
 20
156.49955369109989
 30
0.0
  0
VERTEX
  5
825
  8
LAYER1$C$L1
 62
     3
 10
-161.33900226899991
 20
156.401569575
 30
0.0
  0
VERTEX
  5
826
  8
LAYER1$C$L1
 62
     3
 10
-161.16997547150001
 20
156.3544774264
 30
0.0
  0
VERTEX
  5
827
  8
LAYER1$C$L1
 62
     3
 10
-160.99991180699999
 20
156.35897221819991
 30
0.0
  0
VERTEX
  5
828
  8
LAYER1$C$L1
 62
     3
 10
-160.83132102779999
 20
156.4149876175
 30
0.0
  0
VERTEX
  5
829
  8
LAYER1$C$L1
 62
     3
 10
-160.6666911495999
 20
156.52169696469991
 30
0.0
  0
VERTEX
  5
82A
  8
LAYER1$C$L1
 62
     3
 10
-160.5084517345
 20
156.6775254728
 30
0.0
  0
VERTEX
  5
82B
  8
LAYER1$C$L1
 62
     3
 10
-160.3589380356
 20
156.88017346809991
 30
0.0
  0
VERTEX
  5
82C
  8
LAYER1$C$L1
 62
     3
 10
-160.2203565346
 20
157.12665032789999
 30
0.0
  0
SEQEND
  5
82D
  8
LAYER1$C$L1
 62
     3
  0
POLYLINE
  5
31A
  8
LAYER1$C$L1
 62
     3
 66
     1
 10
0.0
 20
0.0
 30
0.0
  0
VERTEX
  5
82E
  8
LAYER1$C$L1
 62
     3
 10
-160.28365001739991
 20
162.69395334509991
 30
0.0
  0
VERTEX
  5
82F
  8
LAYER1$C$L1
 62
     3
 10
-160.43652646399991
 20
162.93245212939999
 30
0.0
  0
VERTEX
  5
830
  8
LAYER1$C$L1
 62
     3
 10
-160.60039036680001
 20
163.11988321899989
 30
0.0
  0
VERTEX
  5
831
  8
LAYER1$C$L1
 62
     3
 10
-160.77252689580001
 20
163.2531413321
 30
0.0
  0
VERTEX
  5
832
  8
LAYER1$C$L1
 62
     3
 10
-160.95008416319999
 20
163.33001870299989
 30
0.0
  0
VERTEX
  5
833
  8
LAYER1$C$L1
 62
     3
 10
-161.13012047279989
 20
163.34924165859991
 30
0.0
  0
VERTEX
  5
834
  8
LAYER1$C$L1
 62
     3
 10
-161.30965305660001
 20
163.3104917208999
 30
0.0
  0
VERTEX
  5
835
  8
LAYER1$C$L1
 62
     3
 10
-161.48570749219991
 20
163.21441088299991
 30
0.0
  0
VERTEX
  5
836
  8
LAYER1$C$L1
 62
     3
 10
-161.65536698159991
 20
163.0625909730999
 30
0.0
  0
VERTEX
  5
837
  8
LAYER1$C$L1
 62
     3
 10
-161.81582067569991
 20
162.8575472812
 30
0.0
  0
VERTEX
  5
838
  8
LAYER1$C$L1
 62
     3
 10
-161.96441024329991
 20
162.60267688760001
 30
0.0
  0
VERTEX
  5
839
  8
LAYER1$C$L1
 62
     3
 10
-162.0986739132
 20
162.30220238070001
 30
0.0
  0
VERTEX
  5
83A
  8
LAYER1$C$L1
 62
     3
 10
-162.2163872596999
 20
161.9611018992
 30
0.0
  0
VERTEX
  5
83B
  8
LAYER1$C$L1
 62
     3
 10
-162.3156000562999
 20
161.58502665669999
 30
0.0
  0
VERTEX
  5
83C
  8
LAYER1$C$L1
 62
     3
 10
-162.39466858590001
 20
161.18020731399989
 30
0.0
  0
VERTEX
  5
83D
  8
LAYER1$C$L1
 62
     3
 10
-162.45228287340001
 20
160.75335075250001
 30
0.0
  0
VERTEX
  5
83E
  8
LAYER1$C$L1
 62
     3
 10
-162.4874883889
 20
160.3115289573
 30
0.0
  0
VERTEX
  5
83F
  8
LAYER1$C$L1
 62
     3
 10
-162.49970186169989
 20
159.8620618512999
 30
0.0
  0
VERTEX
  5
840
  8
LAYER1$C$L1
 62
     3
 10
-162.48872094399991
 20
159.4123960217
 30
0.0
  0
VERTEX
  5
841
  8
LAYER1$C$L1
 62
     3
 10
-162.45472756320001
 20
158.96998134840001
 30
0.0
  0
VERTEX
  5
842
  8
LAYER1$C$L1
 62
     3
 10
-162.39828490779999
 20
158.54214757669999
 30
0.0
  0
VERTEX
  5
843
  8
LAYER1$C$L1
 62
     3
 10
-162.32032809649991
 20
158.13598288179989
 30
0.0
  0
SEQEND
  5
844
  8
LAYER1$C$L1
 62
     3
  0
ARC
  5
332
  8
LAYER1$C$L1
 62
     3
 10
-147.0
 20
154.7999420166
 30
0.0
 40
0.5
 50
270.00001798609998
 51
0.0
  0
ARC
  5
333
  8
LAYER1$C$L1
 62
     3
 10
-166.2997131347999
 20
154.49995422360001
 30
0.0
 40
0.1999999881
 50
180.00003597220001
 51
270.00001798609998
  0
ARC
  5
334
  8
LAYER1$C$L1
 62
     3
 10
-161.62037658689999
 20
157.5482635498
 30
0.0
 40
0.5
 50
149.99980609859989
 51
202.03470070540001
  0
ARC
  5
335
  8
LAYER1$C$L1
 62
     3
 10
-159.55937194820001
 20
160.91801452639999
 30
0.0
 40
0.5
 50
89.999818089400023
 51
149.99986074020001
  0
ARC
  5
336
  8
LAYER1$C$L1
 62
     3
 10
-159.78407287600001
 20
161.72882080080001
 30
0.0
 40
0.5
 50
89.999927372399995
 51
149.99991538169991
  0
ARC
  5
337
  8
LAYER1$C$L1
 62
     3
 10
-157.5997161864999
 20
161.60006713870001
 30
0.0
 40
0.5
 50
179.9999093863
 51
269.9999460416999
  0
ARC
  5
338
  8
LAYER1$C$L1
 62
     3
 10
-157.5997161864999
 20
158.10006713870001
 30
0.0
 40
0.5
 50
89.999927372399995
 51
179.99985474479999
  0
ARC
  5
339
  8
LAYER1$C$L1
 62
     3
 10
-160.30410766599999
 20
160.19892883299991
 30
0.0
 40
3.2500247954999999
 50
71.506015402100005
 51
110.5385247727
  0
ARC
  5
33A
  8
LAYER1$C$L1
 62
     3
 10
-160.30410766599999
 20
159.5012207030999
 30
0.0
 40
3.2500324249000001
 50
255.83005289249991
 51
288.49518671120001
  0
ARC
  5
33D
  8
LAYER1$C$L1
 62
     3
 10
-126.3000030518
 20
168.99995422360001
 30
0.0
 40
1.0
 50
180.0000906137
 51
270.00007262759988
  0
ARC
  5
33E
  8
LAYER1$C$L1
 62
     3
 10
-133.0
 20
154.69995117190001
 30
0.0
 40
0.5
 50
270.00007262759988
 51
0.0
  0
ARC
  5
33F
  8
LAYER1$C$L1
 62
     3
 10
-132.0
 20
157.49995422360001
 30
0.0
 40
0.5
 50
89.999927372399995
 51
179.9999640277999
  0
ARC
  5
340
  8
LAYER1$C$L1
 62
     3
 10
-126.3000030518
 20
168.99995422360001
 30
0.0
 40
1.0
 50
89.999927372399995
 51
179.9999093863
  0
ARC
  5
341
  8
LAYER1$C$L1
 62
     3
 10
-132.9999847412
 20
183.29994201659991
 30
0.0
 40
0.5
 50
0.0
 51
89.999927372399995
  0
ARC
  5
342
  8
LAYER1$C$L1
 62
     3
 10
-131.9999847412
 20
180.49995422360001
 30
0.0
 40
0.5
 50
179.9999093863
 51
269.9999460416999
  0
LINE
  5
343
  8
LAYER1$C$L1
 62
     3
 10
-135.00109863279991
 20
173.09996032709989
 30
0.0
 11
-135.00109863279991
 21
170.0999450683999
 31
0.0
  0
LINE
  5
344
  8
LAYER1$C$L1
 62
     3
 10
-134.99993896480001
 20
173.09996032709989
 30
0.0
 11
-146.5
 21
173.09996032709989
 31
0.0
  0
LINE
  5
345
  8
LAYER1$C$L1
 62
     3
 10
-135.00109863279991
 20
170.0999450683999
 30
0.0
 11
-146.5
 21
170.0999450683999
 31
0.0
  0
LINE
  5
346
  8
LAYER1$C$L1
 62
     3
 10
-156.50000216879999
 20
174.299942923
 30
0.0
 11
-148.4999940820999
 21
179.29994804750001
 31
0.0
  0
LINE
  5
347
  8
LAYER1$C$L1
 62
     3
 10
-148.5
 20
183.69993591310001
 30
0.0
 11
-146.5
 21
183.69993591310001
 31
0.0
  0
LINE
  5
348
  8
LAYER1$C$L1
 62
     3
 10
-148.5
 20
183.69993591310001
 30
0.0
 11
-148.5
 21
174.29994201659991
 31
0.0
  0
LINE
  5
349
  8
LAYER1$C$L1
 62
     3
 10
-161.74999999999989
 20
173.19993591310001
 30
0.0
 11
-161.74999999999989
 21
170.0999450683999
 31
0.0
  0
LINE
  5
34A
  8
LAYER1$C$L1
 62
     3
 10
-164.0
 20
173.19993591310001
 30
0.0
 11
-164.0
 21
170.0999450683999
 31
0.0
  0
LINE
  5
34B
  8
LAYER1$C$L1
 62
     3
 10
-159.49999999999989
 20
170.0999450683999
 30
0.0
 11
-159.49999999999989
 21
168.99993896480001
 31
0.0
  0
LINE
  5
34C
  8
LAYER1$C$L1
 62
     3
 10
-158.49999999999989
 20
173.19993591310001
 30
0.0
 11
-158.49999999999989
 21
168.99993896480001
 31
0.0
  0
LINE
  5
34D
  8
LAYER1$C$L1
 62
     3
 10
-166.5
 20
170.0999450683999
 30
0.0
 11
-159.49999999999989
 21
170.0999450683999
 31
0.0
  0
LINE
  5
34E
  8
LAYER1$C$L1
 62
     3
 10
-146.5
 20
174.29994201659991
 30
0.0
 11
-166.5
 21
174.29994201659991
 31
0.0
  0
LINE
  5
34F
  8
LAYER1$C$L1
 62
     3
 10
-166.5
 20
173.19993591310001
 30
0.0
 11
-151.5
 21
173.19993591310001
 31
0.0
  0
LINE
  5
350
  8
LAYER1$C$L1
 62
     3
 10
-146.5
 20
183.69993591310001
 30
0.0
 11
-146.5
 21
173.09996032709989
 31
0.0
  0
LINE
  5
351
  8
LAYER1$C$L1
 62
     3
 10
-154.80000305179991
 20
168.99993896480001
 30
0.0
 11
-154.80000305179991
 21
173.19993591310001
 31
0.0
  0
LINE
  5
352
  8
LAYER1$C$L1
 62
     3
 10
-151.5
 20
168.99993896480001
 30
0.0
 11
-151.5
 21
173.19993591310001
 31
0.0
  0
LINE
  5
353
  8
LAYER1$C$L1
 62
     3
 10
-166.5
 20
174.29994201659991
 30
0.0
 11
-166.5
 21
168.99993896480001
 31
0.0
  0
LINE
  5
354
  8
LAYER1$C$L1
 62
     3
 10
-135.00109863279991
 20
164.89991760250001
 30
0.0
 11
-135.00109863279991
 21
167.8999328612999
 31
0.0
  0
LINE
  5
355
  8
LAYER1$C$L1
 62
     3
 10
-146.49995422360001
 20
154.7999420166
 30
0.0
 11
-146.49995422360001
 21
164.89990234379991
 31
0.0
  0
LINE
  5
356
  8
LAYER1$C$L1
 62
     3
 10
-134.99993896480001
 20
164.89991760250001
 30
0.0
 11
-146.4999389647999
 21
164.89991760250001
 31
0.0
  0
LINE
  5
357
  8
LAYER1$C$L1
 62
     3
 10
-135.00109863279991
 20
167.8999328612999
 30
0.0
 11
-146.49995422360001
 21
167.8999328612999
 31
0.0
  0
LINE
  5
358
  8
LAYER1$C$L1
 62
     3
 10
-146.5
 20
170.0999450683999
 30
0.0
 11
-146.5
 21
167.89990234379991
 31
0.0
  0
LINE
  5
359
  8
LAYER1$C$L1
 62
     3
 10
-159.49999999999989
 20
168.99984741209991
 30
0.0
 11
-159.49999999999989
 21
167.8999633789
 31
0.0
  0
LINE
  5
35A
  8
LAYER1$C$L1
 62
     3
 10
-158.47924804690001
 20
168.99984741209991
 30
0.0
 11
-158.47924804690001
 21
164.7999572754
 31
0.0
  0
LINE
  5
35B
  8
LAYER1$C$L1
 62
     3
 10
-161.58567810060001
 20
167.8999633789
 30
0.0
 11
-161.58567810060001
 21
164.7999572754
 31
0.0
  0
LINE
  5
35C
  8
LAYER1$C$L1
 62
     3
 10
-164.0
 20
167.8999633789
 30
0.0
 11
-164.0
 21
164.7999572754
 31
0.0
  0
LINE
  5
35D
  8
LAYER1$C$L1
 62
     3
 10
-164.42581176760001
 20
163.69999694820001
 30
0.0
 11
-164.42581176760001
 21
154.29992675779991
 31
0.0
  0
LINE
  5
35E
  8
LAYER1$C$L1
 62
     3
 10
-155.66107177730001
 20
162.69984436039999
 30
0.0
 11
-146.49966430660001
 21
162.69984436039999
 31
0.0
  0
LINE
  5
35F
  8
LAYER1$C$L1
 62
     3
 10
-157.99961853030001
 20
155.5999298095999
 30
0.0
 11
-157.99961853030001
 21
154.29994201659991
 31
0.0
  0
LINE
  5
360
  8
LAYER1$C$L1
 62
     3
 10
-155.66107177730001
 20
155.59986877439999
 30
0.0
 11
-160.49961853030001
 21
155.59986877439999
 31
0.0
  0
LINE
  5
361
  8
LAYER1$C$L1
 62
     3
 10
-146.99996948239991
 20
154.29988098139989
 30
0.0
 11
-166.49964904789999
 21
154.29988098139989
 31
0.0
  0
LINE
  5
362
  8
LAYER1$C$L1
 62
     3
 10
-155.66108703610001
 20
154.29986572269991
 30
0.0
 11
-155.66108703610001
 21
163.6999664306999
 31
0.0
  0
LINE
  5
363
  8
LAYER1$C$L1
 62
     3
 10
-160.49967956539999
 20
163.70002746579991
 30
0.0
 11
-160.49967956539999
 21
163.44305419919991
 31
0.0
  0
LINE
  5
364
  8
LAYER1$C$L1
 62
     3
 10
-160.49967956539999
 20
156.25706481930001
 30
0.0
 11
-160.49967956539999
 21
154.30001831049989
 31
0.0
  0
LINE
  5
365
  8
LAYER1$C$L1
 62
     3
 10
-160.1147207226
 20
158.44269011619991
 30
0.0
 11
-160.63849385349999
 21
159.34989194490001
 31
0.0
  0
LINE
  5
366
  8
LAYER1$C$L1
 62
     3
 10
-160.92716722
 20
159.84988896749991
 30
0.0
 11
-161.83879583449999
 21
161.42887631389991
 31
0.0
  0
LINE
  5
367
  8
LAYER1$C$L1
 62
     3
 10
-161.9168250171999
 20
158.1357141245999
 30
0.0
 11
-160.92717822360001
 21
159.8498329443
 31
0.0
  0
LINE
  5
368
  8
LAYER1$C$L1
 62
     3
 10
-160.63845825199999
 20
160.34996032709989
 30
0.0
 11
-161.15730285639989
 21
160.34996032709989
 31
0.0
  0
LINE
  5
369
  8
LAYER1$C$L1
 62
     3
 10
-160.9271392821999
 20
159.84997558590001
 30
0.0
 11
-161.33052062990001
 21
159.84997558590001
 31
0.0
  0
LINE
  5
36A
  8
LAYER1$C$L1
 62
     3
 10
-160.6384429931999
 20
159.34997558590001
 30
0.0
 11
-161.15730285639989
 21
159.34997558590001
 31
0.0
  0
LINE
  5
36B
  8
LAYER1$C$L1
 62
     3
 10
-160.63849722769999
 20
160.3498431813999
 30
0.0
 11
-159.5538034482999
 21
162.22858823749991
 31
0.0
  0
LINE
  5
36C
  8
LAYER1$C$L1
 62
     3
 10
-159.55376834169991
 20
162.22867607750001
 30
0.0
 11
-159.3290641099
 21
161.41786732619991
 31
0.0
  0
LINE
  5
36D
  8
LAYER1$C$L1
 62
     3
 10
-159.55377197269991
 20
162.2286987304999
 30
0.0
 11
-159.78393554690001
 21
162.2286987304999
 31
0.0
  0
LINE
  5
36E
  8
LAYER1$C$L1
 62
     3
 10
-159.32908630369991
 20
161.41789245609999
 30
0.0
 11
-159.55923461910001
 21
161.41789245609999
 31
0.0
  0
LINE
  5
36F
  8
LAYER1$C$L1
 62
     3
 10
-161.85829162600001
 20
158.13581848139989
 30
0.0
 11
-162.32019042970001
 21
158.13581848139989
 31
0.0
  0
LINE
  5
370
  8
LAYER1$C$L1
 62
     3
 10
-160.05817142309991
 20
158.64619595299999
 30
0.0
 11
-160.28288945569989
 21
157.83543853649991
 31
0.0
  0
LINE
  5
371
  8
LAYER1$C$L1
 62
     3
 10
-161.8197650162999
 20
161.49730328140001
 30
0.0
 11
-161.96950668599999
 21
160.9566521452
 31
0.0
  0
LINE
  5
372
  8
LAYER1$C$L1
 62
     3
 10
-160.75320308120001
 20
159.84983617410001
 30
0.0
 11
-159.9922855083
 21
161.1677842947999
 31
0.0
  0
LINE
  5
373
  8
LAYER1$C$L1
 62
     3
 10
-161.15733191929991
 20
160.34984622709999
 30
0.0
 11
-160.21697863790001
 21
161.9785861647
 31
0.0
  0
LINE
  5
374
  8
LAYER1$C$L1
 62
     3
 10
-160.05829723279999
 20
158.64626183839999
 30
0.0
 11
-160.75320529209989
 21
159.8498781083
 31
0.0
  0
LINE
  5
375
  8
LAYER1$C$L1
 62
     3
 10
-160.28301325059991
 20
157.83549961200001
 30
0.0
 11
-161.1573493889999
 21
159.34989448429991
 31
0.0
  0
LINE
  5
376
  8
LAYER1$C$L1
 62
     3
 10
-161.15735052950001
 20
160.34989659559989
 30
0.0
 11
-161.81982603649999
 21
161.49733802750001
 31
0.0
  0
LINE
  5
377
  8
LAYER1$C$L1
 62
     3
 10
-161.3305585139
 20
159.84988325660001
 30
0.0
 11
-161.96957363550001
 21
160.9566901023
 31
0.0
  0
LINE
  5
378
  8
LAYER1$C$L1
 62
     3
 10
-162.3202030967
 20
158.13571220610001
 30
0.0
 11
-161.3305563029999
 21
159.84983102579989
 31
0.0
  0
LINE
  5
379
  8
LAYER1$C$L1
 62
     3
 10
-162.05326038219999
 20
157.7980522096
 30
0.0
 11
-161.1573330597999
 21
159.3498441159
 31
0.0
  0
LINE
  5
37A
  8
LAYER1$C$L1
 62
     3
 10
-157.59959411619991
 20
161.0999450683999
 30
0.0
 11
-157.59959411619991
 21
158.59996032709989
 31
0.0
  0
LINE
  5
37B
  8
LAYER1$C$L1
 62
     3
 10
-158.0995941162
 20
161.84994506839999
 30
0.0
 11
-158.0995941162
 21
161.5999450683999
 31
0.0
  0
LINE
  5
37C
  8
LAYER1$C$L1
 62
     3
 10
-156.94110107419991
 20
158.16296386720001
 30
0.0
 11
-156.94110107419991
 21
158.5998535155999
 31
0.0
  0
LINE
  5
37D
  8
LAYER1$C$L1
 62
     3
 10
-156.39950561520001
 20
161.09983825680001
 30
0.0
 11
-157.5995178222999
 21
161.09983825680001
 31
0.0
  0
LINE
  5
37E
  8
LAYER1$C$L1
 62
     3
 10
-156.39950561520001
 20
158.5998535155999
 30
0.0
 11
-157.5995178222999
 21
158.5998535155999
 31
0.0
  0
LINE
  5
37F
  8
LAYER1$C$L1
 62
     3
 10
-156.94110107419991
 20
161.0998535155999
 30
0.0
 11
-156.94110107419991
 21
161.5367431640999
 31
0.0
  0
LINE
  5
380
  8
LAYER1$C$L1
 62
     3
 10
-156.9411951861
 20
161.5367947096
 30
0.0
 11
-156.44119797299999
 21
163.38678483219991
 31
0.0
  0
LINE
  5
381
  8
LAYER1$C$L1
 62
     3
 10
-156.44112687919991
 20
156.3130051613999
 30
0.0
 11
-156.9411279592
 21
158.16301012849999
 31
0.0
  0
LINE
  5
382
  8
LAYER1$C$L1
 62
     3
 10
-157.4914319248
 20
155.59984094839999
 30
0.0
 11
-158.0995611447
 21
157.84992024269991
 31
0.0
  0
LINE
  5
383
  8
LAYER1$C$L1
 62
     3
 10
-158.09962830000001
 20
161.849884667
 30
0.0
 11
-157.59963108689999
 21
163.6998747895
 31
0.0
  0
LINE
  5
384
  8
LAYER1$C$L1
 62
     3
 10
-158.0995941162
 20
158.09996032709989
 30
0.0
 11
-158.0995941162
 21
157.84996032709989
 31
0.0
  0
LINE
  5
385
  8
LAYER1$C$L1
 62
     3
 10
-156.3995971679999
 20
163.69995117190001
 30
0.0
 11
-156.3995971679999
 21
155.5998535155999
 31
0.0
  0
LINE
  5
386
  8
LAYER1$C$L1
 62
     3
 10
-146.4999847412
 20
163.6999664306999
 30
0.0
 11
-166.5
 21
163.6999664306999
 31
0.0
  0
LINE
  5
387
  8
LAYER1$C$L1
 62
     3
 10
-147.0
 20
154.29988098139989
 30
0.0
 11
-166.49996948239999
 21
154.29988098139989
 31
0.0
  0
LINE
  5
388
  8
LAYER1$C$L1
 62
     3
 10
-166.5
 20
168.99984741209991
 30
0.0
 11
-166.5
 21
154.29994201659991
 31
0.0
  0
LINE
  5
389
  8
LAYER1$C$L1
 62
     3
 10
-154.7999877929999
 20
164.7999572754
 30
0.0
 11
-154.7999877929999
 21
168.99992370609999
 31
0.0
  0
LINE
  5
38A
  8
LAYER1$C$L1
 62
     3
 10
-151.5
 20
164.7999572754
 30
0.0
 11
-151.5
 21
168.99992370609999
 31
0.0
  0
LINE
  5
38B
  8
LAYER1$C$L1
 62
     3
 10
-151.5
 20
164.7999572754
 30
0.0
 11
-166.5
 21
164.7999572754
 31
0.0
  0
LINE
  5
38C
  8
LAYER1$C$L1
 62
     3
 10
-151.5000152588
 20
164.7999572754
 30
0.0
 11
-166.50003051760001
 21
164.7999572754
 31
0.0
  0
LINE
  5
38D
  8
LAYER1$C$L1
 62
     3
 10
-154.80001831049989
 20
164.7999572754
 30
0.0
 11
-154.80001831049989
 21
168.99992370609999
 31
0.0
  0
LINE
  5
38E
  8
LAYER1$C$L1
 62
     3
 10
-151.50003051760001
 20
164.7999572754
 30
0.0
 11
-151.50003051760001
 21
168.99992370609999
 31
0.0
  0
LINE
  5
38F
  8
LAYER1$C$L1
 62
     3
 10
-166.5001373291
 20
167.8999633789
 30
0.0
 11
-159.49999999999989
 21
167.8999633789
 31
0.0
  0
LINE
  5
390
  8
LAYER1$C$L1
 62
     3
 10
-166.5
 20
168.99993896480001
 30
0.0
 11
-146.5
 21
168.99993896480001
 31
0.0
  0
LINE
  5
393
  8
LAYER1$C$L1
 62
     3
 10
-166.4999847412
 20
165.3499298095999
 30
0.0
 11
-166.4999847412
 21
172.64993286129999
 31
0.0
  0
LINE
  5
395
  8
LAYER1$C$L1
 62
     3
 10
-146.5
 20
170.0999298095999
 30
0.0
 11
-146.5
 21
167.8999328612999
 31
0.0
  0
LINE
  5
396
  8
LAYER1$C$L1
 62
     3
 10
-146.5
 20
164.79992675779999
 30
0.0
 11
-146.5
 21
154.19993591310001
 31
0.0
  0
LINE
  5
397
  8
LAYER1$C$L1
 62
     3
 10
-123.6800079345999
 20
166.89994812009999
 30
0.0
 11
-124.8000030518
 21
166.89994812009999
 31
0.0
  0
LINE
  5
398
  8
LAYER1$C$L1
 62
     3
 10
-122.2933502196999
 20
164.2999420166
 30
0.0
 11
-124.8000030518
 21
164.2999420166
 31
0.0
  0
LINE
  5
399
  8
LAYER1$C$L1
 62
     3
 10
-121.0666809082
 20
161.99995422360001
 30
0.0
 11
-124.8000030518
 21
161.99995422360001
 31
0.0
  0
LINE
  5
39A
  8
LAYER1$C$L1
 62
     3
 10
-120.0
 20
159.99995422360001
 30
0.0
 11
-124.8000030518
 21
159.99995422360001
 31
0.0
  0
LINE
  5
39B
  8
LAYER1$C$L1
 62
     3
 10
-120.0
 20
158.29994201659991
 30
0.0
 11
-124.8000030518
 21
158.29994201659991
 31
0.0
  0
LINE
  5
39C
  8
LAYER1$C$L1
 62
     3
 10
-120.0
 20
156.89994812009991
 30
0.0
 11
-124.8000030518
 21
156.89994812009991
 31
0.0
  0
LINE
  5
39D
  8
LAYER1$C$L1
 62
     3
 10
-120.0
 20
155.7999420166
 30
0.0
 11
-124.8000030518
 21
155.7999420166
 31
0.0
  0
LINE
  5
39E
  8
LAYER1$C$L1
 62
     3
 10
-120.0
 20
154.99993896480001
 30
0.0
 11
-124.8000030518
 21
154.99993896480001
 31
0.0
  0
LINE
  5
39F
  8
LAYER1$C$L1
 62
     3
 10
-121.120010376
 20
171.0999450683999
 30
0.0
 11
-120.0
 21
171.0999450683999
 31
0.0
  0
LINE
  5
3A0
  8
LAYER1$C$L1
 62
     3
 10
-122.5066833495999
 20
173.6999511718999
 30
0.0
 11
-120.0
 21
173.6999511718999
 31
0.0
  0
LINE
  5
3A1
  8
LAYER1$C$L1
 62
     3
 10
-123.7333526610999
 20
175.99993896480001
 30
0.0
 11
-120.0
 21
175.99993896480001
 31
0.0
  0
LINE
  5
3A2
  8
LAYER1$C$L1
 62
     3
 10
-124.8000030518
 20
177.99993896480001
 30
0.0
 11
-120.0
 21
177.99993896480001
 31
0.0
  0
LINE
  5
3A3
  8
LAYER1$C$L1
 62
     3
 10
-124.8000030518
 20
179.6999511718999
 30
0.0
 11
-120.0
 21
179.6999511718999
 31
0.0
  0
LINE
  5
3A4
  8
LAYER1$C$L1
 62
     3
 10
-124.8000030518
 20
181.0999450683999
 30
0.0
 11
-120.0
 21
181.0999450683999
 31
0.0
  0
LINE
  5
3A5
  8
LAYER1$C$L1
 62
     3
 10
-124.8000030518
 20
182.1999511718999
 30
0.0
 11
-120.0
 21
182.1999511718999
 31
0.0
  0
LINE
  5
3A6
  8
LAYER1$C$L1
 62
     3
 10
-124.8000030518
 20
182.99993896480001
 30
0.0
 11
-120.0
 21
182.99993896480001
 31
0.0
  0
LINE
  5
3A7
  8
LAYER1$C$L1
 62
     3
 10
-127.3000030518
 20
157.79994201659991
 30
0.0
 11
-131.0000152588
 21
157.79994201659991
 31
0.0
  0
LINE
  5
3A8
  8
LAYER1$C$L1
 62
     3
 10
-124.8000030518
 20
167.99993896480001
 30
0.0
 11
-126.3000030518
 21
167.99993896480001
 31
0.0
  0
LINE
  5
3A9
  8
LAYER1$C$L1
 62
     3
 10
-120.0
 20
154.49993896480001
 30
0.0
 11
-124.8000030518
 21
154.49993896480001
 31
0.0
  0
LINE
  5
3AA
  8
LAYER1$C$L1
 62
     3
 10
-127.3000030518
 20
168.99993896480001
 30
0.0
 11
-127.3000030518
 21
154.99993896480001
 31
0.0
  0
LINE
  5
3AB
  8
LAYER1$C$L1
 62
     3
 10
-124.8000030518
 20
168.99993896480001
 30
0.0
 11
-124.8000030518
 21
154.49993896480001
 31
0.0
  0
LINE
  5
3AC
  8
LAYER1$C$L1
 62
     3
 10
-120.0
 20
168.99993896480001
 30
0.0
 11
-120.0
 21
154.49993896480001
 31
0.0
  0
LINE
  5
3AD
  8
LAYER1$C$L1
 62
     3
 10
-124.8000030518
 20
154.99993896480001
 30
0.0
 11
-127.3000030518
 21
154.99993896480001
 31
0.0
  0
LINE
  5
3AE
  8
LAYER1$C$L1
 62
     3
 10
-127.3000030518
 20
165.74993896480001
 30
0.0
 11
-131.0000152588
 21
165.74993896480001
 31
0.0
  0
LINE
  5
3AF
  8
LAYER1$C$L1
 62
     3
 10
-134.69999694820001
 20
168.99993896480001
 30
0.0
 11
-134.69999694820001
 21
164.7999420166
 31
0.0
  0
LINE
  5
3B0
  8
LAYER1$C$L1
 62
     3
 10
-138.8999786377
 20
167.89994812009999
 30
0.0
 11
-138.8999786377
 21
168.99993896480001
 31
0.0
  0
LINE
  5
3B1
  8
LAYER1$C$L1
 62
     3
 10
-146.5
 20
167.89994812009999
 30
0.0
 11
-134.69999694820001
 21
167.89994812009999
 31
0.0
  0
LINE
  5
3B2
  8
LAYER1$C$L1
 62
     3
 10
-133.0
 20
168.99993896480001
 30
0.0
 11
-133.0
 21
164.7999420166
 31
0.0
  0
LINE
  5
3B3
  8
LAYER1$C$L1
 62
     3
 10
-132.49999999999989
 20
168.99993896480001
 30
0.0
 11
-132.49999999999989
 21
164.7999420166
 31
0.0
  0
LINE
  5
3B4
  8
LAYER1$C$L1
 62
     3
 10
-132.49999999999989
 20
164.7999420166
 30
0.0
 11
-146.5
 21
164.7999420166
 31
0.0
  0
LINE
  5
3B5
  8
LAYER1$C$L1
 62
     3
 10
-132.49999999999989
 20
163.69995117190001
 30
0.0
 11
-146.5
 21
163.69995117190001
 31
0.0
  0
LINE
  5
3B6
  8
LAYER1$C$L1
 62
     3
 10
-131.0000152588
 20
165.74993896480001
 30
0.0
 11
-132.49999999999989
 21
165.74993896480001
 31
0.0
  0
LINE
  5
3B7
  8
LAYER1$C$L1
 62
     3
 10
-131.0000152588
 20
157.99993896480001
 30
0.0
 11
-132.0
 21
157.99993896480001
 31
0.0
  0
LINE
  5
3B8
  8
LAYER1$C$L1
 62
     3
 10
-127.3000030518
 20
156.99993896480001
 30
0.0
 11
-131.0000152588
 21
156.99993896480001
 31
0.0
  0
LINE
  5
3B9
  8
LAYER1$C$L1
 62
     3
 10
-133.0
 20
154.19995117190001
 30
0.0
 11
-146.5
 21
154.19995117190001
 31
0.0
  0
LINE
  5
3BA
  8
LAYER1$C$L1
 62
     3
 10
-131.0000152588
 20
165.74993896480001
 30
0.0
 11
-131.0000152588
 21
156.99993896480001
 31
0.0
  0
LINE
  5
3BB
  8
LAYER1$C$L1
 62
     3
 10
-132.49999999999989
 20
164.7999420166
 30
0.0
 11
-132.49999999999989
 21
154.69995117190001
 31
0.0
  0
LINE
  5
3BC
  8
LAYER1$C$L1
 62
     3
 10
-131.0000152588
 20
180.1999511718999
 30
0.0
 11
-127.3000030518
 21
180.1999511718999
 31
0.0
  0
LINE
  5
3BD
  8
LAYER1$C$L1
 62
     3
 10
-126.3000030518
 20
169.99993896480001
 30
0.0
 11
-124.8000030518
 21
169.99993896480001
 31
0.0
  0
LINE
  5
3BE
  8
LAYER1$C$L1
 62
     3
 10
-124.8000030518
 20
183.49993896480001
 30
0.0
 11
-120.0
 21
183.49993896480001
 31
0.0
  0
LINE
  5
3BF
  8
LAYER1$C$L1
 62
     3
 10
-127.3000030518
 20
182.99993896480001
 30
0.0
 11
-127.3000030518
 21
168.99993896480001
 31
0.0
  0
LINE
  5
3C0
  8
LAYER1$C$L1
 62
     3
 10
-124.8000030518
 20
183.49993896480001
 30
0.0
 11
-124.8000030518
 21
168.99993896480001
 31
0.0
  0
LINE
  5
3C1
  8
LAYER1$C$L1
 62
     3
 10
-120.0
 20
183.49993896480001
 30
0.0
 11
-120.0
 21
168.99993896480001
 31
0.0
  0
LINE
  5
3C2
  8
LAYER1$C$L1
 62
     3
 10
-127.3000030518
 20
182.99993896480001
 30
0.0
 11
-124.8000030518
 21
182.99993896480001
 31
0.0
  0
LINE
  5
3C3
  8
LAYER1$C$L1
 62
     3
 10
-131.0000152588
 20
172.24993896480001
 30
0.0
 11
-127.3000030518
 21
172.24993896480001
 31
0.0
  0
LINE
  5
3C4
  8
LAYER1$C$L1
 62
     3
 10
-134.69999694820001
 20
173.1999511718999
 30
0.0
 11
-134.69999694820001
 21
168.99993896480001
 31
0.0
  0
LINE
  5
3C5
  8
LAYER1$C$L1
 62
     3
 10
-138.8999786377
 20
168.99993896480001
 30
0.0
 11
-138.8999786377
 21
170.0999450683999
 31
0.0
  0
LINE
  5
3C6
  8
LAYER1$C$L1
 62
     3
 10
-134.69999694820001
 20
170.0999450683999
 30
0.0
 11
-146.5
 21
170.0999450683999
 31
0.0
  0
LINE
  5
3C7
  8
LAYER1$C$L1
 62
     3
 10
-133.0
 20
173.1999511718999
 30
0.0
 11
-133.0
 21
168.99993896480001
 31
0.0
  0
LINE
  5
3C8
  8
LAYER1$C$L1
 62
     3
 10
-132.49999999999989
 20
173.1999511718999
 30
0.0
 11
-132.49999999999989
 21
168.99993896480001
 31
0.0
  0
LINE
  5
3C9
  8
LAYER1$C$L1
 62
     3
 10
-146.5
 20
173.1999511718999
 30
0.0
 11
-132.49999999999989
 21
173.1999511718999
 31
0.0
  0
LINE
  5
3CA
  8
LAYER1$C$L1
 62
     3
 10
-146.5
 20
174.29994201659991
 30
0.0
 11
-132.49999999999989
 21
174.29994201659991
 31
0.0
  0
LINE
  5
3CB
  8
LAYER1$C$L1
 62
     3
 10
-132.49999999999989
 20
172.24993896480001
 30
0.0
 11
-131.0000152588
 21
172.24993896480001
 31
0.0
  0
LINE
  5
3CC
  8
LAYER1$C$L1
 62
     3
 10
-132.0
 20
179.99993896480001
 30
0.0
 11
-131.0000152588
 21
179.99993896480001
 31
0.0
  0
LINE
  5
3CD
  8
LAYER1$C$L1
 62
     3
 10
-131.0000152588
 20
180.99993896480001
 30
0.0
 11
-127.3000030518
 21
180.99993896480001
 31
0.0
  0
LINE
  5
3CE
  8
LAYER1$C$L1
 62
     3
 10
-146.5
 20
183.79994201659991
 30
0.0
 11
-133.0
 21
183.79994201659991
 31
0.0
  0
LINE
  5
3CF
  8
LAYER1$C$L1
 62
     3
 10
-131.0000152588
 20
180.99993896480001
 30
0.0
 11
-131.0000152588
 21
172.24993896480001
 31
0.0
  0
LINE
  5
3D0
  8
LAYER1$C$L1
 62
     3
 10
-132.49999999999989
 20
183.29994201659991
 30
0.0
 11
-132.49999999999989
 21
173.1999511718999
 31
0.0
  0
LINE
  5
3D1
  8
LAYER1$C$L1
 62
     3
 10
-146.5
 20
183.79994201659991
 30
0.0
 11
-146.5
 21
173.19993591310001
 31
0.0
  0
LINE
  5
3D2
  8
LAYER1$C$L1
  6
CENTER
 62
     3
 10
-172.1925659179999
 20
168.99993896480001
 30
0.0
 11
-66.000015258800005
 21
168.99993896480001
 31
0.0
  0
LINE
  5
3E5
  8
LAYER1$C$L1
  6
PHANTOM
 62
     3
 10
-18.21566133370197
 20
112.5
 30
0.0
 11
-18.21566133370197
 21
113.39999389649989
 31
0.0
  0
LINE
  5
3E7
  8
LAYER1$C$L1
  6
PHANTOM
 62
     3
 10
-18.21566133370197
 20
74.600036621100003
 30
0.0
 11
-18.21566133370197
 21
75.5
 31
0.0
  0
DIMENSION
  5
421
  8
DIMENSIONS
  2
*D34
 10
-52.189264443851549
 20
154.49990338669991
 30
0.0
 11
-52.189264443851577
 21
168.900855883959
 31
0.0
 70
   128
  1
<>%%c29
 13
-112.5000006634
 23
183.49987900149989
 33
0.0
 14
-112.5000078354
 24
154.4999033867
 34
0.0
 50
270.0
1001
ACAD
1000
DSTYLE
1002
{
1070
    41
1040
1.972787845999999
1070
    42
1040
2.5399999618999991
1070
    44
1040
3.8099999427999989
1070
    73
1070
     0
1070
   140
1040
2.9999940394999989
1070
   271
1070
     1
1070
   272
1070
     1
1002
}
  0
DIMENSION
  5
42D
  8
DIMENSIONS
  2
*D35
 10
-65.577020342187993
 20
82.199493692499985
 30
0.0
 11
-65.577020342188007
 21
93.981447652689184
 31
0.0
 70
   128
  1
<>%%c24
 13
-100.9999942180999
 23
105.7995858044
 33
0.0
 14
-101.0000536676999
 24
82.199493692499999
 34
0.0
 50
270.0
1001
ACAD
1000
DSTYLE
1002
{
1070
    41
1040
1.972787845999999
1070
    42
1040
2.5399999618999991
1070
    44
1040
3.8099999427999989
1070
    73
1070
     0
1070
   140
1040
2.9999940394999989
1070
   271
1070
     1
1070
   272
1070
     1
1002
}
  0
DIMENSION
  5
439
  8
DIMENSIONS
  2
*D36
 10
-71.0
 20
68.5
 30
0.0
 11
-94.500007629399974
 21
68.5
 31
0.0
 70
     0
  1
<>47
 13
-118.00001525879991
 23
80.500025317299986
 33
0.0
 14
-71.0
 24
94.000015258799976
 34
0.0
1001
ACAD
1000
DSTYLE
1002
{
1070
    41
1040
1.972787845999999
1070
    42
1040
2.5399999618999991
1070
    44
1040
3.8099999427999989
1070
    73
1070
     0
1070
   140
1040
2.9999940394999989
1070
   271
1070
     1
1070
   272
1070
     1
1002
}
  0
DIMENSION
  5
445
  8
DIMENSIONS
  2
*D37
 10
-93.499999999999986
 20
136.87243318424251
 30
0.0
 11
-106.3699304034951
 21
136.87243318424251
 31
0.0
 70
   128
 13
-118.0
 23
155.49999999999989
 33
0.0
 14
-93.499999999999986
 24
158.34523010250001
 34
0.0
1001
ACAD
1000
DSTYLE
1002
{
1070
    41
1040
1.972787845999999
1070
    42
1040
2.5399999618999991
1070
    44
1040
3.8099999427999989
1070
    73
1070
     0
1070
   140
1040
2.9999940394999989
1070
   271
1070
     1
1070
   272
1070
     1
1002
}
  0
DIMENSION
  5
451
  8
DIMENSIONS
  2
*D38
 10
-105.0
 20
144.10917068544191
 30
0.0
 11
-77.299817648517774
 21
144.10917068544191
 31
0.0
 70
   128
  1
<>13
 13
-118.0
 23
155.49999999999989
 33
0.0
 14
-105.0
 24
155.30000305179991
 34
0.0
1001
ACAD
1000
DSTYLE
1002
{
1070
    41
1040
1.972787845999999
1070
    42
1040
2.5399999618999991
1070
    44
1040
3.8099999427999989
1070
    73
1070
     0
1070
   140
1040
2.9999940394999989
1070
   271
1070
     1
1070
   272
1070
     1
1002
}
  0
DIMENSION
  5
45D
  8
DIMENSIONS
  2
*D39
 10
22.618963607142192
 20
75.499969482400004
 30
0.0
 11
22.61896360714217
 21
93.999961853000002
 31
0.0
 70
   128
  1
<>37
 13
-12.91567354070197
 23
112.4999542235999
 33
0.0
 14
-12.91567354070197
 24
75.499969482400004
 34
0.0
 50
270.0
1001
ACAD
1000
DSTYLE
1002
{
1070
    41
1040
1.972787845999999
1070
    42
1040
2.5399999618999991
1070
    44
1040
3.8099999427999989
1070
    73
1070
     0
1070
   140
1040
2.9999940394999989
1070
   271
1070
     1
1070
   272
1070
     1
1002
}
  0
ARC
  5
482
  8
LAYER1$C$L1
 62
     3
 10
-81.371902465800005
 20
168.50500488279991
 30
0.0
 40
10.38371467589999
 50
321.45753962679993
 51
2.7321738519999879
  0
ARC
  5
483
  8
LAYER1$C$L1
 62
     3
 10
-79.877227783199999
 20
178.65058898929999
 30
0.0
 40
17.888397216800001
 50
248.2561380841
 51
291.74400717110001
  0
ARC
  5
484
  8
LAYER1$C$L1
 62
     3
 10
-79.877227783199999
 20
184.7106933593999
 30
0.0
 40
22.675720214799998
 50
253.00754551989999
 51
286.99265437689991
  0
ARC
  5
485
  8
LAYER1$C$L1
 62
     3
 10
-79.877227783199999
 20
153.2889099121
 30
0.0
 40
22.676055908199999
 50
73.007673472199997
 51
106.99229055559999
  0
ARC
  5
486
  8
LAYER1$C$L1
 62
     3
 10
-80.057632446300005
 20
168.99998474119991
 30
0.0
 40
9.0576400757000002
 50
0.0
 51
41.274590682700001
  0
ARC
  5
487
  8
LAYER1$C$L1
 62
     3
 10
-80.057632446300005
 20
168.99998474119991
 30
0.0
 40
9.0576400757000002
 50
318.7252692985
 51
0.0
  0
ARC
  5
488
  8
LAYER1$C$L1
 62
     3
 10
-81.371902465800005
 20
94.494995117199991
 30
0.0
 40
10.38371467589999
 50
357.26782614799998
 51
38.542463788199989
  0
ARC
  5
489
  8
LAYER1$C$L1
 62
     3
 10
-79.877227783199999
 20
84.349411010699995
 30
0.0
 40
17.888397216800001
 50
68.25604747040002
 51
111.7439165574
  0
ARC
  5
48A
  8
LAYER1$C$L1
 62
     3
 10
-79.877227783199999
 20
78.289306640600003
 30
0.0
 40
22.675720214799998
 50
73.007400264599994
 51
106.9925091216999
  0
ARC
  5
48B
  8
LAYER1$C$L1
 62
     3
 10
-79.877227783199999
 20
109.7110900879
 30
0.0
 40
22.676055908199999
 50
253.00770944439989
 51
286.9923265278
  0
ARC
  5
48C
  8
LAYER1$C$L1
 62
     3
 10
-80.057632446300005
 20
94.000015258799976
 30
0.0
 40
9.0576400757000002
 50
318.72540931729992
 51
0.0
  0
ARC
  5
48D
  8
LAYER1$C$L1
 62
     3
 10
-80.057632446300005
 20
94.000015258799976
 30
0.0
 40
9.0576400757000002
 50
0.0
 51
41.274734116600001
  0
ARC
  5
48E
  8
LAYER1$C$L1
 62
     3
 10
-18.21566133370197
 20
94.0
 30
0.0
 40
9.5
 50
320.4361804591
 51
39.563819540899893
  0
ARC
  5
48F
  8
LAYER1$C$L1
 62
     3
 10
-18.21566133370197
 20
94.0
 30
0.0
 40
8.5
 50
321.07800992029991
 51
0.0
  0
ARC
  5
490
  8
LAYER1$C$L1
 62
     3
 10
-18.21566133370197
 20
94.0
 30
0.0
 40
9.5
 50
140.43612058129989
 51
219.56380747439999
  0
ARC
  5
491
  8
LAYER1$C$L1
 62
     3
 10
-18.21566133370197
 20
94.0
 30
0.0
 40
8.5
 50
141.07799443869999
 51
180.00001866929989
  0
ARC
  5
492
  8
LAYER1$C$L1
 62
     3
 10
-18.21566133370197
 20
94.0
 30
0.0
 40
9.5
 50
50.4361658881
 51
89.999927372399995
  0
ARC
  5
493
  8
LAYER1$C$L1
 62
     3
 10
-18.21566133370197
 20
94.0
 30
0.0
 40
8.5
 50
51.0779987644
 51
128.92195160299991
  0
ARC
  5
494
  8
LAYER1$C$L1
 62
     3
 10
-18.21566133370197
 20
94.0
 30
0.0
 40
9.5
 50
230.4362291811
 51
309.56383411190001
  0
ARC
  5
495
  8
LAYER1$C$L1
 62
     3
 10
-18.21566133370197
 20
94.0
 30
0.0
 40
8.5
 50
231.07810303849999
 51
308.92200465069999
  0
ARC
  5
496
  8
LAYER1$C$L1
 62
     3
 10
-18.21566133370197
 20
94.0
 30
0.0
 40
8.5
 50
0.0
 51
38.921990079699988
  0
ARC
  5
497
  8
LAYER1$C$L1
 62
     3
 10
-18.21566133370197
 20
94.0
 30
0.0
 40
3.0
 50
152.4580185017
 51
297.5419462093999
  0
ARC
  5
498
  8
LAYER1$C$L1
 62
     3
 10
-18.21566133370197
 20
94.0
 30
0.0
 40
3.0
 50
333.5228570598
 51
117.5430750117999
  0
CIRCLE
  5
499
  8
LAYER1$C$L1
 62
     3
 10
-18.21566133370197
 20
94.0
 30
0.0
 40
13.0
  0
CIRCLE
  5
49A
  8
LAYER1$C$L1
 62
     3
 10
-18.21566133370197
 20
94.0
 30
0.0
 40
14.0
  0
ARC
  5
49B
  8
LAYER1$C$L1
 62
     3
 10
-18.21566133370197
 20
94.0
 30
0.0
 40
8.5
 50
179.9999640277999
 51
218.92198825840001
  0
ARC
  5
49C
  8
LAYER1$C$L1
 62
     3
 10
-18.21566133370197
 20
94.0
 30
0.0
 40
9.5
 50
89.999982013899995
 51
129.8977943900999
  0
CIRCLE
  5
49D
  8
LAYER1$C$L1
 62
     3
 10
-18.21566133370197
 20
94.0
 30
0.0
 40
11.199999809299999
  0
CIRCLE
  5
49E
  8
LAYER1$C$L1
 62
     3
 10
-18.21566133370197
 20
94.0
 30
0.0
 40
14.7999992371
  0
ARC
  5
49F
  8
LAYER1$C$L1
 62
     3
 10
-4.4156735407019729
 20
110.9999847412
 30
0.0
 40
1.0
 50
0.000072627560058
 51
89.999982013899995
  0
ARC
  5
4A0
  8
LAYER1$C$L1
 62
     3
 10
-4.4156735407019729
 20
77.000015258800005
 30
0.0
 40
1.0
 50
270.00018191060002
 51
0.000072627600094
  0
ARC
  5
4A1
  8
LAYER1$C$L1
 62
     3
 10
-32.015664385501978
 20
110.9999847412
 30
0.0
 40
1.0
 50
89.999982013899995
 51
179.9999640277999
  0
ARC
  5
4A2
  8
LAYER1$C$L1
 62
     3
 10
-32.015664385501978
 20
77.000015258800005
 30
0.0
 40
1.0
 50
179.9999640277999
 51
269.9999460416999
  0
LINE
  5
4A3
  8
LAYER1$C$L1
 62
     3
 10
-73.250330783199999
 20
163.0249480434
 30
0.0
 11
-73.250346042399997
 21
162.03495780899991
 31
0.0
  0
LINE
  5
4A4
  8
LAYER1$C$L1
 62
     3
 10
-86.504160731399978
 20
163.0249387156999
 30
0.0
 11
-86.504175990499988
 21
162.03496374010001
 31
0.0
  0
LINE
  5
4A5
  8
LAYER1$C$L1
 62
     3
 10
-90.999984741200009
 20
172.00515747069991
 30
0.0
 11
-93.499999999999986
 21
172.00515747069991
 31
0.0
  0
LINE
  5
4A6
  8
LAYER1$C$L1
 62
     3
 10
-90.999984741200009
 20
164.7219696045
 30
0.0
 11
-93.499999999999986
 21
164.7219696045
 31
0.0
  0
LINE
  5
4A7
  8
LAYER1$C$L1
 62
     3
 10
-90.999984741200009
 20
165.9947509765999
 30
0.0
 11
-93.499999999999986
 21
165.9947509765999
 31
0.0
  0
LINE
  5
4A8
  8
LAYER1$C$L1
 62
     3
 10
-94.0
 20
180.2400054931999
 30
0.0
 11
-94.0
 21
157.7600097655999
 31
0.0
  0
LINE
  5
4A9
  8
LAYER1$C$L1
 62
     3
 10
-94.043493357900005
 20
180.2434614432
 30
0.0
 11
-93.500006415000016
 21
179.6999832045999
 31
0.0
  0
LINE
  5
4AA
  8
LAYER1$C$L1
 62
     3
 10
-93.500027058300006
 20
158.3452190715
 30
0.0
 11
-93.998434654899995
 21
157.76012374039999
 31
0.0
  0
LINE
  5
4AB
  8
LAYER1$C$L1
 62
     3
 10
-101.0000239620999
 20
157.19999211289999
 30
0.0
 11
-93.998421897999989
 21
157.7601195245
 31
0.0
  0
LINE
  5
4AC
  8
LAYER1$C$L1
 62
     3
 10
-101.00002159500001
 20
180.80000426619989
 30
0.0
 11
-94.043502545400003
 21
180.24348349099989
 31
0.0
  0
LINE
  5
4AD
  8
LAYER1$C$L1
 62
     3
 10
-93.499999999999986
 20
179.70001220699999
 30
0.0
 11
-93.499999999999986
 21
169.0
 31
0.0
  0
LINE
  5
4AE
  8
LAYER1$C$L1
 62
     3
 10
-93.499999999999986
 20
169.0
 30
0.0
 11
-93.499999999999986
 21
158.34523010250001
 31
0.0
  0
LINE
  5
4AF
  8
LAYER1$C$L1
 62
     3
 10
-105.0
 20
157.20001220699999
 30
0.0
 11
-101.0
 21
157.20001220699999
 31
0.0
  0
LINE
  5
4B0
  8
LAYER1$C$L1
 62
     3
 10
-105.0
 20
180.80000305179999
 30
0.0
 11
-101.0
 21
180.80000305179999
 31
0.0
  0
LINE
  5
4B1
  8
LAYER1$C$L1
 62
     3
 10
-101.0
 20
180.80000305179999
 30
0.0
 11
-101.0
 21
169.0
 31
0.0
  0
LINE
  5
4B2
  8
LAYER1$C$L1
 62
     3
 10
-101.0
 20
169.0
 30
0.0
 11
-101.0
 21
157.20001220699999
 31
0.0
  0
LINE
  5
4B3
  8
LAYER1$C$L1
 62
     3
 10
-117.1999969482
 20
171.10000610349999
 30
0.0
 11
-116.1033325195
 21
171.10000610349999
 31
0.0
  0
LINE
  5
4B4
  8
LAYER1$C$L1
 62
     3
 10
-117.1999969482
 20
173.70001220699999
 30
0.0
 11
-114.7835693358999
 21
173.70001220699999
 31
0.0
  0
LINE
  5
4B5
  8
LAYER1$C$L1
 62
     3
 10
-117.1999969482
 20
176.0
 30
0.0
 11
-113.5444488524999
 21
176.0
 31
0.0
  0
LINE
  5
4B6
  8
LAYER1$C$L1
 62
     3
 10
-117.1999969482
 20
178.0
 30
0.0
 11
-112.5
 21
178.0
 31
0.0
  0
LINE
  5
4B7
  8
LAYER1$C$L1
 62
     3
 10
-117.1999969482
 20
179.70001220699999
 30
0.0
 11
-112.5
 21
179.70001220699999
 31
0.0
  0
LINE
  5
4B8
  8
LAYER1$C$L1
 62
     3
 10
-117.1999969482
 20
181.10000610349991
 30
0.0
 11
-112.5
 21
181.10000610349991
 31
0.0
  0
LINE
  5
4B9
  8
LAYER1$C$L1
 62
     3
 10
-117.1999969482
 20
182.20001220699999
 30
0.0
 11
-112.5
 21
182.20001220699999
 31
0.0
  0
LINE
  5
4BA
  8
LAYER1$C$L1
 62
     3
 10
-117.1999969482
 20
183.0
 30
0.0
 11
-112.5
 21
183.0
 31
0.0
  0
LINE
  5
4BB
  8
LAYER1$C$L1
 62
     3
 10
-105.3000297845
 20
182.99997369219989
 30
0.0
 11
-105.0000251501999
 21
182.69996905790001
 31
0.0
  0
LINE
  5
4BC
  8
LAYER1$C$L1
 62
     3
 10
-112.5000115329
 20
183.49998501259989
 30
0.0
 11
-112.0000110020999
 21
182.99998448179991
 31
0.0
  0
LINE
  5
4BD
  8
LAYER1$C$L1
 62
     3
 10
-112.0
 20
183.0
 30
0.0
 11
-105.3000030518
 21
183.0
 31
0.0
  0
LINE
  5
4BE
  8
LAYER1$C$L1
 62
     3
 10
-112.0
 20
183.0
 30
0.0
 11
-112.0
 21
169.0
 31
0.0
  0
LINE
  5
4BF
  8
LAYER1$C$L1
 62
     3
 10
-105.3000030518
 20
183.0
 30
0.0
 11
-105.3000030518
 21
169.0
 31
0.0
  0
LINE
  5
4C0
  8
LAYER1$C$L1
 62
     3
 10
-105.0
 20
182.70001220699999
 30
0.0
 11
-105.0
 21
169.0
 31
0.0
  0
LINE
  5
4C1
  8
LAYER1$C$L1
 62
     3
 10
-117.1999969482
 20
183.49999999999989
 30
0.0
 11
-112.5
 21
183.49999999999989
 31
0.0
  0
LINE
  5
4C2
  8
LAYER1$C$L1
 62
     3
 10
-112.5
 20
183.49999999999989
 30
0.0
 11
-112.5
 21
169.0
 31
0.0
  0
LINE
  5
4C3
  8
LAYER1$C$L1
 62
     3
 10
-118.00000117409991
 20
182.49997346709989
 30
0.0
 11
-117.20000144079999
 21
183.49997313369991
 31
0.0
  0
LINE
  5
4C4
  8
LAYER1$C$L1
 62
     3
 10
-117.1999969482
 20
183.49999999999989
 30
0.0
 11
-117.1999969482
 21
169.0
 31
0.0
  0
LINE
  5
4C5
  8
LAYER1$C$L1
 62
     3
 10
-118.0
 20
182.5
 30
0.0
 11
-118.0
 21
169.0
 31
0.0
  0
LINE
  5
4C6
  8
LAYER1$C$L1
 62
     3
 10
-112.5
 20
166.90000915530001
 30
0.0
 11
-113.5966644287
 21
166.90000915530001
 31
0.0
  0
LINE
  5
4C7
  8
LAYER1$C$L1
 62
     3
 10
-112.5
 20
164.30000305179991
 30
0.0
 11
-114.9544372558999
 21
164.30000305179991
 31
0.0
  0
LINE
  5
4C8
  8
LAYER1$C$L1
 62
     3
 10
-112.5
 20
162.0000152588
 30
0.0
 11
-116.1555480957
 21
162.0000152588
 31
0.0
  0
LINE
  5
4C9
  8
LAYER1$C$L1
 62
     3
 10
-112.5
 20
160.0000152588
 30
0.0
 11
-117.1999969482
 21
160.0000152588
 31
0.0
  0
LINE
  5
4CA
  8
LAYER1$C$L1
 62
     3
 10
-112.5
 20
158.30000305179991
 30
0.0
 11
-117.1999969482
 21
158.30000305179991
 31
0.0
  0
LINE
  5
4CB
  8
LAYER1$C$L1
 62
     3
 10
-112.5
 20
156.90000915530001
 30
0.0
 11
-117.1999969482
 21
156.90000915530001
 31
0.0
  0
LINE
  5
4CC
  8
LAYER1$C$L1
 62
     3
 10
-112.5
 20
155.80000305179991
 30
0.0
 11
-117.1999969482
 21
155.80000305179991
 31
0.0
  0
LINE
  5
4CD
  8
LAYER1$C$L1
 62
     3
 10
-112.5
 20
155.0
 30
0.0
 11
-117.1999969482
 21
155.0
 31
0.0
  0
LINE
  5
4CE
  8
LAYER1$C$L1
 62
     3
 10
-105.0000049196999
 20
155.3000119907999
 30
0.0
 11
-105.300009554
 21
155.00000735649991
 31
0.0
  0
LINE
  5
4CF
  8
LAYER1$C$L1
 62
     3
 10
-111.9999907715999
 20
154.99999656689999
 30
0.0
 11
-112.49999130240001
 21
154.49999603609999
 31
0.0
  0
LINE
  5
4D0
  8
LAYER1$C$L1
 62
     3
 10
-105.3000030518
 20
155.0
 30
0.0
 11
-112.0
 21
155.0
 31
0.0
  0
LINE
  5
4D1
  8
LAYER1$C$L1
 62
     3
 10
-112.0
 20
169.0
 30
0.0
 11
-112.0
 21
155.0
 31
0.0
  0
LINE
  5
4D2
  8
LAYER1$C$L1
 62
     3
 10
-105.3000030518
 20
169.0
 30
0.0
 11
-105.3000030518
 21
155.0
 31
0.0
  0
LINE
  5
4D3
  8
LAYER1$C$L1
 62
     3
 10
-105.0
 20
169.0
 30
0.0
 11
-105.0
 21
155.30000305179991
 31
0.0
  0
LINE
  5
4D4
  8
LAYER1$C$L1
 62
     3
 10
-112.5
 20
154.49999999999989
 30
0.0
 11
-117.1999969482
 21
154.49999999999989
 31
0.0
  0
LINE
  5
4D5
  8
LAYER1$C$L1
 62
     3
 10
-112.5
 20
169.0
 30
0.0
 11
-112.5
 21
154.49999999999989
 31
0.0
  0
LINE
  5
4D6
  8
LAYER1$C$L1
 62
     3
 10
-117.20001573889991
 20
154.50000424850001
 30
0.0
 11
-118.0000154722
 21
155.50000391520001
 31
0.0
  0
LINE
  5
4D7
  8
LAYER1$C$L1
 62
     3
 10
-117.1999969482
 20
169.0
 30
0.0
 11
-117.1999969482
 21
154.49999999999989
 31
0.0
  0
LINE
  5
4D8
  8
LAYER1$C$L1
 62
     3
 10
-118.0
 20
169.0
 30
0.0
 11
-118.0
 21
155.49999999999989
 31
0.0
  0
LINE
  5
4D9
  8
LAYER1$C$L1
 62
     3
 10
-73.250316411
 20
100.9649964632999
 30
0.0
 11
-73.250301151999992
 21
99.975021487700005
 31
0.0
  0
LINE
  5
4DA
  8
LAYER1$C$L1
 62
     3
 10
-86.504161635499997
 20
100.964990532
 30
0.0
 11
-86.504146376700007
 21
99.975030815200014
 31
0.0
  0
LINE
  5
4DB
  8
LAYER1$C$L1
 62
     3
 10
-93.499999999999986
 20
90.994842529300001
 30
0.0
 11
-90.999984741200009
 21
90.994842529300001
 31
0.0
  0
LINE
  5
4DC
  8
LAYER1$C$L1
 62
     3
 10
-93.499999999999986
 20
98.278030395499997
 30
0.0
 11
-90.999984741200009
 21
98.278030395499997
 31
0.0
  0
LINE
  5
4DD
  8
LAYER1$C$L1
 62
     3
 10
-93.499999999999986
 20
97.005249023399983
 30
0.0
 11
-90.999984741200009
 21
97.005249023399983
 31
0.0
  0
LINE
  5
4DE
  8
LAYER1$C$L1
 62
     3
 10
-94.0
 20
105.2399902344
 30
0.0
 11
-94.0
 21
82.759994506799998
 31
0.0
  0
LINE
  5
4DF
  8
LAYER1$C$L1
 62
     3
 10
-93.499988460799997
 20
83.299962571099996
 30
0.0
 11
-94.043475403700015
 21
82.756484332499994
 31
0.0
  0
LINE
  5
4E0
  8
LAYER1$C$L1
 62
     3
 10
-93.998388785800003
 20
105.2398337467999
 30
0.0
 11
-93.499981189300016
 21
104.6547384156999
 31
0.0
  0
LINE
  5
4E1
  8
LAYER1$C$L1
 62
     3
 10
-93.998412579300009
 20
105.2398568539999
 30
0.0
 11
-101.00001464349999
 21
105.7999842656
 31
0.0
  0
LINE
  5
4E2
  8
LAYER1$C$L1
 62
     3
 10
-94.043480226899987
 20
82.756480111000016
 30
0.0
 11
-100.9999992763999
 21
82.199959335700001
 31
0.0
  0
LINE
  5
4E3
  8
LAYER1$C$L1
 62
     3
 10
-93.499999999999986
 20
94.0
 30
0.0
 11
-93.499999999999986
 21
83.299987793
 31
0.0
  0
LINE
  5
4E4
  8
LAYER1$C$L1
 62
     3
 10
-93.499999999999986
 20
104.6547698974999
 30
0.0
 11
-93.499999999999986
 21
94.0
 31
0.0
  0
LINE
  5
4E5
  8
LAYER1$C$L1
 62
     3
 10
-101.0
 20
105.7999877929999
 30
0.0
 11
-105.0
 21
105.7999877929999
 31
0.0
  0
LINE
  5
4E6
  8
LAYER1$C$L1
 62
     3
 10
-101.0
 20
82.199996948199995
 30
0.0
 11
-105.0
 21
82.199996948199995
 31
0.0
  0
LINE
  5
4E7
  8
LAYER1$C$L1
 62
     3
 10
-101.0
 20
94.0
 30
0.0
 11
-101.0
 21
82.199996948199995
 31
0.0
  0
LINE
  5
4E8
  8
LAYER1$C$L1
 62
     3
 10
-101.0
 20
105.7999877929999
 30
0.0
 11
-101.0
 21
94.0
 31
0.0
  0
LINE
  5
4E9
  8
LAYER1$C$L1
 62
     3
 10
-116.1033325195
 20
91.899993896499993
 30
0.0
 11
-117.1999969482
 21
91.899993896499993
 31
0.0
  0
LINE
  5
4EA
  8
LAYER1$C$L1
 62
     3
 10
-114.7835693358999
 20
89.299987792999985
 30
0.0
 11
-117.1999969482
 21
89.299987792999985
 31
0.0
  0
LINE
  5
4EB
  8
LAYER1$C$L1
 62
     3
 10
-113.5444488524999
 20
87.0
 30
0.0
 11
-117.1999969482
 21
87.0
 31
0.0
  0
LINE
  5
4EC
  8
LAYER1$C$L1
 62
     3
 10
-112.5
 20
85.0
 30
0.0
 11
-117.1999969482
 21
85.0
 31
0.0
  0
LINE
  5
4ED
  8
LAYER1$C$L1
 62
     3
 10
-112.5
 20
83.299987793
 30
0.0
 11
-117.1999969482
 21
83.299987793
 31
0.0
  0
LINE
  5
4EE
  8
LAYER1$C$L1
 62
     3
 10
-112.5
 20
81.899993896499993
 30
0.0
 11
-117.1999969482
 21
81.899993896499993
 31
0.0
  0
LINE
  5
4EF
  8
LAYER1$C$L1
 62
     3
 10
-112.5
 20
80.799987793
 30
0.0
 11
-117.1999969482
 21
80.799987793
 31
0.0
  0
LINE
  5
4F0
  8
LAYER1$C$L1
 62
     3
 10
-112.5
 20
80.0
 30
0.0
 11
-117.1999969482
 21
80.0
 31
0.0
  0
LINE
  5
4F1
  8
LAYER1$C$L1
 62
     3
 10
-105.00001436060001
 20
80.299976705000006
 30
0.0
 11
-105.3000082053
 21
79.999982860299994
 31
0.0
  0
LINE
  5
4F2
  8
LAYER1$C$L1
 62
     3
 10
-112.0000002125
 20
79.999961281099999
 30
0.0
 11
-112.49998995369999
 21
79.499971539900002
 31
0.0
  0
LINE
  5
4F3
  8
LAYER1$C$L1
 62
     3
 10
-105.3000030518
 20
80.0
 30
0.0
 11
-112.0
 21
80.0
 31
0.0
  0
LINE
  5
4F4
  8
LAYER1$C$L1
 62
     3
 10
-112.0
 20
94.0
 30
0.0
 11
-112.0
 21
80.0
 31
0.0
  0
LINE
  5
4F5
  8
LAYER1$C$L1
 62
     3
 10
-105.3000030518
 20
94.0
 30
0.0
 11
-105.3000030518
 21
80.0
 31
0.0
  0
LINE
  5
4F6
  8
LAYER1$C$L1
 62
     3
 10
-105.0
 20
94.0
 30
0.0
 11
-105.0
 21
80.299987792999985
 31
0.0
  0
LINE
  5
4F7
  8
LAYER1$C$L1
 62
     3
 10
-112.5
 20
79.5
 30
0.0
 11
-117.1999969482
 21
79.5
 31
0.0
  0
LINE
  5
4F8
  8
LAYER1$C$L1
 62
     3
 10
-112.5
 20
94.0
 30
0.0
 11
-112.5
 21
79.5
 31
0.0
  0
LINE
  5
4F9
  8
LAYER1$C$L1
 62
     3
 10
-117.19998714259999
 20
79.499990172099999
 30
0.0
 11
-117.99998687590001
 21
80.499989838700003
 31
0.0
  0
LINE
  5
4FA
  8
LAYER1$C$L1
 62
     3
 10
-117.1999969482
 20
94.0
 30
0.0
 11
-117.1999969482
 21
79.5
 31
0.0
  0
LINE
  5
4FB
  8
LAYER1$C$L1
 62
     3
 10
-118.0
 20
94.0
 30
0.0
 11
-118.0
 21
80.5
 31
0.0
  0
LINE
  5
4FC
  8
LAYER1$C$L1
 62
     3
 10
-113.5966644287
 20
96.099990844699988
 30
0.0
 11
-112.5
 21
96.099990844699988
 31
0.0
  0
LINE
  5
4FD
  8
LAYER1$C$L1
 62
     3
 10
-114.9544372558999
 20
98.699996948199995
 30
0.0
 11
-112.5
 21
98.699996948199995
 31
0.0
  0
LINE
  5
4FE
  8
LAYER1$C$L1
 62
     3
 10
-116.1555480957
 20
100.9999847412
 30
0.0
 11
-112.5
 21
100.9999847412
 31
0.0
  0
LINE
  5
4FF
  8
LAYER1$C$L1
 62
     3
 10
-117.1999969482
 20
102.9999847412
 30
0.0
 11
-112.5
 21
102.9999847412
 31
0.0
  0
LINE
  5
500
  8
LAYER1$C$L1
 62
     3
 10
-117.1999969482
 20
104.6999969482
 30
0.0
 11
-112.5
 21
104.6999969482
 31
0.0
  0
LINE
  5
501
  8
LAYER1$C$L1
 62
     3
 10
-117.1999969482
 20
106.0999908446999
 30
0.0
 11
-112.5
 21
106.0999908446999
 31
0.0
  0
LINE
  5
502
  8
LAYER1$C$L1
 62
     3
 10
-117.1999969482
 20
107.1999969481999
 30
0.0
 11
-112.5
 21
107.1999969481999
 31
0.0
  0
LINE
  5
503
  8
LAYER1$C$L1
 62
     3
 10
-117.1999969482
 20
108.0
 30
0.0
 11
-112.5
 21
108.0
 31
0.0
  0
LINE
  5
504
  8
LAYER1$C$L1
 62
     3
 10
-105.2999987643999
 20
107.99995728809991
 30
0.0
 11
-104.99999413010001
 21
107.6999526537999
 31
0.0
  0
LINE
  5
505
  8
LAYER1$C$L1
 62
     3
 10
-112.49998995369999
 20
108.4999591676
 30
0.0
 11
-111.9999894229
 21
107.9999586368
 31
0.0
  0
LINE
  5
506
  8
LAYER1$C$L1
 62
     3
 10
-112.0
 20
108.0
 30
0.0
 11
-105.3000030518
 21
108.0
 31
0.0
  0
LINE
  5
507
  8
LAYER1$C$L1
 62
     3
 10
-112.0
 20
108.0
 30
0.0
 11
-112.0
 21
94.0
 31
0.0
  0
LINE
  5
508
  8
LAYER1$C$L1
 62
     3
 10
-105.3000030518
 20
108.0
 30
0.0
 11
-105.3000030518
 21
94.0
 31
0.0
  0
LINE
  5
509
  8
LAYER1$C$L1
 62
     3
 10
-105.0
 20
107.6999969482
 30
0.0
 11
-105.0
 21
94.0
 31
0.0
  0
LINE
  5
50A
  8
LAYER1$C$L1
 62
     3
 10
-117.1999969482
 20
108.4999999999999
 30
0.0
 11
-112.5
 21
108.4999999999999
 31
0.0
  0
LINE
  5
50B
  8
LAYER1$C$L1
 62
     3
 10
-112.5
 20
108.4999999999999
 30
0.0
 11
-112.5
 21
94.0
 31
0.0
  0
LINE
  5
50C
  8
LAYER1$C$L1
 62
     3
 10
-118.0000005783
 20
107.4999714545999
 30
0.0
 11
-117.20000084500001
 21
108.49997112129989
 31
0.0
  0
LINE
  5
50D
  8
LAYER1$C$L1
 62
     3
 10
-117.1999969482
 20
108.4999999999999
 30
0.0
 11
-117.1999969482
 21
94.0
 31
0.0
  0
LINE
  5
50E
  8
LAYER1$C$L1
 62
     3
 10
-118.0
 20
107.4999999999999
 30
0.0
 11
-118.0
 21
94.0
 31
0.0
  0
LINE
  5
511
  8
LAYER1$C$L1
 62
     3
 10
-25.787951269301971
 20
100.2994260883999
 30
0.0
 11
-24.51515692710197
 21
101.5722204305999
 31
0.0
  0
LINE
  5
512
  8
LAYER1$C$L1
 62
     3
 10
-11.916224668301959
 20
86.427699487299975
 30
0.0
 11
-10.643430326001971
 21
87.700493829500004
 31
0.0
  0
LINE
  5
513
  8
LAYER1$C$L1
 62
     3
 10
-25.787946827001971
 20
100.299432615
 30
0.0
 11
-11.916219056601969
 21
86.427707183199985
 31
0.0
  0
LINE
  5
514
  8
LAYER1$C$L1
 62
     3
 10
-24.515163381601969
 20
101.5722162749999
 30
0.0
 11
-10.64343561120196
 21
87.700490843200001
 31
0.0
  0
LINE
  5
515
  8
LAYER1$C$L1
  6
DASH
 62
     3
 10
-11.91620786320197
 20
101.5722329007
 30
0.0
 11
-10.64342420320197
 21
100.2994493479999
 31
0.0
  0
LINE
  5
516
  8
LAYER1$C$L1
  6
DASH
 62
     3
 10
-25.78793378990197
 20
87.700505804699986
 30
0.0
 11
-24.515150129901969
 21
86.427722252000009
 31
0.0
  0
LINE
  5
517
  8
LAYER1$C$L1
  6
DASH
 62
     3
 10
-24.51515978760197
 20
86.427711571900005
 30
0.0
 11
-10.64343943510198
 21
100.29943075520001
 31
0.0
  0
LINE
  5
518
  8
LAYER1$C$L1
  6
DASH
 62
     3
 10
-25.787954129901969
 20
87.700506021499976
 30
0.0
 11
-11.91623377740197
 21
101.5722252046999
 31
0.0
  0
LINE
  5
519
  8
LAYER1$C$L1
  6
CENTER
 62
     3
 10
-36.015664385501971
 20
94.0
 30
0.0
 11
-0.4156735407019739
 21
94.0
 31
0.0
  0
LINE
  5
51A
  8
LAYER1$C$L1
 62
     3
 10
-18.21566133370197
 20
110.4999999999999
 30
0.0
 11
-14.01566438550196
 21
110.4999999999999
 31
0.0
  0
LINE
  5
51B
  8
LAYER1$C$L1
 62
     3
 10
-18.21566133370197
 20
77.5
 30
0.0
 11
-14.01566438550196
 21
77.5
 31
0.0
  0
LINE
  5
51C
  8
LAYER1$C$L1
 62
     3
 10
-18.21566133370197
 20
112.5
 30
0.0
 11
-17.115670489001971
 21
112.5
 31
0.0
  0
LINE
  5
51D
  8
LAYER1$C$L1
 62
     3
 10
-12.91567354070197
 20
75.5
 30
0.0
 11
-14.01566438550196
 21
75.5
 31
0.0
  0
LINE
  5
51E
  8
LAYER1$C$L1
 62
     3
 10
-14.01566438550196
 20
112.5
 30
0.0
 11
-14.01566438550196
 21
110.4999999999999
 31
0.0
  0
LINE
  5
51F
  8
LAYER1$C$L1
 62
     3
 10
-14.01566438550196
 20
77.5
 30
0.0
 11
-14.01566438550196
 21
75.5
 31
0.0
  0
LINE
  5
520
  8
LAYER1$C$L1
 62
     3
 10
-17.115670489001971
 20
112.5
 30
0.0
 11
-17.115670489001971
 21
110.4999999999999
 31
0.0
  0
LINE
  5
521
  8
LAYER1$C$L1
 62
     3
 10
-17.115670489001971
 20
77.5
 30
0.0
 11
-17.115670489001971
 21
75.5
 31
0.0
  0
LINE
  5
522
  8
LAYER1$C$L1
 62
     3
 10
-17.115670489001971
 20
75.5
 30
0.0
 11
-18.21566133370197
 21
75.5
 31
0.0
  0
LINE
  5
523
  8
LAYER1$C$L1
 62
     3
 10
-14.01566438550196
 20
112.5
 30
0.0
 11
-12.91567354070197
 21
112.5
 31
0.0
  0
LINE
  5
524
  8
LAYER1$C$L1
 62
     3
 10
-12.91567354070197
 20
112.0
 30
0.0
 11
-12.91567354070197
 21
112.5
 31
0.0
  0
LINE
  5
525
  8
LAYER1$C$L1
 62
     3
 10
-12.91567354070197
 20
76.0
 30
0.0
 11
-12.91567354070197
 21
75.5
 31
0.0
  0
LINE
  5
526
  8
LAYER1$C$L1
 62
     3
 10
-12.91567354070197
 20
112.0
 30
0.0
 11
-4.4156735407019729
 21
112.0
 31
0.0
  0
LINE
  5
527
  8
LAYER1$C$L1
 62
     3
 10
-12.91567354070197
 20
76.0
 30
0.0
 11
-4.4156735407019729
 21
76.0
 31
0.0
  0
LINE
  5
528
  8
LAYER1$C$L1
 62
     3
 10
-3.4156735407019729
 20
111.0
 30
0.0
 11
-3.4156735407019729
 21
77.0
 31
0.0
  0
LINE
  5
529
  8
LAYER1$C$L1
 62
     3
 10
-22.41567354070197
 20
110.4999999999999
 30
0.0
 11
-18.21566133370197
 21
110.4999999999999
 31
0.0
  0
LINE
  5
52A
  8
LAYER1$C$L1
 62
     3
 10
-22.41567354070197
 20
77.5
 30
0.0
 11
-18.21566133370197
 21
77.5
 31
0.0
  0
LINE
  5
52B
  8
LAYER1$C$L1
  6
CENTER
 62
     3
 10
-18.21566133370197
 20
60.50010681149999
 30
0.0
 11
-18.21566133370197
 21
117.5
 31
0.0
  0
LINE
  5
52C
  8
LAYER1$C$L1
 62
     3
 10
-19.315667437201981
 20
112.5
 30
0.0
 11
-18.21566133370197
 21
112.5
 31
0.0
  0
LINE
  5
52D
  8
LAYER1$C$L1
 62
     3
 10
-22.41567354070197
 20
75.5
 30
0.0
 11
-23.515664385501971
 21
75.5
 31
0.0
  0
LINE
  5
52E
  8
LAYER1$C$L1
 62
     3
 10
-22.41567354070197
 20
110.4999999999999
 30
0.0
 11
-22.41567354070197
 21
112.5
 31
0.0
  0
LINE
  5
52F
  8
LAYER1$C$L1
 62
     3
 10
-22.41567354070197
 20
75.5
 30
0.0
 11
-22.41567354070197
 21
77.5
 31
0.0
  0
LINE
  5
530
  8
LAYER1$C$L1
 62
     3
 10
-19.315667437201981
 20
110.4999999999999
 30
0.0
 11
-19.315667437201981
 21
112.5
 31
0.0
  0
LINE
  5
531
  8
LAYER1$C$L1
 62
     3
 10
-19.315667437201981
 20
75.5
 30
0.0
 11
-19.315667437201981
 21
77.5
 31
0.0
  0
LINE
  5
532
  8
LAYER1$C$L1
 62
     3
 10
-18.21566133370197
 20
75.5
 30
0.0
 11
-19.315667437201981
 21
75.5
 31
0.0
  0
LINE
  5
533
  8
LAYER1$C$L1
 62
     3
 10
-23.515664385501971
 20
112.5
 30
0.0
 11
-22.41567354070197
 21
112.5
 31
0.0
  0
LINE
  5
534
  8
LAYER1$C$L1
 62
     3
 10
-23.515664385501971
 20
112.5
 30
0.0
 11
-23.515664385501971
 21
112.0
 31
0.0
  0
LINE
  5
535
  8
LAYER1$C$L1
 62
     3
 10
-23.515664385501971
 20
75.5
 30
0.0
 11
-23.515664385501971
 21
76.0
 31
0.0
  0
LINE
  5
536
  8
LAYER1$C$L1
 62
     3
 10
-32.015664385501978
 20
112.0
 30
0.0
 11
-23.515664385501971
 21
112.0
 31
0.0
  0
LINE
  5
537
  8
LAYER1$C$L1
 62
     3
 10
-32.015664385501978
 20
76.0
 30
0.0
 11
-23.515664385501971
 21
76.0
 31
0.0
  0
LINE
  5
538
  8
LAYER1$C$L1
 62
     3
 10
-33.015664385501978
 20
77.0
 30
0.0
 11
-33.015664385501978
 21
111.0
 31
0.0
  0
LINE
  5
539
  8
LAYER1$C$L1
 62
     3
 10
-118.0
 20
167.3999633789
 30
0.0
 11
-119.700012207
 21
167.3999633789
 31
0.0
  0
LINE
  5
53A
  8
LAYER1$C$L1
 62
     3
 10
-119.700012207
 20
168.99995422360001
 30
0.0
 11
-119.700012207
 21
167.3999633789
 31
0.0
  0
LINE
  5
53B
  8
LAYER1$C$L1
 62
     3
 10
-118.50001525879991
 20
167.3999633789
 30
0.0
 11
-118.50001525879991
 21
157.99995422360001
 31
0.0
  0
LINE
  5
53C
  8
LAYER1$C$L1
 62
     3
 10
-118.0
 20
157.99995422360001
 30
0.0
 11
-120.0
 21
157.99995422360001
 31
0.0
  0
LINE
  5
53D
  8
LAYER1$C$L1
 62
     3
 10
-119.700012207
 20
170.5999450683999
 30
0.0
 11
-118.0
 21
170.5999450683999
 31
0.0
  0
LINE
  5
53E
  8
LAYER1$C$L1
 62
     3
 10
-119.700012207
 20
170.5999450683999
 30
0.0
 11
-119.700012207
 21
168.99995422360001
 31
0.0
  0
LINE
  5
53F
  8
LAYER1$C$L1
 62
     3
 10
-118.50001525879991
 20
179.99993896480001
 30
0.0
 11
-118.50001525879991
 21
170.5999450683999
 31
0.0
  0
LINE
  5
540
  8
LAYER1$C$L1
 62
     3
 10
-120.0
 20
179.99993896480001
 30
0.0
 11
-118.0
 21
179.99993896480001
 31
0.0
  0
LINE
  5
541
  8
LAYER1$C$L1
 62
     3
 10
-118.0
 20
82.999923706099992
 30
0.0
 11
-120.0
 21
82.999923706099992
 31
0.0
  0
LINE
  5
542
  8
LAYER1$C$L1
 62
     3
 10
-120.0
 20
104.99992370610001
 30
0.0
 11
-118.0
 21
104.99992370610001
 31
0.0
  0
POLYLINE
  5
543
  8
LAYER1$C$L1
 62
     3
 66
     1
 10
0.0
 20
0.0
 30
0.0
  0
VERTEX
  5
845
  8
LAYER1$C$L1
 62
     3
 10
-90.999984741200009
 20
171.9871520996
 30
0.0
  0
VERTEX
  5
846
  8
LAYER1$C$L1
 62
     3
 10
-90.251158463300015
 20
172.03176853860001
 30
0.0
  0
VERTEX
  5
847
  8
LAYER1$C$L1
 62
     3
 10
-89.523213431399995
 20
172.1643737126
 30
0.0
  0
VERTEX
  5
848
  8
LAYER1$C$L1
 62
     3
 10
-88.836448612000027
 20
172.38126988650001
 30
0.0
  0
VERTEX
  5
849
  8
LAYER1$C$L1
 62
     3
 10
-88.210014648600009
 20
172.6764088452
 30
0.0
  0
VERTEX
  5
84A
  8
LAYER1$C$L1
 62
     3
 10
-87.661379840799995
 20
173.04156055000001
 30
0.0
  0
VERTEX
  5
84B
  8
LAYER1$C$L1
 62
     3
 10
-87.205843035399994
 20
173.46654263580001
 30
0.0
  0
VERTEX
  5
84C
  8
LAYER1$C$L1
 62
     3
 10
-86.856107013300004
 20
173.93950434919989
 30
0.0
  0
VERTEX
  5
84D
  8
LAYER1$C$L1
 62
     3
 10
-86.621924268599997
 20
174.44725701039999
 30
0.0
  0
VERTEX
  5
84E
  8
LAYER1$C$L1
 62
     3
 10
-86.509825057699999
 20
174.9756417838
 30
0.0
  0
SEQEND
  5
84F
  8
LAYER1$C$L1
 62
     3
  0
POLYLINE
  5
54F
  8
LAYER1$C$L1
 62
     3
 66
     1
 10
0.0
 20
0.0
 30
0.0
  0
VERTEX
  5
850
  8
LAYER1$C$L1
 62
     3
 10
-86.509832247299997
 20
163.0243590895999
 30
0.0
  0
VERTEX
  5
851
  8
LAYER1$C$L1
 62
     3
 10
-86.621946694100004
 20
163.55273379350001
 30
0.0
  0
VERTEX
  5
852
  8
LAYER1$C$L1
 62
     3
 10
-86.8561402383
 20
164.06047515820001
 30
0.0
  0
VERTEX
  5
853
  8
LAYER1$C$L1
 62
     3
 10
-87.205882526499991
 20
164.53342510519991
 30
0.0
  0
VERTEX
  5
854
  8
LAYER1$C$L1
 62
     3
 10
-87.661421193999985
 20
164.9583956944
 30
0.0
  0
VERTEX
  5
855
  8
LAYER1$C$L1
 62
     3
 10
-88.210053804599994
 20
165.3235368629999
 30
0.0
  0
VERTEX
  5
856
  8
LAYER1$C$L1
 62
     3
 10
-88.836482050300006
 20
165.6186668574999
 30
0.0
  0
VERTEX
  5
857
  8
LAYER1$C$L1
 62
     3
 10
-89.523238336399984
 20
165.83555614619999
 30
0.0
  0
VERTEX
  5
858
  8
LAYER1$C$L1
 62
     3
 10
-90.251172854999993
 20
165.9681568945999
 30
0.0
  0
VERTEX
  5
859
  8
LAYER1$C$L1
 62
     3
 10
-90.999987566499996
 20
166.01277160639989
 30
0.0
  0
SEQEND
  5
85A
  8
LAYER1$C$L1
 62
     3
  0
POLYLINE
  5
55B
  8
LAYER1$C$L1
 62
     3
 66
     1
 10
0.0
 20
0.0
 30
0.0
  0
VERTEX
  5
85B
  8
LAYER1$C$L1
 62
     3
 10
-86.5519143052
 20
162.02473353949989
 30
0.0
  0
VERTEX
  5
85C
  8
LAYER1$C$L1
 62
     3
 10
-86.714076904500004
 20
162.51527651750001
 30
0.0
  0
VERTEX
  5
85D
  8
LAYER1$C$L1
 62
     3
 10
-86.982521046900004
 20
162.98163451289989
 30
0.0
  0
VERTEX
  5
85E
  8
LAYER1$C$L1
 62
     3
 10
-87.350589879799998
 20
163.41224282339991
 30
0.0
  0
VERTEX
  5
85F
  8
LAYER1$C$L1
 62
     3
 10
-87.809156066399979
 20
163.7964232644
 30
0.0
  0
VERTEX
  5
860
  8
LAYER1$C$L1
 62
     3
 10
-88.346848125199998
 20
164.12464896489999
 30
0.0
  0
VERTEX
  5
861
  8
LAYER1$C$L1
 62
     3
 10
-88.950332418600013
 20
164.3887806148
 30
0.0
  0
VERTEX
  5
862
  8
LAYER1$C$L1
 62
     3
 10
-89.604643799300007
 20
164.5822683019
 30
0.0
  0
VERTEX
  5
863
  8
LAYER1$C$L1
 62
     3
 10
-90.293556714699974
 20
164.70031393670001
 30
0.0
  0
VERTEX
  5
864
  8
LAYER1$C$L1
 62
     3
 10
-90.999987566499996
 20
164.73999023440001
 30
0.0
  0
SEQEND
  5
865
  8
LAYER1$C$L1
 62
     3
  0
POLYLINE
  5
567
  8
LAYER1$C$L1
 62
     3
 66
     1
 10
0.0
 20
0.0
 30
0.0
  0
VERTEX
  5
866
  8
LAYER1$C$L1
 62
     3
 10
-73.423938718199992
 20
168.36359258579989
 30
0.0
  0
VERTEX
  5
867
  8
LAYER1$C$L1
 62
     3
 10
-73.722516393000006
 20
168.7172846025999
 30
0.0
  0
VERTEX
  5
868
  8
LAYER1$C$L1
 62
     3
 10
-74.138902595600001
 20
169.00535417930001
 30
0.0
  0
VERTEX
  5
869
  8
LAYER1$C$L1
 62
     3
 10
-74.645499734399991
 20
169.2087084005999
 30
0.0
  0
VERTEX
  5
86A
  8
LAYER1$C$L1
 62
     3
 10
-75.208731142200008
 20
169.31386918609991
 30
0.0
  0
VERTEX
  5
86B
  8
LAYER1$C$L1
 62
     3
 10
-75.791266498599995
 20
169.31386660160001
 30
0.0
  0
VERTEX
  5
86C
  8
LAYER1$C$L1
 62
     3
 10
-76.354496040100003
 20
169.20870081839999
 30
0.0
  0
VERTEX
  5
86D
  8
LAYER1$C$L1
 62
     3
 10
-76.861089570000004
 20
169.00534210189991
 30
0.0
  0
VERTEX
  5
86E
  8
LAYER1$C$L1
 62
     3
 10
-77.277470660299997
 20
168.71726883049999
 30
0.0
  0
VERTEX
  5
86F
  8
LAYER1$C$L1
 62
     3
 10
-77.576042058200002
 20
168.36357416449999
 30
0.0
  0
SEQEND
  5
870
  8
LAYER1$C$L1
 62
     3
  0
POLYLINE
  5
573
  8
LAYER1$C$L1
 62
     3
 66
     1
 10
0.0
 20
0.0
 30
0.0
 70
     1
  0
VERTEX
  5
871
  8
LAYER1$C$L1
 62
     3
 10
-77.762725830099996
 20
168.99996948239991
 30
0.0
  0
VERTEX
  5
872
  8
LAYER1$C$L1
 62
     3
 10
-77.701733351200005
 20
168.6309826817
 30
0.0
  0
VERTEX
  5
873
  8
LAYER1$C$L1
 62
     3
 10
-77.52204403479999
 20
168.28188805479991
 30
0.0
  0
VERTEX
  5
874
  8
LAYER1$C$L1
 62
     3
 10
-77.233344978600002
 20
167.97150538369999
 30
0.0
  0
VERTEX
  5
875
  8
LAYER1$C$L1
 62
     3
 10
-76.851200023199993
 20
167.71656747820001
 30
0.0
  0
VERTEX
  5
876
  8
LAYER1$C$L1
 62
     3
 10
-76.396210702299996
 20
167.5308181071
 30
0.0
  0
VERTEX
  5
877
  8
LAYER1$C$L1
 62
     3
 10
-75.892905607800003
 20
167.4242710668
 30
0.0
  0
VERTEX
  5
878
  8
LAYER1$C$L1
 62
     3
 10
-75.368418047700004
 20
167.402670336
 30
0.0
  0
VERTEX
  5
879
  8
LAYER1$C$L1
 62
     3
 10
-74.851023282100002
 20
167.4671804155999
 30
0.0
  0
VERTEX
  5
87A
  8
LAYER1$C$L1
 62
     3
 10
-74.36861419680001
 20
167.61432355060001
 30
0.0
  0
VERTEX
  5
87B
  8
LAYER1$C$L1
 62
     3
 10
-73.947197590299993
 20
167.8361672163999
 30
0.0
  0
VERTEX
  5
87C
  8
LAYER1$C$L1
 62
     3
 10
-73.609492141099992
 20
168.12075176359991
 30
0.0
  0
VERTEX
  5
87D
  8
LAYER1$C$L1
 62
     3
 10
-73.373703637299997
 20
168.4527351655999
 30
0.0
  0
VERTEX
  5
87E
  8
LAYER1$C$L1
 62
     3
 10
-73.25254349810001
 20
168.81422011119989
 30
0.0
  0
VERTEX
  5
87F
  8
LAYER1$C$L1
 62
     3
 10
-73.25254349810001
 20
169.18571885360001
 30
0.0
  0
VERTEX
  5
880
  8
LAYER1$C$L1
 62
     3
 10
-73.373703637299997
 20
169.54720379930001
 30
0.0
  0
VERTEX
  5
881
  8
LAYER1$C$L1
 62
     3
 10
-73.609492141099992
 20
169.87918720129991
 30
0.0
  0
VERTEX
  5
882
  8
LAYER1$C$L1
 62
     3
 10
-73.947197590299993
 20
170.16377174850001
 30
0.0
  0
VERTEX
  5
883
  8
LAYER1$C$L1
 62
     3
 10
-74.36861419680001
 20
170.38561541429991
 30
0.0
  0
VERTEX
  5
884
  8
LAYER1$C$L1
 62
     3
 10
-74.851023282100002
 20
170.5327585492
 30
0.0
  0
VERTEX
  5
885
  8
LAYER1$C$L1
 62
     3
 10
-75.368418047700004
 20
170.5972686287999
 30
0.0
  0
VERTEX
  5
886
  8
LAYER1$C$L1
 62
     3
 10
-75.892905607800003
 20
170.57566789800001
 30
0.0
  0
VERTEX
  5
887
  8
LAYER1$C$L1
 62
     3
 10
-76.396210702299996
 20
170.46912085779991
 30
0.0
  0
VERTEX
  5
888
  8
LAYER1$C$L1
 62
     3
 10
-76.851200023199993
 20
170.2833714866
 30
0.0
  0
VERTEX
  5
889
  8
LAYER1$C$L1
 62
     3
 10
-77.233344978600002
 20
170.02843358120001
 30
0.0
  0
VERTEX
  5
88A
  8
LAYER1$C$L1
 62
     3
 10
-77.52204403479999
 20
169.7180509099999
 30
0.0
  0
VERTEX
  5
88B
  8
LAYER1$C$L1
 62
     3
 10
-77.701733351200005
 20
169.36895628319991
 30
0.0
  0
SEQEND
  5
88C
  8
LAYER1$C$L1
 62
     3
  0
POLYLINE
  5
590
  8
LAYER1$C$L1
 62
     3
 66
     1
 10
0.0
 20
0.0
 30
0.0
  0
VERTEX
  5
88D
  8
LAYER1$C$L1
 62
     3
 10
-86.509825057699999
 20
88.024358216200014
 30
0.0
  0
VERTEX
  5
88E
  8
LAYER1$C$L1
 62
     3
 10
-86.621924268599997
 20
88.552742989599992
 30
0.0
  0
VERTEX
  5
88F
  8
LAYER1$C$L1
 62
     3
 10
-86.856107013300004
 20
89.060495650799993
 30
0.0
  0
VERTEX
  5
890
  8
LAYER1$C$L1
 62
     3
 10
-87.205843035399994
 20
89.533457364200004
 30
0.0
  0
VERTEX
  5
891
  8
LAYER1$C$L1
 62
     3
 10
-87.661379840799995
 20
89.95843945
 30
0.0
  0
VERTEX
  5
892
  8
LAYER1$C$L1
 62
     3
 10
-88.210014648600009
 20
90.323591154799999
 30
0.0
  0
VERTEX
  5
893
  8
LAYER1$C$L1
 62
     3
 10
-88.836448612000027
 20
90.618730113500007
 30
0.0
  0
VERTEX
  5
894
  8
LAYER1$C$L1
 62
     3
 10
-89.523213431399995
 20
90.835626287400004
 30
0.0
  0
VERTEX
  5
895
  8
LAYER1$C$L1
 62
     3
 10
-90.251158463300015
 20
90.968231461399995
 30
0.0
  0
VERTEX
  5
896
  8
LAYER1$C$L1
 62
     3
 10
-90.999984741200009
 20
91.012847900400004
 30
0.0
  0
SEQEND
  5
897
  8
LAYER1$C$L1
 62
     3
  0
POLYLINE
  5
59C
  8
LAYER1$C$L1
 62
     3
 66
     1
 10
0.0
 20
0.0
 30
0.0
  0
VERTEX
  5
898
  8
LAYER1$C$L1
 62
     3
 10
-90.999987566499996
 20
96.98722839360002
 30
0.0
  0
VERTEX
  5
899
  8
LAYER1$C$L1
 62
     3
 10
-90.251172854999993
 20
97.031843105400014
 30
0.0
  0
VERTEX
  5
89A
  8
LAYER1$C$L1
 62
     3
 10
-89.523238336399984
 20
97.164443853799995
 30
0.0
  0
VERTEX
  5
89B
  8
LAYER1$C$L1
 62
     3
 10
-88.836482050300006
 20
97.381333142499983
 30
0.0
  0
VERTEX
  5
89C
  8
LAYER1$C$L1
 62
     3
 10
-88.210053804599994
 20
97.676463137000013
 30
0.0
  0
VERTEX
  5
89D
  8
LAYER1$C$L1
 62
     3
 10
-87.661421193999985
 20
98.041604305599989
 30
0.0
  0
VERTEX
  5
89E
  8
LAYER1$C$L1
 62
     3
 10
-87.205882526499991
 20
98.466574894800004
 30
0.0
  0
VERTEX
  5
89F
  8
LAYER1$C$L1
 62
     3
 10
-86.8561402383
 20
98.939524841800008
 30
0.0
  0
VERTEX
  5
8A0
  8
LAYER1$C$L1
 62
     3
 10
-86.621946694100004
 20
99.447266206500004
 30
0.0
  0
VERTEX
  5
8A1
  8
LAYER1$C$L1
 62
     3
 10
-86.509832247299997
 20
99.975640910400003
 30
0.0
  0
SEQEND
  5
8A2
  8
LAYER1$C$L1
 62
     3
  0
POLYLINE
  5
5A8
  8
LAYER1$C$L1
 62
     3
 66
     1
 10
0.0
 20
0.0
 30
0.0
  0
VERTEX
  5
8A3
  8
LAYER1$C$L1
 62
     3
 10
-90.999987566499996
 20
98.260009765599989
 30
0.0
  0
VERTEX
  5
8A4
  8
LAYER1$C$L1
 62
     3
 10
-90.293556714699974
 20
98.299686063300001
 30
0.0
  0
VERTEX
  5
8A5
  8
LAYER1$C$L1
 62
     3
 10
-89.604643799300007
 20
98.417731698099999
 30
0.0
  0
VERTEX
  5
8A6
  8
LAYER1$C$L1
 62
     3
 10
-88.950332418600013
 20
98.611219385200002
 30
0.0
  0
VERTEX
  5
8A7
  8
LAYER1$C$L1
 62
     3
 10
-88.346848125199998
 20
98.875351035099996
 30
0.0
  0
VERTEX
  5
8A8
  8
LAYER1$C$L1
 62
     3
 10
-87.809156066399979
 20
99.203576735599995
 30
0.0
  0
VERTEX
  5
8A9
  8
LAYER1$C$L1
 62
     3
 10
-87.350589879799998
 20
99.587757176599993
 30
0.0
  0
VERTEX
  5
8AA
  8
LAYER1$C$L1
 62
     3
 10
-86.982521046900004
 20
100.0183654870999
 30
0.0
  0
VERTEX
  5
8AB
  8
LAYER1$C$L1
 62
     3
 10
-86.714076904500004
 20
100.4847234824999
 30
0.0
  0
VERTEX
  5
8AC
  8
LAYER1$C$L1
 62
     3
 10
-86.5519143052
 20
100.9752664604999
 30
0.0
  0
SEQEND
  5
8AD
  8
LAYER1$C$L1
 62
     3
  0
POLYLINE
  5
5B4
  8
LAYER1$C$L1
 62
     3
 66
     1
 10
0.0
 20
0.0
 30
0.0
  0
VERTEX
  5
8AE
  8
LAYER1$C$L1
 62
     3
 10
-77.576042058200002
 20
94.636422801000009
 30
0.0
  0
VERTEX
  5
8AF
  8
LAYER1$C$L1
 62
     3
 10
-77.277470660299997
 20
94.282726448399984
 30
0.0
  0
VERTEX
  5
8B0
  8
LAYER1$C$L1
 62
     3
 10
-76.861089570000004
 20
93.994651803300002
 30
0.0
  0
VERTEX
  5
8B1
  8
LAYER1$C$L1
 62
     3
 10
-76.354496040100003
 20
93.791292117099985
 30
0.0
  0
VERTEX
  5
8B2
  8
LAYER1$C$L1
 62
     3
 10
-75.791266498599995
 20
93.686125832499997
 30
0.0
  0
VERTEX
  5
8B3
  8
LAYER1$C$L1
 62
     3
 10
-75.208731142200008
 20
93.686123247900014
 30
0.0
  0
VERTEX
  5
8B4
  8
LAYER1$C$L1
 62
     3
 10
-74.645499734399991
 20
93.791284534900001
 30
0.0
  0
VERTEX
  5
8B5
  8
LAYER1$C$L1
 62
     3
 10
-74.138902595600001
 20
93.994639725900001
 30
0.0
  0
VERTEX
  5
8B6
  8
LAYER1$C$L1
 62
     3
 10
-73.722516393000006
 20
94.282710676299985
 30
0.0
  0
VERTEX
  5
8B7
  8
LAYER1$C$L1
 62
     3
 10
-73.423938718199992
 20
94.636404379599995
 30
0.0
  0
SEQEND
  5
8B8
  8
LAYER1$C$L1
 62
     3
  0
POLYLINE
  5
5C0
  8
LAYER1$C$L1
 62
     3
 66
     1
 10
0.0
 20
0.0
 30
0.0
 70
     1
  0
VERTEX
  5
8B9
  8
LAYER1$C$L1
 62
     3
 10
-77.762725830099996
 20
94.000030517599996
 30
0.0
  0
VERTEX
  5
8BA
  8
LAYER1$C$L1
 62
     3
 10
-77.701733351200005
 20
93.631045476299988
 30
0.0
  0
VERTEX
  5
8BB
  8
LAYER1$C$L1
 62
     3
 10
-77.52204403479999
 20
93.281952514099984
 30
0.0
  0
VERTEX
  5
8BC
  8
LAYER1$C$L1
 62
     3
 10
-77.233344978600002
 20
92.971571322900004
 30
0.0
  0
VERTEX
  5
8BD
  8
LAYER1$C$L1
 62
     3
 10
-76.851200023199993
 20
92.7166346331
 30
0.0
  0
VERTEX
  5
8BE
  8
LAYER1$C$L1
 62
     3
 10
-76.396210702299996
 20
92.530886147700002
 30
0.0
  0
VERTEX
  5
8BF
  8
LAYER1$C$L1
 62
     3
 10
-75.892905607800003
 20
92.424339615499974
 30
0.0
  0
VERTEX
  5
8C0
  8
LAYER1$C$L1
 62
     3
 10
-75.368418047700004
 20
92.402738987599989
 30
0.0
  0
VERTEX
  5
8C1
  8
LAYER1$C$L1
 62
     3
 10
-74.851023282100002
 20
92.467248759599997
 30
0.0
  0
VERTEX
  5
8C2
  8
LAYER1$C$L1
 62
     3
 10
-74.36861419680001
 20
92.614391192999975
 30
0.0
  0
VERTEX
  5
8C3
  8
LAYER1$C$L1
 62
     3
 10
-73.947197590299993
 20
92.836233800900004
 30
0.0
  0
VERTEX
  5
8C4
  8
LAYER1$C$L1
 62
     3
 10
-73.609492141099992
 20
93.120816991100014
 30
0.0
  0
VERTEX
  5
8C5
  8
LAYER1$C$L1
 62
     3
 10
-73.373703637299997
 20
93.452798810100006
 30
0.0
  0
VERTEX
  5
8C6
  8
LAYER1$C$L1
 62
     3
 10
-73.25254349810001
 20
93.814282032099996
 30
0.0
  0
VERTEX
  5
8C7
  8
LAYER1$C$L1
 62
     3
 10
-73.25254349810001
 20
94.185779002999979
 30
0.0
  0
VERTEX
  5
8C8
  8
LAYER1$C$L1
 62
     3
 10
-73.373703637299997
 20
94.547262224999983
 30
0.0
  0
VERTEX
  5
8C9
  8
LAYER1$C$L1
 62
     3
 10
-73.609492141099992
 20
94.879244043999989
 30
0.0
  0
VERTEX
  5
8CA
  8
LAYER1$C$L1
 62
     3
 10
-73.947197590299993
 20
95.163827234199985
 30
0.0
  0
VERTEX
  5
8CB
  8
LAYER1$C$L1
 62
     3
 10
-74.36861419680001
 20
95.385669842199988
 30
0.0
  0
VERTEX
  5
8CC
  8
LAYER1$C$L1
 62
     3
 10
-74.851023282100002
 20
95.532812275500007
 30
0.0
  0
VERTEX
  5
8CD
  8
LAYER1$C$L1
 62
     3
 10
-75.368418047700004
 20
95.597322047500001
 30
0.0
  0
VERTEX
  5
8CE
  8
LAYER1$C$L1
 62
     3
 10
-75.892905607800003
 20
95.575721419699974
 30
0.0
  0
VERTEX
  5
8CF
  8
LAYER1$C$L1
 62
     3
 10
-76.396210702299996
 20
95.469174887500003
 30
0.0
  0
VERTEX
  5
8D0
  8
LAYER1$C$L1
 62
     3
 10
-76.851200023199993
 20
95.283426401999989
 30
0.0
  0
VERTEX
  5
8D1
  8
LAYER1$C$L1
 62
     3
 10
-77.233344978600002
 20
95.028489712299987
 30
0.0
  0
VERTEX
  5
8D2
  8
LAYER1$C$L1
 62
     3
 10
-77.52204403479999
 20
94.718108521100007
 30
0.0
  0
VERTEX
  5
8D3
  8
LAYER1$C$L1
 62
     3
 10
-77.701733351200005
 20
94.369015558899989
 30
0.0
  0
SEQEND
  5
8D4
  8
LAYER1$C$L1
 62
     3
  0
INSERT
  5
7FC
  8
0
  2
*U44
 10
0.0
 20
0.0
 30
0.0
  0
ENDSEC
  0
EOF
