  0
SECTION
  2
HEADER
  9
$ACADVER
  1
AC1009
  9
$INSBASE
 10
0.0
 20
0.0
 30
0.0
  9
$EXTMIN
 10
-212.00024414059999
 20
73.512301012999998
 30
0.0
  9
$EXTMAX
 10
0.0
 20
297.0
 30
0.0
  9
$LIMMIN
 10
-215.17524414059989
 20
-3.1749999999999989
  9
$LIMMAX
 10
3.1749999999999989
 20
300.17500000000001
  9
$ORTHOMODE
 70
     0
  9
$REGENMODE
 70
     1
  9
$FILLMODE
 70
     1
  9
$QTEXTMODE
 70
     0
  9
$MIRRTEXT
 70
     0
  9
$DRAGMODE
 70
     2
  9
$LTSCALE
 40
1.0
  9
$OSMODE
 70
    39
  9
$ATTMODE
 70
     1
  9
$TEXTSIZE
 40
2.9999940394999989
  9
$TRACEWID
 40
0.05
  9
$TEXTSTYLE
  7
STANDARD
  9
$CLAYER
  8
0
  9
$CELTYPE
  6
BYLAYER
  9
$CECOLOR
 62
   256
  9
$DIMSCALE
 40
1.0
  9
$DIMASZ
 40
1.9727878441999991
  9
$DIMEXO
 40
2.5399999618999991
  9
$DIMDLI
 40
0.38
  9
$DIMRND
 40
0.0
  9
$DIMDLE
 40
0.0
  9
$DIMEXE
 40
3.8099999427999989
  9
$DIMTP
 40
0.0
  9
$DIMTM
 40
0.0
  9
$DIMTXT
 40
2.9999940394999989
  9
$DIMCEN
 40
0.09
  9
$DIMTSZ
 40
0.0
  9
$DIMTOL
 70
     0
  9
$DIMLIM
 70
     0
  9
$DIMTIH
 70
     0
  9
$DIMTOH
 70
     1
  9
$DIMSE1
 70
     0
  9
$DIMSE2
 70
     0
  9
$DIMTAD
 70
     0
  9
$DIMZIN
 70
     0
  9
$DIMBLK
  1

  9
$DIMASO
 70
     1
  9
$DIMSHO
 70
     0
  9
$DIMPOST
  1

  9
$DIMAPOST
  1

  9
$DIMALT
 70
     0
  9
$DIMALTD
 70
     2
  9
$DIMALTF
 40
25.399999999999999
  9
$DIMLFAC
 40
1.0
  9
$DIMTOFL
 70
     0
  9
$DIMTVP
 40
0.0
  9
$DIMTIX
 70
     0
  9
$DIMSOXD
 70
     0
  9
$DIMSAH
 70
     0
  9
$DIMBLK1
  1

  9
$DIMBLK2
  1

  9
$DIMSTYLE
  2
STANDARD
  9
$DIMCLRD
 70
     0
  9
$DIMCLRE
 70
     0
  9
$DIMCLRT
 70
     0
  9
$DIMTFAC
 40
1.0
  9
$DIMGAP
 40
0.09
  9
$LUNITS
 70
     2
  9
$LUPREC
 70
     3
  9
$SKETCHINC
 40
0.1
  9
$FILLETRAD
 40
0.0625
  9
$AUNITS
 70
     0
  9
$AUPREC
 70
     0
  9
$MENU
  1
ACAD
  9
$ELEVATION
 40
0.0
  9
$PELEVATION
 40
0.0
  9
$THICKNESS
 40
0.0
  9
$LIMCHECK
 70
     0
  9
$BLIPMODE
 70
     0
  9
$CHAMFERA
 40
0.0
  9
$CHAMFERB
 40
0.0
  9
$SKPOLY
 70
     0
  9
$TDCREATE
 40
2452011.3995023142
  9
$TDUPDATE
 40
2452374.7959526731
  9
$TDINDWG
 40
0.0519551389
  9
$TDUSRTIMER
 40
0.0519545602
  9
$USRTIMER
 70
     1
  9
$ANGBASE
 50
0.0
  9
$ANGDIR
 70
     0
  9
$PDMODE
 70
     0
  9
$PDSIZE
 40
0.0
  9
$PLINEWID
 40
0.0
  9
$COORDS
 70
     1
  9
$SPLFRAME
 70
     0
  9
$SPLINETYPE
 70
     6
  9
$SPLINESEGS
 70
     8
  9
$ATTDIA
 70
     0
  9
$ATTREQ
 70
     1
  9
$HANDLING
 70
  4097
  9
$HANDSEED
  5
6A9
  9
$SURFTAB1
 70
     6
  9
$SURFTAB2
 70
     6
  9
$SURFTYPE
 70
     6
  9
$SURFU
 70
     6
  9
$SURFV
 70
     6
  9
$UCSNAME
  2

  9
$UCSORG
 10
0.0
 20
0.0
 30
0.0
  9
$UCSXDIR
 10
1.0
 20
0.0
 30
0.0
  9
$UCSYDIR
 10
0.0
 20
1.0
 30
0.0
  9
$PUCSNAME
  2

  9
$PUCSORG
 10
0.0
 20
0.0
 30
0.0
  9
$PUCSXDIR
 10
1.0
 20
0.0
 30
0.0
  9
$PUCSYDIR
 10
0.0
 20
1.0
 30
0.0
  9
$USERI1
 70
     0
  9
$USERI2
 70
     0
  9
$USERI3
 70
     0
  9
$USERI4
 70
     0
  9
$USERI5
 70
     0
  9
$USERR1
 40
0.0
  9
$USERR2
 40
0.0
  9
$USERR3
 40
0.0
  9
$USERR4
 40
0.0
  9
$USERR5
 40
0.0
  9
$WORLDVIEW
 70
     1
  9
$SHADEDGE
 70
     3
  9
$SHADEDIF
 70
    70
  9
$TILEMODE
 70
     1
  9
$MAXACTVP
 70
    64
  9
$PLIMCHECK
 70
     0
  9
$PEXTMIN
 10
1.0000000000000000E+020
 20
1.0000000000000000E+020
 30
1.0000000000000000E+020
  9
$PEXTMAX
 10
-1.0000000000000000E+020
 20
-1.0000000000000000E+020
 30
-1.0000000000000000E+020
  9
$PLIMMIN
 10
0.0
 20
0.0
  9
$PLIMMAX
 10
12.0
 20
9.0
  9
$UNITMODE
 70
     0
  9
$VISRETAIN
 70
     1
  9
$PLINEGEN
 70
     0
  9
$PSLTSCALE
 70
     1
  0
ENDSEC
  0
SECTION
  2
TABLES
  0
TABLE
  2
VPORT
 70
     2
  0
VPORT
  2
*ACTIVE
 70
     0
 10
0.0
 20
0.0
 11
1.0
 21
1.0
 12
-114.75248610147671
 22
111.8354818763262
 13
0.0
 23
0.0
 14
1.0
 24
1.0
 15
0.0
 25
0.0
 16
0.0
 26
0.0
 36
1.0
 17
0.0
 27
0.0
 37
0.0
 40
210.79103567710109
 41
1.565365025466892
 42
50.0
 43
0.0
 44
0.0
 50
0.0
 51
0.0
 71
     0
 72
   100
 73
     1
 74
     1
 75
     0
 76
     0
 77
     0
 78
     0
  0
ENDTAB
  0
TABLE
  2
LTYPE
 70
     6
  0
LTYPE
  2
CONTINUOUS
 70
     0
  3
Solid line
 72
    65
 73
     0
 40
0.0
  0
LTYPE
  2
SOLID
 70
     0
  3
Solid
 72
    65
 73
     0
 40
0.0
  0
LTYPE
  2
CENTERLINE
 70
     0
  3
Centerline
 72
    65
 73
     4
 40
25.399999999999999
 49
19.050000000000001
 49
-1.587499999999999
 49
3.1749999999999989
 49
-1.587499999999999
  0
LTYPE
  2
PHANTOM
 70
     0
  3
Phantom
 72
    65
 73
     6
 40
30.162500000000001
 49
19.050000000000001
 49
-1.587499999999999
 49
3.1749999999999989
 49
-1.587499999999999
 49
3.1749999999999989
 49
-1.587499999999999
  0
LTYPE
  2
GAP
 70
     0
  3
Gap
 72
    65
 73
     3
 40
2540.9999980092002
 49
0.0
 49
-0.9999980092000002
 49
2540.0
  0
LTYPE
  2
DASH
 70
     0
  3
Dash
 72
    65
 73
     2
 40
2.0
 49
1.0
 49
-1.0
  0
ENDTAB
  0
TABLE
  2
LAYER
 70
     9
  0
LAYER
  2
0
 70
     0
 62
     7
  6
CONTINUOUS
  0
LAYER
  2
LAYER0$C$L0
 70
     0
 62
     3
  6
SOLID
  0
LAYER
  2
LAYER1$C$L1
 70
     0
 62
     3
  6
SOLID
  0
LAYER
  2
LAYER4$C$L4
 70
     0
 62
     3
  6
SOLID
  0
LAYER
  2
LAYER6$C$L6
 70
     0
 62
    31
  6
SOLID
  0
LAYER
  2
LAYER8$C$L8
 70
     0
 62
   192
  6
SOLID
  0
LAYER
  2
LAYER9$C$L9
 70
     0
 62
     1
  6
SOLID
  0
LAYER
  2
DEFPOINTS
 70
     0
 62
     7
  6
CONTINUOUS
  0
LAYER
  2
DIMENSIONS
 70
     0
 62
     5
  6
CONTINUOUS
  0
ENDTAB
  0
TABLE
  2
STYLE
 70
     1
  0
STYLE
  2
STANDARD
 70
     0
 40
0.0
 41
1.0
 50
0.0
 71
     0
 42
2.9999940394999989
  3
txt
  4

  0
ENDTAB
  0
TABLE
  2
VIEW
 70
     0
  0
ENDTAB
  0
TABLE
  2
UCS
 70
     0
  0
ENDTAB
  0
TABLE
  2
APPID
 70
     1
  0
APPID
  2
ACAD
 70
     0
  0
ENDTAB
  0
TABLE
  2
DIMSTYLE
 70
     1
  0
DIMSTYLE
  2
STANDARD
 70
     0
  3

  4

  5

  6

  7

 40
1.0
 41
0.18
 42
0.0625
 43
0.38
 44
0.18
 45
0.0
 46
0.0
 47
0.0
 48
0.0
140
0.18
141
0.09
142
0.0
143
25.399999999999999
144
1.0
145
0.0
146
1.0
147
0.09
 71
     0
 72
     0
 73
     1
 74
     1
 75
     0
 76
     0
 77
     0
 78
     0
170
     0
171
     2
172
     0
173
     0
174
     0
175
     0
176
     0
177
     0
178
     0
  0
ENDTAB
  0
ENDSEC
  0
SECTION
  2
BLOCKS
  0
BLOCK
  8
0
  2
$MODEL_SPACE
 70
     0
 10
0.0
 20
0.0
 30
0.0
  3
$MODEL_SPACE
  1

  0
ENDBLK
  5
20
  8
0
  0
BLOCK
 67
     1
  8
0
  2
$PAPER_SPACE
 70
     0
 10
0.0
 20
0.0
 30
0.0
  3
$PAPER_SPACE
  1

  0
ENDBLK
  5
1C
 67
     1
  8
0
  0
BLOCK
  8
LAYER0$C$L0
  2
BLOCK0
 70
     0
 10
0.0
 20
0.0
 30
0.0
  3
BLOCK0
  1

  0
POINT
  5
C3
  8
LAYER0$C$L0
 10
0.0
 20
0.0
 30
0.0
  0
POINT
  5
C4
  8
LAYER0$C$L0
 10
1.0
 20
0.0
 30
0.0
  0
POINT
  5
C5
  8
LAYER0$C$L0
 10
0.0
 20
0.0
 30
0.0
  0
LINE
  5
C6
  8
LAYER1$C$L1
 10
-9.9117385818999981
 20
-6.9402721846000004
 30
0.0
 11
-10.648976736899989
 21
-7.4564917577999994
 31
0.0
  0
LINE
  5
C7
  8
LAYER1$C$L1
 10
-1.3334793508
 20
15.241777393299991
 30
0.0
 11
-1.2550388787999991
 21
14.3452025787
 31
0.0
  0
LINE
  5
C8
  8
LAYER1$C$L1
 10
10.9663216113
 20
-5.1136800181000002
 30
0.0
 11
11.781999975399991
 21
-5.4940371059000004
 31
0.0
  0
LINE
  5
C9
  8
LAYER1$C$L1
 10
13.86650713329999
 20
-6.4660578367999992
 30
0.0
 11
13.050831201199991
 21
-6.0857022262999987
 31
0.0
  0
LINE
  5
CA
  8
LAYER1$C$L1
 10
-12.533025739299999
 20
-8.7757174883999998
 30
0.0
 11
-11.795789361300001
 21
-8.2594986873000007
 31
0.0
  0
LINE
  5
CB
  8
LAYER1$C$L1
 10
-13.233182840599991
 20
-3.5458174570999992
 30
0.0
 11
-12.533025737399999
 21
-8.7757153802999994
 31
0.0
  0
ARC
  5
CC
  8
LAYER1$C$L1
 10
0.0
 20
0.0
 30
0.0
 40
13.0
 50
270.00001798609998
 51
284.99998766769988
  0
ARC
  5
CD
  8
LAYER1$C$L1
 10
0.0
 20
0.0
 30
0.0
 40
13.0
 50
334.99994352440001
 51
44.999926120199959
  0
ARC
  5
CE
  8
LAYER1$C$L1
 10
0.0
 20
0.0
 30
0.0
 40
13.0
 50
95.000008335400011
 51
165.0000489878
  0
ARC
  5
CF
  8
LAYER1$C$L1
 10
0.0
 20
0.0
 30
0.0
 40
14.39999961849999
 50
95.000008335400011
 51
165.0000489878
  0
ARC
  5
D0
  8
LAYER1$C$L1
 10
0.0
 20
0.0
 30
0.0
 40
14.39999961849999
 50
270.00001798609998
 51
284.99998766769988
  0
LINE
  5
D1
  8
LAYER1$C$L1
 10
-1.0545817669999991
 20
12.053953845800001
 30
0.0
 11
-1.1330214396
 21
12.95053066779999
 31
0.0
  0
LINE
  5
D2
  8
LAYER1$C$L1
 10
3.5458219618999989
 20
13.2331822177
 30
0.0
 11
-1.054582582699999
 21
12.053953893299999
 31
0.0
  0
LINE
  5
D3
  8
LAYER1$C$L1
 10
-13.2331826567
 20
-3.5458192881000001
 30
0.0
 11
-9.9117380595000011
 21
-6.940272907999999
 31
0.0
  0
LINE
  5
D4
  8
LAYER1$C$L1
 10
9.6873611083000011
 20
-9.6873628059999994
 30
0.0
 11
13.866505854899991
 21
-6.4660585446000001
 31
0.0
  0
LINE
  5
D5
  8
LAYER1$C$L1
 10
10.966322630000001
 20
-5.1136787312000003
 30
0.0
 11
9.6873623512999991
 21
-9.687362113899999
 31
0.0
  0
LINE
  5
D6
  8
LAYER1$C$L1
 10
3.5458210327999988
 20
13.23318261359999
 30
0.0
 11
-1.3334803112999991
 21
15.2417771219
 31
0.0
  0
LINE
  5
D7
  8
LAYER1$C$L1
 10
3.7269910077999988
 20
-13.90933025819999
 30
0.0
 11
3.3646443583999992
 21
-12.55703549349999
 31
0.0
  0
ARC
  5
D8
  8
LAYER1$C$L1
 10
0.0
 20
0.0
 30
0.0
 40
13.0
 50
215.00000165680001
 51
270.00001798609998
  0
ARC
  5
D9
  8
LAYER1$C$L1
 10
0.0
 20
0.0
 30
0.0
 40
14.39999961849999
 50
215.00000165680001
 51
270.00001798609998
  0
ARC
  5
DA
  8
LAYER1$C$L1
 10
0.0
 20
0.0
 30
0.0
 40
14.39999961849999
 50
334.99994352440001
 51
44.999926120199959
  0
LINE
  5
DB
  8
LAYER1$C$L1
 10
10.182337389000001
 20
10.182335672400001
 30
0.0
 11
9.1923880986000004
 21
9.1923865489000001
 31
0.0
  0
LINE
  5
DC
  8
LAYER1$C$L1
 10
-13.909329399900001
 20
3.7269927244000001
 30
0.0
 11
-12.55703471859999
 21
3.3646459081999991
 31
0.0
  0
POINT
  5
DD
  8
LAYER0$C$L0
 10
0.0
 20
0.0
 30
0.0
  0
POINT
  5
DE
  8
LAYER0$C$L0
 10
0.0
 20
0.0
 30
0.0
  0
POINT
  5
DF
  8
LAYER0$C$L0
 10
0.0
 20
0.0
 30
0.0
  0
ENDBLK
  5
E0
  8
LAYER0$C$L0
  0
BLOCK
  8
LAYER8$C$L8
  2
CADRA_ATTR_0
 70
     2
 10
0.0
 20
0.0
 30
0.0
  3
CADRA_ATTR_0
  1

  0
TEXT
  5
E3
  8
LAYER8$C$L8
 62
     3
 10
-176.80469724720001
 20
4.5
 30
0.0
 40
2.0
  1
Ç`
 41
0.866665459700016
 72
     5
 11
-175.07136632779989
 21
4.5
 31
0.0
  0
ATTDEF
  5
E4
  8
LAYER8$C$L8
 62
     3
 10
-175.93803399999999
 20
5.5
 30
0.0
 40
0.156
  1
ç%é
  3

  2
40
 70
    11
  0
ENDBLK
  5
E5
  8
LAYER8$C$L8
  0
BLOCK
  8
LAYER8$C$L8
  2
CADRA_ATTR_1
 70
     2
 10
0.0
 20
0.0
 30
0.0
  3
CADRA_ATTR_1
  1

  0
TEXT
  5
E8
  8
LAYER8$C$L8
 62
     3
 10
-66.173770592799997
 20
3.4200000763
 30
0.0
 40
4.1599998473999991
  1
*
 41
1.299998376148976
 72
     5
 11
-62.568441895200003
 21
3.4200000763
 31
0.0
  0
ATTDEF
  5
E9
  8
LAYER8$C$L8
 62
     3
 10
-64.371105
 20
5.5
 30
0.0
 40
0.156
  1
ç9néL
  3

  2
110
 70
    11
  0
ENDBLK
  5
EA
  8
LAYER8$C$L8
  0
BLOCK
  8
LAYER8$C$L8
  2
CADRA_ATTR_2
 70
     2
 10
0.0
 20
0.0
 30
0.0
  3
CADRA_ATTR_2
  1

  0
TEXT
  5
ED
  8
LAYER8$C$L8
 62
     3
 10
-65.511744086299998
 20
12.5
 30
0.0
 40
5.0
  1
ÇlÇ`ÇSÅ|Ç`ÇOÇRÇTÇSÇS
 41
0.6198390126707373
 72
     5
 11
-16.4411555832
 21
12.5
 31
0.0
  0
ATTDEF
  5
EE
  8
LAYER8$C$L8
 62
     3
 10
-40.976449000000002
 20
15.0
 30
0.0
 40
0.156
  1
  
  3

  2
20
 70
    11
  0
ENDBLK
  5
EF
  8
LAYER8$C$L8
  0
BLOCK
  8
LAYER8$C$L8
  2
CADRA_ATTR_3
 70
     2
 10
0.0
 20
0.0
 30
0.0
  3
CADRA_ATTR_3
  1

  0
TEXT
  5
F2
  8
LAYER8$C$L8
 62
     3
 10
-83.609394981600005
 20
29.5
 30
0.0
 40
4.0
  1
Ç`ÇuÇvÇS
 41
0.592176840846154
 72
     5
 11
-68.212797119599983
 21
29.5
 31
0.0
  0
ATTDEF
  5
F3
  8
LAYER8$C$L8
 62
     3
 10
-75.911097999999996
 20
31.5
 30
0.0
 40
0.156
  1
ç9-é>ç;,é
  3

  2
10
 70
    11
  0
ENDBLK
  5
F4
  8
LAYER8$C$L8
  0
BLOCK
  8
LAYER8$C$L8
  2
CADRA_ATTR_4
 70
     2
 10
0.0
 20
0.0
 30
0.0
  3
CADRA_ATTR_4
  1

  0
TEXT
  5
F7
  8
LAYER8$C$L8
 62
     3
 10
-82.950550114299986
 20
38.5
 30
0.0
 40
4.0
  1
ÇsÇvÅ@ÇrÇdÇqÇhÇdÇrÅ@ÇoÇtÇrÇgÇaÇtÇsÇsÇnÇmÅ@ÇrÇvÇhÇsÇbÇgÇdÇr
 41
0.3268745894966874
 72
     5
 11
-13.871053534
 21
38.5
 31
0.0
  0
ATTDEF
  5
F8
  8
LAYER8$C$L8
 62
     3
 10
-48.410803999999999
 20
40.499999999999993
 30
0.0
 40
0.156
  1
ç9néE
  3

  2
0
 70
    11
  0
ENDBLK
  5
F9
  8
LAYER8$C$L8
  0
BLOCK
  8
LAYER8$C$L8
  2
CADRA_ATTR_5
 70
     2
 10
0.0
 20
0.0
 30
0.0
  3
CADRA_ATTR_5
  1

  0
TEXT
  5
FC
  8
LAYER8$C$L8
 62
     3
 10
-168.8046972471999
 20
4.5
 30
0.0
 40
2.0
  1
ÇsÇvÅ|ÇgÇv
 41
0.5930584603897942
 72
     5
 11
-159.11807572750001
 21
4.5
 31
0.0
  0
ATTDEF
  5
FD
  8
LAYER8$C$L8
 62
     3
 10
-163.96138799999991
 20
5.5
 30
0.0
 40
0.156
  1
ç%é
  3

  2
50
 70
    11
  0
ENDBLK
  5
FE
  8
LAYER8$C$L8
  0
BLOCK
  8
0
  2
*D23
 70
     1
 10
0.0
 20
0.0
 30
0.0
  3
*D23
  1

  0
LINE
  5
606
  8
DIMENSIONS
 62
     0
 10
-41.549071662499998
 20
113.512301013
 30
0.0
 11
-19.579059474499989
 21
113.5123010129999
 31
0.0
  0
LINE
  5
607
  8
DIMENSIONS
 62
     0
 10
-41.549071662499998
 20
76.512301012999998
 30
0.0
 11
-19.579059474499989
 21
76.512301012999984
 31
0.0
  0
LINE
  5
608
  8
DIMENSIONS
 62
     0
 10
-23.38905941729999
 20
111.5395131687999
 30
0.0
 11
-23.38905941729999
 21
99.352292568958319
 31
0.0
  0
LINE
  5
609
  8
DIMENSIONS
 62
     0
 10
-23.3890594173
 20
78.485088857199983
 30
0.0
 11
-23.38905941729999
 21
90.672309457041649
 31
0.0
  0
SOLID
  5
60A
  8
DIMENSIONS
 62
     0
 10
-23.717857391333322
 20
111.5395131687999
 30
0.0
 11
-23.060261443266661
 21
111.5395131687999
 31
0.0
 12
-23.38905941729999
 22
113.5123010129999
 32
0.0
 13
-23.38905941729999
 23
113.5123010129999
 33
0.0
  0
SOLID
  5
60B
  8
DIMENSIONS
 62
     0
 10
-23.717857391333329
 20
78.485088857199983
 30
0.0
 11
-23.060261443266661
 21
78.485088857199983
 31
0.0
 12
-23.3890594173
 22
76.512301012999984
 32
0.0
 13
-23.3890594173
 23
76.512301012999984
 33
0.0
  0
TEXT
  5
60C
  8
0
 62
     0
 10
-21.88906239755001
 20
90.762309457041667
 30
0.0
 40
2.9999940394999989
  1
37.0
 50
90.0
  0
POINT
  5
60D
  8
DEFPOINTS
 62
     0
 10
-44.089071624399999
 20
113.512301013
 30
0.0
  0
POINT
  5
60E
  8
DEFPOINTS
 62
     0
 10
-44.089071624399999
 20
76.512301012999998
 30
0.0
  0
POINT
  5
60F
  8
DEFPOINTS
 62
     0
 10
-23.3890594173
 20
76.512301012999984
 30
0.0
  0
ENDBLK
  5
161
  8
0
  0
BLOCK
  8
0
  2
*D25
 70
     1
 10
0.0
 20
0.0
 30
0.0
  3
*D25
  1

  0
LINE
  5
624
  8
DIMENSIONS
 62
     0
 10
-109.3890594172999
 20
148.7722888440999
 30
0.0
 11
-109.3890594172999
 21
135.20236210539991
 31
0.0
  0
LINE
  5
625
  8
DIMENSIONS
 62
     0
 10
-122.3890594172999
 20
148.97230105109989
 30
0.0
 11
-122.3890594172999
 21
135.20236210539991
 31
0.0
  0
LINE
  5
626
  8
DIMENSIONS
 62
     0
 10
-111.3618472615
 20
139.01236204819989
 30
0.0
 11
-112.04906686792491
 21
139.01236204819989
 31
0.0
  0
LINE
  5
627
  8
DIMENSIONS
 62
     0
 10
-120.41627157309991
 20
139.01236204819989
 30
0.0
 11
-119.7290519666749
 21
139.01236204819989
 31
0.0
  0
SOLID
  5
628
  8
DIMENSIONS
 62
     0
 10
-111.3618472615
 20
139.34116002223331
 30
0.0
 11
-111.3618472615
 21
138.68356407416661
 31
0.0
 12
-109.3890594172999
 22
139.01236204819989
 32
0.0
 13
-109.3890594172999
 23
139.01236204819989
 33
0.0
  0
SOLID
  5
629
  8
DIMENSIONS
 62
     0
 10
-120.41627157309991
 20
139.34116002223331
 30
0.0
 11
-120.41627157309991
 21
138.68356407416661
 31
0.0
 12
-122.3890594172999
 22
139.01236204819989
 32
0.0
 13
-122.3890594172999
 23
139.01236204819989
 33
0.0
  0
TEXT
  5
62A
  8
0
 62
     0
 10
-119.6390519666749
 20
137.51236502845001
 30
0.0
 40
2.9999940394999989
  1
13.0
  0
POINT
  5
62B
  8
DEFPOINTS
 62
     0
 10
-109.3890594172999
 20
151.312288806
 30
0.0
  0
POINT
  5
62C
  8
DEFPOINTS
 62
     0
 10
-122.3890594172999
 20
151.5123010129999
 30
0.0
  0
POINT
  5
62D
  8
DEFPOINTS
 62
     0
 10
-122.3890594172999
 20
139.01236204819989
 30
0.0
  0
ENDBLK
  5
17A
  8
0
  0
BLOCK
  8
0
  2
*D27
 70
     1
 10
0.0
 20
0.0
 30
0.0
  3
*D27
  1

  0
LINE
  5
62E
  8
DIMENSIONS
 62
     0
 10
-170.88904415850001
 20
147.7722735852999
 30
0.0
 11
-170.88904415850001
 21
135.20236210539991
 31
0.0
  0
LINE
  5
62F
  8
DIMENSIONS
 62
     0
 10
-122.3890594172999
 20
148.97230105109989
 30
0.0
 11
-122.3890594172999
 21
135.20236210539991
 31
0.0
  0
LINE
  5
630
  8
DIMENSIONS
 62
     0
 10
-168.9162563143
 20
139.01236204819989
 30
0.0
 11
-151.22904284715
 21
139.01236204819989
 31
0.0
  0
LINE
  5
631
  8
DIMENSIONS
 62
     0
 10
-124.3618472614999
 20
139.01236204819989
 30
0.0
 11
-142.04906072865001
 21
139.01236204819989
 31
0.0
  0
SOLID
  5
632
  8
DIMENSIONS
 62
     0
 10
-168.9162563143
 20
139.34116002223331
 30
0.0
 11
-168.9162563143
 21
138.68356407416661
 31
0.0
 12
-170.88904415850001
 22
139.01236204819989
 32
0.0
 13
-170.88904415850001
 23
139.01236204819989
 33
0.0
  0
SOLID
  5
633
  8
DIMENSIONS
 62
     0
 10
-124.3618472614999
 20
139.34116002223331
 30
0.0
 11
-124.3618472614999
 21
138.68356407416661
 31
0.0
 12
-122.3890594172999
 22
139.01236204819989
 32
0.0
 13
-122.3890594172999
 23
139.01236204819989
 33
0.0
  0
TEXT
  5
634
  8
0
 62
     0
 10
-151.13904284714999
 20
137.51236502845001
 30
0.0
 40
2.9999940394999989
  1
48.5
  0
POINT
  5
635
  8
DEFPOINTS
 62
     0
 10
-170.88904415850001
 20
150.31227354719999
 30
0.0
  0
POINT
  5
636
  8
DEFPOINTS
 62
     0
 10
-122.3890594172999
 20
151.5123010129999
 30
0.0
  0
POINT
  5
637
  8
DEFPOINTS
 62
     0
 10
-122.3890594172999
 20
139.01236204819989
 30
0.0
  0
ENDBLK
  5
192
  8
0
  0
BLOCK
  8
0
  2
*D28
 70
     1
 10
0.0
 20
0.0
 30
0.0
  3
*D28
  1

  0
LINE
  5
64C
  8
DIMENSIONS
 62
     0
 10
-122.3890594172999
 20
148.97230105109989
 30
0.0
 11
-122.3890594172999
 21
125.92252276009241
 31
0.0
  0
LINE
  5
64D
  8
DIMENSIONS
 62
     0
 10
-99.88905941729999
 20
154.4401965589
 30
0.0
 11
-99.88905941729999
 21
125.92252276009241
 31
0.0
  0
LINE
  5
64E
  8
DIMENSIONS
 62
     0
 10
-120.41627157309991
 20
129.7325227028924
 30
0.0
 11
-115.05313566848
 21
129.7325227028924
 31
0.0
  0
LINE
  5
64F
  8
DIMENSIONS
 62
     0
 10
-101.8618472614999
 20
129.7325227028924
 30
0.0
 11
-105.87315354998
 21
129.7325227028924
 31
0.0
  0
SOLID
  5
650
  8
DIMENSIONS
 62
     0
 10
-120.41627157309991
 20
130.0613206769257
 30
0.0
 11
-120.41627157309991
 21
129.403724728859
 31
0.0
 12
-122.3890594172999
 22
129.7325227028924
 32
0.0
 13
-122.3890594172999
 23
129.7325227028924
 33
0.0
  0
SOLID
  5
651
  8
DIMENSIONS
 62
     0
 10
-101.8618472614999
 20
130.0613206769257
 30
0.0
 11
-101.8618472614999
 21
129.403724728859
 31
0.0
 12
-99.88905941729999
 22
129.7325227028924
 32
0.0
 13
-99.88905941729999
 23
129.7325227028924
 33
0.0
  0
TEXT
  5
652
  8
0
 62
     0
 10
-114.96313566848001
 20
128.2325256831424
 30
0.0
 40
2.9999940394999989
  1
22.5
  0
POINT
  5
653
  8
DEFPOINTS
 62
     0
 10
-122.3890594172999
 20
151.5123010129999
 30
0.0
  0
POINT
  5
654
  8
DEFPOINTS
 62
     0
 10
-99.88905941729999
 20
156.98019652080001
 30
0.0
  0
POINT
  5
655
  8
DEFPOINTS
 62
     0
 10
-99.88905941729999
 20
129.7325227028924
 30
0.0
  0
ENDBLK
  5
1A1
  8
0
  0
BLOCK
  8
0
  2
*D29
 70
     1
 10
0.0
 20
0.0
 30
0.0
  3
*D29
  1

  0
LINE
  5
5F2
  8
DIMENSIONS
 62
     0
 10
-101.4544366526999
 20
145.0123620482
 30
0.0
 11
-90.079059474499999
 21
145.0123620482
 31
0.0
  0
LINE
  5
5F3
  8
DIMENSIONS
 62
     0
 10
-101.4544366526999
 20
185.0123010129999
 30
0.0
 11
-90.079059474499985
 21
185.0123010129999
 31
0.0
  0
LINE
  5
5F4
  8
DIMENSIONS
 62
     0
 10
-93.889059417300004
 20
146.98514989239999
 30
0.0
 11
-93.889059417300004
 21
159.42234245818329
 31
0.0
  0
LINE
  5
5F5
  8
DIMENSIONS
 62
     0
 10
-93.889059417300004
 20
183.03951316879991
 30
0.0
 11
-93.889059417300004
 21
170.60232060301661
 31
0.0
  0
SOLID
  5
5F6
  8
DIMENSIONS
 62
     0
 10
-94.217857391333325
 20
146.98514989239999
 30
0.0
 11
-93.560261443266668
 21
146.98514989239999
 31
0.0
 12
-93.889059417300004
 22
145.0123620482
 32
0.0
 13
-93.889059417300004
 23
145.0123620482
 33
0.0
  0
SOLID
  5
5F7
  8
DIMENSIONS
 62
     0
 10
-94.217857391333325
 20
183.03951316879991
 30
0.0
 11
-93.560261443266654
 21
183.03951316879991
 31
0.0
 12
-93.889059417300004
 22
185.0123010129999
 32
0.0
 13
-93.889059417300004
 23
185.0123010129999
 33
0.0
  0
INSERT
  5
5F8
  8
0
  2
*U37
 10
0.0
 20
0.0
 30
0.0
  0
POINT
  5
5F9
  8
DEFPOINTS
 62
     0
 10
-103.99443661459991
 20
145.0123620482
 30
0.0
  0
POINT
  5
5FA
  8
DEFPOINTS
 62
     0
 10
-103.99443661459991
 20
185.0123010129999
 30
0.0
  0
POINT
  5
5FB
  8
DEFPOINTS
 62
     0
 10
-93.889059417300004
 20
185.0123010129999
 30
0.0
  0
ENDBLK
  5
1AE
  8
0
  0
BLOCK
  8
0
  2
*D30
 70
     1
 10
0.0
 20
0.0
 30
0.0
  3
*D30
  1

  0
LINE
  5
5FC
  8
DIMENSIONS
 62
     0
 10
-64.189062469099994
 20
114.55230097489989
 30
0.0
 11
-64.189062469099994
 21
129.8223009557999
 31
0.0
  0
LINE
  5
5FD
  8
DIMENSIONS
 62
     0
 10
-34.589071624399999
 20
114.5522857161
 30
0.0
 11
-34.589071624399999
 21
129.8223009557999
 31
0.0
  0
LINE
  5
5FE
  8
DIMENSIONS
 62
     0
 10
-62.216274624899988
 20
126.012301013
 30
0.0
 11
-53.979058105999997
 21
126.012301013
 31
0.0
  0
LINE
  5
5FF
  8
DIMENSIONS
 62
     0
 10
-36.561859468599991
 20
126.012301013
 30
0.0
 11
-44.799075987499997
 21
126.012301013
 31
0.0
  0
SOLID
  5
600
  8
DIMENSIONS
 62
     0
 10
-62.216274624899988
 20
126.34109898703331
 30
0.0
 11
-62.216274624899988
 21
125.68350303896661
 31
0.0
 12
-64.189062469099994
 22
126.012301013
 32
0.0
 13
-64.189062469099994
 23
126.012301013
 33
0.0
  0
SOLID
  5
601
  8
DIMENSIONS
 62
     0
 10
-36.561859468599991
 20
126.34109898703331
 30
0.0
 11
-36.561859468599991
 21
125.68350303896661
 31
0.0
 12
-34.589071624399999
 22
126.012301013
 32
0.0
 13
-34.589071624399999
 23
126.012301013
 33
0.0
  0
TEXT
  5
602
  8
0
 62
     0
 10
-53.889058106
 20
124.5123039932499
 30
0.0
 40
2.9999940394999989
  1
29.6
  0
POINT
  5
603
  8
DEFPOINTS
 62
     0
 10
-64.189062469099994
 20
112.0123010129999
 30
0.0
  0
POINT
  5
604
  8
DEFPOINTS
 62
     0
 10
-34.589071624399999
 20
112.01228575419999
 30
0.0
  0
POINT
  5
605
  8
DEFPOINTS
 62
     0
 10
-34.589071624399999
 20
126.012301013
 30
0.0
  0
ENDBLK
  5
23C
  8
0
  0
BLOCK
  8
0
  2
*U37
 70
     1
 10
0.0
 20
0.0
 30
0.0
  3
*U37
  1

  0
TEXT
  5
6A0
  8
0
 62
     0
 10
-92.389062397550006
 20
159.5123424581833
 30
0.0
 40
2.9999940394999989
  1
\U+2205
 50
90.0
  0
TEXT
  5
6A1
  8
0
 62
     0
 10
-92.389062397550006
 20
162.51233649768329
 30
0.0
 40
2.9999940394999989
  1
40.0
 50
90.0
  0
ENDBLK
  5
6A3
  8
0
  0
BLOCK
  8
0
  2
*U38
 70
     1
 10
0.0
 20
0.0
 30
0.0
  3
*U38
  1

  0
TEXT
  5
6A5
  8
0
 10
-137.98641959043971
 20
202.60739445834571
 30
0.0
 40
2.9999940394999989
  1
AVW401
  0
TEXT
  5
6A6
  8
0
 10
-137.98641959043971
 20
197.60740439251231
 30
0.0
 40
2.9999940394999989
  1
(dimensions in mm)
  0
ENDBLK
  5
6A8
  8
0
  0
ENDSEC
  0
SECTION
  2
ENTITIES
  0
LINE
  5
103
  8
LAYER1$C$L1
 62
     3
 10
-191.0
 20
290.0
 30
0.0
 11
-8.0
 21
290.0
 31
0.0
  0
LINE
  5
11E
  8
LAYER1$C$L1
 62
     3
 10
-212.00024414059999
 20
297.0
 30
0.0
 11
0.0
 21
297.0
 31
0.0
  0
CIRCLE
  5
128
  8
LAYER6$C$L6
 62
     3
 10
-204.0
 20
289.49999999999989
 30
0.0
 40
0.1499999762
  0
INSERT
  5
129
  8
LAYER0$C$L0
 62
     3
  2
BLOCK0
 10
-49.389059000000003
 20
95.012300999999994
 30
0.0
 50
90.0
  0
LINE
  5
138
  8
LAYER1$C$L1
 62
     3
 10
-34.589071624399999
 20
81.560137316699993
 30
0.0
 11
-34.589071624399999
 21
78.012301012999984
 31
0.0
  0
ARC
  5
139
  8
LAYER1$C$L1
 62
     3
 10
-103.994406097
 20
77.012362048200004
 30
0.0
 40
2.0
 50
269.99974477849992
 51
346.65799043760001
  0
ARC
  5
13A
  8
LAYER1$C$L1
 62
     3
 10
-179.8890594172999
 20
95.012331530599994
 30
0.0
 40
80.0
 50
346.65765917339991
 51
13.34234082660001
  0
ARC
  5
13B
  8
LAYER1$C$L1
 62
     3
 10
-103.994406097
 20
113.0123010129999
 30
0.0
 40
2.0
 50
13.342009562399999
 51
90.000255221499984
  0
LINE
  5
13C
  8
LAYER1$C$L1
 62
     3
 10
-103.99443661459991
 20
95.012316271800003
 30
0.0
 11
-105.8890899349
 21
95.012316271800003
 31
0.0
  0
LINE
  5
13D
  8
LAYER1$C$L1
 62
     3
 10
-103.99443661459991
 20
90.312349841100001
 30
0.0
 11
-105.8890899349
 21
90.312349841100001
 31
0.0
  0
LINE
  5
13E
  8
LAYER1$C$L1
 62
     3
 10
-103.99443661459991
 20
87.412355944699996
 30
0.0
 11
-105.8890899349
 21
87.412355944699996
 31
0.0
  0
LINE
  5
13F
  8
LAYER1$C$L1
 62
     3
 10
-103.99443661459991
 20
84.812349841100016
 30
0.0
 11
-105.8890899349
 21
84.812349841100016
 31
0.0
  0
LINE
  5
140
  8
LAYER1$C$L1
 62
     3
 10
-103.99443661459991
 20
82.512346789399984
 30
0.0
 11
-105.8890899349
 21
82.512346789399984
 31
0.0
  0
LINE
  5
141
  8
LAYER1$C$L1
 62
     3
 10
-103.99443661459991
 20
80.512346789399999
 30
0.0
 11
-105.8890899349
 21
80.512346789399999
 31
0.0
  0
LINE
  5
142
  8
LAYER1$C$L1
 62
     3
 10
-103.99443661459991
 20
78.812365099899992
 30
0.0
 11
-105.8890899349
 21
78.812365099899992
 31
0.0
  0
LINE
  5
143
  8
LAYER1$C$L1
 62
     3
 10
-103.99443661459991
 20
77.412355944699996
 30
0.0
 11
-105.8890899349
 21
77.412355944699996
 31
0.0
  0
LINE
  5
144
  8
LAYER1$C$L1
 62
     3
 10
-103.99443661459991
 20
76.312349841100001
 30
0.0
 11
-105.8890899349
 21
76.312349841100001
 31
0.0
  0
LINE
  5
145
  8
LAYER1$C$L1
 62
     3
 10
-103.99443661459991
 20
75.512346789399999
 30
0.0
 11
-105.8890899349
 21
75.512346789399999
 31
0.0
  0
LINE
  5
146
  8
LAYER1$C$L1
 62
     3
 10
-105.88907467609999
 20
99.712282702500005
 30
0.0
 11
-103.9944213557999
 21
99.712282702500005
 31
0.0
  0
LINE
  5
147
  8
LAYER1$C$L1
 62
     3
 10
-105.88907467609999
 20
102.612276599
 30
0.0
 11
-103.9944213557999
 21
102.612276599
 31
0.0
  0
LINE
  5
148
  8
LAYER1$C$L1
 62
     3
 10
-105.88907467609999
 20
105.2122827025
 30
0.0
 11
-103.9944213557999
 21
105.2122827025
 31
0.0
  0
LINE
  5
149
  8
LAYER1$C$L1
 62
     3
 10
-105.88907467609999
 20
107.51228575419999
 30
0.0
 11
-103.9944213557999
 21
107.51228575419999
 31
0.0
  0
LINE
  5
14A
  8
LAYER1$C$L1
 62
     3
 10
-105.88907467609999
 20
109.51228575419999
 30
0.0
 11
-103.9944213557999
 21
109.51228575419999
 31
0.0
  0
LINE
  5
14B
  8
LAYER1$C$L1
 62
     3
 10
-105.88907467609999
 20
111.2122827025
 30
0.0
 11
-103.9944213557999
 21
111.2122827025
 31
0.0
  0
LINE
  5
14C
  8
LAYER1$C$L1
 62
     3
 10
-105.88907467609999
 20
112.6122918577999
 30
0.0
 11
-103.9944213557999
 21
112.6122918577999
 31
0.0
  0
LINE
  5
14D
  8
LAYER1$C$L1
 62
     3
 10
-105.88907467609999
 20
113.7122979613
 30
0.0
 11
-103.9944213557999
 21
113.7122979613
 31
0.0
  0
LINE
  5
14E
  8
LAYER1$C$L1
 62
     3
 10
-105.88907467609999
 20
114.512301013
 30
0.0
 11
-103.9944213557999
 21
114.512301013
 31
0.0
  0
LINE
  5
14F
  8
LAYER1$C$L1
 62
     3
 10
-109.3890594172999
 20
83.212328478800003
 30
0.0
 11
-105.8890594173
 21
83.212328478800003
 31
0.0
  0
LINE
  5
150
  8
LAYER1$C$L1
 62
     3
 10
-109.3890594172999
 20
106.81231932359999
 30
0.0
 11
-105.8890594173
 21
106.81231932359999
 31
0.0
  0
LINE
  5
151
  8
LAYER1$C$L1
 62
     3
 10
-103.99443661459991
 20
75.012362048200004
 30
0.0
 11
-103.99443661459991
 21
115.0123010129999
 31
0.0
  0
LINE
  5
152
  8
LAYER1$C$L1
 62
     3
 10
-105.88907467609999
 20
115.0123010129999
 30
0.0
 11
-103.9944213557999
 21
115.0123010129999
 31
0.0
  0
LINE
  5
153
  8
LAYER1$C$L1
 62
     3
 10
-105.88907467609999
 20
75.012331530600008
 30
0.0
 11
-103.9944213557999
 21
75.012331530600008
 31
0.0
  0
LINE
  5
154
  8
LAYER1$C$L1
 62
     3
 10
-105.8890594173
 20
95.012331530599994
 30
0.0
 11
-105.8890594173
 21
75.012331530600008
 31
0.0
  0
LINE
  5
155
  8
LAYER1$C$L1
 62
     3
 10
-105.8890594173
 20
115.01233153059989
 30
0.0
 11
-105.8890594173
 21
95.012331530599994
 31
0.0
  0
DIMENSION
  5
156
  8
DIMENSIONS
  2
*D23
 10
-23.3890594173
 20
76.512301012999984
 30
0.0
 11
-23.389059417300011
 21
95.012301012999984
 31
0.0
 70
     0
 13
-44.089071624399999
 23
113.512301013
 33
0.0
 14
-44.089071624399999
 24
76.512301012999998
 34
0.0
 50
270.0
1001
ACAD
1000
DSTYLE
1002
{
1070
    41
1040
1.9727878441999991
1070
    42
1040
2.5399999618999991
1070
    44
1040
3.8099999427999989
1070
    73
1070
     0
1070
   140
1040
2.9999940394999989
1070
   271
1070
     1
1070
   272
1070
     1
1002
}
  0
DIMENSION
  5
16F
  8
DIMENSIONS
  2
*D25
 10
-122.3890594172999
 20
139.01236204819989
 30
0.0
 11
-115.8890594172999
 21
139.01236204819989
 31
0.0
 70
     0
 13
-109.3890594172999
 23
151.312288806
 33
0.0
 14
-122.3890594172999
 24
151.5123010129999
 34
0.0
 50
180.0
1001
ACAD
1000
DSTYLE
1002
{
1070
    41
1040
1.9727878441999991
1070
    42
1040
2.5399999618999991
1070
    44
1040
3.8099999427999989
1070
    73
1070
     0
1070
   140
1040
2.9999940394999989
1070
   271
1070
     1
1070
   272
1070
     1
1002
}
  0
DIMENSION
  5
187
  8
DIMENSIONS
  2
*D27
 10
-122.3890594172999
 20
139.01236204819989
 30
0.0
 11
-146.63905178789989
 21
139.01236204819989
 31
0.0
 70
     0
 13
-170.88904415850001
 23
150.31227354719999
 33
0.0
 14
-122.3890594172999
 24
151.5123010129999
 34
0.0
1001
ACAD
1000
DSTYLE
1002
{
1070
    41
1040
1.9727878441999991
1070
    42
1040
2.5399999618999991
1070
    44
1040
3.8099999427999989
1070
    73
1070
     0
1070
   140
1040
2.9999940394999989
1070
   271
1070
     1
1070
   272
1070
     1
1002
}
  0
ARC
  5
193
  8
LAYER1$C$L1
 62
     3
 10
-103.994406097
 20
147.0123620482
 30
0.0
 40
2.0
 50
269.99974477849992
 51
346.65799043760001
  0
ARC
  5
194
  8
LAYER1$C$L1
 62
     3
 10
-179.8890594172999
 20
165.01233153059991
 30
0.0
 40
80.0
 50
346.65765917339991
 51
13.34234082660001
  0
ARC
  5
195
  8
LAYER1$C$L1
 62
     3
 10
-103.994406097
 20
183.0123010129999
 30
0.0
 40
2.0
 50
13.342009562399999
 51
90.000255221499984
  0
DIMENSION
  5
196
  8
DIMENSIONS
  2
*D28
 10
-99.88905941729999
 20
129.7325227028924
 30
0.0
 11
-110.46314460923
 21
129.7325227028924
 31
0.0
 70
   128
 13
-122.3890594172999
 23
151.5123010129999
 33
0.0
 14
-99.88905941729999
 24
156.98019652080001
 34
0.0
1001
ACAD
1000
DSTYLE
1002
{
1070
    41
1040
1.9727878441999991
1070
    42
1040
2.5399999618999991
1070
    44
1040
3.8099999427999989
1070
    73
1070
     0
1070
   140
1040
2.9999940394999989
1070
   271
1070
     1
1070
   272
1070
     1
1002
}
  0
LINE
  5
1A2
  8
LAYER1$C$L1
 62
     3
 10
-103.99443661459991
 20
165.0123162717999
 30
0.0
 11
-105.8890899349
 21
165.0123162717999
 31
0.0
  0
DIMENSION
  5
1A3
  8
DIMENSIONS
  2
*D29
 10
-93.889059417300004
 20
185.0123010129999
 30
0.0
 11
-93.889059417300004
 21
165.01233153059991
 31
0.0
 70
     1
  1
%%c<>
 13
-103.99443661459991
 23
145.0123620482
 33
0.0
 14
-103.99443661459991
 24
185.0123010129999
 34
0.0
1001
ACAD
1000
DSTYLE
1002
{
1070
    41
1040
1.9727878441999991
1070
    42
1040
2.5399999618999991
1070
    44
1040
3.8099999427999989
1070
    73
1070
     0
1070
   140
1040
2.9999940394999989
1070
   271
1070
     1
1070
   272
1070
     1
1002
}
  0
LINE
  5
1B1
  8
LAYER1$C$L1
 62
     3
 10
-105.88907467609999
 20
172.61227659900001
 30
0.0
 11
-103.9944213557999
 21
172.61227659900001
 31
0.0
  0
LINE
  5
1B2
  8
LAYER1$C$L1
 62
     3
 10
-105.88907467609999
 20
181.2122827025
 30
0.0
 11
-103.9944213557999
 21
181.2122827025
 31
0.0
  0
LINE
  5
1B3
  8
LAYER1$C$L1
 62
     3
 10
-105.88907467609999
 20
182.6122918577999
 30
0.0
 11
-103.9944213557999
 21
182.6122918577999
 31
0.0
  0
LINE
  5
1B4
  8
LAYER1$C$L1
 62
     3
 10
-105.88907467609999
 20
179.51228575419989
 30
0.0
 11
-103.9944213557999
 21
179.51228575419989
 31
0.0
  0
LINE
  5
1B5
  8
LAYER1$C$L1
 62
     3
 10
-105.88907467609999
 20
177.51228575419989
 30
0.0
 11
-103.9944213557999
 21
177.51228575419989
 31
0.0
  0
LINE
  5
1B6
  8
LAYER1$C$L1
 62
     3
 10
-105.88907467609999
 20
175.21228270249989
 30
0.0
 11
-103.9944213557999
 21
175.21228270249989
 31
0.0
  0
LINE
  5
1B7
  8
LAYER4$C$L4
  6
PHANTOM
 62
     3
 10
-49.38905941729999
 20
75.612337634100001
 30
0.0
 11
-49.38905941729999
 21
76.512301012999998
 31
0.0
  0
LINE
  5
1FB
  8
LAYER1$C$L1
  6
PHANTOM
 62
     3
 10
-160.48905026209999
 20
160.71234373760001
 30
0.0
 11
-160.48905026209999
 21
163.91229490949999
 31
0.0
  0
LINE
  5
1FC
  8
LAYER1$C$L1
  6
PHANTOM
 62
     3
 10
-160.48905026209999
 20
163.91231016829991
 30
0.0
 11
-164.98901974450001
 21
163.91231016829991
 31
0.0
  0
LINE
  5
1FF
  8
LAYER1$C$L1
  6
PHANTOM
 62
     3
 10
-165.98901974450001
 20
165.01228575420001
 30
0.0
 11
-174.3890594172999
 21
165.01228575420001
 31
0.0
  0
LINE
  5
205
  8
LAYER4$C$L4
  6
PHANTOM
 62
     3
 10
-49.38905941729999
 20
113.512301013
 30
0.0
 11
-49.38905941729999
 21
114.41229490950001
 31
0.0
  0
LINE
  5
225
  8
LAYER1$C$L1
 62
     3
 10
-105.8890594173
 20
165.01233153059991
 30
0.0
 11
-105.8890594173
 21
145.01233153059999
 31
0.0
  0
LINE
  5
226
  8
LAYER1$C$L1
 62
     3
 10
-105.88907467609999
 20
145.01233153059999
 30
0.0
 11
-103.9944213557999
 21
145.01233153059999
 31
0.0
  0
ARC
  5
228
  8
LAYER1$C$L1
 62
     3
 10
-35.589071624399999
 20
112.01228575419999
 30
0.0
 40
1.0
 50
0.000072627560058
 51
89.999982013899995
  0
ARC
  5
229
  8
LAYER1$C$L1
 62
     3
 10
-35.589071624399999
 20
78.012301012999984
 30
0.0
 40
1.0
 50
270.00012726910001
 51
0.000072627600094
  0
ARC
  5
22A
  8
LAYER1$C$L1
 62
     3
 10
-63.189062469100001
 20
112.0123010129999
 30
0.0
 40
1.0
 50
89.999982013899995
 51
179.9999640277999
  0
ARC
  5
22B
  8
LAYER1$C$L1
 62
     3
 10
-63.189062469100001
 20
78.012316271800003
 30
0.0
 40
1.0
 50
179.9999640277999
 51
269.9999460416999
  0
CIRCLE
  5
22C
  8
LAYER1$C$L1
 62
     3
 10
-49.38905941729999
 20
95.012301012999998
 30
0.0
 40
20.0
  0
CIRCLE
  5
22D
  8
LAYER1$C$L1
 62
     3
 10
-49.38905941729999
 20
95.012301012999998
 30
0.0
 40
10.0
  0
LINE
  5
22E
  8
LAYER1$C$L1
  6
DASH
 62
     3
 10
-64.189062469099994
 20
81.560152575499998
 30
0.0
 11
-64.189062469099994
 21
108.46443419169999
 31
0.0
  0
LINE
  5
230
  8
LAYER1$C$L1
  6
DASH
 62
     3
 10
-34.589071624399999
 20
108.46443419169999
 30
0.0
 11
-34.589071624399999
 21
81.560152575499998
 31
0.0
  0
DIMENSION
  5
231
  8
DIMENSIONS
  2
*D30
 10
-34.589071624399999
 20
126.012301013
 30
0.0
 11
-49.38906704675
 21
126.012301013
 31
0.0
 70
     0
 13
-64.189062469099994
 23
112.0123010129999
 33
0.0
 14
-34.589071624399999
 24
112.01228575419999
 34
0.0
1001
ACAD
1000
DSTYLE
1002
{
1070
    41
1040
1.9727878441999991
1070
    42
1040
2.5399999618999991
1070
    44
1040
3.8099999427999989
1070
    73
1070
     0
1070
   140
1040
2.9999940394999989
1070
   271
1070
     1
1070
   272
1070
     1
1002
}
  0
LINE
  5
23D
  8
LAYER1$C$L1
  6
DASH
 62
     3
 10
-44.089071624399999
 20
113.0123010129999
 30
0.0
 11
-44.089071624399999
 21
113.512301013
 31
0.0
  0
LINE
  5
23E
  8
LAYER1$C$L1
  6
DASH
 62
     3
 10
-48.289068572600002
 20
78.512301012999998
 30
0.0
 11
-48.289068572600002
 21
76.512301012999998
 31
0.0
  0
LINE
  5
23F
  8
LAYER1$C$L1
  6
DASH
 62
     3
 10
-44.089071624399999
 20
77.012301012999998
 30
0.0
 11
-44.089071624399999
 21
76.512301012999998
 31
0.0
  0
LINE
  5
240
  8
LAYER1$C$L1
  6
DASH
 62
     3
 10
-48.289068572600002
 20
113.512301013
 30
0.0
 11
-48.289068572600002
 21
111.512301013
 31
0.0
  0
LINE
  5
241
  8
LAYER1$C$L1
  6
DASH
 62
     3
 10
-44.089071624399999
 20
113.0123010129999
 30
0.0
 11
-40.671270720999992
 21
113.0123010129999
 31
0.0
  0
LINE
  5
242
  8
LAYER1$C$L1
  6
DASH
 62
     3
 10
-58.106863372399992
 20
77.012301012999998
 30
0.0
 11
-54.689062469100001
 21
77.012301012999998
 31
0.0
  0
LINE
  5
243
  8
LAYER1$C$L1
  6
DASH
 62
     3
 10
-44.089071624399999
 20
77.012301012999998
 30
0.0
 11
-40.671270720999992
 21
77.012301012999998
 31
0.0
  0
LINE
  5
244
  8
LAYER1$C$L1
  6
DASH
 62
     3
 10
-54.689062469100001
 20
113.512301013
 30
0.0
 11
-44.089071624399999
 21
113.512301013
 31
0.0
  0
LINE
  5
245
  8
LAYER1$C$L1
  6
DASH
 62
     3
 10
-45.189062469100001
 20
78.512301012999998
 30
0.0
 11
-45.189062469100001
 21
76.512301012999998
 31
0.0
  0
LINE
  5
246
  8
LAYER1$C$L1
  6
DASH
 62
     3
 10
-53.589071624399999
 20
111.512301013
 30
0.0
 11
-49.389074676099987
 21
111.512301013
 31
0.0
  0
LINE
  5
247
  8
LAYER1$C$L1
  6
DASH
 62
     3
 10
-53.589071624399999
 20
78.512301012999998
 30
0.0
 11
-49.389074676099987
 21
78.512301012999998
 31
0.0
  0
LINE
  5
248
  8
LAYER1$C$L1
 62
     3
 10
-64.189062469099994
 20
108.46443419169999
 30
0.0
 11
-64.189062469099994
 21
112.0123010129999
 31
0.0
  0
LINE
  5
249
  8
LAYER1$C$L1
 62
     3
 10
-40.671255462200001
 20
113.0123010129999
 30
0.0
 11
-35.589071624399999
 21
113.0123010129999
 31
0.0
  0
LINE
  5
24A
  8
LAYER1$C$L1
 62
     3
 10
-40.671255462200001
 20
77.012301012999998
 30
0.0
 11
-35.589071624399999
 21
77.012301012999998
 31
0.0
  0
LINE
  5
24B
  8
LAYER1$C$L1
 62
     3
 10
-34.589071624399999
 20
112.0123010129999
 30
0.0
 11
-34.589071624399999
 21
108.4644494505
 31
0.0
  0
LINE
  5
24C
  8
LAYER1$C$L1
  6
DASH
 62
     3
 10
-53.589071624399999
 20
111.512301013
 30
0.0
 11
-53.589071624399999
 21
113.512301013
 31
0.0
  0
LINE
  5
24D
  8
LAYER1$C$L1
  6
DASH
 62
     3
 10
-53.589071624399999
 20
76.512301012999998
 30
0.0
 11
-53.589071624399999
 21
78.512301012999998
 31
0.0
  0
LINE
  5
24E
  8
LAYER1$C$L1
  6
CENTERLINE
 62
     3
 10
-49.38905941729999
 20
116.512301013
 30
0.0
 11
-49.38905941729999
 21
73.512301012999998
 31
0.0
  0
LINE
  5
24F
  8
LAYER1$C$L1
  6
DASH
 62
     3
 10
-50.489065520799997
 20
111.512301013
 30
0.0
 11
-50.489065520799997
 21
113.512301013
 31
0.0
  0
LINE
  5
250
  8
LAYER1$C$L1
  6
DASH
 62
     3
 10
-49.389074676099987
 20
111.512301013
 30
0.0
 11
-45.189062469100001
 21
111.512301013
 31
0.0
  0
LINE
  5
251
  8
LAYER1$C$L1
  6
DASH
 62
     3
 10
-50.489065520799997
 20
76.512301012999998
 30
0.0
 11
-50.489065520799997
 21
78.512301012999998
 31
0.0
  0
LINE
  5
252
  8
LAYER1$C$L1
  6
DASH
 62
     3
 10
-49.389074676099987
 20
78.512301012999998
 30
0.0
 11
-45.189062469100001
 21
78.512301012999998
 31
0.0
  0
LINE
  5
253
  8
LAYER1$C$L1
  6
DASH
 62
     3
 10
-44.089071624399999
 20
76.512301012999998
 30
0.0
 11
-54.689062469100001
 21
76.512301012999998
 31
0.0
  0
LINE
  5
254
  8
LAYER1$C$L1
  6
DASH
 62
     3
 10
-54.689062469100001
 20
113.512301013
 30
0.0
 11
-54.689062469100001
 21
113.0123010129999
 31
0.0
  0
LINE
  5
255
  8
LAYER1$C$L1
  6
DASH
 62
     3
 10
-54.689062469100001
 20
76.512301012999998
 30
0.0
 11
-54.689062469100001
 21
77.012301012999998
 31
0.0
  0
LINE
  5
256
  8
LAYER1$C$L1
  6
DASH
 62
     3
 10
-45.189062469100001
 20
113.512301013
 30
0.0
 11
-45.189062469100001
 21
111.512301013
 31
0.0
  0
LINE
  5
257
  8
LAYER1$C$L1
 62
     3
 10
-63.189062469100001
 20
113.0123010129999
 30
0.0
 11
-58.106848113599987
 21
113.0123010129999
 31
0.0
  0
LINE
  5
258
  8
LAYER1$C$L1
 62
     3
 10
-63.189062469100001
 20
77.012301012999998
 30
0.0
 11
-58.106848113599987
 21
77.012301012999998
 31
0.0
  0
LINE
  5
259
  8
LAYER1$C$L1
 62
     3
 10
-64.189062469099994
 20
78.012301012999984
 30
0.0
 11
-64.189062469099994
 21
81.560167834300003
 31
0.0
  0
LINE
  5
25A
  8
LAYER1$C$L1
  6
CENTERLINE
 62
     3
 10
-70.88905941729999
 20
95.012301012999998
 30
0.0
 11
-27.8890594173
 21
95.012301012999998
 31
0.0
  0
LINE
  5
25B
  8
LAYER1$C$L1
  6
DASH
 62
     3
 10
-58.106863372399992
 20
113.0123010129999
 30
0.0
 11
-54.689062469100001
 21
113.0123010129999
 31
0.0
  0
LINE
  5
25C
  8
LAYER1$C$L1
 62
     3
 10
-105.8890594173
 20
185.01233153059999
 30
0.0
 11
-105.8890594173
 21
165.01233153059991
 31
0.0
  0
TEXT
  5
25D
  8
LAYER8$C$L8
 62
     3
 10
-166.83911740069991
 20
100.70049797750001
 30
0.0
 40
1.5
  1
UÇâ600V IÇîÇà10A
 50
270.0
 41
0.5474450635855427
 72
     5
 11
-166.83911740069991
 21
89.341012908099998
 31
0.0
  0
TEXT
  5
25E
  8
LAYER8$C$L8
 62
     3
 10
-145.88904415850001
 20
178.8289551547999
 30
0.0
 40
3.5
  1
TW
 50
270.0
 41
0.8663012579142854
 72
     5
 11
-145.88904415850001
 21
172.7648463493999
 31
0.0
  0
POLYLINE
  5
25F
  8
LAYER1$C$L1
 62
     3
 66
     1
 10
0.0
 20
0.0
 30
0.0
  0
VERTEX
  5
660
  8
LAYER1$C$L1
 62
     3
 10
-163.9387725521
 20
152.3624139280999
 30
0.0
  0
VERTEX
  5
661
  8
LAYER1$C$L1
 62
     3
 10
-163.75809713169991
 20
152.39168199929989
 30
0.0
  0
VERTEX
  5
662
  8
LAYER1$C$L1
 62
     3
 10
-163.58044343750001
 20
152.47899671600001
 30
0.0
  0
VERTEX
  5
663
  8
LAYER1$C$L1
 62
     3
 10
-163.4087826588999
 20
152.62289777320001
 30
0.0
  0
VERTEX
  5
664
  8
LAYER1$C$L1
 62
     3
 10
-163.24598575569991
 20
152.8209784817
 30
0.0
  0
VERTEX
  5
665
  8
LAYER1$C$L1
 62
     3
 10
-163.09477544289999
 20
153.06992601839991
 30
0.0
  0
VERTEX
  5
666
  8
LAYER1$C$L1
 62
     3
 10
-162.95768065440001
 20
153.36557683230001
 30
0.0
  0
VERTEX
  5
667
  8
LAYER1$C$L1
 62
     3
 10
-162.8369942473999
 20
153.7029862782999
 30
0.0
  0
VERTEX
  5
668
  8
LAYER1$C$L1
 62
     3
 10
-162.73473465529989
 20
154.0765113141
 30
0.0
  0
VERTEX
  5
669
  8
LAYER1$C$L1
 62
     3
 10
-162.65261212990001
 20
154.47990487850001
 30
0.0
  0
VERTEX
  5
66A
  8
LAYER1$C$L1
 62
     3
 10
-162.5920001387999
 20
154.90642037049989
 30
0.0
  0
VERTEX
  5
66B
  8
LAYER1$C$L1
 62
     3
 10
-162.55391239389999
 20
155.34892448409991
 30
0.0
  0
VERTEX
  5
66C
  8
LAYER1$C$L1
 62
     3
 10
-162.53898589810001
 20
155.8000165094
 30
0.0
  0
VERTEX
  5
66D
  8
LAYER1$C$L1
 62
     3
 10
-162.5474702912
 20
156.25215210729991
 30
0.0
  0
VERTEX
  5
66E
  8
LAYER1$C$L1
 62
     3
 10
-162.57922367489991
 20
156.6977694853
 30
0.0
  0
VERTEX
  5
66F
  8
LAYER1$C$L1
 62
     3
 10
-162.63371498629991
 20
157.12941586569991
 30
0.0
  0
VERTEX
  5
670
  8
LAYER1$C$L1
 62
     3
 10
-162.71003287939999
 20
157.53987212999999
 30
0.0
  0
VERTEX
  5
671
  8
LAYER1$C$L1
 62
     3
 10
-162.80690096689989
 20
157.92227355659989
 30
0.0
  0
VERTEX
  5
672
  8
LAYER1$C$L1
 62
     3
 10
-162.9226991676
 20
158.2702246296999
 30
0.0
  0
VERTEX
  5
673
  8
LAYER1$C$L1
 62
     3
 10
-163.0554908016
 20
158.57790600280001
 30
0.0
  0
VERTEX
  5
674
  8
LAYER1$C$L1
 62
     3
 10
-163.20305498030001
 20
158.8401718241
 30
0.0
  0
VERTEX
  5
675
  8
LAYER1$C$L1
 62
     3
 10
-163.36292375010001
 20
159.05263579949991
 30
0.0
  0
VERTEX
  5
676
  8
LAYER1$C$L1
 62
     3
 10
-163.53242336770001
 20
159.2117445513999
 30
0.0
  0
VERTEX
  5
677
  8
LAYER1$C$L1
 62
     3
 10
-163.70871901789999
 20
159.31483704780001
 30
0.0
  0
VERTEX
  5
678
  8
LAYER1$C$L1
 62
     3
 10
-163.88886222409991
 20
159.3601891063999
 30
0.0
  0
SEQEND
  5
679
  8
LAYER1$C$L1
 62
     3
  0
POLYLINE
  5
27A
  8
LAYER1$C$L1
 62
     3
 66
     1
 10
0.0
 20
0.0
 30
0.0
  0
VERTEX
  5
67A
  8
LAYER1$C$L1
 62
     3
 10
-166.47290819049999
 20
153.3730934797
 30
0.0
  0
VERTEX
  5
67B
  8
LAYER1$C$L1
 62
     3
 10
-166.34490786949999
 20
153.0931279724
 30
0.0
  0
VERTEX
  5
67C
  8
LAYER1$C$L1
 62
     3
 10
-166.20427298679999
 20
152.8540308167
 30
0.0
  0
VERTEX
  5
67D
  8
LAYER1$C$L1
 62
     3
 10
-166.05307899280001
 20
152.6593305419
 30
0.0
  0
VERTEX
  5
67E
  8
LAYER1$C$L1
 62
     3
 10
-165.8935571664
 20
152.5119004805
 30
0.0
  0
VERTEX
  5
67F
  8
LAYER1$C$L1
 62
     3
 10
-165.7280616862999
 20
152.4139163644
 30
0.0
  0
VERTEX
  5
680
  8
LAYER1$C$L1
 62
     3
 10
-165.55903488879991
 20
152.36682421579991
 30
0.0
  0
VERTEX
  5
681
  8
LAYER1$C$L1
 62
     3
 10
-165.38897122430001
 20
152.37131900759991
 30
0.0
  0
VERTEX
  5
682
  8
LAYER1$C$L1
 62
     3
 10
-165.22038044510001
 20
152.42733440689989
 30
0.0
  0
VERTEX
  5
683
  8
LAYER1$C$L1
 62
     3
 10
-165.0557505669
 20
152.53404375409991
 30
0.0
  0
VERTEX
  5
684
  8
LAYER1$C$L1
 62
     3
 10
-164.89751115179999
 20
152.6898722622
 30
0.0
  0
VERTEX
  5
685
  8
LAYER1$C$L1
 62
     3
 10
-164.74799745289999
 20
152.89252025749991
 30
0.0
  0
VERTEX
  5
686
  8
LAYER1$C$L1
 62
     3
 10
-164.60941595189999
 20
153.13899711729991
 30
0.0
  0
SEQEND
  5
687
  8
LAYER1$C$L1
 62
     3
  0
POLYLINE
  5
289
  8
LAYER1$C$L1
 62
     3
 66
     1
 10
0.0
 20
0.0
 30
0.0
  0
VERTEX
  5
688
  8
LAYER1$C$L1
 62
     3
 10
-164.6727094346999
 20
158.7063001345
 30
0.0
  0
VERTEX
  5
689
  8
LAYER1$C$L1
 62
     3
 10
-164.8255858812999
 20
158.9447989187999
 30
0.0
  0
VERTEX
  5
68A
  8
LAYER1$C$L1
 62
     3
 10
-164.98944978419999
 20
159.1322300084
 30
0.0
  0
VERTEX
  5
68B
  8
LAYER1$C$L1
 62
     3
 10
-165.1615863131
 20
159.2654881215
 30
0.0
  0
VERTEX
  5
68C
  8
LAYER1$C$L1
 62
     3
 10
-165.33914358049989
 20
159.34236549240001
 30
0.0
  0
VERTEX
  5
68D
  8
LAYER1$C$L1
 62
     3
 10
-165.51917989009991
 20
159.36158844799991
 30
0.0
  0
VERTEX
  5
68E
  8
LAYER1$C$L1
 62
     3
 10
-165.6987124739999
 20
159.32283851029999
 30
0.0
  0
VERTEX
  5
68F
  8
LAYER1$C$L1
 62
     3
 10
-165.8747669094999
 20
159.22675767239991
 30
0.0
  0
VERTEX
  5
690
  8
LAYER1$C$L1
 62
     3
 10
-166.0444263988999
 20
159.07493776250001
 30
0.0
  0
VERTEX
  5
691
  8
LAYER1$C$L1
 62
     3
 10
-166.2048800929999
 20
158.86989407059991
 30
0.0
  0
VERTEX
  5
692
  8
LAYER1$C$L1
 62
     3
 10
-166.3534696605999
 20
158.61502367700001
 30
0.0
  0
VERTEX
  5
693
  8
LAYER1$C$L1
 62
     3
 10
-166.48773333049999
 20
158.31454917010001
 30
0.0
  0
VERTEX
  5
694
  8
LAYER1$C$L1
 62
     3
 10
-166.605446677
 20
157.9734486886
 30
0.0
  0
VERTEX
  5
695
  8
LAYER1$C$L1
 62
     3
 10
-166.7046594736
 20
157.59737344609991
 30
0.0
  0
VERTEX
  5
696
  8
LAYER1$C$L1
 62
     3
 10
-166.78372800330001
 20
157.1925541034
 30
0.0
  0
VERTEX
  5
697
  8
LAYER1$C$L1
 62
     3
 10
-166.8413422907999
 20
156.76569754190001
 30
0.0
  0
VERTEX
  5
698
  8
LAYER1$C$L1
 62
     3
 10
-166.87654780619999
 20
156.32387574669991
 30
0.0
  0
VERTEX
  5
699
  8
LAYER1$C$L1
 62
     3
 10
-166.88876127899991
 20
155.8744086406
 30
0.0
  0
VERTEX
  5
69A
  8
LAYER1$C$L1
 62
     3
 10
-166.87778036139991
 20
155.4247428111
 30
0.0
  0
VERTEX
  5
69B
  8
LAYER1$C$L1
 62
     3
 10
-166.8437869805999
 20
154.98232813780001
 30
0.0
  0
VERTEX
  5
69C
  8
LAYER1$C$L1
 62
     3
 10
-166.78734432510001
 20
154.55449436609999
 30
0.0
  0
VERTEX
  5
69D
  8
LAYER1$C$L1
 62
     3
 10
-166.7093875137999
 20
154.1483296712
 30
0.0
  0
SEQEND
  5
69E
  8
LAYER1$C$L1
 62
     3
  0
ARC
  5
2A1
  8
LAYER1$C$L1
 62
     3
 10
-164.95329891930001
 20
104.1421075316
 30
0.0
 40
0.1999999881
 50
264.80169761259992
 51
345.52905237530001
  0
ARC
  5
2A2
  8
LAYER1$C$L1
 62
     3
 10
-166.0225127864999
 20
104.6869073362999
 30
0.0
 40
0.1999999881
 50
264.80186153709991
 51
345.52899773379988
  0
ARC
  5
2A3
  8
LAYER1$C$L1
 62
     3
 10
-161.6142638851
 20
110.6953301878
 30
0.0
 40
0.1999999881
 50
320.47098027290002
 51
41.198427243200051
  0
ARC
  5
2A4
  8
LAYER1$C$L1
 62
     3
 10
-162.6834624935
 20
111.2401299925
 30
0.0
 40
0.1999999881
 50
320.47103491450002
 51
41.1982633187
  0
ARC
  5
2A5
  8
LAYER1$C$L1
 62
     3
 10
-167.22666012529999
 20
106.7171807737999
 30
0.0
 40
1.0
 50
170.57102448239999
 51
237.99996336509989
  0
ARC
  5
2A6
  8
LAYER1$C$L1
 62
     3
 10
-165.03378903160001
 20
111.0208917113
 30
0.0
 40
1.0
 50
67.999942697299986
 51
135.42893622150001
  0
ARC
  5
2A7
  8
LAYER1$C$L1
 62
     3
 10
-159.3347381282999
 20
105.4065118285
 30
0.0
 40
9.0
 50
135.42904550450001
 51
170.57102448239999
  0
ARC
  5
2A8
  8
LAYER1$C$L1
 62
     3
 10
-164.95329891930001
 20
85.882463976899984
 30
0.0
 40
0.1999999881
 50
14.470910058599991
 51
95.198302387400005
  0
ARC
  5
2A9
  8
LAYER1$C$L1
 62
     3
 10
-166.0225127864999
 20
85.337664172199993
 30
0.0
 40
0.1999999881
 50
14.470964700199991
 51
95.198138462900005
  0
ARC
  5
2AA
  8
LAYER1$C$L1
 62
     3
 10
-161.6142638851
 20
79.329241320600005
 30
0.0
 40
0.1999999881
 50
318.80156251149998
 51
39.5290197271
  0
ARC
  5
2AB
  8
LAYER1$C$L1
 62
     3
 10
-162.6834624935
 20
78.784441516000001
 30
0.0
 40
0.1999999881
 50
318.80172643599991
 51
39.52896508550004
  0
ARC
  5
2AC
  8
LAYER1$C$L1
 62
     3
 10
-167.22666012529999
 20
83.307390734700007
 30
0.0
 40
1.0
 50
122.0000193321
 51
189.42901285630001
  0
ARC
  5
2AD
  8
LAYER1$C$L1
 62
     3
 10
-165.03378903160001
 20
79.003679797200007
 30
0.0
 40
1.0
 50
224.57100913699989
 51
292.00005730269999
  0
ARC
  5
2AE
  8
LAYER1$C$L1
 62
     3
 10
-159.3347381282999
 20
84.618059680000002
 30
0.0
 40
9.0
 50
189.42903015909991
 51
224.57100913699989
  0
ARC
  5
2AF
  8
LAYER1$C$L1
 62
     3
 10
-169.6491302181
 20
92.402117297199993
 30
0.0
 40
0.067499935627
 50
180.00003597220001
 51
270.00001798609998
  0
ARC
  5
2B0
  8
LAYER1$C$L1
 62
     3
 10
-168.56912838709991
 20
92.402117297199993
 30
0.0
 40
0.067499935627
 50
270.00001798609998
 51
0.0
  0
ARC
  5
2B1
  8
LAYER1$C$L1
 62
     3
 10
-169.3791259455999
 20
93.347185656600004
 30
0.0
 40
0.3374999762
 50
89.999927372399995
 51
179.9999640277999
  0
ARC
  5
2B2
  8
LAYER1$C$L1
 62
     3
 10
-168.83911740069991
 20
93.347185656600004
 30
0.0
 40
0.3374999762
 50
0.0
 51
89.999927372399995
  0
ARC
  5
2B3
  8
LAYER1$C$L1
 62
     3
 10
-169.6491302181
 20
93.932146594100004
 30
0.0
 40
0.067499935627
 50
180.00003597220001
 51
270.00001798609998
  0
ARC
  5
2B4
  8
LAYER1$C$L1
 62
     3
 10
-169.3791259455999
 20
94.967180773799996
 30
0.0
 40
0.3374999762
 50
89.999927372399995
 51
179.9999640277999
  0
ARC
  5
2B5
  8
LAYER1$C$L1
 62
     3
 10
-168.56912838709991
 20
93.932146594100004
 30
0.0
 40
0.067499935627
 50
270.00001798609998
 51
0.0
  0
ARC
  5
2B6
  8
LAYER1$C$L1
 62
     3
 10
-168.83911740069991
 20
94.967180773799996
 30
0.0
 40
0.3374999762
 50
0.0
 51
89.999927372399995
  0
ARC
  5
2B7
  8
LAYER1$C$L1
 62
     3
 10
-169.6491302181
 20
95.552141711299996
 30
0.0
 40
0.067499935627
 50
180.00003597220001
 51
270.00001798609998
  0
ARC
  5
2B8
  8
LAYER1$C$L1
 62
     3
 10
-168.0291198420999
 20
95.552141711299996
 30
0.0
 40
0.067499935627
 50
270.00001798609998
 51
0.0
  0
ARC
  5
2B9
  8
LAYER1$C$L1
 62
     3
 10
-168.0291198420999
 20
96.047136828500001
 30
0.0
 40
0.067499935627
 50
0.0
 51
89.999927372399995
  0
ARC
  5
2BA
  8
LAYER1$C$L1
 62
     3
 10
-169.3791259455999
 20
96.542131945600005
 30
0.0
 40
0.3374999762
 50
89.999927372399995
 51
179.9999640277999
  0
ARC
  5
2BB
  8
LAYER1$C$L1
 62
     3
 10
-168.70412289389989
 20
96.542131945600005
 30
0.0
 40
0.3374999762
 50
0.0
 51
89.999927372399995
  0
ARC
  5
2BC
  8
LAYER1$C$L1
 62
     3
 10
-169.6491302181
 20
97.127214953500015
 30
0.0
 40
0.067499935627
 50
180.00003597220001
 51
270.00001798609998
  0
ARC
  5
2BD
  8
LAYER1$C$L1
 62
     3
 10
-169.6491302181
 20
97.622210070599991
 30
0.0
 40
0.067499935627
 50
89.999927372399995
 51
179.9999640277999
  0
ARC
  5
2BE
  8
LAYER1$C$L1
 62
     3
 10
-168.0291198420999
 20
97.127214953500015
 30
0.0
 40
0.067499935627
 50
270.00001798609998
 51
0.0
  0
ARC
  5
2BF
  8
LAYER1$C$L1
 62
     3
 10
-168.0291198420999
 20
97.622210070599991
 30
0.0
 40
0.067499935627
 50
0.0
 51
89.999927372399995
  0
ARC
  5
2C0
  8
LAYER1$C$L1
 62
     3
 10
-170.3889983821999
 20
113.01246885969989
 30
0.0
 40
0.5
 50
90.000091296900024
 51
180.00001866929989
  0
ARC
  5
2C1
  8
LAYER1$C$L1
 62
     3
 10
-162.28902279619999
 20
112.2125421018999
 30
0.0
 40
0.5999999046
 50
90.000091296900024
 51
242.9999350450999
  0
ARC
  5
2C2
  8
LAYER1$C$L1
 62
     3
 10
-170.38902889969989
 20
77.012468859699993
 30
0.0
 40
0.5
 50
180.00003597220001
 51
269.99996334460002
  0
ARC
  5
2C3
  8
LAYER1$C$L1
 62
     3
 10
-162.28905331379991
 20
77.812517687799996
 30
0.0
 40
0.5999999046
 50
117.00004765209989
 51
269.9999460416999
  0
ARC
  5
2C4
  8
LAYER1$C$L1
 62
     3
 10
-164.02770077469989
 20
86.339739367500016
 30
0.0
 40
0.7999997139000001
 50
179.9999640277999
 51
206.9999750243999
  0
ARC
  5
2C5
  8
LAYER1$C$L1
 62
     3
 10
-164.02770077469989
 20
103.6854424925
 30
0.0
 40
0.7999997139000001
 50
153.00006231419999
 51
180.00007331079999
  0
ARC
  5
2C6
  8
LAYER1$C$L1
 62
     3
 10
-151.3890594172999
 20
150.81228880599991
 30
0.0
 40
0.5
 50
270.00001798609998
 51
0.0
  0
ARC
  5
2C7
  8
LAYER1$C$L1
 62
     3
 10
-170.68877255209989
 20
150.5123010129999
 30
0.0
 40
0.1999999881
 50
180.00003597220001
 51
270.00001798609998
  0
ARC
  5
2C8
  8
LAYER1$C$L1
 62
     3
 10
-166.00943600420001
 20
153.5606103392
 30
0.0
 40
0.5
 50
149.99980609859989
 51
202.03470070540001
  0
ARC
  5
2C9
  8
LAYER1$C$L1
 62
     3
 10
-163.94843136559999
 20
156.93036131580001
 30
0.0
 40
0.5
 50
89.999818089400023
 51
149.99986074020001
  0
ARC
  5
2CA
  8
LAYER1$C$L1
 62
     3
 10
-164.17313229329989
 20
157.74116759019989
 30
0.0
 40
0.5
 50
89.999927372399995
 51
149.99991538169991
  0
ARC
  5
2CB
  8
LAYER1$C$L1
 62
     3
 10
-161.98877560389991
 20
157.6124139280999
 30
0.0
 40
0.5
 50
179.9999093863
 51
269.9999460416999
  0
ARC
  5
2CC
  8
LAYER1$C$L1
 62
     3
 10
-161.98877560389991
 20
154.1124139280999
 30
0.0
 40
0.5
 50
89.999927372399995
 51
179.99985474479999
  0
ARC
  5
2CD
  8
LAYER1$C$L1
 62
     3
 10
-164.69316708330001
 20
156.21127562239991
 30
0.0
 40
3.2500247954999999
 50
71.506015402100005
 51
110.5385247727
  0
ARC
  5
2CE
  8
LAYER1$C$L1
 62
     3
 10
-164.69316708330001
 20
155.5135674924999
 30
0.0
 40
3.2500324249000001
 50
255.83005289249991
 51
288.49518671120001
  0
ARC
  5
2D3
  8
LAYER1$C$L1
 62
     3
 10
-130.68906246910001
 20
165.0123010129999
 30
0.0
 40
1.0
 50
180.0000906137
 51
270.00007262759988
  0
ARC
  5
2D4
  8
LAYER1$C$L1
 62
     3
 10
-137.3890594172999
 20
150.7122979612999
 30
0.0
 40
0.5
 50
270.00007262759988
 51
0.0
  0
ARC
  5
2D5
  8
LAYER1$C$L1
 62
     3
 10
-136.3890594172999
 20
153.5123010129999
 30
0.0
 40
0.5
 50
89.999927372399995
 51
179.9999640277999
  0
ARC
  5
2D6
  8
LAYER1$C$L1
 62
     3
 10
-130.68906246910001
 20
165.0123010129999
 30
0.0
 40
1.0
 50
89.999927372399995
 51
179.9999093863
  0
ARC
  5
2D7
  8
LAYER1$C$L1
 62
     3
 10
-137.38904415850001
 20
179.312288806
 30
0.0
 40
0.5
 50
0.0
 51
89.999927372399995
  0
ARC
  5
2D8
  8
LAYER1$C$L1
 62
     3
 10
-136.38904415850001
 20
176.5123010129999
 30
0.0
 40
0.5
 50
179.9999093863
 51
269.9999460416999
  0
ARC
  5
2D9
  8
LAYER1$C$L1
 62
     3
 10
-136.3890594172999
 20
83.512285754199993
 30
0.0
 40
0.5
 50
89.999927372399995
 51
179.9999640277999
  0
ARC
  5
2DA
  8
LAYER1$C$L1
 62
     3
 10
-137.3890594172999
 20
77.012285754199993
 30
0.0
 40
0.5
 50
270.00007262759988
 51
0.0
  0
ARC
  5
2DB
  8
LAYER1$C$L1
 62
     3
 10
-137.3890594172999
 20
77.512285754199993
 30
0.0
 40
0.5
 50
270.00007262759988
 51
0.0
  0
ARC
  5
2DC
  8
LAYER1$C$L1
 62
     3
 10
-136.38904415850001
 20
106.51228575419999
 30
0.0
 40
0.5
 50
179.9999093863
 51
269.9999460416999
  0
ARC
  5
2DD
  8
LAYER1$C$L1
 62
     3
 10
-137.38904415850001
 20
113.01228575419999
 30
0.0
 40
0.5
 50
0.0
 51
89.999927372399995
  0
ARC
  5
2DE
  8
LAYER1$C$L1
 62
     3
 10
-137.38904415850001
 20
112.51228575419999
 30
0.0
 40
0.5
 50
0.0
 51
89.999927372399995
  0
LINE
  5
2DF
  8
LAYER1$C$L1
 62
     3
 10
-150.8890594172999
 20
76.512377306999994
 30
0.0
 11
-150.8890594172999
 21
113.51219420149999
 31
0.0
  0
LINE
  5
2E0
  8
LAYER1$C$L1
 62
     3
 10
-163.25254583200001
 20
110.7135330453
 30
0.0
 11
-163.96539456159991
 21
111.07674758029999
 31
0.0
  0
LINE
  5
2E1
  8
LAYER1$C$L1
 62
     3
 10
-165.93110062639991
 20
105.45657276909991
 30
0.0
 11
-166.64394935609999
 21
105.81978730420001
 31
0.0
  0
LINE
  5
2E2
  8
LAYER1$C$L1
 62
     3
 10
-164.09011926509999
 20
106.42658274439999
 30
0.0
 11
-164.2263385704
 21
106.1592372795
 31
0.0
  0
LINE
  5
2E3
  8
LAYER1$C$L1
 62
     3
 10
-164.22621018859991
 20
106.1592498394
 30
0.0
 11
-164.75970408180001
 21
104.0920948694
 31
0.0
  0
LINE
  5
2E4
  8
LAYER1$C$L1
 62
     3
 10
-164.97153976370001
 20
103.9428828781999
 30
0.0
 11
-165.33855417739991
 21
103.9762742081999
 31
0.0
  0
LINE
  5
2E5
  8
LAYER1$C$L1
 62
     3
 10
-166.4077560858999
 20
104.5210707108
 30
0.0
 11
-166.04075686819991
 21
104.48768076339999
 31
0.0
  0
LINE
  5
2E6
  8
LAYER1$C$L1
 62
     3
 10
-165.82892055510001
 20
104.63682099259999
 30
0.0
 11
-165.2954266619
 21
106.7039759627
 31
0.0
  0
LINE
  5
2E7
  8
LAYER1$C$L1
 62
     3
 10
-162.9551431164999
 20
108.6540990678
 30
0.0
 11
-162.81897922990001
 21
108.92133576729989
 31
0.0
  0
LINE
  5
2E8
  8
LAYER1$C$L1
 62
     3
 10
-162.818953319
 20
108.92140984700001
 30
0.0
 11
-161.46016970369999
 21
110.5680586899
 31
0.0
  0
LINE
  5
2E9
  8
LAYER1$C$L1
 62
     3
 10
-161.4639785489
 20
110.8271051883999
 30
0.0
 11
-161.7067183870999
 21
111.10439915489999
 31
0.0
  0
LINE
  5
2EA
  8
LAYER1$C$L1
 62
     3
 10
-163.8882639940999
 20
109.4662062547
 30
0.0
 11
-162.52948037879989
 21
111.1128550976
 31
0.0
  0
LINE
  5
2EB
  8
LAYER1$C$L1
 62
     3
 10
-162.53316926609989
 20
111.3718613604
 30
0.0
 11
-162.77590910430001
 21
111.6491553269
 31
0.0
  0
LINE
  5
2EC
  8
LAYER1$C$L1
 62
     3
 10
-165.06963303270001
 20
104.0636371649
 30
0.0
 11
-165.60421476810001
 21
104.336021215
 31
0.0
  0
LINE
  5
2ED
  8
LAYER1$C$L1
 62
     3
 10
-161.6192974313999
 20
110.8353650456999
 30
0.0
 11
-162.15387981040001
 21
111.10774780849999
 31
0.0
  0
LINE
  5
2EE
  8
LAYER1$C$L1
 62
     3
 10
-165.6766170116
 20
110.58189978519999
 30
0.0
 11
-167.35395823429991
 21
109.4926218024999
 31
0.0
  0
LINE
  5
2EF
  8
LAYER1$C$L1
 62
     3
 10
-167.3015175068
 20
108.4937836493
 30
0.0
 11
-167.3538534695
 21
109.49241315969989
 31
0.0
  0
LINE
  5
2F0
  8
LAYER1$C$L1
 62
     3
 10
-164.71378032949991
 20
106.7443538986
 30
0.0
 11
-164.14629225519991
 21
107.8581120601999
 31
0.0
  0
LINE
  5
2F1
  8
LAYER1$C$L1
 62
     3
 10
-163.57880418089999
 20
108.97187022190001
 30
0.0
 11
-164.14629225519991
 21
107.8581120601999
 31
0.0
  0
LINE
  5
2F2
  8
LAYER1$C$L1
 62
     3
 10
-165.1592835941
 20
106.97134912829991
 30
0.0
 11
-164.71378032949991
 21
106.7443538986
 31
0.0
  0
LINE
  5
2F3
  8
LAYER1$C$L1
 62
     3
 10
-164.0243074455
 20
109.1988654516
 30
0.0
 11
-163.57880418089999
 21
108.97187022190001
 31
0.0
  0
LINE
  5
2F4
  8
LAYER1$C$L1
 62
     3
 10
-163.64461600039999
 20
106.1995875147
 30
0.0
 11
-162.50963985179999
 21
108.4271038380999
 31
0.0
  0
LINE
  5
2F5
  8
LAYER1$C$L1
 62
     3
 10
-164.09011926509999
 20
106.42658274439999
 30
0.0
 11
-163.64461600039999
 21
106.1995875147
 31
0.0
  0
LINE
  5
2F6
  8
LAYER1$C$L1
 62
     3
 10
-162.9551431164999
 20
108.6540990678
 30
0.0
 11
-162.50963985179999
 21
108.4271038380999
 31
0.0
  0
LINE
  5
2F7
  8
LAYER1$C$L1
 62
     3
 10
-165.6677984957999
 20
107.7355520420999
 30
0.0
 11
-164.59180839640001
 21
108.0851623515
 31
0.0
  0
LINE
  5
2F8
  8
LAYER1$C$L1
 62
     3
 10
-164.0470069589999
 20
109.1543239289999
 30
0.0
 11
-165.1229970583999
 21
108.80471361959999
 31
0.0
  0
LINE
  5
2F9
  8
LAYER1$C$L1
 62
     3
 10
-163.71569437470001
 20
111.56671389349999
 30
0.0
 11
-164.65934616760001
 21
111.94797397709991
 31
0.0
  0
LINE
  5
2FA
  8
LAYER1$C$L1
 62
     3
 10
-167.75676663289991
 20
105.8691664016
 30
0.0
 11
-166.89360440370001
 21
105.3298028336
 31
0.0
  0
LINE
  5
2FB
  8
LAYER1$C$L1
 62
     3
 10
-163.71567764139991
 20
111.5668446777
 30
0.0
 11
-166.89361085749999
 21
105.3297989722999
 31
0.0
  0
LINE
  5
2FC
  8
LAYER1$C$L1
 62
     3
 10
-165.3385930286
 20
103.9763147888
 30
0.0
 11
-166.40775735759991
 21
104.52108117260001
 31
0.0
  0
LINE
  5
2FD
  8
LAYER1$C$L1
 62
     3
 10
-166.40775735759991
 20
104.52108117260001
 30
0.0
 11
-162.7758336821
 21
111.6491334073
 31
0.0
  0
LINE
  5
2FE
  8
LAYER1$C$L1
 62
     3
 10
-161.70666935299991
 20
111.1043670234
 30
0.0
 11
-162.7758336821
 21
111.6491334073
 31
0.0
  0
LINE
  5
2FF
  8
LAYER1$C$L1
 62
     3
 10
-163.9653263779
 20
78.947872016600002
 30
0.0
 11
-163.2524776482
 21
79.311086551700001
 31
0.0
  0
LINE
  5
300
  8
LAYER1$C$L1
 62
     3
 10
-166.64386731760001
 20
84.204805101399998
 30
0.0
 11
-165.931018588
 21
84.568019636499983
 31
0.0
  0
LINE
  5
301
  8
LAYER1$C$L1
 62
     3
 10
-164.22627038670001
 20
83.865382317500007
 30
0.0
 11
-164.09006493599989
 21
83.59806404390001
 31
0.0
  0
LINE
  5
302
  8
LAYER1$C$L1
 62
     3
 10
-164.75968811559989
 20
85.932504167500014
 30
0.0
 11
-164.22620184850001
 21
83.865378746800005
 31
0.0
  0
LINE
  5
303
  8
LAYER1$C$L1
 62
     3
 10
-165.33854614640001
 20
86.048308816499997
 30
0.0
 11
-164.97153173269999
 21
86.081700146499983
 31
0.0
  0
LINE
  5
304
  8
LAYER1$C$L1
 62
     3
 10
-166.04074883719991
 20
85.536902261299986
 30
0.0
 11
-166.40774805489991
 21
85.503512313900004
 31
0.0
  0
LINE
  5
305
  8
LAYER1$C$L1
 62
     3
 10
-165.29540306949991
 20
83.320593524799989
 30
0.0
 11
-165.82889696269999
 21
85.387748494899995
 31
0.0
  0
LINE
  5
306
  8
LAYER1$C$L1
 62
     3
 10
-162.8188971914999
 20
81.103256638299996
 30
0.0
 11
-162.95510264209989
 21
81.370574911899993
 31
0.0
  0
LINE
  5
307
  8
LAYER1$C$L1
 62
     3
 10
-161.4601422524
 20
79.456641289100006
 30
0.0
 11
-162.81892586769999
 21
81.103290131999984
 31
0.0
  0
LINE
  5
308
  8
LAYER1$C$L1
 62
     3
 10
-161.706660908
 20
78.920292645100005
 30
0.0
 11
-161.46392106969989
 21
79.197586611600002
 31
0.0
  0
LINE
  5
309
  8
LAYER1$C$L1
 62
     3
 10
-162.52941408070001
 20
78.911797804700001
 30
0.0
 11
-163.88819769599999
 21
80.558446647599993
 31
0.0
  0
LINE
  5
30A
  8
LAYER1$C$L1
 62
     3
 10
-162.77584014399989
 20
78.375526422600004
 30
0.0
 11
-162.53310030579991
 21
78.6528203891
 31
0.0
  0
LINE
  5
30B
  8
LAYER1$C$L1
 62
     3
 10
-165.6041580475999
 20
85.688595065000001
 30
0.0
 11
-165.0695763123
 21
85.960979115200004
 31
0.0
  0
LINE
  5
30C
  8
LAYER1$C$L1
 62
     3
 10
-162.15387045029999
 20
78.916949728700004
 30
0.0
 11
-161.6192880712
 21
79.189332491499997
 31
0.0
  0
LINE
  5
30D
  8
LAYER1$C$L1
 62
     3
 10
-167.3539423332
 20
80.532058357600008
 30
0.0
 11
-165.67660111049989
 21
79.442780374899996
 31
0.0
  0
LINE
  5
30E
  8
LAYER1$C$L1
 62
     3
 10
-167.3538794941
 20
80.532073546999996
 30
0.0
 11
-167.3015435314999
 21
81.530703057400004
 31
0.0
  0
LINE
  5
30F
  8
LAYER1$C$L1
 62
     3
 10
-164.14623792610001
 20
82.166534728100004
 30
0.0
 11
-164.71372600039999
 21
83.280292889799995
 31
0.0
  0
LINE
  5
310
  8
LAYER1$C$L1
 62
     3
 10
-164.14623792610001
 20
82.166534728100004
 30
0.0
 11
-163.5787637064999
 21
81.052803757799992
 31
0.0
  0
LINE
  5
311
  8
LAYER1$C$L1
 62
     3
 10
-164.71372600039999
 20
83.280292889799995
 30
0.0
 11
-165.15922926510001
 21
83.0532976601
 31
0.0
  0
LINE
  5
312
  8
LAYER1$C$L1
 62
     3
 10
-163.5787637064999
 20
81.052803757799992
 30
0.0
 11
-164.02426697109999
 21
80.825808528099998
 31
0.0
  0
LINE
  5
313
  8
LAYER1$C$L1
 62
     3
 10
-162.50959937740001
 20
81.597570141600002
 30
0.0
 11
-163.6445616714
 21
83.825059273599976
 31
0.0
  0
LINE
  5
314
  8
LAYER1$C$L1
 62
     3
 10
-163.6445616714
 20
83.825059273599976
 30
0.0
 11
-164.09006493599989
 21
83.59806404390001
 31
0.0
  0
LINE
  5
315
  8
LAYER1$C$L1
 62
     3
 10
-162.50959937740001
 20
81.597570141600002
 30
0.0
 11
-162.95510264209989
 21
81.370574911899993
 31
0.0
  0
LINE
  5
316
  8
LAYER1$C$L1
 62
     3
 10
-164.59184379719991
 20
81.939446885199999
 30
0.0
 11
-165.6678338966999
 21
82.289057194600005
 31
0.0
  0
LINE
  5
317
  8
LAYER1$C$L1
 62
     3
 10
-165.1230418897
 20
81.219866593199995
 30
0.0
 11
-164.04703727820001
 21
80.870251568500024
 31
0.0
  0
LINE
  5
318
  8
LAYER1$C$L1
 62
     3
 10
-164.65928666529999
 20
78.076633473699999
 30
0.0
 11
-163.7156207248
 21
78.457899273500004
 31
0.0
  0
LINE
  5
319
  8
LAYER1$C$L1
 62
     3
 10
-166.89358867909999
 20
84.694844289599985
 30
0.0
 11
-167.75675090839991
 21
84.1554807216
 31
0.0
  0
LINE
  5
31A
  8
LAYER1$C$L1
 62
     3
 10
-166.89355652840001
 20
84.694847816000006
 30
0.0
 11
-163.71563716700001
 21
78.457829301999993
 31
0.0
  0
LINE
  5
31B
  8
LAYER1$C$L1
 62
     3
 10
-166.40770302850001
 20
85.503565615699998
 30
0.0
 11
-165.33853869949999
 21
86.048331999499993
 31
0.0
  0
LINE
  5
31C
  8
LAYER1$C$L1
 62
     3
 10
-162.77579320769991
 20
78.375540572399998
 30
0.0
 11
-166.40770302850001
 21
85.503565615699998
 31
0.0
  0
LINE
  5
31D
  8
LAYER1$C$L1
 62
     3
 10
-162.77579320769991
 20
78.375540572399998
 30
0.0
 11
-161.70662887859999
 21
78.920306956299996
 31
0.0
  0
LINE
  5
31E
  8
LAYER1$C$L1
 62
     3
 10
-169.0416320491999
 20
93.369646594100004
 30
0.0
 11
-169.176626556
 21
93.369646594100004
 31
0.0
  0
LINE
  5
31F
  8
LAYER1$C$L1
 62
     3
 10
-169.176626556
 20
92.334612414399999
 30
0.0
 11
-169.6491302181
 21
92.334612414399999
 31
0.0
  0
LINE
  5
320
  8
LAYER1$C$L1
 62
     3
 10
-169.0416320491999
 20
93.369646594100004
 30
0.0
 11
-169.0416320491999
 21
92.334612414399999
 31
0.0
  0
LINE
  5
321
  8
LAYER1$C$L1
 62
     3
 10
-169.176626556
 20
93.369646594100004
 30
0.0
 11
-169.176626556
 21
92.334612414399999
 31
0.0
  0
LINE
  5
322
  8
LAYER1$C$L1
 62
     3
 10
-169.7166198420999
 20
93.347185656600004
 30
0.0
 11
-169.7166198420999
 21
92.402117297199993
 31
0.0
  0
LINE
  5
323
  8
LAYER1$C$L1
 62
     3
 10
-168.83911740069991
 20
93.684710070600005
 30
0.0
 11
-169.3791259455999
 21
93.684710070600005
 31
0.0
  0
LINE
  5
324
  8
LAYER1$C$L1
 62
     3
 10
-169.31162106279999
 20
93.864641711299996
 30
0.0
 11
-169.6491302181
 21
93.864641711299996
 31
0.0
  0
LINE
  5
325
  8
LAYER1$C$L1
 62
     3
 10
-168.8166259455999
 20
94.494646594100004
 30
0.0
 11
-169.176626556
 21
94.494646594100004
 31
0.0
  0
LINE
  5
326
  8
LAYER1$C$L1
 62
     3
 10
-168.8166259455999
 20
94.629656359699979
 30
0.0
 11
-169.31162106279999
 21
94.629656359699979
 31
0.0
  0
LINE
  5
327
  8
LAYER1$C$L1
 62
     3
 10
-168.8166259455999
 20
94.629656359699979
 30
0.0
 11
-168.8166259455999
 21
94.494646594100004
 31
0.0
  0
LINE
  5
328
  8
LAYER1$C$L1
 62
     3
 10
-169.176626556
 20
94.494646594100004
 30
0.0
 11
-169.176626556
 21
93.864641711299996
 31
0.0
  0
LINE
  5
329
  8
LAYER1$C$L1
 62
     3
 10
-169.31162106279999
 20
94.629656359699979
 30
0.0
 11
-169.31162106279999
 21
93.864641711299996
 31
0.0
  0
LINE
  5
32A
  8
LAYER1$C$L1
 62
     3
 10
-169.7166198420999
 20
94.967180773799996
 30
0.0
 11
-169.7166198420999
 21
93.932146594100004
 31
0.0
  0
LINE
  5
32B
  8
LAYER1$C$L1
 62
     3
 10
-168.56912838709991
 20
93.864641711299996
 30
0.0
 11
-169.176626556
 21
93.864641711299996
 31
0.0
  0
LINE
  5
32C
  8
LAYER1$C$L1
 62
     3
 10
-168.50162350420001
 20
93.347185656600004
 30
0.0
 11
-168.50162350420001
 21
92.402117297199993
 31
0.0
  0
LINE
  5
32D
  8
LAYER1$C$L1
 62
     3
 10
-168.50162350420001
 20
94.967180773799996
 30
0.0
 11
-168.50162350420001
 21
93.932146594100004
 31
0.0
  0
LINE
  5
32E
  8
LAYER1$C$L1
 62
     3
 10
-168.83911740069991
 20
95.30470518780001
 30
0.0
 11
-169.3791259455999
 21
95.30470518780001
 31
0.0
  0
LINE
  5
32F
  8
LAYER1$C$L1
 62
     3
 10
-168.0291198420999
 20
95.484636828500001
 30
0.0
 11
-169.6491302181
 21
95.484636828500001
 31
0.0
  0
LINE
  5
330
  8
LAYER1$C$L1
 62
     3
 10
-169.0416320491999
 20
96.249651476899999
 30
0.0
 11
-169.0416320491999
 21
96.114641711299996
 31
0.0
  0
LINE
  5
331
  8
LAYER1$C$L1
 62
     3
 10
-168.0291198420999
 20
96.114641711299996
 30
0.0
 11
-169.0416320491999
 21
96.114641711299996
 31
0.0
  0
LINE
  5
332
  8
LAYER1$C$L1
 62
     3
 10
-168.3666289974
 20
96.249651476899999
 30
0.0
 11
-169.0416320491999
 21
96.249651476899999
 31
0.0
  0
LINE
  5
333
  8
LAYER1$C$L1
 62
     3
 10
-168.70412289389989
 20
96.879656359699993
 30
0.0
 11
-169.3791259455999
 21
96.879656359699993
 31
0.0
  0
LINE
  5
334
  8
LAYER1$C$L1
 62
     3
 10
-168.3666289974
 20
97.689714953500015
 30
0.0
 11
-169.6491302181
 21
97.689714953500015
 31
0.0
  0
LINE
  5
335
  8
LAYER1$C$L1
 62
     3
 10
-168.3666289974
 20
97.059710070600005
 30
0.0
 11
-169.6491302181
 21
97.059710070600005
 31
0.0
  0
LINE
  5
336
  8
LAYER1$C$L1
 62
     3
 10
-167.96163021809991
 20
96.047136828500001
 30
0.0
 11
-167.96163021809991
 21
95.552141711299996
 31
0.0
  0
LINE
  5
337
  8
LAYER1$C$L1
 62
     3
 10
-169.7166198420999
 20
96.542131945600005
 30
0.0
 11
-169.7166198420999
 21
95.552141711299996
 31
0.0
  0
LINE
  5
338
  8
LAYER1$C$L1
 62
     3
 10
-168.3666289974
 20
96.542131945600005
 30
0.0
 11
-168.3666289974
 21
96.249651476899999
 31
0.0
  0
LINE
  5
339
  8
LAYER1$C$L1
 62
     3
 10
-168.23161923180001
 20
97.689714953500015
 30
0.0
 11
-168.23161923180001
 21
97.059710070600005
 31
0.0
  0
LINE
  5
33A
  8
LAYER1$C$L1
 62
     3
 10
-168.3666289974
 20
97.689714953500015
 30
0.0
 11
-168.3666289974
 21
97.059710070600005
 31
0.0
  0
LINE
  5
33B
  8
LAYER1$C$L1
 62
     3
 10
-168.0291198420999
 20
97.059710070600005
 30
0.0
 11
-168.23161923180001
 21
97.059710070600005
 31
0.0
  0
LINE
  5
33C
  8
LAYER1$C$L1
 62
     3
 10
-167.96163021809991
 20
97.622210070599991
 30
0.0
 11
-167.96163021809991
 21
97.127214953500015
 31
0.0
  0
LINE
  5
33D
  8
LAYER1$C$L1
 62
     3
 10
-169.7166198420999
 20
97.622210070599991
 30
0.0
 11
-169.7166198420999
 21
97.127214953500015
 31
0.0
  0
LINE
  5
33E
  8
LAYER1$C$L1
 62
     3
 10
-168.0291198420999
 20
97.689714953500015
 30
0.0
 11
-168.23161923180001
 21
97.689714953500015
 31
0.0
  0
LINE
  5
33F
  8
LAYER1$C$L1
 62
     3
 10
-168.56912838709991
 20
92.334612414399999
 30
0.0
 11
-169.0416320491999
 21
92.334612414399999
 31
0.0
  0
LINE
  5
340
  8
LAYER1$C$L1
 62
     3
 10
-167.58914791829989
 20
92.012102648799996
 30
0.0
 11
-170.0891479183
 21
92.012102648799996
 31
0.0
  0
LINE
  5
341
  8
LAYER1$C$L1
 62
     3
 10
-167.58914791829989
 20
98.012102648799996
 30
0.0
 11
-170.0891479183
 21
98.012102648799996
 31
0.0
  0
LINE
  5
342
  8
LAYER1$C$L1
 62
     3
 10
-165.0891479183
 20
89.012102648799996
 30
0.0
 11
-165.0891479183
 21
101.01208739
 31
0.0
  0
LINE
  5
343
  8
LAYER1$C$L1
 62
     3
 10
-167.0891479183
 20
89.012102648799996
 30
0.0
 11
-167.0891479183
 21
101.01208739
 31
0.0
  0
LINE
  5
344
  8
LAYER1$C$L1
 62
     3
 10
-167.58914791829989
 20
92.012102648799996
 30
0.0
 11
-167.58914791829989
 21
98.012102648799996
 31
0.0
  0
LINE
  5
345
  8
LAYER1$C$L1
 62
     3
 10
-165.0891479183
 20
101.01208739
 30
0.0
 11
-167.0891479183
 21
101.01208739
 31
0.0
  0
LINE
  5
346
  8
LAYER1$C$L1
 62
     3
 10
-165.0891479183
 20
89.012102648799996
 30
0.0
 11
-167.0891479183
 21
89.012102648799996
 31
0.0
  0
LINE
  5
347
  8
LAYER1$C$L1
 62
     3
 10
-170.0891479183
 20
92.012102648799996
 30
0.0
 11
-170.0891479183
 21
98.012102648799996
 31
0.0
  0
LINE
  5
348
  8
LAYER1$C$L1
 62
     3
 10
-165.4890807795999
 20
102.91211180399991
 30
0.0
 11
-164.78909909020001
 21
102.91211180399991
 31
0.0
  0
LINE
  5
349
  8
LAYER1$C$L1
 62
     3
 10
-164.78909909020001
 20
87.112200304999988
 30
0.0
 11
-165.4890807795999
 21
87.112200304999988
 31
0.0
  0
LINE
  5
34A
  8
LAYER1$C$L1
 62
     3
 10
-168.8145904184
 20
105.01171813080001
 30
0.0
 11
-164.8277658230999
 21
102.9803297288999
 31
0.0
  0
LINE
  5
34B
  8
LAYER1$C$L1
 62
     3
 10
-165.48906552080001
 20
101.81209044169999
 30
0.0
 11
-165.48906552080001
 21
103.3174462767
 31
0.0
  0
LINE
  5
34C
  8
LAYER1$C$L1
 62
     3
 10
-165.48906552080001
 20
86.706789538400017
 30
0.0
 11
-165.48906552080001
 21
88.212160632199996
 31
0.0
  0
LINE
  5
34D
  8
LAYER1$C$L1
 62
     3
 10
-170.0891326595
 20
101.1121392698999
 30
0.0
 11
-170.8890594172999
 21
101.1121392698999
 31
0.0
  0
LINE
  5
34E
  8
LAYER1$C$L1
 62
     3
 10
-170.0891326595
 20
88.912111803999991
 30
0.0
 11
-170.8890594172999
 21
88.912111803999991
 31
0.0
  0
LINE
  5
34F
  8
LAYER1$C$L1
 62
     3
 10
-170.0891326595
 20
98.412066027700007
 30
0.0
 11
-170.8890594172999
 21
98.412066027700007
 31
0.0
  0
LINE
  5
350
  8
LAYER1$C$L1
 62
     3
 10
-170.0891326595
 20
91.612185046199997
 30
0.0
 11
-170.8890594172999
 21
91.612185046199997
 31
0.0
  0
LINE
  5
351
  8
LAYER1$C$L1
 62
     3
 10
-170.8890594172999
 20
101.81209044169999
 30
0.0
 11
-165.48906552080001
 21
101.81209044169999
 31
0.0
  0
LINE
  5
352
  8
LAYER1$C$L1
 62
     3
 10
-170.8890594172999
 20
101.7121148558
 30
0.0
 11
-165.38907467609999
 21
101.7121148558
 31
0.0
  0
LINE
  5
353
  8
LAYER1$C$L1
 62
     3
 10
-170.8890594172999
 20
107.9120507688999
 30
0.0
 11
-167.97894894369989
 21
107.9120507688999
 31
0.0
  0
LINE
  5
354
  8
LAYER1$C$L1
 62
     3
 10
-170.8890594172999
 20
105.0120263548
 30
0.0
 11
-168.81427609209999
 21
105.0120263548
 31
0.0
  0
LINE
  5
355
  8
LAYER1$C$L1
 62
     3
 10
-165.48906552080001
 20
88.212160632199996
 30
0.0
 11
-170.8890594172999
 21
88.212160632199996
 31
0.0
  0
LINE
  5
356
  8
LAYER1$C$L1
 62
     3
 10
-165.38905941729999
 20
88.312136218099994
 30
0.0
 11
-170.8890594172999
 21
88.312136218099994
 31
0.0
  0
LINE
  5
357
  8
LAYER1$C$L1
 62
     3
 10
-167.9788421321999
 20
82.112108752299989
 30
0.0
 11
-170.8890594172999
 21
82.112108752299989
 31
0.0
  0
LINE
  5
358
  8
LAYER1$C$L1
 62
     3
 10
-164.82777670839999
 20
87.043974504699989
 30
0.0
 11
-168.81457411229991
 21
85.012599957399985
 31
0.0
  0
LINE
  5
359
  8
LAYER1$C$L1
 62
     3
 10
-170.8890594172999
 20
77.012468859699993
 30
0.0
 11
-170.8890594172999
 21
113.01246885969989
 31
0.0
  0
LINE
  5
35A
  8
LAYER1$C$L1
 62
     3
 10
-168.81427609209999
 20
85.012087390000005
 30
0.0
 11
-170.8890594172999
 21
85.012087390000005
 31
0.0
  0
LINE
  5
35B
  8
LAYER1$C$L1
 62
     3
 10
-160.05080258140001
 20
76.512392565799999
 30
0.0
 11
-160.05080258140001
 21
77.212832018900002
 31
0.0
  0
LINE
  5
35C
  8
LAYER1$C$L1
 62
     3
 10
-160.0511687922999
 20
112.81231932359999
 30
0.0
 11
-160.0511687922999
 21
113.5122704954
 31
0.0
  0
LINE
  5
35D
  8
LAYER1$C$L1
 62
     3
 10
-170.0891326595
 20
98.41231016830001
 30
0.0
 11
-170.0891326595
 21
101.11226134020001
 31
0.0
  0
LINE
  5
35E
  8
LAYER1$C$L1
 62
     3
 10
-170.88904415850001
 20
101.11226134020001
 30
0.0
 11
-170.0891326595
 21
101.11226134020001
 31
0.0
  0
LINE
  5
35F
  8
LAYER1$C$L1
 62
     3
 10
-170.88904415850001
 20
98.41231016830001
 30
0.0
 11
-170.0891326595
 21
98.41231016830001
 31
0.0
  0
LINE
  5
360
  8
LAYER1$C$L1
 62
     3
 10
-170.0891326595
 20
88.912355944699996
 30
0.0
 11
-170.0891326595
 21
91.612429186900002
 31
0.0
  0
LINE
  5
361
  8
LAYER1$C$L1
 62
     3
 10
-170.0891326595
 20
88.912355944699996
 30
0.0
 11
-170.88904415850001
 21
88.912355944699996
 31
0.0
  0
LINE
  5
362
  8
LAYER1$C$L1
 62
     3
 10
-170.0891326595
 20
91.612429186900002
 30
0.0
 11
-170.88904415850001
 21
91.612429186900002
 31
0.0
  0
LINE
  5
363
  8
LAYER1$C$L1
 62
     3
 10
-150.88970731189991
 20
109.26685177260001
 30
0.0
 11
-159.22233685520001
 21
113.51253818469991
 31
0.0
  0
LINE
  5
364
  8
LAYER1$C$L1
 62
     3
 10
-150.889710802
 20
108.1445273504
 30
0.0
 11
-160.05124180519999
 21
112.81256011159989
 31
0.0
  0
LINE
  5
365
  8
LAYER1$C$L1
 62
     3
 10
-159.22204991140001
 20
76.512929265599993
 30
0.0
 11
-150.88942036809991
 21
80.758615677799995
 31
0.0
  0
LINE
  5
366
  8
LAYER1$C$L1
 62
     3
 10
-160.05095486139999
 20
77.212907338699992
 30
0.0
 11
-150.8894238581
 21
81.880940099900016
 31
0.0
  0
LINE
  5
367
  8
LAYER1$C$L1
 62
     3
 10
-170.38905941729999
 20
113.5122704954
 30
0.0
 11
-150.8890594172999
 21
113.5122704954
 31
0.0
  0
LINE
  5
368
  8
LAYER1$C$L1
 62
     3
 10
-161.3896362918
 20
111.08065535199999
 30
0.0
 11
-162.56201902859999
 21
111.6780141363999
 31
0.0
  0
LINE
  5
369
  8
LAYER1$C$L1
 62
     3
 10
-161.38905941729999
 20
110.1851220579
 30
0.0
 11
-161.38905941729999
 21
111.08026365950001
 31
0.0
  0
LINE
  5
36A
  8
LAYER1$C$L1
 62
     3
 10
-162.28908383140001
 20
112.81231932359999
 30
0.0
 11
-160.0505584407999
 21
112.81231932359999
 31
0.0
  0
LINE
  5
36B
  8
LAYER1$C$L1
 62
     3
 10
-164.7896588932
 20
103.5126231933
 30
0.0
 11
-161.38966228379999
 21
110.1854928882999
 31
0.0
  0
LINE
  5
36C
  8
LAYER1$C$L1
 62
     3
 10
-164.78908383140001
 20
101.7123589964
 30
0.0
 11
-164.78908383140001
 21
103.5122704953999
 31
0.0
  0
LINE
  5
36D
  8
LAYER1$C$L1
 62
     3
 10
-170.88904415850001
 20
101.7123589964
 30
0.0
 11
-164.78908383140001
 21
101.7123589964
 31
0.0
  0
LINE
  5
36E
  8
LAYER1$C$L1
 62
     3
 10
-153.38951028289989
 20
101.6126484266
 30
0.0
 11
-152.9894326454
 21
102.01272700849999
 31
0.0
  0
LINE
  5
36F
  8
LAYER1$C$L1
 62
     3
 10
-153.38935042770001
 20
98.612640184699998
 30
0.0
 11
-152.9893586348
 21
98.2126483917
 31
0.0
  0
LINE
  5
370
  8
LAYER1$C$L1
 62
     3
 10
-164.4894523717
 20
98.212667223500006
 30
0.0
 11
-164.08937378990001
 21
98.612744861100012
 31
0.0
  0
LINE
  5
371
  8
LAYER1$C$L1
 62
     3
 10
-164.48933847430001
 20
102.0126567416
 30
0.0
 11
-164.0893466812999
 21
101.6126649485999
 31
0.0
  0
LINE
  5
372
  8
LAYER1$C$L1
 62
     3
 10
-153.3890594172999
 20
98.612383410499987
 30
0.0
 11
-153.3890594172999
 21
101.6123834104999
 31
0.0
  0
LINE
  5
373
  8
LAYER1$C$L1
 62
     3
 10
-164.08913265949991
 20
98.612383410499987
 30
0.0
 11
-164.08913265949991
 21
101.6123834104999
 31
0.0
  0
LINE
  5
374
  8
LAYER1$C$L1
 62
     3
 10
-164.48915707360001
 20
98.212358996400013
 30
0.0
 11
-164.48915707360001
 21
102.01228575419999
 31
0.0
  0
LINE
  5
375
  8
LAYER1$C$L1
 62
     3
 10
-152.98915707360001
 20
98.212358996400013
 30
0.0
 11
-152.98915707360001
 21
102.01228575419999
 31
0.0
  0
LINE
  5
376
  8
LAYER1$C$L1
 62
     3
 10
-164.08913265949991
 20
101.6123834104999
 30
0.0
 11
-153.3890594172999
 21
101.6123834104999
 31
0.0
  0
LINE
  5
377
  8
LAYER1$C$L1
 62
     3
 10
-164.08913265949991
 20
98.612383410499987
 30
0.0
 11
-153.3890594172999
 21
98.612383410499987
 31
0.0
  0
LINE
  5
378
  8
LAYER1$C$L1
 62
     3
 10
-164.48915707360001
 20
102.01228575419999
 30
0.0
 11
-152.98915707360001
 21
102.01228575419999
 31
0.0
  0
LINE
  5
379
  8
LAYER1$C$L1
 62
     3
 10
-164.48915707360001
 20
98.212358996400013
 30
0.0
 11
-152.98915707360001
 21
98.212358996400013
 31
0.0
  0
LINE
  5
37A
  8
LAYER1$C$L1
 62
     3
 10
-150.8890594172999
 20
76.512392565799999
 30
0.0
 11
-170.38905941729999
 21
76.512392565799999
 31
0.0
  0
LINE
  5
37B
  8
LAYER1$C$L1
 62
     3
 10
-162.56179443089991
 20
78.347575675000002
 30
0.0
 11
-161.3894116941
 21
78.944934459500004
 31
0.0
  0
LINE
  5
37C
  8
LAYER1$C$L1
 62
     3
 10
-161.38905941729999
 20
78.944399401699997
 30
0.0
 11
-161.38905941729999
 21
79.839541003299999
 31
0.0
  0
LINE
  5
37D
  8
LAYER1$C$L1
 62
     3
 10
-160.0505584407999
 20
77.212465807900003
 30
0.0
 11
-162.28908383140001
 21
77.212465807900003
 31
0.0
  0
LINE
  5
37E
  8
LAYER1$C$L1
 62
     3
 10
-161.38943768609991
 20
79.840096923100006
 30
0.0
 11
-164.7894338625
 21
86.512965768499996
 31
0.0
  0
LINE
  5
37F
  8
LAYER1$C$L1
 62
     3
 10
-164.78908383140001
 20
86.512453600899988
 30
0.0
 11
-164.78908383140001
 21
88.312380358700011
 31
0.0
  0
LINE
  5
380
  8
LAYER1$C$L1
 62
     3
 10
-164.78908383140001
 20
88.312380358700011
 30
0.0
 11
-170.88904415850001
 21
88.312380358700011
 31
0.0
  0
LINE
  5
381
  8
LAYER1$C$L1
 62
     3
 10
-152.98941983169991
 20
88.012711877399994
 30
0.0
 11
-153.38941115259991
 21
88.412704142400003
 31
0.0
  0
LINE
  5
382
  8
LAYER1$C$L1
 62
     3
 10
-152.9893586348
 20
91.8126070709
 30
0.0
 11
-153.38935042770001
 21
91.412615277900002
 31
0.0
  0
LINE
  5
383
  8
LAYER1$C$L1
 62
     3
 10
-164.0893973931
 20
91.412683235200006
 30
0.0
 11
-164.4893896580999
 21
91.812674556100006
 31
0.0
  0
LINE
  5
384
  8
LAYER1$C$L1
 62
     3
 10
-164.0894222085
 20
88.412687620300005
 30
0.0
 11
-164.48941400140001
 21
88.012695827299979
 31
0.0
  0
LINE
  5
385
  8
LAYER1$C$L1
 62
     3
 10
-153.3890594172999
 20
88.412355944699996
 30
0.0
 11
-153.3890594172999
 21
91.412355944699996
 31
0.0
  0
LINE
  5
386
  8
LAYER1$C$L1
 62
     3
 10
-164.08913265949991
 20
88.412355944699996
 30
0.0
 11
-164.08913265949991
 21
91.412355944699996
 31
0.0
  0
LINE
  5
387
  8
LAYER1$C$L1
 62
     3
 10
-164.48915707360001
 20
88.012331530599994
 30
0.0
 11
-164.48915707360001
 21
91.812380358699997
 31
0.0
  0
LINE
  5
388
  8
LAYER1$C$L1
 62
     3
 10
-152.98915707360001
 20
88.012331530599994
 30
0.0
 11
-152.98915707360001
 21
91.812380358699997
 31
0.0
  0
LINE
  5
389
  8
LAYER1$C$L1
 62
     3
 10
-153.3890594172999
 20
88.412355944699996
 30
0.0
 11
-164.08913265949991
 21
88.412355944699996
 31
0.0
  0
LINE
  5
38A
  8
LAYER1$C$L1
 62
     3
 10
-153.3890594172999
 20
91.412355944699996
 30
0.0
 11
-164.08913265949991
 21
91.412355944699996
 31
0.0
  0
LINE
  5
38B
  8
LAYER1$C$L1
 62
     3
 10
-152.98915707360001
 20
88.012331530599994
 30
0.0
 11
-164.48915707360001
 21
88.012331530599994
 31
0.0
  0
LINE
  5
38C
  8
LAYER1$C$L1
 62
     3
 10
-152.98915707360001
 20
91.812380358699997
 30
0.0
 11
-164.48915707360001
 21
91.812380358699997
 31
0.0
  0
LINE
  5
38D
  8
LAYER1$C$L1
 62
     3
 10
-161.3890757419
 20
79.398687357900002
 30
0.0
 11
-164.74064977910001
 21
85.976522395200007
 31
0.0
  0
LINE
  5
38E
  8
LAYER1$C$L1
 62
     3
 10
-164.82773434410001
 20
86.339617297199993
 30
0.0
 11
-164.82773434410001
 21
88.312273547199993
 31
0.0
  0
LINE
  5
38F
  8
LAYER1$C$L1
 62
     3
 10
-164.74061916700001
 20
104.0485263721999
 30
0.0
 11
-161.3891144031999
 21
110.6262254528
 31
0.0
  0
LINE
  5
390
  8
LAYER1$C$L1
 62
     3
 10
-164.8277190853
 20
101.7122369261
 30
0.0
 11
-164.8277190853
 21
103.6853814574
 31
0.0
  0
LINE
  5
391
  8
LAYER1$C$L1
 62
     3
 10
-139.39015805010001
 20
169.11230711650001
 30
0.0
 11
-139.39015805010001
 21
166.11229185779999
 31
0.0
  0
LINE
  5
392
  8
LAYER1$C$L1
 62
     3
 10
-139.3889983821999
 20
169.11230711650001
 30
0.0
 11
-150.8890594172999
 21
169.11230711650001
 31
0.0
  0
LINE
  5
393
  8
LAYER1$C$L1
 62
     3
 10
-139.39015805010001
 20
166.11229185779999
 30
0.0
 11
-150.8890594172999
 21
166.11229185779999
 31
0.0
  0
LINE
  5
394
  8
LAYER1$C$L1
 62
     3
 10
-160.88906161769989
 20
170.3122883165999
 30
0.0
 11
-152.88905353099989
 21
175.31229344099989
 31
0.0
  0
LINE
  5
395
  8
LAYER1$C$L1
 62
     3
 10
-152.88905941729999
 20
179.7122827025
 30
0.0
 11
-150.8890594172999
 21
179.7122827025
 31
0.0
  0
LINE
  5
396
  8
LAYER1$C$L1
 62
     3
 10
-152.88905941729999
 20
179.7122827025
 30
0.0
 11
-152.88905941729999
 21
170.312288806
 31
0.0
  0
LINE
  5
397
  8
LAYER1$C$L1
 62
     3
 10
-166.1390594172999
 20
169.2122827025
 30
0.0
 11
-166.1390594172999
 21
166.11229185779999
 31
0.0
  0
LINE
  5
398
  8
LAYER1$C$L1
 62
     3
 10
-168.38905941729999
 20
169.2122827025
 30
0.0
 11
-168.38905941729999
 21
166.11229185779999
 31
0.0
  0
LINE
  5
399
  8
LAYER1$C$L1
 62
     3
 10
-163.8890594172999
 20
166.11229185779999
 30
0.0
 11
-163.8890594172999
 21
165.01228575420001
 31
0.0
  0
LINE
  5
39A
  8
LAYER1$C$L1
 62
     3
 10
-162.8890594172999
 20
169.2122827025
 30
0.0
 11
-162.8890594172999
 21
165.01228575420001
 31
0.0
  0
LINE
  5
39B
  8
LAYER1$C$L1
 62
     3
 10
-170.8890594172999
 20
166.11229185779999
 30
0.0
 11
-163.8890594172999
 21
166.11229185779999
 31
0.0
  0
LINE
  5
39C
  8
LAYER1$C$L1
 62
     3
 10
-150.8890594172999
 20
170.312288806
 30
0.0
 11
-170.8890594172999
 21
170.312288806
 31
0.0
  0
LINE
  5
39D
  8
LAYER1$C$L1
 62
     3
 10
-170.8890594172999
 20
169.2122827025
 30
0.0
 11
-155.88905941729999
 21
169.2122827025
 31
0.0
  0
LINE
  5
39E
  8
LAYER1$C$L1
 62
     3
 10
-150.8890594172999
 20
179.7122827025
 30
0.0
 11
-150.8890594172999
 21
169.11230711650001
 31
0.0
  0
LINE
  5
39F
  8
LAYER1$C$L1
 62
     3
 10
-159.18906246910001
 20
165.01228575420001
 30
0.0
 11
-159.18906246910001
 21
169.2122827025
 31
0.0
  0
LINE
  5
3A0
  8
LAYER1$C$L1
 62
     3
 10
-155.88905941729999
 20
165.01228575420001
 30
0.0
 11
-155.88905941729999
 21
169.2122827025
 31
0.0
  0
LINE
  5
3A1
  8
LAYER1$C$L1
 62
     3
 10
-170.8890594172999
 20
170.312288806
 30
0.0
 11
-170.8890594172999
 21
165.01228575420001
 31
0.0
  0
LINE
  5
3A2
  8
LAYER1$C$L1
 62
     3
 10
-139.39015805010001
 20
160.91226439190001
 30
0.0
 11
-139.39015805010001
 21
163.9122796506999
 31
0.0
  0
LINE
  5
3A3
  8
LAYER1$C$L1
 62
     3
 10
-150.88901364099991
 20
150.81228880599991
 30
0.0
 11
-150.88901364099991
 21
160.9122491331
 31
0.0
  0
LINE
  5
3A4
  8
LAYER1$C$L1
 62
     3
 10
-139.3889983821999
 20
160.91226439190001
 30
0.0
 11
-150.8889983821999
 21
160.91226439190001
 31
0.0
  0
LINE
  5
3A5
  8
LAYER1$C$L1
 62
     3
 10
-139.39015805010001
 20
163.9122796506999
 30
0.0
 11
-150.88901364099991
 21
163.9122796506999
 31
0.0
  0
LINE
  5
3A6
  8
LAYER1$C$L1
 62
     3
 10
-150.8890594172999
 20
166.11229185779999
 30
0.0
 11
-150.8890594172999
 21
163.9122491331
 31
0.0
  0
LINE
  5
3A7
  8
LAYER1$C$L1
 62
     3
 10
-163.8890594172999
 20
165.01219420149991
 30
0.0
 11
-163.8890594172999
 21
163.91231016829991
 31
0.0
  0
LINE
  5
3A8
  8
LAYER1$C$L1
 62
     3
 10
-162.86830746419989
 20
165.01219420149991
 30
0.0
 11
-162.86830746419989
 21
160.8123040648
 31
0.0
  0
LINE
  5
3A9
  8
LAYER1$C$L1
 62
     3
 10
-165.97473751789991
 20
163.91231016829991
 30
0.0
 11
-165.97473751789991
 21
160.8123040648
 31
0.0
  0
LINE
  5
3AA
  8
LAYER1$C$L1
 62
     3
 10
-168.38905941729999
 20
163.91231016829991
 30
0.0
 11
-168.38905941729999
 21
160.8123040648
 31
0.0
  0
LINE
  5
3AB
  8
LAYER1$C$L1
 62
     3
 10
-168.81487118489991
 20
159.71234373760001
 30
0.0
 11
-168.81487118489991
 21
150.31227354719999
 31
0.0
  0
LINE
  5
3AC
  8
LAYER1$C$L1
 62
     3
 10
-160.05013119469999
 20
158.7121911497
 30
0.0
 11
-150.8887237239999
 21
158.7121911497
 31
0.0
  0
LINE
  5
3AD
  8
LAYER1$C$L1
 62
     3
 10
-162.3886779476
 20
151.6122765989999
 30
0.0
 11
-162.3886779476
 21
150.312288806
 31
0.0
  0
LINE
  5
3AE
  8
LAYER1$C$L1
 62
     3
 10
-160.05013119469999
 20
151.61221556379999
 30
0.0
 11
-164.8886779476
 21
151.61221556379999
 31
0.0
  0
LINE
  5
3AF
  8
LAYER1$C$L1
 62
     3
 10
-151.38902889969989
 20
150.31222777079989
 30
0.0
 11
-170.88870846520001
 21
150.31222777079989
 31
0.0
  0
LINE
  5
3B0
  8
LAYER1$C$L1
 62
     3
 10
-160.05014645349999
 20
150.31221251199989
 30
0.0
 11
-160.05014645349999
 21
159.71231322009999
 31
0.0
  0
LINE
  5
3B1
  8
LAYER1$C$L1
 62
     3
 10
-164.88873898279999
 20
159.71237425519999
 30
0.0
 11
-164.88873898279999
 21
159.45540098859999
 31
0.0
  0
LINE
  5
3B2
  8
LAYER1$C$L1
 62
     3
 10
-164.88873898279999
 20
152.26941160870001
 30
0.0
 11
-164.88873898279999
 21
150.31236509990001
 31
0.0
  0
LINE
  5
3B3
  8
LAYER1$C$L1
 62
     3
 10
-164.50377821289999
 20
154.45503424750001
 30
0.0
 11
-165.0275513437999
 21
155.36223607619999
 31
0.0
  0
LINE
  5
3B4
  8
LAYER1$C$L1
 62
     3
 10
-165.31622471029999
 20
155.8622330988
 30
0.0
 11
-166.22785332480001
 21
157.4412204452
 31
0.0
  0
LINE
  5
3B5
  8
LAYER1$C$L1
 62
     3
 10
-166.30587873219989
 20
154.14807147039991
 30
0.0
 11
-165.3162319386
 21
155.8621902900999
 31
0.0
  0
LINE
  5
3B6
  8
LAYER1$C$L1
 62
     3
 10
-165.02751766930001
 20
156.36230711650001
 30
0.0
 11
-165.5463622737999
 21
156.36230711650001
 31
0.0
  0
LINE
  5
3B7
  8
LAYER1$C$L1
 62
     3
 10
-165.31619869959991
 20
155.86232237530001
 30
0.0
 11
-165.71958004719991
 21
155.86232237530001
 31
0.0
  0
LINE
  5
3B8
  8
LAYER1$C$L1
 62
     3
 10
-165.02750241050001
 20
155.36232237530001
 30
0.0
 11
-165.5463622737999
 21
155.36232237530001
 31
0.0
  0
LINE
  5
3B9
  8
LAYER1$C$L1
 62
     3
 10
-165.0275509427
 20
156.3622005272
 30
0.0
 11
-163.94286479269991
 21
158.2409323688
 31
0.0
  0
LINE
  5
3BA
  8
LAYER1$C$L1
 62
     3
 10
-163.9428193418
 20
158.2410288881
 30
0.0
 11
-163.71811511000001
 21
157.43022013679999
 31
0.0
  0
LINE
  5
3BB
  8
LAYER1$C$L1
 62
     3
 10
-163.94283139000001
 20
158.2410455198999
 30
0.0
 11
-164.1729949642
 21
158.2410455198999
 31
0.0
  0
LINE
  5
3BC
  8
LAYER1$C$L1
 62
     3
 10
-163.71814572100001
 20
157.4302392454
 30
0.0
 11
-163.94829403649999
 21
157.4302392454
 31
0.0
  0
LINE
  5
3BD
  8
LAYER1$C$L1
 62
     3
 10
-166.2473510433
 20
154.14816527080001
 30
0.0
 11
-166.70924984699991
 21
154.14816527080001
 31
0.0
  0
LINE
  5
3BE
  8
LAYER1$C$L1
 62
     3
 10
-164.44722330679991
 20
154.6585412835
 30
0.0
 11
-164.67194133940001
 21
153.84778386699989
 31
0.0
  0
LINE
  5
3BF
  8
LAYER1$C$L1
 62
     3
 10
-166.20882167849999
 20
157.5096396966
 30
0.0
 11
-166.35856334819999
 21
156.96898856049989
 31
0.0
  0
LINE
  5
3C0
  8
LAYER1$C$L1
 62
     3
 10
-165.1422567962
 20
155.8621935198999
 30
0.0
 11
-164.38134685270001
 21
157.1801284261
 31
0.0
  0
LINE
  5
3C1
  8
LAYER1$C$L1
 62
     3
 10
-165.54638563430001
 20
156.3622035729
 30
0.0
 11
-164.60603998219989
 21
157.99093029599999
 31
0.0
  0
LINE
  5
3C2
  8
LAYER1$C$L1
 62
     3
 10
-164.44735472310001
 20
154.65860596969989
 30
0.0
 11
-165.1422627824
 21
155.86222223959999
 31
0.0
  0
LINE
  5
3C3
  8
LAYER1$C$L1
 62
     3
 10
-164.67207074090001
 20
153.8478437432999
 30
0.0
 11
-165.54640687930001
 21
155.36223861560001
 31
0.0
  0
LINE
  5
3C4
  8
LAYER1$C$L1
 62
     3
 10
-165.5464080198
 20
156.3622407268
 30
0.0
 11
-166.20888352680001
 21
157.5096821587999
 31
0.0
  0
LINE
  5
3C5
  8
LAYER1$C$L1
 62
     3
 10
-165.71961600419991
 20
155.86222738789999
 30
0.0
 11
-166.3586311258
 21
156.96903423349991
 31
0.0
  0
LINE
  5
3C6
  8
LAYER1$C$L1
 62
     3
 10
-166.7092568116999
 20
154.14806955189991
 30
0.0
 11
-165.719610018
 21
155.8621883715999
 31
0.0
  0
LINE
  5
3C7
  8
LAYER1$C$L1
 62
     3
 10
-166.4423140971999
 20
153.81040955540001
 30
0.0
 11
-165.54638677479991
 21
155.36220146159991
 31
0.0
  0
LINE
  5
3C8
  8
LAYER1$C$L1
 62
     3
 10
-161.98865353350001
 20
157.11229185779999
 30
0.0
 11
-161.98865353350001
 21
154.61230711649989
 31
0.0
  0
LINE
  5
3C9
  8
LAYER1$C$L1
 62
     3
 10
-162.48865353350001
 20
157.86229185779999
 30
0.0
 11
-162.48865353350001
 21
157.61229185779999
 31
0.0
  0
LINE
  5
3CA
  8
LAYER1$C$L1
 62
     3
 10
-161.33016049150001
 20
154.1753106566
 30
0.0
 11
-161.33016049150001
 21
154.6122003049999
 31
0.0
  0
LINE
  5
3CB
  8
LAYER1$C$L1
 62
     3
 10
-160.78856503259991
 20
157.11218504620001
 30
0.0
 11
-161.9885772396
 21
157.11218504620001
 31
0.0
  0
LINE
  5
3CC
  8
LAYER1$C$L1
 62
     3
 10
-160.78856503259991
 20
154.6122003049999
 30
0.0
 11
-161.9885772396
 21
154.6122003049999
 31
0.0
  0
LINE
  5
3CD
  8
LAYER1$C$L1
 62
     3
 10
-161.33016049150001
 20
157.1122003049999
 30
0.0
 11
-161.33016049150001
 21
157.54908995349999
 31
0.0
  0
LINE
  5
3CE
  8
LAYER1$C$L1
 62
     3
 10
-161.3302608706
 20
157.54913861029999
 30
0.0
 11
-160.83026365750001
 21
159.39912873279991
 31
0.0
  0
LINE
  5
3CF
  8
LAYER1$C$L1
 62
     3
 10
-160.8301796639
 20
152.32534927200001
 30
0.0
 11
-161.33018074389989
 21
154.1753542390999
 31
0.0
  0
LINE
  5
3D0
  8
LAYER1$C$L1
 62
     3
 10
-161.8804847095
 20
151.6121850589999
 30
0.0
 11
-162.48861392929999
 21
153.86226435329991
 31
0.0
  0
LINE
  5
3D1
  8
LAYER1$C$L1
 62
     3
 10
-162.4886939845
 20
157.86222856759991
 30
0.0
 11
-161.9886967713999
 21
159.7122186901
 31
0.0
  0
LINE
  5
3D2
  8
LAYER1$C$L1
 62
     3
 10
-162.48865353350001
 20
154.11230711650001
 30
0.0
 11
-162.48865353350001
 21
153.86230711650001
 31
0.0
  0
LINE
  5
3D3
  8
LAYER1$C$L1
 62
     3
 10
-160.7886565853
 20
159.7122979612999
 30
0.0
 11
-160.7886565853
 21
151.61220030499999
 31
0.0
  0
LINE
  5
3D4
  8
LAYER1$C$L1
 62
     3
 10
-150.88904415850001
 20
159.71231322009999
 30
0.0
 11
-170.8890594172999
 21
159.71231322009999
 31
0.0
  0
LINE
  5
3D5
  8
LAYER1$C$L1
 62
     3
 10
-151.3890594172999
 20
150.31222777079989
 30
0.0
 11
-170.88902889969989
 21
150.31222777079989
 31
0.0
  0
LINE
  5
3D6
  8
LAYER1$C$L1
 62
     3
 10
-170.8890594172999
 20
165.01219420149991
 30
0.0
 11
-170.8890594172999
 21
150.312288806
 31
0.0
  0
LINE
  5
3D7
  8
LAYER1$C$L1
 62
     3
 10
-159.1890472103
 20
160.8123040648
 30
0.0
 11
-159.1890472103
 21
165.0122704954
 31
0.0
  0
LINE
  5
3D8
  8
LAYER1$C$L1
 62
     3
 10
-155.88905941729999
 20
160.8123040648
 30
0.0
 11
-155.88905941729999
 21
165.0122704954
 31
0.0
  0
LINE
  5
3D9
  8
LAYER1$C$L1
 62
     3
 10
-155.88905941729999
 20
160.8123040648
 30
0.0
 11
-170.8890594172999
 21
160.8123040648
 31
0.0
  0
LINE
  5
3DA
  8
LAYER1$C$L1
 62
     3
 10
-155.88907467609999
 20
160.8123040648
 30
0.0
 11
-170.88908993489991
 21
160.8123040648
 31
0.0
  0
LINE
  5
3DB
  8
LAYER1$C$L1
 62
     3
 10
-159.18907772790001
 20
160.8123040648
 30
0.0
 11
-159.18907772790001
 21
165.0122704954
 31
0.0
  0
LINE
  5
3DC
  8
LAYER1$C$L1
 62
     3
 10
-155.8890899349
 20
160.8123040648
 30
0.0
 11
-155.8890899349
 21
165.0122704954
 31
0.0
  0
LINE
  5
3DD
  8
LAYER1$C$L1
 62
     3
 10
-170.8891967463999
 20
163.91231016829991
 30
0.0
 11
-163.8890594172999
 21
163.91231016829991
 31
0.0
  0
LINE
  5
3DE
  8
LAYER1$C$L1
 62
     3
 10
-170.8890594172999
 20
165.01228575420001
 30
0.0
 11
-150.8890594172999
 21
165.01228575420001
 31
0.0
  0
LINE
  5
3DF
  8
LAYER1$C$L1
 62
     3
 10
-105.88907467609999
 20
185.0123010129999
 30
0.0
 11
-103.9944213557999
 21
185.0123010129999
 31
0.0
  0
LINE
  5
3E0
  8
LAYER1$C$L1
 62
     3
 10
-109.3890594172999
 20
176.81231932360001
 30
0.0
 11
-105.8890594173
 21
176.81231932360001
 31
0.0
  0
LINE
  5
3E1
  8
LAYER1$C$L1
 62
     3
 10
-109.3890594172999
 20
153.21232847879989
 30
0.0
 11
-105.8890594173
 21
153.21232847879989
 31
0.0
  0
LINE
  5
3E2
  8
LAYER1$C$L1
 62
     3
 10
-105.88907467609999
 20
184.5123010129999
 30
0.0
 11
-103.9944213557999
 21
184.5123010129999
 31
0.0
  0
LINE
  5
3E3
  8
LAYER1$C$L1
 62
     3
 10
-105.88907467609999
 20
183.71229796130001
 30
0.0
 11
-103.9944213557999
 21
183.71229796130001
 31
0.0
  0
LINE
  5
3E4
  8
LAYER1$C$L1
 62
     3
 10
-103.99443661459991
 20
145.0123620482
 30
0.0
 11
-103.99443661459991
 21
185.0123010129999
 31
0.0
  0
LINE
  5
3E5
  8
LAYER1$C$L1
 62
     3
 10
-103.99443661459991
 20
152.51234678939991
 30
0.0
 11
-105.8890899349
 21
152.51234678939991
 31
0.0
  0
LINE
  5
3E6
  8
LAYER1$C$L1
 62
     3
 10
-103.99443661459991
 20
157.4123559446999
 30
0.0
 11
-105.8890899349
 21
157.4123559446999
 31
0.0
  0
LINE
  5
3E7
  8
LAYER1$C$L1
 62
     3
 10
-103.99443661459991
 20
160.3123498411
 30
0.0
 11
-105.8890899349
 21
160.3123498411
 31
0.0
  0
LINE
  5
3E8
  8
LAYER1$C$L1
 62
     3
 10
-103.99443661459991
 20
154.81234984109989
 30
0.0
 11
-105.8890899349
 21
154.81234984109989
 31
0.0
  0
LINE
  5
3E9
  8
LAYER1$C$L1
 62
     3
 10
-105.88907467609999
 20
169.7122827025
 30
0.0
 11
-103.9944213557999
 21
169.7122827025
 31
0.0
  0
LINE
  5
3EA
  8
LAYER1$C$L1
 62
     3
 10
-103.99443661459991
 20
146.31234984109989
 30
0.0
 11
-105.8890899349
 21
146.31234984109989
 31
0.0
  0
LINE
  5
3EB
  8
LAYER1$C$L1
 62
     3
 10
-103.99443661459991
 20
147.4123559446999
 30
0.0
 11
-105.8890899349
 21
147.4123559446999
 31
0.0
  0
LINE
  5
3EC
  8
LAYER1$C$L1
 62
     3
 10
-103.99443661459991
 20
148.81236509990001
 30
0.0
 11
-105.8890899349
 21
148.81236509990001
 31
0.0
  0
LINE
  5
3ED
  8
LAYER1$C$L1
 62
     3
 10
-103.99443661459991
 20
150.5123467894
 30
0.0
 11
-105.8890899349
 21
150.5123467894
 31
0.0
  0
LINE
  5
3EE
  8
LAYER1$C$L1
 62
     3
 10
-103.99443661459991
 20
145.51234678939991
 30
0.0
 11
-105.8890899349
 21
145.51234678939991
 31
0.0
  0
LINE
  5
3F1
  8
LAYER1$C$L1
 62
     3
 10
-170.88904415850001
 20
100.0122704954
 30
0.0
 11
-170.88904415850001
 21
90.012270495400003
 31
0.0
  0
LINE
  5
3F7
  8
LAYER1$C$L1
 62
     3
 10
-170.88904415850001
 20
161.3622765989999
 30
0.0
 11
-170.88904415850001
 21
168.6622796506999
 31
0.0
  0
LINE
  5
3FB
  8
LAYER1$C$L1
 62
     3
 10
-150.8890594172999
 20
166.1122765989999
 30
0.0
 11
-150.8890594172999
 21
163.9122796506999
 31
0.0
  0
LINE
  5
3FC
  8
LAYER1$C$L1
 62
     3
 10
-150.8890594172999
 20
160.81227354719999
 30
0.0
 11
-150.8890594172999
 21
150.21228270249989
 31
0.0
  0
LINE
  5
3FD
  8
LAYER1$C$L1
 62
     3
 10
-128.0690673519
 20
162.91229490949999
 30
0.0
 11
-129.18906246910001
 21
162.91229490949999
 31
0.0
  0
LINE
  5
3FE
  8
LAYER1$C$L1
 62
     3
 10
-126.68240963709999
 20
160.31228880599991
 30
0.0
 11
-129.18906246910001
 21
160.31228880599991
 31
0.0
  0
LINE
  5
3FF
  8
LAYER1$C$L1
 62
     3
 10
-125.4557403254999
 20
158.0123010129999
 30
0.0
 11
-129.18906246910001
 21
158.0123010129999
 31
0.0
  0
LINE
  5
400
  8
LAYER1$C$L1
 62
     3
 10
-124.3890594172999
 20
156.0123010129999
 30
0.0
 11
-129.18906246910001
 21
156.0123010129999
 31
0.0
  0
LINE
  5
401
  8
LAYER1$C$L1
 62
     3
 10
-124.3890594172999
 20
154.312288806
 30
0.0
 11
-129.18906246910001
 21
154.312288806
 31
0.0
  0
LINE
  5
402
  8
LAYER1$C$L1
 62
     3
 10
-124.3890594172999
 20
152.91229490949999
 30
0.0
 11
-129.18906246910001
 21
152.91229490949999
 31
0.0
  0
LINE
  5
403
  8
LAYER1$C$L1
 62
     3
 10
-124.3890594172999
 20
151.81228880599991
 30
0.0
 11
-129.18906246910001
 21
151.81228880599991
 31
0.0
  0
LINE
  5
404
  8
LAYER1$C$L1
 62
     3
 10
-124.3890594172999
 20
151.01228575420001
 30
0.0
 11
-129.18906246910001
 21
151.01228575420001
 31
0.0
  0
LINE
  5
405
  8
LAYER1$C$L1
 62
     3
 10
-125.5090697933
 20
167.11229185779999
 30
0.0
 11
-124.3890594172999
 21
167.11229185779999
 31
0.0
  0
LINE
  5
406
  8
LAYER1$C$L1
 62
     3
 10
-126.8957427669
 20
169.7122979612999
 30
0.0
 11
-124.3890594172999
 21
169.7122979612999
 31
0.0
  0
LINE
  5
407
  8
LAYER1$C$L1
 62
     3
 10
-128.12241207849991
 20
172.01228575419989
 30
0.0
 11
-124.3890594172999
 21
172.01228575419989
 31
0.0
  0
LINE
  5
408
  8
LAYER1$C$L1
 62
     3
 10
-129.18906246910001
 20
174.01228575419989
 30
0.0
 11
-124.3890594172999
 21
174.01228575419989
 31
0.0
  0
LINE
  5
409
  8
LAYER1$C$L1
 62
     3
 10
-129.18906246910001
 20
175.71229796130001
 30
0.0
 11
-124.3890594172999
 21
175.71229796130001
 31
0.0
  0
LINE
  5
40A
  8
LAYER1$C$L1
 62
     3
 10
-129.18906246910001
 20
177.1122918577999
 30
0.0
 11
-124.3890594172999
 21
177.1122918577999
 31
0.0
  0
LINE
  5
40B
  8
LAYER1$C$L1
 62
     3
 10
-129.18906246910001
 20
178.2122979612999
 30
0.0
 11
-124.3890594172999
 21
178.2122979612999
 31
0.0
  0
LINE
  5
40C
  8
LAYER1$C$L1
 62
     3
 10
-129.18906246910001
 20
179.01228575419989
 30
0.0
 11
-124.3890594172999
 21
179.01228575419989
 31
0.0
  0
LINE
  5
40D
  8
LAYER1$C$L1
 62
     3
 10
-131.68906246910001
 20
153.812288806
 30
0.0
 11
-135.38907467609991
 21
153.812288806
 31
0.0
  0
LINE
  5
40E
  8
LAYER1$C$L1
 62
     3
 10
-129.18906246910001
 20
164.01228575420001
 30
0.0
 11
-130.68906246910001
 21
164.01228575420001
 31
0.0
  0
LINE
  5
40F
  8
LAYER1$C$L1
 62
     3
 10
-124.3890594172999
 20
150.51228575420001
 30
0.0
 11
-129.18906246910001
 21
150.51228575420001
 31
0.0
  0
LINE
  5
410
  8
LAYER1$C$L1
 62
     3
 10
-131.68906246910001
 20
165.01228575420001
 30
0.0
 11
-131.68906246910001
 21
151.01228575420001
 31
0.0
  0
LINE
  5
411
  8
LAYER1$C$L1
 62
     3
 10
-129.18906246910001
 20
165.01228575420001
 30
0.0
 11
-129.18906246910001
 21
150.51228575420001
 31
0.0
  0
LINE
  5
412
  8
LAYER1$C$L1
 62
     3
 10
-124.3890594172999
 20
165.01228575420001
 30
0.0
 11
-124.3890594172999
 21
150.51228575420001
 31
0.0
  0
LINE
  5
413
  8
LAYER1$C$L1
 62
     3
 10
-129.18906246910001
 20
151.01228575420001
 30
0.0
 11
-131.68906246910001
 21
151.01228575420001
 31
0.0
  0
LINE
  5
414
  8
LAYER1$C$L1
 62
     3
 10
-131.68906246910001
 20
161.76228575420001
 30
0.0
 11
-135.38907467609991
 21
161.76228575420001
 31
0.0
  0
LINE
  5
415
  8
LAYER1$C$L1
 62
     3
 10
-139.0890563655999
 20
165.01228575420001
 30
0.0
 11
-139.0890563655999
 21
160.812288806
 31
0.0
  0
LINE
  5
416
  8
LAYER1$C$L1
 62
     3
 10
-143.28903805499991
 20
163.91229490949999
 30
0.0
 11
-143.28903805499991
 21
165.01228575420001
 31
0.0
  0
LINE
  5
417
  8
LAYER1$C$L1
 62
     3
 10
-150.8890594172999
 20
163.91229490949999
 30
0.0
 11
-139.0890563655999
 21
163.91229490949999
 31
0.0
  0
LINE
  5
418
  8
LAYER1$C$L1
 62
     3
 10
-137.3890594172999
 20
165.01228575420001
 30
0.0
 11
-137.3890594172999
 21
160.812288806
 31
0.0
  0
LINE
  5
419
  8
LAYER1$C$L1
 62
     3
 10
-136.8890594172999
 20
165.01228575420001
 30
0.0
 11
-136.8890594172999
 21
160.812288806
 31
0.0
  0
LINE
  5
41A
  8
LAYER1$C$L1
 62
     3
 10
-136.8890594172999
 20
160.812288806
 30
0.0
 11
-150.8890594172999
 21
160.812288806
 31
0.0
  0
LINE
  5
41B
  8
LAYER1$C$L1
 62
     3
 10
-136.8890594172999
 20
159.7122979612999
 30
0.0
 11
-150.8890594172999
 21
159.7122979612999
 31
0.0
  0
LINE
  5
41C
  8
LAYER1$C$L1
 62
     3
 10
-135.38907467609991
 20
161.76228575420001
 30
0.0
 11
-136.8890594172999
 21
161.76228575420001
 31
0.0
  0
LINE
  5
41D
  8
LAYER1$C$L1
 62
     3
 10
-122.3890594172999
 20
163.41229490949999
 30
0.0
 11
-124.08907162440001
 21
163.41229490949999
 31
0.0
  0
LINE
  5
41E
  8
LAYER1$C$L1
 62
     3
 10
-124.08907162440001
 20
165.01228575420001
 30
0.0
 11
-124.08907162440001
 21
163.41229490949999
 31
0.0
  0
LINE
  5
41F
  8
LAYER1$C$L1
 62
     3
 10
-122.88907467609999
 20
163.41229490949999
 30
0.0
 11
-122.88907467609999
 21
154.01228575420001
 31
0.0
  0
LINE
  5
420
  8
LAYER1$C$L1
 62
     3
 10
-122.3890594172999
 20
154.01228575420001
 30
0.0
 11
-124.3890594172999
 21
154.01228575420001
 31
0.0
  0
LINE
  5
421
  8
LAYER1$C$L1
 62
     3
 10
-135.38907467609991
 20
154.01228575420001
 30
0.0
 11
-136.3890594172999
 21
154.01228575420001
 31
0.0
  0
LINE
  5
422
  8
LAYER1$C$L1
 62
     3
 10
-131.68906246910001
 20
153.01228575420001
 30
0.0
 11
-135.38907467609991
 21
153.01228575420001
 31
0.0
  0
LINE
  5
423
  8
LAYER1$C$L1
 62
     3
 10
-137.3890594172999
 20
150.2122979612999
 30
0.0
 11
-150.8890594172999
 21
150.2122979612999
 31
0.0
  0
LINE
  5
424
  8
LAYER1$C$L1
 62
     3
 10
-135.38907467609991
 20
161.76228575420001
 30
0.0
 11
-135.38907467609991
 21
153.01228575420001
 31
0.0
  0
LINE
  5
425
  8
LAYER1$C$L1
 62
     3
 10
-136.8890594172999
 20
160.812288806
 30
0.0
 11
-136.8890594172999
 21
150.7122979612999
 31
0.0
  0
LINE
  5
426
  8
LAYER1$C$L1
 62
     3
 10
-135.38907467609991
 20
176.21229796130001
 30
0.0
 11
-131.68906246910001
 21
176.21229796130001
 31
0.0
  0
LINE
  5
427
  8
LAYER1$C$L1
 62
     3
 10
-130.68906246910001
 20
166.01228575420001
 30
0.0
 11
-129.18906246910001
 21
166.01228575420001
 31
0.0
  0
LINE
  5
428
  8
LAYER1$C$L1
 62
     3
 10
-129.18906246910001
 20
179.51228575419989
 30
0.0
 11
-124.3890594172999
 21
179.51228575419989
 31
0.0
  0
LINE
  5
429
  8
LAYER1$C$L1
 62
     3
 10
-131.68906246910001
 20
179.01228575419989
 30
0.0
 11
-131.68906246910001
 21
165.01228575420001
 31
0.0
  0
LINE
  5
42A
  8
LAYER1$C$L1
 62
     3
 10
-129.18906246910001
 20
179.51228575419989
 30
0.0
 11
-129.18906246910001
 21
165.01228575420001
 31
0.0
  0
LINE
  5
42B
  8
LAYER1$C$L1
 62
     3
 10
-124.3890594172999
 20
179.51228575419989
 30
0.0
 11
-124.3890594172999
 21
165.01228575420001
 31
0.0
  0
LINE
  5
42C
  8
LAYER1$C$L1
 62
     3
 10
-131.68906246910001
 20
179.01228575419989
 30
0.0
 11
-129.18906246910001
 21
179.01228575419989
 31
0.0
  0
LINE
  5
42D
  8
LAYER1$C$L1
 62
     3
 10
-135.38907467609991
 20
168.26228575420001
 30
0.0
 11
-131.68906246910001
 21
168.26228575420001
 31
0.0
  0
LINE
  5
42E
  8
LAYER1$C$L1
 62
     3
 10
-139.0890563655999
 20
169.2122979612999
 30
0.0
 11
-139.0890563655999
 21
165.01228575420001
 31
0.0
  0
LINE
  5
42F
  8
LAYER1$C$L1
 62
     3
 10
-143.28903805499991
 20
165.01228575420001
 30
0.0
 11
-143.28903805499991
 21
166.11229185779999
 31
0.0
  0
LINE
  5
430
  8
LAYER1$C$L1
 62
     3
 10
-139.0890563655999
 20
166.11229185779999
 30
0.0
 11
-150.8890594172999
 21
166.11229185779999
 31
0.0
  0
LINE
  5
431
  8
LAYER1$C$L1
 62
     3
 10
-137.3890594172999
 20
169.2122979612999
 30
0.0
 11
-137.3890594172999
 21
165.01228575420001
 31
0.0
  0
LINE
  5
432
  8
LAYER1$C$L1
 62
     3
 10
-136.8890594172999
 20
169.2122979612999
 30
0.0
 11
-136.8890594172999
 21
165.01228575420001
 31
0.0
  0
LINE
  5
433
  8
LAYER1$C$L1
 62
     3
 10
-150.8890594172999
 20
169.2122979612999
 30
0.0
 11
-136.8890594172999
 21
169.2122979612999
 31
0.0
  0
LINE
  5
434
  8
LAYER1$C$L1
 62
     3
 10
-150.8890594172999
 20
170.312288806
 30
0.0
 11
-136.8890594172999
 21
170.312288806
 31
0.0
  0
LINE
  5
435
  8
LAYER1$C$L1
 62
     3
 10
-136.8890594172999
 20
168.26228575420001
 30
0.0
 11
-135.38907467609991
 21
168.26228575420001
 31
0.0
  0
LINE
  5
436
  8
LAYER1$C$L1
 62
     3
 10
-124.08907162440001
 20
166.61229185779999
 30
0.0
 11
-122.3890594172999
 21
166.61229185779999
 31
0.0
  0
LINE
  5
437
  8
LAYER1$C$L1
 62
     3
 10
-124.08907162440001
 20
166.61229185779999
 30
0.0
 11
-124.08907162440001
 21
165.01228575420001
 31
0.0
  0
LINE
  5
438
  8
LAYER1$C$L1
 62
     3
 10
-122.88907467609999
 20
176.01228575419989
 30
0.0
 11
-122.88907467609999
 21
166.61229185779999
 31
0.0
  0
LINE
  5
439
  8
LAYER1$C$L1
 62
     3
 10
-124.3890594172999
 20
176.01228575419989
 30
0.0
 11
-122.3890594172999
 21
176.01228575419989
 31
0.0
  0
LINE
  5
43A
  8
LAYER1$C$L1
 62
     3
 10
-136.3890594172999
 20
176.01228575419989
 30
0.0
 11
-135.38907467609991
 21
176.01228575419989
 31
0.0
  0
LINE
  5
43B
  8
LAYER1$C$L1
 62
     3
 10
-135.38907467609991
 20
177.01228575419989
 30
0.0
 11
-131.68906246910001
 21
177.01228575419989
 31
0.0
  0
LINE
  5
43C
  8
LAYER1$C$L1
 62
     3
 10
-150.8890594172999
 20
179.81228880599991
 30
0.0
 11
-137.3890594172999
 21
179.81228880599991
 31
0.0
  0
LINE
  5
43D
  8
LAYER1$C$L1
 62
     3
 10
-135.38907467609991
 20
177.01228575419989
 30
0.0
 11
-135.38907467609991
 21
168.26228575420001
 31
0.0
  0
LINE
  5
43E
  8
LAYER1$C$L1
 62
     3
 10
-136.8890594172999
 20
179.312288806
 30
0.0
 11
-136.8890594172999
 21
169.2122979612999
 31
0.0
  0
LINE
  5
43F
  8
LAYER1$C$L1
 62
     3
 10
-150.8890594172999
 20
179.81228880599991
 30
0.0
 11
-150.8890594172999
 21
169.2122827025
 31
0.0
  0
LINE
  5
440
  8
LAYER1$C$L1
  6
CENTERLINE
 62
     3
 10
-176.58162533529989
 20
165.01228575420001
 30
0.0
 11
-97.175588958299997
 21
165.01228575420001
 31
0.0
  0
LINE
  5
441
  8
LAYER1$C$L1
 62
     3
 10
-120.49239193690001
 20
162.91229490949999
 30
0.0
 11
-121.5890563656
 21
162.91229490949999
 31
0.0
  0
LINE
  5
442
  8
LAYER1$C$L1
 62
     3
 10
-119.1726287533
 20
160.31228880599991
 30
0.0
 11
-121.5890563656
 21
160.31228880599991
 31
0.0
  0
LINE
  5
443
  8
LAYER1$C$L1
 62
     3
 10
-117.9335082699
 20
158.0123010129999
 30
0.0
 11
-121.5890563656
 21
158.0123010129999
 31
0.0
  0
LINE
  5
444
  8
LAYER1$C$L1
 62
     3
 10
-116.8890594172999
 20
156.0123010129999
 30
0.0
 11
-121.5890563656
 21
156.0123010129999
 31
0.0
  0
LINE
  5
445
  8
LAYER1$C$L1
 62
     3
 10
-116.8890594172999
 20
154.312288806
 30
0.0
 11
-121.5890563656
 21
154.312288806
 31
0.0
  0
LINE
  5
446
  8
LAYER1$C$L1
 62
     3
 10
-116.8890594172999
 20
152.91229490949999
 30
0.0
 11
-121.5890563656
 21
152.91229490949999
 31
0.0
  0
LINE
  5
447
  8
LAYER1$C$L1
 62
     3
 10
-116.8890594172999
 20
151.81228880599991
 30
0.0
 11
-121.5890563656
 21
151.81228880599991
 31
0.0
  0
LINE
  5
448
  8
LAYER1$C$L1
 62
     3
 10
-116.8890594172999
 20
151.0123010129999
 30
0.0
 11
-121.5890563656
 21
151.0123010129999
 31
0.0
  0
LINE
  5
449
  8
LAYER1$C$L1
 62
     3
 10
-109.3890771364
 20
151.3122980812999
 30
0.0
 11
-109.6890817707
 21
151.01229344699999
 31
0.0
  0
LINE
  5
44A
  8
LAYER1$C$L1
 62
     3
 10
-116.3890535473999
 20
151.01229209830001
 30
0.0
 11
-116.88905407819991
 21
150.5122915675
 31
0.0
  0
LINE
  5
44B
  8
LAYER1$C$L1
 62
     3
 10
-109.68906246909989
 20
151.0123010129999
 30
0.0
 11
-116.3890594173
 21
151.0123010129999
 31
0.0
  0
LINE
  5
44C
  8
LAYER1$C$L1
 62
     3
 10
-116.3890594173
 20
165.0123010129999
 30
0.0
 11
-116.3890594173
 21
151.0123010129999
 31
0.0
  0
LINE
  5
44D
  8
LAYER1$C$L1
 62
     3
 10
-109.68906246909989
 20
165.0123010129999
 30
0.0
 11
-109.68906246909989
 21
151.0123010129999
 31
0.0
  0
LINE
  5
44E
  8
LAYER1$C$L1
 62
     3
 10
-109.3890594172999
 20
165.0123010129999
 30
0.0
 11
-109.3890594172999
 21
151.312288806
 31
0.0
  0
LINE
  5
44F
  8
LAYER1$C$L1
 62
     3
 10
-116.8890594172999
 20
150.5123010129999
 30
0.0
 11
-121.5890563656
 21
150.5123010129999
 31
0.0
  0
LINE
  5
450
  8
LAYER1$C$L1
 62
     3
 10
-116.8890594172999
 20
165.0123010129999
 30
0.0
 11
-116.8890594172999
 21
150.5123010129999
 31
0.0
  0
LINE
  5
451
  8
LAYER1$C$L1
 62
     3
 10
-121.5890657235999
 20
150.51229346689999
 30
0.0
 11
-122.3890654569
 21
151.51229313350001
 31
0.0
  0
LINE
  5
452
  8
LAYER1$C$L1
 62
     3
 10
-121.5890563656
 20
165.0123010129999
 30
0.0
 11
-121.5890563656
 21
150.5123010129999
 31
0.0
  0
LINE
  5
453
  8
LAYER1$C$L1
 62
     3
 10
-122.3890594172999
 20
165.0123010129999
 30
0.0
 11
-122.3890594172999
 21
151.5123010129999
 31
0.0
  0
LINE
  5
454
  8
LAYER1$C$L1
 62
     3
 10
-117.985723846
 20
167.11229185779999
 30
0.0
 11
-116.8890594172999
 21
167.11229185779999
 31
0.0
  0
LINE
  5
455
  8
LAYER1$C$L1
 62
     3
 10
-119.34349667319989
 20
169.7122979612999
 30
0.0
 11
-116.8890594172999
 21
169.7122979612999
 31
0.0
  0
LINE
  5
456
  8
LAYER1$C$L1
 62
     3
 10
-120.544607513
 20
172.01228575419989
 30
0.0
 11
-116.8890594172999
 21
172.01228575419989
 31
0.0
  0
LINE
  5
457
  8
LAYER1$C$L1
 62
     3
 10
-121.5890563656
 20
174.01228575419989
 30
0.0
 11
-116.8890594172999
 21
174.01228575419989
 31
0.0
  0
LINE
  5
458
  8
LAYER1$C$L1
 62
     3
 10
-121.5890563656
 20
175.71229796130001
 30
0.0
 11
-116.8890594172999
 21
175.71229796130001
 31
0.0
  0
LINE
  5
459
  8
LAYER1$C$L1
 62
     3
 10
-121.5890563656
 20
177.1122918577999
 30
0.0
 11
-116.8890594172999
 21
177.1122918577999
 31
0.0
  0
LINE
  5
45A
  8
LAYER1$C$L1
 62
     3
 10
-121.5890563656
 20
178.2122979612999
 30
0.0
 11
-116.8890594172999
 21
178.2122979612999
 31
0.0
  0
LINE
  5
45B
  8
LAYER1$C$L1
 62
     3
 10
-121.5890563656
 20
179.0123010129999
 30
0.0
 11
-116.8890594172999
 21
179.0123010129999
 31
0.0
  0
LINE
  5
45C
  8
LAYER1$C$L1
 62
     3
 10
-109.6890709811
 20
179.01229080269999
 30
0.0
 11
-109.38906634680001
 21
178.71228616839991
 31
0.0
  0
LINE
  5
45D
  8
LAYER1$C$L1
 62
     3
 10
-116.88906351910001
 20
179.51229133349989
 30
0.0
 11
-116.3890629883
 21
179.01229080269999
 31
0.0
  0
LINE
  5
45E
  8
LAYER1$C$L1
 62
     3
 10
-116.3890594173
 20
179.0123010129999
 30
0.0
 11
-109.68906246909989
 21
179.0123010129999
 31
0.0
  0
LINE
  5
45F
  8
LAYER1$C$L1
 62
     3
 10
-116.3890594173
 20
179.0123010129999
 30
0.0
 11
-116.3890594173
 21
165.0123010129999
 31
0.0
  0
LINE
  5
460
  8
LAYER1$C$L1
 62
     3
 10
-109.68906246909989
 20
179.0123010129999
 30
0.0
 11
-109.68906246909989
 21
165.0123010129999
 31
0.0
  0
LINE
  5
461
  8
LAYER1$C$L1
 62
     3
 10
-109.3890594172999
 20
178.71229796130001
 30
0.0
 11
-109.3890594172999
 21
165.0123010129999
 31
0.0
  0
LINE
  5
462
  8
LAYER1$C$L1
 62
     3
 10
-121.5890563656
 20
179.51230101300001
 30
0.0
 11
-116.8890594172999
 21
179.51230101300001
 31
0.0
  0
LINE
  5
463
  8
LAYER1$C$L1
 62
     3
 10
-116.8890594172999
 20
179.51230101300001
 30
0.0
 11
-116.8890594172999
 21
165.0123010129999
 31
0.0
  0
LINE
  5
464
  8
LAYER1$C$L1
 62
     3
 10
-122.38904147780001
 20
178.51227519630001
 30
0.0
 11
-121.58904174449999
 21
179.51227486289989
 31
0.0
  0
LINE
  5
465
  8
LAYER1$C$L1
 62
     3
 10
-121.5890563656
 20
179.51230101300001
 30
0.0
 11
-121.5890563656
 21
165.0123010129999
 31
0.0
  0
LINE
  5
466
  8
LAYER1$C$L1
 62
     3
 10
-122.3890594172999
 20
178.5123010129999
 30
0.0
 11
-122.3890594172999
 21
165.0123010129999
 31
0.0
  0
LINE
  5
467
  8
LAYER1$C$L1
 62
     3
 10
-122.3890594172999
 20
84.012255236699986
 30
0.0
 11
-124.3890594172999
 21
84.012255236699986
 31
0.0
  0
LINE
  5
468
  8
LAYER1$C$L1
 62
     3
 10
-131.68906246910001
 20
83.812258288399988
 30
0.0
 11
-135.38907467609991
 21
83.812258288399988
 31
0.0
  0
LINE
  5
469
  8
LAYER1$C$L1
 62
     3
 10
-131.68906246910001
 20
83.0122552367
 30
0.0
 11
-135.38907467609991
 21
83.0122552367
 31
0.0
  0
LINE
  5
46A
  8
LAYER1$C$L1
 62
     3
 10
-128.0690673519
 20
92.91226439190001
 30
0.0
 11
-129.18906246910001
 21
92.91226439190001
 31
0.0
  0
LINE
  5
46B
  8
LAYER1$C$L1
 62
     3
 10
-126.68240963709999
 20
90.312258288400002
 30
0.0
 11
-129.18906246910001
 21
90.312258288400002
 31
0.0
  0
LINE
  5
46C
  8
LAYER1$C$L1
 62
     3
 10
-125.4557403254999
 20
88.012270495400017
 30
0.0
 11
-129.18906246910001
 21
88.012270495400017
 31
0.0
  0
LINE
  5
46D
  8
LAYER1$C$L1
 62
     3
 10
-124.3890594172999
 20
86.012270495400003
 30
0.0
 11
-129.18906246910001
 21
86.012270495400003
 31
0.0
  0
LINE
  5
46E
  8
LAYER1$C$L1
 62
     3
 10
-124.3890594172999
 20
84.312258288400002
 30
0.0
 11
-129.18906246910001
 21
84.312258288400002
 31
0.0
  0
LINE
  5
46F
  8
LAYER1$C$L1
 62
     3
 10
-124.3890594172999
 20
82.912264391899996
 30
0.0
 11
-129.18906246910001
 21
82.912264391899996
 31
0.0
  0
LINE
  5
470
  8
LAYER1$C$L1
 62
     3
 10
-124.3890594172999
 20
81.812258288400002
 30
0.0
 11
-129.18906246910001
 21
81.812258288400002
 31
0.0
  0
LINE
  5
471
  8
LAYER1$C$L1
 62
     3
 10
-124.3890594172999
 20
81.012255236700014
 30
0.0
 11
-129.18906246910001
 21
81.012255236700014
 31
0.0
  0
LINE
  5
472
  8
LAYER1$C$L1
 62
     3
 10
-129.18906246910001
 20
81.012255236700014
 30
0.0
 11
-131.68906246910001
 21
81.012255236700014
 31
0.0
  0
LINE
  5
473
  8
LAYER1$C$L1
 62
     3
 10
-124.3890594172999
 20
80.5122552367
 30
0.0
 11
-129.18906246910001
 21
80.5122552367
 31
0.0
  0
LINE
  5
474
  8
LAYER1$C$L1
 62
     3
 10
-129.18906246910001
 20
95.012255236699986
 30
0.0
 11
-129.18906246910001
 21
80.5122552367
 31
0.0
  0
LINE
  5
475
  8
LAYER1$C$L1
 62
     3
 10
-131.68906246910001
 20
95.012255236699986
 30
0.0
 11
-131.68906246910001
 21
81.012255236700014
 31
0.0
  0
LINE
  5
476
  8
LAYER1$C$L1
 62
     3
 10
-124.3890594172999
 20
95.012255236699986
 30
0.0
 11
-124.3890594172999
 21
80.5122552367
 31
0.0
  0
LINE
  5
477
  8
LAYER1$C$L1
 62
     3
 10
-136.8890594172999
 20
95.012255236699986
 30
0.0
 11
-136.8890594172999
 21
83.512255236700014
 31
0.0
  0
LINE
  5
478
  8
LAYER1$C$L1
 62
     3
 10
-135.38907467609991
 20
84.012255236699986
 30
0.0
 11
-136.3890594172999
 21
84.012255236699986
 31
0.0
  0
LINE
  5
479
  8
LAYER1$C$L1
 62
     3
 10
-135.38907467609991
 20
95.012255236699986
 30
0.0
 11
-135.38907467609991
 21
83.0122552367
 31
0.0
  0
LINE
  5
47A
  8
LAYER1$C$L1
 62
     3
 10
-137.3890594172999
 20
77.0122552367
 30
0.0
 11
-150.8890594172999
 21
77.0122552367
 31
0.0
  0
LINE
  5
47B
  8
LAYER1$C$L1
 62
     3
 10
-137.3890594172999
 20
76.512255236699986
 30
0.0
 11
-150.8890594172999
 21
76.512255236699986
 31
0.0
  0
LINE
  5
47C
  8
LAYER1$C$L1
 62
     3
 10
-136.8890594172999
 20
83.512255236700014
 30
0.0
 11
-136.8890594172999
 21
77.0122552367
 31
0.0
  0
LINE
  5
47D
  8
LAYER1$C$L1
 62
     3
 10
-150.8890594172999
 20
95.012255236699986
 30
0.0
 11
-150.8890594172999
 21
76.512255236699986
 31
0.0
  0
LINE
  5
47E
  8
LAYER1$C$L1
 62
     3
 10
-125.5090697933
 20
97.112261340200021
 30
0.0
 11
-124.3890594172999
 21
97.112261340200021
 31
0.0
  0
LINE
  5
47F
  8
LAYER1$C$L1
 62
     3
 10
-126.8957427669
 20
99.712267443700014
 30
0.0
 11
-124.3890594172999
 21
99.712267443700014
 31
0.0
  0
LINE
  5
480
  8
LAYER1$C$L1
 62
     3
 10
-128.12241207849991
 20
102.0122552367
 30
0.0
 11
-124.3890594172999
 21
102.0122552367
 31
0.0
  0
LINE
  5
481
  8
LAYER1$C$L1
 62
     3
 10
-129.18906246910001
 20
104.0122552366999
 30
0.0
 11
-124.3890594172999
 21
104.0122552366999
 31
0.0
  0
LINE
  5
482
  8
LAYER1$C$L1
 62
     3
 10
-129.18906246910001
 20
105.7122674437
 30
0.0
 11
-124.3890594172999
 21
105.7122674437
 31
0.0
  0
LINE
  5
483
  8
LAYER1$C$L1
 62
     3
 10
-129.18906246910001
 20
107.11226134019989
 30
0.0
 11
-124.3890594172999
 21
107.11226134019989
 31
0.0
  0
LINE
  5
484
  8
LAYER1$C$L1
 62
     3
 10
-129.18906246910001
 20
108.2122674437
 30
0.0
 11
-124.3890594172999
 21
108.2122674437
 31
0.0
  0
LINE
  5
485
  8
LAYER1$C$L1
 62
     3
 10
-129.18906246910001
 20
109.0122552366999
 30
0.0
 11
-124.3890594172999
 21
109.0122552366999
 31
0.0
  0
LINE
  5
486
  8
LAYER1$C$L1
 62
     3
 10
-131.68906246910001
 20
109.0122552366999
 30
0.0
 11
-129.18906246910001
 21
109.0122552366999
 31
0.0
  0
LINE
  5
487
  8
LAYER1$C$L1
 62
     3
 10
-129.18906246910001
 20
109.5122552367
 30
0.0
 11
-124.3890594172999
 21
109.5122552367
 31
0.0
  0
LINE
  5
488
  8
LAYER1$C$L1
 62
     3
 10
-129.18906246910001
 20
109.5122552367
 30
0.0
 11
-129.18906246910001
 21
95.012255236699986
 31
0.0
  0
LINE
  5
489
  8
LAYER1$C$L1
 62
     3
 10
-131.68906246910001
 20
109.0122552366999
 30
0.0
 11
-131.68906246910001
 21
95.012255236699986
 31
0.0
  0
LINE
  5
48A
  8
LAYER1$C$L1
 62
     3
 10
-124.3890594172999
 20
109.5122552367
 30
0.0
 11
-124.3890594172999
 21
95.012255236699986
 31
0.0
  0
LINE
  5
48B
  8
LAYER1$C$L1
 62
     3
 10
-124.3890594172999
 20
106.0122552366999
 30
0.0
 11
-122.3890594172999
 21
106.0122552366999
 31
0.0
  0
LINE
  5
48C
  8
LAYER1$C$L1
 62
     3
 10
-135.38907467609991
 20
106.2122674437
 30
0.0
 11
-131.68906246910001
 21
106.2122674437
 31
0.0
  0
LINE
  5
48D
  8
LAYER1$C$L1
 62
     3
 10
-136.8890594172999
 20
106.5122552367
 30
0.0
 11
-136.8890594172999
 21
95.012255236699986
 31
0.0
  0
LINE
  5
48E
  8
LAYER1$C$L1
 62
     3
 10
-136.3890594172999
 20
106.0122552366999
 30
0.0
 11
-135.38907467609991
 21
106.0122552366999
 31
0.0
  0
LINE
  5
48F
  8
LAYER1$C$L1
 62
     3
 10
-135.38907467609991
 20
107.0122552366999
 30
0.0
 11
-131.68906246910001
 21
107.0122552366999
 31
0.0
  0
LINE
  5
490
  8
LAYER1$C$L1
 62
     3
 10
-135.38907467609991
 20
107.0122552366999
 30
0.0
 11
-135.38907467609991
 21
95.012255236699986
 31
0.0
  0
LINE
  5
491
  8
LAYER1$C$L1
 62
     3
 10
-150.8890594172999
 20
113.0122552366999
 30
0.0
 11
-137.3890594172999
 21
113.0122552366999
 31
0.0
  0
LINE
  5
492
  8
LAYER1$C$L1
 62
     3
 10
-150.8890594172999
 20
113.5122552367
 30
0.0
 11
-137.3890594172999
 21
113.5122552367
 31
0.0
  0
LINE
  5
493
  8
LAYER1$C$L1
 62
     3
 10
-136.8890594172999
 20
113.0122552366999
 30
0.0
 11
-136.8890594172999
 21
106.5122552367
 31
0.0
  0
LINE
  5
494
  8
LAYER1$C$L1
 62
     3
 10
-150.8890594172999
 20
113.5122552367
 30
0.0
 11
-150.8890594172999
 21
95.012255236699986
 31
0.0
  0
LINE
  5
495
  8
LAYER1$C$L1
  6
CENTERLINE
 62
     3
 10
-177.05023800619989
 20
95.012285754199993
 30
0.0
 11
-96.094198577499995
 21
95.012285754199993
 31
0.0
  0
LINE
  5
496
  8
LAYER1$C$L1
 62
     3
 10
-120.49239193690001
 20
92.9122796507
 30
0.0
 11
-121.5890563656
 21
92.9122796507
 31
0.0
  0
LINE
  5
497
  8
LAYER1$C$L1
 62
     3
 10
-119.1726287533
 20
90.312273547199993
 30
0.0
 11
-121.5890563656
 21
90.312273547199993
 31
0.0
  0
LINE
  5
498
  8
LAYER1$C$L1
 62
     3
 10
-117.9335082699
 20
88.012285754200008
 30
0.0
 11
-121.5890563656
 21
88.012285754200008
 31
0.0
  0
LINE
  5
499
  8
LAYER1$C$L1
 62
     3
 10
-116.8890594172999
 20
86.012285754199993
 30
0.0
 11
-121.5890563656
 21
86.012285754199993
 31
0.0
  0
LINE
  5
49A
  8
LAYER1$C$L1
 62
     3
 10
-116.8890594172999
 20
84.312273547199993
 30
0.0
 11
-121.5890563656
 21
84.312273547199993
 31
0.0
  0
LINE
  5
49B
  8
LAYER1$C$L1
 62
     3
 10
-116.8890594172999
 20
82.9122796507
 30
0.0
 11
-121.5890563656
 21
82.9122796507
 31
0.0
  0
LINE
  5
49C
  8
LAYER1$C$L1
 62
     3
 10
-116.8890594172999
 20
81.812273547199993
 30
0.0
 11
-121.5890563656
 21
81.812273547199993
 31
0.0
  0
LINE
  5
49D
  8
LAYER1$C$L1
 62
     3
 10
-116.8890594172999
 20
81.012285754199993
 30
0.0
 11
-121.5890563656
 21
81.012285754199993
 31
0.0
  0
LINE
  5
49E
  8
LAYER1$C$L1
 62
     3
 10
-109.3890771364
 20
81.312272236400005
 30
0.0
 11
-109.6890817707
 21
81.012267602099996
 31
0.0
  0
LINE
  5
49F
  8
LAYER1$C$L1
 62
     3
 10
-116.3890629883
 20
81.012256812499984
 30
0.0
 11
-116.88906351910001
 21
80.512256281700004
 31
0.0
  0
LINE
  5
4A0
  8
LAYER1$C$L1
 62
     3
 10
-109.68906246909989
 20
81.012285754199993
 30
0.0
 11
-116.3890594173
 21
81.012285754199993
 31
0.0
  0
LINE
  5
4A1
  8
LAYER1$C$L1
 62
     3
 10
-116.3890594173
 20
95.012285754199993
 30
0.0
 11
-116.3890594173
 21
81.012285754199993
 31
0.0
  0
LINE
  5
4A2
  8
LAYER1$C$L1
 62
     3
 10
-109.68906246909989
 20
95.012285754199993
 30
0.0
 11
-109.68906246909989
 21
81.012285754199993
 31
0.0
  0
LINE
  5
4A3
  8
LAYER1$C$L1
 62
     3
 10
-109.3890594172999
 20
95.012285754199993
 30
0.0
 11
-109.3890594172999
 21
81.312273547200007
 31
0.0
  0
LINE
  5
4A4
  8
LAYER1$C$L1
 62
     3
 10
-116.8890594172999
 20
80.512285754200008
 30
0.0
 11
-121.5890563656
 21
80.512285754200008
 31
0.0
  0
LINE
  5
4A5
  8
LAYER1$C$L1
 62
     3
 10
-116.8890594172999
 20
95.012285754199993
 30
0.0
 11
-116.8890594172999
 21
80.512285754200008
 31
0.0
  0
LINE
  5
4A6
  8
LAYER1$C$L1
 62
     3
 10
-121.5890393613999
 20
80.512277603100003
 30
0.0
 11
-122.3890390947
 21
81.512277269799995
 31
0.0
  0
LINE
  5
4A7
  8
LAYER1$C$L1
 62
     3
 10
-121.5890563656
 20
95.012285754199993
 30
0.0
 11
-121.5890563656
 21
80.512285754200008
 31
0.0
  0
LINE
  5
4A8
  8
LAYER1$C$L1
 62
     3
 10
-122.3890594172999
 20
95.012285754199993
 30
0.0
 11
-122.3890594172999
 21
81.512285754200008
 31
0.0
  0
LINE
  5
4A9
  8
LAYER1$C$L1
 62
     3
 10
-117.985723846
 20
97.112276598999998
 30
0.0
 11
-116.8890594172999
 21
97.112276598999998
 31
0.0
  0
LINE
  5
4AA
  8
LAYER1$C$L1
 62
     3
 10
-119.34349667319989
 20
99.712282702500005
 30
0.0
 11
-116.8890594172999
 21
99.712282702500005
 31
0.0
  0
LINE
  5
4AB
  8
LAYER1$C$L1
 62
     3
 10
-120.544607513
 20
102.0122704954
 30
0.0
 11
-116.8890594172999
 21
102.0122704954
 31
0.0
  0
LINE
  5
4AC
  8
LAYER1$C$L1
 62
     3
 10
-121.5890563656
 20
104.0122704954
 30
0.0
 11
-116.8890594172999
 21
104.0122704954
 31
0.0
  0
LINE
  5
4AD
  8
LAYER1$C$L1
 62
     3
 10
-121.5890563656
 20
105.7122827025
 30
0.0
 11
-116.8890594172999
 21
105.7122827025
 31
0.0
  0
LINE
  5
4AE
  8
LAYER1$C$L1
 62
     3
 10
-121.5890563656
 20
107.112276599
 30
0.0
 11
-116.8890594172999
 21
107.112276599
 31
0.0
  0
LINE
  5
4AF
  8
LAYER1$C$L1
 62
     3
 10
-121.5890563656
 20
108.2122827025
 30
0.0
 11
-116.8890594172999
 21
108.2122827025
 31
0.0
  0
LINE
  5
4B0
  8
LAYER1$C$L1
 62
     3
 10
-121.5890563656
 20
109.01228575419999
 30
0.0
 11
-116.8890594172999
 21
109.01228575419999
 31
0.0
  0
LINE
  5
4B1
  8
LAYER1$C$L1
 62
     3
 10
-109.68906963239991
 20
109.0122447273
 30
0.0
 11
-109.38907578769999
 21
108.7122508826
 31
0.0
  0
LINE
  5
4B2
  8
LAYER1$C$L1
 62
     3
 10
-116.88907295999989
 20
109.51225604770001
 30
0.0
 11
-116.3890724292
 21
109.0122555169
 31
0.0
  0
LINE
  5
4B3
  8
LAYER1$C$L1
 62
     3
 10
-116.3890594173
 20
109.01228575419999
 30
0.0
 11
-109.68906246909989
 21
109.01228575419999
 31
0.0
  0
LINE
  5
4B4
  8
LAYER1$C$L1
 62
     3
 10
-116.3890594173
 20
109.01228575419999
 30
0.0
 11
-116.3890594173
 21
95.012285754199993
 31
0.0
  0
LINE
  5
4B5
  8
LAYER1$C$L1
 62
     3
 10
-109.68906246909989
 20
109.01228575419999
 30
0.0
 11
-109.68906246909989
 21
95.012285754199993
 31
0.0
  0
LINE
  5
4B6
  8
LAYER1$C$L1
 62
     3
 10
-109.3890594172999
 20
108.7122827025
 30
0.0
 11
-109.3890594172999
 21
95.012285754199993
 31
0.0
  0
LINE
  5
4B7
  8
LAYER1$C$L1
 62
     3
 10
-121.5890563656
 20
109.51228575419999
 30
0.0
 11
-116.8890594172999
 21
109.51228575419999
 31
0.0
  0
LINE
  5
4B8
  8
LAYER1$C$L1
 62
     3
 10
-116.8890594172999
 20
109.51228575419999
 30
0.0
 11
-116.8890594172999
 21
95.012285754199993
 31
0.0
  0
LINE
  5
4B9
  8
LAYER1$C$L1
 62
     3
 10
-122.3890569673999
 20
108.5122530770999
 30
0.0
 11
-121.5890577926
 21
109.51225204559999
 31
0.0
  0
LINE
  5
4BA
  8
LAYER1$C$L1
 62
     3
 10
-121.5890563656
 20
109.51228575419999
 30
0.0
 11
-121.5890563656
 21
95.012285754199993
 31
0.0
  0
LINE
  5
4BB
  8
LAYER1$C$L1
 62
     3
 10
-122.3890594172999
 20
108.51228575419999
 30
0.0
 11
-122.3890594172999
 21
95.012285754199993
 31
0.0
  0
INSERT
  5
656
  8
0
  2
*U38
 10
0.0
 20
0.0
 30
0.0
  0
ENDSEC
  0
EOF
