  0
SECTION
  2
HEADER
  9
$ACADVER
  1
AC1009
  9
$INSBASE
 10
0.0
 20
0.0
 30
0.0
  9
$EXTMIN
 10
-176.20221454425001
 20
15.999999999999989
 30
0.0
  9
$EXTMAX
 10
9.1888900419596773
 20
188.73283915776011
 30
0.0
  9
$LIMMIN
 10
-215.17524414059989
 20
-3.1749999999999989
  9
$LIMMAX
 10
3.1749999999999989
 20
300.17500000000001
  9
$ORTHOMODE
 70
     0
  9
$REGENMODE
 70
     1
  9
$FILLMODE
 70
     1
  9
$QTEXTMODE
 70
     0
  9
$MIRRTEXT
 70
     0
  9
$DRAGMODE
 70
     2
  9
$LTSCALE
 40
1.0
  9
$OSMODE
 70
    39
  9
$ATTMODE
 70
     1
  9
$TEXTSIZE
 40
3.1999998092999991
  9
$TRACEWID
 40
0.05
  9
$TEXTSTYLE
  7
STANDARD
  9
$CLAYER
  8
0
  9
$CELTYPE
  6
BYLAYER
  9
$CECOLOR
 62
   256
  9
$DIMSCALE
 40
1.0
  9
$DIMASZ
 40
1.9727878464999999
  9
$DIMEXO
 40
2.5399999618999991
  9
$DIMDLI
 40
0.38
  9
$DIMRND
 40
0.0
  9
$DIMDLE
 40
0.0
  9
$DIMEXE
 40
3.8099999427999989
  9
$DIMTP
 40
0.0
  9
$DIMTM
 40
0.0
  9
$DIMTXT
 40
3.1999998092999991
  9
$DIMCEN
 40
0.09
  9
$DIMTSZ
 40
0.0
  9
$DIMTOL
 70
     0
  9
$DIMLIM
 70
     0
  9
$DIMTIH
 70
     0
  9
$DIMTOH
 70
     1
  9
$DIMSE1
 70
     0
  9
$DIMSE2
 70
     0
  9
$DIMTAD
 70
     0
  9
$DIMZIN
 70
     0
  9
$DIMBLK
  1

  9
$DIMASO
 70
     1
  9
$DIMSHO
 70
     0
  9
$DIMPOST
  1

  9
$DIMAPOST
  1

  9
$DIMALT
 70
     0
  9
$DIMALTD
 70
     2
  9
$DIMALTF
 40
25.399999999999999
  9
$DIMLFAC
 40
1.0
  9
$DIMTOFL
 70
     0
  9
$DIMTVP
 40
0.0
  9
$DIMTIX
 70
     0
  9
$DIMSOXD
 70
     0
  9
$DIMSAH
 70
     0
  9
$DIMBLK1
  1

  9
$DIMBLK2
  1

  9
$DIMSTYLE
  2
STANDARD
  9
$DIMCLRD
 70
     0
  9
$DIMCLRE
 70
     0
  9
$DIMCLRT
 70
     0
  9
$DIMTFAC
 40
1.0
  9
$DIMGAP
 40
0.09
  9
$LUNITS
 70
     2
  9
$LUPREC
 70
     3
  9
$SKETCHINC
 40
0.1
  9
$FILLETRAD
 40
0.0625
  9
$AUNITS
 70
     0
  9
$AUPREC
 70
     0
  9
$MENU
  1
ACAD
  9
$ELEVATION
 40
0.0
  9
$PELEVATION
 40
0.0
  9
$THICKNESS
 40
0.0
  9
$LIMCHECK
 70
     0
  9
$BLIPMODE
 70
     0
  9
$CHAMFERA
 40
0.0
  9
$CHAMFERB
 40
0.0
  9
$SKPOLY
 70
     0
  9
$TDCREATE
 40
2452011.405243055
  9
$TDUPDATE
 40
2452374.7956387959
  9
$TDINDWG
 40
0.0860633333
  9
$TDUSRTIMER
 40
0.0860628704
  9
$USRTIMER
 70
     1
  9
$ANGBASE
 50
0.0
  9
$ANGDIR
 70
     0
  9
$PDMODE
 70
     0
  9
$PDSIZE
 40
0.0
  9
$PLINEWID
 40
0.0
  9
$COORDS
 70
     1
  9
$SPLFRAME
 70
     0
  9
$SPLINETYPE
 70
     6
  9
$SPLINESEGS
 70
     8
  9
$ATTDIA
 70
     0
  9
$ATTREQ
 70
     1
  9
$HANDLING
 70
  4097
  9
$HANDSEED
  5
84D
  9
$SURFTAB1
 70
     6
  9
$SURFTAB2
 70
     6
  9
$SURFTYPE
 70
     6
  9
$SURFU
 70
     6
  9
$SURFV
 70
     6
  9
$UCSNAME
  2

  9
$UCSORG
 10
0.0
 20
0.0
 30
0.0
  9
$UCSXDIR
 10
1.0
 20
0.0
 30
0.0
  9
$UCSYDIR
 10
0.0
 20
1.0
 30
0.0
  9
$PUCSNAME
  2

  9
$PUCSORG
 10
0.0
 20
0.0
 30
0.0
  9
$PUCSXDIR
 10
1.0
 20
0.0
 30
0.0
  9
$PUCSYDIR
 10
0.0
 20
1.0
 30
0.0
  9
$USERI1
 70
     0
  9
$USERI2
 70
     0
  9
$USERI3
 70
     0
  9
$USERI4
 70
     0
  9
$USERI5
 70
     0
  9
$USERR1
 40
0.0
  9
$USERR2
 40
0.0
  9
$USERR3
 40
0.0
  9
$USERR4
 40
0.0
  9
$USERR5
 40
0.0
  9
$WORLDVIEW
 70
     1
  9
$SHADEDGE
 70
     3
  9
$SHADEDIF
 70
    70
  9
$TILEMODE
 70
     1
  9
$MAXACTVP
 70
    64
  9
$PLIMCHECK
 70
     0
  9
$PEXTMIN
 10
1.0000000000000000E+020
 20
1.0000000000000000E+020
 30
1.0000000000000000E+020
  9
$PEXTMAX
 10
-1.0000000000000000E+020
 20
-1.0000000000000000E+020
 30
-1.0000000000000000E+020
  9
$PLIMMIN
 10
0.0
 20
0.0
  9
$PLIMMAX
 10
12.0
 20
9.0
  9
$UNITMODE
 70
     0
  9
$VISRETAIN
 70
     1
  9
$PLINEGEN
 70
     0
  9
$PSLTSCALE
 70
     1
  0
ENDSEC
  0
SECTION
  2
TABLES
  0
TABLE
  2
VPORT
 70
     2
  0
VPORT
  2
*ACTIVE
 70
     0
 10
0.0
 20
0.0
 11
1.0
 21
1.0
 12
-98.848402700927039
 22
92.253541542511485
 13
0.0
 23
0.0
 14
1.0
 24
1.0
 15
0.0
 25
0.0
 16
0.0
 26
0.0
 36
1.0
 17
0.0
 27
0.0
 37
0.0
 40
201.5448401462537
 41
1.565365025466892
 42
50.0
 43
0.0
 44
0.0
 50
0.0
 51
0.0
 71
     0
 72
   100
 73
     1
 74
     1
 75
     0
 76
     0
 77
     0
 78
     0
  0
ENDTAB
  0
TABLE
  2
LTYPE
 70
     7
  0
LTYPE
  2
CONTINUOUS
 70
     0
  3
Solid line
 72
    65
 73
     0
 40
0.0
  0
LTYPE
  2
SOLID
 70
     0
  3
Solid
 72
    65
 73
     0
 40
0.0
  0
LTYPE
  2
DASHED
 70
     0
  3
Dashed
 72
    65
 73
     2
 40
4.7625000000000002
 49
3.1749999999999989
 49
-1.587499999999999
  0
LTYPE
  2
CENTERLINE
 70
     0
  3
Centerline
 72
    65
 73
     4
 40
25.399999999999999
 49
19.050000000000001
 49
-1.587499999999999
 49
3.1749999999999989
 49
-1.587499999999999
  0
LTYPE
  2
PHANTOM
 70
     0
  3
Phantom
 72
    65
 73
     6
 40
30.162500000000001
 49
19.050000000000001
 49
-1.587499999999999
 49
3.1749999999999989
 49
-1.587499999999999
 49
3.1749999999999989
 49
-1.587499999999999
  0
LTYPE
  2
CONSTRUCTION
 70
     0
  3
Construction
 72
    65
 73
     2
 40
1.016
 49
0.254
 49
-0.762
  0
LTYPE
  2
GAP
 70
     0
  3
Gap
 72
    65
 73
     3
 40
2540.9999980092002
 49
0.0
 49
-0.9999980092000002
 49
2540.0
  0
ENDTAB
  0
TABLE
  2
LAYER
 70
    10
  0
LAYER
  2
0
 70
     0
 62
     7
  6
CONTINUOUS
  0
LAYER
  2
LAYER1$C$L1
 70
     0
 62
     3
  6
SOLID
  0
LAYER
  2
LAYER2$C$L2
 70
     0
 62
     3
  6
SOLID
  0
LAYER
  2
LAYER3$C$L3
 70
     0
 62
     3
  6
SOLID
  0
LAYER
  2
LAYER4$C$L4
 70
     0
 62
     3
  6
SOLID
  0
LAYER
  2
LAYER6$C$L6
 70
     0
 62
     6
  6
SOLID
  0
LAYER
  2
LAYER8$C$L8
 70
     0
 62
    32
  6
SOLID
  0
LAYER
  2
LAYER9$C$L9
 70
     0
 62
     1
  6
SOLID
  0
LAYER
  2
DEFPOINTS
 70
     0
 62
     7
  6
CONTINUOUS
  0
LAYER
  2
DIMENSIONS
 70
     0
 62
     5
  6
CONTINUOUS
  0
ENDTAB
  0
TABLE
  2
STYLE
 70
     1
  0
STYLE
  2
STANDARD
 70
     0
 40
0.0
 41
1.0
 50
0.0
 71
     0
 42
3.1999998092999991
  3
txt
  4

  0
ENDTAB
  0
TABLE
  2
VIEW
 70
     0
  0
ENDTAB
  0
TABLE
  2
UCS
 70
     0
  0
ENDTAB
  0
TABLE
  2
APPID
 70
     1
  0
APPID
  2
ACAD
 70
     0
  0
ENDTAB
  0
TABLE
  2
DIMSTYLE
 70
     1
  0
DIMSTYLE
  2
STANDARD
 70
     0
  3

  4

  5

  6

  7

 40
1.0
 41
0.18
 42
0.0625
 43
0.38
 44
0.18
 45
0.0
 46
0.0
 47
0.0
 48
0.0
140
0.18
141
0.09
142
0.0
143
25.399999999999999
144
1.0
145
0.0
146
1.0
147
0.09
 71
     0
 72
     0
 73
     1
 74
     1
 75
     0
 76
     0
 77
     0
 78
     0
170
     0
171
     2
172
     0
173
     0
174
     0
175
     0
176
     0
177
     0
178
     0
  0
ENDTAB
  0
ENDSEC
  0
SECTION
  2
BLOCKS
  0
BLOCK
  8
0
  2
$MODEL_SPACE
 70
     0
 10
0.0
 20
0.0
 30
0.0
  3
$MODEL_SPACE
  1

  0
ENDBLK
  5
20
  8
0
  0
BLOCK
 67
     1
  8
0
  2
$PAPER_SPACE
 70
     0
 10
0.0
 20
0.0
 30
0.0
  3
$PAPER_SPACE
  1

  0
ENDBLK
  5
1C
 67
     1
  8
0
  0
BLOCK
  8
LAYER8$C$L8
  2
CADRA_ATTR_0
 70
     2
 10
0.0
 20
0.0
 30
0.0
  3
CADRA_ATTR_0
  1

  0
TEXT
  5
C8
  8
LAYER8$C$L8
 62
     3
 10
-168.86666630240001
 20
4.5
 30
0.0
 40
2.0
  1
TW-HW
 41
0.9125003342624989
 72
     5
 11
-159.13332940359999
 21
4.5
 31
0.0
  0
ATTDEF
  5
C9
  8
LAYER8$C$L8
 62
     3
 10
-164.0
 20
5.5
 30
0.0
 40
0.156
  1
ç%f!<%6!<  é
  3

  2
50
 70
    11
  0
ENDBLK
  5
CA
  8
LAYER8$C$L8
  0
BLOCK
  8
LAYER8$C$L8
  2
CADRA_ATTR_1
 70
     2
 10
0.0
 20
0.0
 30
0.0
  3
CADRA_ATTR_1
  1

  0
TEXT
  5
CD
  8
LAYER8$C$L8
 62
     3
 10
-176.86666630239989
 20
4.5
 30
0.0
 40
2.0
  1
A
 41
1.3000026740999919
 72
     5
 11
-175.13332940359999
 21
4.5
 31
0.0
  0
ATTDEF
  5
CE
  8
LAYER8$C$L8
 62
     3
 10
-176.0
 20
5.5
 30
0.0
 40
0.156
  1
ç%0%k!<%W  é
  3

  2
40
 70
    11
  0
ENDBLK
  5
CF
  8
LAYER8$C$L8
  0
BLOCK
  8
LAYER8$C$L8
  2
CADRA_ATTR_2
 70
     2
 10
0.0
 20
0.0
 30
0.0
  3
CADRA_ATTR_2
  1

  0
TEXT
  5
D2
  8
LAYER8$C$L8
 62
     3
 10
-66.302666215299993
 20
3.4200000763
 30
0.0
 40
4.1599998473999991
  1
*
 41
1.3000029426755879
 72
     5
 11
-62.697324853199987
 21
3.4200000763
 31
0.0
  0
ATTDEF
  5
D3
  8
LAYER8$C$L8
 62
     3
 10
-64.499995999999996
 20
5.5
 30
0.0
 40
0.156
  1
ç5l?^HVé
  3

  2
110
 70
    11
  0
ENDBLK
  5
D4
  8
LAYER8$C$L8
  0
BLOCK
  8
LAYER8$C$L8
  2
CADRA_ATTR_3
 70
     2
 10
0.0
 20
0.0
 30
0.0
  3
CADRA_ATTR_3
  1

  0
TEXT
  5
D7
  8
LAYER8$C$L8
 62
     3
 10
-99.676656388700025
 20
275.91641426090001
 30
0.0
 40
4.1671714783000002
  1
AXW4
 41
0.9622873867998087
 72
     5
 11
-83.636590179899997
 21
275.91641426090001
 31
0.0
  0
ATTDEF
  5
D8
  8
LAYER8$C$L8
 62
     3
 10
-91.656623999999994
 20
278.0
 30
0.0
 40
0.156
  1
çL>>N!&7A<0é
  3

  2
10
 70
    11
  0
ENDBLK
  5
D9
  8
LAYER8$C$L8
  0
BLOCK
  8
LAYER8$C$L8
  2
CADRA_ATTR_4
 70
     2
 10
0.0
 20
0.0
 30
0.0
  3
CADRA_ATTR_4
  1

  0
TEXT
  5
DC
  8
LAYER8$C$L8
 62
     3
 10
-103.4484557311
 20
284.20000028610002
 30
0.0
 40
3.5999994277999989
  1
TWÉVÉäÅ[ÉY âüÉ{ÉCìÉXÉCÉbÉ`
 41
0.642822772588567
 72
     5
 11
-50.2227386207
 21
284.20000028610002
 31
0.0
  0
ATTDEF
  5
DD
  8
LAYER8$C$L8
 62
     3
 10
-76.835598000000005
 20
286.0
 30
0.0
 40
0.156
  1
ç@=IJL>é
  3

  2
0
 70
    11
  0
ENDBLK
  5
DE
  8
LAYER8$C$L8
  0
BLOCK
  8
LAYER8$C$L8
  2
CADRA_ATTR_5
 70
     2
 10
0.0
 20
0.0
 30
0.0
  3
CADRA_ATTR_5
  1

  0
TEXT
  5
E1
  8
LAYER8$C$L8
 62
     3
 10
-66.511743726999995
 20
16.0
 30
0.0
 40
5.0
  1
MA4-A02078
 41
1.051512556877142
 72
     5
 11
-17.441157739400001
 21
16.0
 31
0.0
  0
ATTDEF
  5
E2
  8
LAYER8$C$L8
 62
     3
 10
-41.97645
 20
18.5
 30
0.0
 40
0.156
  1
ç?^HV  é
  3

  2
20
 70
    11
  0
ENDBLK
  5
E3
  8
LAYER8$C$L8
  0
BLOCK
  8
0
  2
*D19
 70
     1
 10
0.0
 20
0.0
 30
0.0
  3
*D19
  1

  0
LINE
  5
6EB
  8
DIMENSIONS
 62
     0
 10
-53.139990806599997
 20
93.899993896499979
 30
0.0
 11
-66.809999942800005
 21
93.899993896499979
 31
0.0
  0
LINE
  5
6EC
  8
DIMENSIONS
 62
     0
 10
-53.139990806599997
 20
54.100036621100003
 30
0.0
 11
-66.809999942800005
 21
54.100036621100003
 31
0.0
  0
LINE
  5
6ED
  8
DIMENSIONS
 62
     0
 10
-62.999999999999993
 20
91.927206049999995
 30
0.0
 11
-63.0
 21
78.890014972749995
 31
0.0
  0
LINE
  5
6EE
  8
DIMENSIONS
 62
     0
 10
-63.0
 20
56.072824467599993
 30
0.0
 11
-63.0
 21
69.110015544849986
 31
0.0
  0
SOLID
  5
6EF
  8
DIMENSIONS
 62
     0
 10
-63.328797974416659
 20
91.927206049999995
 30
0.0
 11
-62.671202025583327
 21
91.927206049999995
 31
0.0
 12
-62.999999999999993
 22
93.899993896499979
 32
0.0
 13
-62.999999999999993
 23
93.899993896499979
 33
0.0
  0
SOLID
  5
6F0
  8
DIMENSIONS
 62
     0
 10
-63.328797974416659
 20
56.072824467599993
 30
0.0
 11
-62.671202025583327
 21
56.072824467599993
 31
0.0
 12
-63.0
 22
54.100036621100003
 32
0.0
 13
-63.0
 23
54.100036621100003
 33
0.0
  0
TEXT
  5
6F1
  8
0
 62
     0
 10
-61.400000095350002
 20
69.200015544849975
 30
0.0
 40
3.1999998092999991
  1
39.8
 50
90.0
  0
POINT
  5
6F2
  8
DEFPOINTS
 62
     0
 10
-50.599990844700002
 20
93.899993896499979
 30
0.0
  0
POINT
  5
6F3
  8
DEFPOINTS
 62
     0
 10
-50.599990844700002
 20
54.100036621100003
 30
0.0
  0
POINT
  5
6F4
  8
DEFPOINTS
 62
     0
 10
-63.0
 20
54.100036621100003
 30
0.0
  0
ENDBLK
  5
102
  8
0
  0
BLOCK
  8
0
  2
*D20
 70
     1
 10
0.0
 20
0.0
 30
0.0
  3
*D20
  1

  0
LINE
  5
6C3
  8
DIMENSIONS
 62
     0
 10
-117.0
 20
127.96000003810001
 30
0.0
 11
-117.0
 21
104.1900610924
 31
0.0
  0
LINE
  5
6C4
  8
DIMENSIONS
 62
     0
 10
-69.999984741199995
 20
141.46000003809999
 30
0.0
 11
-69.999984741199995
 21
104.1900610924
 31
0.0
  0
LINE
  5
6C5
  8
DIMENSIONS
 62
     0
 10
-115.0272121535
 20
108.00006103520001
 30
0.0
 11
-98.123325433774994
 21
108.00006103520001
 31
0.0
  0
LINE
  5
6C6
  8
DIMENSIONS
 62
     0
 10
-71.972772587699993
 20
108.00006103520001
 30
0.0
 11
-88.876659307425001
 21
108.00006103520001
 31
0.0
  0
SOLID
  5
6C7
  8
DIMENSIONS
 62
     0
 10
-115.0272121535
 20
108.32885900961659
 30
0.0
 11
-115.0272121535
 21
107.6712630607833
 31
0.0
 12
-117.0
 22
108.00006103520001
 32
0.0
 13
-117.0
 23
108.00006103520001
 33
0.0
  0
SOLID
  5
6C8
  8
DIMENSIONS
 62
     0
 10
-71.972772587699993
 20
108.32885900961659
 30
0.0
 11
-71.972772587699993
 21
107.6712630607833
 31
0.0
 12
-69.999984741199995
 22
108.00006103520001
 32
0.0
 13
-69.999984741199995
 23
108.00006103520001
 33
0.0
  0
TEXT
  5
6C9
  8
0
 62
     0
 10
-98.033325433775005
 20
106.40006113055
 30
0.0
 40
3.1999998092999991
  1
47.0
  0
POINT
  5
6CA
  8
DEFPOINTS
 62
     0
 10
-117.0
 20
130.49999999999989
 30
0.0
  0
POINT
  5
6CB
  8
DEFPOINTS
 62
     0
 10
-69.999984741199995
 20
144.0
 30
0.0
  0
POINT
  5
6CC
  8
DEFPOINTS
 62
     0
 10
-69.999984741199995
 20
108.00006103520001
 30
0.0
  0
ENDBLK
  5
16A
  8
0
  0
BLOCK
  8
0
  2
*D21
 70
     1
 10
0.0
 20
0.0
 30
0.0
  3
*D21
  1

  0
LINE
  5
788
  8
DIMENSIONS
 62
     0
 10
-57.498351303140041
 20
53.501641049393967
 30
0.0
 11
-61.543650330339467
 21
49.45634051298488
 31
0.0
  0
LINE
  5
789
  8
DIMENSIONS
 62
     0
 10
-37.000015258799998
 20
49.149743080099988
 30
0.0
 11
-37.000015258799991
 21
39.290036678344869
 31
0.0
  0
ARC
  5
78A
  8
DIMENSIONS
 62
     0
 10
-37.000015258799991
 20
73.999984741199995
 30
0.0
 40
30.899948120055122
 50
228.65864542120721
 51
240.39243032600751
  0
ARC
  5
78B
  8
DIMENSIONS
 62
     0
 10
-37.000015258799991
 20
73.999984741199995
 30
0.0
 40
30.899948120055122
 50
254.60758036187079
 51
266.341365266671
  0
SOLID
  5
78C
  8
DIMENSIONS
 62
     0
 10
-57.635737497470522
 20
50.56088931196421
 30
0.0
 11
-57.185827526815288
 21
51.040486486921488
 31
0.0
 12
-58.849574037014783
 22
52.150417811408573
 32
0.0
 13
-58.849574037014783
 23
52.150417811408573
 33
0.0
  0
SOLID
  5
78D
  8
DIMENSIONS
 62
     0
 10
-38.961301737583398
 20
43.49164272863046
 30
0.0
 11
-38.982293638455303
 21
42.834381918890678
 31
0.0
 12
-37.000015258799991
 22
43.100036621144881
 32
0.0
 13
-37.000015258799991
 23
43.100036621144881
 33
0.0
  0
TEXT
  8
0
  40
3.2
  5
84C
  62
0
  72
0
  71
0
 10
-55.2249
 20
39.7882
 30
0.000000
  1
45%%d
  0
POINT
  5
78F
  8
DEFPOINTS
 62
     0
 10
-52.449985990960208
 20
47.239842772266222
 30
0.0
  0
POINT
  5
790
  8
DEFPOINTS
 62
     0
 10
-37.000015258799998
 20
51.689743041999989
 30
0.0
  0
POINT
  5
791
  8
DEFPOINTS
 62
     0
 10
-37.000015258799991
 20
73.999984741199995
 30
0.0
  0
POINT
  5
792
  8
DEFPOINTS
 62
     0
 10
-55.70230044089999
 20
55.297692581699991
 30
0.0
  0
POINT
  5
793
  8
DEFPOINTS
 62
     0
 10
-37.000015258799991
 20
73.999984741199995
 30
0.0
  0
ENDBLK
  5
179
  8
0
  0
BLOCK
  8
0
  2
*D22
 70
     1
 10
0.0
 20
0.0
 30
0.0
  3
*D22
  1

  0
LINE
  5
71F
  8
DIMENSIONS
 62
     0
 10
-93.565361976600016
 20
123.9999847411999
 30
0.0
 11
-43.095620387358608
 21
123.9999847411999
 31
0.0
  0
LINE
  5
720
  8
DIMENSIONS
 62
     0
 10
-93.565361976600016
 20
163.99995422360001
 30
0.0
 11
-43.095620387358601
 21
163.9999542235999
 31
0.0
  0
LINE
  5
721
  8
DIMENSIONS
 62
     0
 10
-46.905620330158612
 20
125.97277258769989
 30
0.0
 11
-46.905620330158612
 21
138.03710012464381
 31
0.0
  0
LINE
  5
722
  8
DIMENSIONS
 62
     0
 10
-46.905620330158598
 20
162.02716637709989
 30
0.0
 11
-46.905620330158598
 21
149.9504327587438
 31
0.0
  0
SOLID
  5
723
  8
DIMENSIONS
 62
     0
 10
-47.234418304575257
 20
125.97277258769989
 30
0.0
 11
-46.576822355741939
 21
125.97277258769989
 31
0.0
 12
-46.905620330158612
 22
123.9999847411999
 32
0.0
 13
-46.905620330158612
 23
123.9999847411999
 33
0.0
  0
SOLID
  5
724
  8
DIMENSIONS
 62
     0
 10
-47.234418304575257
 20
162.02716637709989
 30
0.0
 11
-46.576822355741932
 21
162.02716637709989
 31
0.0
 12
-46.905620330158598
 22
163.9999542235999
 32
0.0
 13
-46.905620330158598
 23
163.9999542235999
 33
0.0
  0
INSERT
  5
725
  8
0
  2
*U32
 10
0.0
 20
0.0
 30
0.0
  0
POINT
  5
726
  8
DEFPOINTS
 62
     0
 10
-96.105361938500025
 20
123.9999847412
 30
0.0
  0
POINT
  5
727
  8
DEFPOINTS
 62
     0
 10
-96.105361938500025
 20
163.99995422360001
 30
0.0
  0
POINT
  5
728
  8
DEFPOINTS
 62
     0
 10
-46.905620330158598
 20
163.9999542235999
 30
0.0
  0
ENDBLK
  5
1D0
  8
0
  0
BLOCK
  8
0
  2
*D24
 70
     1
 10
0.0
 20
0.0
 30
0.0
  3
*D24
  1

  0
LINE
  5
70B
  8
DIMENSIONS
 62
     0
 10
-29.160012245099988
 20
55.5
 30
0.0
 11
9.1888900419596649
 21
55.499999999999993
 31
0.0
  0
LINE
  5
70C
  8
DIMENSIONS
 62
     0
 10
-29.160012245099988
 20
92.499984741200009
 30
0.0
 11
9.1888900419596773
 21
92.499984741200009
 31
0.0
  0
LINE
  5
70D
  8
DIMENSIONS
 62
     0
 10
5.3788900991596691
 20
57.47278784649999
 30
0.0
 11
5.3788900991596709
 21
65.475868996369769
 31
0.0
  0
LINE
  5
70E
  8
DIMENSIONS
 62
     0
 10
5.3788900991596771
 20
90.527196894699998
 30
0.0
 11
5.3788900991596753
 21
81.122534741319754
 31
0.0
  0
SOLID
  5
70F
  8
DIMENSIONS
 62
     0
 10
5.050092124743002
 20
57.47278784649999
 30
0.0
 11
5.7076880735763371
 21
57.47278784649999
 31
0.0
 12
5.3788900991596691
 22
55.499999999999993
 32
0.0
 13
5.3788900991596691
 23
55.499999999999993
 33
0.0
  0
SOLID
  5
710
  8
DIMENSIONS
 62
     0
 10
5.0500921247430099
 20
90.527196894699998
 30
0.0
 11
5.7076880735763451
 21
90.527196894699998
 31
0.0
 12
5.3788900991596771
 22
92.499984741200009
 32
0.0
 13
5.3788900991596771
 23
92.499984741200009
 33
0.0
  0
TEXT
  5
711
  8
0
 62
     0
 10
6.9788900038096608
 20
65.565868996369744
 30
0.0
 40
3.1999998092999991
  1
37.037
 50
90.0
  0
POINT
  5
712
  8
DEFPOINTS
 62
     0
 10
-31.70001220699999
 20
55.5
 30
0.0
  0
POINT
  5
713
  8
DEFPOINTS
 62
     0
 10
-31.70001220699999
 20
92.499984741200009
 30
0.0
  0
POINT
  5
714
  8
DEFPOINTS
 62
     0
 10
5.3788900991596771
 20
92.499984741200009
 30
0.0
  0
ENDBLK
  5
28E
  8
0
  0
BLOCK
  8
0
  2
*D25
 70
     1
 10
0.0
 20
0.0
 30
0.0
  3
*D25
  1

  0
LINE
  5
715
  8
DIMENSIONS
 62
     0
 10
-51.800003051799997
 20
93.539999961899994
 30
0.0
 11
-51.800003051799997
 21
109.2120471713983
 31
0.0
  0
LINE
  5
716
  8
DIMENSIONS
 62
     0
 10
-22.20001220699999
 20
93.539984703100004
 30
0.0
 11
-22.20001220699999
 21
109.2120471713983
 31
0.0
  0
LINE
  5
717
  8
DIMENSIONS
 62
     0
 10
-49.827215205300007
 20
105.40204722859831
 30
0.0
 11
-45.160546407288592
 21
105.40204722859831
 31
0.0
  0
LINE
  5
718
  8
DIMENSIONS
 62
     0
 10
-24.172800053499991
 20
105.40204722859831
 30
0.0
 11
-29.5138806623386
 21
105.40204722859831
 31
0.0
  0
SOLID
  5
719
  8
DIMENSIONS
 62
     0
 10
-49.827215205300007
 20
105.73084520301499
 30
0.0
 11
-49.827215205300007
 21
105.0732492541816
 31
0.0
 12
-51.800003051799997
 22
105.40204722859831
 32
0.0
 13
-51.800003051799997
 23
105.40204722859831
 33
0.0
  0
SOLID
  5
71A
  8
DIMENSIONS
 62
     0
 10
-24.172800053499991
 20
105.73084520301499
 30
0.0
 11
-24.172800053499991
 21
105.0732492541816
 31
0.0
 12
-22.20001220699999
 22
105.40204722859831
 32
0.0
 13
-22.20001220699999
 23
105.40204722859831
 33
0.0
  0
TEXT
  5
71B
  8
0
 62
     0
 10
-45.070546407288603
 20
103.8020473239483
 30
0.0
 40
3.1999998092999991
  1
29.630
  0
POINT
  5
71C
  8
DEFPOINTS
 62
     0
 10
-51.800003051799997
 20
91.0
 30
0.0
  0
POINT
  5
71D
  8
DEFPOINTS
 62
     0
 10
-22.20001220699999
 20
90.999984741200009
 30
0.0
  0
POINT
  5
71E
  8
DEFPOINTS
 62
     0
 10
-22.20001220699999
 20
105.40204722859831
 30
0.0
  0
ENDBLK
  5
29A
  8
0
  0
BLOCK
  8
0
  2
*D26
 70
     1
 10
0.0
 20
0.0
 30
0.0
  3
*D26
  1

  0
LINE
  5
6B9
  8
DIMENSIONS
 62
     0
 10
-117.0
 20
127.96000003810001
 30
0.0
 11
-117.0
 21
109.1900610923999
 31
0.0
  0
LINE
  5
6BA
  8
DIMENSIONS
 62
     0
 10
-92.5
 20
132.52968692769991
 30
0.0
 11
-92.5
 21
109.1900610923999
 31
0.0
  0
LINE
  5
6BB
  8
DIMENSIONS
 62
     0
 10
-115.0272121535
 20
113.00006103520001
 30
0.0
 11
-109.6399997139499
 21
113.00006103520001
 31
0.0
  0
LINE
  5
6BC
  8
DIMENSIONS
 62
     0
 10
-94.472787846499997
 20
113.00006103520001
 30
0.0
 11
-99.860000286049996
 21
113.00006103520001
 31
0.0
  0
SOLID
  5
6BD
  8
DIMENSIONS
 62
     0
 10
-115.0272121535
 20
113.32885900961659
 30
0.0
 11
-115.0272121535
 21
112.6712630607833
 31
0.0
 12
-117.0
 22
113.00006103520001
 32
0.0
 13
-117.0
 23
113.00006103520001
 33
0.0
  0
SOLID
  5
6BE
  8
DIMENSIONS
 62
     0
 10
-94.472787846499997
 20
113.32885900961659
 30
0.0
 11
-94.472787846499997
 21
112.6712630607833
 31
0.0
 12
-92.5
 22
113.00006103520001
 32
0.0
 13
-92.5
 23
113.00006103520001
 33
0.0
  0
TEXT
  5
6BF
  8
0
 62
     0
 10
-109.54999971395
 20
111.40006113055
 30
0.0
 40
3.1999998092999991
  1
24.5
  0
POINT
  5
6C0
  8
DEFPOINTS
 62
     0
 10
-117.0
 20
130.49999999999989
 30
0.0
  0
POINT
  5
6C1
  8
DEFPOINTS
 62
     0
 10
-92.5
 20
135.06968688959989
 30
0.0
  0
POINT
  5
6C2
  8
DEFPOINTS
 62
     0
 10
-92.5
 20
113.00006103520001
 30
0.0
  0
ENDBLK
  5
47A
  8
0
  0
BLOCK
  8
0
  2
*D27
 70
     1
 10
0.0
 20
0.0
 30
0.0
  3
*D27
  1

  0
LINE
  5
701
  8
DIMENSIONS
 62
     0
 10
-165.5
 20
126.75998783109991
 30
0.0
 11
-165.5
 21
109.1900610923999
 31
0.0
  0
LINE
  5
702
  8
DIMENSIONS
 62
     0
 10
-166.29997253420001
 20
138.309975624
 30
0.0
 11
-166.29997253420001
 21
109.1900610923999
 31
0.0
  0
LINE
  5
703
  8
DIMENSIONS
 62
     0
 10
-163.5272121534999
 20
113.00006103520001
 30
0.0
 11
-161.55442430699989
 21
113.00006103520001
 31
0.0
  0
LINE
  5
704
  8
DIMENSIONS
 62
     0
 10
-168.27276038069999
 20
113.00006103520001
 30
0.0
 11
-170.2455482272
 21
113.00006103520001
 31
0.0
  0
SOLID
  5
705
  8
DIMENSIONS
 62
     0
 10
-163.5272121534999
 20
113.32885900961659
 30
0.0
 11
-163.5272121534999
 21
112.6712630607833
 31
0.0
 12
-165.5
 22
113.00006103520001
 32
0.0
 13
-165.5
 23
113.00006103520001
 33
0.0
  0
SOLID
  5
706
  8
DIMENSIONS
 62
     0
 10
-168.27276038069999
 20
113.32885900961659
 30
0.0
 11
-168.27276038069999
 21
112.6712630607833
 31
0.0
 12
-166.29997253420001
 22
113.00006103520001
 32
0.0
 13
-166.29997253420001
 23
113.00006103520001
 33
0.0
  0
TEXT
  5
707
  8
0
 62
     0
 10
-176.20221454425001
 20
111.40006113055
 30
0.0
 40
3.1999998092999991
  1
0.8
  0
POINT
  5
708
  8
DEFPOINTS
 62
     0
 10
-165.5
 20
129.2999877929999
 30
0.0
  0
POINT
  5
709
  8
DEFPOINTS
 62
     0
 10
-166.29997253420001
 20
140.84997558590001
 30
0.0
  0
POINT
  5
70A
  8
DEFPOINTS
 62
     0
 10
-166.29997253420001
 20
113.00006103520001
 30
0.0
  0
ENDBLK
  5
4F0
  8
0
  0
BLOCK
  8
0
  2
*D28
 70
     1
 10
0.0
 20
0.0
 30
0.0
  3
*D28
  1

  0
LINE
  5
6AF
  8
DIMENSIONS
 62
     0
 10
-104.0
 20
127.75998783109991
 30
0.0
 11
-104.0
 21
114.1900610923999
 31
0.0
  0
LINE
  5
6B0
  8
DIMENSIONS
 62
     0
 10
-117.0
 20
127.96000003810001
 30
0.0
 11
-117.0
 21
114.1900610923999
 31
0.0
  0
LINE
  5
6B1
  8
DIMENSIONS
 62
     0
 10
-105.9727878464999
 20
118.00006103519991
 30
0.0
 11
-115.0272121535
 21
118.00006103519991
 31
0.0
  0
LINE
  5
6B2
  8
DIMENSIONS
 62
     0
 10
-117.0
 20
118.00006103519991
 30
0.0
 11
-118.9727878465
 21
118.00006103519991
 31
0.0
  0
SOLID
  5
6B3
  8
DIMENSIONS
 62
     0
 10
-105.9727878464999
 20
118.32885900961659
 30
0.0
 11
-105.9727878464999
 21
117.6712630607833
 31
0.0
 12
-104.0
 22
118.00006103519991
 32
0.0
 13
-104.0
 23
118.00006103519991
 33
0.0
  0
SOLID
  5
6B4
  8
DIMENSIONS
 62
     0
 10
-115.0272121535
 20
118.32885900961659
 30
0.0
 11
-115.0272121535
 21
117.6712630607833
 31
0.0
 12
-117.0
 22
118.00006103519991
 32
0.0
 13
-117.0
 23
118.00006103519991
 33
0.0
  0
TEXT
  5
6B5
  8
0
 62
     0
 10
-132.39612038524999
 20
116.4000611305499
 30
0.0
 40
3.1999998092999991
  1
13.013
  0
POINT
  5
6B6
  8
DEFPOINTS
 62
     0
 10
-104.0
 20
130.2999877929999
 30
0.0
  0
POINT
  5
6B7
  8
DEFPOINTS
 62
     0
 10
-117.0
 20
130.49999999999989
 30
0.0
  0
POINT
  5
6B8
  8
DEFPOINTS
 62
     0
 10
-117.0
 20
118.00006103519991
 30
0.0
  0
ENDBLK
  5
4FC
  8
0
  0
BLOCK
  8
0
  2
*D29
 70
     1
 10
0.0
 20
0.0
 30
0.0
  3
*D29
  1

  0
LINE
  5
6A5
  8
DIMENSIONS
 62
     0
 10
-117.0
 20
127.96000003810001
 30
0.0
 11
-117.0
 21
104.1900610924
 31
0.0
  0
LINE
  5
6A6
  8
DIMENSIONS
 62
     0
 10
-169.0
 20
127.3599939346
 30
0.0
 11
-169.0
 21
104.1900610924
 31
0.0
  0
LINE
  5
6A7
  8
DIMENSIONS
 62
     0
 10
-118.9727878465
 20
108.00006103520001
 30
0.0
 11
-138.3766669368249
 21
108.00006103520001
 31
0.0
  0
LINE
  5
6A8
  8
DIMENSIONS
 62
     0
 10
-167.0272121534999
 20
108.00006103520001
 30
0.0
 11
-147.62333306317501
 21
108.00006103520001
 31
0.0
  0
SOLID
  5
6A9
  8
DIMENSIONS
 62
     0
 10
-118.9727878465
 20
108.32885900961659
 30
0.0
 11
-118.9727878465
 21
107.6712630607833
 31
0.0
 12
-117.0
 22
108.00006103520001
 32
0.0
 13
-117.0
 23
108.00006103520001
 33
0.0
  0
SOLID
  5
6AA
  8
DIMENSIONS
 62
     0
 10
-167.0272121534999
 20
108.32885900961659
 30
0.0
 11
-167.0272121534999
 21
107.6712630607833
 31
0.0
 12
-169.0
 22
108.00006103520001
 32
0.0
 13
-169.0
 23
108.00006103520001
 33
0.0
  0
TEXT
  5
6AB
  8
0
 62
     0
 10
-147.53333306317501
 20
106.40006113055
 30
0.0
 40
3.1999998092999991
  1
52.0
  0
POINT
  5
6AC
  8
DEFPOINTS
 62
     0
 10
-117.0
 20
130.49999999999989
 30
0.0
  0
POINT
  5
6AD
  8
DEFPOINTS
 62
     0
 10
-169.0
 20
129.89999389649989
 30
0.0
  0
POINT
  5
6AE
  8
DEFPOINTS
 62
     0
 10
-169.0
 20
108.00006103520001
 30
0.0
  0
ENDBLK
  5
508
  8
0
  0
BLOCK
  8
0
  2
*D30
 70
     1
 10
0.0
 20
0.0
 30
0.0
  3
*D30
  1

  0
LINE
  5
69B
  8
DIMENSIONS
 62
     0
 10
-165.4999847412
 20
126.7599725723
 30
0.0
 11
-165.4999847412
 21
109.1900610923999
 31
0.0
  0
LINE
  5
69C
  8
DIMENSIONS
 62
     0
 10
-117.0
 20
127.96000003810001
 30
0.0
 11
-117.0
 21
109.1900610923999
 31
0.0
  0
LINE
  5
69D
  8
DIMENSIONS
 62
     0
 10
-163.5271968946999
 20
113.00006103520001
 30
0.0
 11
-146.1399920845499
 21
113.00006103520001
 31
0.0
  0
LINE
  5
69E
  8
DIMENSIONS
 62
     0
 10
-118.9727878465
 20
113.00006103520001
 30
0.0
 11
-136.35999265664989
 21
113.00006103520001
 31
0.0
  0
SOLID
  5
69F
  8
DIMENSIONS
 62
     0
 10
-163.5271968946999
 20
113.32885900961659
 30
0.0
 11
-163.5271968946999
 21
112.6712630607833
 31
0.0
 12
-165.4999847412
 22
113.00006103520001
 32
0.0
 13
-165.4999847412
 23
113.00006103520001
 33
0.0
  0
SOLID
  5
6A0
  8
DIMENSIONS
 62
     0
 10
-118.9727878465
 20
113.32885900961659
 30
0.0
 11
-118.9727878465
 21
112.6712630607833
 31
0.0
 12
-117.0
 22
113.00006103520001
 32
0.0
 13
-117.0
 23
113.00006103520001
 33
0.0
  0
TEXT
  5
6A1
  8
0
 62
     0
 10
-146.0499920845499
 20
111.40006113055
 30
0.0
 40
3.1999998092999991
  1
48.5
  0
POINT
  5
6A2
  8
DEFPOINTS
 62
     0
 10
-165.4999847412
 20
129.29997253420001
 30
0.0
  0
POINT
  5
6A3
  8
DEFPOINTS
 62
     0
 10
-117.0
 20
130.49999999999989
 30
0.0
  0
POINT
  5
6A4
  8
DEFPOINTS
 62
     0
 10
-117.0
 20
113.00006103520001
 30
0.0
  0
ENDBLK
  5
514
  8
0
  0
BLOCK
  8
0
  2
*U32
 70
     1
 10
0.0
 20
0.0
 30
0.0
  3
*U32
  1

  0
TEXT
  5
843
  8
0
 62
     0
 10
-45.305620425508629
 20
138.12710012464379
 30
0.0
 40
3.1999998092999991
  1
\U+2205
 50
90.0
  0
TEXT
  5
844
  8
0
 62
     0
 10
-45.305620425508629
 20
141.3270999339438
 30
0.0
 40
3.1999998092999991
  1
40.0
 50
90.0
  0
ENDBLK
  5
846
  8
0
  0
BLOCK
  8
0
  2
*U33
 70
     1
 10
0.0
 20
0.0
 30
0.0
  3
*U33
  1

  0
TEXT
  5
848
  8
0
 10
-135.0716576338593
 20
185.5328393484601
 30
0.0
 40
3.1999998092999991
  1
AXW401 (w/covers)
  0
TEXT
  5
849
  8
0
 10
-135.0716576338593
 20
180.19950633296011
 30
0.0
 40
3.1999998092999991
  1
(dimensions in mm)
  0
ENDBLK
  5
84B
  8
0
  0
ENDSEC
  0
SECTION
  2
ENTITIES
  0
TEXT
  5
E4
  8
LAYER8$C$L8
 62
     3
 10
-161.45005798339989
 20
79.688196964399992
 30
0.0
 40
1.5
  1
UÇâ600V IÇîÇà10A
 50
270.0
 41
0.5474450447759033
 72
     5
 11
-161.45005798339989
 21
68.3287122853
 31
0.0
  0
POLYLINE
  5
E6
  8
LAYER1$C$L1
 62
     3
 66
     1
 10
0.0
 20
0.0
 30
0.0
  0
VERTEX
  5
733
  8
LAYER1$C$L1
 62
     3
 10
-72.423938718199992
 20
73.363577327000002
 30
0.0
  0
VERTEX
  5
734
  8
LAYER1$C$L1
 62
     3
 10
-72.722516393000006
 20
73.717269343799984
 30
0.0
  0
VERTEX
  5
735
  8
LAYER1$C$L1
 62
     3
 10
-73.138902595600001
 20
74.005338920500009
 30
0.0
  0
VERTEX
  5
736
  8
LAYER1$C$L1
 62
     3
 10
-73.645499734399991
 20
74.208693141799984
 30
0.0
  0
VERTEX
  5
737
  8
LAYER1$C$L1
 62
     3
 10
-74.208731142199994
 20
74.313853927300002
 30
0.0
  0
VERTEX
  5
738
  8
LAYER1$C$L1
 62
     3
 10
-74.791266498599995
 20
74.313851342799992
 30
0.0
  0
VERTEX
  5
739
  8
LAYER1$C$L1
 62
     3
 10
-75.354496040100003
 20
74.208685559700001
 30
0.0
  0
VERTEX
  5
73A
  8
LAYER1$C$L1
 62
     3
 10
-75.861089570000004
 20
74.005326843199995
 30
0.0
  0
VERTEX
  5
73B
  8
LAYER1$C$L1
 62
     3
 10
-76.277470660299997
 20
73.717253571800001
 30
0.0
  0
VERTEX
  5
73C
  8
LAYER1$C$L1
 62
     3
 10
-76.576042058200002
 20
73.363558905700003
 30
0.0
  0
SEQEND
  5
73D
  8
LAYER1$C$L1
 62
     3
  0
ARC
  5
F2
  8
LAYER1$C$L1
 62
     3
 10
-78.877227783199999
 20
89.710678100599992
 30
0.0
 40
22.675720214799998
 50
253.00749087829999
 51
286.99259973540001
  0
ARC
  5
F3
  8
LAYER1$C$L1
 62
     3
 10
-78.877227783199999
 20
58.288894653299998
 30
0.0
 40
22.676055908199999
 50
73.007673472199997
 51
106.99229055559999
  0
ARC
  5
F4
  8
LAYER1$C$L1
 62
     3
 10
-79.057632446300005
 20
73.999969482400004
 30
0.0
 40
9.0576400757000002
 50
0.0
 51
41.274590682700001
  0
ARC
  5
F5
  8
LAYER1$C$L1
 62
     3
 10
-79.057632446300005
 20
73.999969482400004
 30
0.0
 40
9.0576400757000002
 50
318.72526588340003
 51
0.0
  0
DIMENSION
  5
F6
  8
DIMENSIONS
  2
*D19
 10
-63.0
 20
54.100036621100003
 30
0.0
 11
-63.0
 21
74.000015258799976
 31
0.0
 70
     0
 13
-50.599990844700002
 23
93.899993896499979
 33
0.0
 14
-50.599990844700002
 24
54.100036621100003
 34
0.0
 50
270.0
1001
ACAD
1000
DSTYLE
1002
{
1070
    41
1040
1.9727878464999999
1070
    42
1040
2.5399999618999991
1070
    44
1040
3.8099999427999989
1070
    73
1070
     0
1070
   140
1040
3.1999998092999991
1070
   271
1070
     1
1070
   272
1070
     1
1002
}
  0
POLYLINE
  5
103
  8
LAYER1$C$L1
 62
     3
 66
     1
 10
0.0
 20
0.0
 30
0.0
  0
VERTEX
  5
73E
  8
LAYER1$C$L1
 62
     3
 10
-158.54971313479999
 20
131.35011291500001
 30
0.0
  0
VERTEX
  5
73F
  8
LAYER1$C$L1
 62
     3
 10
-158.36903771429999
 20
131.37938098629991
 30
0.0
  0
VERTEX
  5
740
  8
LAYER1$C$L1
 62
     3
 10
-158.19138402019999
 20
131.46669570290001
 30
0.0
  0
VERTEX
  5
741
  8
LAYER1$C$L1
 62
     3
 10
-158.01972324159991
 20
131.61059676019991
 30
0.0
  0
VERTEX
  5
742
  8
LAYER1$C$L1
 62
     3
 10
-157.85692633830001
 20
131.80867746870001
 30
0.0
  0
VERTEX
  5
743
  8
LAYER1$C$L1
 62
     3
 10
-157.70571602559991
 20
132.05762500540001
 30
0.0
  0
VERTEX
  5
744
  8
LAYER1$C$L1
 62
     3
 10
-157.56862123709999
 20
132.35327581929991
 30
0.0
  0
VERTEX
  5
745
  8
LAYER1$C$L1
 62
     3
 10
-157.44793483009991
 20
132.69068526519999
 30
0.0
  0
VERTEX
  5
746
  8
LAYER1$C$L1
 62
     3
 10
-157.3456752379
 20
133.06421030109999
 30
0.0
  0
VERTEX
  5
747
  8
LAYER1$C$L1
 62
     3
 10
-157.2635527125999
 20
133.4676038655
 30
0.0
  0
VERTEX
  5
748
  8
LAYER1$C$L1
 62
     3
 10
-157.2029407215
 20
133.8941193574999
 30
0.0
  0
VERTEX
  5
749
  8
LAYER1$C$L1
 62
     3
 10
-157.1648529766
 20
134.33662347099991
 30
0.0
  0
VERTEX
  5
74A
  8
LAYER1$C$L1
 62
     3
 10
-157.14992648079991
 20
134.78771549629991
 30
0.0
  0
VERTEX
  5
74B
  8
LAYER1$C$L1
 62
     3
 10
-157.15841087379999
 20
135.23985109430001
 30
0.0
  0
VERTEX
  5
74C
  8
LAYER1$C$L1
 62
     3
 10
-157.19016425759989
 20
135.6854684722999
 30
0.0
  0
VERTEX
  5
74D
  8
LAYER1$C$L1
 62
     3
 10
-157.244655569
 20
136.11711485270001
 30
0.0
  0
VERTEX
  5
74E
  8
LAYER1$C$L1
 62
     3
 10
-157.32097346200001
 20
136.52757111700001
 30
0.0
  0
VERTEX
  5
74F
  8
LAYER1$C$L1
 62
     3
 10
-157.4178415495
 20
136.9099725435
 30
0.0
  0
VERTEX
  5
750
  8
LAYER1$C$L1
 62
     3
 10
-157.53363975030001
 20
137.25792361669991
 30
0.0
  0
VERTEX
  5
751
  8
LAYER1$C$L1
 62
     3
 10
-157.66643138430001
 20
137.56560498970001
 30
0.0
  0
VERTEX
  5
752
  8
LAYER1$C$L1
 62
     3
 10
-157.81399556299999
 20
137.827870811
 30
0.0
  0
VERTEX
  5
753
  8
LAYER1$C$L1
 62
     3
 10
-157.97386433279999
 20
138.0403347864999
 30
0.0
  0
VERTEX
  5
754
  8
LAYER1$C$L1
 62
     3
 10
-158.14336395039999
 20
138.1994435384
 30
0.0
  0
VERTEX
  5
755
  8
LAYER1$C$L1
 62
     3
 10
-158.3196596004999
 20
138.3025360346999
 30
0.0
  0
VERTEX
  5
756
  8
LAYER1$C$L1
 62
     3
 10
-158.49980280680001
 20
138.34788809339989
 30
0.0
  0
SEQEND
  5
757
  8
LAYER1$C$L1
 62
     3
  0
POLYLINE
  5
11E
  8
LAYER1$C$L1
 62
     3
 66
     1
 10
0.0
 20
0.0
 30
0.0
  0
VERTEX
  5
758
  8
LAYER1$C$L1
 62
     3
 10
-161.0838487730999
 20
132.36079246669991
 30
0.0
  0
VERTEX
  5
759
  8
LAYER1$C$L1
 62
     3
 10
-160.9558484522
 20
132.08082695940001
 30
0.0
  0
VERTEX
  5
75A
  8
LAYER1$C$L1
 62
     3
 10
-160.8152135695
 20
131.8417298036
 30
0.0
  0
VERTEX
  5
75B
  8
LAYER1$C$L1
 62
     3
 10
-160.66401957549999
 20
131.64702952889991
 30
0.0
  0
VERTEX
  5
75C
  8
LAYER1$C$L1
 62
     3
 10
-160.50449774910001
 20
131.49959946749991
 30
0.0
  0
VERTEX
  5
75D
  8
LAYER1$C$L1
 62
     3
 10
-160.33900226899999
 20
131.40161535129991
 30
0.0
  0
VERTEX
  5
75E
  8
LAYER1$C$L1
 62
     3
 10
-160.1699754714999
 20
131.35452320280001
 30
0.0
  0
VERTEX
  5
75F
  8
LAYER1$C$L1
 62
     3
 10
-159.99991180699999
 20
131.3590179945999
 30
0.0
  0
VERTEX
  5
760
  8
LAYER1$C$L1
 62
     3
 10
-159.83132102779999
 20
131.4150333938999
 30
0.0
  0
VERTEX
  5
761
  8
LAYER1$C$L1
 62
     3
 10
-159.6666911495999
 20
131.52174274099991
 30
0.0
  0
VERTEX
  5
762
  8
LAYER1$C$L1
 62
     3
 10
-159.5084517345
 20
131.67757124920001
 30
0.0
  0
VERTEX
  5
763
  8
LAYER1$C$L1
 62
     3
 10
-159.3589380356
 20
131.88021924450001
 30
0.0
  0
VERTEX
  5
764
  8
LAYER1$C$L1
 62
     3
 10
-159.2203565346
 20
132.12669610419999
 30
0.0
  0
SEQEND
  5
765
  8
LAYER1$C$L1
 62
     3
  0
POLYLINE
  5
12D
  8
LAYER1$C$L1
 62
     3
 66
     1
 10
0.0
 20
0.0
 30
0.0
  0
VERTEX
  5
766
  8
LAYER1$C$L1
 62
     3
 10
-159.28365001739991
 20
137.6939991214999
 30
0.0
  0
VERTEX
  5
767
  8
LAYER1$C$L1
 62
     3
 10
-159.43652646399991
 20
137.93249790580001
 30
0.0
  0
VERTEX
  5
768
  8
LAYER1$C$L1
 62
     3
 10
-159.60039036680001
 20
138.1199289953
 30
0.0
  0
VERTEX
  5
769
  8
LAYER1$C$L1
 62
     3
 10
-159.77252689580001
 20
138.25318710849999
 30
0.0
  0
VERTEX
  5
76A
  8
LAYER1$C$L1
 62
     3
 10
-159.95008416319999
 20
138.33006447930001
 30
0.0
  0
VERTEX
  5
76B
  8
LAYER1$C$L1
 62
     3
 10
-160.1301204728
 20
138.34928743489999
 30
0.0
  0
VERTEX
  5
76C
  8
LAYER1$C$L1
 62
     3
 10
-160.30965305660001
 20
138.3105374973
 30
0.0
  0
VERTEX
  5
76D
  8
LAYER1$C$L1
 62
     3
 10
-160.48570749219991
 20
138.21445665940001
 30
0.0
  0
VERTEX
  5
76E
  8
LAYER1$C$L1
 62
     3
 10
-160.65536698159991
 20
138.0626367495
 30
0.0
  0
VERTEX
  5
76F
  8
LAYER1$C$L1
 62
     3
 10
-160.81582067569991
 20
137.85759305760001
 30
0.0
  0
VERTEX
  5
770
  8
LAYER1$C$L1
 62
     3
 10
-160.96441024329991
 20
137.60272266399991
 30
0.0
  0
VERTEX
  5
771
  8
LAYER1$C$L1
 62
     3
 10
-161.0986739132
 20
137.30224815700001
 30
0.0
  0
VERTEX
  5
772
  8
LAYER1$C$L1
 62
     3
 10
-161.2163872596999
 20
136.9611476755999
 30
0.0
  0
VERTEX
  5
773
  8
LAYER1$C$L1
 62
     3
 10
-161.3156000562999
 20
136.5850724330999
 30
0.0
  0
VERTEX
  5
774
  8
LAYER1$C$L1
 62
     3
 10
-161.39466858590001
 20
136.18025309039999
 30
0.0
  0
VERTEX
  5
775
  8
LAYER1$C$L1
 62
     3
 10
-161.45228287340001
 20
135.75339652889991
 30
0.0
  0
VERTEX
  5
776
  8
LAYER1$C$L1
 62
     3
 10
-161.4874883889
 20
135.31157473370001
 30
0.0
  0
VERTEX
  5
777
  8
LAYER1$C$L1
 62
     3
 10
-161.4997018617
 20
134.86210762760001
 30
0.0
  0
VERTEX
  5
778
  8
LAYER1$C$L1
 62
     3
 10
-161.48872094399991
 20
134.41244179809991
 30
0.0
  0
VERTEX
  5
779
  8
LAYER1$C$L1
 62
     3
 10
-161.45472756320001
 20
133.97002712479991
 30
0.0
  0
VERTEX
  5
77A
  8
LAYER1$C$L1
 62
     3
 10
-161.39828490779999
 20
133.5421933531
 30
0.0
  0
VERTEX
  5
77B
  8
LAYER1$C$L1
 62
     3
 10
-161.32032809649991
 20
133.1360286581
 30
0.0
  0
SEQEND
  5
77C
  8
LAYER1$C$L1
 62
     3
  0
ARC
  5
145
  8
LAYER1$C$L1
 62
     3
 10
-80.371902465800005
 20
144.4949798584
 30
0.0
 40
10.38371467589999
 50
357.26782614799998
 51
38.542463788199989
  0
ARC
  5
146
  8
LAYER1$C$L1
 62
     3
 10
-78.877227783199999
 20
134.34939575199999
 30
0.0
 40
17.888397216800001
 50
68.25604747040002
 51
111.7439165574
  0
ARC
  5
147
  8
LAYER1$C$L1
 62
     3
 10
-78.877227783199999
 20
128.28929138180001
 30
0.0
 40
22.675720214799998
 50
73.007400264599994
 51
106.9925091216999
  0
ARC
  5
148
  8
LAYER1$C$L1
 62
     3
 10
-78.877227783199999
 20
159.7110748291
 30
0.0
 40
22.676055908199999
 50
253.00770944439989
 51
286.9923265278
  0
ARC
  5
149
  8
LAYER1$C$L1
 62
     3
 10
-79.057632446300005
 20
144.0
 30
0.0
 40
9.0576400757000002
 50
318.72540931729992
 51
0.0
  0
ARC
  5
14A
  8
LAYER1$C$L1
 62
     3
 10
-79.057632446300005
 20
144.0
 30
0.0
 40
9.0576400757000002
 50
0.0
 51
41.274734116600001
  0
ARC
  5
14B
  8
LAYER1$C$L1
 62
     3
 10
-96.105346679700006
 20
126.0000152588
 30
0.0
 40
2.0
 50
269.99974477849992
 51
346.65799043760001
  0
POLYLINE
  5
14C
  8
LAYER1$C$L1
 62
     3
 66
     1
 10
0.0
 20
0.0
 30
0.0
  0
VERTEX
  5
77D
  8
LAYER1$C$L1
 62
     3
 10
-89.999987566499996
 20
148.25999450680001
 30
0.0
  0
VERTEX
  5
77E
  8
LAYER1$C$L1
 62
     3
 10
-89.293556714699974
 20
148.29967080450001
 30
0.0
  0
VERTEX
  5
77F
  8
LAYER1$C$L1
 62
     3
 10
-88.604643799300007
 20
148.41771643929991
 30
0.0
  0
VERTEX
  5
780
  8
LAYER1$C$L1
 62
     3
 10
-87.950332418600027
 20
148.6112041264
 30
0.0
  0
VERTEX
  5
781
  8
LAYER1$C$L1
 62
     3
 10
-87.346848125199983
 20
148.87533577630001
 30
0.0
  0
VERTEX
  5
782
  8
LAYER1$C$L1
 62
     3
 10
-86.809156066399993
 20
149.20356147690001
 30
0.0
  0
VERTEX
  5
783
  8
LAYER1$C$L1
 62
     3
 10
-86.350589879799998
 20
149.58774191779989
 30
0.0
  0
VERTEX
  5
784
  8
LAYER1$C$L1
 62
     3
 10
-85.982521046900004
 20
150.01835022829991
 30
0.0
  0
VERTEX
  5
785
  8
LAYER1$C$L1
 62
     3
 10
-85.714076904500004
 20
150.48470822370001
 30
0.0
  0
VERTEX
  5
786
  8
LAYER1$C$L1
 62
     3
 10
-85.5519143052
 20
150.97525120180001
 30
0.0
  0
SEQEND
  5
787
  8
LAYER1$C$L1
 62
     3
  0
ARC
  5
158
  8
LAYER1$C$L1
 62
     3
 10
-78.877227783199999
 20
83.650573730499985
 30
0.0
 40
17.888397216800001
 50
248.2560834425999
 51
291.74395252959999
  0
LINE
  5
159
  8
LAYER1$C$L1
 62
     3
 10
-159.7702236936
 20
85.959047952900008
 30
0.0
 11
-159.32472042889989
 21
85.732052723199999
 31
0.0
  0
LINE
  5
15A
  8
LAYER1$C$L1
 62
     3
 10
-30.9752332831
 20
81.792537624000005
 30
0.0
 11
-29.207466658400001
 21
80.024770254200007
 31
0.0
  0
ARC
  5
15B
  8
LAYER4$C$L4
  6
PHANTOM
 62
     3
 10
-50.600006103500007
 20
93.400024414100002
 30
0.0
 40
0.5
 50
90.000145938500026
 51
180.00007331079999
  0
LINE
  5
15C
  8
LAYER1$C$L1
 62
     3
 10
-44.792594618999992
 20
67.975160532499984
 30
0.0
 11
-43.024838783900002
 21
66.207403952299998
 31
0.0
  0
ARC
  5
15D
  8
LAYER1$C$L1
 62
     3
 10
-23.20001220699999
 20
90.999984741200009
 30
0.0
 40
1.0
 50
0.000072627560058
 51
89.999982013899995
  0
LINE
  5
15E
  8
LAYER3$C$L3
  6
CENTERLINE
 62
     3
 10
-55.702300440899997
 20
55.297692581699991
 30
0.0
 11
-24.037103198099999
 21
86.962892493600009
 31
0.0
  0
DIMENSION
  5
15F
  8
DIMENSIONS
  2
*D20
 10
-69.999984741199995
 20
108.00006103520001
 30
0.0
 11
-93.499992370599998
 21
108.00006103520001
 31
0.0
 70
     0
 13
-117.0
 23
130.49999999999989
 33
0.0
 14
-69.999984741199995
 24
144.0
 34
0.0
1001
ACAD
1000
DSTYLE
1002
{
1070
    41
1040
1.9727878464999999
1070
    42
1040
2.5399999618999991
1070
    44
1040
3.8099999427999989
1070
    73
1070
     0
1070
   140
1040
3.1999998092999991
1070
   271
1070
     1
1070
   272
1070
     1
1002
}
  0
DIMENSION
  5
16C
  8
DIMENSIONS
  2
*D21
 10
-37.000015258799991
 20
73.999984741199995
 30
0.0
 11
-48.824910802648802
 21
45.452154014520211
 31
0.0
 70
     2
 13
-37.000015258799991
 23
73.999984741199995
 33
0.0
 14
-55.702300440899997
 24
55.297692581699991
 34
0.0
 15
-37.000015258799991
 25
51.689743041999989
 35
0.0
 16
-52.449985990960208
 26
47.239842772266222
 36
0.0
1001
ACAD
1000
DSTYLE
1002
{
1070
   271
1070
     0
1070
    41
1040
1.9727878464999999
1070
    42
1040
2.5399999618999991
1070
    44
1040
3.8099999427999989
1070
    73
1070
     0
1070
   140
1040
3.1999998092999991
1070
   271
1070
     1
1070
   272
1070
     1
1002
}
  0
ARC
  5
17C
  8
LAYER4$C$L4
  6
PHANTOM
 62
     3
 10
-37.500015258799998
 20
93.400024414100002
 30
0.0
 40
0.5
 50
0.0
 51
89.999982013899995
  0
LINE
  5
17D
  8
LAYER1$C$L1
 62
     3
 10
-158.25555609989991
 20
85.187286339300016
 30
0.0
 11
-157.1205799512999
 21
87.414802662699998
 31
0.0
  0
POLYLINE
  5
17E
  8
LAYER1$C$L1
 62
     3
 66
     1
 10
0.0
 20
0.0
 30
0.0
 70
     1
  0
VERTEX
  5
794
  8
LAYER1$C$L1
 62
     3
 10
-76.762725830099996
 20
73.999954223599985
 30
0.0
  0
VERTEX
  5
795
  8
LAYER1$C$L1
 62
     3
 10
-76.701733351200005
 20
73.6309674229
 30
0.0
  0
VERTEX
  5
796
  8
LAYER1$C$L1
 62
     3
 10
-76.522044034799976
 20
73.281872796100004
 30
0.0
  0
VERTEX
  5
797
  8
LAYER1$C$L1
 62
     3
 10
-76.233344978600002
 20
72.971490124900001
 30
0.0
  0
VERTEX
  5
798
  8
LAYER1$C$L1
 62
     3
 10
-75.851200023199993
 20
72.716552219500002
 30
0.0
  0
VERTEX
  5
799
  8
LAYER1$C$L1
 62
     3
 10
-75.396210702299996
 20
72.530802848299999
 30
0.0
  0
VERTEX
  5
79A
  8
LAYER1$C$L1
 62
     3
 10
-74.892905607800003
 20
72.424255807999984
 30
0.0
  0
VERTEX
  5
79B
  8
LAYER1$C$L1
 62
     3
 10
-74.368418047700004
 20
72.402655077200009
 30
0.0
  0
VERTEX
  5
79C
  8
LAYER1$C$L1
 62
     3
 10
-73.851023282100002
 20
72.467165156800007
 30
0.0
  0
VERTEX
  5
79D
  8
LAYER1$C$L1
 62
     3
 10
-73.36861419680001
 20
72.6143082918
 30
0.0
  0
VERTEX
  5
79E
  8
LAYER1$C$L1
 62
     3
 10
-72.947197590299993
 20
72.836151957600009
 30
0.0
  0
VERTEX
  5
79F
  8
LAYER1$C$L1
 62
     3
 10
-72.609492141099992
 20
73.120736504799993
 30
0.0
  0
VERTEX
  5
7A0
  8
LAYER1$C$L1
 62
     3
 10
-72.373703637299997
 20
73.452719906799999
 30
0.0
  0
VERTEX
  5
7A1
  8
LAYER1$C$L1
 62
     3
 10
-72.25254349810001
 20
73.814204852499998
 30
0.0
  0
VERTEX
  5
7A2
  8
LAYER1$C$L1
 62
     3
 10
-72.25254349810001
 20
74.185703594799989
 30
0.0
  0
VERTEX
  5
7A3
  8
LAYER1$C$L1
 62
     3
 10
-72.373703637299997
 20
74.547188540500002
 30
0.0
  0
VERTEX
  5
7A4
  8
LAYER1$C$L1
 62
     3
 10
-72.609492141099992
 20
74.879171942499994
 30
0.0
  0
VERTEX
  5
7A5
  8
LAYER1$C$L1
 62
     3
 10
-72.947197590299993
 20
75.163756489700006
 30
0.0
  0
VERTEX
  5
7A6
  8
LAYER1$C$L1
 62
     3
 10
-73.36861419680001
 20
75.385600155500001
 30
0.0
  0
VERTEX
  5
7A7
  8
LAYER1$C$L1
 62
     3
 10
-73.851023282100002
 20
75.532743290400006
 30
0.0
  0
VERTEX
  5
7A8
  8
LAYER1$C$L1
 62
     3
 10
-74.368418047700004
 20
75.597253370100006
 30
0.0
  0
VERTEX
  5
7A9
  8
LAYER1$C$L1
 62
     3
 10
-74.892905607800003
 20
75.575652639200001
 30
0.0
  0
VERTEX
  5
7AA
  8
LAYER1$C$L1
 62
     3
 10
-75.396210702299996
 20
75.469105599000002
 30
0.0
  0
VERTEX
  5
7AB
  8
LAYER1$C$L1
 62
     3
 10
-75.851200023199993
 20
75.283356227799999
 30
0.0
  0
VERTEX
  5
7AC
  8
LAYER1$C$L1
 62
     3
 10
-76.233344978600002
 20
75.0284183224
 30
0.0
  0
VERTEX
  5
7AD
  8
LAYER1$C$L1
 62
     3
 10
-76.522044034799976
 20
74.718035651199997
 30
0.0
  0
VERTEX
  5
7AE
  8
LAYER1$C$L1
 62
     3
 10
-76.701733351200005
 20
74.368941024400002
 30
0.0
  0
SEQEND
  5
7AF
  8
LAYER1$C$L1
 62
     3
  0
POLYLINE
  5
19B
  8
LAYER1$C$L1
 62
     3
 66
     1
 10
0.0
 20
0.0
 30
0.0
  0
VERTEX
  5
7B0
  8
LAYER1$C$L1
 62
     3
 10
-89.999984741200009
 20
76.987136840800005
 30
0.0
  0
VERTEX
  5
7B1
  8
LAYER1$C$L1
 62
     3
 10
-89.251158463299987
 20
77.0317532798
 30
0.0
  0
VERTEX
  5
7B2
  8
LAYER1$C$L1
 62
     3
 10
-88.523213431399995
 20
77.164358453800006
 30
0.0
  0
VERTEX
  5
7B3
  8
LAYER1$C$L1
 62
     3
 10
-87.836448611999998
 20
77.381254627700002
 30
0.0
  0
VERTEX
  5
7B4
  8
LAYER1$C$L1
 62
     3
 10
-87.210014648599994
 20
77.67639358640001
 30
0.0
  0
VERTEX
  5
7B5
  8
LAYER1$C$L1
 62
     3
 10
-86.661379840799995
 20
78.041545291199995
 30
0.0
  0
VERTEX
  5
7B6
  8
LAYER1$C$L1
 62
     3
 10
-86.205843035400008
 20
78.466527376999991
 30
0.0
  0
VERTEX
  5
7B7
  8
LAYER1$C$L1
 62
     3
 10
-85.856107013300004
 20
78.939489090400002
 30
0.0
  0
VERTEX
  5
7B8
  8
LAYER1$C$L1
 62
     3
 10
-85.621924268599983
 20
79.447241751600004
 30
0.0
  0
VERTEX
  5
7B9
  8
LAYER1$C$L1
 62
     3
 10
-85.509825057699985
 20
79.975626524999996
 30
0.0
  0
SEQEND
  5
7BA
  8
LAYER1$C$L1
 62
     3
  0
ARC
  5
1A7
  8
LAYER1$C$L1
 62
     3
 10
-80.371902465800005
 20
73.50498962399999
 30
0.0
 40
10.38371467589999
 50
321.45753621179989
 51
2.7321738519999879
  0
LINE
  5
1A8
  8
LAYER1$C$L1
 62
     3
 10
-92.5
 20
77.005142211899994
 30
0.0
 11
-89.999984741200009
 21
77.005142211899994
 31
0.0
  0
LINE
  5
1A9
  8
LAYER1$C$L1
 62
     3
 10
-92.5
 20
70.994735717799983
 30
0.0
 11
-89.999984741200009
 21
70.994735717799983
 31
0.0
  0
LINE
  5
1AA
  8
LAYER1$C$L1
 62
     3
 10
-98.500000000000014
 20
62.199996948200003
 30
0.0
 11
-104.0
 21
62.199996948200003
 31
0.0
  0
LINE
  5
1AB
  8
LAYER1$C$L1
 62
     3
 10
-98.500000000000014
 20
85.799987793
 30
0.0
 11
-104.0
 21
85.799987793
 31
0.0
  0
LINE
  5
1AC
  8
LAYER1$C$L1
 62
     3
 10
-94.540344238299994
 20
57.000015258799998
 30
0.0
 11
-94.540344238299994
 21
90.999954223600014
 31
0.0
  0
LINE
  5
1AD
  8
LAYER1$C$L1
 62
     3
 10
-98.500000000000014
 20
93.999984741200024
 30
0.0
 11
-98.500000000000014
 21
53.999984741200002
 31
0.0
  0
LINE
  5
1AE
  8
LAYER1$C$L1
 62
     3
 10
-98.500015258799991
 20
54.000015258799998
 30
0.0
 11
-96.105361938500025
 21
54.000015258799998
 31
0.0
  0
LINE
  5
1AF
  8
LAYER4$C$L4
  6
PHANTOM
 62
     3
 10
-166.21283111919999
 20
132.06299906629991
 30
0.0
 11
-165.4146258447999
 21
132.43520824110001
 31
0.0
  0
LINE
  5
1B0
  8
LAYER4$C$L4
  6
PHANTOM
 62
     3
 10
-166.21281433109999
 20
136.7371520996
 30
0.0
 11
-166.21281433109999
 21
143.99996948239991
 31
0.0
  0
LINE
  5
1B1
  8
LAYER4$C$L4
  6
PHANTOM
 62
     3
 10
-168.0
 20
142.90000915530001
 30
0.0
 11
-169.0
 21
142.90000915530001
 31
0.0
  0
LINE
  5
1B2
  8
LAYER4$C$L4
  6
PHANTOM
 62
     3
 10
-166.21281433109999
 20
129.9001159668
 30
0.0
 11
-166.21281433109999
 21
132.06295776370001
 31
0.0
  0
LINE
  5
1B3
  8
LAYER4$C$L4
  6
PHANTOM
 62
     3
 10
-165.60000610349991
 20
132.34884643549989
 30
0.0
 11
-165.60000610349991
 21
136.4515075683999
 31
0.0
  0
LINE
  5
1B4
  8
LAYER4$C$L4
  6
PHANTOM
 62
     3
 10
-165.40000915530001
 20
132.44210815429989
 30
0.0
 11
-165.40000915530001
 21
136.35824584959991
 31
0.0
  0
ARC
  5
1B5
  8
LAYER1$C$L1
 62
     3
 10
-130.9999847412
 20
155.49999999999989
 30
0.0
 40
0.5
 50
179.9999093863
 51
269.9999460416999
  0
ARC
  5
1B6
  8
LAYER1$C$L1
 62
     3
 10
-131.9999847412
 20
158.2999877929999
 30
0.0
 40
0.5
 50
0.0
 51
89.999927372399995
  0
ARC
  5
1B7
  8
LAYER1$C$L1
 62
     3
 10
-125.3000030518
 20
144.0
 30
0.0
 40
1.0
 50
89.999927372399995
 51
179.9999093863
  0
ARC
  5
1B8
  8
LAYER1$C$L1
 62
     3
 10
-96.105346679700006
 20
91.9999542236
 30
0.0
 40
2.0
 50
13.342009562399999
 51
90.000255221499984
  0
ARC
  5
1B9
  8
LAYER4$C$L4
  6
PHANTOM
 62
     3
 10
-163.21279907229999
 20
62.499984741200002
 30
0.0
 40
1.0
 50
26.99991878909999
 51
89.999708806300006
  0
ARC
  5
1BA
  8
LAYER4$C$L4
  6
PHANTOM
 62
     3
 10
-163.21269226070001
 20
85.499969482400004
 30
0.0
 40
1.0
 50
270.00023655209992
 51
333.00011877700001
  0
ARC
  5
1BB
  8
LAYER1$C$L1
 62
     3
 10
-172.0
 20
73.999984741199995
 30
0.0
 40
80.0
 50
6.4092036302999986
 51
13.342340826599999
  0
ARC
  5
1BC
  8
LAYER1$C$L1
 62
     3
 10
-172.0
 20
73.999984741199995
 30
0.0
 40
80.0
 50
346.65765917339991
 51
353.59079636969989
  0
LINE
  5
1BD
  8
LAYER1$C$L1
 62
     3
 10
-92.5
 20
65.069702148399983
 30
0.0
 11
-92.5
 21
82.930282592799983
 31
0.0
  0
ARC
  5
1BE
  8
LAYER1$C$L1
 62
     3
 10
-96.105346679700006
 20
56.000015258799991
 30
0.0
 40
2.0
 50
269.99974477849992
 51
346.65799043760001
  0
LINE
  5
1BF
  8
LAYER4$C$L4
  6
PHANTOM
 62
     3
 10
-167.94515991209991
 20
139.70005798339989
 30
0.0
 11
-169.0
 21
139.70005798339989
 31
0.0
  0
LINE
  5
1C0
  8
LAYER4$C$L4
  6
PHANTOM
 62
     3
 10
-155.59999084469999
 20
140.17636108399989
 30
0.0
 11
-155.59999084469999
 21
142.52975463870001
 31
0.0
  0
LINE
  5
1C1
  8
LAYER4$C$L4
  6
PHANTOM
 62
     3
 10
-155.0999908446999
 20
142.90000915530001
 30
0.0
 11
-159.59996032709989
 21
142.90000915530001
 31
0.0
  0
LINE
  5
1C2
  8
LAYER4$C$L4
  6
PHANTOM
 62
     3
 10
-155.0999908446999
 20
139.70004272459991
 30
0.0
 11
-155.0999908446999
 21
142.89999389650001
 31
0.0
  0
LINE
  5
1C3
  8
LAYER4$C$L4
  6
PHANTOM
 62
     3
 10
-168.0
 20
139.70004272459991
 30
0.0
 11
-168.0
 21
142.89999389650001
 31
0.0
  0
LINE
  5
1C4
  8
LAYER4$C$L4
  6
PHANTOM
 62
     3
 10
-167.94515991209991
 20
139.70004272459991
 30
0.0
 11
-167.94515991209991
 21
143.99996948239991
 31
0.0
  0
DIMENSION
  5
1C5
  8
DIMENSIONS
  2
*D22
 10
-46.905620330158598
 20
163.9999542235999
 30
0.0
 11
-46.905620330158619
 21
143.99376644169379
 31
0.0
 70
   129
  1
%%c<>
 13
-96.105361938500025
 23
123.9999847412
 33
0.0
 14
-96.105361938500025
 24
163.99995422360001
 34
0.0
1001
ACAD
1000
DSTYLE
1002
{
1070
    41
1040
1.9727878464999999
1070
    42
1040
2.5399999618999991
1070
    44
1040
3.8099999427999989
1070
    73
1070
     0
1070
   140
1040
3.1999998092999991
1070
   271
1070
     1
1070
   272
1070
     1
1002
}
  0
LINE
  5
1D1
  8
LAYER2$C$L2
  6
DASHED
 62
     3
 10
-31.70001220699999
 20
55.5
 30
0.0
 11
-42.30000305179999
 21
55.5
 31
0.0
  0
LINE
  5
1D2
  8
LAYER4$C$L4
  6
PHANTOM
 62
     3
 10
-165.4145115565999
 20
136.36500883560001
 30
0.0
 11
-166.21273066020001
 21
136.737224459
 31
0.0
  0
LINE
  5
1D3
  8
LAYER1$C$L1
 62
     3
 10
-98.500015258799991
 20
93.999984741200024
 30
0.0
 11
-96.105361938500025
 21
93.999984741200024
 31
0.0
  0
LINE
  5
1D4
  8
LAYER2$C$L2
  6
DASHED
 62
     3
 10
-38.250030517600003
 20
83.770355224599996
 30
0.0
 11
-35.7500457764
 21
83.770355224599996
 31
0.0
  0
LINE
  5
1D5
  8
LAYER1$C$L1
 62
     3
 10
-51.800003051799997
 20
87.452133178700024
 30
0.0
 11
-51.800003051799997
 21
91.0
 31
0.0
  0
LINE
  5
1D6
  8
LAYER1$C$L1
 62
     3
 10
-22.20001220699999
 20
60.547836303700002
 30
0.0
 11
-22.20001220699999
 21
57.0
 31
0.0
  0
LINE
  5
1D7
  8
LAYER3$C$L3
  6
CENTERLINE
 62
     3
 10
-58.0
 20
74.0
 30
0.0
 11
-16.0
 21
74.0
 31
0.0
  0
LINE
  5
1D8
  8
LAYER2$C$L2
  6
DASHED
 62
     3
 10
-38.250030517600003
 20
64.229644775400004
 30
0.0
 11
-35.750030517600003
 21
64.229644775400004
 31
0.0
  0
LINE
  5
1D9
  8
LAYER2$C$L2
  6
DASHED
 62
     3
 10
-51.800003051799997
 20
60.5478515625
 30
0.0
 11
-51.800003051799997
 21
87.452133178700024
 31
0.0
  0
TEXT
  5
1DB
  8
LAYER8$C$L8
 62
     3
 10
-169.9116516112999
 20
45.274734497099999
 30
0.0
 40
3.0
  1

 72
     5
 11
-169.9116516112999
 21
45.274734497099999
 31
0.0
  0
ARC
  5
1DD
  8
LAYER1$C$L1
 62
     3
 10
-37.0
 20
74.0
 30
0.0
 40
3.0
 50
62.45759935569999
 51
207.54234668609999
  0
LINE
  5
1DE
  8
LAYER4$C$L4
  6
PHANTOM
 62
     3
 10
-155.0999908446999
 20
139.70005798339989
 30
0.0
 11
-159.59996032709989
 21
139.70005798339989
 31
0.0
  0
LINE
  5
1DF
  8
LAYER4$C$L4
  6
PHANTOM
 62
     3
 10
-159.59996032709989
 20
130.80001831049989
 30
0.0
 11
-159.59996032709989
 21
142.99996948239991
 31
0.0
  0
LINE
  5
1E0
  8
LAYER4$C$L4
  6
PHANTOM
 62
     3
 10
-158.59999084469999
 20
129.89999389649989
 30
0.0
 11
-158.59999084469999
 21
130.80001831049989
 31
0.0
  0
LINE
  5
1E1
  8
LAYER4$C$L4
  6
PHANTOM
 62
     3
 10
-158.59999084469999
 20
129.90000915530001
 30
0.0
 11
-169.0
 21
129.90000915530001
 31
0.0
  0
LINE
  5
1E2
  8
LAYER4$C$L4
  6
PHANTOM
 62
     3
 10
-160.59996032709989
 20
143.99998474119991
 30
0.0
 11
-169.0
 21
143.99998474119991
 31
0.0
  0
LINE
  5
1E3
  8
LAYER4$C$L4
  6
PHANTOM
 62
     3
 10
-158.59999084469999
 20
130.80003356930001
 30
0.0
 11
-159.59996032709989
 21
130.80003356930001
 31
0.0
  0
LINE
  5
1E4
  8
LAYER2$C$L2
  6
DASHED
 62
     3
 10
-22.20001220699999
 20
87.452133178700024
 30
0.0
 11
-22.20001220699999
 21
60.5478515625
 31
0.0
  0
POLYLINE
  5
1E5
  8
LAYER1$C$L1
 62
     3
 66
     1
 10
0.0
 20
0.0
 30
0.0
  0
VERTEX
  5
7BB
  8
LAYER1$C$L1
 62
     3
 10
-76.576042058200002
 20
144.63641057679999
 30
0.0
  0
VERTEX
  5
7BC
  8
LAYER1$C$L1
 62
     3
 10
-76.277470660299997
 20
144.28271591070001
 30
0.0
  0
VERTEX
  5
7BD
  8
LAYER1$C$L1
 62
     3
 10
-75.861089570000004
 20
143.99464263929991
 30
0.0
  0
VERTEX
  5
7BE
  8
LAYER1$C$L1
 62
     3
 10
-75.354496040100003
 20
143.79128392280001
 30
0.0
  0
VERTEX
  5
7BF
  8
LAYER1$C$L1
 62
     3
 10
-74.791266498599995
 20
143.6861181395999
 30
0.0
  0
VERTEX
  5
7C0
  8
LAYER1$C$L1
 62
     3
 10
-74.208731142199994
 20
143.6861155551
 30
0.0
  0
VERTEX
  5
7C1
  8
LAYER1$C$L1
 62
     3
 10
-73.645499734399991
 20
143.79127634060001
 30
0.0
  0
VERTEX
  5
7C2
  8
LAYER1$C$L1
 62
     3
 10
-73.138902595600001
 20
143.99463056190001
 30
0.0
  0
VERTEX
  5
7C3
  8
LAYER1$C$L1
 62
     3
 10
-72.722516393000006
 20
144.28270013860001
 30
0.0
  0
VERTEX
  5
7C4
  8
LAYER1$C$L1
 62
     3
 10
-72.423938718199992
 20
144.63639215539999
 30
0.0
  0
SEQEND
  5
7C5
  8
LAYER1$C$L1
 62
     3
  0
POLYLINE
  5
1F1
  8
LAYER1$C$L1
 62
     3
 66
     1
 10
0.0
 20
0.0
 30
0.0
 70
     1
  0
VERTEX
  5
7C6
  8
LAYER1$C$L1
 62
     3
 10
-76.762725830099996
 20
144.0000152588
 30
0.0
  0
VERTEX
  5
7C7
  8
LAYER1$C$L1
 62
     3
 10
-76.701733351200005
 20
143.631028458
 30
0.0
  0
VERTEX
  5
7C8
  8
LAYER1$C$L1
 62
     3
 10
-76.522044034799976
 20
143.28193383120001
 30
0.0
  0
VERTEX
  5
7C9
  8
LAYER1$C$L1
 62
     3
 10
-76.233344978600002
 20
142.9715511599999
 30
0.0
  0
VERTEX
  5
7CA
  8
LAYER1$C$L1
 62
     3
 10
-75.851200023199993
 20
142.71661325459991
 30
0.0
  0
VERTEX
  5
7CB
  8
LAYER1$C$L1
 62
     3
 10
-75.396210702299996
 20
142.53086388339989
 30
0.0
  0
VERTEX
  5
7CC
  8
LAYER1$C$L1
 62
     3
 10
-74.892905607800003
 20
142.4243168431999
 30
0.0
  0
VERTEX
  5
7CD
  8
LAYER1$C$L1
 62
     3
 10
-74.368418047700004
 20
142.4027161123999
 30
0.0
  0
VERTEX
  5
7CE
  8
LAYER1$C$L1
 62
     3
 10
-73.851023282100002
 20
142.467226192
 30
0.0
  0
VERTEX
  5
7CF
  8
LAYER1$C$L1
 62
     3
 10
-73.36861419680001
 20
142.6143693269
 30
0.0
  0
VERTEX
  5
7D0
  8
LAYER1$C$L1
 62
     3
 10
-72.947197590299993
 20
142.83621299270001
 30
0.0
  0
VERTEX
  5
7D1
  8
LAYER1$C$L1
 62
     3
 10
-72.609492141099992
 20
143.12079753989991
 30
0.0
  0
VERTEX
  5
7D2
  8
LAYER1$C$L1
 62
     3
 10
-72.373703637299997
 20
143.45278094189999
 30
0.0
  0
VERTEX
  5
7D3
  8
LAYER1$C$L1
 62
     3
 10
-72.25254349810001
 20
143.81426588759999
 30
0.0
  0
VERTEX
  5
7D4
  8
LAYER1$C$L1
 62
     3
 10
-72.25254349810001
 20
144.18576462999991
 30
0.0
  0
VERTEX
  5
7D5
  8
LAYER1$C$L1
 62
     3
 10
-72.373703637299997
 20
144.54724957560001
 30
0.0
  0
VERTEX
  5
7D6
  8
LAYER1$C$L1
 62
     3
 10
-72.609492141099992
 20
144.87923297759991
 30
0.0
  0
VERTEX
  5
7D7
  8
LAYER1$C$L1
 62
     3
 10
-72.947197590299993
 20
145.16381752480001
 30
0.0
  0
VERTEX
  5
7D8
  8
LAYER1$C$L1
 62
     3
 10
-73.36861419680001
 20
145.3856611905999
 30
0.0
  0
VERTEX
  5
7D9
  8
LAYER1$C$L1
 62
     3
 10
-73.851023282100002
 20
145.5328043255999
 30
0.0
  0
VERTEX
  5
7DA
  8
LAYER1$C$L1
 62
     3
 10
-74.368418047700004
 20
145.5973144052
 30
0.0
  0
VERTEX
  5
7DB
  8
LAYER1$C$L1
 62
     3
 10
-74.892905607800003
 20
145.57571367439991
 30
0.0
  0
VERTEX
  5
7DC
  8
LAYER1$C$L1
 62
     3
 10
-75.396210702299996
 20
145.46916663409991
 30
0.0
  0
VERTEX
  5
7DD
  8
LAYER1$C$L1
 62
     3
 10
-75.851200023199993
 20
145.28341726299999
 30
0.0
  0
VERTEX
  5
7DE
  8
LAYER1$C$L1
 62
     3
 10
-76.233344978600002
 20
145.02847935759991
 30
0.0
  0
VERTEX
  5
7DF
  8
LAYER1$C$L1
 62
     3
 10
-76.522044034799976
 20
144.7180966864
 30
0.0
  0
VERTEX
  5
7E0
  8
LAYER1$C$L1
 62
     3
 10
-76.701733351200005
 20
144.36900205949999
 30
0.0
  0
SEQEND
  5
7E1
  8
LAYER1$C$L1
 62
     3
  0
ARC
  5
20E
  8
LAYER1$C$L1
 62
     3
 10
-96.105346679700006
 20
161.99995422360001
 30
0.0
 40
2.0
 50
13.342009562399999
 51
90.000255221499984
  0
ARC
  5
20F
  8
LAYER1$C$L1
 62
     3
 10
-172.0
 20
143.99998474119991
 30
0.0
 40
80.0
 50
6.4092036302999986
 51
13.342340826599999
  0
LINE
  5
210
  8
LAYER4$C$L4
  6
PHANTOM
 62
     3
 10
-169.0
 20
129.89999389649989
 30
0.0
 11
-169.0
 21
143.99996948239991
 31
0.0
  0
LINE
  5
21A
  8
LAYER1$C$L1
 62
     3
 10
-134.00109863279991
 20
148.10000610349999
 30
0.0
 11
-134.00109863279991
 21
145.0999908446999
 31
0.0
  0
LINE
  5
21B
  8
LAYER1$C$L1
 62
     3
 10
-133.99993896480001
 20
148.10000610349999
 30
0.0
 11
-145.5
 21
148.10000610349999
 31
0.0
  0
LINE
  5
21C
  8
LAYER1$C$L1
 62
     3
 10
-134.00109863279991
 20
145.0999908446999
 30
0.0
 11
-145.5
 21
145.0999908446999
 31
0.0
  0
LINE
  5
21D
  8
LAYER1$C$L1
 62
     3
 10
-155.49999538119999
 20
149.2999891046999
 30
0.0
 11
-147.500000234
 21
154.29998614199999
 31
0.0
  0
LINE
  5
21E
  8
LAYER1$C$L1
 62
     3
 10
-147.5
 20
158.69998168949999
 30
0.0
 11
-145.5
 21
158.69998168949999
 31
0.0
  0
LINE
  5
21F
  8
LAYER1$C$L1
 62
     3
 10
-147.5
 20
158.69998168949999
 30
0.0
 11
-147.5
 21
149.2999877929999
 31
0.0
  0
LINE
  5
220
  8
LAYER1$C$L1
 62
     3
 10
-160.74999999999989
 20
148.19998168949999
 30
0.0
 11
-160.74999999999989
 21
145.0999908446999
 31
0.0
  0
LINE
  5
221
  8
LAYER1$C$L1
 62
     3
 10
-163.0
 20
148.19998168949999
 30
0.0
 11
-163.0
 21
145.0999908446999
 31
0.0
  0
LINE
  5
222
  8
LAYER1$C$L1
 62
     3
 10
-158.49999999999989
 20
145.0999908446999
 30
0.0
 11
-158.49999999999989
 21
143.99998474119991
 31
0.0
  0
LINE
  5
223
  8
LAYER1$C$L1
 62
     3
 10
-157.5
 20
148.19998168949999
 30
0.0
 11
-157.5
 21
143.99998474119991
 31
0.0
  0
LINE
  5
224
  8
LAYER1$C$L1
 62
     3
 10
-165.5
 20
145.0999908446999
 30
0.0
 11
-158.49999999999989
 21
145.0999908446999
 31
0.0
  0
LINE
  5
225
  8
LAYER1$C$L1
 62
     3
 10
-145.5
 20
149.2999877929999
 30
0.0
 11
-165.5
 21
149.2999877929999
 31
0.0
  0
LINE
  5
226
  8
LAYER1$C$L1
 62
     3
 10
-165.5
 20
148.19998168949999
 30
0.0
 11
-150.5
 21
148.19998168949999
 31
0.0
  0
ARC
  5
227
  8
LAYER1$C$L1
 62
     3
 10
-37.0
 20
74.0
 30
0.0
 40
9.8499994278000003
 50
52.290695436499981
 51
82.709274169300016
  0
LINE
  5
228
  8
LAYER1$C$L1
 62
     3
 10
-153.80000305179991
 20
143.99998474119991
 30
0.0
 11
-153.80000305179991
 21
148.19998168949999
 31
0.0
  0
LINE
  5
229
  8
LAYER1$C$L1
 62
     3
 10
-145.5
 20
158.69998168949999
 30
0.0
 11
-145.5
 21
148.10000610349999
 31
0.0
  0
LINE
  5
22A
  8
LAYER2$C$L2
  6
DASHED
 62
     3
 10
-37.000015258799991
 20
57.5
 30
0.0
 11
-32.80000305179999
 21
57.5
 31
0.0
  0
ARC
  5
22B
  8
LAYER1$C$L1
 62
     3
 10
-159.56423950199999
 20
83.129806518600006
 30
0.0
 40
0.1999999881
 50
264.80169761259992
 51
345.52905237530001
  0
ARC
  5
22C
  8
LAYER1$C$L1
 62
     3
 10
-160.63345336910001
 20
83.674606323199995
 30
0.0
 40
0.1999999881
 50
264.80186153709991
 51
345.52899773379988
  0
LINE
  5
22D
  8
LAYER1$C$L1
 62
     3
 10
-158.7010593645999
 20
85.414281569099984
 30
0.0
 11
-158.25555609989991
 21
85.187286339300016
 31
0.0
  0
LINE
  5
22E
  8
LAYER1$C$L1
 62
     3
 10
-157.56608321600001
 20
87.641797892399993
 30
0.0
 11
-157.1205799512999
 21
87.414802662699998
 31
0.0
  0
LINE
  5
22F
  8
LAYER1$C$L1
 62
     3
 10
-160.27872783289999
 20
86.723248191099998
 30
0.0
 11
-159.20273773349999
 21
87.072858500499976
 31
0.0
  0
LINE
  5
230
  8
LAYER1$C$L1
 62
     3
 10
-158.657936296
 20
88.142020077999973
 30
0.0
 11
-159.73392639549991
 21
87.792409768599995
 31
0.0
  0
LINE
  5
231
  8
LAYER1$C$L1
 62
     3
 10
-158.3266400071999
 20
90.554419980999995
 30
0.0
 11
-159.27029180010001
 21
90.935680064599993
 31
0.0
  0
LINE
  5
232
  8
LAYER1$C$L1
 62
     3
 10
-162.36770559870001
 20
84.856865060100006
 30
0.0
 11
-161.50454336940001
 21
84.317501492100007
 31
0.0
  0
LINE
  5
233
  8
LAYER1$C$L1
 62
     3
 10
-158.32661774089991
 20
90.554543502299978
 30
0.0
 11
-161.5045513899999
 21
84.317496947199999
 31
0.0
  0
LINE
  5
234
  8
LAYER1$C$L1
 62
     3
 10
-159.94953356100001
 20
82.964012763699998
 30
0.0
 11
-161.01869789
 21
83.508779147499979
 31
0.0
  0
LINE
  5
235
  8
LAYER1$C$L1
 62
     3
 10
-161.01869789
 20
83.508779147499979
 30
0.0
 11
-157.3867737814999
 21
90.636832231900001
 31
0.0
  0
LINE
  5
236
  8
LAYER1$C$L1
 62
     3
 10
-156.31760945249991
 20
90.092065848100006
 30
0.0
 11
-157.3867737814999
 21
90.636832231900001
 31
0.0
  0
LINE
  5
237
  8
LAYER1$C$L1
 62
     3
 10
-158.57627123989991
 20
57.935580512999998
 30
0.0
 11
-157.8634225102
 21
58.298795048000002
 31
0.0
  0
LINE
  5
238
  8
LAYER2$C$L2
  6
DASHED
 62
     3
 10
-37.000015258799991
 20
90.5
 30
0.0
 11
-32.80000305179999
 21
90.5
 31
0.0
  0
LINE
  5
239
  8
LAYER1$C$L1
 62
     3
 10
-159.94949267929991
 20
65.036006896399996
 30
0.0
 11
-159.5824782656
 21
65.069398226399997
 31
0.0
  0
LINE
  5
23A
  8
LAYER1$C$L1
 62
     3
 10
-159.37063461189999
 20
64.920201605399996
 30
0.0
 11
-158.8371483448
 21
62.853076184700001
 31
0.0
  0
LINE
  5
23B
  8
LAYER1$C$L1
 62
     3
 10
-158.83721524870001
 20
62.853090813900003
 30
0.0
 11
-158.70100979809999
 21
62.585772540299999
 31
0.0
  0
LINE
  5
23C
  8
LAYER2$C$L2
  6
DASHED
 62
     3
 10
-45.717803955100003
 20
56.0
 30
0.0
 11
-42.30000305179999
 21
56.0
 31
0.0
  0
LINE
  5
23D
  8
LAYER1$C$L1
 62
     3
 10
-145.49995422360001
 20
129.7999877929999
 30
0.0
 11
-145.49995422360001
 21
139.89994812009999
 31
0.0
  0
LINE
  5
23E
  8
LAYER1$C$L1
 62
     3
 10
-134.00109863279991
 20
139.8999633789
 30
0.0
 11
-134.00109863279991
 21
142.8999786377
 31
0.0
  0
LINE
  5
23F
  8
LAYER1$C$L1
 62
     3
 10
-165.5
 20
149.2999877929999
 30
0.0
 11
-165.5
 21
143.99998474119991
 31
0.0
  0
LINE
  5
240
  8
LAYER1$C$L1
 62
     3
 10
-150.5
 20
143.99998474119991
 30
0.0
 11
-150.5
 21
148.19998168949999
 31
0.0
  0
LINE
  5
242
  8
LAYER2$C$L2
  6
DASHED
 62
     3
 10
-45.717803955100003
 20
92.0
 30
0.0
 11
-42.30000305179999
 21
92.0
 31
0.0
  0
ARC
  5
243
  8
LAYER1$C$L1
 62
     3
 10
-37.0
 20
74.0
 30
0.0
 40
9.8499994278000003
 50
97.290689858499974
 51
217.70927451089989
  0
TEXT
  5
245
  8
LAYER8$C$L8
 62
     3
 10
-45.160476684599992
 20
176.0966949463
 30
0.0
 40
2.5
  1

 72
     5
 11
-45.160476684599992
 21
176.0966949463
 31
0.0
  0
TEXT
  5
247
  8
LAYER8$C$L8
 62
     3
 10
-45.160476684599992
 20
176.0966949463
 30
0.0
 40
2.5
  1

 72
     5
 11
-45.160476684599992
 21
176.0966949463
 31
0.0
  0
TEXT
  5
249
  8
LAYER8$C$L8
 62
     3
 10
-45.160476684599992
 20
176.0966949463
 30
0.0
 40
2.5
  1

 72
     5
 11
-45.160476684599992
 21
176.0966949463
 31
0.0
  0
LINE
  5
259
  8
LAYER1$C$L1
 62
     3
 10
-161.2548121795999
 20
63.192513597799987
 30
0.0
 11
-160.54196345
 21
63.555728132799999
 31
0.0
  0
ARC
  5
272
  8
LAYER1$C$L1
 62
     3
 10
-37.0
 20
74.0
 30
0.0
 40
3.0
 50
242.45763532780001
 51
27.542392903499991
  0
LINE
  5
274
  8
LAYER1$C$L1
 62
     3
 10
-134.00109863279991
 20
142.8999786377
 30
0.0
 11
-145.49995422360001
 21
142.8999786377
 31
0.0
  0
LINE
  5
275
  8
LAYER1$C$L1
 62
     3
 10
-133.99993896480001
 20
139.8999633789
 30
0.0
 11
-145.49993896480001
 21
139.8999633789
 31
0.0
  0
LINE
  5
276
  8
LAYER1$C$L1
 62
     3
 10
-160.58567810060001
 20
142.90000915530001
 30
0.0
 11
-160.58567810060001
 21
139.80000305179999
 31
0.0
  0
LINE
  5
277
  8
LAYER1$C$L1
 62
     3
 10
-163.0
 20
142.90000915530001
 30
0.0
 11
-163.0
 21
139.80000305179999
 31
0.0
  0
LINE
  5
278
  8
LAYER1$C$L1
 62
     3
 10
-157.47924804690001
 20
143.99989318850001
 30
0.0
 11
-157.47924804690001
 21
139.80000305179999
 31
0.0
  0
LINE
  5
279
  8
LAYER2$C$L2
  6
DASHED
 62
     3
 10
-37.900054931599989
 20
64.229614257799994
 30
0.0
 11
-37.900054931599989
 21
83.770339965800005
 31
0.0
  0
ARC
  5
27A
  8
LAYER1$C$L1
 62
     3
 10
-37.0
 20
74.0
 30
0.0
 40
9.8499994278000003
 50
277.29078047220003
 51
37.709300237800008
  0
CIRCLE
  5
27B
  8
LAYER1$C$L1
 62
     3
 10
-37.0
 20
74.0
 30
0.0
 40
20.0
  0
ARC
  5
27C
  8
LAYER4$C$L4
  6
PHANTOM
 62
     3
 10
-37.5
 20
54.600051879900001
 30
0.0
 40
0.5
 50
269.99996334460002
 51
359.99987273089988
  0
ARC
  5
27D
  8
LAYER4$C$L4
  6
PHANTOM
 62
     3
 10
-50.599990844700002
 20
54.600051879900001
 30
0.0
 40
0.5
 50
180.0000906137
 51
270.00001798609998
  0
ARC
  5
27E
  8
LAYER1$C$L1
 62
     3
 10
-50.800003051799997
 20
57.000015258799998
 30
0.0
 40
1.0
 50
179.9999640277999
 51
269.9999460416999
  0
ARC
  5
27F
  8
LAYER1$C$L1
 62
     3
 10
-50.800003051799997
 20
91.0
 30
0.0
 40
1.0
 50
89.999982013899995
 51
179.9999640277999
  0
LINE
  5
280
  8
LAYER2$C$L2
  6
DASHED
 62
     3
 10
-36.100051879900001
 20
64.229614257799994
 30
0.0
 11
-36.100051879900001
 21
83.770339965800005
 31
0.0
  0
LINE
  5
281
  8
LAYER2$C$L2
  6
DASHED
 62
     3
 10
-32.80000305179999
 20
92.5
 30
0.0
 11
-32.80000305179999
 21
90.5
 31
0.0
  0
LINE
  5
282
  8
LAYER1$C$L1
 62
     3
 10
-44.545135973000001
 20
67.727661275100004
 30
0.0
 11
-30.7277553873
 21
81.545040696100003
 31
0.0
  0
DIMENSION
  5
283
  8
DIMENSIONS
  2
*D24
 10
5.3788900991596771
 20
92.499984741200009
 30
0.0
 11
5.3788900991596611
 21
73.299201868844762
 31
0.0
 70
   129
  1
<>37
 13
-31.70001220699999
 23
55.5
 33
0.0
 14
-31.70001220699999
 24
92.499984741200009
 34
0.0
1001
ACAD
1000
DSTYLE
1002
{
1070
    41
1040
1.9727878464999999
1070
    42
1040
2.5399999618999991
1070
    44
1040
3.8099999427999989
1070
    73
1070
     0
1070
   140
1040
3.1999998092999991
1070
   271
1070
     1
1070
   272
1070
     1
1002
}
  0
DIMENSION
  5
28F
  8
DIMENSIONS
  2
*D25
 10
-22.20001220699999
 20
105.40204722859831
 30
0.0
 11
-37.3372135348136
 21
105.40204722859831
 31
0.0
 70
   128
  1
<>30
 13
-51.800003051799997
 23
91.0
 33
0.0
 14
-22.20001220699999
 24
90.999984741200009
 34
0.0
1001
ACAD
1000
DSTYLE
1002
{
1070
    41
1040
1.9727878464999999
1070
    42
1040
2.5399999618999991
1070
    44
1040
3.8099999427999989
1070
    73
1070
     0
1070
   140
1040
3.1999998092999991
1070
   271
1070
     1
1070
   272
1070
     1
1002
}
  0
LINE
  5
29B
  8
LAYER2$C$L2
  6
DASHED
 62
     3
 10
-32.80000305179999
 20
57.5
 30
0.0
 11
-32.80000305179999
 21
55.5
 31
0.0
  0
LINE
  5
29C
  8
LAYER2$C$L2
  6
DASHED
 62
     3
 10
-35.900009155299998
 20
92.5
 30
0.0
 11
-35.900009155299998
 21
90.5
 31
0.0
  0
LINE
  5
29D
  8
LAYER2$C$L2
  6
DASHED
 62
     3
 10
-35.900009155299998
 20
57.5
 30
0.0
 11
-35.900009155299998
 21
55.5
 31
0.0
  0
LINE
  5
29E
  8
LAYER2$C$L2
  6
DASHED
 62
     3
 10
-42.30000305179999
 20
92.5
 30
0.0
 11
-31.70001220699999
 21
92.5
 31
0.0
  0
LINE
  5
29F
  8
LAYER2$C$L2
  6
DASHED
 62
     3
 10
-31.70001220699999
 20
92.0
 30
0.0
 11
-31.70001220699999
 21
92.5
 31
0.0
  0
LINE
  5
2A0
  8
LAYER2$C$L2
  6
DASHED
 62
     3
 10
-31.70001220699999
 20
56.0
 30
0.0
 11
-31.70001220699999
 21
55.5
 31
0.0
  0
LINE
  5
2A1
  8
LAYER2$C$L2
  6
DASHED
 62
     3
 10
-31.70001220699999
 20
92.0
 30
0.0
 11
-28.282211303699999
 21
92.0
 31
0.0
  0
LINE
  5
2A2
  8
LAYER2$C$L2
  6
DASHED
 62
     3
 10
-31.70001220699999
 20
56.0
 30
0.0
 11
-28.282211303699999
 21
56.0
 31
0.0
  0
LINE
  5
2A3
  8
LAYER2$C$L2
  6
DASHED
 62
     3
 10
-41.200012206999993
 20
90.5
 30
0.0
 11
-37.000015258799991
 21
90.5
 31
0.0
  0
LINE
  5
2A4
  8
LAYER2$C$L2
  6
DASHED
 62
     3
 10
-41.200012206999993
 20
57.5
 30
0.0
 11
-37.000015258799991
 21
57.5
 31
0.0
  0
LINE
  5
2A5
  8
LAYER2$C$L2
  6
DASHED
 62
     3
 10
-41.200012206999993
 20
90.5
 30
0.0
 11
-41.200012206999993
 21
92.5
 31
0.0
  0
LINE
  5
2A6
  8
LAYER2$C$L2
  6
DASHED
 62
     3
 10
-41.200012206999993
 20
55.5
 30
0.0
 11
-41.200012206999993
 21
57.5
 31
0.0
  0
LINE
  5
2A7
  8
LAYER2$C$L2
  6
DASHED
 62
     3
 10
-38.1000061035
 20
90.5
 30
0.0
 11
-38.1000061035
 21
92.5
 31
0.0
  0
LINE
  5
2A8
  8
LAYER2$C$L2
  6
DASHED
 62
     3
 10
-38.1000061035
 20
55.5
 30
0.0
 11
-38.1000061035
 21
57.5
 31
0.0
  0
LINE
  5
2A9
  8
LAYER2$C$L2
  6
DASHED
 62
     3
 10
-42.30000305179999
 20
92.5
 30
0.0
 11
-42.30000305179999
 21
92.0
 31
0.0
  0
LINE
  5
2AA
  8
LAYER2$C$L2
  6
DASHED
 62
     3
 10
-42.30000305179999
 20
55.5
 30
0.0
 11
-42.30000305179999
 21
56.0
 31
0.0
  0
LINE
  5
2AB
  8
LAYER4$C$L4
  6
PHANTOM
 62
     3
 10
-51.099990844700002
 20
91.953933715800005
 30
0.0
 11
-51.099990844700002
 21
93.399993896499993
 31
0.0
  0
LINE
  5
2AC
  8
LAYER4$C$L4
  6
PHANTOM
 62
     3
 10
-37.0
 20
54.600036621100003
 30
0.0
 11
-37.0
 21
55.5
 31
0.0
  0
LINE
  5
2AD
  8
LAYER4$C$L4
  6
PHANTOM
 62
     3
 10
-37.5
 20
54.100036621100003
 30
0.0
 11
-50.599990844700002
 21
54.100036621100003
 31
0.0
  0
LINE
  5
2AE
  8
LAYER4$C$L4
  6
PHANTOM
 62
     3
 10
-51.099990844700002
 20
54.600036621100003
 30
0.0
 11
-51.099990844700002
 21
56.046066284200002
 31
0.0
  0
LINE
  5
2AF
  8
LAYER4$C$L4
  6
PHANTOM
 62
     3
 10
-50.599990844700002
 20
93.899993896499979
 30
0.0
 11
-37.5
 21
93.899993896499979
 31
0.0
  0
LINE
  5
2B0
  8
LAYER4$C$L4
  6
PHANTOM
 62
     3
 10
-37.0
 20
92.5
 30
0.0
 11
-37.0
 21
93.399993896499993
 31
0.0
  0
LINE
  5
2B1
  8
LAYER1$C$L1
 62
     3
 10
-28.282196044900001
 20
92.0
 30
0.0
 11
-23.20001220699999
 21
92.0
 31
0.0
  0
LINE
  5
2B2
  8
LAYER1$C$L1
 62
     3
 10
-28.282196044900001
 20
56.0
 30
0.0
 11
-23.20001220699999
 21
56.0
 31
0.0
  0
LINE
  5
2B3
  8
LAYER1$C$L1
 62
     3
 10
-22.20001220699999
 20
91.0
 30
0.0
 11
-22.20001220699999
 21
87.4521484375
 31
0.0
  0
LINE
  5
2B4
  8
LAYER1$C$L1
 62
     3
 10
-50.800003051799997
 20
92.0
 30
0.0
 11
-45.717788696299998
 21
92.0
 31
0.0
  0
LINE
  5
2B5
  8
LAYER1$C$L1
 62
     3
 10
-50.800003051799997
 20
56.0
 30
0.0
 11
-45.717788696299998
 21
56.0
 31
0.0
  0
LINE
  5
2B6
  8
LAYER1$C$L1
 62
     3
 10
-51.800003051799997
 20
57.0
 30
0.0
 11
-51.800003051799997
 21
60.547866821299998
 31
0.0
  0
LINE
  5
2B7
  8
LAYER1$C$L1
 62
     3
 10
-43.272341630699991
 20
66.454866825500005
 30
0.0
 11
-29.454961045000001
 21
80.272246246499989
 31
0.0
  0
LINE
  5
2B8
  8
LAYER3$C$L3
  6
CENTERLINE
 62
     3
 10
-37.000015258799991
 20
51.689743041999989
 30
0.0
 11
-37.000015258799991
 21
96.402252197300001
 31
0.0
  0
ARC
  5
2B9
  8
LAYER1$C$L1
 62
     3
 10
-23.20001220699999
 20
57.0
 30
0.0
 40
1.0
 50
270.00012726910001
 51
0.000072627600094
  0
LINE
  5
2BB
  8
LAYER1$C$L1
 62
     3
 10
-158.49999999999989
 20
143.99989318850001
 30
0.0
 11
-158.49999999999989
 21
142.90000915530001
 31
0.0
  0
LINE
  5
2BC
  8
LAYER1$C$L1
 62
     3
 10
-145.5
 20
145.0999908446999
 30
0.0
 11
-145.5
 21
142.89994812009991
 31
0.0
  0
POLYLINE
  5
2BF
  8
LAYER1$C$L1
 62
     3
 66
     1
 10
0.0
 20
0.0
 30
0.0
  0
VERTEX
  5
7E2
  8
LAYER1$C$L1
 62
     3
 10
-85.509832247299997
 20
68.024343830799992
 30
0.0
  0
VERTEX
  5
7E3
  8
LAYER1$C$L1
 62
     3
 10
-85.621946694100004
 20
68.552718534700006
 30
0.0
  0
VERTEX
  5
7E4
  8
LAYER1$C$L1
 62
     3
 10
-85.8561402383
 20
69.060459899400001
 30
0.0
  0
VERTEX
  5
7E5
  8
LAYER1$C$L1
 62
     3
 10
-86.205882526500005
 20
69.533409846400005
 30
0.0
  0
VERTEX
  5
7E6
  8
LAYER1$C$L1
 62
     3
 10
-86.661421193999985
 20
69.958380435600006
 30
0.0
  0
VERTEX
  5
7E7
  8
LAYER1$C$L1
 62
     3
 10
-87.210053804599994
 20
70.323521604199996
 30
0.0
  0
VERTEX
  5
7E8
  8
LAYER1$C$L1
 62
     3
 10
-87.836482050300006
 20
70.618651598699984
 30
0.0
  0
VERTEX
  5
7E9
  8
LAYER1$C$L1
 62
     3
 10
-88.523238336399984
 20
70.835540887400001
 30
0.0
  0
VERTEX
  5
7EA
  8
LAYER1$C$L1
 62
     3
 10
-89.251172854999979
 20
70.968141635799995
 30
0.0
  0
VERTEX
  5
7EB
  8
LAYER1$C$L1
 62
     3
 10
-89.999987566499996
 20
71.012756347700005
 30
0.0
  0
SEQEND
  5
7EC
  8
LAYER1$C$L1
 62
     3
  0
POLYLINE
  5
2CB
  8
LAYER1$C$L1
 62
     3
 66
     1
 10
0.0
 20
0.0
 30
0.0
  0
VERTEX
  5
7ED
  8
LAYER1$C$L1
 62
     3
 10
-85.5519143052
 20
67.0247182807
 30
0.0
  0
VERTEX
  5
7EE
  8
LAYER1$C$L1
 62
     3
 10
-85.714076904500004
 20
67.515261258699994
 30
0.0
  0
VERTEX
  5
7EF
  8
LAYER1$C$L1
 62
     3
 10
-85.982521046900004
 20
67.981619254099996
 30
0.0
  0
VERTEX
  5
7F0
  8
LAYER1$C$L1
 62
     3
 10
-86.350589879799998
 20
68.412227564600002
 30
0.0
  0
VERTEX
  5
7F1
  8
LAYER1$C$L1
 62
     3
 10
-86.809156066399993
 20
68.7964080056
 30
0.0
  0
VERTEX
  5
7F2
  8
LAYER1$C$L1
 62
     3
 10
-87.346848125199983
 20
69.124633706200001
 30
0.0
  0
VERTEX
  5
7F3
  8
LAYER1$C$L1
 62
     3
 10
-87.950332418600027
 20
69.388765356000008
 30
0.0
  0
VERTEX
  5
7F4
  8
LAYER1$C$L1
 62
     3
 10
-88.604643799300007
 20
69.582253043199984
 30
0.0
  0
VERTEX
  5
7F5
  8
LAYER1$C$L1
 62
     3
 10
-89.293556714699974
 20
69.700298677899994
 30
0.0
  0
VERTEX
  5
7F6
  8
LAYER1$C$L1
 62
     3
 10
-89.999987566499996
 20
69.739974975600006
 30
0.0
  0
SEQEND
  5
7F7
  8
LAYER1$C$L1
 62
     3
  0
POLYLINE
  5
2D7
  8
LAYER1$C$L1
 62
     3
 66
     1
 10
0.0
 20
0.0
 30
0.0
  0
VERTEX
  5
7F8
  8
LAYER1$C$L1
 62
     3
 10
-85.509825057699985
 20
138.02434295739999
 30
0.0
  0
VERTEX
  5
7F9
  8
LAYER1$C$L1
 62
     3
 10
-85.621924268599983
 20
138.5527277308
 30
0.0
  0
VERTEX
  5
7FA
  8
LAYER1$C$L1
 62
     3
 10
-85.856107013300004
 20
139.06048039199999
 30
0.0
  0
VERTEX
  5
7FB
  8
LAYER1$C$L1
 62
     3
 10
-86.205843035400008
 20
139.53344210540001
 30
0.0
  0
VERTEX
  5
7FC
  8
LAYER1$C$L1
 62
     3
 10
-86.661379840799995
 20
139.95842419120001
 30
0.0
  0
VERTEX
  5
7FD
  8
LAYER1$C$L1
 62
     3
 10
-87.210014648599994
 20
140.32357589599999
 30
0.0
  0
VERTEX
  5
7FE
  8
LAYER1$C$L1
 62
     3
 10
-87.836448611999998
 20
140.6187148546999
 30
0.0
  0
VERTEX
  5
7FF
  8
LAYER1$C$L1
 62
     3
 10
-88.523213431399995
 20
140.8356110286
 30
0.0
  0
VERTEX
  5
800
  8
LAYER1$C$L1
 62
     3
 10
-89.251158463299987
 20
140.96821620270001
 30
0.0
  0
VERTEX
  5
801
  8
LAYER1$C$L1
 62
     3
 10
-89.999984741200009
 20
141.0128326416
 30
0.0
  0
SEQEND
  5
802
  8
LAYER1$C$L1
 62
     3
  0
POLYLINE
  5
2E3
  8
LAYER4$C$L4
  6
PHANTOM
 62
     3
 66
     1
 10
0.0
 20
0.0
 30
0.0
  0
VERTEX
  5
803
  8
LAYER4$C$L4
  6
PHANTOM
 62
     3
 10
-166.21281862859999
 20
136.73721065699999
 30
0.0
  0
VERTEX
  5
804
  8
LAYER4$C$L4
  6
PHANTOM
 62
     3
 10
-166.39489821219991
 20
137.0985379121
 30
0.0
  0
VERTEX
  5
805
  8
LAYER4$C$L4
  6
PHANTOM
 62
     3
 10
-166.60064939439991
 20
137.39186246520001
 30
0.0
  0
VERTEX
  5
806
  8
LAYER4$C$L4
  6
PHANTOM
 62
     3
 10
-166.8248870571
 20
137.609792269
 30
0.0
  0
VERTEX
  5
807
  8
LAYER4$C$L4
  6
PHANTOM
 62
     3
 10
-167.0619602061
 20
137.746835293
 30
0.0
  0
VERTEX
  5
808
  8
LAYER4$C$L4
  6
PHANTOM
 62
     3
 10
-167.30589438120001
 20
137.79953792769999
 30
0.0
  0
VERTEX
  5
809
  8
LAYER4$C$L4
  6
PHANTOM
 62
     3
 10
-167.5505422178
 20
137.76657201849989
 30
0.0
  0
VERTEX
  5
80A
  8
LAYER4$C$L4
  6
PHANTOM
 62
     3
 10
-167.78973836660001
 20
137.6487683364
 30
0.0
  0
VERTEX
  5
80B
  8
LAYER4$C$L4
  6
PHANTOM
 62
     3
 10
-168.01745486589999
 20
137.449095642
 30
0.0
  0
VERTEX
  5
80C
  8
LAYER4$C$L4
  6
PHANTOM
 62
     3
 10
-168.22795305139991
 20
137.1725858698999
 30
0.0
  0
VERTEX
  5
80D
  8
LAYER4$C$L4
  6
PHANTOM
 62
     3
 10
-168.4159281762999
 20
136.8262073194
 30
0.0
  0
VERTEX
  5
80E
  8
LAYER4$C$L4
  6
PHANTOM
 62
     3
 10
-168.57664309549989
 20
136.41868904680001
 30
0.0
  0
VERTEX
  5
80F
  8
LAYER4$C$L4
  6
PHANTOM
 62
     3
 10
-168.70604764589999
 20
135.96030088570001
 30
0.0
  0
VERTEX
  5
810
  8
LAYER4$C$L4
  6
PHANTOM
 62
     3
 10
-168.80088071439999
 20
135.46259463690001
 30
0.0
  0
VERTEX
  5
811
  8
LAYER4$C$L4
  6
PHANTOM
 62
     3
 10
-168.8587524209
 20
134.9381129535
 30
0.0
  0
VERTEX
  5
812
  8
LAYER4$C$L4
  6
PHANTOM
 62
     3
 10
-168.8782043455999
 20
134.4000732538
 30
0.0
  0
VERTEX
  5
813
  8
LAYER4$C$L4
  6
PHANTOM
 62
     3
 10
-168.85874628199991
 20
133.86203463050001
 30
0.0
  0
VERTEX
  5
814
  8
LAYER4$C$L4
  6
PHANTOM
 62
     3
 10
-168.80086859119999
 20
133.33755614910001
 30
0.0
  0
VERTEX
  5
815
  8
LAYER4$C$L4
  6
PHANTOM
 62
     3
 10
-168.706029844
 20
132.8398551475
 30
0.0
  0
VERTEX
  5
816
  8
LAYER4$C$L4
  6
PHANTOM
 62
     3
 10
-168.5766200635
 20
132.38147414619999
 30
0.0
  0
VERTEX
  5
817
  8
LAYER4$C$L4
  6
PHANTOM
 62
     3
 10
-168.4159004947
 20
131.97396476579991
 30
0.0
  0
VERTEX
  5
818
  8
LAYER4$C$L4
  6
PHANTOM
 62
     3
 10
-168.22792141769989
 20
131.6275966156999
 30
0.0
  0
VERTEX
  5
819
  8
LAYER4$C$L4
  6
PHANTOM
 62
     3
 10
-168.0174200772999
 20
131.3510984902
 30
0.0
  0
VERTEX
  5
81A
  8
LAYER4$C$L4
  6
PHANTOM
 62
     3
 10
-167.7897012999
 20
131.15143839489991
 30
0.0
  0
VERTEX
  5
81B
  8
LAYER4$C$L4
  6
PHANTOM
 62
     3
 10
-167.55050380700001
 20
131.03364794709989
 30
0.0
  0
VERTEX
  5
81C
  8
LAYER4$C$L4
  6
PHANTOM
 62
     3
 10
-167.30585559439999
 20
131.0006955737999
 30
0.0
  0
VERTEX
  5
81D
  8
LAYER4$C$L4
  6
PHANTOM
 62
     3
 10
-167.06192202080001
 20
131.0534117048999
 30
0.0
  0
VERTEX
  5
81E
  8
LAYER4$C$L4
  6
PHANTOM
 62
     3
 10
-166.82485043540001
 20
131.1904678457
 30
0.0
  0
VERTEX
  5
81F
  8
LAYER4$C$L4
  6
PHANTOM
 62
     3
 10
-166.60061525930001
 20
131.40841005600001
 30
0.0
  0
VERTEX
  5
820
  8
LAYER4$C$L4
  6
PHANTOM
 62
     3
 10
-166.3948674239999
 20
131.7017459928
 30
0.0
  0
VERTEX
  5
821
  8
LAYER4$C$L4
  6
PHANTOM
 62
     3
 10
-166.2127919630999
 20
132.06308332189991
 30
0.0
  0
SEQEND
  5
822
  8
LAYER4$C$L4
  6
PHANTOM
 62
     3
  0
POLYLINE
  5
304
  8
LAYER4$C$L4
  6
PHANTOM
 62
     3
 66
     1
 10
0.0
 20
0.0
 30
0.0
  0
VERTEX
  5
823
  8
LAYER4$C$L4
  6
PHANTOM
 62
     3
 10
-166.8886948780999
 20
137.65546017189999
 30
0.0
  0
VERTEX
  5
824
  8
LAYER4$C$L4
  6
PHANTOM
 62
     3
 10
-167.09343520479999
 20
137.48382578019991
 30
0.0
  0
VERTEX
  5
825
  8
LAYER4$C$L4
  6
PHANTOM
 62
     3
 10
-167.28508340740001
 20
137.25010924360001
 30
0.0
  0
VERTEX
  5
826
  8
LAYER4$C$L4
  6
PHANTOM
 62
     3
 10
-167.45978116849989
 20
136.95901581140001
 30
0.0
  0
VERTEX
  5
827
  8
LAYER4$C$L4
  6
PHANTOM
 62
     3
 10
-167.61401142189999
 20
136.6164058615999
 30
0.0
  0
VERTEX
  5
828
  8
LAYER4$C$L4
  6
PHANTOM
 62
     3
 10
-167.7446691589999
 20
136.22917691750001
 30
0.0
  0
VERTEX
  5
829
  8
LAYER4$C$L4
  6
PHANTOM
 62
     3
 10
-167.84912394029999
 20
135.80512478509991
 30
0.0
  0
VERTEX
  5
82A
  8
LAYER4$C$L4
  6
PHANTOM
 62
     3
 10
-167.92527285159991
 20
135.3527866055999
 30
0.0
  0
VERTEX
  5
82B
  8
LAYER4$C$L4
  6
PHANTOM
 62
     3
 10
-167.97158284080001
 20
134.8812689829999
 30
0.0
  0
VERTEX
  5
82C
  8
LAYER4$C$L4
  6
PHANTOM
 62
     3
 10
-167.9871215819
 20
134.40006464769999
 30
0.0
  0
VERTEX
  5
82D
  8
LAYER4$C$L4
  6
PHANTOM
 62
     3
 10
-167.97157624409991
 20
133.91886134550001
 30
0.0
  0
VERTEX
  5
82E
  8
LAYER4$C$L4
  6
PHANTOM
 62
     3
 10
-167.925259791
 20
133.44734680170001
 30
0.0
  0
VERTEX
  5
82F
  8
LAYER4$C$L4
  6
PHANTOM
 62
     3
 10
-167.8491046787
 20
132.99501368439991
 30
0.0
  0
VERTEX
  5
830
  8
LAYER4$C$L4
  6
PHANTOM
 62
     3
 10
-167.74464408430001
 20
132.57096849600001
 30
0.0
  0
VERTEX
  5
831
  8
LAYER4$C$L4
  6
PHANTOM
 62
     3
 10
-167.61398103880001
 20
132.18374823760001
 30
0.0
  0
VERTEX
  5
832
  8
LAYER4$C$L4
  6
PHANTOM
 62
     3
 10
-167.4597460887999
 20
131.8411485405999
 30
0.0
  0
VERTEX
  5
833
  8
LAYER4$C$L4
  6
PHANTOM
 62
     3
 10
-167.28504433719991
 20
131.55006672169989
 30
0.0
  0
VERTEX
  5
834
  8
LAYER4$C$L4
  6
PHANTOM
 62
     3
 10
-167.09339293069999
 20
131.31636292519991
 30
0.0
  0
VERTEX
  5
835
  8
LAYER4$C$L4
  6
PHANTOM
 62
     3
 10
-166.8886502512
 20
131.1447421439
 30
0.0
  0
SEQEND
  5
836
  8
LAYER4$C$L4
  6
PHANTOM
 62
     3
  0
ARC
  5
319
  8
LAYER1$C$L1
 62
     3
 10
-156.22520446780001
 20
89.683029174799998
 30
0.0
 40
0.1999999881
 50
320.47098027290002
 51
41.198427243200051
  0
ARC
  5
31A
  8
LAYER1$C$L1
 62
     3
 10
-157.29440307620001
 20
90.227828979499989
 30
0.0
 40
0.1999999881
 50
320.47103491450002
 51
41.1982633187
  0
ARC
  5
31B
  8
LAYER1$C$L1
 62
     3
 10
-161.837600708
 20
85.704879760699995
 30
0.0
 40
1.0
 50
170.57102448239999
 51
237.99996336509989
  0
ARC
  5
31C
  8
LAYER1$C$L1
 62
     3
 10
-159.64472961429991
 20
90.008590698199995
 30
0.0
 40
1.0
 50
67.999942697299986
 51
135.42893622150001
  0
ARC
  5
31D
  8
LAYER1$C$L1
 62
     3
 10
-153.94567871090001
 20
84.394210815400001
 30
0.0
 40
9.0
 50
135.42904550450001
 51
170.57102448239999
  0
ARC
  5
31E
  8
LAYER1$C$L1
 62
     3
 10
-159.56423950199999
 20
64.8701629639
 30
0.0
 40
0.1999999881
 50
14.470910058599991
 51
95.198302387400005
  0
ARC
  5
31F
  8
LAYER1$C$L1
 62
     3
 10
-160.63345336910001
 20
64.325363159199995
 30
0.0
 40
0.1999999881
 50
14.470964700199991
 51
95.198138462900005
  0
ARC
  5
320
  8
LAYER1$C$L1
 62
     3
 10
-156.22520446780001
 20
58.316940307599999
 30
0.0
 40
0.1999999881
 50
318.80156251149998
 51
39.5290197271
  0
ARC
  5
321
  8
LAYER1$C$L1
 62
     3
 10
-157.29440307620001
 20
57.772140502900001
 30
0.0
 40
0.1999999881
 50
318.80172643599991
 51
39.52896508550004
  0
ARC
  5
322
  8
LAYER1$C$L1
 62
     3
 10
-161.837600708
 20
62.295089721700002
 30
0.0
 40
1.0
 50
122.0000193321
 51
189.42901285630001
  0
ARC
  5
323
  8
LAYER1$C$L1
 62
     3
 10
-159.64472961429991
 20
57.991378784200002
 30
0.0
 40
1.0
 50
224.57100913699989
 51
292.00005730269999
  0
ARC
  5
324
  8
LAYER1$C$L1
 62
     3
 10
-153.94567871090001
 20
63.605758666999989
 30
0.0
 40
9.0
 50
189.42903015909991
 51
224.57100913699989
  0
ARC
  5
325
  8
LAYER1$C$L1
 62
     3
 10
-164.26007080080001
 20
71.389816284199995
 30
0.0
 40
0.067499935627
 50
180.00003597220001
 51
270.00001798609998
  0
ARC
  5
326
  8
LAYER1$C$L1
 62
     3
 10
-163.1800689696999
 20
71.389816284199995
 30
0.0
 40
0.067499935627
 50
270.00001798609998
 51
0.0
  0
ARC
  5
327
  8
LAYER1$C$L1
 62
     3
 10
-163.99006652829991
 20
72.334884643599992
 30
0.0
 40
0.3374999762
 50
89.999927372399995
 51
179.9999640277999
  0
ARC
  5
328
  8
LAYER1$C$L1
 62
     3
 10
-163.45005798339989
 20
72.334884643599992
 30
0.0
 40
0.3374999762
 50
0.0
 51
89.999927372399995
  0
ARC
  5
329
  8
LAYER1$C$L1
 62
     3
 10
-164.26007080080001
 20
72.919845581099992
 30
0.0
 40
0.067499935627
 50
180.00003597220001
 51
270.00001798609998
  0
ARC
  5
32A
  8
LAYER1$C$L1
 62
     3
 10
-163.99006652829991
 20
73.954879760699995
 30
0.0
 40
0.3374999762
 50
89.999927372399995
 51
179.9999640277999
  0
ARC
  5
32B
  8
LAYER1$C$L1
 62
     3
 10
-163.1800689696999
 20
72.919845581099992
 30
0.0
 40
0.067499935627
 50
270.00001798609998
 51
0.0
  0
ARC
  5
32C
  8
LAYER1$C$L1
 62
     3
 10
-163.45005798339989
 20
73.954879760699995
 30
0.0
 40
0.3374999762
 50
0.0
 51
89.999927372399995
  0
ARC
  5
32D
  8
LAYER1$C$L1
 62
     3
 10
-164.26007080080001
 20
74.539840698199995
 30
0.0
 40
0.067499935627
 50
180.00003597220001
 51
270.00001798609998
  0
ARC
  5
32E
  8
LAYER1$C$L1
 62
     3
 10
-162.64006042479991
 20
74.539840698199995
 30
0.0
 40
0.067499935627
 50
270.00001798609998
 51
0.0
  0
ARC
  5
32F
  8
LAYER1$C$L1
 62
     3
 10
-162.64006042479991
 20
75.034835815400001
 30
0.0
 40
0.067499935627
 50
0.0
 51
89.999927372399995
  0
ARC
  5
330
  8
LAYER1$C$L1
 62
     3
 10
-163.99006652829991
 20
75.529830932600007
 30
0.0
 40
0.3374999762
 50
89.999927372399995
 51
179.9999640277999
  0
ARC
  5
331
  8
LAYER1$C$L1
 62
     3
 10
-163.3150634765999
 20
75.529830932600007
 30
0.0
 40
0.3374999762
 50
0.0
 51
89.999927372399995
  0
ARC
  5
332
  8
LAYER1$C$L1
 62
     3
 10
-164.26007080080001
 20
76.114913940400001
 30
0.0
 40
0.067499935627
 50
180.00003597220001
 51
270.00001798609998
  0
ARC
  5
333
  8
LAYER1$C$L1
 62
     3
 10
-164.26007080080001
 20
76.609909057600007
 30
0.0
 40
0.067499935627
 50
89.999927372399995
 51
179.9999640277999
  0
ARC
  5
334
  8
LAYER1$C$L1
 62
     3
 10
-162.64006042479991
 20
76.114913940400001
 30
0.0
 40
0.067499935627
 50
270.00001798609998
 51
0.0
  0
ARC
  5
335
  8
LAYER1$C$L1
 62
     3
 10
-162.64006042479991
 20
76.609909057600007
 30
0.0
 40
0.067499935627
 50
0.0
 51
89.999927372399995
  0
ARC
  5
336
  8
LAYER1$C$L1
 62
     3
 10
-164.99993896480001
 20
92.000167846699995
 30
0.0
 40
0.5
 50
90.000091296900024
 51
180.00001866929989
  0
ARC
  5
337
  8
LAYER1$C$L1
 62
     3
 10
-156.89996337889991
 20
91.2002410889
 30
0.0
 40
0.5999999046
 50
90.000091296900024
 51
242.9999350450999
  0
ARC
  5
338
  8
LAYER1$C$L1
 62
     3
 10
-164.99996948239991
 20
56.000167846700002
 30
0.0
 40
0.5
 50
180.00003597220001
 51
269.99996334460002
  0
ARC
  5
339
  8
LAYER1$C$L1
 62
     3
 10
-156.89999389649989
 20
56.800216674799998
 30
0.0
 40
0.5999999046
 50
117.00004765209989
 51
269.9999460416999
  0
ARC
  5
33A
  8
LAYER1$C$L1
 62
     3
 10
-158.63864135739999
 20
65.327438354500003
 30
0.0
 40
0.7999997139000001
 50
179.9999640277999
 51
206.9999750243999
  0
ARC
  5
33B
  8
LAYER1$C$L1
 62
     3
 10
-158.63864135739999
 20
82.673141479500003
 30
0.0
 40
0.7999997139000001
 50
153.00006231419999
 51
180.00007331079999
  0
ARC
  5
33C
  8
LAYER1$C$L1
 62
     3
 10
-165.79997253420001
 20
69.499984741199995
 30
0.0
 40
0.5
 50
179.9999640277999
 51
269.9999460416999
  0
ARC
  5
33D
  8
LAYER1$C$L1
 62
     3
 10
-165.79997253420001
 20
78.499984741199995
 30
0.0
 40
0.5
 50
89.999982013899995
 51
179.9999640277999
  0
ARC
  5
33E
  8
LAYER1$C$L1
 62
     3
 10
-172.0
 20
143.99998474119991
 30
0.0
 40
80.0
 50
346.65765917339991
 51
353.59079636969989
  0
ARC
  5
33F
  8
LAYER4$C$L4
  6
PHANTOM
 62
     3
 10
-160.59996032709989
 20
142.99996948239991
 30
0.0
 40
1.0
 50
0.0
 51
89.999982013899995
  0
ARC
  5
340
  8
LAYER4$C$L4
  6
PHANTOM
 62
     3
 10
-166.33084106449999
 20
134.40011596679989
 30
0.0
 40
2.1680212020999998
 50
295.00004031069989
 51
64.999959689300027
  0
ARC
  5
341
  8
LAYER1$C$L1
 62
     3
 10
-146.0
 20
129.7999877929999
 30
0.0
 40
0.5
 50
270.00001798609998
 51
0.0
  0
ARC
  5
342
  8
LAYER1$C$L1
 62
     3
 10
-165.2997131347999
 20
129.49999999999989
 30
0.0
 40
0.1999999881
 50
180.00003597220001
 51
270.00001798609998
  0
ARC
  5
343
  8
LAYER1$C$L1
 62
     3
 10
-160.62037658689999
 20
132.54830932620001
 30
0.0
 40
0.5
 50
149.99980609859989
 51
202.03470070540001
  0
ARC
  5
344
  8
LAYER1$C$L1
 62
     3
 10
-158.55937194820001
 20
135.91806030270001
 30
0.0
 40
0.5
 50
89.999818089400023
 51
149.99986074020001
  0
ARC
  5
345
  8
LAYER1$C$L1
 62
     3
 10
-158.7840728759999
 20
136.72886657709989
 30
0.0
 40
0.5
 50
89.999927372399995
 51
149.99991538169991
  0
ARC
  5
346
  8
LAYER1$C$L1
 62
     3
 10
-156.5997161864999
 20
136.60011291500001
 30
0.0
 40
0.5
 50
179.9999093863
 51
269.9999460416999
  0
ARC
  5
347
  8
LAYER1$C$L1
 62
     3
 10
-131.0
 20
62.499984741200002
 30
0.0
 40
0.5
 50
89.999927372399995
 51
179.9999640277999
  0
ARC
  5
348
  8
LAYER1$C$L1
 62
     3
 10
-132.0
 20
55.999984741200002
 30
0.0
 40
0.5
 50
270.00007262759988
 51
0.0
  0
ARC
  5
349
  8
LAYER1$C$L1
 62
     3
 10
-156.5997161864999
 20
133.10011291500001
 30
0.0
 40
0.5
 50
89.999927372399995
 51
179.99985474479999
  0
ARC
  5
34A
  8
LAYER1$C$L1
 62
     3
 10
-159.30410766599999
 20
135.19897460940001
 30
0.0
 40
3.2500247954999999
 50
71.506015402100005
 51
110.5385247727
  0
ARC
  5
34B
  8
LAYER1$C$L1
 62
     3
 10
-159.30410766599999
 20
134.5012664795
 30
0.0
 40
3.2500324249000001
 50
255.83005289249991
 51
288.49518671120001
  0
ARC
  5
34C
  8
LAYER1$C$L1
 62
     3
 10
-165.79997253420001
 20
140.84997558590001
 30
0.0
 40
0.5
 50
179.9999640277999
 51
269.9999460416999
  0
ARC
  5
34D
  8
LAYER1$C$L1
 62
     3
 10
-165.79997253420001
 20
147.1499786377
 30
0.0
 40
0.5
 50
89.999982013899995
 51
179.9999640277999
  0
ARC
  5
34E
  8
LAYER1$C$L1
 62
     3
 10
-125.3000030518
 20
144.0
 30
0.0
 40
1.0
 50
180.0000906137
 51
270.00007262759988
  0
ARC
  5
34F
  8
LAYER1$C$L1
 62
     3
 10
-132.0
 20
129.69999694820001
 30
0.0
 40
0.5
 50
270.00007262759988
 51
0.0
  0
ARC
  5
350
  8
LAYER1$C$L1
 62
     3
 10
-131.0
 20
132.49999999999989
 30
0.0
 40
0.5
 50
89.999927372399995
 51
179.9999640277999
  0
ARC
  5
351
  8
LAYER1$C$L1
 62
     3
 10
-132.0
 20
56.499984741200002
 30
0.0
 40
0.5
 50
270.00007262759988
 51
0.0
  0
ARC
  5
352
  8
LAYER1$C$L1
 62
     3
 10
-130.9999847412
 20
85.499984741199995
 30
0.0
 40
0.5
 50
179.9999093863
 51
269.9999460416999
  0
ARC
  5
353
  8
LAYER1$C$L1
 62
     3
 10
-131.9999847412
 20
91.999984741199995
 30
0.0
 40
0.5
 50
0.0
 51
89.999927372399995
  0
ARC
  5
354
  8
LAYER1$C$L1
 62
     3
 10
-131.9999847412
 20
91.499984741200024
 30
0.0
 40
0.5
 50
0.0
 51
89.999927372399995
  0
LINE
  5
355
  8
LAYER1$C$L1
 62
     3
 10
-72.250309547499995
 20
67.034988157100003
 30
0.0
 11
-72.250294288700005
 21
68.024947873900004
 31
0.0
  0
LINE
  5
356
  8
LAYER1$C$L1
 62
     3
 10
-85.504139500899996
 20
67.034978829300002
 30
0.0
 11
-85.504124242100005
 21
68.024938546100003
 31
0.0
  0
LINE
  5
357
  8
LAYER1$C$L1
 62
     3
 10
-159.9063495657999
 20
62.308290962799987
 30
0.0
 11
-160.439843459
 21
64.375445932799991
 31
0.0
  0
LINE
  5
358
  8
LAYER1$C$L1
 62
     3
 10
-160.65169537009999
 20
64.524600341300001
 30
0.0
 11
-161.0186945879
 21
64.491210393800003
 31
0.0
  0
LINE
  5
359
  8
LAYER1$C$L1
 62
     3
 10
-157.42984205350001
 20
60.090965134699999
 30
0.0
 11
-157.56604750409991
 21
60.358283408299997
 31
0.0
  0
LINE
  5
35A
  8
LAYER1$C$L1
 62
     3
 10
-156.07109387189999
 20
58.444337964500001
 30
0.0
 11
-157.4298774872
 21
60.0909868074
 31
0.0
  0
LINE
  5
35B
  8
LAYER1$C$L1
 62
     3
 10
-156.3176027076
 20
57.90798389439999
 30
0.0
 11
-156.07486286939999
 21
58.185277860900001
 31
0.0
  0
LINE
  5
35C
  8
LAYER1$C$L1
 62
     3
 10
-157.14036570019999
 20
57.899494480100003
 30
0.0
 11
-158.49914931549989
 21
59.546143323000003
 31
0.0
  0
LINE
  5
35D
  8
LAYER1$C$L1
 62
     3
 10
-157.3867819436
 20
57.363217671899989
 30
0.0
 11
-157.14404210539999
 21
57.6405116384
 31
0.0
  0
LINE
  5
35E
  8
LAYER1$C$L1
 62
     3
 10
-160.2150893868
 20
64.6763008928
 30
0.0
 11
-159.68050765149991
 21
64.948684943000003
 31
0.0
  0
LINE
  5
35F
  8
LAYER1$C$L1
 62
     3
 10
-156.76480834860001
 20
57.904649427299987
 30
0.0
 11
-156.2302259695
 21
58.1770321901
 31
0.0
  0
LINE
  5
360
  8
LAYER1$C$L1
 62
     3
 10
-161.9648888145999
 20
59.519756812499999
 30
0.0
 11
-160.28754759189999
 21
58.430478829799988
 31
0.0
  0
LINE
  5
361
  8
LAYER1$C$L1
 62
     3
 10
-161.9648179715999
 20
59.519777601599998
 30
0.0
 11
-161.9124820088999
 21
60.518407111999998
 31
0.0
  0
LINE
  5
362
  8
LAYER1$C$L1
 62
     3
 10
-158.7571827880999
 20
61.1542432245
 30
0.0
 11
-159.3246708623999
 21
62.268001386099989
 31
0.0
  0
LINE
  5
363
  8
LAYER1$C$L1
 62
     3
 10
-158.7571827880999
 20
61.1542432245
 30
0.0
 11
-158.18970856850001
 21
60.040512254200003
 31
0.0
  0
LINE
  5
364
  8
LAYER1$C$L1
 62
     3
 10
-159.3246708623999
 20
62.268001386099989
 30
0.0
 11
-159.77017412709989
 21
62.041006156400002
 31
0.0
  0
LINE
  5
365
  8
LAYER1$C$L1
 62
     3
 10
-158.18970856850001
 20
60.040512254200003
 30
0.0
 11
-158.63521183319989
 21
59.813517024500001
 31
0.0
  0
LINE
  5
366
  8
LAYER1$C$L1
 62
     3
 10
-157.12054423949999
 20
60.585278638000013
 30
0.0
 11
-158.25550653339991
 21
62.812767770000001
 31
0.0
  0
LINE
  5
367
  8
LAYER1$C$L1
 62
     3
 10
-158.25550653339991
 20
62.812767770000001
 30
0.0
 11
-158.70100979809999
 21
62.585772540299999
 31
0.0
  0
LINE
  5
368
  8
LAYER1$C$L1
 62
     3
 10
-157.12054423949999
 20
60.585278638000013
 30
0.0
 11
-157.56604750409991
 21
60.358283408299997
 31
0.0
  0
LINE
  5
369
  8
LAYER1$C$L1
 62
     3
 10
-159.2027897092
 20
60.927147076399997
 30
0.0
 11
-160.27877980860001
 21
61.276757385799989
 31
0.0
  0
LINE
  5
36A
  8
LAYER1$C$L1
 62
     3
 10
-159.73398780170001
 20
60.207566784299999
 30
0.0
 11
-158.65798319020001
 21
59.857951759700001
 31
0.0
  0
LINE
  5
36B
  8
LAYER1$C$L1
 62
     3
 10
-159.27021815009999
 20
57.064331076199998
 30
0.0
 11
-158.3265522095999
 21
57.445596875900002
 31
0.0
  0
LINE
  5
36C
  8
LAYER1$C$L1
 62
     3
 10
-161.5045301717
 20
63.682547648800004
 30
0.0
 11
-162.36769240090001
 21
63.143184080799998
 31
0.0
  0
LINE
  5
36D
  8
LAYER1$C$L1
 62
     3
 10
-161.5045013905
 20
63.682556312400003
 30
0.0
 11
-158.32658202909991
 21
57.445537798399997
 31
0.0
  0
LINE
  5
36E
  8
LAYER1$C$L1
 62
     3
 10
-161.01864789049989
 20
64.491274112100001
 30
0.0
 11
-159.9494835614999
 21
65.036040495899996
 31
0.0
  0
LINE
  5
36F
  8
LAYER1$C$L1
 62
     3
 10
-157.3867380696999
 20
57.363249068800002
 30
0.0
 11
-161.01864789049989
 21
64.491274112100001
 31
0.0
  0
LINE
  5
370
  8
LAYER1$C$L1
 62
     3
 10
-157.3867380696999
 20
57.363249068800002
 30
0.0
 11
-156.3175737407
 21
57.908015452599997
 31
0.0
  0
LINE
  5
371
  8
LAYER1$C$L1
 62
     3
 10
-163.65257263180001
 20
72.357345581099992
 30
0.0
 11
-163.78756713870001
 21
72.357345581099992
 31
0.0
  0
LINE
  5
372
  8
LAYER1$C$L1
 62
     3
 10
-163.78756713870001
 20
71.3223114014
 30
0.0
 11
-164.26007080080001
 21
71.3223114014
 31
0.0
  0
LINE
  5
373
  8
LAYER1$C$L1
 62
     3
 10
-163.65257263180001
 20
72.357345581099992
 30
0.0
 11
-163.65257263180001
 21
71.3223114014
 31
0.0
  0
LINE
  5
374
  8
LAYER1$C$L1
 62
     3
 10
-163.78756713870001
 20
72.357345581099992
 30
0.0
 11
-163.78756713870001
 21
71.3223114014
 31
0.0
  0
LINE
  5
375
  8
LAYER1$C$L1
 62
     3
 10
-164.3275604248
 20
72.334884643599992
 30
0.0
 11
-164.3275604248
 21
71.389816284199995
 31
0.0
  0
LINE
  5
376
  8
LAYER1$C$L1
 62
     3
 10
-163.45005798339989
 20
72.672409057600007
 30
0.0
 11
-163.99006652829991
 21
72.672409057600007
 31
0.0
  0
LINE
  5
377
  8
LAYER1$C$L1
 62
     3
 10
-163.9225616455
 20
72.852340698199995
 30
0.0
 11
-164.26007080080001
 21
72.852340698199995
 31
0.0
  0
LINE
  5
378
  8
LAYER1$C$L1
 62
     3
 10
-163.42756652829991
 20
73.482345581099992
 30
0.0
 11
-163.78756713870001
 21
73.482345581099992
 31
0.0
  0
LINE
  5
379
  8
LAYER1$C$L1
 62
     3
 10
-163.42756652829991
 20
73.617355346699995
 30
0.0
 11
-163.9225616455
 21
73.617355346699995
 31
0.0
  0
LINE
  5
37A
  8
LAYER1$C$L1
 62
     3
 10
-163.42756652829991
 20
73.617355346699995
 30
0.0
 11
-163.42756652829991
 21
73.482345581099992
 31
0.0
  0
LINE
  5
37B
  8
LAYER1$C$L1
 62
     3
 10
-163.78756713870001
 20
73.482345581099992
 30
0.0
 11
-163.78756713870001
 21
72.852340698199995
 31
0.0
  0
LINE
  5
37C
  8
LAYER1$C$L1
 62
     3
 10
-163.9225616455
 20
73.617355346699995
 30
0.0
 11
-163.9225616455
 21
72.852340698199995
 31
0.0
  0
LINE
  5
37D
  8
LAYER1$C$L1
 62
     3
 10
-164.3275604248
 20
73.954879760699995
 30
0.0
 11
-164.3275604248
 21
72.919845581099992
 31
0.0
  0
LINE
  5
37E
  8
LAYER1$C$L1
 62
     3
 10
-163.1800689696999
 20
72.852340698199995
 30
0.0
 11
-163.78756713870001
 21
72.852340698199995
 31
0.0
  0
LINE
  5
37F
  8
LAYER1$C$L1
 62
     3
 10
-163.11256408689999
 20
72.334884643599992
 30
0.0
 11
-163.11256408689999
 21
71.389816284199995
 31
0.0
  0
LINE
  5
380
  8
LAYER1$C$L1
 62
     3
 10
-163.11256408689999
 20
73.954879760699995
 30
0.0
 11
-163.11256408689999
 21
72.919845581099992
 31
0.0
  0
LINE
  5
381
  8
LAYER1$C$L1
 62
     3
 10
-163.45005798339989
 20
74.292404174799984
 30
0.0
 11
-163.99006652829991
 21
74.292404174799984
 31
0.0
  0
LINE
  5
382
  8
LAYER1$C$L1
 62
     3
 10
-162.64006042479991
 20
74.472335815400001
 30
0.0
 11
-164.26007080080001
 21
74.472335815400001
 31
0.0
  0
LINE
  5
383
  8
LAYER1$C$L1
 62
     3
 10
-163.65257263180001
 20
75.2373504639
 30
0.0
 11
-163.65257263180001
 21
75.102340698199995
 31
0.0
  0
LINE
  5
384
  8
LAYER1$C$L1
 62
     3
 10
-162.64006042479991
 20
75.102340698199995
 30
0.0
 11
-163.65257263180001
 21
75.102340698199995
 31
0.0
  0
LINE
  5
385
  8
LAYER1$C$L1
 62
     3
 10
-162.97756958010001
 20
75.2373504639
 30
0.0
 11
-163.65257263180001
 21
75.2373504639
 31
0.0
  0
LINE
  5
386
  8
LAYER1$C$L1
 62
     3
 10
-163.3150634765999
 20
75.867355346699995
 30
0.0
 11
-163.99006652829991
 21
75.867355346699995
 31
0.0
  0
LINE
  5
387
  8
LAYER1$C$L1
 62
     3
 10
-162.97756958010001
 20
76.677413940400001
 30
0.0
 11
-164.26007080080001
 21
76.677413940400001
 31
0.0
  0
LINE
  5
388
  8
LAYER1$C$L1
 62
     3
 10
-162.97756958010001
 20
76.047409057600007
 30
0.0
 11
-164.26007080080001
 21
76.047409057600007
 31
0.0
  0
LINE
  5
389
  8
LAYER1$C$L1
 62
     3
 10
-162.57257080080001
 20
75.034835815400001
 30
0.0
 11
-162.57257080080001
 21
74.539840698199995
 31
0.0
  0
LINE
  5
38A
  8
LAYER1$C$L1
 62
     3
 10
-164.3275604248
 20
75.529830932600007
 30
0.0
 11
-164.3275604248
 21
74.539840698199995
 31
0.0
  0
LINE
  5
38B
  8
LAYER1$C$L1
 62
     3
 10
-162.97756958010001
 20
75.529830932600007
 30
0.0
 11
-162.97756958010001
 21
75.2373504639
 31
0.0
  0
LINE
  5
38C
  8
LAYER1$C$L1
 62
     3
 10
-162.84255981449999
 20
76.677413940400001
 30
0.0
 11
-162.84255981449999
 21
76.047409057600007
 31
0.0
  0
LINE
  5
38D
  8
LAYER1$C$L1
 62
     3
 10
-162.97756958010001
 20
76.677413940400001
 30
0.0
 11
-162.97756958010001
 21
76.047409057600007
 31
0.0
  0
LINE
  5
38E
  8
LAYER1$C$L1
 62
     3
 10
-162.64006042479991
 20
76.047409057600007
 30
0.0
 11
-162.84255981449999
 21
76.047409057600007
 31
0.0
  0
LINE
  5
38F
  8
LAYER1$C$L1
 62
     3
 10
-162.57257080080001
 20
76.609909057600007
 30
0.0
 11
-162.57257080080001
 21
76.114913940400001
 31
0.0
  0
LINE
  5
390
  8
LAYER1$C$L1
 62
     3
 10
-164.3275604248
 20
76.609909057600007
 30
0.0
 11
-164.3275604248
 21
76.114913940400001
 31
0.0
  0
LINE
  5
391
  8
LAYER1$C$L1
 62
     3
 10
-162.64006042479991
 20
76.677413940400001
 30
0.0
 11
-162.84255981449999
 21
76.677413940400001
 31
0.0
  0
LINE
  5
392
  8
LAYER1$C$L1
 62
     3
 10
-163.1800689696999
 20
71.3223114014
 30
0.0
 11
-163.65257263180001
 21
71.3223114014
 31
0.0
  0
LINE
  5
393
  8
LAYER1$C$L1
 62
     3
 10
-162.20008850100001
 20
70.999801635699995
 30
0.0
 11
-164.70008850100001
 21
70.999801635699995
 31
0.0
  0
LINE
  5
394
  8
LAYER1$C$L1
 62
     3
 10
-162.20008850100001
 20
76.999801635699995
 30
0.0
 11
-164.70008850100001
 21
76.999801635699995
 31
0.0
  0
LINE
  5
395
  8
LAYER1$C$L1
 62
     3
 10
-159.70008850100001
 20
67.999801635699995
 30
0.0
 11
-159.70008850100001
 21
79.999786376999992
 31
0.0
  0
LINE
  5
396
  8
LAYER1$C$L1
 62
     3
 10
-161.70008850100001
 20
67.999801635699995
 30
0.0
 11
-161.70008850100001
 21
79.999786376999992
 31
0.0
  0
LINE
  5
397
  8
LAYER1$C$L1
 62
     3
 10
-162.20008850100001
 20
70.999801635699995
 30
0.0
 11
-162.20008850100001
 21
76.999801635699995
 31
0.0
  0
LINE
  5
398
  8
LAYER1$C$L1
 62
     3
 10
-159.70008850100001
 20
79.999786376999992
 30
0.0
 11
-161.70008850100001
 21
79.999786376999992
 31
0.0
  0
LINE
  5
399
  8
LAYER1$C$L1
 62
     3
 10
-159.70008850100001
 20
67.999801635699995
 30
0.0
 11
-161.70008850100001
 21
67.999801635699995
 31
0.0
  0
LINE
  5
39A
  8
LAYER1$C$L1
 62
     3
 10
-164.70008850100001
 20
70.999801635699995
 30
0.0
 11
-164.70008850100001
 21
76.999801635699995
 31
0.0
  0
LINE
  5
39B
  8
LAYER1$C$L1
 62
     3
 10
-160.10002136229991
 20
81.899810790999993
 30
0.0
 11
-159.40003967289999
 21
81.899810790999993
 31
0.0
  0
LINE
  5
39C
  8
LAYER1$C$L1
 62
     3
 10
-159.40003967289999
 20
66.099899292000003
 30
0.0
 11
-160.10002136229991
 21
66.099899292000003
 31
0.0
  0
LINE
  5
39D
  8
LAYER1$C$L1
 62
     3
 10
-163.4255302743
 20
83.999417433399984
 30
0.0
 11
-159.43870567909991
 21
81.968029031499995
 31
0.0
  0
LINE
  5
39E
  8
LAYER1$C$L1
 62
     3
 10
-160.10000610349991
 20
80.799789428699995
 30
0.0
 11
-160.10000610349991
 21
82.305145263699984
 31
0.0
  0
LINE
  5
39F
  8
LAYER1$C$L1
 62
     3
 10
-160.10000610349991
 20
65.694488525400004
 30
0.0
 11
-160.10000610349991
 21
67.199859619099996
 31
0.0
  0
LINE
  5
3A0
  8
LAYER1$C$L1
 62
     3
 10
-164.70007324220001
 20
80.099838256799998
 30
0.0
 11
-165.5
 21
80.099838256799998
 31
0.0
  0
LINE
  5
3A1
  8
LAYER1$C$L1
 62
     3
 10
-164.70007324220001
 20
67.899810791000007
 30
0.0
 11
-165.5
 21
67.899810791000007
 31
0.0
  0
LINE
  5
3A2
  8
LAYER1$C$L1
 62
     3
 10
-164.70007324220001
 20
77.399765014600007
 30
0.0
 11
-165.5
 21
77.399765014600007
 31
0.0
  0
LINE
  5
3A3
  8
LAYER1$C$L1
 62
     3
 10
-164.70007324220001
 20
70.599884033199999
 30
0.0
 11
-165.5
 21
70.599884033199999
 31
0.0
  0
LINE
  5
3A4
  8
LAYER1$C$L1
 62
     3
 10
-165.5
 20
80.799789428699995
 30
0.0
 11
-160.10000610349991
 21
80.799789428699995
 31
0.0
  0
LINE
  5
3A5
  8
LAYER1$C$L1
 62
     3
 10
-165.5
 20
80.699813842799998
 30
0.0
 11
-160.0000152588
 21
80.699813842799998
 31
0.0
  0
LINE
  5
3A6
  8
LAYER1$C$L1
 62
     3
 10
-165.5
 20
86.899749755900004
 30
0.0
 11
-162.5898895263999
 21
86.899749755900004
 31
0.0
  0
LINE
  5
3A7
  8
LAYER1$C$L1
 62
     3
 10
-165.5
 20
83.999725341799987
 30
0.0
 11
-163.4252166748
 21
83.999725341799987
 31
0.0
  0
LINE
  5
3A8
  8
LAYER1$C$L1
 62
     3
 10
-160.10000610349991
 20
67.199859619099996
 30
0.0
 11
-165.5
 21
67.199859619099996
 31
0.0
  0
LINE
  5
3A9
  8
LAYER1$C$L1
 62
     3
 10
-160.0
 20
67.299835205099996
 30
0.0
 11
-165.5
 21
67.299835205099996
 31
0.0
  0
LINE
  5
3AA
  8
LAYER1$C$L1
 62
     3
 10
-162.58978271480001
 20
61.099807739300012
 30
0.0
 11
-165.5
 21
61.099807739300012
 31
0.0
  0
LINE
  5
3AB
  8
LAYER1$C$L1
 62
     3
 10
-159.4387146430999
 20
66.031669405399995
 30
0.0
 11
-163.42551204700001
 21
64.000294858100006
 31
0.0
  0
LINE
  5
3AC
  8
LAYER1$C$L1
 62
     3
 10
-165.5
 20
56.000167846700002
 30
0.0
 11
-165.5
 21
92.000167846699995
 31
0.0
  0
LINE
  5
3AD
  8
LAYER1$C$L1
 62
     3
 10
-163.4252166748
 20
63.999786377
 30
0.0
 11
-165.5
 21
63.999786377
 31
0.0
  0
LINE
  5
3AE
  8
LAYER1$C$L1
 62
     3
 10
-154.6617431640999
 20
55.500091552699999
 30
0.0
 11
-154.6617431640999
 21
56.200531005899997
 31
0.0
  0
LINE
  5
3AF
  8
LAYER1$C$L1
 62
     3
 10
-154.66210937499989
 20
91.800018310499993
 30
0.0
 11
-154.66210937499989
 21
92.499969482400004
 31
0.0
  0
LINE
  5
3B0
  8
LAYER1$C$L1
 62
     3
 10
-164.70007324220001
 20
77.400009155299998
 30
0.0
 11
-164.70007324220001
 21
80.099960327100007
 31
0.0
  0
LINE
  5
3B1
  8
LAYER1$C$L1
 62
     3
 10
-165.4999847412
 20
80.099960327100007
 30
0.0
 11
-164.70007324220001
 21
80.099960327100007
 31
0.0
  0
LINE
  5
3B2
  8
LAYER1$C$L1
 62
     3
 10
-165.4999847412
 20
77.400009155299998
 30
0.0
 11
-164.70007324220001
 21
77.400009155299998
 31
0.0
  0
LINE
  5
3B3
  8
LAYER1$C$L1
 62
     3
 10
-164.70007324220001
 20
67.900054931599996
 30
0.0
 11
-164.70007324220001
 21
70.600128173800002
 31
0.0
  0
LINE
  5
3B4
  8
LAYER1$C$L1
 62
     3
 10
-164.70007324220001
 20
67.900054931599996
 30
0.0
 11
-165.4999847412
 21
67.900054931599996
 31
0.0
  0
LINE
  5
3B5
  8
LAYER1$C$L1
 62
     3
 10
-164.70007324220001
 20
70.600128173800002
 30
0.0
 11
-165.4999847412
 21
70.600128173800002
 31
0.0
  0
LINE
  5
3B6
  8
LAYER1$C$L1
 62
     3
 10
-145.5006474114
 20
88.254550597199994
 30
0.0
 11
-153.8332769546999
 21
92.500237009299994
 31
0.0
  0
LINE
  5
3B7
  8
LAYER1$C$L1
 62
     3
 10
-145.50065090140001
 20
87.132226175100001
 30
0.0
 11
-154.66218190469999
 21
91.800258936299997
 31
0.0
  0
LINE
  5
3B8
  8
LAYER1$C$L1
 62
     3
 10
-153.83299477339989
 20
55.500637761999997
 30
0.0
 11
-145.50036523009999
 21
59.746324174099989
 31
0.0
  0
LINE
  5
3B9
  8
LAYER1$C$L1
 62
     3
 10
-154.66189972340001
 20
56.200615835100002
 30
0.0
 11
-145.50036872019999
 21
60.868648596299998
 31
0.0
  0
LINE
  5
3BA
  8
LAYER1$C$L1
 62
     3
 10
-165.0
 20
92.499969482400004
 30
0.0
 11
-145.5
 21
92.499969482400004
 31
0.0
  0
LINE
  5
3BB
  8
LAYER1$C$L1
 62
     3
 10
-156.0005763913
 20
90.068354176599996
 30
0.0
 11
-157.1729591280999
 21
90.665712960999997
 31
0.0
  0
LINE
  5
3BC
  8
LAYER1$C$L1
 62
     3
 10
-156.0
 20
89.172821044900004
 30
0.0
 11
-156.0
 21
90.067962646499993
 31
0.0
  0
LINE
  5
3BD
  8
LAYER1$C$L1
 62
     3
 10
-156.9000244140999
 20
91.800018310499993
 30
0.0
 11
-154.66149902340001
 21
91.800018310499993
 31
0.0
  0
LINE
  5
3BE
  8
LAYER1$C$L1
 62
     3
 10
-159.40059899260001
 20
82.500322017900004
 30
0.0
 11
-156.00060238329999
 21
89.173191712900007
 31
0.0
  0
LINE
  5
3BF
  8
LAYER1$C$L1
 62
     3
 10
-159.4000244140999
 20
80.700057983400001
 30
0.0
 11
-159.4000244140999
 21
82.499969482400004
 31
0.0
  0
LINE
  5
3C0
  8
LAYER1$C$L1
 62
     3
 10
-165.4999847412
 20
80.700057983400001
 30
0.0
 11
-159.4000244140999
 21
80.700057983400001
 31
0.0
  0
LINE
  5
3C1
  8
LAYER1$C$L1
 62
     3
 10
-148.00044644559989
 20
80.600351122600003
 30
0.0
 11
-147.6003688079999
 21
81.000429704399977
 31
0.0
  0
LINE
  5
3C2
  8
LAYER1$C$L1
 62
     3
 10
-148.00028659040001
 20
77.600349961299983
 30
0.0
 11
-147.60029479740001
 21
77.200358168299999
 31
0.0
  0
LINE
  5
3C3
  8
LAYER1$C$L1
 62
     3
 10
-159.10038853430001
 20
77.200362501599983
 30
0.0
 11
-158.70030995249991
 21
77.600440139100002
 31
0.0
  0
LINE
  5
3C4
  8
LAYER1$C$L1
 62
     3
 10
-159.10027463689991
 20
81.000366518199996
 30
0.0
 11
-158.7002828439
 21
80.600374725199984
 31
0.0
  0
LINE
  5
3C5
  8
LAYER1$C$L1
 62
     3
 10
-148.0
 20
77.600082397500003
 30
0.0
 11
-148.0
 21
80.600082397500003
 31
0.0
  0
LINE
  5
3C6
  8
LAYER1$C$L1
 62
     3
 10
-158.70007324220001
 20
77.600082397500003
 30
0.0
 11
-158.70007324220001
 21
80.600082397500003
 31
0.0
  0
LINE
  5
3C7
  8
LAYER1$C$L1
 62
     3
 10
-159.10009765629991
 20
77.200057983400001
 30
0.0
 11
-159.10009765629991
 21
80.999984741199995
 31
0.0
  0
LINE
  5
3C8
  8
LAYER1$C$L1
 62
     3
 10
-147.60009765629999
 20
77.200057983400001
 30
0.0
 11
-147.60009765629999
 21
80.999984741199995
 31
0.0
  0
LINE
  5
3C9
  8
LAYER1$C$L1
 62
     3
 10
-158.70007324220001
 20
80.600082397500003
 30
0.0
 11
-148.0
 21
80.600082397500003
 31
0.0
  0
LINE
  5
3CA
  8
LAYER1$C$L1
 62
     3
 10
-158.70007324220001
 20
77.600082397500003
 30
0.0
 11
-148.0
 21
77.600082397500003
 31
0.0
  0
LINE
  5
3CB
  8
LAYER1$C$L1
 62
     3
 10
-159.10009765629991
 20
80.999984741199995
 30
0.0
 11
-147.60009765629999
 21
80.999984741199995
 31
0.0
  0
LINE
  5
3CC
  8
LAYER1$C$L1
 62
     3
 10
-159.10009765629991
 20
77.200057983400001
 30
0.0
 11
-147.60009765629999
 21
77.200057983400001
 31
0.0
  0
LINE
  5
3CD
  8
LAYER1$C$L1
 62
     3
 10
-145.5
 20
55.500091552699999
 30
0.0
 11
-165.0
 21
55.500091552699999
 31
0.0
  0
LINE
  5
3CE
  8
LAYER1$C$L1
 62
     3
 10
-157.17273929289999
 20
57.335284171399998
 30
0.0
 11
-156.00035655619999
 21
57.9326429559
 31
0.0
  0
LINE
  5
3CF
  8
LAYER1$C$L1
 62
     3
 10
-156.0
 20
57.932098388699998
 30
0.0
 11
-156.0
 21
58.827239990200013
 31
0.0
  0
LINE
  5
3D0
  8
LAYER1$C$L1
 62
     3
 10
-154.66149902340001
 20
56.200164794899997
 30
0.0
 11
-156.9000244140999
 21
56.200164794899997
 31
0.0
  0
LINE
  5
3D1
  8
LAYER1$C$L1
 62
     3
 10
-156.00038254809999
 20
58.827805419499988
 30
0.0
 11
-159.40037179719991
 21
65.500660669200002
 31
0.0
  0
LINE
  5
3D2
  8
LAYER1$C$L1
 62
     3
 10
-159.4000244140999
 20
65.500152587900004
 30
0.0
 11
-159.4000244140999
 21
67.300079345699999
 31
0.0
  0
LINE
  5
3D3
  8
LAYER1$C$L1
 62
     3
 10
-159.4000244140999
 20
67.300079345699999
 30
0.0
 11
-165.4999847412
 21
67.300079345699999
 31
0.0
  0
LINE
  5
3D4
  8
LAYER1$C$L1
 62
     3
 10
-147.6003559943
 20
67.000407155399998
 30
0.0
 11
-148.00034731529999
 21
67.400399420400007
 31
0.0
  0
LINE
  5
3D5
  8
LAYER1$C$L1
 62
     3
 10
-147.60029479740001
 20
70.800316847399984
 30
0.0
 11
-148.00028659040001
 21
70.400325054500001
 31
0.0
  0
LINE
  5
3D6
  8
LAYER1$C$L1
 62
     3
 10
-158.7003335556999
 20
70.40038593109999
 30
0.0
 11
-159.10032582069991
 21
70.800377252000004
 31
0.0
  0
LINE
  5
3D7
  8
LAYER1$C$L1
 62
     3
 10
-158.70036916070001
 20
67.400386607200005
 30
0.0
 11
-159.10036095359999
 21
67.000394814300009
 31
0.0
  0
LINE
  5
3D8
  8
LAYER1$C$L1
 62
     3
 10
-148.0
 20
67.400054931599996
 30
0.0
 11
-148.0
 21
70.400054931599996
 31
0.0
  0
LINE
  5
3D9
  8
LAYER1$C$L1
 62
     3
 10
-158.70007324220001
 20
67.400054931599996
 30
0.0
 11
-158.70007324220001
 21
70.400054931599996
 31
0.0
  0
LINE
  5
3DA
  8
LAYER1$C$L1
 62
     3
 10
-159.10009765629991
 20
67.000030517599996
 30
0.0
 11
-159.10009765629991
 21
70.800079345699999
 31
0.0
  0
LINE
  5
3DB
  8
LAYER1$C$L1
 62
     3
 10
-147.60009765629999
 20
67.000030517599996
 30
0.0
 11
-147.60009765629999
 21
70.800079345699999
 31
0.0
  0
LINE
  5
3DC
  8
LAYER1$C$L1
 62
     3
 10
-148.0
 20
67.400054931599996
 30
0.0
 11
-158.70007324220001
 21
67.400054931599996
 31
0.0
  0
LINE
  5
3DD
  8
LAYER1$C$L1
 62
     3
 10
-148.0
 20
70.400054931599996
 30
0.0
 11
-158.70007324220001
 21
70.400054931599996
 31
0.0
  0
LINE
  5
3DE
  8
LAYER1$C$L1
 62
     3
 10
-147.60009765629999
 20
67.000030517599996
 30
0.0
 11
-159.10009765629991
 21
67.000030517599996
 31
0.0
  0
LINE
  5
3DF
  8
LAYER1$C$L1
 62
     3
 10
-147.60009765629999
 20
70.800079345699999
 30
0.0
 11
-159.10009765629991
 21
70.800079345699999
 31
0.0
  0
LINE
  5
3E0
  8
LAYER1$C$L1
 62
     3
 10
-156.00002060389991
 20
58.386395854200011
 30
0.0
 11
-159.35159464119991
 21
64.964230891599996
 31
0.0
  0
LINE
  5
3E1
  8
LAYER1$C$L1
 62
     3
 10
-159.43867492679991
 20
65.327316284199995
 30
0.0
 11
-159.43867492679991
 21
67.299972534199995
 31
0.0
  0
LINE
  5
3E2
  8
LAYER1$C$L1
 62
     3
 10
-159.3515596995
 20
83.036224347100003
 30
0.0
 11
-156.00005450270001
 21
89.613924277399988
 31
0.0
  0
LINE
  5
3E3
  8
LAYER1$C$L1
 62
     3
 10
-159.4386596679999
 20
80.699935913100006
 30
0.0
 11
-159.4386596679999
 21
82.673080444299998
 31
0.0
  0
LINE
  5
3EB
  8
LAYER1$C$L1
 62
     3
 10
-166.29997253420001
 20
75.999969482400004
 30
0.0
 11
-165.4999847412
 21
75.999969482400004
 31
0.0
  0
LINE
  5
3EC
  8
LAYER1$C$L1
 62
     3
 10
-165.4999847412
 20
71.999969482400004
 30
0.0
 11
-166.29997253420001
 21
71.999969482400004
 31
0.0
  0
LINE
  5
3ED
  8
LAYER1$C$L1
 62
     3
 10
-165.4999847412
 20
78.999969482400004
 30
0.0
 11
-165.4999847412
 21
68.999969482400004
 31
0.0
  0
LINE
  5
3EE
  8
LAYER1$C$L1
 62
     3
 10
-165.79997253420001
 20
78.999969482400004
 30
0.0
 11
-165.4999847412
 21
78.999969482400004
 31
0.0
  0
LINE
  5
3EF
  8
LAYER1$C$L1
 62
     3
 10
-166.29997253420001
 20
69.499969482400004
 30
0.0
 11
-166.29997253420001
 21
78.499969482400004
 31
0.0
  0
LINE
  5
3F0
  8
LAYER1$C$L1
 62
     3
 10
-165.4999847412
 20
68.999969482400004
 30
0.0
 11
-165.79997253420001
 21
68.999969482400004
 31
0.0
  0
LINE
  5
3F3
  8
LAYER1$C$L1
 62
     3
 10
-117.0
 20
62.9999542236
 30
0.0
 11
-119.0
 21
62.9999542236
 31
0.0
  0
LINE
  5
3F4
  8
LAYER1$C$L1
 62
     3
 10
-126.3000030518
 20
62.799957275399997
 30
0.0
 11
-130.0000152588
 21
62.799957275399997
 31
0.0
  0
LINE
  5
3F5
  8
LAYER1$C$L1
 62
     3
 10
-126.3000030518
 20
61.9999542236
 30
0.0
 11
-130.0000152588
 21
61.9999542236
 31
0.0
  0
LINE
  5
3F6
  8
LAYER1$C$L1
 62
     3
 10
-122.6800079345999
 20
71.899963378899997
 30
0.0
 11
-123.8000030518
 21
71.899963378899997
 31
0.0
  0
LINE
  5
3F7
  8
LAYER1$C$L1
 62
     3
 10
-121.2933502196999
 20
69.299957275400004
 30
0.0
 11
-123.8000030518
 21
69.299957275400004
 31
0.0
  0
LINE
  5
3F8
  8
LAYER1$C$L1
 62
     3
 10
-120.0666809082
 20
66.999969482400004
 30
0.0
 11
-123.8000030518
 21
66.999969482400004
 31
0.0
  0
LINE
  5
3F9
  8
LAYER1$C$L1
 62
     3
 10
-119.0
 20
64.999969482400004
 30
0.0
 11
-123.8000030518
 21
64.999969482400004
 31
0.0
  0
LINE
  5
3FA
  8
LAYER1$C$L1
 62
     3
 10
-119.0
 20
63.299957275399997
 30
0.0
 11
-123.8000030518
 21
63.299957275399997
 31
0.0
  0
LINE
  5
3FB
  8
LAYER1$C$L1
 62
     3
 10
-119.0
 20
61.899963378900011
 30
0.0
 11
-123.8000030518
 21
61.899963378900011
 31
0.0
  0
LINE
  5
3FC
  8
LAYER1$C$L1
 62
     3
 10
-119.0
 20
60.799957275399997
 30
0.0
 11
-123.8000030518
 21
60.799957275399997
 31
0.0
  0
LINE
  5
3FD
  8
LAYER1$C$L1
 62
     3
 10
-119.0
 20
59.9999542236
 30
0.0
 11
-123.8000030518
 21
59.9999542236
 31
0.0
  0
LINE
  5
3FE
  8
LAYER1$C$L1
 62
     3
 10
-123.8000030518
 20
59.9999542236
 30
0.0
 11
-126.3000030518
 21
59.9999542236
 31
0.0
  0
LINE
  5
3FF
  8
LAYER1$C$L1
 62
     3
 10
-119.0
 20
59.4999542236
 30
0.0
 11
-123.8000030518
 21
59.4999542236
 31
0.0
  0
LINE
  5
400
  8
LAYER1$C$L1
 62
     3
 10
-123.8000030518
 20
73.999954223599985
 30
0.0
 11
-123.8000030518
 21
59.4999542236
 31
0.0
  0
LINE
  5
401
  8
LAYER1$C$L1
 62
     3
 10
-126.3000030518
 20
73.999954223599985
 30
0.0
 11
-126.3000030518
 21
59.9999542236
 31
0.0
  0
LINE
  5
402
  8
LAYER1$C$L1
 62
     3
 10
-119.0
 20
73.999954223599985
 30
0.0
 11
-119.0
 21
59.4999542236
 31
0.0
  0
LINE
  5
403
  8
LAYER1$C$L1
 62
     3
 10
-131.49999999999989
 20
73.999954223599985
 30
0.0
 11
-131.49999999999989
 21
62.4999542236
 31
0.0
  0
LINE
  5
404
  8
LAYER1$C$L1
 62
     3
 10
-130.0000152588
 20
62.9999542236
 30
0.0
 11
-131.0
 21
62.9999542236
 31
0.0
  0
LINE
  5
405
  8
LAYER1$C$L1
 62
     3
 10
-130.0000152588
 20
73.999954223599985
 30
0.0
 11
-130.0000152588
 21
61.9999542236
 31
0.0
  0
LINE
  5
406
  8
LAYER1$C$L1
 62
     3
 10
-132.0
 20
55.9999542236
 30
0.0
 11
-145.5
 21
55.9999542236
 31
0.0
  0
LINE
  5
407
  8
LAYER1$C$L1
 62
     3
 10
-132.0
 20
55.4999542236
 30
0.0
 11
-145.5
 21
55.4999542236
 31
0.0
  0
LINE
  5
408
  8
LAYER1$C$L1
 62
     3
 10
-131.49999999999989
 20
62.4999542236
 30
0.0
 11
-131.49999999999989
 21
55.9999542236
 31
0.0
  0
LINE
  5
409
  8
LAYER1$C$L1
 62
     3
 10
-145.5
 20
73.999954223599985
 30
0.0
 11
-145.5
 21
55.4999542236
 31
0.0
  0
LINE
  5
40A
  8
LAYER1$C$L1
 62
     3
 10
-120.120010376
 20
76.099960327100007
 30
0.0
 11
-119.0
 21
76.099960327100007
 31
0.0
  0
LINE
  5
40B
  8
LAYER1$C$L1
 62
     3
 10
-121.5066833495999
 20
78.699966430700002
 30
0.0
 11
-119.0
 21
78.699966430700002
 31
0.0
  0
LINE
  5
40C
  8
LAYER1$C$L1
 62
     3
 10
-122.7333526610999
 20
80.999954223600014
 30
0.0
 11
-119.0
 21
80.999954223600014
 31
0.0
  0
LINE
  5
40D
  8
LAYER1$C$L1
 62
     3
 10
-123.8000030518
 20
82.9999542236
 30
0.0
 11
-119.0
 21
82.9999542236
 31
0.0
  0
LINE
  5
40E
  8
LAYER1$C$L1
 62
     3
 10
-123.8000030518
 20
84.699966430700002
 30
0.0
 11
-119.0
 21
84.699966430700002
 31
0.0
  0
LINE
  5
40F
  8
LAYER1$C$L1
 62
     3
 10
-123.8000030518
 20
86.099960327099978
 30
0.0
 11
-119.0
 21
86.099960327099978
 31
0.0
  0
LINE
  5
410
  8
LAYER1$C$L1
 62
     3
 10
-163.42581176760001
 20
138.70004272459991
 30
0.0
 11
-163.42581176760001
 21
129.29997253420001
 31
0.0
  0
LINE
  5
411
  8
LAYER1$C$L1
 62
     3
 10
-154.66107177730001
 20
137.69989013669991
 30
0.0
 11
-145.49966430660001
 21
137.69989013669991
 31
0.0
  0
LINE
  5
412
  8
LAYER1$C$L1
 62
     3
 10
-156.99961853030001
 20
130.59997558590001
 30
0.0
 11
-156.99961853030001
 21
129.2999877929999
 31
0.0
  0
LINE
  5
413
  8
LAYER1$C$L1
 62
     3
 10
-154.66107177730001
 20
130.59991455080001
 30
0.0
 11
-159.49961853030001
 21
130.59991455080001
 31
0.0
  0
LINE
  5
414
  8
LAYER1$C$L1
 62
     3
 10
-145.99996948239991
 20
129.29992675779991
 30
0.0
 11
-165.49964904789999
 21
129.29992675779991
 31
0.0
  0
LINE
  5
415
  8
LAYER1$C$L1
 62
     3
 10
-154.66108703610001
 20
129.2999114989999
 30
0.0
 11
-154.66108703610001
 21
138.70001220699999
 31
0.0
  0
LINE
  5
416
  8
LAYER1$C$L1
 62
     3
 10
-159.49967956539999
 20
138.70007324220001
 30
0.0
 11
-159.49967956539999
 21
138.44309997560001
 31
0.0
  0
LINE
  5
417
  8
LAYER1$C$L1
 62
     3
 10
-159.49967956539999
 20
131.25711059569991
 30
0.0
 11
-159.49967956539999
 21
129.30006408689999
 31
0.0
  0
LINE
  5
418
  8
LAYER1$C$L1
 62
     3
 10
-159.1147163217
 20
133.44273136289999
 30
0.0
 11
-159.63848945259991
 21
134.3499331916
 31
0.0
  0
LINE
  5
419
  8
LAYER1$C$L1
 62
     3
 10
-159.92716281909989
 20
134.84993021419999
 30
0.0
 11
-160.83879143359999
 21
136.4289175605999
 31
0.0
  0
LINE
  5
41A
  8
LAYER1$C$L1
 62
     3
 10
-160.9168206951
 20
133.1357670127
 30
0.0
 11
-159.9271739013999
 21
134.84988583239991
 31
0.0
  0
LINE
  5
41B
  8
LAYER1$C$L1
 62
     3
 10
-159.63845825199999
 20
135.35000610349991
 30
0.0
 11
-160.15730285639989
 21
135.35000610349991
 31
0.0
  0
LINE
  5
41C
  8
LAYER1$C$L1
 62
     3
 10
-159.9271392821999
 20
134.85002136229991
 30
0.0
 11
-160.33052062990001
 21
134.85002136229991
 31
0.0
  0
LINE
  5
41D
  8
LAYER1$C$L1
 62
     3
 10
-159.6384429931999
 20
134.3500213623
 30
0.0
 11
-160.15730285639989
 21
134.3500213623
 31
0.0
  0
LINE
  5
41E
  8
LAYER1$C$L1
 62
     3
 10
-159.6384929056
 20
135.34989606950001
 30
0.0
 11
-158.55380675559999
 21
137.22862791109989
 31
0.0
  0
LINE
  5
41F
  8
LAYER1$C$L1
 62
     3
 10
-158.55376135450001
 20
137.22873060329991
 30
0.0
 11
-158.32905712260001
 21
136.41792185200001
 31
0.0
  0
LINE
  5
420
  8
LAYER1$C$L1
 62
     3
 10
-158.55377197269999
 20
137.22874450680001
 30
0.0
 11
-158.78393554690001
 21
137.22874450680001
 31
0.0
  0
LINE
  5
421
  8
LAYER1$C$L1
 62
     3
 10
-158.32908630369991
 20
136.41793823239991
 30
0.0
 11
-158.55923461910001
 21
136.41793823239991
 31
0.0
  0
LINE
  5
422
  8
LAYER1$C$L1
 62
     3
 10
-160.85829162600001
 20
133.13586425779991
 30
0.0
 11
-161.32019042970001
 21
133.13586425779991
 31
0.0
  0
LINE
  5
423
  8
LAYER1$C$L1
 62
     3
 10
-159.05815623549989
 20
133.64624197009991
 30
0.0
 11
-159.2828742680999
 21
132.83548455359991
 31
0.0
  0
LINE
  5
424
  8
LAYER1$C$L1
 62
     3
 10
-160.8197563777
 20
136.49734369699999
 30
0.0
 11
-160.96949804740001
 21
135.95669256089991
 31
0.0
  0
LINE
  5
425
  8
LAYER1$C$L1
 62
     3
 10
-159.7531987589999
 20
134.84988906219991
 30
0.0
 11
-158.99228881560001
 21
136.16782396849999
 31
0.0
  0
LINE
  5
426
  8
LAYER1$C$L1
 62
     3
 10
-160.1573275971999
 20
135.3498991152
 30
0.0
 11
-159.2169819451
 21
136.97862583829991
 31
0.0
  0
LINE
  5
427
  8
LAYER1$C$L1
 62
     3
 10
-159.05829283200001
 20
133.64630308509999
 30
0.0
 11
-159.75320089120001
 21
134.84991935499991
 31
0.0
  0
LINE
  5
428
  8
LAYER1$C$L1
 62
     3
 10
-159.28300884969991
 20
132.83554085869989
 30
0.0
 11
-160.15734498820001
 21
134.34993573099999
 31
0.0
  0
LINE
  5
429
  8
LAYER1$C$L1
 62
     3
 10
-160.15734612860001
 20
135.34993784229999
 30
0.0
 11
-160.81982163559999
 21
136.49737927429999
 31
0.0
  0
LINE
  5
42A
  8
LAYER1$C$L1
 62
     3
 10
-160.33055411309999
 20
134.8499245033
 30
0.0
 11
-160.9695692345999
 21
135.95673134899991
 31
0.0
  0
LINE
  5
42B
  8
LAYER1$C$L1
 62
     3
 10
-161.3201987745
 20
133.13576509419991
 30
0.0
 11
-160.3305519809
 21
134.8498839138999
 31
0.0
  0
LINE
  5
42C
  8
LAYER1$C$L1
 62
     3
 10
-161.05325606
 20
132.79810509769999
 30
0.0
 11
-160.15732873760001
 21
134.3498970039999
 31
0.0
  0
LINE
  5
42D
  8
LAYER1$C$L1
 62
     3
 10
-156.59959411619991
 20
136.0999908446999
 30
0.0
 11
-156.59959411619991
 21
133.60000610349999
 31
0.0
  0
LINE
  5
42E
  8
LAYER1$C$L1
 62
     3
 10
-157.09959411619991
 20
136.8499908446999
 30
0.0
 11
-157.09959411619991
 21
136.5999908446999
 31
0.0
  0
LINE
  5
42F
  8
LAYER1$C$L1
 62
     3
 10
-155.94110107419999
 20
133.16300964359999
 30
0.0
 11
-155.94110107419999
 21
133.599899292
 31
0.0
  0
LINE
  5
430
  8
LAYER1$C$L1
 62
     3
 10
-155.39950561520001
 20
136.09988403319991
 30
0.0
 11
-156.5995178222999
 21
136.09988403319991
 31
0.0
  0
LINE
  5
431
  8
LAYER1$C$L1
 62
     3
 10
-155.39950561520001
 20
133.599899292
 30
0.0
 11
-156.5995178222999
 21
133.599899292
 31
0.0
  0
LINE
  5
432
  8
LAYER1$C$L1
 62
     3
 10
-155.94110107419999
 20
136.099899292
 30
0.0
 11
-155.94110107419999
 21
136.53678894039999
 31
0.0
  0
LINE
  5
433
  8
LAYER1$C$L1
 62
     3
 10
-155.94120027290001
 20
136.5368419180999
 30
0.0
 11
-155.4412030597999
 21
138.38683204069989
 31
0.0
  0
LINE
  5
434
  8
LAYER1$C$L1
 62
     3
 10
-155.4411251295999
 20
131.31304955819999
 30
0.0
 11
-155.9411262095999
 21
133.16305452529991
 31
0.0
  0
LINE
  5
435
  8
LAYER1$C$L1
 62
     3
 10
-156.49143017520001
 20
130.59988534519991
 30
0.0
 11
-157.099559395
 21
132.8499646395
 31
0.0
  0
LINE
  5
436
  8
LAYER1$C$L1
 62
     3
 10
-157.09963338680001
 20
136.8499318755
 30
0.0
 11
-156.59963617369999
 21
138.69992199799989
 31
0.0
  0
LINE
  5
437
  8
LAYER1$C$L1
 62
     3
 10
-157.09959411619991
 20
133.10000610349991
 30
0.0
 11
-157.09959411619991
 21
132.85000610349991
 31
0.0
  0
LINE
  5
438
  8
LAYER1$C$L1
 62
     3
 10
-155.3995971679999
 20
138.69999694820001
 30
0.0
 11
-155.3995971679999
 21
130.59989929199989
 31
0.0
  0
LINE
  5
439
  8
LAYER1$C$L1
 62
     3
 10
-145.4999847412
 20
138.70001220699999
 30
0.0
 11
-165.5
 21
138.70001220699999
 31
0.0
  0
LINE
  5
43A
  8
LAYER1$C$L1
 62
     3
 10
-146.0
 20
129.29992675779991
 30
0.0
 11
-165.49996948239999
 21
129.29992675779991
 31
0.0
  0
LINE
  5
43B
  8
LAYER1$C$L1
 62
     3
 10
-165.5
 20
143.99989318850001
 30
0.0
 11
-165.5
 21
129.2999877929999
 31
0.0
  0
LINE
  5
43C
  8
LAYER1$C$L1
 62
     3
 10
-153.7999877929999
 20
139.80000305179999
 30
0.0
 11
-153.7999877929999
 21
143.99996948239991
 31
0.0
  0
LINE
  5
43D
  8
LAYER1$C$L1
 62
     3
 10
-150.5
 20
139.80000305179999
 30
0.0
 11
-150.5
 21
143.99996948239991
 31
0.0
  0
LINE
  5
43E
  8
LAYER1$C$L1
 62
     3
 10
-150.5
 20
139.80000305179999
 30
0.0
 11
-165.5
 21
139.80000305179999
 31
0.0
  0
LINE
  5
43F
  8
LAYER1$C$L1
 62
     3
 10
-150.5000152588
 20
139.80000305179999
 30
0.0
 11
-165.50003051760001
 21
139.80000305179999
 31
0.0
  0
LINE
  5
440
  8
LAYER1$C$L1
 62
     3
 10
-153.80001831049989
 20
139.80000305179999
 30
0.0
 11
-153.80001831049989
 21
143.99996948239991
 31
0.0
  0
LINE
  5
441
  8
LAYER1$C$L1
 62
     3
 10
-150.50003051760001
 20
139.80000305179999
 30
0.0
 11
-150.50003051760001
 21
143.99996948239991
 31
0.0
  0
LINE
  5
442
  8
LAYER1$C$L1
 62
     3
 10
-165.5001373291
 20
142.90000915530001
 30
0.0
 11
-158.49999999999989
 21
142.90000915530001
 31
0.0
  0
LINE
  5
443
  8
LAYER1$C$L1
 62
     3
 10
-165.5
 20
143.99998474119991
 30
0.0
 11
-145.5
 21
143.99998474119991
 31
0.0
  0
LINE
  5
444
  8
LAYER1$C$L1
 62
     3
 10
-166.29997253420001
 20
147.1499786377
 30
0.0
 11
-166.29997253420001
 21
140.84997558590001
 31
0.0
  0
LINE
  5
445
  8
LAYER1$C$L1
 62
     3
 10
-165.4999847412
 20
147.64997863769989
 30
0.0
 11
-165.79997253420001
 21
147.64997863769989
 31
0.0
  0
LINE
  5
446
  8
LAYER1$C$L1
 62
     3
 10
-165.4999847412
 20
140.34997558590001
 30
0.0
 11
-165.4999847412
 21
147.64997863769989
 31
0.0
  0
LINE
  5
447
  8
LAYER1$C$L1
 62
     3
 10
-165.79997253420001
 20
140.34997558590001
 30
0.0
 11
-165.4999847412
 21
140.34997558590001
 31
0.0
  0
LINE
  5
448
  8
LAYER1$C$L1
 62
     3
 10
-145.5
 20
145.09997558590001
 30
0.0
 11
-145.5
 21
142.8999786377
 31
0.0
  0
LINE
  5
449
  8
LAYER1$C$L1
 62
     3
 10
-145.5
 20
139.79997253420001
 30
0.0
 11
-145.5
 21
129.19998168949999
 31
0.0
  0
LINE
  5
44A
  8
LAYER1$C$L1
 62
     3
 10
-122.6800079345999
 20
141.89999389650001
 30
0.0
 11
-123.8000030518
 21
141.89999389650001
 31
0.0
  0
LINE
  5
44B
  8
LAYER1$C$L1
 62
     3
 10
-121.2933502196999
 20
139.2999877929999
 30
0.0
 11
-123.8000030518
 21
139.2999877929999
 31
0.0
  0
LINE
  5
44C
  8
LAYER1$C$L1
 62
     3
 10
-120.0666809082
 20
137.0
 30
0.0
 11
-123.8000030518
 21
137.0
 31
0.0
  0
LINE
  5
44D
  8
LAYER1$C$L1
 62
     3
 10
-119.0
 20
135.0
 30
0.0
 11
-123.8000030518
 21
135.0
 31
0.0
  0
LINE
  5
44E
  8
LAYER1$C$L1
 62
     3
 10
-119.0
 20
133.2999877929999
 30
0.0
 11
-123.8000030518
 21
133.2999877929999
 31
0.0
  0
LINE
  5
44F
  8
LAYER1$C$L1
 62
     3
 10
-119.0
 20
131.89999389650001
 30
0.0
 11
-123.8000030518
 21
131.89999389650001
 31
0.0
  0
LINE
  5
450
  8
LAYER1$C$L1
 62
     3
 10
-119.0
 20
130.7999877929999
 30
0.0
 11
-123.8000030518
 21
130.7999877929999
 31
0.0
  0
LINE
  5
451
  8
LAYER1$C$L1
 62
     3
 10
-119.0
 20
129.9999847412
 30
0.0
 11
-123.8000030518
 21
129.9999847412
 31
0.0
  0
LINE
  5
452
  8
LAYER1$C$L1
 62
     3
 10
-120.120010376
 20
146.09999084469999
 30
0.0
 11
-119.0
 21
146.09999084469999
 31
0.0
  0
LINE
  5
453
  8
LAYER1$C$L1
 62
     3
 10
-121.5066833495999
 20
148.69999694820001
 30
0.0
 11
-119.0
 21
148.69999694820001
 31
0.0
  0
LINE
  5
454
  8
LAYER1$C$L1
 62
     3
 10
-122.7333526610999
 20
150.99998474119991
 30
0.0
 11
-119.0
 21
150.99998474119991
 31
0.0
  0
LINE
  5
455
  8
LAYER1$C$L1
 62
     3
 10
-123.8000030518
 20
152.9999847412
 30
0.0
 11
-119.0
 21
152.9999847412
 31
0.0
  0
LINE
  5
456
  8
LAYER1$C$L1
 62
     3
 10
-123.8000030518
 20
154.69999694820001
 30
0.0
 11
-119.0
 21
154.69999694820001
 31
0.0
  0
LINE
  5
457
  8
LAYER1$C$L1
 62
     3
 10
-123.8000030518
 20
156.0999908446999
 30
0.0
 11
-119.0
 21
156.0999908446999
 31
0.0
  0
LINE
  5
458
  8
LAYER1$C$L1
 62
     3
 10
-123.8000030518
 20
157.19999694820001
 30
0.0
 11
-119.0
 21
157.19999694820001
 31
0.0
  0
LINE
  5
459
  8
LAYER1$C$L1
 62
     3
 10
-123.8000030518
 20
157.9999847412
 30
0.0
 11
-119.0
 21
157.9999847412
 31
0.0
  0
LINE
  5
45A
  8
LAYER1$C$L1
 62
     3
 10
-126.3000030518
 20
132.7999877929999
 30
0.0
 11
-130.0000152588
 21
132.7999877929999
 31
0.0
  0
LINE
  5
45B
  8
LAYER1$C$L1
 62
     3
 10
-123.8000030518
 20
142.99998474119991
 30
0.0
 11
-125.3000030518
 21
142.99998474119991
 31
0.0
  0
LINE
  5
45C
  8
LAYER1$C$L1
 62
     3
 10
-119.0
 20
129.49998474119991
 30
0.0
 11
-123.8000030518
 21
129.49998474119991
 31
0.0
  0
LINE
  5
45D
  8
LAYER1$C$L1
 62
     3
 10
-126.3000030518
 20
143.99998474119991
 30
0.0
 11
-126.3000030518
 21
129.9999847412
 31
0.0
  0
LINE
  5
45E
  8
LAYER1$C$L1
 62
     3
 10
-145.5
 20
142.89999389650001
 30
0.0
 11
-133.69999694820001
 21
142.89999389650001
 31
0.0
  0
LINE
  5
45F
  8
LAYER1$C$L1
 62
     3
 10
-133.69999694820001
 20
143.99998474119991
 30
0.0
 11
-133.69999694820001
 21
139.7999877929999
 31
0.0
  0
LINE
  5
460
  8
LAYER1$C$L1
 62
     3
 10
-126.3000030518
 20
140.74998474119991
 30
0.0
 11
-130.0000152588
 21
140.74998474119991
 31
0.0
  0
LINE
  5
461
  8
LAYER1$C$L1
 62
     3
 10
-123.8000030518
 20
129.9999847412
 30
0.0
 11
-126.3000030518
 21
129.9999847412
 31
0.0
  0
LINE
  5
462
  8
LAYER1$C$L1
 62
     3
 10
-119.0
 20
143.99998474119991
 30
0.0
 11
-119.0
 21
129.49998474119991
 31
0.0
  0
LINE
  5
463
  8
LAYER1$C$L1
 62
     3
 10
-123.8000030518
 20
143.99998474119991
 30
0.0
 11
-123.8000030518
 21
129.49998474119991
 31
0.0
  0
LINE
  5
464
  8
LAYER1$C$L1
 62
     3
 10
-137.8999786377
 20
142.89999389650001
 30
0.0
 11
-137.8999786377
 21
143.99998474119991
 31
0.0
  0
LINE
  5
465
  8
LAYER1$C$L1
 62
     3
 10
-117.0
 20
142.39999389650001
 30
0.0
 11
-118.700012207
 21
142.39999389650001
 31
0.0
  0
LINE
  5
466
  8
LAYER1$C$L1
 62
     3
 10
-131.49999999999989
 20
138.69999694820001
 30
0.0
 11
-145.5
 21
138.69999694820001
 31
0.0
  0
LINE
  5
467
  8
LAYER1$C$L1
 62
     3
 10
-131.49999999999989
 20
139.7999877929999
 30
0.0
 11
-145.5
 21
139.7999877929999
 31
0.0
  0
LINE
  5
468
  8
LAYER1$C$L1
 62
     3
 10
-131.49999999999989
 20
143.99998474119991
 30
0.0
 11
-131.49999999999989
 21
139.7999877929999
 31
0.0
  0
LINE
  5
469
  8
LAYER1$C$L1
 62
     3
 10
-132.0
 20
143.99998474119991
 30
0.0
 11
-132.0
 21
139.7999877929999
 31
0.0
  0
LINE
  5
46A
  8
LAYER1$C$L1
 62
     3
 10
-130.0000152588
 20
140.74998474119991
 30
0.0
 11
-131.49999999999989
 21
140.74998474119991
 31
0.0
  0
LINE
  5
46B
  8
LAYER1$C$L1
 62
     3
 10
-98.500000000000014
 20
155.79997253420001
 30
0.0
 11
-104.0
 21
155.79997253420001
 31
0.0
  0
LINE
  5
46C
  8
LAYER1$C$L1
 62
     3
 10
-92.5
 20
140.99482727049991
 30
0.0
 11
-89.999984741200009
 21
140.99482727049991
 31
0.0
  0
LINE
  5
46D
  8
LAYER1$C$L1
 62
     3
 10
-85.504142726799984
 20
150.9649907049
 30
0.0
 11
-85.504127468000007
 21
149.9750309881
 31
0.0
  0
LINE
  5
46E
  8
LAYER1$C$L1
 62
     3
 10
-72.250312754299998
 20
150.9649813771
 30
0.0
 11
-72.250297495599995
 21
149.9750216603
 31
0.0
  0
DIMENSION
  5
46F
  8
DIMENSIONS
  2
*D26
 10
-92.5
 20
113.00006103520001
 30
0.0
 11
-104.75
 21
113.00006103520001
 31
0.0
 70
     0
 13
-117.0
 23
130.49999999999989
 33
0.0
 14
-92.5
 24
135.06968688959989
 34
0.0
1001
ACAD
1000
DSTYLE
1002
{
1070
    41
1040
1.9727878464999999
1070
    42
1040
2.5399999618999991
1070
    44
1040
3.8099999427999989
1070
    73
1070
     0
1070
   140
1040
3.1999998092999991
1070
   271
1070
     1
1070
   272
1070
     1
1002
}
  0
LINE
  5
47B
  8
LAYER1$C$L1
 62
     3
 10
-92.5
 20
148.27801513669991
 30
0.0
 11
-89.999984741200009
 21
148.27801513669991
 31
0.0
  0
POLYLINE
  5
47C
  8
LAYER1$C$L1
 62
     3
 66
     1
 10
0.0
 20
0.0
 30
0.0
  0
VERTEX
  5
837
  8
LAYER1$C$L1
 62
     3
 10
-89.999987566499996
 20
146.9872131347999
 30
0.0
  0
VERTEX
  5
838
  8
LAYER1$C$L1
 62
     3
 10
-89.251172854999979
 20
147.03182784660001
 30
0.0
  0
VERTEX
  5
839
  8
LAYER1$C$L1
 62
     3
 10
-88.523238336399984
 20
147.16442859509991
 30
0.0
  0
VERTEX
  5
83A
  8
LAYER1$C$L1
 62
     3
 10
-87.836482050300006
 20
147.38131788370001
 30
0.0
  0
VERTEX
  5
83B
  8
LAYER1$C$L1
 62
     3
 10
-87.210053804599994
 20
147.67644787820001
 30
0.0
  0
VERTEX
  5
83C
  8
LAYER1$C$L1
 62
     3
 10
-86.661421193999985
 20
148.0415890468
 30
0.0
  0
VERTEX
  5
83D
  8
LAYER1$C$L1
 62
     3
 10
-86.205882526500005
 20
148.46655963599989
 30
0.0
  0
VERTEX
  5
83E
  8
LAYER1$C$L1
 62
     3
 10
-85.8561402383
 20
148.9395095829999
 30
0.0
  0
VERTEX
  5
83F
  8
LAYER1$C$L1
 62
     3
 10
-85.621946694100004
 20
149.4472509478
 30
0.0
  0
VERTEX
  5
840
  8
LAYER1$C$L1
 62
     3
 10
-85.509832247299997
 20
149.97562565160001
 30
0.0
  0
SEQEND
  5
841
  8
LAYER1$C$L1
 62
     3
  0
TEXT
  5
488
  8
LAYER8$C$L8
 62
     3
 10
-140.4999847412
 20
157.81665414179989
 30
0.0
 40
3.5
  1
TW
 50
270.0
 41
0.9333343142285741
 72
     5
 11
-140.4999847412
 21
151.2833139421999
 31
0.0
  0
LINE
  5
489
  8
LAYER1$C$L1
 62
     3
 10
-92.5
 20
147.00523376459989
 30
0.0
 11
-89.999984741200009
 21
147.00523376459989
 31
0.0
  0
LINE
  5
48A
  8
LAYER1$C$L1
 62
     3
 10
-123.8000030518
 20
87.9999542236
 30
0.0
 11
-119.0
 21
87.9999542236
 31
0.0
  0
LINE
  5
48B
  8
LAYER1$C$L1
 62
     3
 10
-123.8000030518
 20
87.199966430700002
 30
0.0
 11
-119.0
 21
87.199966430700002
 31
0.0
  0
LINE
  5
48C
  8
LAYER1$C$L1
 62
     3
 10
-126.3000030518
 20
87.9999542236
 30
0.0
 11
-123.8000030518
 21
87.9999542236
 31
0.0
  0
LINE
  5
48D
  8
LAYER1$C$L1
 62
     3
 10
-123.8000030518
 20
88.499954223600014
 30
0.0
 11
-119.0
 21
88.499954223600014
 31
0.0
  0
LINE
  5
48E
  8
LAYER1$C$L1
 62
     3
 10
-123.8000030518
 20
88.499954223600014
 30
0.0
 11
-123.8000030518
 21
73.999954223599985
 31
0.0
  0
LINE
  5
48F
  8
LAYER1$C$L1
 62
     3
 10
-126.3000030518
 20
87.9999542236
 30
0.0
 11
-126.3000030518
 21
73.999954223599985
 31
0.0
  0
LINE
  5
490
  8
LAYER1$C$L1
 62
     3
 10
-119.0
 20
88.499954223600014
 30
0.0
 11
-119.0
 21
73.999954223599985
 31
0.0
  0
LINE
  5
491
  8
LAYER1$C$L1
 62
     3
 10
-119.0
 20
84.999954223599985
 30
0.0
 11
-117.0
 21
84.999954223599985
 31
0.0
  0
LINE
  5
492
  8
LAYER1$C$L1
 62
     3
 10
-118.700012207
 20
143.99998474119991
 30
0.0
 11
-118.700012207
 21
142.39999389650001
 31
0.0
  0
LINE
  5
493
  8
LAYER1$C$L1
 62
     3
 10
-117.50001525879991
 20
142.39999389650001
 30
0.0
 11
-117.50001525879991
 21
132.9999847412
 31
0.0
  0
LINE
  5
494
  8
LAYER1$C$L1
 62
     3
 10
-117.0
 20
132.9999847412
 30
0.0
 11
-119.0
 21
132.9999847412
 31
0.0
  0
LINE
  5
495
  8
LAYER1$C$L1
 62
     3
 10
-130.0000152588
 20
132.9999847412
 30
0.0
 11
-131.0
 21
132.9999847412
 31
0.0
  0
LINE
  5
496
  8
LAYER1$C$L1
 62
     3
 10
-130.0000152588
 20
85.199966430699988
 30
0.0
 11
-126.3000030518
 21
85.199966430699988
 31
0.0
  0
LINE
  5
497
  8
LAYER1$C$L1
 62
     3
 10
-131.49999999999989
 20
85.4999542236
 30
0.0
 11
-131.49999999999989
 21
73.999954223599985
 31
0.0
  0
LINE
  5
498
  8
LAYER1$C$L1
 62
     3
 10
-126.3000030518
 20
131.9999847412
 30
0.0
 11
-130.0000152588
 21
131.9999847412
 31
0.0
  0
LINE
  5
499
  8
LAYER1$C$L1
 62
     3
 10
-132.0
 20
129.19999694820001
 30
0.0
 11
-145.5
 21
129.19999694820001
 31
0.0
  0
LINE
  5
49A
  8
LAYER1$C$L1
 62
     3
 10
-130.0000152588
 20
140.74998474119991
 30
0.0
 11
-130.0000152588
 21
131.9999847412
 31
0.0
  0
LINE
  5
49B
  8
LAYER1$C$L1
 62
     3
 10
-131.49999999999989
 20
139.7999877929999
 30
0.0
 11
-131.49999999999989
 21
129.69999694820001
 31
0.0
  0
LINE
  5
49C
  8
LAYER1$C$L1
 62
     3
 10
-130.0000152588
 20
155.19999694820001
 30
0.0
 11
-126.3000030518
 21
155.19999694820001
 31
0.0
  0
LINE
  5
49D
  8
LAYER1$C$L1
 62
     3
 10
-125.3000030518
 20
144.99998474119991
 30
0.0
 11
-123.8000030518
 21
144.99998474119991
 31
0.0
  0
LINE
  5
49E
  8
LAYER1$C$L1
 62
     3
 10
-123.8000030518
 20
158.49998474119991
 30
0.0
 11
-119.0
 21
158.49998474119991
 31
0.0
  0
LINE
  5
49F
  8
LAYER1$C$L1
 62
     3
 10
-126.3000030518
 20
157.9999847412
 30
0.0
 11
-126.3000030518
 21
143.99998474119991
 31
0.0
  0
LINE
  5
4A0
  8
LAYER1$C$L1
 62
     3
 10
-123.8000030518
 20
158.49998474119991
 30
0.0
 11
-123.8000030518
 21
143.99998474119991
 31
0.0
  0
LINE
  5
4A1
  8
LAYER1$C$L1
 62
     3
 10
-119.0
 20
158.49998474119991
 30
0.0
 11
-119.0
 21
143.99998474119991
 31
0.0
  0
LINE
  5
4A2
  8
LAYER1$C$L1
 62
     3
 10
-126.3000030518
 20
157.9999847412
 30
0.0
 11
-123.8000030518
 21
157.9999847412
 31
0.0
  0
LINE
  5
4A3
  8
LAYER1$C$L1
 62
     3
 10
-130.0000152588
 20
147.24998474119991
 30
0.0
 11
-126.3000030518
 21
147.24998474119991
 31
0.0
  0
LINE
  5
4A4
  8
LAYER1$C$L1
 62
     3
 10
-133.69999694820001
 20
148.19999694820001
 30
0.0
 11
-133.69999694820001
 21
143.99998474119991
 31
0.0
  0
LINE
  5
4A5
  8
LAYER1$C$L1
 62
     3
 10
-137.8999786377
 20
143.99998474119991
 30
0.0
 11
-137.8999786377
 21
145.0999908446999
 31
0.0
  0
LINE
  5
4A6
  8
LAYER1$C$L1
 62
     3
 10
-133.69999694820001
 20
145.0999908446999
 30
0.0
 11
-145.5
 21
145.0999908446999
 31
0.0
  0
LINE
  5
4A7
  8
LAYER1$C$L1
 62
     3
 10
-132.0
 20
148.19999694820001
 30
0.0
 11
-132.0
 21
143.99998474119991
 31
0.0
  0
LINE
  5
4A8
  8
LAYER1$C$L1
 62
     3
 10
-131.49999999999989
 20
148.19999694820001
 30
0.0
 11
-131.49999999999989
 21
143.99998474119991
 31
0.0
  0
LINE
  5
4A9
  8
LAYER1$C$L1
 62
     3
 10
-145.5
 20
148.19999694820001
 30
0.0
 11
-131.49999999999989
 21
148.19999694820001
 31
0.0
  0
LINE
  5
4AA
  8
LAYER1$C$L1
 62
     3
 10
-145.5
 20
149.2999877929999
 30
0.0
 11
-131.49999999999989
 21
149.2999877929999
 31
0.0
  0
LINE
  5
4AB
  8
LAYER1$C$L1
 62
     3
 10
-131.49999999999989
 20
147.24998474119991
 30
0.0
 11
-130.0000152588
 21
147.24998474119991
 31
0.0
  0
LINE
  5
4AC
  8
LAYER1$C$L1
 62
     3
 10
-118.700012207
 20
145.5999908446999
 30
0.0
 11
-117.0
 21
145.5999908446999
 31
0.0
  0
LINE
  5
4AD
  8
LAYER1$C$L1
 62
     3
 10
-118.700012207
 20
145.5999908446999
 30
0.0
 11
-118.700012207
 21
143.99998474119991
 31
0.0
  0
LINE
  5
4AE
  8
LAYER1$C$L1
 62
     3
 10
-117.50001525879991
 20
154.99998474119991
 30
0.0
 11
-117.50001525879991
 21
145.5999908446999
 31
0.0
  0
LINE
  5
4AF
  8
LAYER1$C$L1
 62
     3
 10
-119.0
 20
154.99998474119991
 30
0.0
 11
-117.0
 21
154.99998474119991
 31
0.0
  0
LINE
  5
4B0
  8
LAYER1$C$L1
 62
     3
 10
-131.0
 20
154.99998474119991
 30
0.0
 11
-130.0000152588
 21
154.99998474119991
 31
0.0
  0
LINE
  5
4B1
  8
LAYER1$C$L1
 62
     3
 10
-130.0000152588
 20
155.9999847412
 30
0.0
 11
-126.3000030518
 21
155.9999847412
 31
0.0
  0
LINE
  5
4B2
  8
LAYER1$C$L1
 62
     3
 10
-145.5
 20
158.7999877929999
 30
0.0
 11
-132.0
 21
158.7999877929999
 31
0.0
  0
LINE
  5
4B3
  8
LAYER1$C$L1
 62
     3
 10
-130.0000152588
 20
155.9999847412
 30
0.0
 11
-130.0000152588
 21
147.24998474119991
 31
0.0
  0
LINE
  5
4B4
  8
LAYER1$C$L1
 62
     3
 10
-131.49999999999989
 20
158.2999877929999
 30
0.0
 11
-131.49999999999989
 21
148.19999694820001
 31
0.0
  0
LINE
  5
4B5
  8
LAYER1$C$L1
 62
     3
 10
-145.5
 20
158.7999877929999
 30
0.0
 11
-145.5
 21
148.19998168949999
 31
0.0
  0
LINE
  5
4B6
  8
LAYER3$C$L3
  6
CENTERLINE
 62
     3
 10
-171.1925659179999
 20
143.99998474119991
 30
0.0
 11
-67.937301635699995
 21
143.99998474119991
 31
0.0
  0
LINE
  5
4B7
  8
LAYER1$C$L1
 62
     3
 10
-115.1033325195
 20
141.89999389650001
 30
0.0
 11
-116.1999969482
 21
141.89999389650001
 31
0.0
  0
LINE
  5
4B8
  8
LAYER1$C$L1
 62
     3
 10
-113.7835693358999
 20
139.2999877929999
 30
0.0
 11
-116.1999969482
 21
139.2999877929999
 31
0.0
  0
LINE
  5
4B9
  8
LAYER1$C$L1
 62
     3
 10
-112.5444488524999
 20
137.0
 30
0.0
 11
-116.1999969482
 21
137.0
 31
0.0
  0
LINE
  5
4BA
  8
LAYER1$C$L1
 62
     3
 10
-111.4999999999999
 20
135.0
 30
0.0
 11
-116.1999969482
 21
135.0
 31
0.0
  0
LINE
  5
4BB
  8
LAYER1$C$L1
 62
     3
 10
-111.4999999999999
 20
133.2999877929999
 30
0.0
 11
-116.1999969482
 21
133.2999877929999
 31
0.0
  0
LINE
  5
4BC
  8
LAYER1$C$L1
 62
     3
 10
-111.4999999999999
 20
131.89999389650001
 30
0.0
 11
-116.1999969482
 21
131.89999389650001
 31
0.0
  0
LINE
  5
4BD
  8
LAYER1$C$L1
 62
     3
 10
-111.4999999999999
 20
130.7999877929999
 30
0.0
 11
-116.1999969482
 21
130.7999877929999
 31
0.0
  0
LINE
  5
4BE
  8
LAYER1$C$L1
 62
     3
 10
-111.4999999999999
 20
130.0
 30
0.0
 11
-116.1999969482
 21
130.0
 31
0.0
  0
LINE
  5
4BF
  8
LAYER1$C$L1
 62
     3
 10
-104.0000132989999
 20
130.2999915865999
 30
0.0
 11
-104.3000179332999
 21
129.99998695229991
 31
0.0
  0
LINE
  5
4C0
  8
LAYER1$C$L1
 62
     3
 10
-110.9999890357
 20
129.99998627799999
 30
0.0
 11
-111.49998956650001
 21
129.4999857471999
 31
0.0
  0
LINE
  5
4C1
  8
LAYER1$C$L1
 62
     3
 10
-104.3000030518
 20
130.0
 30
0.0
 11
-111.0
 21
130.0
 31
0.0
  0
LINE
  5
4C2
  8
LAYER1$C$L1
 62
     3
 10
-111.0
 20
144.0
 30
0.0
 11
-111.0
 21
130.0
 31
0.0
  0
LINE
  5
4C3
  8
LAYER1$C$L1
 62
     3
 10
-104.3000030518
 20
144.0
 30
0.0
 11
-104.3000030518
 21
130.0
 31
0.0
  0
LINE
  5
4C4
  8
LAYER1$C$L1
 62
     3
 10
-104.0
 20
144.0
 30
0.0
 11
-104.0
 21
130.2999877929999
 31
0.0
  0
LINE
  5
4C5
  8
LAYER1$C$L1
 62
     3
 10
-111.4999999999999
 20
129.49999999999989
 30
0.0
 11
-116.1999969482
 21
129.49999999999989
 31
0.0
  0
LINE
  5
4C6
  8
LAYER1$C$L1
 62
     3
 10
-111.4999999999999
 20
144.0
 30
0.0
 11
-111.4999999999999
 21
129.49999999999989
 31
0.0
  0
LINE
  5
4C7
  8
LAYER1$C$L1
 62
     3
 10
-116.2000050508
 20
129.4999901912999
 30
0.0
 11
-117.0000047840999
 21
130.4999898579
 31
0.0
  0
LINE
  5
4C8
  8
LAYER1$C$L1
 62
     3
 10
-116.1999969482
 20
144.0
 30
0.0
 11
-116.1999969482
 21
129.49999999999989
 31
0.0
  0
LINE
  5
4C9
  8
LAYER1$C$L1
 62
     3
 10
-117.0
 20
144.0
 30
0.0
 11
-117.0
 21
130.49999999999989
 31
0.0
  0
LINE
  5
4CA
  8
LAYER1$C$L1
 62
     3
 10
-112.5966644287
 20
146.09999084469999
 30
0.0
 11
-111.4999999999999
 21
146.09999084469999
 31
0.0
  0
LINE
  5
4CB
  8
LAYER1$C$L1
 62
     3
 10
-113.9544372558999
 20
148.69999694820001
 30
0.0
 11
-111.4999999999999
 21
148.69999694820001
 31
0.0
  0
LINE
  5
4CC
  8
LAYER1$C$L1
 62
     3
 10
-115.1555480957
 20
150.99998474119991
 30
0.0
 11
-111.4999999999999
 21
150.99998474119991
 31
0.0
  0
LINE
  5
4CD
  8
LAYER1$C$L1
 62
     3
 10
-116.1999969482
 20
152.9999847412
 30
0.0
 11
-111.4999999999999
 21
152.9999847412
 31
0.0
  0
LINE
  5
4CE
  8
LAYER1$C$L1
 62
     3
 10
-116.1999969482
 20
154.69999694820001
 30
0.0
 11
-111.4999999999999
 21
154.69999694820001
 31
0.0
  0
LINE
  5
4CF
  8
LAYER1$C$L1
 62
     3
 10
-116.1999969482
 20
156.0999908446999
 30
0.0
 11
-111.4999999999999
 21
156.0999908446999
 31
0.0
  0
LINE
  5
4D0
  8
LAYER1$C$L1
 62
     3
 10
-116.1999969482
 20
157.19999694820001
 30
0.0
 11
-111.4999999999999
 21
157.19999694820001
 31
0.0
  0
LINE
  5
4D1
  8
LAYER1$C$L1
 62
     3
 10
-116.1999969482
 20
158.0
 30
0.0
 11
-111.4999999999999
 21
158.0
 31
0.0
  0
LINE
  5
4D2
  8
LAYER1$C$L1
 62
     3
 10
-104.3000071437
 20
157.9999843080999
 30
0.0
 11
-104.00000250940001
 21
157.69997967369989
 31
0.0
  0
LINE
  5
4D3
  8
LAYER1$C$L1
 62
     3
 10
-111.4999996817
 20
158.49998483889991
 30
0.0
 11
-110.9999991508999
 21
157.9999843080999
 31
0.0
  0
LINE
  5
4D4
  8
LAYER1$C$L1
 62
     3
 10
-111.0
 20
158.0
 30
0.0
 11
-104.3000030518
 21
158.0
 31
0.0
  0
LINE
  5
4D5
  8
LAYER1$C$L1
 62
     3
 10
-111.0
 20
158.0
 30
0.0
 11
-111.0
 21
144.0
 31
0.0
  0
LINE
  5
4D6
  8
LAYER1$C$L1
 62
     3
 10
-104.3000030518
 20
158.0
 30
0.0
 11
-104.3000030518
 21
144.0
 31
0.0
  0
LINE
  5
4D7
  8
LAYER1$C$L1
 62
     3
 10
-104.0
 20
157.69999694820001
 30
0.0
 11
-104.0
 21
144.0
 31
0.0
  0
LINE
  5
4D8
  8
LAYER1$C$L1
 62
     3
 10
-116.1999969482
 20
158.49999999999989
 30
0.0
 11
-111.4999999999999
 21
158.49999999999989
 31
0.0
  0
LINE
  5
4D9
  8
LAYER1$C$L1
 62
     3
 10
-111.4999999999999
 20
158.49999999999989
 30
0.0
 11
-111.4999999999999
 21
144.0
 31
0.0
  0
LINE
  5
4DA
  8
LAYER1$C$L1
 62
     3
 10
-116.9999800602
 20
157.49997251639991
 30
0.0
 11
-116.1999803268999
 21
158.4999721831
 31
0.0
  0
LINE
  5
4DB
  8
LAYER1$C$L1
 62
     3
 10
-116.1999969482
 20
158.49999999999989
 30
0.0
 11
-116.1999969482
 21
144.0
 31
0.0
  0
LINE
  5
4DC
  8
LAYER1$C$L1
 62
     3
 10
-117.0
 20
157.5
 30
0.0
 11
-117.0
 21
144.0
 31
0.0
  0
ARC
  5
4DD
  8
LAYER1$C$L1
 62
     3
 10
-37.0
 20
74.0
 30
0.0
 40
9.8499994278000003
 50
232.29076214449989
 51
262.70936478300001
  0
LINE
  5
4DE
  8
LAYER1$C$L1
 62
     3
 10
-98.500000000000014
 20
132.19998168949999
 30
0.0
 11
-104.0
 21
132.19998168949999
 31
0.0
  0
LINE
  5
4DF
  8
LAYER1$C$L1
 62
     3
 10
-94.540344238299994
 20
160.99995422360001
 30
0.0
 11
-94.540344238299994
 21
127.0000152588
 31
0.0
  0
LINE
  5
4E0
  8
LAYER1$C$L1
 62
     3
 10
-98.500000000000014
 20
123.9999847412
 30
0.0
 11
-98.500000000000014
 21
163.99998474119991
 31
0.0
  0
LINE
  5
4E1
  8
LAYER1$C$L1
 62
     3
 10
-98.500015258799991
 20
163.99995422360001
 30
0.0
 11
-96.105361938500025
 21
163.99995422360001
 31
0.0
  0
LINE
  5
4E2
  8
LAYER1$C$L1
 62
     3
 10
-98.500015258799991
 20
123.9999847412
 30
0.0
 11
-96.105361938500025
 21
123.9999847412
 31
0.0
  0
LINE
  5
4E3
  8
LAYER1$C$L1
 62
     3
 10
-92.5
 20
152.93026733400001
 30
0.0
 11
-92.5
 21
135.06968688959989
 31
0.0
  0
DIMENSION
  5
4E4
  8
DIMENSIONS
  2
*D27
 10
-166.29997253420001
 20
113.00006103520001
 30
0.0
 11
-173.268881385725
 21
113.00006103520001
 31
0.0
 70
     0
 13
-165.5
 23
129.2999877929999
 33
0.0
 14
-166.29997253420001
 24
140.84997558590001
 34
0.0
 50
180.0
1001
ACAD
1000
DSTYLE
1002
{
1070
    41
1040
1.9727878464999999
1070
    42
1040
2.5399999618999991
1070
    44
1040
3.8099999427999989
1070
    73
1070
     0
1070
   140
1040
3.1999998092999991
1070
   271
1070
     1
1070
   272
1070
     1
1002
}
  0
DIMENSION
  5
4F1
  8
DIMENSIONS
  2
*D28
 10
-117.0
 20
118.00006103519991
 30
0.0
 11
-125.7294541158749
 21
118.00006103519991
 31
0.0
 70
     0
  1
<>13
 13
-104.0
 23
130.2999877929999
 33
0.0
 14
-117.0
 24
130.49999999999989
 34
0.0
 50
180.0
1001
ACAD
1000
DSTYLE
1002
{
1070
    41
1040
1.9727878464999999
1070
    42
1040
2.5399999618999991
1070
    44
1040
3.8099999427999989
1070
    73
1070
     0
1070
   140
1040
3.1999998092999991
1070
   271
1070
     1
1070
   272
1070
     1
1002
}
  0
DIMENSION
  5
4FD
  8
DIMENSIONS
  2
*D29
 10
-169.0
 20
108.00006103520001
 30
0.0
 11
-143.0
 21
108.00006103520001
 31
0.0
 70
     0
 13
-117.0
 23
130.49999999999989
 33
0.0
 14
-169.0
 24
129.89999389649989
 34
0.0
 50
180.0
1001
ACAD
1000
DSTYLE
1002
{
1070
    41
1040
1.9727878464999999
1070
    42
1040
2.5399999618999991
1070
    44
1040
3.8099999427999989
1070
    73
1070
     0
1070
   140
1040
3.1999998092999991
1070
   271
1070
     1
1070
   272
1070
     1
1002
}
  0
DIMENSION
  5
509
  8
DIMENSIONS
  2
*D30
 10
-117.0
 20
113.00006103520001
 30
0.0
 11
-141.2499923705999
 21
113.00006103520001
 31
0.0
 70
     0
 13
-165.4999847412
 23
129.29997253420001
 33
0.0
 14
-117.0
 24
130.49999999999989
 34
0.0
1001
ACAD
1000
DSTYLE
1002
{
1070
    41
1040
1.9727878464999999
1070
    42
1040
2.5399999618999991
1070
    44
1040
3.8099999427999989
1070
    73
1070
     0
1070
   140
1040
3.1999998092999991
1070
   271
1070
     1
1070
   272
1070
     1
1002
}
  0
LINE
  5
522
  8
LAYER1$C$L1
 62
     3
 10
-131.0
 20
84.999954223599985
 30
0.0
 11
-130.0000152588
 21
84.999954223599985
 31
0.0
  0
LINE
  5
523
  8
LAYER1$C$L1
 62
     3
 10
-130.0000152588
 20
85.999954223600014
 30
0.0
 11
-126.3000030518
 21
85.999954223600014
 31
0.0
  0
LINE
  5
524
  8
LAYER1$C$L1
 62
     3
 10
-130.0000152588
 20
85.999954223600014
 30
0.0
 11
-130.0000152588
 21
73.999954223599985
 31
0.0
  0
LINE
  5
525
  8
LAYER1$C$L1
 62
     3
 10
-145.5
 20
91.9999542236
 30
0.0
 11
-132.0
 21
91.9999542236
 31
0.0
  0
LINE
  5
526
  8
LAYER1$C$L1
 62
     3
 10
-145.5
 20
92.499954223599985
 30
0.0
 11
-132.0
 21
92.499954223599985
 31
0.0
  0
LINE
  5
527
  8
LAYER1$C$L1
 62
     3
 10
-131.49999999999989
 20
91.9999542236
 30
0.0
 11
-131.49999999999989
 21
85.4999542236
 31
0.0
  0
LINE
  5
528
  8
LAYER1$C$L1
 62
     3
 10
-145.5
 20
92.499954223599985
 30
0.0
 11
-145.5
 21
73.999954223599985
 31
0.0
  0
LINE
  5
529
  8
LAYER3$C$L3
  6
CENTERLINE
 62
     3
 10
-171.6611785888999
 20
73.999984741199995
 30
0.0
 11
-67.822631835899998
 21
73.999984741199995
 31
0.0
  0
LINE
  5
52A
  8
LAYER1$C$L1
 62
     3
 10
-115.1033325195
 20
71.899978637700002
 30
0.0
 11
-116.1999969482
 21
71.899978637700002
 31
0.0
  0
LINE
  5
52B
  8
LAYER1$C$L1
 62
     3
 10
-113.7835693358999
 20
69.299972534199995
 30
0.0
 11
-116.1999969482
 21
69.299972534199995
 31
0.0
  0
LINE
  5
52C
  8
LAYER1$C$L1
 62
     3
 10
-112.5444488524999
 20
66.999984741199995
 30
0.0
 11
-116.1999969482
 21
66.999984741199995
 31
0.0
  0
LINE
  5
52D
  8
LAYER1$C$L1
 62
     3
 10
-111.4999999999999
 20
64.999984741199995
 30
0.0
 11
-116.1999969482
 21
64.999984741199995
 31
0.0
  0
LINE
  5
52E
  8
LAYER1$C$L1
 62
     3
 10
-111.4999999999999
 20
63.299972534200002
 30
0.0
 11
-116.1999969482
 21
63.299972534200002
 31
0.0
  0
LINE
  5
52F
  8
LAYER1$C$L1
 62
     3
 10
-111.4999999999999
 20
61.899978637700002
 30
0.0
 11
-116.1999969482
 21
61.899978637700002
 31
0.0
  0
LINE
  5
530
  8
LAYER1$C$L1
 62
     3
 10
-111.4999999999999
 20
60.799972534200002
 30
0.0
 11
-116.1999969482
 21
60.799972534200002
 31
0.0
  0
LINE
  5
531
  8
LAYER1$C$L1
 62
     3
 10
-111.4999999999999
 20
59.999984741200002
 30
0.0
 11
-116.1999969482
 21
59.999984741200002
 31
0.0
  0
LINE
  5
532
  8
LAYER1$C$L1
 62
     3
 10
-104.00000250940001
 20
60.299971223299998
 30
0.0
 11
-104.3000071437
 21
59.999966588999989
 31
0.0
  0
LINE
  5
533
  8
LAYER1$C$L1
 62
     3
 10
-110.9999883613
 20
59.999955799399999
 30
0.0
 11
-111.49998889209991
 21
59.499955268599997
 31
0.0
  0
LINE
  5
534
  8
LAYER1$C$L1
 62
     3
 10
-104.3000030518
 20
59.999984741200002
 30
0.0
 11
-111.0
 21
59.999984741200002
 31
0.0
  0
LINE
  5
535
  8
LAYER1$C$L1
 62
     3
 10
-111.0
 20
73.999984741199995
 30
0.0
 11
-111.0
 21
59.999984741200002
 31
0.0
  0
LINE
  5
536
  8
LAYER1$C$L1
 62
     3
 10
-104.3000030518
 20
73.999984741199995
 30
0.0
 11
-104.3000030518
 21
59.999984741200002
 31
0.0
  0
LINE
  5
537
  8
LAYER1$C$L1
 62
     3
 10
-104.0
 20
73.999984741199995
 30
0.0
 11
-104.0
 21
60.299972534200002
 31
0.0
  0
LINE
  5
538
  8
LAYER1$C$L1
 62
     3
 10
-111.4999999999999
 20
59.499984741200002
 30
0.0
 11
-116.1999969482
 21
59.499984741200002
 31
0.0
  0
LINE
  5
539
  8
LAYER1$C$L1
 62
     3
 10
-111.4999999999999
 20
73.999984741199995
 30
0.0
 11
-111.4999999999999
 21
59.499984741200002
 31
0.0
  0
LINE
  5
53A
  8
LAYER1$C$L1
 62
     3
 10
-116.1999779439
 20
59.499976590099998
 30
0.0
 11
-116.99997767719999
 21
60.499976256799997
 31
0.0
  0
LINE
  5
53B
  8
LAYER1$C$L1
 62
     3
 10
-116.1999969482
 20
73.999984741199995
 30
0.0
 11
-116.1999969482
 21
59.499984741200002
 31
0.0
  0
LINE
  5
53C
  8
LAYER1$C$L1
 62
     3
 10
-117.0
 20
73.999984741199995
 30
0.0
 11
-117.0
 21
60.499984741200002
 31
0.0
  0
LINE
  5
53D
  8
LAYER1$C$L1
 62
     3
 10
-112.5966644287
 20
76.099975585899983
 30
0.0
 11
-111.4999999999999
 21
76.099975585899983
 31
0.0
  0
LINE
  5
53E
  8
LAYER1$C$L1
 62
     3
 10
-113.9544372558999
 20
78.699981689499992
 30
0.0
 11
-111.4999999999999
 21
78.699981689499992
 31
0.0
  0
LINE
  5
53F
  8
LAYER1$C$L1
 62
     3
 10
-115.1555480957
 20
80.999969482400004
 30
0.0
 11
-111.4999999999999
 21
80.999969482400004
 31
0.0
  0
LINE
  5
540
  8
LAYER1$C$L1
 62
     3
 10
-116.1999969482
 20
82.999969482400004
 30
0.0
 11
-111.4999999999999
 21
82.999969482400004
 31
0.0
  0
LINE
  5
541
  8
LAYER1$C$L1
 62
     3
 10
-116.1999969482
 20
84.699981689499992
 30
0.0
 11
-111.4999999999999
 21
84.699981689499992
 31
0.0
  0
LINE
  5
542
  8
LAYER1$C$L1
 62
     3
 10
-116.1999969482
 20
86.099975585899998
 30
0.0
 11
-111.4999999999999
 21
86.099975585899998
 31
0.0
  0
LINE
  5
543
  8
LAYER1$C$L1
 62
     3
 10
-116.1999969482
 20
87.199981689500007
 30
0.0
 11
-111.4999999999999
 21
87.199981689500007
 31
0.0
  0
LINE
  5
544
  8
LAYER1$C$L1
 62
     3
 10
-116.1999969482
 20
87.999984741199995
 30
0.0
 11
-111.4999999999999
 21
87.999984741199995
 31
0.0
  0
LINE
  5
545
  8
LAYER1$C$L1
 62
     3
 10
-104.3000132128
 20
87.999947086000006
 30
0.0
 11
-104.0000193680999
 21
87.699953241299994
 31
0.0
  0
LINE
  5
546
  8
LAYER1$C$L1
 62
     3
 10
-111.5000104712999
 20
88.499964475599995
 30
0.0
 11
-111.00000994049989
 21
87.999963944800001
 31
0.0
  0
LINE
  5
547
  8
LAYER1$C$L1
 62
     3
 10
-111.0
 20
87.999984741199995
 30
0.0
 11
-104.3000030518
 21
87.999984741199995
 31
0.0
  0
LINE
  5
548
  8
LAYER1$C$L1
 62
     3
 10
-111.0
 20
87.999984741199995
 30
0.0
 11
-111.0
 21
73.999984741199995
 31
0.0
  0
LINE
  5
549
  8
LAYER1$C$L1
 62
     3
 10
-104.3000030518
 20
87.999984741199995
 30
0.0
 11
-104.3000030518
 21
73.999984741199995
 31
0.0
  0
LINE
  5
54A
  8
LAYER1$C$L1
 62
     3
 10
-104.0
 20
87.699981689500007
 30
0.0
 11
-104.0
 21
73.999984741199995
 31
0.0
  0
LINE
  5
54B
  8
LAYER1$C$L1
 62
     3
 10
-116.1999969482
 20
88.499984741200009
 30
0.0
 11
-111.4999999999999
 21
88.499984741200009
 31
0.0
  0
LINE
  5
54C
  8
LAYER1$C$L1
 62
     3
 10
-111.4999999999999
 20
88.499984741200009
 30
0.0
 11
-111.4999999999999
 21
73.999984741199995
 31
0.0
  0
LINE
  5
54D
  8
LAYER1$C$L1
 62
     3
 10
-116.9999967414
 20
87.499950574699994
 30
0.0
 11
-116.1999970080999
 21
88.499950241299985
 31
0.0
  0
LINE
  5
54E
  8
LAYER1$C$L1
 62
     3
 10
-116.1999969482
 20
88.499984741200009
 30
0.0
 11
-116.1999969482
 21
73.999984741199995
 31
0.0
  0
LINE
  5
54F
  8
LAYER1$C$L1
 62
     3
 10
-117.0
 20
87.499984741200009
 30
0.0
 11
-117.0
 21
73.999984741199995
 31
0.0
  0
LINE
  5
550
  8
LAYER4$C$L4
  6
PHANTOM
 62
     3
 10
-165.80000305179999
 20
77.799972534199995
 30
0.0
 11
-165.5999908446999
 21
77.799972534199995
 31
0.0
  0
LINE
  5
551
  8
LAYER4$C$L4
  6
PHANTOM
 62
     3
 10
-158.59995709169999
 20
55.6495067384
 30
0.0
 11
-162.32176999160001
 21
62.9539765257
 31
0.0
  0
LINE
  5
552
  8
LAYER4$C$L4
  6
PHANTOM
 62
     3
 10
-166.21279980099999
 20
54.100027079999997
 30
0.0
 11
-168.99998921439999
 21
59.570194820699989
 31
0.0
  0
LINE
  5
553
  8
LAYER4$C$L4
  6
PHANTOM
 62
     3
 10
-158.59999084469999
 20
54.099990844700002
 30
0.0
 11
-158.59999084469999
 21
55.649551391599999
 31
0.0
  0
LINE
  5
554
  8
LAYER4$C$L4
  6
PHANTOM
 62
     3
 10
-158.59999084469999
 20
54.099990844700002
 30
0.0
 11
-166.2127990722999
 21
54.099990844700002
 31
0.0
  0
LINE
  5
555
  8
LAYER4$C$L4
  6
PHANTOM
 62
     3
 10
-163.21279907229999
 20
63.499984741200002
 30
0.0
 11
-165.80000305179999
 21
63.499984741200002
 31
0.0
  0
LINE
  5
556
  8
LAYER4$C$L4
  6
PHANTOM
 62
     3
 10
-162.3216886228
 20
85.045964844499991
 30
0.0
 11
-158.5999307088
 21
92.350326715999998
 31
0.0
  0
LINE
  5
557
  8
LAYER4$C$L4
  6
PHANTOM
 62
     3
 10
-165.80000305179999
 20
63.499984741200002
 30
0.0
 11
-165.80000305179999
 21
84.499969482400004
 31
0.0
  0
LINE
  5
558
  8
LAYER4$C$L4
  6
PHANTOM
 62
     3
 10
-168.9998880995999
 20
88.429650861699997
 30
0.0
 11
-166.212691326
 21
93.8998330477
 31
0.0
  0
LINE
  5
559
  8
LAYER4$C$L4
  6
PHANTOM
 62
     3
 10
-158.59999084469999
 20
92.350402832000015
 30
0.0
 11
-158.59999084469999
 21
93.899963378899997
 31
0.0
  0
LINE
  5
55A
  8
LAYER4$C$L4
  6
PHANTOM
 62
     3
 10
-169.0
 20
59.570175170900001
 30
0.0
 11
-169.0
 21
88.429779052699999
 31
0.0
  0
LINE
  5
55B
  8
LAYER4$C$L4
  6
PHANTOM
 62
     3
 10
-165.5999908446999
 20
70.199981689499992
 30
0.0
 11
-165.5999908446999
 21
77.799972534199995
 31
0.0
  0
LINE
  5
55C
  8
LAYER4$C$L4
  6
PHANTOM
 62
     3
 10
-166.2127990722999
 20
93.899963378899997
 30
0.0
 11
-158.59999084469999
 21
93.899963378899997
 31
0.0
  0
LINE
  5
55D
  8
LAYER4$C$L4
  6
PHANTOM
 62
     3
 10
-165.80000305179999
 20
84.499969482400004
 30
0.0
 11
-163.21269226070001
 21
84.499969482400004
 31
0.0
  0
LINE
  5
565
  8
LAYER1$C$L1
 62
     3
 10
-145.5
 20
55.500076293900001
 30
0.0
 11
-145.5
 21
92.49989318850001
 31
0.0
  0
LINE
  5
566
  8
LAYER1$C$L1
 62
     3
 10
-157.86348593150001
 20
89.701231869899985
 30
0.0
 11
-158.57633466109999
 21
90.064446404999984
 31
0.0
  0
LINE
  5
567
  8
LAYER1$C$L1
 62
     3
 10
-158.635247545
 20
88.186564276200002
 30
0.0
 11
-158.1897442803
 21
87.959569046499993
 31
0.0
  0
LINE
  5
568
  8
LAYER1$C$L1
 62
     3
 10
-160.54204115889991
 20
84.444270743999994
 30
0.0
 11
-161.2548898885
 21
84.807485279100007
 31
0.0
  0
LINE
  5
569
  8
LAYER1$C$L1
 62
     3
 10
-158.7010593645999
 20
85.414281569099984
 30
0.0
 11
-158.8372791029
 21
85.146935254400006
 31
0.0
  0
LINE
  5
56A
  8
LAYER1$C$L1
 62
     3
 10
-158.83715668490001
 20
85.146950375499998
 30
0.0
 11
-159.3706505781
 21
83.079795405400006
 31
0.0
  0
LINE
  5
56B
  8
LAYER1$C$L1
 62
     3
 10
-159.58248629659991
 20
82.930582772199998
 30
0.0
 11
-159.94950071029999
 21
82.963974102199998
 31
0.0
  0
LINE
  5
56C
  8
LAYER1$C$L1
 62
     3
 10
-161.01870261889991
 20
83.508770604800006
 30
0.0
 11
-160.65170340110001
 21
83.475380657399995
 31
0.0
  0
LINE
  5
56D
  8
LAYER1$C$L1
 62
     3
 10
-160.4398670514
 20
83.624521528599985
 30
0.0
 11
-159.9063731581999
 21
85.691676498700005
 31
0.0
  0
LINE
  5
56E
  8
LAYER1$C$L1
 62
     3
 10
-157.56608321600001
 20
87.641797892399993
 30
0.0
 11
-157.42991932940001
 21
87.90903459190001
 31
0.0
  0
LINE
  5
56F
  8
LAYER1$C$L1
 62
     3
 10
-157.42989316929999
 20
87.909101433799989
 30
0.0
 11
-156.071109554
 21
89.555750276699996
 31
0.0
  0
LINE
  5
570
  8
LAYER1$C$L1
 62
     3
 10
-156.0749203485
 20
89.814811912999986
 30
0.0
 11
-156.31766018670001
 21
90.092105879599984
 31
0.0
  0
LINE
  5
571
  8
LAYER1$C$L1
 62
     3
 10
-158.49920384439989
 20
88.453897841499995
 30
0.0
 11
-157.14042022909999
 21
90.100546684400001
 31
0.0
  0
LINE
  5
572
  8
LAYER1$C$L1
 62
     3
 10
-157.1441110657
 20
90.359568085000006
 30
0.0
 11
-157.38685090399991
 21
90.636862051600005
 31
0.0
  0
LINE
  5
573
  8
LAYER1$C$L1
 62
     3
 10
-159.68057710170001
 20
83.051337937799985
 30
0.0
 11
-160.21515883709989
 21
83.323721987999988
 31
0.0
  0
LINE
  5
574
  8
LAYER1$C$L1
 62
     3
 10
-156.2302357625999
 20
89.823062471299991
 30
0.0
 11
-156.76481814169989
 21
90.095445234099984
 31
0.0
  0
LINE
  5
575
  8
LAYER1$C$L1
 62
     3
 10
-160.28756349290001
 20
89.569599304299999
 30
0.0
 11
-161.9649047156999
 21
88.480321321600002
 31
0.0
  0
LINE
  5
576
  8
LAYER1$C$L1
 62
     3
 10
-161.91245678280001
 20
87.4814928065
 30
0.0
 11
-161.96479274550001
 21
88.480122316900008
 31
0.0
  0
LINE
  5
577
  8
LAYER1$C$L1
 62
     3
 10
-159.32472042889989
 20
85.732052723199999
 30
0.0
 11
-158.75723235459989
 21
86.845810884799988
 31
0.0
  0
LINE
  5
578
  8
LAYER1$C$L1
 62
     3
 10
-158.1897442803
 20
87.959569046499993
 30
0.0
 11
-158.75723235459989
 21
86.845810884799988
 31
0.0
  0
LINE
  5
581
  8
LAYER4$C$L4
  6
PHANTOM
 62
     3
 10
-165.80000305179999
 20
70.199981689499992
 30
0.0
 11
-165.5999908446999
 21
70.199981689499992
 31
0.0
  0
LINE
  5
582
  8
LAYER1$C$L1
 62
     3
 10
-92.5
 20
69.721954345699999
 30
0.0
 11
-89.999984741200009
 21
69.721954345699999
 31
0.0
  0
INSERT
  5
595
  8
LAYER8$C$L8
 62
     3
 66
     1
  2
CADRA_ATTR_5
 10
0.0
 20
0.0
 30
0.0
  0
ATTRIB
  5
596
  8
LAYER8$C$L8
 62
     3
 10
-41.97645
 20
18.5
 30
0.0
 40
0.156
  1
ç?^HV  é
  2
20
 70
    11
  0
SEQEND
  5
597
  8
LAYER8$C$L8
 62
     3
  0
INSERT
  5
729
  8
0
  2
*U33
 10
0.0
 20
0.0
 30
0.0
  0
ENDSEC
  0
EOF
