  0
SECTION
  2
HEADER
  9
$ACADVER
  1
AC1009
  9
$INSBASE
 10
0.0
 20
0.0
 30
0.0
  9
$EXTMIN
 10
-170.20221454425001
 20
15.999999999999989
 30
0.0
  9
$EXTMAX
 10
-13.190000057199979
 20
183.77808004125541
 30
0.0
  9
$LIMMIN
 10
-215.17524414059989
 20
-3.1749999999999989
  9
$LIMMAX
 10
3.1749999999999989
 20
300.17500000000001
  9
$ORTHOMODE
 70
     0
  9
$REGENMODE
 70
     1
  9
$FILLMODE
 70
     1
  9
$QTEXTMODE
 70
     0
  9
$MIRRTEXT
 70
     0
  9
$DRAGMODE
 70
     2
  9
$LTSCALE
 40
1.0
  9
$OSMODE
 70
    39
  9
$ATTMODE
 70
     1
  9
$TEXTSIZE
 40
3.1999998092999991
  9
$TRACEWID
 40
0.05
  9
$TEXTSTYLE
  7
STANDARD
  9
$CLAYER
  8
0
  9
$CELTYPE
  6
BYLAYER
  9
$CECOLOR
 62
   256
  9
$DIMSCALE
 40
1.0
  9
$DIMASZ
 40
1.9727878464999999
  9
$DIMEXO
 40
2.5399999618999991
  9
$DIMDLI
 40
0.38
  9
$DIMRND
 40
0.0
  9
$DIMDLE
 40
0.0
  9
$DIMEXE
 40
3.8099999427999989
  9
$DIMTP
 40
0.0
  9
$DIMTM
 40
0.0
  9
$DIMTXT
 40
3.1999998092999991
  9
$DIMCEN
 40
0.09
  9
$DIMTSZ
 40
0.0
  9
$DIMTOL
 70
     0
  9
$DIMLIM
 70
     0
  9
$DIMTIH
 70
     0
  9
$DIMTOH
 70
     1
  9
$DIMSE1
 70
     0
  9
$DIMSE2
 70
     0
  9
$DIMTAD
 70
     0
  9
$DIMZIN
 70
     0
  9
$DIMBLK
  1

  9
$DIMASO
 70
     1
  9
$DIMSHO
 70
     0
  9
$DIMPOST
  1

  9
$DIMAPOST
  1

  9
$DIMALT
 70
     0
  9
$DIMALTD
 70
     2
  9
$DIMALTF
 40
25.399999999999999
  9
$DIMLFAC
 40
1.0
  9
$DIMTOFL
 70
     0
  9
$DIMTVP
 40
0.0
  9
$DIMTIX
 70
     0
  9
$DIMSOXD
 70
     0
  9
$DIMSAH
 70
     0
  9
$DIMBLK1
  1

  9
$DIMBLK2
  1

  9
$DIMSTYLE
  2
STANDARD
  9
$DIMCLRD
 70
     0
  9
$DIMCLRE
 70
     0
  9
$DIMCLRT
 70
     0
  9
$DIMTFAC
 40
1.0
  9
$DIMGAP
 40
0.09
  9
$LUNITS
 70
     2
  9
$LUPREC
 70
     3
  9
$SKETCHINC
 40
0.1
  9
$FILLETRAD
 40
0.0625
  9
$AUNITS
 70
     0
  9
$AUPREC
 70
     0
  9
$MENU
  1
ACAD
  9
$ELEVATION
 40
0.0
  9
$PELEVATION
 40
0.0
  9
$THICKNESS
 40
0.0
  9
$LIMCHECK
 70
     0
  9
$BLIPMODE
 70
     0
  9
$CHAMFERA
 40
0.0
  9
$CHAMFERB
 40
0.0
  9
$SKPOLY
 70
     0
  9
$TDCREATE
 40
2452011.4054282401
  9
$TDUPDATE
 40
2452374.79766706
  9
$TDINDWG
 40
0.0842044213
  9
$TDUSRTIMER
 40
0.0842038426
  9
$USRTIMER
 70
     1
  9
$ANGBASE
 50
0.0
  9
$ANGDIR
 70
     0
  9
$PDMODE
 70
     0
  9
$PDSIZE
 40
0.0
  9
$PLINEWID
 40
0.0
  9
$COORDS
 70
     1
  9
$SPLFRAME
 70
     0
  9
$SPLINETYPE
 70
     6
  9
$SPLINESEGS
 70
     8
  9
$ATTDIA
 70
     0
  9
$ATTREQ
 70
     1
  9
$HANDLING
 70
  4097
  9
$HANDSEED
  5
84B
  9
$SURFTAB1
 70
     6
  9
$SURFTAB2
 70
     6
  9
$SURFTYPE
 70
     6
  9
$SURFU
 70
     6
  9
$SURFV
 70
     6
  9
$UCSNAME
  2

  9
$UCSORG
 10
0.0
 20
0.0
 30
0.0
  9
$UCSXDIR
 10
1.0
 20
0.0
 30
0.0
  9
$UCSYDIR
 10
0.0
 20
1.0
 30
0.0
  9
$PUCSNAME
  2

  9
$PUCSORG
 10
0.0
 20
0.0
 30
0.0
  9
$PUCSXDIR
 10
1.0
 20
0.0
 30
0.0
  9
$PUCSYDIR
 10
0.0
 20
1.0
 30
0.0
  9
$USERI1
 70
     0
  9
$USERI2
 70
     0
  9
$USERI3
 70
     0
  9
$USERI4
 70
     0
  9
$USERI5
 70
     0
  9
$USERR1
 40
0.0
  9
$USERR2
 40
0.0
  9
$USERR3
 40
0.0
  9
$USERR4
 40
0.0
  9
$USERR5
 40
0.0
  9
$WORLDVIEW
 70
     1
  9
$SHADEDGE
 70
     3
  9
$SHADEDIF
 70
    70
  9
$TILEMODE
 70
     1
  9
$MAXACTVP
 70
    64
  9
$PLIMCHECK
 70
     0
  9
$PEXTMIN
 10
1.0000000000000000E+020
 20
1.0000000000000000E+020
 30
1.0000000000000000E+020
  9
$PEXTMAX
 10
-1.0000000000000000E+020
 20
-1.0000000000000000E+020
 30
-1.0000000000000000E+020
  9
$PLIMMIN
 10
0.0
 20
0.0
  9
$PLIMMAX
 10
12.0
 20
9.0
  9
$UNITMODE
 70
     0
  9
$VISRETAIN
 70
     1
  9
$PLINEGEN
 70
     0
  9
$PSLTSCALE
 70
     1
  0
ENDSEC
  0
SECTION
  2
TABLES
  0
TABLE
  2
VPORT
 70
     2
  0
VPORT
  2
*ACTIVE
 70
     0
 10
0.0
 20
0.0
 11
1.0
 21
1.0
 12
-89.375959298110274
 22
97.680750978638642
 13
0.0
 23
0.0
 14
1.0
 24
1.0
 15
0.0
 25
0.0
 16
0.0
 26
0.0
 36
1.0
 17
0.0
 27
0.0
 37
0.0
 40
184.51613456446071
 41
1.565365025466892
 42
50.0
 43
0.0
 44
0.0
 50
0.0
 51
0.0
 71
     0
 72
   100
 73
     1
 74
     1
 75
     0
 76
     0
 77
     0
 78
     0
  0
ENDTAB
  0
TABLE
  2
LTYPE
 70
     7
  0
LTYPE
  2
CONTINUOUS
 70
     0
  3
Solid line
 72
    65
 73
     0
 40
0.0
  0
LTYPE
  2
SOLID
 70
     0
  3
Solid
 72
    65
 73
     0
 40
0.0
  0
LTYPE
  2
DASHED
 70
     0
  3
Dashed
 72
    65
 73
     2
 40
4.7625000000000002
 49
3.1749999999999989
 49
-1.587499999999999
  0
LTYPE
  2
CENTERLINE
 70
     0
  3
Centerline
 72
    65
 73
     4
 40
25.399999999999999
 49
19.050000000000001
 49
-1.587499999999999
 49
3.1749999999999989
 49
-1.587499999999999
  0
LTYPE
  2
PHANTOM
 70
     0
  3
Phantom
 72
    65
 73
     6
 40
30.162500000000001
 49
19.050000000000001
 49
-1.587499999999999
 49
3.1749999999999989
 49
-1.587499999999999
 49
3.1749999999999989
 49
-1.587499999999999
  0
LTYPE
  2
CONSTRUCTION
 70
     0
  3
Construction
 72
    65
 73
     2
 40
1.016
 49
0.254
 49
-0.762
  0
LTYPE
  2
GAP
 70
     0
  3
Gap
 72
    65
 73
     3
 40
2540.9999980092002
 49
0.0
 49
-0.9999980092000002
 49
2540.0
  0
ENDTAB
  0
TABLE
  2
LAYER
 70
    11
  0
LAYER
  2
0
 70
     0
 62
     7
  6
CONTINUOUS
  0
LAYER
  2
LAYER0$C$L0
 70
     0
 62
     3
  6
SOLID
  0
LAYER
  2
LAYER1$C$L1
 70
     0
 62
     3
  6
SOLID
  0
LAYER
  2
LAYER2$C$L2
 70
     0
 62
     3
  6
SOLID
  0
LAYER
  2
LAYER3$C$L3
 70
     0
 62
     3
  6
SOLID
  0
LAYER
  2
LAYER4$C$L4
 70
     0
 62
     3
  6
SOLID
  0
LAYER
  2
LAYER6$C$L6
 70
     0
 62
     6
  6
SOLID
  0
LAYER
  2
LAYER8$C$L8
 70
     0
 62
    32
  6
SOLID
  0
LAYER
  2
LAYER9$C$L9
 70
     0
 62
     1
  6
SOLID
  0
LAYER
  2
DEFPOINTS
 70
     0
 62
     7
  6
CONTINUOUS
  0
LAYER
  2
DIMENSIONS
 70
     0
 62
     5
  6
CONTINUOUS
  0
ENDTAB
  0
TABLE
  2
STYLE
 70
     1
  0
STYLE
  2
STANDARD
 70
     0
 40
0.0
 41
1.0
 50
0.0
 71
     0
 42
3.1999998092999991
  3
txt
  4

  0
ENDTAB
  0
TABLE
  2
VIEW
 70
     0
  0
ENDTAB
  0
TABLE
  2
UCS
 70
     0
  0
ENDTAB
  0
TABLE
  2
APPID
 70
     1
  0
APPID
  2
ACAD
 70
     0
  0
ENDTAB
  0
TABLE
  2
DIMSTYLE
 70
     1
  0
DIMSTYLE
  2
STANDARD
 70
     0
  3

  4

  5

  6

  7

 40
1.0
 41
0.18
 42
0.0625
 43
0.38
 44
0.18
 45
0.0
 46
0.0
 47
0.0
 48
0.0
140
0.18
141
0.09
142
0.0
143
25.399999999999999
144
1.0
145
0.0
146
1.0
147
0.09
 71
     0
 72
     0
 73
     1
 74
     1
 75
     0
 76
     0
 77
     0
 78
     0
170
     0
171
     2
172
     0
173
     0
174
     0
175
     0
176
     0
177
     0
178
     0
  0
ENDTAB
  0
ENDSEC
  0
SECTION
  2
BLOCKS
  0
BLOCK
  8
0
  2
$MODEL_SPACE
 70
     0
 10
0.0
 20
0.0
 30
0.0
  3
$MODEL_SPACE
  1

  0
ENDBLK
  5
20
  8
0
  0
BLOCK
 67
     1
  8
0
  2
$PAPER_SPACE
 70
     0
 10
0.0
 20
0.0
 30
0.0
  3
$PAPER_SPACE
  1

  0
ENDBLK
  5
1C
 67
     1
  8
0
  0
BLOCK
  8
LAYER8$C$L8
  2
CADRA_ATTR_0
 70
     2
 10
0.0
 20
0.0
 30
0.0
  3
CADRA_ATTR_0
  1

  0
TEXT
  5
BD
  8
LAYER8$C$L8
 62
     3
 10
-168.86666630240001
 20
4.5
 30
0.0
 40
2.0
  1
TW-HW
 41
0.9125003342624989
 72
     5
 11
-159.13332940359999
 21
4.5
 31
0.0
  0
ATTDEF
  5
BE
  8
LAYER8$C$L8
 62
     3
 10
-164.0
 20
5.5
 30
0.0
 40
0.156
  1
ç%f!<%6!<  é
  3

  2
50
 70
    11
  0
ENDBLK
  5
BF
  8
LAYER8$C$L8
  0
BLOCK
  8
LAYER8$C$L8
  2
CADRA_ATTR_1
 70
     2
 10
0.0
 20
0.0
 30
0.0
  3
CADRA_ATTR_1
  1

  0
TEXT
  5
C2
  8
LAYER8$C$L8
 62
     3
 10
-176.86666630239989
 20
4.5
 30
0.0
 40
2.0
  1
A
 41
1.3000026740999919
 72
     5
 11
-175.13332940359999
 21
4.5
 31
0.0
  0
ATTDEF
  5
C3
  8
LAYER8$C$L8
 62
     3
 10
-176.0
 20
5.5
 30
0.0
 40
0.156
  1
ç%0%k!<%W  é
  3

  2
40
 70
    11
  0
ENDBLK
  5
C4
  8
LAYER8$C$L8
  0
BLOCK
  8
LAYER8$C$L8
  2
CADRA_ATTR_2
 70
     2
 10
0.0
 20
0.0
 30
0.0
  3
CADRA_ATTR_2
  1

  0
TEXT
  5
C7
  8
LAYER8$C$L8
 62
     3
 10
-66.302666215299993
 20
3.4200000763
 30
0.0
 40
4.1599998473999991
  1
*
 41
1.3000029426755879
 72
     5
 11
-62.697324853199987
 21
3.4200000763
 31
0.0
  0
ATTDEF
  5
C8
  8
LAYER8$C$L8
 62
     3
 10
-64.499995999999996
 20
5.5
 30
0.0
 40
0.156
  1
ç5l?^HVé
  3

  2
110
 70
    11
  0
ENDBLK
  5
C9
  8
LAYER8$C$L8
  0
BLOCK
  8
LAYER8$C$L8
  2
CADRA_ATTR_3
 70
     2
 10
0.0
 20
0.0
 30
0.0
  3
CADRA_ATTR_3
  1

  0
TEXT
  5
CC
  8
LAYER8$C$L8
 62
     3
 10
-99.676656388700025
 20
275.91641426090001
 30
0.0
 40
4.1671714783000002
  1
AYW4
 41
0.9622873867998087
 72
     5
 11
-83.636590179899997
 21
275.91641426090001
 31
0.0
  0
ATTDEF
  5
CD
  8
LAYER8$C$L8
 62
     3
 10
-91.656623999999994
 20
278.0
 30
0.0
 40
0.156
  1
çL>>N!&7A<0é
  3

  2
10
 70
    11
  0
ENDBLK
  5
CE
  8
LAYER8$C$L8
  0
BLOCK
  8
LAYER8$C$L8
  2
CADRA_ATTR_4
 70
     2
 10
0.0
 20
0.0
 30
0.0
  3
CADRA_ATTR_4
  1

  0
TEXT
  5
D1
  8
LAYER8$C$L8
 62
     3
 10
-103.4484557311
 20
284.20000028610002
 30
0.0
 40
3.5999994277999989
  1
TWÉVÉäÅ[ÉY âüÉ{ÉCìÉXÉCÉbÉ`
 41
0.642822772588567
 72
     5
 11
-50.2227386207
 21
284.20000028610002
 31
0.0
  0
ATTDEF
  5
D2
  8
LAYER8$C$L8
 62
     3
 10
-76.835598000000005
 20
286.0
 30
0.0
 40
0.156
  1
ç@=IJL>é
  3

  2
0
 70
    11
  0
ENDBLK
  5
D3
  8
LAYER8$C$L8
  0
BLOCK
  8
LAYER8$C$L8
  2
CADRA_ATTR_5
 70
     2
 10
0.0
 20
0.0
 30
0.0
  3
CADRA_ATTR_5
  1

  0
TEXT
  5
D6
  8
LAYER8$C$L8
 62
     3
 10
-66.511743726999995
 20
16.0
 30
0.0
 40
5.0
  1
MA4-A02087
 41
1.051512556877142
 72
     5
 11
-17.441157739400001
 21
16.0
 31
0.0
  0
ATTDEF
  5
D7
  8
LAYER8$C$L8
 62
     3
 10
-41.97645
 20
18.5
 30
0.0
 40
0.156
  1
ç?^HV  é
  3

  2
20
 70
    11
  0
ENDBLK
  5
D8
  8
LAYER8$C$L8
  0
BLOCK
  8
0
  2
*D18
 70
     1
 10
0.0
 20
0.0
 30
0.0
  3
*D18
  1

  0
LINE
  5
73E
  8
DIMENSIONS
 62
     0
 10
-31.8600091934
 20
93.899993896499979
 30
0.0
 11
-13.190000057199979
 21
93.899993896499979
 31
0.0
  0
LINE
  5
73F
  8
DIMENSIONS
 62
     0
 10
-31.8600091934
 20
54.100036621100003
 30
0.0
 11
-13.19000005719999
 21
54.100036621099989
 31
0.0
  0
LINE
  5
740
  8
DIMENSIONS
 62
     0
 10
-16.999999999999989
 20
91.927206049999981
 30
0.0
 11
-16.999999999999989
 21
78.890014972749981
 31
0.0
  0
LINE
  5
741
  8
DIMENSIONS
 62
     0
 10
-16.999999999999989
 20
56.072824467599993
 30
0.0
 11
-16.999999999999989
 21
69.110015544849972
 31
0.0
  0
SOLID
  5
742
  8
DIMENSIONS
 62
     0
 10
-17.328797974416648
 20
91.927206049999981
 30
0.0
 11
-16.67120202558332
 21
91.927206049999981
 31
0.0
 12
-16.999999999999989
 22
93.899993896499979
 32
0.0
 13
-16.999999999999989
 23
93.899993896499979
 33
0.0
  0
SOLID
  5
743
  8
DIMENSIONS
 62
     0
 10
-17.328797974416659
 20
56.072824467599993
 30
0.0
 11
-16.67120202558333
 21
56.072824467599993
 31
0.0
 12
-17.0
 22
54.100036621100003
 32
0.0
 13
-17.0
 23
54.100036621100003
 33
0.0
  0
TEXT
  5
744
  8
0
 62
     0
 10
-15.40000009535
 20
69.200015544849975
 30
0.0
 40
3.1999998092999991
  1
39.8
 50
90.0
  0
POINT
  5
745
  8
DEFPOINTS
 62
     0
 10
-34.400009155299998
 20
93.899993896499979
 30
0.0
  0
POINT
  5
746
  8
DEFPOINTS
 62
     0
 10
-34.400009155299998
 20
54.100036621100003
 30
0.0
  0
POINT
  5
747
  8
DEFPOINTS
 62
     0
 10
-17.0
 20
54.100036621100003
 30
0.0
  0
ENDBLK
  5
EE
  8
0
  0
BLOCK
  8
0
  2
*D19
 70
     1
 10
0.0
 20
0.0
 30
0.0
  3
*D19
  1

  0
LINE
  5
70C
  8
DIMENSIONS
 62
     0
 10
-111.0
 20
129.96000003809991
 30
0.0
 11
-111.0
 21
106.1899847984
 31
0.0
  0
LINE
  5
70D
  8
DIMENSIONS
 62
     0
 10
-80.700012207
 20
133.09156131739991
 30
0.0
 11
-80.700012207
 21
106.1899847984
 31
0.0
  0
LINE
  5
70E
  8
DIMENSIONS
 62
     0
 10
-109.0272121534999
 20
109.9999847412
 30
0.0
 11
-105.5400055313999
 21
109.9999847412
 31
0.0
  0
LINE
  5
70F
  8
DIMENSIONS
 62
     0
 10
-82.672800053499998
 20
109.9999847412
 30
0.0
 11
-86.160006675599988
 21
109.9999847412
 31
0.0
  0
SOLID
  5
710
  8
DIMENSIONS
 62
     0
 10
-109.0272121534999
 20
110.3287827156166
 30
0.0
 11
-109.0272121534999
 21
109.67118676678329
 31
0.0
 12
-111.0
 22
109.9999847412
 32
0.0
 13
-111.0
 23
109.9999847412
 33
0.0
  0
SOLID
  5
711
  8
DIMENSIONS
 62
     0
 10
-82.672800053499998
 20
110.3287827156166
 30
0.0
 11
-82.672800053499998
 21
109.67118676678329
 31
0.0
 12
-80.700012207
 22
109.9999847412
 32
0.0
 13
-80.700012207
 23
109.9999847412
 33
0.0
  0
TEXT
  5
712
  8
0
 62
     0
 10
-105.4500055314
 20
108.39998483655
 30
0.0
 40
3.1999998092999991
  1
30.330.5
  0
POINT
  5
713
  8
DEFPOINTS
 62
     0
 10
-111.0
 20
132.49999999999989
 30
0.0
  0
POINT
  5
714
  8
DEFPOINTS
 62
     0
 10
-80.700012207
 20
135.6315612793
 30
0.0
  0
POINT
  5
715
  8
DEFPOINTS
 62
     0
 10
-80.700012207
 20
109.9999847412
 30
0.0
  0
ENDBLK
  5
22C
  8
0
  0
BLOCK
  8
0
  2
*D20
 70
     1
 10
0.0
 20
0.0
 30
0.0
  3
*D20
  1

  0
LINE
  5
716
  8
DIMENSIONS
 62
     0
 10
-111.0
 20
129.96000003809991
 30
0.0
 11
-111.0
 21
111.1899847984
 31
0.0
  0
LINE
  5
717
  8
DIMENSIONS
 62
     0
 10
-86.200012207000015
 20
133.51541996
 30
0.0
 11
-86.200012207000015
 21
111.1899847984
 31
0.0
  0
LINE
  5
718
  8
DIMENSIONS
 62
     0
 10
-109.0272121534999
 20
114.9999847412
 30
0.0
 11
-103.49000581745
 21
114.9999847412
 31
0.0
  0
LINE
  5
719
  8
DIMENSIONS
 62
     0
 10
-88.172800053500012
 20
114.9999847412
 30
0.0
 11
-93.710006389550017
 21
114.9999847412
 31
0.0
  0
SOLID
  5
71A
  8
DIMENSIONS
 62
     0
 10
-109.0272121534999
 20
115.3287827156166
 30
0.0
 11
-109.0272121534999
 21
114.67118676678329
 31
0.0
 12
-111.0
 22
114.9999847412
 32
0.0
 13
-111.0
 23
114.9999847412
 33
0.0
  0
SOLID
  5
71B
  8
DIMENSIONS
 62
     0
 10
-88.172800053500012
 20
115.3287827156166
 30
0.0
 11
-88.172800053500012
 21
114.67118676678329
 31
0.0
 12
-86.200012207000015
 22
114.9999847412
 32
0.0
 13
-86.200012207000015
 23
114.9999847412
 33
0.0
  0
TEXT
  5
71C
  8
0
 62
     0
 10
-103.40000581744999
 20
113.39998483655
 30
0.0
 40
3.1999998092999991
  1
24.8
  0
POINT
  5
71D
  8
DEFPOINTS
 62
     0
 10
-111.0
 20
132.49999999999989
 30
0.0
  0
POINT
  5
71E
  8
DEFPOINTS
 62
     0
 10
-86.200012207000015
 20
136.05541992190001
 30
0.0
  0
POINT
  5
71F
  8
DEFPOINTS
 62
     0
 10
-86.200012207000015
 20
114.9999847412
 30
0.0
  0
ENDBLK
  5
238
  8
0
  0
BLOCK
  8
0
  2
*D21
 70
     1
 10
0.0
 20
0.0
 30
0.0
  3
*D21
  1

  0
LINE
  5
720
  8
DIMENSIONS
 62
     0
 10
-111.0
 20
129.96000003809991
 30
0.0
 11
-111.0
 21
116.1899847984
 31
0.0
  0
LINE
  5
721
  8
DIMENSIONS
 62
     0
 10
-98.0
 20
129.7600336074
 30
0.0
 11
-98.0
 21
116.1899847984
 31
0.0
  0
LINE
  5
722
  8
DIMENSIONS
 62
     0
 10
-109.0272121534999
 20
119.9999847412
 30
0.0
 11
-108.58999976162499
 21
119.9999847412
 31
0.0
  0
LINE
  5
723
  8
DIMENSIONS
 62
     0
 10
-99.972787846499983
 20
119.9999847412
 30
0.0
 11
-100.41000023837501
 21
119.9999847412
 31
0.0
  0
SOLID
  5
724
  8
DIMENSIONS
 62
     0
 10
-109.0272121534999
 20
120.3287827156166
 30
0.0
 11
-109.0272121534999
 21
119.67118676678329
 31
0.0
 12
-111.0
 22
119.9999847412
 32
0.0
 13
-111.0
 23
119.9999847412
 33
0.0
  0
SOLID
  5
725
  8
DIMENSIONS
 62
     0
 10
-99.972787846499983
 20
120.3287827156166
 30
0.0
 11
-99.972787846499983
 21
119.67118676678329
 31
0.0
 12
-98.0
 22
119.9999847412
 32
0.0
 13
-98.0
 23
119.9999847412
 33
0.0
  0
TEXT
  5
726
  8
0
 62
     0
 10
-108.49999976162501
 20
118.39998483655
 30
0.0
 40
3.1999998092999991
  1
13.0
  0
POINT
  5
727
  8
DEFPOINTS
 62
     0
 10
-111.0
 20
132.49999999999989
 30
0.0
  0
POINT
  5
728
  8
DEFPOINTS
 62
     0
 10
-98.0
 20
132.30003356930001
 30
0.0
  0
POINT
  5
729
  8
DEFPOINTS
 62
     0
 10
-98.0
 20
119.9999847412
 30
0.0
  0
ENDBLK
  5
244
  8
0
  0
BLOCK
  8
0
  2
*D22
 70
     1
 10
0.0
 20
0.0
 30
0.0
  3
*D22
  1

  0
LINE
  5
72A
  8
DIMENSIONS
 62
     0
 10
-80.661187171900011
 20
166.00004577639999
 30
0.0
 11
-70.890012264199981
 21
166.00004577639999
 31
0.0
  0
LINE
  5
72B
  8
DIMENSIONS
 62
     0
 10
-80.661187171900011
 20
126.0000457764
 30
0.0
 11
-70.890012264199996
 21
126.0000457764
 31
0.0
  0
LINE
  5
72C
  8
DIMENSIONS
 62
     0
 10
-74.700012206999986
 20
164.02725792989989
 30
0.0
 11
-74.700012207
 21
151.95671209344999
 31
0.0
  0
LINE
  5
72D
  8
DIMENSIONS
 62
     0
 10
-74.700012207
 20
127.9728336228999
 30
0.0
 11
-74.700012207
 21
140.04337945934989
 31
0.0
  0
SOLID
  5
72E
  8
DIMENSIONS
 62
     0
 10
-75.028810181416659
 20
164.02725792989989
 30
0.0
 11
-74.371214232583313
 21
164.02725792989989
 31
0.0
 12
-74.700012206999986
 22
166.00004577639999
 32
0.0
 13
-74.700012206999986
 23
166.00004577639999
 33
0.0
  0
SOLID
  5
72F
  8
DIMENSIONS
 62
     0
 10
-75.028810181416674
 20
127.9728336228999
 30
0.0
 11
-74.371214232583327
 21
127.9728336228999
 31
0.0
 12
-74.700012207
 22
126.0000457764
 32
0.0
 13
-74.700012207
 23
126.0000457764
 33
0.0
  0
INSERT
  5
730
  8
0
  2
*U31
 10
0.0
 20
0.0
 30
0.0
  0
POINT
  5
731
  8
DEFPOINTS
 62
     0
 10
-83.201187133800005
 20
166.00004577639999
 30
0.0
  0
POINT
  5
732
  8
DEFPOINTS
 62
     0
 10
-83.201187133800005
 20
126.0000457764
 30
0.0
  0
POINT
  5
733
  8
DEFPOINTS
 62
     0
 10
-74.700012207
 20
126.0000457764
 30
0.0
  0
ENDBLK
  5
250
  8
0
  0
BLOCK
  8
0
  2
*D23
 70
     1
 10
0.0
 20
0.0
 30
0.0
  3
*D23
  1

  0
LINE
  5
6EE
  8
DIMENSIONS
 62
     0
 10
-111.0
 20
129.96000003809991
 30
0.0
 11
-111.0
 21
106.1899847984
 31
0.0
  0
LINE
  5
6EF
  8
DIMENSIONS
 62
     0
 10
-163.0
 20
129.3599939346
 30
0.0
 11
-163.0
 21
106.1899847984
 31
0.0
  0
LINE
  5
6F0
  8
DIMENSIONS
 62
     0
 10
-112.9727878465
 20
109.9999847412
 30
0.0
 11
-132.3766669368249
 21
109.9999847412
 31
0.0
  0
LINE
  5
6F1
  8
DIMENSIONS
 62
     0
 10
-161.0272121534999
 20
109.9999847412
 30
0.0
 11
-141.62333306317501
 21
109.9999847412
 31
0.0
  0
SOLID
  5
6F2
  8
DIMENSIONS
 62
     0
 10
-112.9727878465
 20
110.3287827156166
 30
0.0
 11
-112.9727878465
 21
109.67118676678329
 31
0.0
 12
-111.0
 22
109.9999847412
 32
0.0
 13
-111.0
 23
109.9999847412
 33
0.0
  0
SOLID
  5
6F3
  8
DIMENSIONS
 62
     0
 10
-161.0272121534999
 20
110.3287827156166
 30
0.0
 11
-161.0272121534999
 21
109.67118676678329
 31
0.0
 12
-163.0
 22
109.9999847412
 32
0.0
 13
-163.0
 23
109.9999847412
 33
0.0
  0
TEXT
  5
6F4
  8
0
 62
     0
 10
-141.53333306317501
 20
108.39998483655
 30
0.0
 40
3.1999998092999991
  1
52.0
  0
POINT
  5
6F5
  8
DEFPOINTS
 62
     0
 10
-111.0
 20
132.49999999999989
 30
0.0
  0
POINT
  5
6F6
  8
DEFPOINTS
 62
     0
 10
-163.0
 20
131.89999389650001
 30
0.0
  0
POINT
  5
6F7
  8
DEFPOINTS
 62
     0
 10
-163.0
 20
109.9999847412
 30
0.0
  0
ENDBLK
  5
27F
  8
0
  0
BLOCK
  8
0
  2
*D24
 70
     1
 10
0.0
 20
0.0
 30
0.0
  3
*D24
  1

  0
LINE
  5
748
  8
DIMENSIONS
 62
     0
 10
-40.160012245099999
 20
92.5
 30
0.0
 11
-18.190000057199981
 21
92.499999999999986
 31
0.0
  0
LINE
  5
749
  8
DIMENSIONS
 62
     0
 10
-40.160012245099999
 20
55.5
 30
0.0
 11
-18.190000057199988
 21
55.5
 31
0.0
  0
LINE
  5
74A
  8
DIMENSIONS
 62
     0
 10
-21.999999999999979
 20
90.527212153499988
 30
0.0
 11
-21.999999999999989
 21
78.623333063174982
 31
0.0
  0
LINE
  5
74B
  8
DIMENSIONS
 62
     0
 10
-21.999999999999989
 20
57.47278784649999
 30
0.0
 11
-21.999999999999989
 21
69.376666936824989
 31
0.0
  0
SOLID
  5
74C
  8
DIMENSIONS
 62
     0
 10
-22.328797974416648
 20
90.527212153499988
 30
0.0
 11
-21.67120202558332
 21
90.527212153499988
 31
0.0
 12
-21.999999999999979
 22
92.499999999999986
 32
0.0
 13
-21.999999999999979
 23
92.499999999999986
 33
0.0
  0
SOLID
  5
74D
  8
DIMENSIONS
 62
     0
 10
-22.328797974416659
 20
57.47278784649999
 30
0.0
 11
-21.67120202558332
 21
57.47278784649999
 31
0.0
 12
-22.0
 22
55.5
 32
0.0
 13
-22.0
 23
55.5
 33
0.0
  0
TEXT
  5
74E
  8
0
 62
     0
 10
-20.400000095349998
 20
69.466666936824993
 30
0.0
 40
3.1999998092999991
  1
37.0
 50
90.0
  0
POINT
  5
74F
  8
DEFPOINTS
 62
     0
 10
-42.700012207
 20
92.5
 30
0.0
  0
POINT
  5
750
  8
DEFPOINTS
 62
     0
 10
-42.700012207
 20
55.5
 30
0.0
  0
POINT
  5
751
  8
DEFPOINTS
 62
     0
 10
-22.0
 20
55.5
 30
0.0
  0
ENDBLK
  5
2B2
  8
0
  0
BLOCK
  8
0
  2
*D26
 70
     1
 10
0.0
 20
0.0
 30
0.0
  3
*D26
  1

  0
LINE
  5
702
  8
DIMENSIONS
 62
     0
 10
-159.49999999999989
 20
128.75998783109989
 30
0.0
 11
-159.49999999999989
 21
111.1899847984
 31
0.0
  0
LINE
  5
703
  8
DIMENSIONS
 62
     0
 10
-160.29997253420001
 20
140.309975624
 30
0.0
 11
-160.29997253420001
 21
111.1899847984
 31
0.0
  0
LINE
  5
704
  8
DIMENSIONS
 62
     0
 10
-157.5272121534999
 20
114.9999847412
 30
0.0
 11
-155.55442430700001
 21
114.9999847412
 31
0.0
  0
LINE
  5
705
  8
DIMENSIONS
 62
     0
 10
-162.27276038069999
 20
114.9999847412
 30
0.0
 11
-164.2455482272
 21
114.9999847412
 31
0.0
  0
SOLID
  5
706
  8
DIMENSIONS
 62
     0
 10
-157.5272121534999
 20
115.3287827156166
 30
0.0
 11
-157.5272121534999
 21
114.67118676678329
 31
0.0
 12
-159.49999999999989
 22
114.9999847412
 32
0.0
 13
-159.49999999999989
 23
114.9999847412
 33
0.0
  0
SOLID
  5
707
  8
DIMENSIONS
 62
     0
 10
-162.27276038069999
 20
115.3287827156166
 30
0.0
 11
-162.27276038069999
 21
114.67118676678329
 31
0.0
 12
-160.29997253420001
 22
114.9999847412
 32
0.0
 13
-160.29997253420001
 23
114.9999847412
 33
0.0
  0
TEXT
  5
708
  8
0
 62
     0
 10
-170.20221454425001
 20
113.39998483655
 30
0.0
 40
3.1999998092999991
  1
0.8
  0
POINT
  5
709
  8
DEFPOINTS
 62
     0
 10
-159.49999999999989
 20
131.2999877929999
 30
0.0
  0
POINT
  5
70A
  8
DEFPOINTS
 62
     0
 10
-160.29997253420001
 20
142.84997558590001
 30
0.0
  0
POINT
  5
70B
  8
DEFPOINTS
 62
     0
 10
-160.29997253420001
 20
114.9999847412
 30
0.0
  0
ENDBLK
  5
2FD
  8
0
  0
BLOCK
  8
0
  2
*D27
 70
     1
 10
0.0
 20
0.0
 30
0.0
  3
*D27
  1

  0
LINE
  5
734
  8
DIMENSIONS
 62
     0
 10
-62.800003051799997
 20
93.539999961899994
 30
0.0
 11
-62.800003051799997
 21
103.8099999428
 31
0.0
  0
LINE
  5
735
  8
DIMENSIONS
 62
     0
 10
-33.200012207
 20
93.539984703100004
 30
0.0
 11
-33.200012207
 21
103.8099999428
 31
0.0
  0
LINE
  5
736
  8
DIMENSIONS
 62
     0
 10
-60.8272152053
 20
100.0
 30
0.0
 11
-55.823340501875002
 21
100.0
 31
0.0
  0
LINE
  5
737
  8
DIMENSIONS
 62
     0
 10
-35.172800053499991
 20
100.0
 30
0.0
 11
-40.176674756925003
 21
100.0
 31
0.0
  0
SOLID
  5
738
  8
DIMENSIONS
 62
     0
 10
-60.8272152053
 20
100.3287979744166
 30
0.0
 11
-60.8272152053
 21
99.671202025583341
 31
0.0
 12
-62.800003051799997
 22
100.0
 32
0.0
 13
-62.800003051799997
 23
100.0
 33
0.0
  0
SOLID
  5
739
  8
DIMENSIONS
 62
     0
 10
-35.172800053499991
 20
100.3287979744166
 30
0.0
 11
-35.172800053499991
 21
99.671202025583341
 31
0.0
 12
-33.200012207
 22
100.0
 32
0.0
 13
-33.200012207
 23
100.0
 33
0.0
  0
TEXT
  5
73A
  8
0
 62
     0
 10
-55.733340501875013
 20
98.400000095349995
 30
0.0
 40
3.1999998092999991
  1
29.630
  0
POINT
  5
73B
  8
DEFPOINTS
 62
     0
 10
-62.800003051799997
 20
91.0
 30
0.0
  0
POINT
  5
73C
  8
DEFPOINTS
 62
     0
 10
-33.200012207
 20
90.999984741200009
 30
0.0
  0
POINT
  5
73D
  8
DEFPOINTS
 62
     0
 10
-33.200012207
 20
100.0
 30
0.0
  0
ENDBLK
  5
32C
  8
0
  0
BLOCK
  8
0
  2
*D29
 70
     1
 10
0.0
 20
0.0
 30
0.0
  3
*D29
  1

  0
LINE
  5
6F8
  8
DIMENSIONS
 62
     0
 10
-159.49998474119991
 20
128.7599725723
 30
0.0
 11
-159.49998474119991
 21
111.1899847984
 31
0.0
  0
LINE
  5
6F9
  8
DIMENSIONS
 62
     0
 10
-111.0
 20
129.96000003809991
 30
0.0
 11
-111.0
 21
111.1899847984
 31
0.0
  0
LINE
  5
6FA
  8
DIMENSIONS
 62
     0
 10
-157.5271968946999
 20
114.9999847412
 30
0.0
 11
-140.1399920845499
 21
114.9999847412
 31
0.0
  0
LINE
  5
6FB
  8
DIMENSIONS
 62
     0
 10
-112.9727878465
 20
114.9999847412
 30
0.0
 11
-130.35999265664989
 21
114.9999847412
 31
0.0
  0
SOLID
  5
6FC
  8
DIMENSIONS
 62
     0
 10
-157.5271968946999
 20
115.3287827156166
 30
0.0
 11
-157.5271968946999
 21
114.67118676678329
 31
0.0
 12
-159.49998474119991
 22
114.9999847412
 32
0.0
 13
-159.49998474119991
 23
114.9999847412
 33
0.0
  0
SOLID
  5
6FD
  8
DIMENSIONS
 62
     0
 10
-112.9727878465
 20
115.3287827156166
 30
0.0
 11
-112.9727878465
 21
114.67118676678329
 31
0.0
 12
-111.0
 22
114.9999847412
 32
0.0
 13
-111.0
 23
114.9999847412
 33
0.0
  0
TEXT
  5
6FE
  8
0
 62
     0
 10
-140.0499920845499
 20
113.39998483655
 30
0.0
 40
3.1999998092999991
  1
48.5
  0
POINT
  5
6FF
  8
DEFPOINTS
 62
     0
 10
-159.49998474119991
 20
131.29997253420001
 30
0.0
  0
POINT
  5
700
  8
DEFPOINTS
 62
     0
 10
-111.0
 20
132.49999999999989
 30
0.0
  0
POINT
  5
701
  8
DEFPOINTS
 62
     0
 10
-111.0
 20
114.9999847412
 30
0.0
  0
ENDBLK
  5
495
  8
0
  0
BLOCK
  8
0
  2
*U30
 70
     1
 10
0.0
 20
0.0
 30
0.0
  3
*U30
  1

  0
TEXT
  5
842
  8
0
 10
-149.10250162499341
 20
180.5780802319554
 30
0.0
 40
3.1999998092999991
  1
AYW411 (w/covers)
  0
TEXT
  5
843
  8
0
 10
-149.10250162499341
 20
175.24474721645541
 30
0.0
 40
3.1999998092999991
  1
(dimensions in mm)
  0
ENDBLK
  5
845
  8
0
  0
BLOCK
  8
0
  2
*U31
 70
     1
 10
0.0
 20
0.0
 30
0.0
  3
*U31
  1

  0
TEXT
  5
847
  8
0
 62
     0
 10
-73.100012302350009
 20
140.1333794593499
 30
0.0
 40
3.1999998092999991
  1
\U+2205
 50
90.0
  0
TEXT
  5
848
  8
0
 62
     0
 10
-73.100012302350009
 20
143.33337926864991
 30
0.0
 40
3.1999998092999991
  1
40.0
 50
90.0
  0
ENDBLK
  5
84A
  8
0
  0
ENDSEC
  0
SECTION
  2
ENTITIES
  0
ARC
  5
DA
  8
LAYER1$C$L1
 62
     3
 10
-83.607757568400004
 20
93.200042724599996
 30
0.0
 40
0.7999999523000002
 50
90.000255221499984
 51
174.4277864199
  0
ARC
  5
DB
  8
LAYER1$C$L1
 62
     3
 10
-83.001190185500008
 20
54.800048828100003
 30
0.0
 40
0.7999999523000002
 50
269.9993622879
 51
349.87325759309999
  0
ARC
  5
DC
  8
LAYER1$C$L1
 62
     3
 10
-83.607757568400004
 20
54.800048828100003
 30
0.0
 40
0.7999999523000002
 50
185.57221358009991
 51
269.99974477849992
  0
ARC
  5
DD
  8
LAYER1$C$L1
 62
     3
 10
-86.222137451200012
 20
61.0000457764
 30
0.0
 40
1.1999998092999999
 50
5.5722561550999989
 51
90.000364504500027
  0
ARC
  5
DE
  8
LAYER1$C$L1
 62
     3
 10
-86.222137451200012
 20
87.000030517599996
 30
0.0
 40
1.1999998092999999
 50
269.9996354955
 51
354.42774384490002
  0
ARC
  5
DF
  8
LAYER1$C$L1
 62
     3
 10
-190.5
 20
74.0000457764
 30
0.0
 40
110.0
 50
349.87337712139993
 51
0.0
  0
ARC
  5
E0
  8
LAYER1$C$L1
 62
     3
 10
-190.5
 20
74.0000457764
 30
0.0
 40
110.0
 50
0.0
 51
10.126622878599999
  0
ARC
  5
E1
  8
LAYER4$C$L4
  6
PHANTOM
 62
     3
 10
-91.722122192399993
 20
133.00006103519991
 30
0.0
 40
1.1999998092999999
 50
5.5722561550999989
 51
90.000364504500027
  0
DIMENSION
  5
E2
  8
DIMENSIONS
  2
*D18
 10
-17.0
 20
54.100036621100003
 30
0.0
 11
-17.0
 21
74.000015258799976
 31
0.0
 70
     0
 13
-34.400009155299998
 23
93.899993896499979
 33
0.0
 14
-34.400009155299998
 24
54.100036621100003
 34
0.0
 50
270.0
1001
ACAD
1000
DSTYLE
1002
{
1070
    41
1040
1.9727878464999999
1070
    42
1040
2.5399999618999991
1070
    44
1040
3.8099999427999989
1070
    73
1070
     0
1070
   140
1040
3.1999998092999991
1070
   271
1070
     1
1070
   272
1070
     1
1002
}
  0
LINE
  5
F0
  8
LAYER4$C$L4
  6
PHANTOM
 62
     3
 10
-33.900009155299998
 20
91.953933715800005
 30
0.0
 11
-33.900009155299998
 21
93.399993896499993
 31
0.0
  0
LINE
  5
F1
  8
LAYER4$C$L4
  6
PHANTOM
 62
     3
 10
-48.0
 20
54.600036621100003
 30
0.0
 11
-48.0
 21
55.5
 31
0.0
  0
LINE
  5
F2
  8
LAYER4$C$L4
  6
PHANTOM
 62
     3
 10
-47.5
 20
54.100036621100003
 30
0.0
 11
-34.400009155299998
 21
54.100036621100003
 31
0.0
  0
LINE
  5
F3
  8
LAYER4$C$L4
  6
PHANTOM
 62
     3
 10
-33.900009155299998
 20
54.600036621100003
 30
0.0
 11
-33.900009155299998
 21
56.046066284200002
 31
0.0
  0
LINE
  5
F4
  8
LAYER4$C$L4
  6
PHANTOM
 62
     3
 10
-34.400009155299998
 20
93.899993896499979
 30
0.0
 11
-47.5
 21
93.899993896499979
 31
0.0
  0
LINE
  5
F5
  8
LAYER4$C$L4
  6
PHANTOM
 62
     3
 10
-48.0
 20
92.5
 30
0.0
 11
-48.0
 21
93.399993896499993
 31
0.0
  0
ARC
  5
F6
  8
LAYER4$C$L4
  6
PHANTOM
 62
     3
 10
-47.499984741200002
 20
93.400024414100002
 30
0.0
 40
0.5
 50
89.999982013899995
 51
179.9999640277999
  0
ARC
  5
F7
  8
LAYER4$C$L4
  6
PHANTOM
 62
     3
 10
-47.5
 20
54.600051879900001
 30
0.0
 40
0.5
 50
180.00014525520001
 51
270.00007262759988
  0
ARC
  5
F8
  8
LAYER4$C$L4
  6
PHANTOM
 62
     3
 10
-34.3999938965
 20
93.400024414100002
 30
0.0
 40
0.5
 50
359.99992668919998
 51
89.999818089400037
  0
ARC
  5
F9
  8
LAYER4$C$L4
  6
PHANTOM
 62
     3
 10
-34.400009155299998
 20
54.600051879900001
 30
0.0
 40
0.5
 50
270.00001798609998
 51
359.99992304669991
  0
POLYLINE
  5
FA
  8
LAYER1$C$L1
 62
     3
 66
     1
 10
0.0
 20
0.0
 30
0.0
  0
VERTEX
  5
75B
  8
LAYER1$C$L1
 62
     3
 10
-152.49980280679989
 20
151.6520813889999
 30
0.0
  0
VERTEX
  5
75C
  8
LAYER1$C$L1
 62
     3
 10
-152.31965960049999
 20
151.69743344770001
 30
0.0
  0
VERTEX
  5
75D
  8
LAYER1$C$L1
 62
     3
 10
-152.14336395039999
 20
151.8005259439999
 30
0.0
  0
VERTEX
  5
75E
  8
LAYER1$C$L1
 62
     3
 10
-151.97386433279999
 20
151.95963469599999
 30
0.0
  0
VERTEX
  5
75F
  8
LAYER1$C$L1
 62
     3
 10
-151.81399556299991
 20
152.17209867139999
 30
0.0
  0
VERTEX
  5
760
  8
LAYER1$C$L1
 62
     3
 10
-151.66643138430001
 20
152.43436449270001
 30
0.0
  0
VERTEX
  5
761
  8
LAYER1$C$L1
 62
     3
 10
-151.53363975030001
 20
152.74204586569991
 30
0.0
  0
VERTEX
  5
762
  8
LAYER1$C$L1
 62
     3
 10
-151.41784154949991
 20
153.0899969388999
 30
0.0
  0
VERTEX
  5
763
  8
LAYER1$C$L1
 62
     3
 10
-151.32097346200001
 20
153.47239836540001
 30
0.0
  0
VERTEX
  5
764
  8
LAYER1$C$L1
 62
     3
 10
-151.24465556899989
 20
153.88285462979999
 30
0.0
  0
VERTEX
  5
765
  8
LAYER1$C$L1
 62
     3
 10
-151.1901642576
 20
154.3145010101
 30
0.0
  0
VERTEX
  5
766
  8
LAYER1$C$L1
 62
     3
 10
-151.15841087379991
 20
154.7601183882
 30
0.0
  0
VERTEX
  5
767
  8
LAYER1$C$L1
 62
     3
 10
-151.14992648079991
 20
155.21225398609991
 30
0.0
  0
VERTEX
  5
768
  8
LAYER1$C$L1
 62
     3
 10
-151.1648529766
 20
155.66334601139991
 30
0.0
  0
VERTEX
  5
769
  8
LAYER1$C$L1
 62
     3
 10
-151.2029407215
 20
156.1058501249
 30
0.0
  0
VERTEX
  5
76A
  8
LAYER1$C$L1
 62
     3
 10
-151.2635527125999
 20
156.53236561689999
 30
0.0
  0
VERTEX
  5
76B
  8
LAYER1$C$L1
 62
     3
 10
-151.34567523789991
 20
156.9357591813
 30
0.0
  0
VERTEX
  5
76C
  8
LAYER1$C$L1
 62
     3
 10
-151.44793483009991
 20
157.3092842172
 30
0.0
  0
VERTEX
  5
76D
  8
LAYER1$C$L1
 62
     3
 10
-151.5686212370999
 20
157.6466936631
 30
0.0
  0
VERTEX
  5
76E
  8
LAYER1$C$L1
 62
     3
 10
-151.70571602559991
 20
157.94234447709999
 30
0.0
  0
VERTEX
  5
76F
  8
LAYER1$C$L1
 62
     3
 10
-151.85692633830001
 20
158.19129201379999
 30
0.0
  0
VERTEX
  5
770
  8
LAYER1$C$L1
 62
     3
 10
-152.01972324159991
 20
158.38937272219991
 30
0.0
  0
VERTEX
  5
771
  8
LAYER1$C$L1
 62
     3
 10
-152.19138402019999
 20
158.53327377950001
 30
0.0
  0
VERTEX
  5
772
  8
LAYER1$C$L1
 62
     3
 10
-152.36903771429991
 20
158.6205884961
 30
0.0
  0
VERTEX
  5
773
  8
LAYER1$C$L1
 62
     3
 10
-152.5497131347999
 20
158.64985656740001
 30
0.0
  0
SEQEND
  5
774
  8
LAYER1$C$L1
 62
     3
  0
POLYLINE
  5
115
  8
LAYER4$C$L4
  6
PHANTOM
 62
     3
 66
     1
 10
0.0
 20
0.0
 30
0.0
  0
VERTEX
  5
775
  8
LAYER4$C$L4
  6
PHANTOM
 62
     3
 10
-160.21281862859999
 20
138.73721065699999
 30
0.0
  0
VERTEX
  5
776
  8
LAYER4$C$L4
  6
PHANTOM
 62
     3
 10
-160.39489821219991
 20
139.0985379121
 30
0.0
  0
VERTEX
  5
777
  8
LAYER4$C$L4
  6
PHANTOM
 62
     3
 10
-160.60064939439999
 20
139.39186246520001
 30
0.0
  0
VERTEX
  5
778
  8
LAYER4$C$L4
  6
PHANTOM
 62
     3
 10
-160.8248870571
 20
139.60979226899991
 30
0.0
  0
VERTEX
  5
779
  8
LAYER4$C$L4
  6
PHANTOM
 62
     3
 10
-161.06196020609991
 20
139.746835293
 30
0.0
  0
VERTEX
  5
77A
  8
LAYER4$C$L4
  6
PHANTOM
 62
     3
 10
-161.30589438119989
 20
139.79953792769999
 30
0.0
  0
VERTEX
  5
77B
  8
LAYER4$C$L4
  6
PHANTOM
 62
     3
 10
-161.5505422178
 20
139.7665720185
 30
0.0
  0
VERTEX
  5
77C
  8
LAYER4$C$L4
  6
PHANTOM
 62
     3
 10
-161.78973836659989
 20
139.6487683364
 30
0.0
  0
VERTEX
  5
77D
  8
LAYER4$C$L4
  6
PHANTOM
 62
     3
 10
-162.01745486589999
 20
139.449095642
 30
0.0
  0
VERTEX
  5
77E
  8
LAYER4$C$L4
  6
PHANTOM
 62
     3
 10
-162.22795305139991
 20
139.17258586989999
 30
0.0
  0
VERTEX
  5
77F
  8
LAYER4$C$L4
  6
PHANTOM
 62
     3
 10
-162.4159281762999
 20
138.8262073194
 30
0.0
  0
VERTEX
  5
780
  8
LAYER4$C$L4
  6
PHANTOM
 62
     3
 10
-162.5766430955
 20
138.41868904680001
 30
0.0
  0
VERTEX
  5
781
  8
LAYER4$C$L4
  6
PHANTOM
 62
     3
 10
-162.70604764589999
 20
137.96030088570001
 30
0.0
  0
VERTEX
  5
782
  8
LAYER4$C$L4
  6
PHANTOM
 62
     3
 10
-162.80088071439991
 20
137.46259463690001
 30
0.0
  0
VERTEX
  5
783
  8
LAYER4$C$L4
  6
PHANTOM
 62
     3
 10
-162.8587524209
 20
136.9381129535
 30
0.0
  0
VERTEX
  5
784
  8
LAYER4$C$L4
  6
PHANTOM
 62
     3
 10
-162.8782043455999
 20
136.4000732538
 30
0.0
  0
VERTEX
  5
785
  8
LAYER4$C$L4
  6
PHANTOM
 62
     3
 10
-162.858746282
 20
135.86203463050001
 30
0.0
  0
VERTEX
  5
786
  8
LAYER4$C$L4
  6
PHANTOM
 62
     3
 10
-162.80086859119999
 20
135.33755614910001
 30
0.0
  0
VERTEX
  5
787
  8
LAYER4$C$L4
  6
PHANTOM
 62
     3
 10
-162.70602984399989
 20
134.8398551475
 30
0.0
  0
VERTEX
  5
788
  8
LAYER4$C$L4
  6
PHANTOM
 62
     3
 10
-162.57662006349989
 20
134.38147414619999
 30
0.0
  0
VERTEX
  5
789
  8
LAYER4$C$L4
  6
PHANTOM
 62
     3
 10
-162.4159004947
 20
133.97396476579991
 30
0.0
  0
VERTEX
  5
78A
  8
LAYER4$C$L4
  6
PHANTOM
 62
     3
 10
-162.2279214177
 20
133.6275966156999
 30
0.0
  0
VERTEX
  5
78B
  8
LAYER4$C$L4
  6
PHANTOM
 62
     3
 10
-162.01742007729999
 20
133.3510984902
 30
0.0
  0
VERTEX
  5
78C
  8
LAYER4$C$L4
  6
PHANTOM
 62
     3
 10
-161.7897012999
 20
133.1514383949
 30
0.0
  0
VERTEX
  5
78D
  8
LAYER4$C$L4
  6
PHANTOM
 62
     3
 10
-161.55050380700001
 20
133.03364794709989
 30
0.0
  0
VERTEX
  5
78E
  8
LAYER4$C$L4
  6
PHANTOM
 62
     3
 10
-161.30585559439999
 20
133.0006955737999
 30
0.0
  0
VERTEX
  5
78F
  8
LAYER4$C$L4
  6
PHANTOM
 62
     3
 10
-161.06192202080001
 20
133.0534117048999
 30
0.0
  0
VERTEX
  5
790
  8
LAYER4$C$L4
  6
PHANTOM
 62
     3
 10
-160.82485043540001
 20
133.1904678457
 30
0.0
  0
VERTEX
  5
791
  8
LAYER4$C$L4
  6
PHANTOM
 62
     3
 10
-160.60061525930001
 20
133.40841005600001
 30
0.0
  0
VERTEX
  5
792
  8
LAYER4$C$L4
  6
PHANTOM
 62
     3
 10
-160.3948674239999
 20
133.7017459928
 30
0.0
  0
VERTEX
  5
793
  8
LAYER4$C$L4
  6
PHANTOM
 62
     3
 10
-160.2127919630999
 20
134.0630833219
 30
0.0
  0
SEQEND
  5
794
  8
LAYER4$C$L4
  6
PHANTOM
 62
     3
  0
POLYLINE
  5
136
  8
LAYER4$C$L4
  6
PHANTOM
 62
     3
 66
     1
 10
0.0
 20
0.0
 30
0.0
  0
VERTEX
  5
795
  8
LAYER4$C$L4
  6
PHANTOM
 62
     3
 10
-160.8886948780999
 20
139.65546017189999
 30
0.0
  0
VERTEX
  5
796
  8
LAYER4$C$L4
  6
PHANTOM
 62
     3
 10
-161.0934352047999
 20
139.48382578019999
 30
0.0
  0
VERTEX
  5
797
  8
LAYER4$C$L4
  6
PHANTOM
 62
     3
 10
-161.28508340740001
 20
139.25010924360001
 30
0.0
  0
VERTEX
  5
798
  8
LAYER4$C$L4
  6
PHANTOM
 62
     3
 10
-161.45978116849989
 20
138.95901581140001
 30
0.0
  0
VERTEX
  5
799
  8
LAYER4$C$L4
  6
PHANTOM
 62
     3
 10
-161.61401142189999
 20
138.6164058615999
 30
0.0
  0
VERTEX
  5
79A
  8
LAYER4$C$L4
  6
PHANTOM
 62
     3
 10
-161.7446691589999
 20
138.22917691750001
 30
0.0
  0
VERTEX
  5
79B
  8
LAYER4$C$L4
  6
PHANTOM
 62
     3
 10
-161.84912394029999
 20
137.80512478509991
 30
0.0
  0
VERTEX
  5
79C
  8
LAYER4$C$L4
  6
PHANTOM
 62
     3
 10
-161.9252728516
 20
137.3527866055999
 30
0.0
  0
VERTEX
  5
79D
  8
LAYER4$C$L4
  6
PHANTOM
 62
     3
 10
-161.97158284080001
 20
136.8812689829999
 30
0.0
  0
VERTEX
  5
79E
  8
LAYER4$C$L4
  6
PHANTOM
 62
     3
 10
-161.9871215819
 20
136.40006464769999
 30
0.0
  0
VERTEX
  5
79F
  8
LAYER4$C$L4
  6
PHANTOM
 62
     3
 10
-161.97157624409991
 20
135.91886134549989
 30
0.0
  0
VERTEX
  5
7A0
  8
LAYER4$C$L4
  6
PHANTOM
 62
     3
 10
-161.925259791
 20
135.44734680170001
 30
0.0
  0
VERTEX
  5
7A1
  8
LAYER4$C$L4
  6
PHANTOM
 62
     3
 10
-161.84910467869989
 20
134.99501368439991
 30
0.0
  0
VERTEX
  5
7A2
  8
LAYER4$C$L4
  6
PHANTOM
 62
     3
 10
-161.74464408430001
 20
134.57096849600001
 30
0.0
  0
VERTEX
  5
7A3
  8
LAYER4$C$L4
  6
PHANTOM
 62
     3
 10
-161.61398103879989
 20
134.18374823760001
 30
0.0
  0
VERTEX
  5
7A4
  8
LAYER4$C$L4
  6
PHANTOM
 62
     3
 10
-161.4597460887999
 20
133.8411485405999
 30
0.0
  0
VERTEX
  5
7A5
  8
LAYER4$C$L4
  6
PHANTOM
 62
     3
 10
-161.28504433719991
 20
133.55006672170001
 30
0.0
  0
VERTEX
  5
7A6
  8
LAYER4$C$L4
  6
PHANTOM
 62
     3
 10
-161.09339293069991
 20
133.31636292519991
 30
0.0
  0
VERTEX
  5
7A7
  8
LAYER4$C$L4
  6
PHANTOM
 62
     3
 10
-160.8886502512
 20
133.14474214389989
 30
0.0
  0
SEQEND
  5
7A8
  8
LAYER4$C$L4
  6
PHANTOM
 62
     3
  0
POLYLINE
  5
14B
  8
LAYER1$C$L1
 62
     3
 66
     1
 10
0.0
 20
0.0
 30
0.0
  0
VERTEX
  5
7A9
  8
LAYER1$C$L1
 62
     3
 10
-152.5497131347999
 20
133.35011291500001
 30
0.0
  0
VERTEX
  5
7AA
  8
LAYER1$C$L1
 62
     3
 10
-152.36903771429991
 20
133.37938098629999
 30
0.0
  0
VERTEX
  5
7AB
  8
LAYER1$C$L1
 62
     3
 10
-152.19138402019999
 20
133.46669570290001
 30
0.0
  0
VERTEX
  5
7AC
  8
LAYER1$C$L1
 62
     3
 10
-152.01972324159991
 20
133.61059676019991
 30
0.0
  0
VERTEX
  5
7AD
  8
LAYER1$C$L1
 62
     3
 10
-151.85692633830001
 20
133.80867746870001
 30
0.0
  0
VERTEX
  5
7AE
  8
LAYER1$C$L1
 62
     3
 10
-151.70571602559991
 20
134.05762500540001
 30
0.0
  0
VERTEX
  5
7AF
  8
LAYER1$C$L1
 62
     3
 10
-151.5686212370999
 20
134.35327581929991
 30
0.0
  0
VERTEX
  5
7B0
  8
LAYER1$C$L1
 62
     3
 10
-151.44793483009991
 20
134.69068526519999
 30
0.0
  0
VERTEX
  5
7B1
  8
LAYER1$C$L1
 62
     3
 10
-151.34567523789991
 20
135.06421030109999
 30
0.0
  0
VERTEX
  5
7B2
  8
LAYER1$C$L1
 62
     3
 10
-151.2635527125999
 20
135.4676038655
 30
0.0
  0
VERTEX
  5
7B3
  8
LAYER1$C$L1
 62
     3
 10
-151.2029407215
 20
135.8941193574999
 30
0.0
  0
VERTEX
  5
7B4
  8
LAYER1$C$L1
 62
     3
 10
-151.1648529766
 20
136.33662347099991
 30
0.0
  0
VERTEX
  5
7B5
  8
LAYER1$C$L1
 62
     3
 10
-151.14992648079991
 20
136.78771549629991
 30
0.0
  0
VERTEX
  5
7B6
  8
LAYER1$C$L1
 62
     3
 10
-151.15841087379991
 20
137.23985109430001
 30
0.0
  0
VERTEX
  5
7B7
  8
LAYER1$C$L1
 62
     3
 10
-151.1901642576
 20
137.6854684722999
 30
0.0
  0
VERTEX
  5
7B8
  8
LAYER1$C$L1
 62
     3
 10
-151.24465556899989
 20
138.11711485270001
 30
0.0
  0
VERTEX
  5
7B9
  8
LAYER1$C$L1
 62
     3
 10
-151.32097346200001
 20
138.52757111700001
 30
0.0
  0
VERTEX
  5
7BA
  8
LAYER1$C$L1
 62
     3
 10
-151.41784154949991
 20
138.9099725435
 30
0.0
  0
VERTEX
  5
7BB
  8
LAYER1$C$L1
 62
     3
 10
-151.53363975030001
 20
139.25792361669991
 30
0.0
  0
VERTEX
  5
7BC
  8
LAYER1$C$L1
 62
     3
 10
-151.66643138430001
 20
139.56560498970001
 30
0.0
  0
VERTEX
  5
7BD
  8
LAYER1$C$L1
 62
     3
 10
-151.81399556299991
 20
139.827870811
 30
0.0
  0
VERTEX
  5
7BE
  8
LAYER1$C$L1
 62
     3
 10
-151.97386433279999
 20
140.0403347864999
 30
0.0
  0
VERTEX
  5
7BF
  8
LAYER1$C$L1
 62
     3
 10
-152.14336395039999
 20
140.1994435384
 30
0.0
  0
VERTEX
  5
7C0
  8
LAYER1$C$L1
 62
     3
 10
-152.31965960049999
 20
140.3025360346999
 30
0.0
  0
VERTEX
  5
7C1
  8
LAYER1$C$L1
 62
     3
 10
-152.49980280679989
 20
140.3478880934
 30
0.0
  0
SEQEND
  5
7C2
  8
LAYER1$C$L1
 62
     3
  0
POLYLINE
  5
166
  8
LAYER1$C$L1
 62
     3
 66
     1
 10
0.0
 20
0.0
 30
0.0
  0
VERTEX
  5
7C3
  8
LAYER1$C$L1
 62
     3
 10
-155.08384877309999
 20
134.36079246669991
 30
0.0
  0
VERTEX
  5
7C4
  8
LAYER1$C$L1
 62
     3
 10
-154.9558484522
 20
134.08082695940001
 30
0.0
  0
VERTEX
  5
7C5
  8
LAYER1$C$L1
 62
     3
 10
-154.8152135695
 20
133.8417298036
 30
0.0
  0
VERTEX
  5
7C6
  8
LAYER1$C$L1
 62
     3
 10
-154.66401957549991
 20
133.64702952889991
 30
0.0
  0
VERTEX
  5
7C7
  8
LAYER1$C$L1
 62
     3
 10
-154.50449774910001
 20
133.49959946749991
 30
0.0
  0
VERTEX
  5
7C8
  8
LAYER1$C$L1
 62
     3
 10
-154.33900226899991
 20
133.40161535129991
 30
0.0
  0
VERTEX
  5
7C9
  8
LAYER1$C$L1
 62
     3
 10
-154.16997547150001
 20
133.35452320280001
 30
0.0
  0
VERTEX
  5
7CA
  8
LAYER1$C$L1
 62
     3
 10
-153.99991180699999
 20
133.3590179945999
 30
0.0
  0
VERTEX
  5
7CB
  8
LAYER1$C$L1
 62
     3
 10
-153.83132102779999
 20
133.4150333938999
 30
0.0
  0
VERTEX
  5
7CC
  8
LAYER1$C$L1
 62
     3
 10
-153.6666911495999
 20
133.52174274099991
 30
0.0
  0
VERTEX
  5
7CD
  8
LAYER1$C$L1
 62
     3
 10
-153.5084517345
 20
133.67757124920001
 30
0.0
  0
VERTEX
  5
7CE
  8
LAYER1$C$L1
 62
     3
 10
-153.3589380356
 20
133.88021924450001
 30
0.0
  0
VERTEX
  5
7CF
  8
LAYER1$C$L1
 62
     3
 10
-153.2203565346
 20
134.12669610419999
 30
0.0
  0
SEQEND
  5
7D0
  8
LAYER1$C$L1
 62
     3
  0
POLYLINE
  5
175
  8
LAYER1$C$L1
 62
     3
 66
     1
 10
0.0
 20
0.0
 30
0.0
  0
VERTEX
  5
7D1
  8
LAYER1$C$L1
 62
     3
 10
-153.28365001739991
 20
139.6939991214999
 30
0.0
  0
VERTEX
  5
7D2
  8
LAYER1$C$L1
 62
     3
 10
-153.43652646399991
 20
139.9324979056999
 30
0.0
  0
VERTEX
  5
7D3
  8
LAYER1$C$L1
 62
     3
 10
-153.60039036680001
 20
140.1199289953
 30
0.0
  0
VERTEX
  5
7D4
  8
LAYER1$C$L1
 62
     3
 10
-153.77252689580001
 20
140.25318710849999
 30
0.0
  0
VERTEX
  5
7D5
  8
LAYER1$C$L1
 62
     3
 10
-153.9500841631999
 20
140.33006447930001
 30
0.0
  0
VERTEX
  5
7D6
  8
LAYER1$C$L1
 62
     3
 10
-154.1301204728
 20
140.34928743489999
 30
0.0
  0
VERTEX
  5
7D7
  8
LAYER1$C$L1
 62
     3
 10
-154.30965305660001
 20
140.3105374973
 30
0.0
  0
VERTEX
  5
7D8
  8
LAYER1$C$L1
 62
     3
 10
-154.48570749219991
 20
140.21445665940001
 30
0.0
  0
VERTEX
  5
7D9
  8
LAYER1$C$L1
 62
     3
 10
-154.6553669816
 20
140.0626367495
 30
0.0
  0
VERTEX
  5
7DA
  8
LAYER1$C$L1
 62
     3
 10
-154.81582067569991
 20
139.85759305760001
 30
0.0
  0
VERTEX
  5
7DB
  8
LAYER1$C$L1
 62
     3
 10
-154.96441024329991
 20
139.602722664
 30
0.0
  0
VERTEX
  5
7DC
  8
LAYER1$C$L1
 62
     3
 10
-155.0986739132
 20
139.30224815700001
 30
0.0
  0
VERTEX
  5
7DD
  8
LAYER1$C$L1
 62
     3
 10
-155.2163872596999
 20
138.9611476755999
 30
0.0
  0
VERTEX
  5
7DE
  8
LAYER1$C$L1
 62
     3
 10
-155.3156000562999
 20
138.5850724330999
 30
0.0
  0
VERTEX
  5
7DF
  8
LAYER1$C$L1
 62
     3
 10
-155.39466858590001
 20
138.18025309039999
 30
0.0
  0
VERTEX
  5
7E0
  8
LAYER1$C$L1
 62
     3
 10
-155.45228287340001
 20
137.75339652889991
 30
0.0
  0
VERTEX
  5
7E1
  8
LAYER1$C$L1
 62
     3
 10
-155.4874883889
 20
137.31157473370001
 30
0.0
  0
VERTEX
  5
7E2
  8
LAYER1$C$L1
 62
     3
 10
-155.4997018617
 20
136.86210762760001
 30
0.0
  0
VERTEX
  5
7E3
  8
LAYER1$C$L1
 62
     3
 10
-155.48872094399991
 20
136.41244179809991
 30
0.0
  0
VERTEX
  5
7E4
  8
LAYER1$C$L1
 62
     3
 10
-155.45472756320001
 20
135.97002712479991
 30
0.0
  0
VERTEX
  5
7E5
  8
LAYER1$C$L1
 62
     3
 10
-155.39828490779999
 20
135.5421933531
 30
0.0
  0
VERTEX
  5
7E6
  8
LAYER1$C$L1
 62
     3
 10
-155.32032809649999
 20
135.1360286581
 30
0.0
  0
SEQEND
  5
7E7
  8
LAYER1$C$L1
 62
     3
  0
POLYLINE
  5
18D
  8
LAYER4$C$L4
  6
PHANTOM
 62
     3
 66
     1
 10
0.0
 20
0.0
 30
0.0
  0
VERTEX
  5
7E8
  8
LAYER4$C$L4
  6
PHANTOM
 62
     3
 10
-160.2127919630999
 20
157.93688616049991
 30
0.0
  0
VERTEX
  5
7E9
  8
LAYER4$C$L4
  6
PHANTOM
 62
     3
 10
-160.3948674239999
 20
158.29822348959991
 30
0.0
  0
VERTEX
  5
7EA
  8
LAYER4$C$L4
  6
PHANTOM
 62
     3
 10
-160.60061525930001
 20
158.5915594263999
 30
0.0
  0
VERTEX
  5
7EB
  8
LAYER4$C$L4
  6
PHANTOM
 62
     3
 10
-160.82485043540001
 20
158.80950163669999
 30
0.0
  0
VERTEX
  5
7EC
  8
LAYER4$C$L4
  6
PHANTOM
 62
     3
 10
-161.06192202080001
 20
158.94655777749989
 30
0.0
  0
VERTEX
  5
7ED
  8
LAYER4$C$L4
  6
PHANTOM
 62
     3
 10
-161.30585559439999
 20
158.9992739086
 30
0.0
  0
VERTEX
  5
7EE
  8
LAYER4$C$L4
  6
PHANTOM
 62
     3
 10
-161.55050380700001
 20
158.96632153530001
 30
0.0
  0
VERTEX
  5
7EF
  8
LAYER4$C$L4
  6
PHANTOM
 62
     3
 10
-161.7897012999
 20
158.84853108749991
 30
0.0
  0
VERTEX
  5
7F0
  8
LAYER4$C$L4
  6
PHANTOM
 62
     3
 10
-162.01742007729999
 20
158.6488709921999
 30
0.0
  0
VERTEX
  5
7F1
  8
LAYER4$C$L4
  6
PHANTOM
 62
     3
 10
-162.2279214177
 20
158.3723728667
 30
0.0
  0
VERTEX
  5
7F2
  8
LAYER4$C$L4
  6
PHANTOM
 62
     3
 10
-162.4159004947
 20
158.02600471659991
 30
0.0
  0
VERTEX
  5
7F3
  8
LAYER4$C$L4
  6
PHANTOM
 62
     3
 10
-162.57662006349989
 20
157.6184953362
 30
0.0
  0
VERTEX
  5
7F4
  8
LAYER4$C$L4
  6
PHANTOM
 62
     3
 10
-162.70602984399989
 20
157.1601143348999
 30
0.0
  0
VERTEX
  5
7F5
  8
LAYER4$C$L4
  6
PHANTOM
 62
     3
 10
-162.80086859119999
 20
156.66241333330001
 30
0.0
  0
VERTEX
  5
7F6
  8
LAYER4$C$L4
  6
PHANTOM
 62
     3
 10
-162.858746282
 20
156.137934852
 30
0.0
  0
VERTEX
  5
7F7
  8
LAYER4$C$L4
  6
PHANTOM
 62
     3
 10
-162.8782043455999
 20
155.59989622859999
 30
0.0
  0
VERTEX
  5
7F8
  8
LAYER4$C$L4
  6
PHANTOM
 62
     3
 10
-162.8587524209
 20
155.06185652889991
 30
0.0
  0
VERTEX
  5
7F9
  8
LAYER4$C$L4
  6
PHANTOM
 62
     3
 10
-162.80088071439991
 20
154.5373748454999
 30
0.0
  0
VERTEX
  5
7FA
  8
LAYER4$C$L4
  6
PHANTOM
 62
     3
 10
-162.70604764589999
 20
154.0396685968
 30
0.0
  0
VERTEX
  5
7FB
  8
LAYER4$C$L4
  6
PHANTOM
 62
     3
 10
-162.5766430955
 20
153.58128043560001
 30
0.0
  0
VERTEX
  5
7FC
  8
LAYER4$C$L4
  6
PHANTOM
 62
     3
 10
-162.4159281762999
 20
153.17376216310001
 30
0.0
  0
VERTEX
  5
7FD
  8
LAYER4$C$L4
  6
PHANTOM
 62
     3
 10
-162.22795305139991
 20
152.82738361259999
 30
0.0
  0
VERTEX
  5
7FE
  8
LAYER4$C$L4
  6
PHANTOM
 62
     3
 10
-162.01745486589999
 20
152.5508738405
 30
0.0
  0
VERTEX
  5
7FF
  8
LAYER4$C$L4
  6
PHANTOM
 62
     3
 10
-161.78973836659989
 20
152.35120114610001
 30
0.0
  0
VERTEX
  5
800
  8
LAYER4$C$L4
  6
PHANTOM
 62
     3
 10
-161.5505422178
 20
152.23339746389991
 30
0.0
  0
VERTEX
  5
801
  8
LAYER4$C$L4
  6
PHANTOM
 62
     3
 10
-161.30589438119989
 20
152.20043155469989
 30
0.0
  0
VERTEX
  5
802
  8
LAYER4$C$L4
  6
PHANTOM
 62
     3
 10
-161.06196020609991
 20
152.25313418939999
 30
0.0
  0
VERTEX
  5
803
  8
LAYER4$C$L4
  6
PHANTOM
 62
     3
 10
-160.8248870571
 20
152.39017721350001
 30
0.0
  0
VERTEX
  5
804
  8
LAYER4$C$L4
  6
PHANTOM
 62
     3
 10
-160.60064939439999
 20
152.6081070171999
 30
0.0
  0
VERTEX
  5
805
  8
LAYER4$C$L4
  6
PHANTOM
 62
     3
 10
-160.39489821219991
 20
152.90143157029999
 30
0.0
  0
VERTEX
  5
806
  8
LAYER4$C$L4
  6
PHANTOM
 62
     3
 10
-160.21281862859999
 20
153.26275882549999
 30
0.0
  0
SEQEND
  5
807
  8
LAYER4$C$L4
  6
PHANTOM
 62
     3
  0
POLYLINE
  5
1AE
  8
LAYER4$C$L4
  6
PHANTOM
 62
     3
 66
     1
 10
0.0
 20
0.0
 30
0.0
  0
VERTEX
  5
808
  8
LAYER4$C$L4
  6
PHANTOM
 62
     3
 10
-160.8886502512
 20
158.8552273386
 30
0.0
  0
VERTEX
  5
809
  8
LAYER4$C$L4
  6
PHANTOM
 62
     3
 10
-161.09339293069991
 20
158.68360655719999
 30
0.0
  0
VERTEX
  5
80A
  8
LAYER4$C$L4
  6
PHANTOM
 62
     3
 10
-161.28504433719991
 20
158.4499027606999
 30
0.0
  0
VERTEX
  5
80B
  8
LAYER4$C$L4
  6
PHANTOM
 62
     3
 10
-161.4597460887999
 20
158.15882094189999
 30
0.0
  0
VERTEX
  5
80C
  8
LAYER4$C$L4
  6
PHANTOM
 62
     3
 10
-161.61398103879989
 20
157.8162212448
 30
0.0
  0
VERTEX
  5
80D
  8
LAYER4$C$L4
  6
PHANTOM
 62
     3
 10
-161.74464408430001
 20
157.4290009863999
 30
0.0
  0
VERTEX
  5
80E
  8
LAYER4$C$L4
  6
PHANTOM
 62
     3
 10
-161.84910467869989
 20
157.004955798
 30
0.0
  0
VERTEX
  5
80F
  8
LAYER4$C$L4
  6
PHANTOM
 62
     3
 10
-161.925259791
 20
156.5526226806999
 30
0.0
  0
VERTEX
  5
810
  8
LAYER4$C$L4
  6
PHANTOM
 62
     3
 10
-161.97157624409991
 20
156.08110813690001
 30
0.0
  0
VERTEX
  5
811
  8
LAYER4$C$L4
  6
PHANTOM
 62
     3
 10
-161.9871215819
 20
155.5999048347
 30
0.0
  0
VERTEX
  5
812
  8
LAYER4$C$L4
  6
PHANTOM
 62
     3
 10
-161.97158284080001
 20
155.11870049940001
 30
0.0
  0
VERTEX
  5
813
  8
LAYER4$C$L4
  6
PHANTOM
 62
     3
 10
-161.9252728516
 20
154.64718287689999
 30
0.0
  0
VERTEX
  5
814
  8
LAYER4$C$L4
  6
PHANTOM
 62
     3
 10
-161.84912394029999
 20
154.1948446973
 30
0.0
  0
VERTEX
  5
815
  8
LAYER4$C$L4
  6
PHANTOM
 62
     3
 10
-161.7446691589999
 20
153.77079256490001
 30
0.0
  0
VERTEX
  5
816
  8
LAYER4$C$L4
  6
PHANTOM
 62
     3
 10
-161.61401142189999
 20
153.3835636208
 30
0.0
  0
VERTEX
  5
817
  8
LAYER4$C$L4
  6
PHANTOM
 62
     3
 10
-161.45978116849989
 20
153.04095367100001
 30
0.0
  0
VERTEX
  5
818
  8
LAYER4$C$L4
  6
PHANTOM
 62
     3
 10
-161.28508340740001
 20
152.7498602389
 30
0.0
  0
VERTEX
  5
819
  8
LAYER4$C$L4
  6
PHANTOM
 62
     3
 10
-161.0934352047999
 20
152.51614370219991
 30
0.0
  0
VERTEX
  5
81A
  8
LAYER4$C$L4
  6
PHANTOM
 62
     3
 10
-160.8886948780999
 20
152.3445093105
 30
0.0
  0
SEQEND
  5
81B
  8
LAYER4$C$L4
  6
PHANTOM
 62
     3
  0
ARC
  5
1C3
  8
LAYER4$C$L4
  6
PHANTOM
 62
     3
 10
-160.33084106449999
 20
155.5998535155999
 30
0.0
 40
2.1680212020999998
 50
295.00004031069989
 51
64.999959689300027
  0
ARC
  5
1C4
  8
LAYER4$C$L4
  6
PHANTOM
 62
     3
 10
-154.59996032709989
 20
147.0
 30
0.0
 40
1.0
 50
270.00001798609998
 51
0.0
  0
ARC
  5
1C5
  8
LAYER1$C$L1
 62
     3
 10
-150.5997161864999
 20
153.39985656740001
 30
0.0
 40
0.5
 50
90.00003665540001
 51
180.00007331079999
  0
ARC
  5
1C6
  8
LAYER1$C$L1
 62
     3
 10
-150.5997161864999
 20
156.89985656740001
 30
0.0
 40
0.5
 50
180.00014525520001
 51
270.00007262759988
  0
ARC
  5
1C7
  8
LAYER1$C$L1
 62
     3
 10
-153.30410766599999
 20
154.80099487299989
 30
0.0
 40
3.2500247954999999
 50
249.46147522730001
 51
288.49398459790001
  0
ARC
  5
1C8
  8
LAYER1$C$L1
 62
     3
 10
-153.30410766599999
 20
155.49870300289999
 30
0.0
 40
3.2500324249000001
 50
71.504813288799994
 51
104.16994710749999
  0
ARC
  5
1C9
  8
LAYER1$C$L1
 62
     3
 10
-152.55937194820001
 20
154.08190917970001
 30
0.0
 40
0.5
 50
210.00013925979991
 51
270.00018191060002
  0
ARC
  5
1CA
  8
LAYER1$C$L1
 62
     3
 10
-154.62037658689991
 20
157.45166015629991
 30
0.0
 40
0.5
 50
157.96528199170001
 51
210.00017659849999
  0
ARC
  5
1CB
  8
LAYER1$C$L1
 62
     3
 10
-140.0
 20
160.19998168949999
 30
0.0
 40
0.5
 50
0.0
 51
89.999982013899995
  0
ARC
  5
1CC
  8
LAYER1$C$L1
 62
     3
 10
-152.78407287600001
 20
153.27110290530001
 30
0.0
 40
0.5
 50
210.00008461830001
 51
270.00007262759988
  0
ARC
  5
1CD
  8
LAYER4$C$L4
  6
PHANTOM
 62
     3
 10
-154.59996032709989
 20
144.99996948239991
 30
0.0
 40
1.0
 50
0.0
 51
89.999982013899995
  0
ARC
  5
1CE
  8
LAYER4$C$L4
  6
PHANTOM
 62
     3
 10
-160.33084106449999
 20
136.40011596679989
 30
0.0
 40
2.1680212020999998
 50
295.00004031069989
 51
64.999959689300027
  0
ARC
  5
1CF
  8
LAYER1$C$L1
 62
     3
 10
-140.0
 20
131.7999877929999
 30
0.0
 40
0.5
 50
270.00001798609998
 51
0.0
  0
ARC
  5
1D0
  8
LAYER1$C$L1
 62
     3
 10
-159.2997131347999
 20
131.49999999999989
 30
0.0
 40
0.1999999881
 50
180.00003597220001
 51
270.00001798609998
  0
ARC
  5
1D1
  8
LAYER1$C$L1
 62
     3
 10
-154.62037658689991
 20
134.54830932620001
 30
0.0
 40
0.5
 50
149.99980609859989
 51
202.03470070540001
  0
ARC
  5
1D2
  8
LAYER1$C$L1
 62
     3
 10
-152.55937194820001
 20
137.91806030270001
 30
0.0
 40
0.5
 50
89.999818089400023
 51
149.99986074020001
  0
ARC
  5
1D3
  8
LAYER1$C$L1
 62
     3
 10
-152.78407287600001
 20
138.72886657709989
 30
0.0
 40
0.5
 50
89.999927372399995
 51
149.99991538169991
  0
ARC
  5
1D4
  8
LAYER1$C$L1
 62
     3
 10
-150.5997161864999
 20
138.60011291500001
 30
0.0
 40
0.5
 50
179.9999093863
 51
269.9999460416999
  0
ARC
  5
1D5
  8
LAYER1$C$L1
 62
     3
 10
-150.5997161864999
 20
135.10011291500001
 30
0.0
 40
0.5
 50
89.999927372399995
 51
179.99985474479999
  0
ARC
  5
1D6
  8
LAYER1$C$L1
 62
     3
 10
-153.30410766599999
 20
137.19897460940001
 30
0.0
 40
3.2500247954999999
 50
71.506015402100005
 51
110.5385247727
  0
ARC
  5
1D7
  8
LAYER1$C$L1
 62
     3
 10
-153.30410766599999
 20
136.5012664795
 30
0.0
 40
3.2500324249000001
 50
255.83005289249991
 51
288.49518671120001
  0
ARC
  5
1D8
  8
LAYER1$C$L1
 62
     3
 10
-159.79997253420001
 20
142.84997558590001
 30
0.0
 40
0.5
 50
179.9999640277999
 51
269.9999460416999
  0
ARC
  5
1D9
  8
LAYER1$C$L1
 62
     3
 10
-159.79997253420001
 20
149.1499786377
 30
0.0
 40
0.5
 50
89.999982013899995
 51
179.9999640277999
  0
LINE
  5
1DA
  8
LAYER4$C$L4
  6
PHANTOM
 62
     3
 10
-159.41449168799991
 20
153.6349597494
 30
0.0
 11
-160.2127107915
 21
153.26274412590001
 31
0.0
  0
LINE
  5
1DB
  8
LAYER4$C$L4
  6
PHANTOM
 62
     3
 10
-163.0
 20
160.09997558590001
 30
0.0
 11
-163.0
 21
146.0
 31
0.0
  0
LINE
  5
1DC
  8
LAYER4$C$L4
  6
PHANTOM
 62
     3
 10
-152.5999908446999
 20
160.09997558590001
 30
0.0
 11
-152.5999908446999
 21
159.19995117190001
 31
0.0
  0
LINE
  5
1DD
  8
LAYER4$C$L4
  6
PHANTOM
 62
     3
 10
-153.59996032709989
 20
159.19995117190001
 30
0.0
 11
-153.59996032709989
 21
147.0
 31
0.0
  0
LINE
  5
1DE
  8
LAYER4$C$L4
  6
PHANTOM
 62
     3
 10
-152.5999908446999
 20
160.09996032709989
 30
0.0
 11
-163.0
 21
160.09996032709989
 31
0.0
  0
LINE
  5
1DF
  8
LAYER4$C$L4
  6
PHANTOM
 62
     3
 10
-154.59996032709989
 20
145.99998474119991
 30
0.0
 11
-163.0
 21
145.99998474119991
 31
0.0
  0
LINE
  5
1E0
  8
LAYER4$C$L4
  6
PHANTOM
 62
     3
 10
-152.5999908446999
 20
159.19993591309989
 30
0.0
 11
-153.59996032709989
 21
159.19993591309989
 31
0.0
  0
LINE
  5
1E1
  8
LAYER4$C$L4
  6
PHANTOM
 62
     3
 10
-149.0999908446999
 20
150.2999114989999
 30
0.0
 11
-153.59996032709989
 21
150.2999114989999
 31
0.0
  0
LINE
  5
1E2
  8
LAYER4$C$L4
  6
PHANTOM
 62
     3
 10
-149.0999908446999
 20
147.09996032709989
 30
0.0
 11
-153.59996032709989
 21
147.09996032709989
 31
0.0
  0
LINE
  5
1E3
  8
LAYER4$C$L4
  6
PHANTOM
 62
     3
 10
-149.0999908446999
 20
150.29992675779991
 30
0.0
 11
-149.0999908446999
 21
147.09997558590001
 31
0.0
  0
LINE
  5
1E4
  8
LAYER4$C$L4
  6
PHANTOM
 62
     3
 10
-149.5999908446999
 20
149.82360839840001
 30
0.0
 11
-149.5999908446999
 21
147.47021484379999
 31
0.0
  0
LINE
  5
1E5
  8
LAYER4$C$L4
  6
PHANTOM
 62
     3
 10
-161.94515991209991
 20
150.29992675779991
 30
0.0
 11
-161.94515991209991
 21
146.0
 31
0.0
  0
LINE
  5
1E6
  8
LAYER4$C$L4
  6
PHANTOM
 62
     3
 10
-161.94515991209991
 20
150.2999114989999
 30
0.0
 11
-163.0
 21
150.2999114989999
 31
0.0
  0
LINE
  5
1E7
  8
LAYER4$C$L4
  6
PHANTOM
 62
     3
 10
-162.0
 20
150.29992675779991
 30
0.0
 11
-162.0
 21
147.09997558590001
 31
0.0
  0
LINE
  5
1E8
  8
LAYER4$C$L4
  6
PHANTOM
 62
     3
 10
-162.0
 20
147.09996032709989
 30
0.0
 11
-163.0
 21
147.09996032709989
 31
0.0
  0
LINE
  5
1E9
  8
LAYER4$C$L4
  6
PHANTOM
 62
     3
 10
-160.21281433109999
 20
153.26281738279991
 30
0.0
 11
-160.21281433109999
 21
146.0
 31
0.0
  0
LINE
  5
1EA
  8
LAYER4$C$L4
  6
PHANTOM
 62
     3
 10
-160.21281433109999
 20
160.0998535155999
 30
0.0
 11
-160.21281433109999
 21
157.93701171879991
 31
0.0
  0
LINE
  5
1EB
  8
LAYER4$C$L4
  6
PHANTOM
 62
     3
 10
-160.21284019660001
 20
157.9369732234999
 30
0.0
 11
-159.41463492229991
 21
157.5647640487
 31
0.0
  0
LINE
  5
1EC
  8
LAYER4$C$L4
  6
PHANTOM
 62
     3
 10
-159.60000610349999
 20
157.65112304690001
 30
0.0
 11
-159.60000610349999
 21
153.5484619140999
 31
0.0
  0
LINE
  5
1ED
  8
LAYER4$C$L4
  6
PHANTOM
 62
     3
 10
-159.40000915530001
 20
157.5578613280999
 30
0.0
 11
-159.40000915530001
 21
153.64172363279991
 31
0.0
  0
LINE
  5
1EE
  8
LAYER1$C$L1
 62
     3
 10
-151.47924804690001
 20
146.00007629389989
 30
0.0
 11
-151.47924804690001
 21
150.1999664306999
 31
0.0
  0
LINE
  5
1EF
  8
LAYER1$C$L1
 62
     3
 10
-154.58567810059989
 20
147.09996032709989
 30
0.0
 11
-154.58567810059989
 21
150.1999664306999
 31
0.0
  0
LINE
  5
1F0
  8
LAYER1$C$L1
 62
     3
 10
-157.0
 20
147.09996032709989
 30
0.0
 11
-157.0
 21
150.1999664306999
 31
0.0
  0
LINE
  5
1F1
  8
LAYER1$C$L1
 62
     3
 10
-157.42581176760001
 20
151.29992675779991
 30
0.0
 11
-157.42581176760001
 21
160.69999694820001
 31
0.0
  0
LINE
  5
1F2
  8
LAYER1$C$L1
 62
     3
 10
-148.66107177730001
 20
152.3000793457
 30
0.0
 11
-139.49966430660001
 21
152.3000793457
 31
0.0
  0
LINE
  5
1F3
  8
LAYER1$C$L1
 62
     3
 10
-150.99961853030001
 20
159.39999389650001
 30
0.0
 11
-150.99961853030001
 21
160.69998168949999
 31
0.0
  0
LINE
  5
1F4
  8
LAYER1$C$L1
 62
     3
 10
-148.66107177730001
 20
159.40005493160001
 30
0.0
 11
-153.49961853030001
 21
159.40005493160001
 31
0.0
  0
LINE
  5
1F5
  8
LAYER1$C$L1
 62
     3
 10
-142.58056640629991
 20
160.70004272459991
 30
0.0
 11
-159.49964904789999
 21
160.70004272459991
 31
0.0
  0
LINE
  5
1F6
  8
LAYER1$C$L1
 62
     3
 10
-148.66108703610001
 20
160.7000579834
 30
0.0
 11
-148.66108703610001
 21
151.29995727539989
 31
0.0
  0
LINE
  5
1F7
  8
LAYER1$C$L1
 62
     3
 10
-153.49967956539999
 20
151.29989624020001
 30
0.0
 11
-153.49967956539999
 21
151.55686950680001
 31
0.0
  0
LINE
  5
1F8
  8
LAYER1$C$L1
 62
     3
 10
-153.49967956539999
 20
158.74285888669991
 30
0.0
 11
-153.49967956539999
 21
160.6999053955
 31
0.0
  0
LINE
  5
1F9
  8
LAYER1$C$L1
 62
     3
 10
-153.1147391275999
 20
156.55723976920001
 30
0.0
 11
-153.63851225849999
 21
155.6500379405
 31
0.0
  0
LINE
  5
1FA
  8
LAYER1$C$L1
 62
     3
 10
-153.92718562499999
 20
155.15004091799989
 30
0.0
 11
-154.83881423950001
 21
153.5710535714999
 31
0.0
  0
LINE
  5
1FB
  8
LAYER1$C$L1
 62
     3
 10
-154.91680661219999
 20
156.86421576079999
 30
0.0
 11
-153.9271521892
 21
155.15008372659989
 31
0.0
  0
LINE
  5
1FC
  8
LAYER1$C$L1
 62
     3
 10
-153.63845825199999
 20
154.64996337889991
 30
0.0
 11
-154.15730285639989
 21
154.64996337889991
 31
0.0
  0
LINE
  5
1FD
  8
LAYER1$C$L1
 62
     3
 10
-153.9271392821999
 20
155.14994812009991
 30
0.0
 11
-154.33052062990001
 21
155.14994812009991
 31
0.0
  0
LINE
  5
1FE
  8
LAYER1$C$L1
 62
     3
 10
-153.63844299319999
 20
155.64994812009999
 30
0.0
 11
-154.15730285639989
 21
155.64994812009999
 31
0.0
  0
LINE
  5
1FF
  8
LAYER1$C$L1
 62
     3
 10
-153.63847119330001
 20
154.65007348949999
 30
0.0
 11
-152.55378504340001
 21
152.77134164789999
 31
0.0
  0
LINE
  5
200
  8
LAYER1$C$L1
 62
     3
 10
-152.55377554539999
 20
152.77123335769991
 30
0.0
 11
-152.3290713136
 21
153.5820421089999
 31
0.0
  0
LINE
  5
201
  8
LAYER1$C$L1
 62
     3
 10
-152.55377197269991
 20
152.77122497560001
 30
0.0
 11
-152.78393554690001
 21
152.77122497560001
 31
0.0
  0
LINE
  5
202
  8
LAYER1$C$L1
 62
     3
 10
-152.32908630369991
 20
153.58203125
 30
0.0
 11
-152.55923461910001
 21
153.58203125
 31
0.0
  0
LINE
  5
203
  8
LAYER1$C$L1
 62
     3
 10
-154.85829162600001
 20
156.86410522459991
 30
0.0
 11
-155.32019042970001
 21
156.86410522459991
 31
0.0
  0
LINE
  5
204
  8
LAYER1$C$L1
 62
     3
 10
-153.05816120150001
 20
156.35371716989999
 30
0.0
 11
-153.28287923409999
 21
157.1644745863999
 31
0.0
  0
LINE
  5
205
  8
LAYER1$C$L1
 62
     3
 10
-154.81975959970001
 20
153.50263672049991
 30
0.0
 11
-154.96950126940001
 21
154.0432878565999
 31
0.0
  0
LINE
  5
206
  8
LAYER1$C$L1
 62
     3
 10
-153.7531770468
 20
155.1500804968
 30
0.0
 11
-152.99226710330001
 21
153.83214559059991
 31
0.0
  0
LINE
  5
207
  8
LAYER1$C$L1
 62
     3
 10
-154.157305885
 20
154.6500704437999
 30
0.0
 11
-153.21696023289999
 21
153.0213437207
 31
0.0
  0
POLYLINE
  5
208
  8
LAYER1$C$L1
 62
     3
 66
     1
 10
0.0
 20
0.0
 30
0.0
  0
VERTEX
  5
81C
  8
LAYER1$C$L1
 62
     3
 10
-153.2203565346
 20
157.8732733782
 30
0.0
  0
VERTEX
  5
81D
  8
LAYER1$C$L1
 62
     3
 10
-153.3589380356
 20
158.11975023799999
 30
0.0
  0
VERTEX
  5
81E
  8
LAYER1$C$L1
 62
     3
 10
-153.5084517345
 20
158.32239823329991
 30
0.0
  0
VERTEX
  5
81F
  8
LAYER1$C$L1
 62
     3
 10
-153.6666911495999
 20
158.47822674139991
 30
0.0
  0
VERTEX
  5
820
  8
LAYER1$C$L1
 62
     3
 10
-153.83132102779999
 20
158.58493608849989
 30
0.0
  0
VERTEX
  5
821
  8
LAYER1$C$L1
 62
     3
 10
-153.99991180699999
 20
158.64095148780001
 30
0.0
  0
VERTEX
  5
822
  8
LAYER1$C$L1
 62
     3
 10
-154.16997547150001
 20
158.64544627959989
 30
0.0
  0
VERTEX
  5
823
  8
LAYER1$C$L1
 62
     3
 10
-154.33900226899991
 20
158.59835413109991
 30
0.0
  0
VERTEX
  5
824
  8
LAYER1$C$L1
 62
     3
 10
-154.50449774910001
 20
158.5003700149
 30
0.0
  0
VERTEX
  5
825
  8
LAYER1$C$L1
 62
     3
 10
-154.66401957549991
 20
158.35293995360001
 30
0.0
  0
VERTEX
  5
826
  8
LAYER1$C$L1
 62
     3
 10
-154.8152135695
 20
158.1582396787999
 30
0.0
  0
VERTEX
  5
827
  8
LAYER1$C$L1
 62
     3
 10
-154.9558484522
 20
157.91914252309991
 30
0.0
  0
VERTEX
  5
828
  8
LAYER1$C$L1
 62
     3
 10
-155.08384877309999
 20
157.6391770157
 30
0.0
  0
SEQEND
  5
829
  8
LAYER1$C$L1
 62
     3
  0
LINE
  5
218
  8
LAYER1$C$L1
 62
     3
 10
-86.222137451200012
 20
85.800033569299984
 30
0.0
 11
-98.0
 21
85.800033569299984
 31
0.0
  0
LINE
  5
219
  8
LAYER1$C$L1
 62
     3
 10
-110.1999969481999
 20
74.0000457764
 30
0.0
 11
-110.1999969481999
 21
59.5000457764
 31
0.0
  0
LINE
  5
21A
  8
LAYER1$C$L1
 62
     3
 10
-85.133499145499997
 20
62.200042724600003
 30
0.0
 11
-85.133499145499997
 21
85.800033569299984
 31
0.0
  0
LINE
  5
21B
  8
LAYER1$C$L1
 62
     3
 10
-82.333480835000003
 20
93.640670776399986
 30
0.0
 11
-82.333480835000003
 21
54.3594207764
 31
0.0
  0
LINE
  5
21C
  8
LAYER1$C$L1
 62
     3
 10
-84.333480835000003
 20
54.463424682599999
 30
0.0
 11
-84.333480835000003
 21
93.536666870100007
 31
0.0
  0
LINE
  5
21D
  8
LAYER1$C$L1
 62
     3
 10
-85.027783255200006
 20
86.883504958499998
 30
0.0
 11
-84.403957868099994
 21
93.277691721899998
 31
0.0
  0
LINE
  5
21E
  8
LAYER1$C$L1
 62
     3
 10
-84.403958475799996
 20
54.722342664999999
 30
0.0
 11
-85.027785344499989
 21
61.116544615099997
 31
0.0
  0
LINE
  5
21F
  8
LAYER1$C$L1
 62
     3
 10
-86.222137451200012
 20
62.200042724600003
 30
0.0
 11
-98.0
 21
62.200042724600003
 31
0.0
  0
LINE
  5
220
  8
LAYER1$C$L1
 62
     3
 10
-83.001190185500008
 20
94.0000457764
 30
0.0
 11
-83.607757568400004
 21
94.0000457764
 31
0.0
  0
DIMENSION
  5
221
  8
DIMENSIONS
  2
*D19
 10
-80.700012207
 20
109.9999847412
 30
0.0
 11
-95.850006103499979
 21
109.9999847412
 31
0.0
 70
     0
  1
<>30.5
 13
-111.0
 23
132.49999999999989
 33
0.0
 14
-80.700012207
 24
135.6315612793
 34
0.0
1001
ACAD
1000
DSTYLE
1002
{
1070
    41
1040
1.9727878464999999
1070
    42
1040
2.5399999618999991
1070
    44
1040
3.8099999427999989
1070
    73
1070
     0
1070
   140
1040
3.1999998092999991
1070
   271
1070
     1
1070
   272
1070
     1
1002
}
  0
DIMENSION
  5
22D
  8
DIMENSIONS
  2
*D20
 10
-86.200012207000015
 20
114.9999847412
 30
0.0
 11
-98.600006103500007
 21
114.9999847412
 31
0.0
 70
     0
 13
-111.0
 23
132.49999999999989
 33
0.0
 14
-86.200012207000015
 24
136.05541992190001
 34
0.0
1001
ACAD
1000
DSTYLE
1002
{
1070
    41
1040
1.9727878464999999
1070
    42
1040
2.5399999618999991
1070
    44
1040
3.8099999427999989
1070
    73
1070
     0
1070
   140
1040
3.1999998092999991
1070
   271
1070
     1
1070
   272
1070
     1
1002
}
  0
DIMENSION
  5
239
  8
DIMENSIONS
  2
*D21
 10
-98.0
 20
119.9999847412
 30
0.0
 11
-104.4999999999999
 21
119.9999847412
 31
0.0
 70
     0
 13
-111.0
 23
132.49999999999989
 33
0.0
 14
-98.0
 24
132.30003356930001
 34
0.0
1001
ACAD
1000
DSTYLE
1002
{
1070
    41
1040
1.9727878464999999
1070
    42
1040
2.5399999618999991
1070
    44
1040
3.8099999427999989
1070
    73
1070
     0
1070
   140
1040
3.1999998092999991
1070
   271
1070
     1
1070
   272
1070
     1
1002
}
  0
DIMENSION
  5
245
  8
DIMENSIONS
  2
*D22
 10
-74.700012207
 20
126.0000457764
 30
0.0
 11
-74.700012207000015
 21
146.0000457763999
 31
0.0
 70
     0
  1
%%c<>
 13
-83.201187133800005
 23
166.00004577639999
 33
0.0
 14
-83.201187133800005
 24
126.0000457764
 34
0.0
 50
270.0
1001
ACAD
1000
DSTYLE
1002
{
1070
    41
1040
1.9727878464999999
1070
    42
1040
2.5399999618999991
1070
    44
1040
3.8099999427999989
1070
    73
1070
     0
1070
   140
1040
3.1999998092999991
1070
   271
1070
     1
1070
   272
1070
     1
1002
}
  0
ARC
  5
251
  8
LAYER4$C$L4
  6
PHANTOM
 62
     3
 10
-88.501174926800005
 20
126.80006408689999
 30
0.0
 40
0.7999999523000002
 50
269.9993622879
 51
349.87325759309999
  0
ARC
  5
252
  8
LAYER4$C$L4
  6
PHANTOM
 62
     3
 10
-89.107742309599985
 20
165.2000579834
 30
0.0
 40
0.7999999523000002
 50
90.000255221499984
 51
174.4277864199
  0
ARC
  5
253
  8
LAYER4$C$L4
  6
PHANTOM
 62
     3
 10
-88.501174926800005
 20
165.2000579834
 30
0.0
 40
0.7999999523000002
 50
10.1267424069
 51
90.000637712099987
  0
CIRCLE
  5
254
  8
LAYER1$C$L1
 62
     3
 10
-48.0
 20
74.0
 30
0.0
 40
10.0
  0
CIRCLE
  5
255
  8
LAYER1$C$L1
 62
     3
 10
-48.0
 20
74.0
 30
0.0
 40
20.0
  0
ARC
  5
256
  8
LAYER4$C$L4
  6
PHANTOM
 62
     3
 10
-48.5
 20
54.600051879900001
 30
0.0
 40
0.5
 50
269.99996334460002
 51
359.99987273089988
  0
LINE
  5
257
  8
LAYER1$C$L1
 62
     3
 10
-83.001190185500008
 20
54.0000457764
 30
0.0
 11
-83.607757568400004
 21
54.0000457764
 31
0.0
  0
LINE
  5
258
  8
LAYER3$C$L3
  6
CENTERLINE
 62
     3
 10
-165.1925659179999
 20
73.999984741199995
 30
0.0
 11
-77.619674682600007
 21
73.999984741199995
 31
0.0
  0
ARC
  5
259
  8
LAYER1$C$L1
 62
     3
 10
-86.222137451200012
 20
159.00003051760001
 30
0.0
 40
1.1999998092999999
 50
269.9996354955
 51
354.42774384490002
  0
LINE
  5
25A
  8
LAYER1$C$L1
 62
     3
 10
-109.1033325195
 20
143.90003967289999
 30
0.0
 11
-110.1999969481999
 21
143.90003967289999
 31
0.0
  0
ARC
  5
25B
  8
LAYER1$C$L1
 62
     3
 10
-190.5
 20
146.0000457763999
 30
0.0
 40
110.0
 50
0.0
 51
10.126622878599999
  0
ARC
  5
25C
  8
LAYER1$C$L1
 62
     3
 10
-83.607757568400004
 20
126.8000488280999
 30
0.0
 40
0.7999999523000002
 50
185.57221358009991
 51
269.99974477849992
  0
ARC
  5
25D
  8
LAYER4$C$L4
  6
PHANTOM
 62
     3
 10
-195.99998474119991
 20
146.00006103519999
 30
0.0
 40
110.0
 50
349.87337712139993
 51
0.0
  0
ARC
  5
25E
  8
LAYER1$C$L1
 62
     3
 10
-83.001190185500008
 20
126.8000488280999
 30
0.0
 40
0.7999999523000002
 50
269.9993622879
 51
349.87325759309999
  0
LINE
  5
25F
  8
LAYER1$C$L1
 62
     3
 10
-82.333480835000003
 20
165.6406707763999
 30
0.0
 11
-82.333480835000003
 21
126.3594207764
 31
0.0
  0
LINE
  5
260
  8
LAYER1$C$L1
 62
     3
 10
-83.001190185500008
 20
166.00004577639999
 30
0.0
 11
-83.607757568400004
 21
166.00004577639999
 31
0.0
  0
LINE
  5
261
  8
LAYER4$C$L4
  6
PHANTOM
 62
     3
 10
-87.833465576200012
 20
165.64068603519991
 30
0.0
 11
-87.833465576200012
 21
126.35943603520001
 31
0.0
  0
LINE
  5
262
  8
LAYER4$C$L4
  6
PHANTOM
 62
     3
 10
-90.527775624200004
 20
158.88350222339989
 30
0.0
 11
-89.903950237099977
 21
165.27768898679989
 31
0.0
  0
LINE
  5
263
  8
LAYER4$C$L4
  6
PHANTOM
 62
     3
 10
-89.833465576199998
 20
126.4634399413999
 30
0.0
 11
-89.833465576199998
 21
165.5366821289
 31
0.0
  0
LINE
  5
264
  8
LAYER1$C$L1
 62
     3
 10
-86.222137451200012
 20
157.80003356930001
 30
0.0
 11
-98.0
 21
157.80003356930001
 31
0.0
  0
LINE
  5
265
  8
LAYER1$C$L1
 62
     3
 10
-83.001190185500008
 20
126.0000457764
 30
0.0
 11
-83.607757568400004
 21
126.0000457764
 31
0.0
  0
ARC
  5
266
  8
LAYER1$C$L1
 62
     3
 10
-190.5
 20
146.0000457763999
 30
0.0
 40
110.0
 50
349.87337712139993
 51
0.0
  0
ARC
  5
267
  8
LAYER1$C$L1
 62
     3
 10
-83.607757568400004
 20
165.2000427246
 30
0.0
 40
0.7999999523000002
 50
90.000255221499984
 51
174.4277864199
  0
LINE
  5
268
  8
LAYER4$C$L4
  6
PHANTOM
 62
     3
 10
-88.501174926800005
 20
126.00006103520001
 30
0.0
 11
-89.107742309599985
 21
126.00006103520001
 31
0.0
  0
LINE
  5
269
  8
LAYER4$C$L4
  6
PHANTOM
 62
     3
 10
-89.903960035499992
 20
126.72235232849999
 30
0.0
 11
-90.527786904300015
 21
133.11655427860001
 31
0.0
  0
LINE
  5
26A
  8
LAYER4$C$L4
  6
PHANTOM
 62
     3
 10
-88.501174926800005
 20
166.00006103519999
 30
0.0
 11
-89.107742309599985
 21
166.00006103519999
 31
0.0
  0
LINE
  5
26B
  8
LAYER1$C$L1
 62
     3
 10
-84.333480835000003
 20
126.46342468260001
 30
0.0
 11
-84.333480835000003
 21
165.53666687009999
 31
0.0
  0
ARC
  5
26C
  8
LAYER4$C$L4
  6
PHANTOM
 62
     3
 10
-195.99998474119991
 20
146.00006103519999
 30
0.0
 40
110.0
 50
0.0
 51
10.126622878599999
  0
LINE
  5
26D
  8
LAYER1$C$L1
 62
     3
 10
-84.403955477799997
 20
126.7223468700999
 30
0.0
 11
-85.027782346599992
 21
133.11654882010001
 31
0.0
  0
LINE
  5
26E
  8
LAYER1$C$L1
 62
     3
 10
-85.027786253199992
 20
158.88350916350001
 30
0.0
 11
-84.403960866000006
 21
165.27769592690001
 31
0.0
  0
LINE
  5
26F
  8
LAYER1$C$L1
 62
     3
 10
-86.222137451200012
 20
134.20004272459991
 30
0.0
 11
-98.0
 21
134.20004272459991
 31
0.0
  0
ARC
  5
270
  8
LAYER1$C$L1
 62
     3
 10
-83.001190185500008
 20
165.2000427246
 30
0.0
 40
0.7999999523000002
 50
10.1267424069
 51
90.000637712099987
  0
LINE
  5
271
  8
LAYER3$C$L3
  6
CENTERLINE
 62
     3
 10
-48.0
 20
95.5
 30
0.0
 11
-48.0
 21
52.5
 31
0.0
  0
LINE
  5
272
  8
LAYER3$C$L3
  6
CENTERLINE
 62
     3
 10
-69.5
 20
74.0
 30
0.0
 11
-26.5
 21
74.0
 31
0.0
  0
ARC
  5
273
  8
LAYER4$C$L4
  6
PHANTOM
 62
     3
 10
-48.500015258799991
 20
93.400024414100002
 30
0.0
 40
0.5
 50
0.0
 51
89.999982013899995
  0
DIMENSION
  5
274
  8
DIMENSIONS
  2
*D23
 10
-163.0
 20
109.9999847412
 30
0.0
 11
-137.0
 21
109.9999847412
 31
0.0
 70
     0
 13
-111.0
 23
132.49999999999989
 33
0.0
 14
-163.0
 24
131.89999389650001
 34
0.0
 50
180.0
1001
ACAD
1000
DSTYLE
1002
{
1070
    41
1040
1.9727878464999999
1070
    42
1040
2.5399999618999991
1070
    44
1040
3.8099999427999989
1070
    73
1070
     0
1070
   140
1040
3.1999998092999991
1070
   271
1070
     1
1070
   272
1070
     1
1002
}
  0
LINE
  5
280
  8
LAYER1$C$L1
 62
     3
 10
-153.05831563780001
 20
156.3536680471
 30
0.0
 11
-153.7532236971
 21
155.1500517771
 31
0.0
  0
LINE
  5
281
  8
LAYER4$C$L4
  6
PHANTOM
 62
     3
 10
-152.5999908446999
 20
132.80003356930001
 30
0.0
 11
-153.59996032709989
 21
132.80003356930001
 31
0.0
  0
LINE
  5
282
  8
LAYER1$C$L1
 62
     3
 10
-154.1573689345
 20
154.65003328989991
 30
0.0
 11
-154.81984444150001
 21
153.5025918579
 31
0.0
  0
LINE
  5
283
  8
LAYER1$C$L1
 62
     3
 10
-154.33057691889991
 20
155.1500466288
 30
0.0
 11
-154.9695920405
 21
154.04323978319999
 31
0.0
  0
LINE
  5
284
  8
LAYER1$C$L1
 62
     3
 10
-151.0995941162
 20
156.89996337889991
 30
0.0
 11
-151.0995941162
 21
157.14996337889991
 31
0.0
  0
LINE
  5
285
  8
LAYER1$C$L1
 62
     3
 10
-149.3995971679999
 20
151.29997253420001
 30
0.0
 11
-149.3995971679999
 21
159.40007019039999
 31
0.0
  0
LINE
  5
286
  8
LAYER1$C$L1
 62
     3
 10
-139.4999847412
 20
151.29995727539989
 30
0.0
 11
-159.49999999999989
 21
151.29995727539989
 31
0.0
  0
LINE
  5
287
  8
LAYER1$C$L1
 62
     3
 10
-140.0
 20
160.70004272459991
 30
0.0
 11
-159.49996948239991
 21
160.70004272459991
 31
0.0
  0
LINE
  5
288
  8
LAYER1$C$L1
 62
     3
 10
-147.7999877929999
 20
150.1999664306999
 30
0.0
 11
-147.7999877929999
 21
146.0
 31
0.0
  0
LINE
  5
289
  8
LAYER1$C$L1
 62
     3
 10
-144.5
 20
150.1999664306999
 30
0.0
 11
-144.5
 21
146.0
 31
0.0
  0
LINE
  5
28A
  8
LAYER1$C$L1
 62
     3
 10
-144.5
 20
150.1999664306999
 30
0.0
 11
-159.49999999999989
 21
150.1999664306999
 31
0.0
  0
LINE
  5
28B
  8
LAYER1$C$L1
 62
     3
 10
-144.5000152588
 20
150.1999664306999
 30
0.0
 11
-159.50003051760001
 21
150.1999664306999
 31
0.0
  0
LINE
  5
28C
  8
LAYER1$C$L1
 62
     3
 10
-147.80001831049989
 20
150.1999664306999
 30
0.0
 11
-147.80001831049989
 21
146.0
 31
0.0
  0
LINE
  5
28D
  8
LAYER1$C$L1
 62
     3
 10
-144.50003051760001
 20
150.1999664306999
 30
0.0
 11
-144.50003051760001
 21
146.0
 31
0.0
  0
LINE
  5
28E
  8
LAYER4$C$L4
  6
PHANTOM
 62
     3
 10
-159.41452121649991
 20
138.36499957679999
 30
0.0
 11
-160.21274031999991
 21
138.7372152003
 31
0.0
  0
LINE
  5
28F
  8
LAYER4$C$L4
  6
PHANTOM
 62
     3
 10
-160.21283094590001
 20
134.0629934831999
 30
0.0
 11
-159.41462567159991
 21
134.43520265799989
 31
0.0
  0
LINE
  5
290
  8
LAYER4$C$L4
  6
PHANTOM
 62
     3
 10
-159.40000915530001
 20
134.44210815429989
 30
0.0
 11
-159.40000915530001
 21
138.35824584959991
 31
0.0
  0
LINE
  5
291
  8
LAYER4$C$L4
  6
PHANTOM
 62
     3
 10
-159.60000610349999
 20
134.34884643549989
 30
0.0
 11
-159.60000610349999
 21
138.4515075683999
 31
0.0
  0
LINE
  5
292
  8
LAYER4$C$L4
  6
PHANTOM
 62
     3
 10
-160.21281433109999
 20
131.9001159668
 30
0.0
 11
-160.21281433109999
 21
134.06295776370001
 31
0.0
  0
LINE
  5
293
  8
LAYER4$C$L4
  6
PHANTOM
 62
     3
 10
-160.21281433109999
 20
138.7371520996
 30
0.0
 11
-160.21281433109999
 21
145.99996948239991
 31
0.0
  0
LINE
  5
294
  8
LAYER4$C$L4
  6
PHANTOM
 62
     3
 10
-162.0
 20
144.90000915530001
 30
0.0
 11
-163.0
 21
144.90000915530001
 31
0.0
  0
LINE
  5
295
  8
LAYER4$C$L4
  6
PHANTOM
 62
     3
 10
-162.0
 20
141.70004272459991
 30
0.0
 11
-162.0
 21
144.89999389650001
 31
0.0
  0
ARC
  5
296
  8
LAYER1$C$L1
 62
     3
 10
-61.800003051799997
 20
91.0
 30
0.0
 40
1.0
 50
89.999982013899995
 51
179.9999640277999
  0
LINE
  5
297
  8
LAYER4$C$L4
  6
PHANTOM
 62
     3
 10
-161.94515991209991
 20
141.70004272459991
 30
0.0
 11
-161.94515991209991
 21
145.99996948239991
 31
0.0
  0
LINE
  5
298
  8
LAYER4$C$L4
  6
PHANTOM
 62
     3
 10
-161.94515991209991
 20
141.7000579834
 30
0.0
 11
-163.0
 21
141.7000579834
 31
0.0
  0
LINE
  5
299
  8
LAYER1$C$L1
 62
     3
 10
-62.800003051799997
 20
87.452133178700024
 30
0.0
 11
-62.800003051799997
 21
91.0
 31
0.0
  0
ARC
  5
29A
  8
LAYER4$C$L4
  6
PHANTOM
 62
     3
 10
-157.2127990722999
 20
62.499984741200002
 30
0.0
 40
1.0
 50
26.99991878909999
 51
89.999708806300006
  0
ARC
  5
29B
  8
LAYER4$C$L4
  6
PHANTOM
 62
     3
 10
-157.21269226070001
 20
85.499969482400004
 30
0.0
 40
1.0
 50
270.00023655209992
 51
333.00011877700001
  0
LINE
  5
29C
  8
LAYER4$C$L4
  6
PHANTOM
 62
     3
 10
-159.80000305179991
 20
70.199981689499992
 30
0.0
 11
-159.59999084469999
 21
70.199981689499992
 31
0.0
  0
LINE
  5
29D
  8
LAYER4$C$L4
  6
PHANTOM
 62
     3
 10
-159.80000305179991
 20
77.799972534199995
 30
0.0
 11
-159.59999084469999
 21
77.799972534199995
 31
0.0
  0
LINE
  5
29E
  8
LAYER4$C$L4
  6
PHANTOM
 62
     3
 10
-152.5999597396999
 20
55.649510824700002
 30
0.0
 11
-156.3217657122
 21
62.953967016299998
 31
0.0
  0
LINE
  5
29F
  8
LAYER4$C$L4
  6
PHANTOM
 62
     3
 10
-160.21280244899989
 20
54.100031166299999
 30
0.0
 11
-162.9999849349999
 21
59.570185311300001
 31
0.0
  0
LINE
  5
2A0
  8
LAYER4$C$L4
  6
PHANTOM
 62
     3
 10
-152.5999908446999
 20
54.099990844700002
 30
0.0
 11
-152.5999908446999
 21
55.649551391599999
 31
0.0
  0
LINE
  5
2A1
  8
LAYER4$C$L4
  6
PHANTOM
 62
     3
 10
-152.5999908446999
 20
54.099990844700002
 30
0.0
 11
-160.2127990722999
 21
54.099990844700002
 31
0.0
  0
LINE
  5
2A2
  8
LAYER4$C$L4
  6
PHANTOM
 62
     3
 10
-157.2127990722999
 20
63.499984741200002
 30
0.0
 11
-159.80000305179991
 21
63.499984741200002
 31
0.0
  0
LINE
  5
2A3
  8
LAYER4$C$L4
  6
PHANTOM
 62
     3
 10
-156.3216886731
 20
85.045965856599992
 30
0.0
 11
-152.59993119200001
 21
92.350326878299995
 31
0.0
  0
LINE
  5
2A4
  8
LAYER4$C$L4
  6
PHANTOM
 62
     3
 10
-159.80000305179991
 20
63.499984741200002
 30
0.0
 11
-159.80000305179991
 21
84.499969482400004
 31
0.0
  0
LINE
  5
2A5
  8
LAYER4$C$L4
  6
PHANTOM
 62
     3
 10
-162.9998881498999
 20
88.429651873799997
 30
0.0
 11
-160.21269180920001
 21
93.899833210099985
 31
0.0
  0
LINE
  5
2A6
  8
LAYER4$C$L4
  6
PHANTOM
 62
     3
 10
-152.5999908446999
 20
92.350402832000015
 30
0.0
 11
-152.5999908446999
 21
93.899963378899997
 31
0.0
  0
DIMENSION
  5
2A7
  8
DIMENSIONS
  2
*D24
 10
-22.0
 20
55.5
 30
0.0
 11
-22.0
 21
73.999999999999986
 31
0.0
 70
     0
 13
-42.700012207
 23
92.5
 33
0.0
 14
-42.700012207
 24
55.5
 34
0.0
 50
270.0
1001
ACAD
1000
DSTYLE
1002
{
1070
    41
1040
1.9727878464999999
1070
    42
1040
2.5399999618999991
1070
    44
1040
3.8099999427999989
1070
    73
1070
     0
1070
   140
1040
3.1999998092999991
1070
   271
1070
     1
1070
   272
1070
     1
1002
}
  0
LINE
  5
2B3
  8
LAYER4$C$L4
  6
PHANTOM
 62
     3
 10
-159.80000305179991
 20
84.499969482400004
 30
0.0
 11
-157.21269226070001
 21
84.499969482400004
 31
0.0
  0
LINE
  5
2B4
  8
LAYER4$C$L4
  6
PHANTOM
 62
     3
 10
-160.2127990722999
 20
93.899963378899997
 30
0.0
 11
-152.5999908446999
 21
93.899963378899997
 31
0.0
  0
LINE
  5
2B5
  8
LAYER4$C$L4
  6
PHANTOM
 62
     3
 10
-159.59999084469999
 20
70.199981689499992
 30
0.0
 11
-159.59999084469999
 21
77.799972534199995
 31
0.0
  0
LINE
  5
2B6
  8
LAYER4$C$L4
  6
PHANTOM
 62
     3
 10
-149.0999908446999
 20
141.7000579834
 30
0.0
 11
-153.59996032709989
 21
141.7000579834
 31
0.0
  0
LINE
  5
2B7
  8
LAYER4$C$L4
  6
PHANTOM
 62
     3
 10
-149.0999908446999
 20
144.90000915530001
 30
0.0
 11
-153.59996032709989
 21
144.90000915530001
 31
0.0
  0
LINE
  5
2B8
  8
LAYER4$C$L4
  6
PHANTOM
 62
     3
 10
-149.0999908446999
 20
141.70004272459991
 30
0.0
 11
-149.0999908446999
 21
144.89999389650001
 31
0.0
  0
LINE
  5
2B9
  8
LAYER4$C$L4
  6
PHANTOM
 62
     3
 10
-149.5999908446999
 20
142.17636108400001
 30
0.0
 11
-149.5999908446999
 21
144.52975463870001
 31
0.0
  0
ARC
  5
2BB
  8
LAYER1$C$L1
 62
     3
 10
-34.200012207
 20
57.0
 30
0.0
 40
1.0
 50
270.00012726910001
 51
0.000072627600094
  0
TEXT
  5
2BD
  8
LAYER8$C$L8
 62
     3
 10
-45.160476684599992
 20
161.0966949463
 30
0.0
 40
2.5
  1

 72
     5
 11
-45.160476684599992
 21
161.0966949463
 31
0.0
  0
TEXT
  5
2BF
  8
LAYER8$C$L8
 62
     3
 10
-45.160476684599992
 20
161.0966949463
 30
0.0
 40
2.5
  1

 72
     5
 11
-45.160476684599992
 21
161.0966949463
 31
0.0
  0
TEXT
  5
2C1
  8
LAYER8$C$L8
 62
     3
 10
-45.160476684599992
 20
161.0966949463
 30
0.0
 40
2.5
  1

 72
     5
 11
-45.160476684599992
 21
161.0966949463
 31
0.0
  0
LINE
  5
2D6
  8
LAYER4$C$L4
  6
PHANTOM
 62
     3
 10
-163.0
 20
59.570175170900001
 30
0.0
 11
-163.0
 21
88.429779052699999
 31
0.0
  0
ARC
  5
2EF
  8
LAYER1$C$L1
 62
     3
 10
-34.200012207
 20
90.999984741200009
 30
0.0
 40
1.0
 50
0.000072627560058
 51
89.999982013899995
  0
DIMENSION
  5
2F1
  8
DIMENSIONS
  2
*D26
 10
-160.29997253420001
 20
114.9999847412
 30
0.0
 11
-167.268881385725
 21
114.9999847412
 31
0.0
 70
     0
 13
-159.49999999999989
 23
131.2999877929999
 33
0.0
 14
-160.29997253420001
 24
142.84997558590001
 34
0.0
 50
180.0
1001
ACAD
1000
DSTYLE
1002
{
1070
    41
1040
1.9727878464999999
1070
    42
1040
2.5399999618999991
1070
    44
1040
3.8099999427999989
1070
    73
1070
     0
1070
   140
1040
3.1999998092999991
1070
   271
1070
     1
1070
   272
1070
     1
1002
}
  0
ARC
  5
2FE
  8
LAYER1$C$L1
 62
     3
 10
-61.800003051799997
 20
57.000015258799998
 30
0.0
 40
1.0
 50
179.9999640277999
 51
269.9999460416999
  0
ARC
  5
300
  8
LAYER4$C$L4
  6
PHANTOM
 62
     3
 10
-61.599990844700002
 20
54.600051879900001
 30
0.0
 40
0.5
 50
180.0000906137
 51
270.00001798609998
  0
ARC
  5
301
  8
LAYER4$C$L4
  6
PHANTOM
 62
     3
 10
-61.6000061035
 20
93.400024414100002
 30
0.0
 40
0.5
 50
90.000145938500026
 51
180.00007331079999
  0
LINE
  5
302
  8
LAYER2$C$L2
  6
DASHED
 62
     3
 10
-48.000015258799991
 20
90.5
 30
0.0
 11
-43.800003051799997
 21
90.5
 31
0.0
  0
LINE
  5
303
  8
LAYER2$C$L2
  6
DASHED
 62
     3
 10
-56.717803955100003
 20
92.0
 30
0.0
 11
-53.300003051799997
 21
92.0
 31
0.0
  0
LINE
  5
304
  8
LAYER2$C$L2
  6
DASHED
 62
     3
 10
-33.200012207
 20
87.452133178700024
 30
0.0
 11
-33.200012207
 21
60.5478515625
 31
0.0
  0
LINE
  5
305
  8
LAYER2$C$L2
  6
DASHED
 62
     3
 10
-62.800003051799997
 20
60.5478515625
 30
0.0
 11
-62.800003051799997
 21
87.452133178700024
 31
0.0
  0
LINE
  5
306
  8
LAYER1$C$L1
 62
     3
 10
-33.200012207
 20
60.547836303700002
 30
0.0
 11
-33.200012207
 21
57.0
 31
0.0
  0
LINE
  5
307
  8
LAYER2$C$L2
  6
DASHED
 62
     3
 10
-56.717803955100003
 20
56.0
 30
0.0
 11
-53.300003051799997
 21
56.0
 31
0.0
  0
LINE
  5
308
  8
LAYER2$C$L2
  6
DASHED
 62
     3
 10
-46.90000915529999
 20
57.5
 30
0.0
 11
-46.90000915529999
 21
55.5
 31
0.0
  0
LINE
  5
309
  8
LAYER2$C$L2
  6
DASHED
 62
     3
 10
-43.800003051799997
 20
57.5
 30
0.0
 11
-43.800003051799997
 21
55.5
 31
0.0
  0
LINE
  5
30A
  8
LAYER2$C$L2
  6
DASHED
 62
     3
 10
-43.800003051799997
 20
92.5
 30
0.0
 11
-43.800003051799997
 21
90.5
 31
0.0
  0
LINE
  5
30B
  8
LAYER2$C$L2
  6
DASHED
 62
     3
 10
-42.700012207
 20
55.5
 30
0.0
 11
-53.300003051799997
 21
55.5
 31
0.0
  0
LINE
  5
30C
  8
LAYER2$C$L2
  6
DASHED
 62
     3
 10
-48.000015258799991
 20
57.5
 30
0.0
 11
-43.800003051799997
 21
57.5
 31
0.0
  0
LINE
  5
30D
  8
LAYER2$C$L2
  6
DASHED
 62
     3
 10
-46.90000915529999
 20
92.5
 30
0.0
 11
-46.90000915529999
 21
90.5
 31
0.0
  0
LINE
  5
30E
  8
LAYER2$C$L2
  6
DASHED
 62
     3
 10
-53.300003051799997
 20
92.5
 30
0.0
 11
-42.700012207
 21
92.5
 31
0.0
  0
LINE
  5
30F
  8
LAYER2$C$L2
  6
DASHED
 62
     3
 10
-42.700012207
 20
92.0
 30
0.0
 11
-42.700012207
 21
92.5
 31
0.0
  0
LINE
  5
310
  8
LAYER2$C$L2
  6
DASHED
 62
     3
 10
-42.700012207
 20
56.0
 30
0.0
 11
-42.700012207
 21
55.5
 31
0.0
  0
LINE
  5
311
  8
LAYER2$C$L2
  6
DASHED
 62
     3
 10
-42.700012207
 20
92.0
 30
0.0
 11
-39.282211303700002
 21
92.0
 31
0.0
  0
LINE
  5
312
  8
LAYER2$C$L2
  6
DASHED
 62
     3
 10
-42.700012207
 20
56.0
 30
0.0
 11
-39.282211303700002
 21
56.0
 31
0.0
  0
LINE
  5
313
  8
LAYER2$C$L2
  6
DASHED
 62
     3
 10
-52.200012207
 20
90.5
 30
0.0
 11
-48.000015258799991
 21
90.5
 31
0.0
  0
LINE
  5
314
  8
LAYER2$C$L2
  6
DASHED
 62
     3
 10
-52.200012207
 20
57.5
 30
0.0
 11
-48.000015258799991
 21
57.5
 31
0.0
  0
LINE
  5
315
  8
LAYER2$C$L2
  6
DASHED
 62
     3
 10
-52.200012207
 20
90.5
 30
0.0
 11
-52.200012207
 21
92.5
 31
0.0
  0
LINE
  5
316
  8
LAYER2$C$L2
  6
DASHED
 62
     3
 10
-52.200012207
 20
55.5
 30
0.0
 11
-52.200012207
 21
57.5
 31
0.0
  0
LINE
  5
317
  8
LAYER2$C$L2
  6
DASHED
 62
     3
 10
-49.1000061035
 20
90.5
 30
0.0
 11
-49.1000061035
 21
92.5
 31
0.0
  0
LINE
  5
318
  8
LAYER2$C$L2
  6
DASHED
 62
     3
 10
-49.1000061035
 20
55.5
 30
0.0
 11
-49.1000061035
 21
57.5
 31
0.0
  0
LINE
  5
319
  8
LAYER2$C$L2
  6
DASHED
 62
     3
 10
-53.300003051799997
 20
92.5
 30
0.0
 11
-53.300003051799997
 21
92.0
 31
0.0
  0
LINE
  5
31A
  8
LAYER2$C$L2
  6
DASHED
 62
     3
 10
-53.300003051799997
 20
55.5
 30
0.0
 11
-53.300003051799997
 21
56.0
 31
0.0
  0
LINE
  5
31B
  8
LAYER4$C$L4
  6
PHANTOM
 62
     3
 10
-62.099990844700002
 20
91.953933715800005
 30
0.0
 11
-62.099990844700002
 21
93.399993896499993
 31
0.0
  0
LINE
  5
31C
  8
LAYER4$C$L4
  6
PHANTOM
 62
     3
 10
-48.0
 20
54.600036621100003
 30
0.0
 11
-48.0
 21
55.5
 31
0.0
  0
LINE
  5
31D
  8
LAYER4$C$L4
  6
PHANTOM
 62
     3
 10
-48.5
 20
54.100036621100003
 30
0.0
 11
-61.599990844700002
 21
54.100036621100003
 31
0.0
  0
LINE
  5
31E
  8
LAYER4$C$L4
  6
PHANTOM
 62
     3
 10
-62.099990844700002
 20
54.600036621100003
 30
0.0
 11
-62.099990844700002
 21
56.046066284200002
 31
0.0
  0
LINE
  5
31F
  8
LAYER4$C$L4
  6
PHANTOM
 62
     3
 10
-61.599990844700002
 20
93.899993896499979
 30
0.0
 11
-48.5
 21
93.899993896499979
 31
0.0
  0
LINE
  5
320
  8
LAYER4$C$L4
  6
PHANTOM
 62
     3
 10
-48.0
 20
92.5
 30
0.0
 11
-48.0
 21
93.399993896499993
 31
0.0
  0
DIMENSION
  5
321
  8
DIMENSIONS
  2
*D27
 10
-33.200012207
 20
100.0
 30
0.0
 11
-48.000007629400002
 21
100.0
 31
0.0
 70
     0
  1
<>30
 13
-62.800003051799997
 23
91.0
 33
0.0
 14
-33.200012207
 24
90.999984741200009
 34
0.0
1001
ACAD
1000
DSTYLE
1002
{
1070
    41
1040
1.9727878464999999
1070
    42
1040
2.5399999618999991
1070
    44
1040
3.8099999427999989
1070
    73
1070
     0
1070
   140
1040
3.1999998092999991
1070
   271
1070
     1
1070
   272
1070
     1
1002
}
  0
LINE
  5
32D
  8
LAYER1$C$L1
 62
     3
 10
-39.28219604489999
 20
92.0
 30
0.0
 11
-34.200012207
 21
92.0
 31
0.0
  0
LINE
  5
32E
  8
LAYER1$C$L1
 62
     3
 10
-39.28219604489999
 20
56.0
 30
0.0
 11
-34.200012207
 21
56.0
 31
0.0
  0
LINE
  5
32F
  8
LAYER1$C$L1
 62
     3
 10
-33.200012207
 20
91.0
 30
0.0
 11
-33.200012207
 21
87.4521484375
 31
0.0
  0
LINE
  5
330
  8
LAYER1$C$L1
 62
     3
 10
-61.800003051799997
 20
92.0
 30
0.0
 11
-56.717788696299991
 21
92.0
 31
0.0
  0
LINE
  5
331
  8
LAYER1$C$L1
 62
     3
 10
-61.800003051799997
 20
56.0
 30
0.0
 11
-56.717788696299991
 21
56.0
 31
0.0
  0
LINE
  5
332
  8
LAYER1$C$L1
 62
     3
 10
-62.800003051799997
 20
57.0
 30
0.0
 11
-62.800003051799997
 21
60.547866821299998
 31
0.0
  0
TEXT
  5
334
  8
LAYER8$C$L8
 62
     3
 10
-155.4500579834
 20
79.688196964399992
 30
0.0
 40
1.5
  1
UÇâ600V IÇîÇà10A
 50
270.0
 41
0.5474450447759033
 72
     5
 11
-155.4500579834
 21
68.3287122853
 31
0.0
  0
TEXT
  5
336
  8
LAYER8$C$L8
 62
     3
 10
-134.49998474119991
 20
159.8166541418
 30
0.0
 40
3.5
  1
TW
 50
270.0
 41
0.9333343142285741
 72
     5
 11
-134.49998474119991
 21
153.2833139421999
 31
0.0
  0
LINE
  5
337
  8
LAYER1$C$L1
 62
     3
 10
-151.0996276779
 20
153.1500343877
 30
0.0
 11
-150.5996304647999
 21
151.30004426510001
 31
0.0
  0
LINE
  5
338
  8
LAYER1$C$L1
 62
     3
 10
-159.79997253420001
 20
142.34997558590001
 30
0.0
 11
-159.49998474119991
 21
142.34997558590001
 31
0.0
  0
LINE
  5
339
  8
LAYER1$C$L1
 62
     3
 10
-153.2830316555999
 20
157.1644302734
 30
0.0
 11
-154.15736779400001
 21
155.65003540119989
 31
0.0
  0
ARC
  5
33A
  8
LAYER1$C$L1
 62
     3
 10
-153.56423950199999
 20
83.129806518600006
 30
0.0
 40
0.1999999881
 50
264.80169761259992
 51
345.52905237530001
  0
ARC
  5
33B
  8
LAYER1$C$L1
 62
     3
 10
-154.63345336910001
 20
83.674606323199995
 30
0.0
 40
0.1999999881
 50
264.80186153709991
 51
345.52899773379988
  0
ARC
  5
33C
  8
LAYER1$C$L1
 62
     3
 10
-150.22520446780001
 20
89.683029174799998
 30
0.0
 40
0.1999999881
 50
320.47098027290002
 51
41.198427243200051
  0
ARC
  5
33D
  8
LAYER1$C$L1
 62
     3
 10
-151.29440307620001
 20
90.227828979499989
 30
0.0
 40
0.1999999881
 50
320.47103491450002
 51
41.1982633187
  0
ARC
  5
33E
  8
LAYER1$C$L1
 62
     3
 10
-155.83760070799991
 20
85.704879760699995
 30
0.0
 40
1.0
 50
170.57102448239999
 51
237.99996336509989
  0
ARC
  5
33F
  8
LAYER1$C$L1
 62
     3
 10
-153.64472961429991
 20
90.008590698199995
 30
0.0
 40
1.0
 50
67.999942697299986
 51
135.42893622150001
  0
ARC
  5
340
  8
LAYER1$C$L1
 62
     3
 10
-147.94567871090001
 20
84.394210815400001
 30
0.0
 40
9.0
 50
135.42904550450001
 51
170.57102448239999
  0
ARC
  5
341
  8
LAYER1$C$L1
 62
     3
 10
-153.56423950199999
 20
64.8701629639
 30
0.0
 40
0.1999999881
 50
14.470910058599991
 51
95.198302387400005
  0
ARC
  5
342
  8
LAYER1$C$L1
 62
     3
 10
-154.63345336910001
 20
64.325363159199995
 30
0.0
 40
0.1999999881
 50
14.470964700199991
 51
95.198138462900005
  0
ARC
  5
343
  8
LAYER1$C$L1
 62
     3
 10
-150.22520446780001
 20
58.316940307599999
 30
0.0
 40
0.1999999881
 50
318.80156251149998
 51
39.5290197271
  0
ARC
  5
344
  8
LAYER1$C$L1
 62
     3
 10
-151.29440307620001
 20
57.772140502900001
 30
0.0
 40
0.1999999881
 50
318.80172643599991
 51
39.52896508550004
  0
ARC
  5
345
  8
LAYER1$C$L1
 62
     3
 10
-155.83760070799991
 20
62.295089721700002
 30
0.0
 40
1.0
 50
122.0000193321
 51
189.42901285630001
  0
ARC
  5
346
  8
LAYER1$C$L1
 62
     3
 10
-153.64472961429991
 20
57.991378784200002
 30
0.0
 40
1.0
 50
224.57100913699989
 51
292.00005730269999
  0
ARC
  5
347
  8
LAYER1$C$L1
 62
     3
 10
-147.94567871090001
 20
63.605758666999989
 30
0.0
 40
9.0
 50
189.42903015909991
 51
224.57100913699989
  0
ARC
  5
348
  8
LAYER1$C$L1
 62
     3
 10
-158.26007080080001
 20
71.389816284199995
 30
0.0
 40
0.067499935627
 50
180.00003597220001
 51
270.00001798609998
  0
ARC
  5
349
  8
LAYER1$C$L1
 62
     3
 10
-157.1800689696999
 20
71.389816284199995
 30
0.0
 40
0.067499935627
 50
270.00001798609998
 51
0.0
  0
ARC
  5
34A
  8
LAYER1$C$L1
 62
     3
 10
-157.99006652829991
 20
72.334884643599992
 30
0.0
 40
0.3374999762
 50
89.999927372399995
 51
179.9999640277999
  0
ARC
  5
34B
  8
LAYER1$C$L1
 62
     3
 10
-157.45005798339989
 20
72.334884643599992
 30
0.0
 40
0.3374999762
 50
0.0
 51
89.999927372399995
  0
ARC
  5
34C
  8
LAYER1$C$L1
 62
     3
 10
-158.26007080080001
 20
72.919845581099992
 30
0.0
 40
0.067499935627
 50
180.00003597220001
 51
270.00001798609998
  0
ARC
  5
34D
  8
LAYER1$C$L1
 62
     3
 10
-157.99006652829991
 20
73.954879760699995
 30
0.0
 40
0.3374999762
 50
89.999927372399995
 51
179.9999640277999
  0
ARC
  5
34E
  8
LAYER1$C$L1
 62
     3
 10
-157.1800689696999
 20
72.919845581099992
 30
0.0
 40
0.067499935627
 50
270.00001798609998
 51
0.0
  0
ARC
  5
34F
  8
LAYER1$C$L1
 62
     3
 10
-157.45005798339989
 20
73.954879760699995
 30
0.0
 40
0.3374999762
 50
0.0
 51
89.999927372399995
  0
ARC
  5
350
  8
LAYER1$C$L1
 62
     3
 10
-158.26007080080001
 20
74.539840698199995
 30
0.0
 40
0.067499935627
 50
180.00003597220001
 51
270.00001798609998
  0
ARC
  5
351
  8
LAYER1$C$L1
 62
     3
 10
-156.6400604248
 20
74.539840698199995
 30
0.0
 40
0.067499935627
 50
270.00001798609998
 51
0.0
  0
ARC
  5
352
  8
LAYER1$C$L1
 62
     3
 10
-156.6400604248
 20
75.034835815400001
 30
0.0
 40
0.067499935627
 50
0.0
 51
89.999927372399995
  0
ARC
  5
353
  8
LAYER1$C$L1
 62
     3
 10
-157.99006652829991
 20
75.529830932600007
 30
0.0
 40
0.3374999762
 50
89.999927372399995
 51
179.9999640277999
  0
ARC
  5
354
  8
LAYER1$C$L1
 62
     3
 10
-157.3150634765999
 20
75.529830932600007
 30
0.0
 40
0.3374999762
 50
0.0
 51
89.999927372399995
  0
ARC
  5
355
  8
LAYER1$C$L1
 62
     3
 10
-158.26007080080001
 20
76.114913940400001
 30
0.0
 40
0.067499935627
 50
180.00003597220001
 51
270.00001798609998
  0
ARC
  5
356
  8
LAYER1$C$L1
 62
     3
 10
-158.26007080080001
 20
76.609909057600007
 30
0.0
 40
0.067499935627
 50
89.999927372399995
 51
179.9999640277999
  0
ARC
  5
357
  8
LAYER1$C$L1
 62
     3
 10
-156.6400604248
 20
76.114913940400001
 30
0.0
 40
0.067499935627
 50
270.00001798609998
 51
0.0
  0
ARC
  5
358
  8
LAYER1$C$L1
 62
     3
 10
-156.6400604248
 20
76.609909057600007
 30
0.0
 40
0.067499935627
 50
0.0
 51
89.999927372399995
  0
ARC
  5
359
  8
LAYER1$C$L1
 62
     3
 10
-158.9999389647999
 20
92.000167846699995
 30
0.0
 40
0.5
 50
90.000091296900024
 51
180.00001866929989
  0
ARC
  5
35A
  8
LAYER1$C$L1
 62
     3
 10
-150.89996337889991
 20
91.2002410889
 30
0.0
 40
0.5999999046
 50
90.000091296900024
 51
242.9999350450999
  0
ARC
  5
35B
  8
LAYER1$C$L1
 62
     3
 10
-158.99996948239991
 20
56.000167846700002
 30
0.0
 40
0.5
 50
180.00003597220001
 51
269.99996334460002
  0
ARC
  5
35C
  8
LAYER1$C$L1
 62
     3
 10
-150.89999389650001
 20
56.800216674799998
 30
0.0
 40
0.5999999046
 50
117.00004765209989
 51
269.9999460416999
  0
ARC
  5
35D
  8
LAYER1$C$L1
 62
     3
 10
-152.63864135739991
 20
65.327438354500003
 30
0.0
 40
0.7999997139000001
 50
179.9999640277999
 51
206.9999750243999
  0
ARC
  5
35E
  8
LAYER1$C$L1
 62
     3
 10
-152.63864135739991
 20
82.673141479500003
 30
0.0
 40
0.7999997139000001
 50
153.00006231419999
 51
180.00007331079999
  0
LINE
  5
35F
  8
LAYER1$C$L1
 62
     3
 10
-155.32018469170001
 20
156.8642176793
 30
0.0
 11
-154.33053026869999
 21
155.15008564509989
 31
0.0
  0
LINE
  5
360
  8
LAYER1$C$L1
 62
     3
 10
-155.0532419772
 20
157.20187767580001
 30
0.0
 11
-154.1573070254
 21
155.65007255509991
 31
0.0
  0
LINE
  5
361
  8
LAYER1$C$L1
 62
     3
 10
-150.5995941162
 20
153.89997863769989
 30
0.0
 11
-150.5995941162
 21
156.3999633789
 31
0.0
  0
LINE
  5
362
  8
LAYER1$C$L1
 62
     3
 10
-151.0995941162
 20
153.1499786377
 30
0.0
 11
-151.0995941162
 21
153.3999786377
 31
0.0
  0
LINE
  5
363
  8
LAYER1$C$L1
 62
     3
 10
-149.94110107419999
 20
156.8369598388999
 30
0.0
 11
-149.94110107419999
 21
156.40007019039999
 31
0.0
  0
LINE
  5
364
  8
LAYER1$C$L1
 62
     3
 10
-149.39950561520001
 20
153.90008544919991
 30
0.0
 11
-150.5995178222999
 21
153.90008544919991
 31
0.0
  0
LINE
  5
365
  8
LAYER1$C$L1
 62
     3
 10
-149.39950561520001
 20
156.40007019039999
 30
0.0
 11
-150.5995178222999
 21
156.40007019039999
 31
0.0
  0
LINE
  5
366
  8
LAYER1$C$L1
 62
     3
 10
-149.94110107419999
 20
153.90007019039999
 30
0.0
 11
-149.94110107419999
 21
153.463180542
 31
0.0
  0
LINE
  5
367
  8
LAYER1$C$L1
 62
     3
 10
-149.941194564
 20
153.46312434500001
 30
0.0
 11
-149.44119735090001
 21
151.61313422239991
 31
0.0
  0
ARC
  5
368
  8
LAYER1$C$L1
 62
     3
 10
-159.79997253420001
 20
69.499984741199995
 30
0.0
 40
0.5
 50
179.9999640277999
 51
269.9999460416999
  0
ARC
  5
369
  8
LAYER1$C$L1
 62
     3
 10
-159.79997253420001
 20
78.499984741199995
 30
0.0
 40
0.5
 50
89.999982013899995
 51
179.9999640277999
  0
LINE
  5
36A
  8
LAYER1$C$L1
 62
     3
 10
-149.44113323659991
 20
158.68692166889991
 30
0.0
 11
-149.9411343166
 21
156.83691670179991
 31
0.0
  0
LINE
  5
36B
  8
LAYER1$C$L1
 62
     3
 10
-150.49143828219999
 20
159.4000858819
 30
0.0
 11
-151.0995675021
 21
157.1500065875999
 31
0.0
  0
ARC
  5
36C
  8
LAYER1$C$L1
 62
     3
 10
-119.30000305179991
 20
146.0
 30
0.0
 40
1.0
 50
180.0000906137
 51
270.00007262759988
  0
ARC
  5
36D
  8
LAYER1$C$L1
 62
     3
 10
-126.0
 20
131.69999694820001
 30
0.0
 40
0.5
 50
270.00007262759988
 51
0.0
  0
ARC
  5
36E
  8
LAYER1$C$L1
 62
     3
 10
-125.0
 20
134.49999999999989
 30
0.0
 40
0.5
 50
89.999927372399995
 51
179.9999640277999
  0
ARC
  5
36F
  8
LAYER1$C$L1
 62
     3
 10
-119.30000305179991
 20
146.0
 30
0.0
 40
1.0
 50
89.999927372399995
 51
179.9999093863
  0
ARC
  5
370
  8
LAYER1$C$L1
 62
     3
 10
-125.9999847412
 20
160.2999877929999
 30
0.0
 40
0.5
 50
0.0
 51
89.999927372399995
  0
ARC
  5
371
  8
LAYER1$C$L1
 62
     3
 10
-124.9999847412
 20
157.5
 30
0.0
 40
0.5
 50
179.9999093863
 51
269.9999460416999
  0
ARC
  5
372
  8
LAYER1$C$L1
 62
     3
 10
-125.0
 20
62.499984741200002
 30
0.0
 40
0.5
 50
89.999927372399995
 51
179.9999640277999
  0
ARC
  5
373
  8
LAYER1$C$L1
 62
     3
 10
-126.0
 20
55.999984741200002
 30
0.0
 40
0.5
 50
270.00007262759988
 51
0.0
  0
ARC
  5
374
  8
LAYER1$C$L1
 62
     3
 10
-126.0
 20
56.499984741200002
 30
0.0
 40
0.5
 50
270.00007262759988
 51
0.0
  0
ARC
  5
375
  8
LAYER1$C$L1
 62
     3
 10
-124.9999847412
 20
85.499984741199995
 30
0.0
 40
0.5
 50
179.9999093863
 51
269.9999460416999
  0
ARC
  5
376
  8
LAYER1$C$L1
 62
     3
 10
-125.9999847412
 20
91.999984741199995
 30
0.0
 40
0.5
 50
0.0
 51
89.999927372399995
  0
ARC
  5
377
  8
LAYER1$C$L1
 62
     3
 10
-125.9999847412
 20
91.499984741200024
 30
0.0
 40
0.5
 50
0.0
 51
89.999927372399995
  0
LINE
  5
378
  8
LAYER1$C$L1
 62
     3
 10
-139.5
 20
55.500076293900001
 30
0.0
 11
-139.5
 21
92.49989318850001
 31
0.0
  0
LINE
  5
379
  8
LAYER1$C$L1
 62
     3
 10
-151.86348641469991
 20
89.701232032299998
 30
0.0
 11
-152.5763351443
 21
90.064446567299996
 31
0.0
  0
LINE
  5
37A
  8
LAYER1$C$L1
 62
     3
 10
-154.54204120910001
 20
84.444271756099994
 30
0.0
 11
-155.25488993880001
 21
84.807486291199979
 31
0.0
  0
LINE
  5
37B
  8
LAYER1$C$L1
 62
     3
 10
-152.7010598478
 20
85.41428173140001
 30
0.0
 11
-152.8372791530999
 21
85.146936266400004
 31
0.0
  0
LINE
  5
37C
  8
LAYER1$C$L1
 62
     3
 10
-152.8371507713
 20
85.146948826400006
 30
0.0
 11
-153.37064466449999
 21
83.079793856400016
 31
0.0
  0
LINE
  5
37D
  8
LAYER1$C$L1
 62
     3
 10
-153.58248034629989
 20
82.930581865200011
 30
0.0
 11
-153.9494947600999
 21
82.963973195199998
 31
0.0
  0
LINE
  5
37E
  8
LAYER1$C$L1
 62
     3
 10
-155.01869666859989
 20
83.508769697799991
 30
0.0
 11
-154.6516974509
 21
83.475379750399995
 31
0.0
  0
LINE
  5
37F
  8
LAYER1$C$L1
 62
     3
 10
-154.43986113779991
 20
83.624519979599995
 30
0.0
 11
-153.90636724449999
 21
85.691674949599999
 31
0.0
  0
LINE
  5
380
  8
LAYER1$C$L1
 62
     3
 10
-151.56608369919991
 20
87.641798054799992
 30
0.0
 11
-151.42991981259991
 21
87.909034754300009
 31
0.0
  0
LINE
  5
381
  8
LAYER1$C$L1
 62
     3
 10
-151.4298939016
 20
87.909108833999994
 30
0.0
 11
-150.0711102864
 21
89.555757676900001
 31
0.0
  0
LINE
  5
382
  8
LAYER1$C$L1
 62
     3
 10
-150.07491913149991
 20
89.814804175300011
 30
0.0
 11
-150.31765896979999
 21
90.092098141899996
 31
0.0
  0
LINE
  5
383
  8
LAYER1$C$L1
 62
     3
 10
-152.49920457670001
 20
88.453905241599998
 30
0.0
 11
-151.1404209614999
 21
90.100554084599992
 31
0.0
  0
LINE
  5
384
  8
LAYER1$C$L1
 62
     3
 10
-151.1441098487999
 20
90.359560347399992
 30
0.0
 11
-151.38684968699991
 21
90.636854313899974
 31
0.0
  0
LINE
  5
385
  8
LAYER1$C$L1
 62
     3
 10
-153.68057361539999
 20
83.051336151800001
 30
0.0
 11
-154.2151553507999
 21
83.323720202000004
 31
0.0
  0
LINE
  5
386
  8
LAYER1$C$L1
 62
     3
 10
-150.23023801400001
 20
89.823064032699989
 30
0.0
 11
-150.76482039309991
 21
90.095446795499996
 31
0.0
  0
LINE
  5
387
  8
LAYER1$C$L1
 62
     3
 10
-154.2875575942
 20
89.569598772199996
 30
0.0
 11
-155.96489881700001
 21
88.480320789400011
 31
0.0
  0
LINE
  5
388
  8
LAYER1$C$L1
 62
     3
 10
-155.91245808950001
 20
87.481482636199999
 30
0.0
 11
-155.9647940520999
 21
88.480112146599993
 31
0.0
  0
LINE
  5
389
  8
LAYER1$C$L1
 62
     3
 10
-153.32472091209991
 20
85.732052885499996
 30
0.0
 11
-152.75723283779999
 21
86.845811047199987
 31
0.0
  0
LINE
  5
38A
  8
LAYER1$C$L1
 62
     3
 10
-152.18974476349999
 20
87.959569208899993
 30
0.0
 11
-152.75723283779999
 21
86.845811047199987
 31
0.0
  0
LINE
  5
38B
  8
LAYER1$C$L1
 62
     3
 10
-153.77022417680001
 20
85.959048115300007
 30
0.0
 11
-153.32472091209991
 21
85.732052885499996
 31
0.0
  0
LINE
  5
38C
  8
LAYER1$C$L1
 62
     3
 10
-152.63524802820001
 20
88.186564438600001
 30
0.0
 11
-152.18974476349999
 21
87.959569208899993
 31
0.0
  0
LINE
  5
38D
  8
LAYER1$C$L1
 62
     3
 10
-152.2555565831
 20
85.187286501700001
 30
0.0
 11
-151.1205804345
 21
87.414802824999995
 31
0.0
  0
LINE
  5
38E
  8
LAYER1$C$L1
 62
     3
 10
-152.7010598478
 20
85.41428173140001
 30
0.0
 11
-152.2555565831
 21
85.187286501700001
 31
0.0
  0
LINE
  5
38F
  8
LAYER1$C$L1
 62
     3
 10
-151.56608369919991
 20
87.641798054799992
 30
0.0
 11
-151.1205804345
 21
87.414802824999995
 31
0.0
  0
LINE
  5
390
  8
LAYER1$C$L1
 62
     3
 10
-154.2787390785
 20
86.723251029099984
 30
0.0
 11
-153.20274897900001
 21
87.072861338500005
 31
0.0
  0
LINE
  5
391
  8
LAYER1$C$L1
 62
     3
 10
-152.6579475415999
 20
88.142022916000002
 30
0.0
 11
-153.73393764109991
 21
87.792412606599996
 31
0.0
  0
LINE
  5
392
  8
LAYER1$C$L1
 62
     3
 10
-152.3266349573999
 20
90.554412880399994
 30
0.0
 11
-153.2702867502
 21
90.935672964099979
 31
0.0
  0
LINE
  5
393
  8
LAYER1$C$L1
 62
     3
 10
-156.36770721560001
 20
84.856865388499997
 30
0.0
 11
-155.50454498629989
 21
84.3175018206
 31
0.0
  0
LINE
  5
394
  8
LAYER1$C$L1
 62
     3
 10
-152.3266182241
 20
90.55454366459999
 30
0.0
 11
-155.5045514402
 21
84.317497959299999
 31
0.0
  0
LINE
  5
395
  8
LAYER1$C$L1
 62
     3
 10
-153.9495336112999
 20
82.964013775799998
 30
0.0
 11
-155.0186979403
 21
83.508780159599993
 31
0.0
  0
LINE
  5
396
  8
LAYER1$C$L1
 62
     3
 10
-155.0186979403
 20
83.508780159599993
 30
0.0
 11
-151.38677426469999
 21
90.636832394199985
 31
0.0
  0
LINE
  5
397
  8
LAYER1$C$L1
 62
     3
 10
-150.31760993569989
 20
90.092066010400004
 30
0.0
 11
-151.38677426469999
 21
90.636832394199985
 31
0.0
  0
LINE
  5
398
  8
LAYER1$C$L1
 62
     3
 10
-152.57626696049991
 20
57.935571003600003
 30
0.0
 11
-151.86341823090001
 21
58.298785538699988
 31
0.0
  0
LINE
  5
399
  8
LAYER1$C$L1
 62
     3
 10
-155.25480790029991
 20
63.1925040884
 30
0.0
 11
-154.54195917070001
 21
63.555718623399997
 31
0.0
  0
LINE
  5
39A
  8
LAYER1$C$L1
 62
     3
 10
-152.83721096939999
 20
62.853081304500002
 30
0.0
 11
-152.70100551869999
 21
62.585763030899997
 31
0.0
  0
LINE
  5
39B
  8
LAYER1$C$L1
 62
     3
 10
-153.37062869819991
 20
64.920203154399999
 30
0.0
 11
-152.83714243110001
 21
62.853077733799999
 31
0.0
  0
LINE
  5
39C
  8
LAYER1$C$L1
 62
     3
 10
-153.9494867290999
 20
65.036007803399997
 30
0.0
 11
-153.58247231530001
 21
65.069399133399997
 31
0.0
  0
LINE
  5
39D
  8
LAYER1$C$L1
 62
     3
 10
-154.65168941990001
 20
64.524601248300002
 30
0.0
 11
-155.01868863760001
 21
64.491211300800003
 31
0.0
  0
LINE
  5
39E
  8
LAYER1$C$L1
 62
     3
 10
-153.90634365209991
 20
62.308292511800012
 30
0.0
 11
-154.4398375454
 21
64.375447481899997
 31
0.0
  0
LINE
  5
39F
  8
LAYER1$C$L1
 62
     3
 10
-151.42983777410001
 20
60.090955625299991
 30
0.0
 11
-151.5660432247999
 21
60.358273898900002
 31
0.0
  0
LINE
  5
3A0
  8
LAYER1$C$L1
 62
     3
 10
-150.07108283509999
 20
58.444340276000013
 30
0.0
 11
-151.42986645039991
 21
60.090989119
 31
0.0
  0
LINE
  5
3A1
  8
LAYER1$C$L1
 62
     3
 10
-150.3176014906
 20
57.907991632099993
 30
0.0
 11
-150.0748616523999
 21
58.185285598599989
 31
0.0
  0
LINE
  5
3A2
  8
LAYER1$C$L1
 62
     3
 10
-151.1403546633999
 20
57.899496791700003
 30
0.0
 11
-152.4991382787
 21
59.546145634600002
 31
0.0
  0
LINE
  5
3A3
  8
LAYER1$C$L1
 62
     3
 10
-151.38678072670001
 20
57.363225409599991
 30
0.0
 11
-151.14404088840001
 21
57.640519376099988
 31
0.0
  0
LINE
  5
3A4
  8
LAYER1$C$L1
 62
     3
 10
-154.21509863029999
 20
64.676294052000003
 30
0.0
 11
-153.68051689489991
 21
64.948678102200006
 31
0.0
  0
LINE
  5
3A5
  8
LAYER1$C$L1
 62
     3
 10
-150.764811033
 20
57.904648715699999
 30
0.0
 11
-150.2302286538999
 21
58.177031478499998
 31
0.0
  0
LINE
  5
3A6
  8
LAYER1$C$L1
 62
     3
 10
-155.96488291590001
 20
59.519757344600002
 30
0.0
 11
-154.28754169309991
 21
58.430479361899998
 31
0.0
  0
LINE
  5
3A7
  8
LAYER1$C$L1
 62
     3
 10
-155.96482007680001
 20
59.519772533999991
 30
0.0
 11
-155.91248411410001
 21
60.518402044399998
 31
0.0
  0
LINE
  5
3A8
  8
LAYER1$C$L1
 62
     3
 10
-152.75717850879991
 20
61.154233715100013
 30
0.0
 11
-153.3246665831
 21
62.267991876800011
 31
0.0
  0
LINE
  5
3A9
  8
LAYER1$C$L1
 62
     3
 10
-152.75717850879991
 20
61.154233715100013
 30
0.0
 11
-152.18970428910001
 21
60.040502744799987
 31
0.0
  0
LINE
  5
3AA
  8
LAYER1$C$L1
 62
     3
 10
-153.3246665831
 20
62.267991876800011
 30
0.0
 11
-153.7701698477
 21
62.040996647
 31
0.0
  0
LINE
  5
3AB
  8
LAYER1$C$L1
 62
     3
 10
-152.18970428910001
 20
60.040502744799987
 30
0.0
 11
-152.6352075538
 21
59.813507515099992
 31
0.0
  0
LINE
  5
3AC
  8
LAYER1$C$L1
 62
     3
 10
-151.1205399600999
 20
60.58526912859999
 30
0.0
 11
-152.25550225399991
 21
62.812758260599999
 31
0.0
  0
LINE
  5
3AD
  8
LAYER1$C$L1
 62
     3
 10
-152.25550225399991
 20
62.812758260599999
 30
0.0
 11
-152.70100551869999
 21
62.585763030899997
 31
0.0
  0
LINE
  5
3AE
  8
LAYER1$C$L1
 62
     3
 10
-151.1205399600999
 20
60.58526912859999
 30
0.0
 11
-151.5660432247999
 21
60.358273898900002
 31
0.0
  0
LINE
  5
3AF
  8
LAYER1$C$L1
 62
     3
 10
-153.2027843798999
 20
60.927145872200001
 30
0.0
 11
-154.27877447930001
 21
61.2767561816
 31
0.0
  0
LINE
  5
3B0
  8
LAYER1$C$L1
 62
     3
 10
-153.7339824723999
 20
60.207565580100002
 30
0.0
 11
-152.6579778608999
 21
59.857950555499997
 31
0.0
  0
LINE
  5
3B1
  8
LAYER1$C$L1
 62
     3
 10
-153.27022724799991
 20
57.064332460699987
 30
0.0
 11
-152.3265613074
 21
57.44559826039999
 31
0.0
  0
LINE
  5
3B2
  8
LAYER1$C$L1
 62
     3
 10
-155.5045292618
 20
63.682543276600001
 30
0.0
 11
-156.36769149099999
 21
63.143179708599988
 31
0.0
  0
LINE
  5
3B3
  8
LAYER1$C$L1
 62
     3
 10
-155.50449711109991
 20
63.682546803000001
 30
0.0
 11
-152.32657774969991
 21
57.445528288999988
 31
0.0
  0
LINE
  5
3B4
  8
LAYER1$C$L1
 62
     3
 10
-155.01864361119999
 20
64.491264602699999
 30
0.0
 11
-153.94947928219989
 21
65.036030986499995
 31
0.0
  0
LINE
  5
3B5
  8
LAYER1$C$L1
 62
     3
 10
-151.38673379030001
 20
57.363239559399993
 30
0.0
 11
-155.01864361119999
 21
64.491264602699999
 31
0.0
  0
LINE
  5
3B6
  8
LAYER1$C$L1
 62
     3
 10
-151.38673379030001
 20
57.363239559399993
 30
0.0
 11
-150.31756946129991
 21
57.908005943200003
 31
0.0
  0
LINE
  5
3B7
  8
LAYER1$C$L1
 62
     3
 10
-157.65257263180001
 20
72.357345581099992
 30
0.0
 11
-157.78756713870001
 21
72.357345581099992
 31
0.0
  0
LINE
  5
3B8
  8
LAYER1$C$L1
 62
     3
 10
-157.78756713870001
 20
71.3223114014
 30
0.0
 11
-158.26007080080001
 21
71.3223114014
 31
0.0
  0
LINE
  5
3B9
  8
LAYER1$C$L1
 62
     3
 10
-157.65257263180001
 20
72.357345581099992
 30
0.0
 11
-157.65257263180001
 21
71.3223114014
 31
0.0
  0
LINE
  5
3BA
  8
LAYER1$C$L1
 62
     3
 10
-157.78756713870001
 20
72.357345581099992
 30
0.0
 11
-157.78756713870001
 21
71.3223114014
 31
0.0
  0
LINE
  5
3BB
  8
LAYER1$C$L1
 62
     3
 10
-158.3275604248
 20
72.334884643599992
 30
0.0
 11
-158.3275604248
 21
71.389816284199995
 31
0.0
  0
LINE
  5
3BC
  8
LAYER1$C$L1
 62
     3
 10
-157.45005798339989
 20
72.672409057600007
 30
0.0
 11
-157.99006652829991
 21
72.672409057600007
 31
0.0
  0
LINE
  5
3BD
  8
LAYER1$C$L1
 62
     3
 10
-157.9225616455
 20
72.852340698199995
 30
0.0
 11
-158.26007080080001
 21
72.852340698199995
 31
0.0
  0
LINE
  5
3BE
  8
LAYER1$C$L1
 62
     3
 10
-157.42756652829991
 20
73.482345581099992
 30
0.0
 11
-157.78756713870001
 21
73.482345581099992
 31
0.0
  0
LINE
  5
3BF
  8
LAYER1$C$L1
 62
     3
 10
-157.42756652829991
 20
73.617355346699995
 30
0.0
 11
-157.9225616455
 21
73.617355346699995
 31
0.0
  0
LINE
  5
3C0
  8
LAYER1$C$L1
 62
     3
 10
-157.42756652829991
 20
73.617355346699995
 30
0.0
 11
-157.42756652829991
 21
73.482345581099992
 31
0.0
  0
LINE
  5
3C1
  8
LAYER1$C$L1
 62
     3
 10
-157.78756713870001
 20
73.482345581099992
 30
0.0
 11
-157.78756713870001
 21
72.852340698199995
 31
0.0
  0
LINE
  5
3C2
  8
LAYER1$C$L1
 62
     3
 10
-157.9225616455
 20
73.617355346699995
 30
0.0
 11
-157.9225616455
 21
72.852340698199995
 31
0.0
  0
LINE
  5
3C3
  8
LAYER1$C$L1
 62
     3
 10
-158.3275604248
 20
73.954879760699995
 30
0.0
 11
-158.3275604248
 21
72.919845581099992
 31
0.0
  0
LINE
  5
3C4
  8
LAYER1$C$L1
 62
     3
 10
-157.1800689696999
 20
72.852340698199995
 30
0.0
 11
-157.78756713870001
 21
72.852340698199995
 31
0.0
  0
LINE
  5
3C5
  8
LAYER1$C$L1
 62
     3
 10
-157.11256408689991
 20
72.334884643599992
 30
0.0
 11
-157.11256408689991
 21
71.389816284199995
 31
0.0
  0
LINE
  5
3C6
  8
LAYER1$C$L1
 62
     3
 10
-157.11256408689991
 20
73.954879760699995
 30
0.0
 11
-157.11256408689991
 21
72.919845581099992
 31
0.0
  0
LINE
  5
3C7
  8
LAYER1$C$L1
 62
     3
 10
-157.45005798339989
 20
74.292404174799984
 30
0.0
 11
-157.99006652829991
 21
74.292404174799984
 31
0.0
  0
LINE
  5
3C8
  8
LAYER1$C$L1
 62
     3
 10
-156.6400604248
 20
74.472335815400001
 30
0.0
 11
-158.26007080080001
 21
74.472335815400001
 31
0.0
  0
LINE
  5
3C9
  8
LAYER1$C$L1
 62
     3
 10
-157.65257263180001
 20
75.2373504639
 30
0.0
 11
-157.65257263180001
 21
75.102340698199995
 31
0.0
  0
LINE
  5
3CA
  8
LAYER1$C$L1
 62
     3
 10
-156.6400604248
 20
75.102340698199995
 30
0.0
 11
-157.65257263180001
 21
75.102340698199995
 31
0.0
  0
LINE
  5
3CB
  8
LAYER1$C$L1
 62
     3
 10
-156.97756958010001
 20
75.2373504639
 30
0.0
 11
-157.65257263180001
 21
75.2373504639
 31
0.0
  0
LINE
  5
3CC
  8
LAYER1$C$L1
 62
     3
 10
-157.3150634765999
 20
75.867355346699995
 30
0.0
 11
-157.99006652829991
 21
75.867355346699995
 31
0.0
  0
LINE
  5
3CD
  8
LAYER1$C$L1
 62
     3
 10
-156.97756958010001
 20
76.677413940400001
 30
0.0
 11
-158.26007080080001
 21
76.677413940400001
 31
0.0
  0
LINE
  5
3CE
  8
LAYER1$C$L1
 62
     3
 10
-156.97756958010001
 20
76.047409057600007
 30
0.0
 11
-158.26007080080001
 21
76.047409057600007
 31
0.0
  0
LINE
  5
3CF
  8
LAYER1$C$L1
 62
     3
 10
-156.57257080080001
 20
75.034835815400001
 30
0.0
 11
-156.57257080080001
 21
74.539840698199995
 31
0.0
  0
LINE
  5
3D0
  8
LAYER1$C$L1
 62
     3
 10
-158.3275604248
 20
75.529830932600007
 30
0.0
 11
-158.3275604248
 21
74.539840698199995
 31
0.0
  0
LINE
  5
3D1
  8
LAYER1$C$L1
 62
     3
 10
-156.97756958010001
 20
75.529830932600007
 30
0.0
 11
-156.97756958010001
 21
75.2373504639
 31
0.0
  0
LINE
  5
3D2
  8
LAYER1$C$L1
 62
     3
 10
-156.84255981449999
 20
76.677413940400001
 30
0.0
 11
-156.84255981449999
 21
76.047409057600007
 31
0.0
  0
LINE
  5
3D3
  8
LAYER1$C$L1
 62
     3
 10
-156.97756958010001
 20
76.677413940400001
 30
0.0
 11
-156.97756958010001
 21
76.047409057600007
 31
0.0
  0
LINE
  5
3D4
  8
LAYER1$C$L1
 62
     3
 10
-156.6400604248
 20
76.047409057600007
 30
0.0
 11
-156.84255981449999
 21
76.047409057600007
 31
0.0
  0
LINE
  5
3D5
  8
LAYER1$C$L1
 62
     3
 10
-156.57257080080001
 20
76.609909057600007
 30
0.0
 11
-156.57257080080001
 21
76.114913940400001
 31
0.0
  0
LINE
  5
3D6
  8
LAYER1$C$L1
 62
     3
 10
-158.3275604248
 20
76.609909057600007
 30
0.0
 11
-158.3275604248
 21
76.114913940400001
 31
0.0
  0
LINE
  5
3D7
  8
LAYER1$C$L1
 62
     3
 10
-156.6400604248
 20
76.677413940400001
 30
0.0
 11
-156.84255981449999
 21
76.677413940400001
 31
0.0
  0
LINE
  5
3D8
  8
LAYER1$C$L1
 62
     3
 10
-157.1800689696999
 20
71.3223114014
 30
0.0
 11
-157.65257263180001
 21
71.3223114014
 31
0.0
  0
LINE
  5
3D9
  8
LAYER1$C$L1
 62
     3
 10
-156.20008850100001
 20
70.999801635699995
 30
0.0
 11
-158.70008850100001
 21
70.999801635699995
 31
0.0
  0
LINE
  5
3DA
  8
LAYER1$C$L1
 62
     3
 10
-156.20008850100001
 20
76.999801635699995
 30
0.0
 11
-158.70008850100001
 21
76.999801635699995
 31
0.0
  0
LINE
  5
3DB
  8
LAYER1$C$L1
 62
     3
 10
-153.70008850100001
 20
67.999801635699995
 30
0.0
 11
-153.70008850100001
 21
79.999786376999992
 31
0.0
  0
LINE
  5
3DC
  8
LAYER1$C$L1
 62
     3
 10
-155.70008850100001
 20
67.999801635699995
 30
0.0
 11
-155.70008850100001
 21
79.999786376999992
 31
0.0
  0
LINE
  5
3DD
  8
LAYER1$C$L1
 62
     3
 10
-156.20008850100001
 20
70.999801635699995
 30
0.0
 11
-156.20008850100001
 21
76.999801635699995
 31
0.0
  0
LINE
  5
3DE
  8
LAYER1$C$L1
 62
     3
 10
-153.70008850100001
 20
79.999786376999992
 30
0.0
 11
-155.70008850100001
 21
79.999786376999992
 31
0.0
  0
LINE
  5
3DF
  8
LAYER1$C$L1
 62
     3
 10
-153.70008850100001
 20
67.999801635699995
 30
0.0
 11
-155.70008850100001
 21
67.999801635699995
 31
0.0
  0
LINE
  5
3E0
  8
LAYER1$C$L1
 62
     3
 10
-158.70008850100001
 20
70.999801635699995
 30
0.0
 11
-158.70008850100001
 21
76.999801635699995
 31
0.0
  0
LINE
  5
3E1
  8
LAYER1$C$L1
 62
     3
 10
-154.1000213623
 20
81.899810790999993
 30
0.0
 11
-153.40003967289999
 21
81.899810790999993
 31
0.0
  0
LINE
  5
3E2
  8
LAYER1$C$L1
 62
     3
 10
-153.40003967289999
 20
66.099899292000003
 30
0.0
 11
-154.1000213623
 21
66.099899292000003
 31
0.0
  0
LINE
  5
3E3
  8
LAYER1$C$L1
 62
     3
 10
-157.42553100110001
 20
83.999417117799993
 30
0.0
 11
-153.43870640579991
 21
81.968028715800003
 31
0.0
  0
LINE
  5
3E4
  8
LAYER1$C$L1
 62
     3
 10
-154.10000610349991
 20
80.799789428699995
 30
0.0
 11
-154.10000610349991
 21
82.305145263699984
 31
0.0
  0
LINE
  5
3E5
  8
LAYER1$C$L1
 62
     3
 10
-154.10000610349991
 20
65.694488525400004
 30
0.0
 11
-154.10000610349991
 21
67.199859619099996
 31
0.0
  0
LINE
  5
3E6
  8
LAYER1$C$L1
 62
     3
 10
-158.70007324220001
 20
80.099838256799998
 30
0.0
 11
-159.49999999999989
 21
80.099838256799998
 31
0.0
  0
LINE
  5
3E7
  8
LAYER1$C$L1
 62
     3
 10
-158.70007324220001
 20
67.899810791000007
 30
0.0
 11
-159.49999999999989
 21
67.899810791000007
 31
0.0
  0
LINE
  5
3E8
  8
LAYER1$C$L1
 62
     3
 10
-158.70007324220001
 20
77.399765014600007
 30
0.0
 11
-159.49999999999989
 21
77.399765014600007
 31
0.0
  0
LINE
  5
3E9
  8
LAYER1$C$L1
 62
     3
 10
-158.70007324220001
 20
70.599884033199999
 30
0.0
 11
-159.49999999999989
 21
70.599884033199999
 31
0.0
  0
LINE
  5
3EA
  8
LAYER1$C$L1
 62
     3
 10
-159.49999999999989
 20
80.799789428699995
 30
0.0
 11
-154.10000610349991
 21
80.799789428699995
 31
0.0
  0
LINE
  5
3EB
  8
LAYER1$C$L1
 62
     3
 10
-159.49999999999989
 20
80.699813842799998
 30
0.0
 11
-154.0000152588
 21
80.699813842799998
 31
0.0
  0
LINE
  5
3EC
  8
LAYER1$C$L1
 62
     3
 10
-159.49999999999989
 20
86.899749755900004
 30
0.0
 11
-156.5898895263999
 21
86.899749755900004
 31
0.0
  0
LINE
  5
3ED
  8
LAYER1$C$L1
 62
     3
 10
-159.49999999999989
 20
83.999725341799987
 30
0.0
 11
-157.4252166748
 21
83.999725341799987
 31
0.0
  0
LINE
  5
3EE
  8
LAYER1$C$L1
 62
     3
 10
-154.10000610349991
 20
67.199859619099996
 30
0.0
 11
-159.49999999999989
 21
67.199859619099996
 31
0.0
  0
LINE
  5
3EF
  8
LAYER1$C$L1
 62
     3
 10
-154.0
 20
67.299835205099996
 30
0.0
 11
-159.49999999999989
 21
67.299835205099996
 31
0.0
  0
LINE
  5
3F0
  8
LAYER1$C$L1
 62
     3
 10
-156.58978271480001
 20
61.099807739300012
 30
0.0
 11
-159.49999999999989
 21
61.099807739300012
 31
0.0
  0
LINE
  5
3F1
  8
LAYER1$C$L1
 62
     3
 10
-153.43871729110001
 20
66.031673491600003
 30
0.0
 11
-157.425514695
 21
64.000298944400001
 31
0.0
  0
LINE
  5
3F2
  8
LAYER1$C$L1
 62
     3
 10
-159.49999999999989
 20
56.000167846700002
 30
0.0
 11
-159.49999999999989
 21
92.000167846699995
 31
0.0
  0
LINE
  5
3F3
  8
LAYER1$C$L1
 62
     3
 10
-157.4252166748
 20
63.999786377
 30
0.0
 11
-159.49999999999989
 21
63.999786377
 31
0.0
  0
LINE
  5
3F4
  8
LAYER1$C$L1
 62
     3
 10
-148.6617431640999
 20
55.500091552699999
 30
0.0
 11
-148.6617431640999
 21
56.200531005899997
 31
0.0
  0
LINE
  5
3F5
  8
LAYER1$C$L1
 62
     3
 10
-148.662109375
 20
91.800018310499993
 30
0.0
 11
-148.662109375
 21
92.499969482400004
 31
0.0
  0
LINE
  5
3F6
  8
LAYER1$C$L1
 62
     3
 10
-158.70007324220001
 20
77.400009155299998
 30
0.0
 11
-158.70007324220001
 21
80.099960327100007
 31
0.0
  0
LINE
  5
3F7
  8
LAYER1$C$L1
 62
     3
 10
-159.49998474119991
 20
80.099960327100007
 30
0.0
 11
-158.70007324220001
 21
80.099960327100007
 31
0.0
  0
LINE
  5
3F8
  8
LAYER1$C$L1
 62
     3
 10
-159.49998474119991
 20
77.400009155299998
 30
0.0
 11
-158.70007324220001
 21
77.400009155299998
 31
0.0
  0
LINE
  5
3F9
  8
LAYER1$C$L1
 62
     3
 10
-158.70007324220001
 20
67.900054931599996
 30
0.0
 11
-158.70007324220001
 21
70.600128173800002
 31
0.0
  0
LINE
  5
3FA
  8
LAYER1$C$L1
 62
     3
 10
-158.70007324220001
 20
67.900054931599996
 30
0.0
 11
-159.49998474119991
 21
67.900054931599996
 31
0.0
  0
LINE
  5
3FB
  8
LAYER1$C$L1
 62
     3
 10
-158.70007324220001
 20
70.600128173800002
 30
0.0
 11
-159.49998474119991
 21
70.600128173800002
 31
0.0
  0
LINE
  5
3FC
  8
LAYER1$C$L1
 62
     3
 10
-139.50064789459989
 20
88.254550759500006
 30
0.0
 11
-147.83327743789999
 21
92.500237171699993
 31
0.0
  0
LINE
  5
3FD
  8
LAYER1$C$L1
 62
     3
 10
-139.50065138459991
 20
87.132226337399999
 30
0.0
 11
-148.6621823879
 21
91.800259098600009
 31
0.0
  0
LINE
  5
3FE
  8
LAYER1$C$L1
 62
     3
 10
-147.8329904940999
 20
55.500628252600002
 30
0.0
 11
-139.5003609508
 21
59.746314664799989
 31
0.0
  0
LINE
  5
3FF
  8
LAYER1$C$L1
 62
     3
 10
-148.6618954441
 20
56.200606325699987
 30
0.0
 11
-139.50036444080001
 21
60.868639086899989
 31
0.0
  0
LINE
  5
400
  8
LAYER1$C$L1
 62
     3
 10
-159.0
 20
92.499969482400004
 30
0.0
 11
-139.5
 21
92.499969482400004
 31
0.0
  0
LINE
  5
401
  8
LAYER1$C$L1
 62
     3
 10
-150.00057687450001
 20
90.068354338899994
 30
0.0
 11
-151.17295961129989
 21
90.665713123399996
 31
0.0
  0
LINE
  5
402
  8
LAYER1$C$L1
 62
     3
 10
-150.0
 20
89.172821044900004
 30
0.0
 11
-150.0
 21
90.067962646499993
 31
0.0
  0
LINE
  5
403
  8
LAYER1$C$L1
 62
     3
 10
-150.90002441409999
 20
91.800018310499993
 30
0.0
 11
-148.66149902340001
 21
91.800018310499993
 31
0.0
  0
LINE
  5
404
  8
LAYER1$C$L1
 62
     3
 10
-153.40059947579999
 20
82.500322180200016
 30
0.0
 11
-150.00060286639999
 21
89.173191875300006
 31
0.0
  0
LINE
  5
405
  8
LAYER1$C$L1
 62
     3
 10
-153.4000244140999
 20
80.700057983400001
 30
0.0
 11
-153.4000244140999
 21
82.499969482400004
 31
0.0
  0
LINE
  5
406
  8
LAYER1$C$L1
 62
     3
 10
-159.49998474119991
 20
80.700057983400001
 30
0.0
 11
-153.4000244140999
 21
80.700057983400001
 31
0.0
  0
LINE
  5
407
  8
LAYER1$C$L1
 62
     3
 10
-142.0004508655999
 20
80.600347413599991
 30
0.0
 11
-141.60037322799991
 21
81.000425995499995
 31
0.0
  0
LINE
  5
408
  8
LAYER1$C$L1
 62
     3
 10
-142.00029101039999
 20
77.6003391717
 30
0.0
 11
-141.60029921750001
 21
77.200347378700002
 31
0.0
  0
LINE
  5
409
  8
LAYER1$C$L1
 62
     3
 10
-153.10039295440001
 20
77.200366210500007
 30
0.0
 11
-152.7003143725
 21
77.600443848099999
 31
0.0
  0
LINE
  5
40A
  8
LAYER1$C$L1
 62
     3
 10
-153.10027905699991
 20
81.000355728599985
 30
0.0
 11
-152.70028726399991
 21
80.600363935600001
 31
0.0
  0
LINE
  5
40B
  8
LAYER1$C$L1
 62
     3
 10
-142.0
 20
77.600082397500003
 30
0.0
 11
-142.0
 21
80.600082397500003
 31
0.0
  0
LINE
  5
40C
  8
LAYER1$C$L1
 62
     3
 10
-152.70007324220001
 20
77.600082397500003
 30
0.0
 11
-152.70007324220001
 21
80.600082397500003
 31
0.0
  0
LINE
  5
40D
  8
LAYER1$C$L1
 62
     3
 10
-153.10009765629991
 20
77.200057983400001
 30
0.0
 11
-153.10009765629991
 21
80.999984741199995
 31
0.0
  0
LINE
  5
40E
  8
LAYER1$C$L1
 62
     3
 10
-141.60009765629991
 20
77.200057983400001
 30
0.0
 11
-141.60009765629991
 21
80.999984741199995
 31
0.0
  0
LINE
  5
40F
  8
LAYER1$C$L1
 62
     3
 10
-152.70007324220001
 20
80.600082397500003
 30
0.0
 11
-142.0
 21
80.600082397500003
 31
0.0
  0
LINE
  5
410
  8
LAYER1$C$L1
 62
     3
 10
-152.70007324220001
 20
77.600082397500003
 30
0.0
 11
-142.0
 21
77.600082397500003
 31
0.0
  0
LINE
  5
411
  8
LAYER1$C$L1
 62
     3
 10
-153.10009765629991
 20
80.999984741199995
 30
0.0
 11
-141.60009765629991
 21
80.999984741199995
 31
0.0
  0
LINE
  5
412
  8
LAYER1$C$L1
 62
     3
 10
-153.10009765629991
 20
77.200057983400001
 30
0.0
 11
-141.60009765629991
 21
77.200057983400001
 31
0.0
  0
LINE
  5
413
  8
LAYER1$C$L1
 62
     3
 10
-139.5
 20
55.500091552699999
 30
0.0
 11
-159.0
 21
55.500091552699999
 31
0.0
  0
LINE
  5
414
  8
LAYER1$C$L1
 62
     3
 10
-151.17273501359989
 20
57.335274661999989
 30
0.0
 11
-150.00035227679999
 21
57.932633446499999
 31
0.0
  0
LINE
  5
415
  8
LAYER1$C$L1
 62
     3
 10
-150.0
 20
57.932098388699998
 30
0.0
 11
-150.0
 21
58.827239990200013
 31
0.0
  0
LINE
  5
416
  8
LAYER1$C$L1
 62
     3
 10
-148.66149902340001
 20
56.200164794899997
 30
0.0
 11
-150.90002441409999
 21
56.200164794899997
 31
0.0
  0
LINE
  5
417
  8
LAYER1$C$L1
 62
     3
 10
-150.00037826869999
 20
58.827795910100001
 30
0.0
 11
-153.40037444519999
 21
65.500664755499997
 31
0.0
  0
LINE
  5
418
  8
LAYER1$C$L1
 62
     3
 10
-153.4000244140999
 20
65.500152587900004
 30
0.0
 11
-153.4000244140999
 21
67.300079345699999
 31
0.0
  0
LINE
  5
419
  8
LAYER1$C$L1
 62
     3
 10
-153.4000244140999
 20
67.300079345699999
 30
0.0
 11
-159.49998474119991
 21
67.300079345699999
 31
0.0
  0
LINE
  5
41A
  8
LAYER1$C$L1
 62
     3
 10
-141.6003604144
 20
67.000410864300008
 30
0.0
 11
-142.0003517353
 21
67.400403129300003
 31
0.0
  0
LINE
  5
41B
  8
LAYER1$C$L1
 62
     3
 10
-141.60029921750001
 20
70.8003060578
 30
0.0
 11
-142.00029101039999
 21
70.400314264900004
 31
0.0
  0
LINE
  5
41C
  8
LAYER1$C$L1
 62
     3
 10
-152.70033797569991
 20
70.400382222100006
 30
0.0
 11
-153.10033024069989
 21
70.800373543099994
 31
0.0
  0
LINE
  5
41D
  8
LAYER1$C$L1
 62
     3
 10
-152.70036279109999
 20
67.400386607200005
 30
0.0
 11
-153.1003545840999
 21
67.000394814300009
 31
0.0
  0
LINE
  5
41E
  8
LAYER1$C$L1
 62
     3
 10
-142.0
 20
67.400054931599996
 30
0.0
 11
-142.0
 21
70.400054931599996
 31
0.0
  0
LINE
  5
41F
  8
LAYER1$C$L1
 62
     3
 10
-152.70007324220001
 20
67.400054931599996
 30
0.0
 11
-152.70007324220001
 21
70.400054931599996
 31
0.0
  0
LINE
  5
420
  8
LAYER1$C$L1
 62
     3
 10
-153.10009765629991
 20
67.000030517599996
 30
0.0
 11
-153.10009765629991
 21
70.800079345699999
 31
0.0
  0
LINE
  5
421
  8
LAYER1$C$L1
 62
     3
 10
-141.60009765629991
 20
67.000030517599996
 30
0.0
 11
-141.60009765629991
 21
70.800079345699999
 31
0.0
  0
LINE
  5
422
  8
LAYER1$C$L1
 62
     3
 10
-142.0
 20
67.400054931599996
 30
0.0
 11
-152.70007324220001
 21
67.400054931599996
 31
0.0
  0
LINE
  5
423
  8
LAYER1$C$L1
 62
     3
 10
-142.0
 20
70.400054931599996
 30
0.0
 11
-152.70007324220001
 21
70.400054931599996
 31
0.0
  0
LINE
  5
424
  8
LAYER1$C$L1
 62
     3
 10
-141.60009765629991
 20
67.000030517599996
 30
0.0
 11
-153.10009765629991
 21
67.000030517599996
 31
0.0
  0
LINE
  5
425
  8
LAYER1$C$L1
 62
     3
 10
-141.60009765629991
 20
70.800079345699999
 30
0.0
 11
-153.10009765629991
 21
70.800079345699999
 31
0.0
  0
LINE
  5
426
  8
LAYER1$C$L1
 62
     3
 10
-150.00001632449991
 20
58.386386344799988
 30
0.0
 11
-153.35159036179991
 21
64.964221382200009
 31
0.0
  0
LINE
  5
427
  8
LAYER1$C$L1
 62
     3
 10
-153.43867492679991
 20
65.327316284199995
 30
0.0
 11
-153.43867492679991
 21
67.299972534199995
 31
0.0
  0
LINE
  5
428
  8
LAYER1$C$L1
 62
     3
 10
-153.3515597496999
 20
83.036225359200003
 30
0.0
 11
-150.00005498589991
 21
89.6139244397
 31
0.0
  0
LINE
  5
429
  8
LAYER1$C$L1
 62
     3
 10
-153.4386596679999
 20
80.699935913100006
 30
0.0
 11
-153.4386596679999
 21
82.673080444299998
 31
0.0
  0
LINE
  5
42A
  8
LAYER1$C$L1
 62
     3
 10
-128.00109863279999
 20
150.10000610349999
 30
0.0
 11
-128.00109863279999
 21
147.09999084469999
 31
0.0
  0
LINE
  5
42B
  8
LAYER1$C$L1
 62
     3
 10
-127.9999389647999
 20
150.10000610349999
 30
0.0
 11
-139.5
 21
150.10000610349999
 31
0.0
  0
LINE
  5
42C
  8
LAYER1$C$L1
 62
     3
 10
-128.00109863279999
 20
147.09999084469999
 30
0.0
 11
-139.5
 21
147.09999084469999
 31
0.0
  0
LINE
  5
42D
  8
LAYER4$C$L4
  6
PHANTOM
 62
     3
 10
-154.59996032709989
 20
145.99998474119991
 30
0.0
 11
-163.0
 21
145.99998474119991
 31
0.0
  0
LINE
  5
42E
  8
LAYER4$C$L4
  6
PHANTOM
 62
     3
 10
-152.5999908446999
 20
131.90000915530001
 30
0.0
 11
-163.0
 21
131.90000915530001
 31
0.0
  0
LINE
  5
42F
  8
LAYER4$C$L4
  6
PHANTOM
 62
     3
 10
-153.59996032709989
 20
132.80001831049989
 30
0.0
 11
-153.59996032709989
 21
144.99996948239991
 31
0.0
  0
LINE
  5
430
  8
LAYER4$C$L4
  6
PHANTOM
 62
     3
 10
-152.5999908446999
 20
131.89999389650001
 30
0.0
 11
-152.5999908446999
 21
132.80001831049989
 31
0.0
  0
LINE
  5
431
  8
LAYER4$C$L4
  6
PHANTOM
 62
     3
 10
-163.0
 20
131.89999389650001
 30
0.0
 11
-163.0
 21
145.99996948239991
 31
0.0
  0
LINE
  5
439
  8
LAYER1$C$L1
 62
     3
 10
-152.5
 20
147.09999084469999
 30
0.0
 11
-152.5
 21
145.99998474119991
 31
0.0
  0
LINE
  5
43A
  8
LAYER1$C$L1
 62
     3
 10
-159.49999999999989
 20
147.09999084469999
 30
0.0
 11
-152.5
 21
147.09999084469999
 31
0.0
  0
LINE
  5
43B
  8
LAYER1$C$L1
 62
     3
 10
-159.49999999999989
 20
160.70004272459991
 30
0.0
 11
-159.49999999999989
 21
145.99998474119991
 31
0.0
  0
LINE
  5
43C
  8
LAYER1$C$L1
 62
     3
 10
-139.5
 20
160.69998168949999
 30
0.0
 11
-139.5
 21
150.10000610349999
 31
0.0
  0
LINE
  5
43D
  8
LAYER1$C$L1
 62
     3
 10
-152.5
 20
145.99989318850001
 30
0.0
 11
-152.5
 21
144.90000915530001
 31
0.0
  0
LINE
  5
43E
  8
LAYER1$C$L1
 62
     3
 10
-151.47924804690001
 20
145.99989318850001
 30
0.0
 11
-151.47924804690001
 21
141.80000305179991
 31
0.0
  0
LINE
  5
43F
  8
LAYER1$C$L1
 62
     3
 10
-154.58567810059989
 20
144.90000915530001
 30
0.0
 11
-154.58567810059989
 21
141.80000305179991
 31
0.0
  0
LINE
  5
440
  8
LAYER1$C$L1
 62
     3
 10
-128.00109863279999
 20
141.8999633789
 30
0.0
 11
-128.00109863279999
 21
144.8999786377
 31
0.0
  0
LINE
  5
441
  8
LAYER1$C$L1
 62
     3
 10
-139.49995422360001
 20
131.7999877929999
 30
0.0
 11
-139.49995422360001
 21
141.89994812009999
 31
0.0
  0
LINE
  5
442
  8
LAYER1$C$L1
 62
     3
 10
-127.9999389647999
 20
141.8999633789
 30
0.0
 11
-139.49993896480001
 21
141.8999633789
 31
0.0
  0
LINE
  5
443
  8
LAYER1$C$L1
 62
     3
 10
-128.00109863279999
 20
144.8999786377
 30
0.0
 11
-139.49995422360001
 21
144.8999786377
 31
0.0
  0
LINE
  5
444
  8
LAYER1$C$L1
 62
     3
 10
-139.5
 20
147.09999084469999
 30
0.0
 11
-139.5
 21
144.89994812009991
 31
0.0
  0
LINE
  5
445
  8
LAYER1$C$L1
 62
     3
 10
-157.0
 20
144.90000915530001
 30
0.0
 11
-157.0
 21
141.80000305179991
 31
0.0
  0
LINE
  5
446
  8
LAYER1$C$L1
 62
     3
 10
-157.42581176760001
 20
140.70004272459991
 30
0.0
 11
-157.42581176760001
 21
131.29997253420001
 31
0.0
  0
LINE
  5
447
  8
LAYER1$C$L1
 62
     3
 10
-148.66107177730001
 20
139.69989013669991
 30
0.0
 11
-139.49966430660001
 21
139.69989013669991
 31
0.0
  0
LINE
  5
448
  8
LAYER1$C$L1
 62
     3
 10
-150.99961853030001
 20
132.59997558590001
 30
0.0
 11
-150.99961853030001
 21
131.2999877929999
 31
0.0
  0
LINE
  5
449
  8
LAYER1$C$L1
 62
     3
 10
-148.66107177730001
 20
132.59991455080001
 30
0.0
 11
-153.49961853030001
 21
132.59991455080001
 31
0.0
  0
LINE
  5
44A
  8
LAYER1$C$L1
 62
     3
 10
-139.99996948239991
 20
131.29992675779999
 30
0.0
 11
-159.49964904789999
 21
131.29992675779999
 31
0.0
  0
LINE
  5
44B
  8
LAYER1$C$L1
 62
     3
 10
-148.66108703610001
 20
131.2999114989999
 30
0.0
 11
-148.66108703610001
 21
140.70001220699999
 31
0.0
  0
LINE
  5
44C
  8
LAYER1$C$L1
 62
     3
 10
-153.49967956539999
 20
140.70007324220001
 30
0.0
 11
-153.49967956539999
 21
140.44309997560001
 31
0.0
  0
LINE
  5
44D
  8
LAYER1$C$L1
 62
     3
 10
-153.49967956539999
 20
133.2571105957
 30
0.0
 11
-153.49967956539999
 21
131.30006408689999
 31
0.0
  0
LINE
  5
44E
  8
LAYER1$C$L1
 62
     3
 10
-153.11471914949999
 20
135.44273479890001
 30
0.0
 11
-153.63849228039999
 21
136.34993662759999
 31
0.0
  0
LINE
  5
44F
  8
LAYER1$C$L1
 62
     3
 10
-153.92716564689991
 20
136.84993365019989
 30
0.0
 11
-154.8387942613999
 21
138.4289209966
 31
0.0
  0
LINE
  5
450
  8
LAYER1$C$L1
 62
     3
 10
-154.9168189609
 20
135.13577202190001
 30
0.0
 11
-153.9271721673
 21
136.8498908414999
 31
0.0
  0
LINE
  5
451
  8
LAYER1$C$L1
 62
     3
 10
-153.63845825199999
 20
137.35000610349991
 30
0.0
 11
-154.15730285639989
 21
137.35000610349991
 31
0.0
  0
LINE
  5
452
  8
LAYER1$C$L1
 62
     3
 10
-153.9271392821999
 20
136.8500213623
 30
0.0
 11
-154.33052062990001
 21
136.8500213623
 31
0.0
  0
LINE
  5
453
  8
LAYER1$C$L1
 62
     3
 10
-153.63844299319999
 20
136.3500213623
 30
0.0
 11
-154.15730285639989
 21
136.3500213623
 31
0.0
  0
LINE
  5
454
  8
LAYER1$C$L1
 62
     3
 10
-153.63849117140001
 20
137.3499010786
 30
0.0
 11
-152.55380502139991
 21
139.2286329202
 31
0.0
  0
LINE
  5
455
  8
LAYER1$C$L1
 62
     3
 10
-152.5537708526
 20
139.2287268437
 30
0.0
 11
-152.32906662080001
 21
138.4179180923999
 31
0.0
  0
LINE
  5
456
  8
LAYER1$C$L1
 62
     3
 10
-152.55377197269991
 20
139.22874450680001
 30
0.0
 11
-152.78393554690001
 21
139.22874450680001
 31
0.0
  0
LINE
  5
457
  8
LAYER1$C$L1
 62
     3
 10
-152.32908630369991
 20
138.41793823239991
 30
0.0
 11
-152.55923461910001
 21
138.41793823239991
 31
0.0
  0
LINE
  5
458
  8
LAYER1$C$L1
 62
     3
 10
-154.85829162600001
 20
135.13586425779991
 30
0.0
 11
-155.32019042970001
 21
135.13586425779991
 31
0.0
  0
LINE
  5
459
  8
LAYER1$C$L1
 62
     3
 10
-153.05815040159999
 20
135.64623741290001
 30
0.0
 11
-153.2828684342
 21
134.8354799963999
 31
0.0
  0
LINE
  5
45A
  8
LAYER1$C$L1
 62
     3
 10
-154.8197530194
 20
138.49733216839991
 30
0.0
 11
-154.96949468909989
 21
137.9566810323
 31
0.0
  0
LINE
  5
45B
  8
LAYER1$C$L1
 62
     3
 10
-153.75319702489989
 20
136.8498940712999
 30
0.0
 11
-152.99228708140001
 21
138.16782897760001
 31
0.0
  0
LINE
  5
45C
  8
LAYER1$C$L1
 62
     3
 10
-154.15732586309991
 20
137.34990412429991
 30
0.0
 11
-153.21698021099991
 21
138.9786308473999
 31
0.0
  0
LINE
  5
45D
  8
LAYER1$C$L1
 62
     3
 10
-153.05829565969989
 20
135.6463065211
 30
0.0
 11
-153.753203719
 21
136.84992279100001
 31
0.0
  0
LINE
  5
45E
  8
LAYER1$C$L1
 62
     3
 10
-153.28301167750001
 20
134.8355442946999
 30
0.0
 11
-154.15734781590001
 21
136.349939167
 31
0.0
  0
LINE
  5
45F
  8
LAYER1$C$L1
 62
     3
 10
-154.1573489564
 20
137.34994127830001
 30
0.0
 11
-154.81982446340001
 21
138.4973827103
 31
0.0
  0
LINE
  5
460
  8
LAYER1$C$L1
 62
     3
 10
-154.33055694079999
 20
136.84992793929999
 30
0.0
 11
-154.9695720624
 21
137.95673478500001
 31
0.0
  0
LINE
  5
461
  8
LAYER1$C$L1
 62
     3
 10
-155.32019704039999
 20
135.13577010329999
 30
0.0
 11
-154.33055024679999
 21
136.8498889229999
 31
0.0
  0
LINE
  5
462
  8
LAYER1$C$L1
 62
     3
 10
-155.05325432590001
 20
134.79811010680001
 30
0.0
 11
-154.1573270035
 21
136.34990201309989
 31
0.0
  0
LINE
  5
463
  8
LAYER1$C$L1
 62
     3
 10
-150.5995941162
 20
138.0999908446999
 30
0.0
 11
-150.5995941162
 21
135.60000610349999
 31
0.0
  0
LINE
  5
464
  8
LAYER1$C$L1
 62
     3
 10
-151.0995941162
 20
138.8499908446999
 30
0.0
 11
-151.0995941162
 21
138.5999908446999
 31
0.0
  0
LINE
  5
465
  8
LAYER1$C$L1
 62
     3
 10
-149.94110107419999
 20
135.16300964359999
 30
0.0
 11
-149.94110107419999
 21
135.599899292
 31
0.0
  0
LINE
  5
466
  8
LAYER1$C$L1
 62
     3
 10
-149.39950561520001
 20
138.09988403319991
 30
0.0
 11
-150.5995178222999
 21
138.09988403319991
 31
0.0
  0
LINE
  5
467
  8
LAYER1$C$L1
 62
     3
 10
-149.39950561520001
 20
135.599899292
 30
0.0
 11
-150.5995178222999
 21
135.599899292
 31
0.0
  0
LINE
  5
468
  8
LAYER1$C$L1
 62
     3
 10
-149.94110107419999
 20
138.099899292
 30
0.0
 11
-149.94110107419999
 21
138.53678894039999
 31
0.0
  0
LINE
  5
469
  8
LAYER1$C$L1
 62
     3
 10
-149.94121022740001
 20
138.53683355299989
 30
0.0
 11
-149.44121301429999
 21
140.3868236754999
 31
0.0
  0
LINE
  5
46A
  8
LAYER1$C$L1
 62
     3
 10
-149.44112967219999
 20
133.31305525779999
 30
0.0
 11
-149.9411307522999
 21
135.16306022480001
 31
0.0
  0
LINE
  5
46B
  8
LAYER1$C$L1
 62
     3
 10
-150.49143471790001
 20
132.5998910447999
 30
0.0
 11
-151.0995639377
 21
134.84997033900001
 31
0.0
  0
LINE
  5
46C
  8
LAYER1$C$L1
 62
     3
 10
-151.0996433412999
 20
138.84992351029999
 30
0.0
 11
-150.59964612819991
 21
140.69991363290001
 31
0.0
  0
LINE
  5
46D
  8
LAYER1$C$L1
 62
     3
 10
-151.0995941162
 20
135.10000610349991
 30
0.0
 11
-151.0995941162
 21
134.85000610349991
 31
0.0
  0
LINE
  5
46E
  8
LAYER1$C$L1
 62
     3
 10
-149.3995971679999
 20
140.69999694820001
 30
0.0
 11
-149.3995971679999
 21
132.599899292
 31
0.0
  0
LINE
  5
46F
  8
LAYER1$C$L1
 62
     3
 10
-139.4999847412
 20
140.70001220699999
 30
0.0
 11
-159.49999999999989
 21
140.70001220699999
 31
0.0
  0
LINE
  5
470
  8
LAYER1$C$L1
 62
     3
 10
-140.0
 20
131.29992675779999
 30
0.0
 11
-159.49996948239991
 21
131.29992675779999
 31
0.0
  0
LINE
  5
471
  8
LAYER1$C$L1
 62
     3
 10
-159.49999999999989
 20
145.99989318850001
 30
0.0
 11
-159.49999999999989
 21
131.2999877929999
 31
0.0
  0
LINE
  5
472
  8
LAYER1$C$L1
 62
     3
 10
-147.7999877929999
 20
141.80000305179991
 30
0.0
 11
-147.7999877929999
 21
145.99996948239991
 31
0.0
  0
LINE
  5
473
  8
LAYER1$C$L1
 62
     3
 10
-144.5
 20
141.80000305179991
 30
0.0
 11
-144.5
 21
145.99996948239991
 31
0.0
  0
LINE
  5
474
  8
LAYER1$C$L1
 62
     3
 10
-144.5
 20
141.80000305179991
 30
0.0
 11
-159.49999999999989
 21
141.80000305179991
 31
0.0
  0
LINE
  5
475
  8
LAYER1$C$L1
 62
     3
 10
-144.5000152588
 20
141.80000305179991
 30
0.0
 11
-159.50003051760001
 21
141.80000305179991
 31
0.0
  0
LINE
  5
476
  8
LAYER1$C$L1
 62
     3
 10
-147.80001831049989
 20
141.80000305179991
 30
0.0
 11
-147.80001831049989
 21
145.99996948239991
 31
0.0
  0
LINE
  5
477
  8
LAYER1$C$L1
 62
     3
 10
-144.50003051760001
 20
141.80000305179991
 30
0.0
 11
-144.50003051760001
 21
145.99996948239991
 31
0.0
  0
LINE
  5
478
  8
LAYER1$C$L1
 62
     3
 10
-159.50013732909991
 20
144.90000915530001
 30
0.0
 11
-152.5
 21
144.90000915530001
 31
0.0
  0
LINE
  5
479
  8
LAYER1$C$L1
 62
     3
 10
-159.49999999999989
 20
145.99998474119991
 30
0.0
 11
-139.5
 21
145.99998474119991
 31
0.0
  0
LINE
  5
47A
  8
LAYER1$C$L1
 62
     3
 10
-160.29997253420001
 20
149.1499786377
 30
0.0
 11
-160.29997253420001
 21
142.84997558590001
 31
0.0
  0
LINE
  5
47B
  8
LAYER1$C$L1
 62
     3
 10
-159.49998474119991
 20
149.64997863769989
 30
0.0
 11
-159.79997253420001
 21
149.64997863769989
 31
0.0
  0
LINE
  5
47C
  8
LAYER1$C$L1
 62
     3
 10
-159.49998474119991
 20
142.34997558590001
 30
0.0
 11
-159.49998474119991
 21
149.64997863769989
 31
0.0
  0
DIMENSION
  5
48A
  8
DIMENSIONS
  2
*D29
 10
-111.0
 20
114.9999847412
 30
0.0
 11
-135.2499923705999
 21
114.9999847412
 31
0.0
 70
     0
 13
-159.49998474119991
 23
131.29997253420001
 33
0.0
 14
-111.0
 24
132.49999999999989
 34
0.0
1001
ACAD
1000
DSTYLE
1002
{
1070
    41
1040
1.9727878464999999
1070
    42
1040
2.5399999618999991
1070
    44
1040
3.8099999427999989
1070
    73
1070
     0
1070
   140
1040
3.1999998092999991
1070
   271
1070
     1
1070
   272
1070
     1
1002
}
  0
LINE
  5
496
  8
LAYER1$C$L1
 62
     3
 10
-85.133499145499997
 20
134.20004272459991
 30
0.0
 11
-85.133499145499997
 21
157.80003356930001
 31
0.0
  0
ARC
  5
497
  8
LAYER4$C$L4
  6
PHANTOM
 62
     3
 10
-91.722122192399993
 20
159.0000457763999
 30
0.0
 40
1.1999998092999999
 50
269.9996354955
 51
354.42774384490002
  0
ARC
  5
498
  8
LAYER1$C$L1
 62
     3
 10
-83.001190185500008
 20
93.200042724599996
 30
0.0
 40
0.7999999523000002
 50
10.1267424069
 51
90.000637712099987
  0
ARC
  5
499
  8
LAYER1$C$L1
 62
     3
 10
-86.222137451200012
 20
133.0000457763999
 30
0.0
 40
1.1999998092999999
 50
5.5722561550999989
 51
90.000364504500027
  0
LINE
  5
4A1
  8
LAYER1$C$L1
 62
     3
 10
-160.29997253420001
 20
75.999969482400004
 30
0.0
 11
-159.49998474119991
 21
75.999969482400004
 31
0.0
  0
LINE
  5
4A2
  8
LAYER1$C$L1
 62
     3
 10
-159.49998474119991
 20
71.999969482400004
 30
0.0
 11
-160.29997253420001
 21
71.999969482400004
 31
0.0
  0
LINE
  5
4A3
  8
LAYER1$C$L1
 62
     3
 10
-159.49998474119991
 20
78.999969482400004
 30
0.0
 11
-159.49998474119991
 21
68.999969482400004
 31
0.0
  0
LINE
  5
4A4
  8
LAYER1$C$L1
 62
     3
 10
-159.79997253420001
 20
78.999969482400004
 30
0.0
 11
-159.49998474119991
 21
78.999969482400004
 31
0.0
  0
LINE
  5
4A5
  8
LAYER1$C$L1
 62
     3
 10
-160.29997253420001
 20
69.499969482400004
 30
0.0
 11
-160.29997253420001
 21
78.499969482400004
 31
0.0
  0
LINE
  5
4A6
  8
LAYER1$C$L1
 62
     3
 10
-159.49998474119991
 20
68.999969482400004
 30
0.0
 11
-159.79997253420001
 21
68.999969482400004
 31
0.0
  0
POLYLINE
  5
4A9
  8
LAYER1$C$L1
 62
     3
 66
     1
 10
0.0
 20
0.0
 30
0.0
  0
VERTEX
  5
82A
  8
LAYER1$C$L1
 62
     3
 10
-155.32032809649999
 20
156.86394082429999
 30
0.0
  0
VERTEX
  5
82B
  8
LAYER1$C$L1
 62
     3
 10
-155.39828490779999
 20
156.45777612929999
 30
0.0
  0
VERTEX
  5
82C
  8
LAYER1$C$L1
 62
     3
 10
-155.45472756320001
 20
156.02994235769989
 30
0.0
  0
VERTEX
  5
82D
  8
LAYER1$C$L1
 62
     3
 10
-155.48872094399991
 20
155.58752768429991
 30
0.0
  0
VERTEX
  5
82E
  8
LAYER1$C$L1
 62
     3
 10
-155.4997018617
 20
155.13786185480001
 30
0.0
  0
VERTEX
  5
82F
  8
LAYER1$C$L1
 62
     3
 10
-155.4874883889
 20
154.68839474879999
 30
0.0
  0
VERTEX
  5
830
  8
LAYER1$C$L1
 62
     3
 10
-155.45228287340001
 20
154.24657295349991
 30
0.0
  0
VERTEX
  5
831
  8
LAYER1$C$L1
 62
     3
 10
-155.39466858590001
 20
153.819716392
 30
0.0
  0
VERTEX
  5
832
  8
LAYER1$C$L1
 62
     3
 10
-155.3156000562999
 20
153.4148970492999
 30
0.0
  0
VERTEX
  5
833
  8
LAYER1$C$L1
 62
     3
 10
-155.2163872596999
 20
153.03882180679989
 30
0.0
  0
VERTEX
  5
834
  8
LAYER1$C$L1
 62
     3
 10
-155.0986739132
 20
152.6977213253999
 30
0.0
  0
VERTEX
  5
835
  8
LAYER1$C$L1
 62
     3
 10
-154.96441024329991
 20
152.39724681850001
 30
0.0
  0
VERTEX
  5
836
  8
LAYER1$C$L1
 62
     3
 10
-154.81582067569991
 20
152.14237642480001
 30
0.0
  0
VERTEX
  5
837
  8
LAYER1$C$L1
 62
     3
 10
-154.6553669816
 20
151.93733273300001
 30
0.0
  0
VERTEX
  5
838
  8
LAYER1$C$L1
 62
     3
 10
-154.48570749219991
 20
151.785512823
 30
0.0
  0
VERTEX
  5
839
  8
LAYER1$C$L1
 62
     3
 10
-154.30965305660001
 20
151.68943198519989
 30
0.0
  0
VERTEX
  5
83A
  8
LAYER1$C$L1
 62
     3
 10
-154.1301204728
 20
151.6506820475
 30
0.0
  0
VERTEX
  5
83B
  8
LAYER1$C$L1
 62
     3
 10
-153.9500841631999
 20
151.6699050030999
 30
0.0
  0
VERTEX
  5
83C
  8
LAYER1$C$L1
 62
     3
 10
-153.77252689580001
 20
151.7467823739
 30
0.0
  0
VERTEX
  5
83D
  8
LAYER1$C$L1
 62
     3
 10
-153.60039036680001
 20
151.8800404870999
 30
0.0
  0
VERTEX
  5
83E
  8
LAYER1$C$L1
 62
     3
 10
-153.43652646399991
 20
152.06747157669989
 30
0.0
  0
VERTEX
  5
83F
  8
LAYER1$C$L1
 62
     3
 10
-153.28365001739991
 20
152.30597036099991
 30
0.0
  0
SEQEND
  5
840
  8
LAYER1$C$L1
 62
     3
  0
LINE
  5
4C3
  8
LAYER1$C$L1
 62
     3
 10
-139.5
 20
147.09997558590001
 30
0.0
 11
-139.5
 21
144.8999786377
 31
0.0
  0
LINE
  5
4C4
  8
LAYER1$C$L1
 62
     3
 10
-139.5
 20
141.7999725341999
 30
0.0
 11
-139.5
 21
131.19998168949999
 31
0.0
  0
LINE
  5
4C5
  8
LAYER1$C$L1
 62
     3
 10
-116.6800079345999
 20
143.89999389650001
 30
0.0
 11
-117.8000030518
 21
143.89999389650001
 31
0.0
  0
LINE
  5
4C6
  8
LAYER1$C$L1
 62
     3
 10
-115.2933502196999
 20
141.2999877929999
 30
0.0
 11
-117.8000030518
 21
141.2999877929999
 31
0.0
  0
LINE
  5
4C7
  8
LAYER1$C$L1
 62
     3
 10
-114.0666809082
 20
139.0
 30
0.0
 11
-117.8000030518
 21
139.0
 31
0.0
  0
LINE
  5
4C8
  8
LAYER1$C$L1
 62
     3
 10
-113.0
 20
137.0
 30
0.0
 11
-117.8000030518
 21
137.0
 31
0.0
  0
LINE
  5
4C9
  8
LAYER1$C$L1
 62
     3
 10
-113.0
 20
135.2999877929999
 30
0.0
 11
-117.8000030518
 21
135.2999877929999
 31
0.0
  0
LINE
  5
4CA
  8
LAYER1$C$L1
 62
     3
 10
-113.0
 20
133.89999389650001
 30
0.0
 11
-117.8000030518
 21
133.89999389650001
 31
0.0
  0
LINE
  5
4CB
  8
LAYER1$C$L1
 62
     3
 10
-113.0
 20
132.7999877929999
 30
0.0
 11
-117.8000030518
 21
132.7999877929999
 31
0.0
  0
LINE
  5
4CC
  8
LAYER1$C$L1
 62
     3
 10
-113.0
 20
131.9999847412
 30
0.0
 11
-117.8000030518
 21
131.9999847412
 31
0.0
  0
LINE
  5
4CD
  8
LAYER1$C$L1
 62
     3
 10
-114.120010376
 20
148.0999908446999
 30
0.0
 11
-113.0
 21
148.0999908446999
 31
0.0
  0
LINE
  5
4CE
  8
LAYER1$C$L1
 62
     3
 10
-115.5066833495999
 20
150.69999694820001
 30
0.0
 11
-113.0
 21
150.69999694820001
 31
0.0
  0
LINE
  5
4CF
  8
LAYER1$C$L1
 62
     3
 10
-116.7333526611
 20
152.9999847412
 30
0.0
 11
-113.0
 21
152.9999847412
 31
0.0
  0
LINE
  5
4D0
  8
LAYER1$C$L1
 62
     3
 10
-117.8000030518
 20
154.99998474119991
 30
0.0
 11
-113.0
 21
154.99998474119991
 31
0.0
  0
LINE
  5
4D1
  8
LAYER1$C$L1
 62
     3
 10
-117.8000030518
 20
156.69999694820001
 30
0.0
 11
-113.0
 21
156.69999694820001
 31
0.0
  0
LINE
  5
4D2
  8
LAYER1$C$L1
 62
     3
 10
-117.8000030518
 20
158.0999908446999
 30
0.0
 11
-113.0
 21
158.0999908446999
 31
0.0
  0
LINE
  5
4D3
  8
LAYER1$C$L1
 62
     3
 10
-117.8000030518
 20
159.19999694820001
 30
0.0
 11
-113.0
 21
159.19999694820001
 31
0.0
  0
LINE
  5
4D4
  8
LAYER1$C$L1
 62
     3
 10
-117.8000030518
 20
159.9999847412
 30
0.0
 11
-113.0
 21
159.9999847412
 31
0.0
  0
LINE
  5
4D5
  8
LAYER1$C$L1
 62
     3
 10
-120.30000305179991
 20
134.7999877929999
 30
0.0
 11
-124.0000152588
 21
134.7999877929999
 31
0.0
  0
LINE
  5
4D6
  8
LAYER1$C$L1
 62
     3
 10
-117.8000030518
 20
144.99998474119991
 30
0.0
 11
-119.30000305179991
 21
144.99998474119991
 31
0.0
  0
LINE
  5
4D7
  8
LAYER1$C$L1
 62
     3
 10
-113.0
 20
131.49998474119991
 30
0.0
 11
-117.8000030518
 21
131.49998474119991
 31
0.0
  0
LINE
  5
4D8
  8
LAYER1$C$L1
 62
     3
 10
-120.30000305179991
 20
145.99998474119991
 30
0.0
 11
-120.30000305179991
 21
131.9999847412
 31
0.0
  0
LINE
  5
4D9
  8
LAYER1$C$L1
 62
     3
 10
-117.8000030518
 20
145.99998474119991
 30
0.0
 11
-117.8000030518
 21
131.49998474119991
 31
0.0
  0
LINE
  5
4DA
  8
LAYER1$C$L1
 62
     3
 10
-113.0
 20
145.99998474119991
 30
0.0
 11
-113.0
 21
131.49998474119991
 31
0.0
  0
LINE
  5
4DB
  8
LAYER1$C$L1
 62
     3
 10
-117.8000030518
 20
131.9999847412
 30
0.0
 11
-120.30000305179991
 21
131.9999847412
 31
0.0
  0
LINE
  5
4DC
  8
LAYER1$C$L1
 62
     3
 10
-120.30000305179991
 20
142.7499847412
 30
0.0
 11
-124.0000152588
 21
142.7499847412
 31
0.0
  0
LINE
  5
4DD
  8
LAYER1$C$L1
 62
     3
 10
-127.6999969482
 20
145.99998474119991
 30
0.0
 11
-127.6999969482
 21
141.7999877929999
 31
0.0
  0
LINE
  5
4DE
  8
LAYER1$C$L1
 62
     3
 10
-131.89997863769989
 20
144.89999389650001
 30
0.0
 11
-131.89997863769989
 21
145.99998474119991
 31
0.0
  0
LINE
  5
4DF
  8
LAYER1$C$L1
 62
     3
 10
-139.5
 20
144.89999389650001
 30
0.0
 11
-127.6999969482
 21
144.89999389650001
 31
0.0
  0
LINE
  5
4E0
  8
LAYER1$C$L1
 62
     3
 10
-126.0
 20
145.99998474119991
 30
0.0
 11
-126.0
 21
141.7999877929999
 31
0.0
  0
LINE
  5
4E1
  8
LAYER1$C$L1
 62
     3
 10
-125.5
 20
145.99998474119991
 30
0.0
 11
-125.5
 21
141.7999877929999
 31
0.0
  0
LINE
  5
4E2
  8
LAYER1$C$L1
 62
     3
 10
-125.5
 20
141.7999877929999
 30
0.0
 11
-139.5
 21
141.7999877929999
 31
0.0
  0
LINE
  5
4E3
  8
LAYER1$C$L1
 62
     3
 10
-125.5
 20
140.69999694820001
 30
0.0
 11
-139.5
 21
140.69999694820001
 31
0.0
  0
LINE
  5
4E4
  8
LAYER1$C$L1
 62
     3
 10
-124.0000152588
 20
142.7499847412
 30
0.0
 11
-125.5
 21
142.7499847412
 31
0.0
  0
LINE
  5
4E5
  8
LAYER1$C$L1
 62
     3
 10
-111.0
 20
144.39999389649989
 30
0.0
 11
-112.700012207
 21
144.39999389649989
 31
0.0
  0
LINE
  5
4E6
  8
LAYER1$C$L1
 62
     3
 10
-112.700012207
 20
145.99998474119991
 30
0.0
 11
-112.700012207
 21
144.39999389649989
 31
0.0
  0
LINE
  5
4E7
  8
LAYER1$C$L1
 62
     3
 10
-111.5000152588
 20
144.39999389649989
 30
0.0
 11
-111.5000152588
 21
134.9999847412
 31
0.0
  0
LINE
  5
4E8
  8
LAYER1$C$L1
 62
     3
 10
-111.0
 20
134.9999847412
 30
0.0
 11
-113.0
 21
134.9999847412
 31
0.0
  0
LINE
  5
4E9
  8
LAYER1$C$L1
 62
     3
 10
-124.0000152588
 20
134.9999847412
 30
0.0
 11
-125.0
 21
134.9999847412
 31
0.0
  0
LINE
  5
4EA
  8
LAYER1$C$L1
 62
     3
 10
-120.30000305179991
 20
133.9999847412
 30
0.0
 11
-124.0000152588
 21
133.9999847412
 31
0.0
  0
LINE
  5
4EB
  8
LAYER1$C$L1
 62
     3
 10
-126.0
 20
131.19999694820001
 30
0.0
 11
-139.5
 21
131.19999694820001
 31
0.0
  0
LINE
  5
4EC
  8
LAYER1$C$L1
 62
     3
 10
-124.0000152588
 20
142.7499847412
 30
0.0
 11
-124.0000152588
 21
133.9999847412
 31
0.0
  0
LINE
  5
4ED
  8
LAYER1$C$L1
 62
     3
 10
-125.5
 20
141.7999877929999
 30
0.0
 11
-125.5
 21
131.69999694820001
 31
0.0
  0
LINE
  5
4EE
  8
LAYER1$C$L1
 62
     3
 10
-124.0000152588
 20
157.19999694820001
 30
0.0
 11
-120.30000305179991
 21
157.19999694820001
 31
0.0
  0
LINE
  5
4EF
  8
LAYER1$C$L1
 62
     3
 10
-119.30000305179991
 20
146.99998474119991
 30
0.0
 11
-117.8000030518
 21
146.99998474119991
 31
0.0
  0
LINE
  5
4F0
  8
LAYER1$C$L1
 62
     3
 10
-117.8000030518
 20
160.49998474119991
 30
0.0
 11
-113.0
 21
160.49998474119991
 31
0.0
  0
LINE
  5
4F1
  8
LAYER1$C$L1
 62
     3
 10
-120.30000305179991
 20
159.9999847412
 30
0.0
 11
-120.30000305179991
 21
145.99998474119991
 31
0.0
  0
LINE
  5
4F2
  8
LAYER1$C$L1
 62
     3
 10
-117.8000030518
 20
160.49998474119991
 30
0.0
 11
-117.8000030518
 21
145.99998474119991
 31
0.0
  0
LINE
  5
4F3
  8
LAYER1$C$L1
 62
     3
 10
-113.0
 20
160.49998474119991
 30
0.0
 11
-113.0
 21
145.99998474119991
 31
0.0
  0
LINE
  5
4F4
  8
LAYER1$C$L1
 62
     3
 10
-120.30000305179991
 20
159.9999847412
 30
0.0
 11
-117.8000030518
 21
159.9999847412
 31
0.0
  0
LINE
  5
4F5
  8
LAYER1$C$L1
 62
     3
 10
-124.0000152588
 20
149.24998474119991
 30
0.0
 11
-120.30000305179991
 21
149.24998474119991
 31
0.0
  0
LINE
  5
4F6
  8
LAYER1$C$L1
 62
     3
 10
-127.6999969482
 20
150.19999694820001
 30
0.0
 11
-127.6999969482
 21
145.99998474119991
 31
0.0
  0
LINE
  5
4F7
  8
LAYER1$C$L1
 62
     3
 10
-131.89997863769989
 20
145.99998474119991
 30
0.0
 11
-131.89997863769989
 21
147.09999084469999
 31
0.0
  0
LINE
  5
4F8
  8
LAYER1$C$L1
 62
     3
 10
-127.6999969482
 20
147.09999084469999
 30
0.0
 11
-139.5
 21
147.09999084469999
 31
0.0
  0
LINE
  5
4F9
  8
LAYER1$C$L1
 62
     3
 10
-126.0
 20
150.19999694820001
 30
0.0
 11
-126.0
 21
145.99998474119991
 31
0.0
  0
LINE
  5
4FA
  8
LAYER1$C$L1
 62
     3
 10
-125.5
 20
150.19999694820001
 30
0.0
 11
-125.5
 21
145.99998474119991
 31
0.0
  0
LINE
  5
4FB
  8
LAYER1$C$L1
 62
     3
 10
-139.5
 20
150.19999694820001
 30
0.0
 11
-125.5
 21
150.19999694820001
 31
0.0
  0
LINE
  5
4FC
  8
LAYER1$C$L1
 62
     3
 10
-139.5
 20
151.2999877929999
 30
0.0
 11
-125.5
 21
151.2999877929999
 31
0.0
  0
LINE
  5
4FD
  8
LAYER1$C$L1
 62
     3
 10
-125.5
 20
149.24998474119991
 30
0.0
 11
-124.0000152588
 21
149.24998474119991
 31
0.0
  0
LINE
  5
4FE
  8
LAYER1$C$L1
 62
     3
 10
-112.700012207
 20
147.5999908446999
 30
0.0
 11
-111.0
 21
147.5999908446999
 31
0.0
  0
LINE
  5
4FF
  8
LAYER1$C$L1
 62
     3
 10
-112.700012207
 20
147.5999908446999
 30
0.0
 11
-112.700012207
 21
145.99998474119991
 31
0.0
  0
LINE
  5
500
  8
LAYER1$C$L1
 62
     3
 10
-111.5000152588
 20
156.9999847412
 30
0.0
 11
-111.5000152588
 21
147.5999908446999
 31
0.0
  0
LINE
  5
501
  8
LAYER1$C$L1
 62
     3
 10
-113.0
 20
156.9999847412
 30
0.0
 11
-111.0
 21
156.9999847412
 31
0.0
  0
LINE
  5
502
  8
LAYER1$C$L1
 62
     3
 10
-125.0
 20
156.9999847412
 30
0.0
 11
-124.0000152588
 21
156.9999847412
 31
0.0
  0
LINE
  5
503
  8
LAYER1$C$L1
 62
     3
 10
-124.0000152588
 20
157.9999847412
 30
0.0
 11
-120.30000305179991
 21
157.9999847412
 31
0.0
  0
LINE
  5
504
  8
LAYER1$C$L1
 62
     3
 10
-139.5
 20
160.79998779300001
 30
0.0
 11
-126.0
 21
160.79998779300001
 31
0.0
  0
LINE
  5
505
  8
LAYER1$C$L1
 62
     3
 10
-124.0000152588
 20
157.9999847412
 30
0.0
 11
-124.0000152588
 21
149.24998474119991
 31
0.0
  0
LINE
  5
506
  8
LAYER1$C$L1
 62
     3
 10
-125.5
 20
160.2999877929999
 30
0.0
 11
-125.5
 21
150.19999694820001
 31
0.0
  0
LINE
  5
507
  8
LAYER1$C$L1
 62
     3
 10
-139.5
 20
160.79998779300001
 30
0.0
 11
-139.5
 21
150.19998168949999
 31
0.0
  0
LINE
  5
508
  8
LAYER3$C$L3
  6
CENTERLINE
 62
     3
 10
-165.1925659179999
 20
145.99998474119991
 30
0.0
 11
-78.691238403300005
 21
145.99998474119991
 31
0.0
  0
LINE
  5
509
  8
LAYER1$C$L1
 62
     3
 10
-107.7835693359
 20
141.30003356930001
 30
0.0
 11
-110.1999969481999
 21
141.30003356930001
 31
0.0
  0
LINE
  5
50A
  8
LAYER1$C$L1
 62
     3
 10
-106.5444488525
 20
139.0000457763999
 30
0.0
 11
-110.1999969481999
 21
139.0000457763999
 31
0.0
  0
LINE
  5
50B
  8
LAYER1$C$L1
 62
     3
 10
-105.4999999999999
 20
137.0000457763999
 30
0.0
 11
-110.1999969481999
 21
137.0000457763999
 31
0.0
  0
LINE
  5
50C
  8
LAYER1$C$L1
 62
     3
 10
-105.4999999999999
 20
135.30003356930001
 30
0.0
 11
-110.1999969481999
 21
135.30003356930001
 31
0.0
  0
LINE
  5
50D
  8
LAYER1$C$L1
 62
     3
 10
-105.4999999999999
 20
133.90003967289999
 30
0.0
 11
-110.1999969481999
 21
133.90003967289999
 31
0.0
  0
LINE
  5
50E
  8
LAYER1$C$L1
 62
     3
 10
-105.4999999999999
 20
132.80003356930001
 30
0.0
 11
-110.1999969481999
 21
132.80003356930001
 31
0.0
  0
LINE
  5
50F
  8
LAYER1$C$L1
 62
     3
 10
-105.4999999999999
 20
132.0000457763999
 30
0.0
 11
-110.1999969481999
 21
132.0000457763999
 31
0.0
  0
LINE
  5
510
  8
LAYER1$C$L1
 62
     3
 10
-98.000017718999985
 20
132.30004765780001
 30
0.0
 11
-98.300011563700025
 21
132.0000538130999
 31
0.0
  0
LINE
  5
511
  8
LAYER1$C$L1
 62
     3
 10
-105.00000357099999
 20
132.0000322338999
 30
0.0
 11
-105.5000041018
 21
131.50003170310001
 31
0.0
  0
LINE
  5
512
  8
LAYER1$C$L1
 62
     3
 10
-98.300003051800005
 20
132.0000457763999
 30
0.0
 11
-105.0
 21
132.0000457763999
 31
0.0
  0
LINE
  5
513
  8
LAYER1$C$L1
 62
     3
 10
-105.0
 20
146.0000457763999
 30
0.0
 11
-105.0
 21
132.0000457763999
 31
0.0
  0
LINE
  5
514
  8
LAYER1$C$L1
 62
     3
 10
-98.300003051800005
 20
146.0000457763999
 30
0.0
 11
-98.300003051800005
 21
132.0000457763999
 31
0.0
  0
LINE
  5
515
  8
LAYER1$C$L1
 62
     3
 10
-98.0
 20
146.0000457763999
 30
0.0
 11
-98.0
 21
132.30003356930001
 31
0.0
  0
LINE
  5
516
  8
LAYER1$C$L1
 62
     3
 10
-105.4999999999999
 20
131.5000457763999
 30
0.0
 11
-110.1999969481999
 21
131.5000457763999
 31
0.0
  0
LINE
  5
517
  8
LAYER1$C$L1
 62
     3
 10
-105.4999999999999
 20
146.0000457763999
 30
0.0
 11
-105.4999999999999
 21
131.5000457763999
 31
0.0
  0
LINE
  5
518
  8
LAYER1$C$L1
 62
     3
 10
-110.2000030296
 20
131.5000318232
 30
0.0
 11
-111.0000027629
 21
132.50003148979999
 31
0.0
  0
LINE
  5
519
  8
LAYER1$C$L1
 62
     3
 10
-110.1999969481999
 20
146.0000457763999
 30
0.0
 11
-110.1999969481999
 21
131.5000457763999
 31
0.0
  0
LINE
  5
51A
  8
LAYER1$C$L1
 62
     3
 10
-106.5966644287
 20
148.1000366211
 30
0.0
 11
-105.4999999999999
 21
148.1000366211
 31
0.0
  0
LINE
  5
51B
  8
LAYER1$C$L1
 62
     3
 10
-111.0
 20
146.0
 30
0.0
 11
-111.0
 21
132.49999999999989
 31
0.0
  0
LINE
  5
51C
  8
LAYER1$C$L1
 62
     3
 10
-107.9544372559
 20
150.7000427246
 30
0.0
 11
-105.4999999999999
 21
150.7000427246
 31
0.0
  0
LINE
  5
51D
  8
LAYER1$C$L1
 62
     3
 10
-109.1555480957
 20
153.00003051760001
 30
0.0
 11
-105.4999999999999
 21
153.00003051760001
 31
0.0
  0
LINE
  5
51E
  8
LAYER1$C$L1
 62
     3
 10
-110.1999969481999
 20
155.00003051760001
 30
0.0
 11
-105.4999999999999
 21
155.00003051760001
 31
0.0
  0
LINE
  5
51F
  8
LAYER1$C$L1
 62
     3
 10
-110.1999969481999
 20
156.7000427246
 30
0.0
 11
-105.4999999999999
 21
156.7000427246
 31
0.0
  0
LINE
  5
520
  8
LAYER1$C$L1
 62
     3
 10
-110.1999969481999
 20
158.1000366211
 30
0.0
 11
-105.4999999999999
 21
158.1000366211
 31
0.0
  0
LINE
  5
521
  8
LAYER1$C$L1
 62
     3
 10
-110.1999969481999
 20
159.20004272459991
 30
0.0
 11
-105.4999999999999
 21
159.20004272459991
 31
0.0
  0
LINE
  5
522
  8
LAYER1$C$L1
 62
     3
 10
-110.1999969481999
 20
160.0000457763999
 30
0.0
 11
-105.4999999999999
 21
160.0000457763999
 31
0.0
  0
LINE
  5
523
  8
LAYER1$C$L1
 62
     3
 10
-98.300000774200015
 20
160.0000295895999
 30
0.0
 11
-97.999996139799975
 21
159.70002495529999
 31
0.0
  0
LINE
  5
524
  8
LAYER1$C$L1
 62
     3
 10
-105.4999933121999
 20
160.50003012039991
 30
0.0
 11
-104.9999927813999
 21
160.0000295895999
 31
0.0
  0
LINE
  5
525
  8
LAYER1$C$L1
 62
     3
 10
-105.0
 20
160.0000457763999
 30
0.0
 11
-98.300003051800005
 21
160.0000457763999
 31
0.0
  0
LINE
  5
526
  8
LAYER1$C$L1
 62
     3
 10
-105.0
 20
160.0000457763999
 30
0.0
 11
-105.0
 21
146.0000457763999
 31
0.0
  0
LINE
  5
527
  8
LAYER1$C$L1
 62
     3
 10
-98.300003051800005
 20
160.0000457763999
 30
0.0
 11
-98.300003051800005
 21
146.0000457763999
 31
0.0
  0
LINE
  5
528
  8
LAYER1$C$L1
 62
     3
 10
-98.0
 20
159.70004272459991
 30
0.0
 11
-98.0
 21
146.0000457763999
 31
0.0
  0
LINE
  5
529
  8
LAYER1$C$L1
 62
     3
 10
-110.1999969481999
 20
160.5000457763999
 30
0.0
 11
-105.4999999999999
 21
160.5000457763999
 31
0.0
  0
LINE
  5
52A
  8
LAYER1$C$L1
 62
     3
 10
-105.4999999999999
 20
160.5000457763999
 30
0.0
 11
-105.4999999999999
 21
146.0000457763999
 31
0.0
  0
LINE
  5
52B
  8
LAYER1$C$L1
 62
     3
 10
-110.9999987416
 20
159.50002427620001
 30
0.0
 11
-110.1999990082999
 21
160.5000239428
 31
0.0
  0
LINE
  5
52C
  8
LAYER1$C$L1
 62
     3
 10
-110.1999969481999
 20
160.5000457763999
 30
0.0
 11
-110.1999969481999
 21
146.0000457763999
 31
0.0
  0
ARC
  5
52D
  8
LAYER4$C$L4
  6
PHANTOM
 62
     3
 10
-89.107742309599985
 20
126.80006408689999
 30
0.0
 40
0.7999999523000002
 50
185.57221358009991
 51
269.99974477849992
  0
LINE
  5
52E
  8
LAYER1$C$L1
 62
     3
 10
-111.0
 20
159.49999999999989
 30
0.0
 11
-111.0
 21
146.0
 31
0.0
  0
LINE
  5
52F
  8
LAYER1$C$L1
 62
     3
 10
-111.0
 20
62.9999542236
 30
0.0
 11
-113.0
 21
62.9999542236
 31
0.0
  0
LINE
  5
530
  8
LAYER1$C$L1
 62
     3
 10
-120.30000305179991
 20
62.799957275399997
 30
0.0
 11
-124.0000152588
 21
62.799957275399997
 31
0.0
  0
LINE
  5
531
  8
LAYER1$C$L1
 62
     3
 10
-120.30000305179991
 20
61.9999542236
 30
0.0
 11
-124.0000152588
 21
61.9999542236
 31
0.0
  0
LINE
  5
532
  8
LAYER1$C$L1
 62
     3
 10
-116.6800079345999
 20
71.899963378899997
 30
0.0
 11
-117.8000030518
 21
71.899963378899997
 31
0.0
  0
LINE
  5
533
  8
LAYER1$C$L1
 62
     3
 10
-115.2933502196999
 20
69.299957275400004
 30
0.0
 11
-117.8000030518
 21
69.299957275400004
 31
0.0
  0
LINE
  5
534
  8
LAYER1$C$L1
 62
     3
 10
-114.0666809082
 20
66.999969482400004
 30
0.0
 11
-117.8000030518
 21
66.999969482400004
 31
0.0
  0
LINE
  5
535
  8
LAYER1$C$L1
 62
     3
 10
-113.0
 20
64.999969482400004
 30
0.0
 11
-117.8000030518
 21
64.999969482400004
 31
0.0
  0
LINE
  5
536
  8
LAYER1$C$L1
 62
     3
 10
-113.0
 20
63.299957275399997
 30
0.0
 11
-117.8000030518
 21
63.299957275399997
 31
0.0
  0
LINE
  5
537
  8
LAYER1$C$L1
 62
     3
 10
-113.0
 20
61.899963378900011
 30
0.0
 11
-117.8000030518
 21
61.899963378900011
 31
0.0
  0
LINE
  5
538
  8
LAYER1$C$L1
 62
     3
 10
-113.0
 20
60.799957275399997
 30
0.0
 11
-117.8000030518
 21
60.799957275399997
 31
0.0
  0
LINE
  5
539
  8
LAYER1$C$L1
 62
     3
 10
-113.0
 20
59.9999542236
 30
0.0
 11
-117.8000030518
 21
59.9999542236
 31
0.0
  0
LINE
  5
53A
  8
LAYER1$C$L1
 62
     3
 10
-117.8000030518
 20
59.9999542236
 30
0.0
 11
-120.30000305179991
 21
59.9999542236
 31
0.0
  0
LINE
  5
53B
  8
LAYER1$C$L1
 62
     3
 10
-113.0
 20
59.4999542236
 30
0.0
 11
-117.8000030518
 21
59.4999542236
 31
0.0
  0
LINE
  5
53C
  8
LAYER1$C$L1
 62
     3
 10
-117.8000030518
 20
73.999954223599985
 30
0.0
 11
-117.8000030518
 21
59.4999542236
 31
0.0
  0
LINE
  5
53D
  8
LAYER1$C$L1
 62
     3
 10
-120.30000305179991
 20
73.999954223599985
 30
0.0
 11
-120.30000305179991
 21
59.9999542236
 31
0.0
  0
LINE
  5
53E
  8
LAYER1$C$L1
 62
     3
 10
-113.0
 20
73.999954223599985
 30
0.0
 11
-113.0
 21
59.4999542236
 31
0.0
  0
LINE
  5
53F
  8
LAYER1$C$L1
 62
     3
 10
-125.5
 20
73.999954223599985
 30
0.0
 11
-125.5
 21
62.4999542236
 31
0.0
  0
LINE
  5
540
  8
LAYER1$C$L1
 62
     3
 10
-124.0000152588
 20
62.9999542236
 30
0.0
 11
-125.0
 21
62.9999542236
 31
0.0
  0
LINE
  5
541
  8
LAYER1$C$L1
 62
     3
 10
-126.0
 20
55.9999542236
 30
0.0
 11
-139.5
 21
55.9999542236
 31
0.0
  0
LINE
  5
542
  8
LAYER1$C$L1
 62
     3
 10
-126.0
 20
55.4999542236
 30
0.0
 11
-139.5
 21
55.4999542236
 31
0.0
  0
LINE
  5
543
  8
LAYER1$C$L1
 62
     3
 10
-125.5
 20
62.4999542236
 30
0.0
 11
-125.5
 21
55.9999542236
 31
0.0
  0
LINE
  5
544
  8
LAYER1$C$L1
 62
     3
 10
-139.5
 20
73.999954223599985
 30
0.0
 11
-139.5
 21
55.4999542236
 31
0.0
  0
LINE
  5
545
  8
LAYER1$C$L1
 62
     3
 10
-114.120010376
 20
76.099960327100007
 30
0.0
 11
-113.0
 21
76.099960327100007
 31
0.0
  0
LINE
  5
546
  8
LAYER1$C$L1
 62
     3
 10
-115.5066833495999
 20
78.699966430700002
 30
0.0
 11
-113.0
 21
78.699966430700002
 31
0.0
  0
LINE
  5
547
  8
LAYER1$C$L1
 62
     3
 10
-116.7333526611
 20
80.999954223600014
 30
0.0
 11
-113.0
 21
80.999954223600014
 31
0.0
  0
LINE
  5
548
  8
LAYER1$C$L1
 62
     3
 10
-117.8000030518
 20
82.9999542236
 30
0.0
 11
-113.0
 21
82.9999542236
 31
0.0
  0
LINE
  5
549
  8
LAYER1$C$L1
 62
     3
 10
-117.8000030518
 20
84.699966430700002
 30
0.0
 11
-113.0
 21
84.699966430700002
 31
0.0
  0
LINE
  5
54A
  8
LAYER1$C$L1
 62
     3
 10
-117.8000030518
 20
86.099960327099978
 30
0.0
 11
-113.0
 21
86.099960327099978
 31
0.0
  0
LINE
  5
54B
  8
LAYER1$C$L1
 62
     3
 10
-117.8000030518
 20
87.199966430700002
 30
0.0
 11
-113.0
 21
87.199966430700002
 31
0.0
  0
LINE
  5
54C
  8
LAYER1$C$L1
 62
     3
 10
-117.8000030518
 20
87.9999542236
 30
0.0
 11
-113.0
 21
87.9999542236
 31
0.0
  0
LINE
  5
54D
  8
LAYER1$C$L1
 62
     3
 10
-120.30000305179991
 20
87.9999542236
 30
0.0
 11
-117.8000030518
 21
87.9999542236
 31
0.0
  0
LINE
  5
54E
  8
LAYER1$C$L1
 62
     3
 10
-117.8000030518
 20
88.499954223600014
 30
0.0
 11
-113.0
 21
88.499954223600014
 31
0.0
  0
LINE
  5
54F
  8
LAYER1$C$L1
 62
     3
 10
-117.8000030518
 20
88.499954223600014
 30
0.0
 11
-117.8000030518
 21
73.999954223599985
 31
0.0
  0
LINE
  5
550
  8
LAYER1$C$L1
 62
     3
 10
-120.30000305179991
 20
87.9999542236
 30
0.0
 11
-120.30000305179991
 21
73.999954223599985
 31
0.0
  0
LINE
  5
551
  8
LAYER1$C$L1
 62
     3
 10
-113.0
 20
88.499954223600014
 30
0.0
 11
-113.0
 21
73.999954223599985
 31
0.0
  0
LINE
  5
552
  8
LAYER1$C$L1
 62
     3
 10
-113.0
 20
84.999954223599985
 30
0.0
 11
-111.0
 21
84.999954223599985
 31
0.0
  0
LINE
  5
553
  8
LAYER1$C$L1
 62
     3
 10
-124.0000152588
 20
85.199966430699988
 30
0.0
 11
-120.30000305179991
 21
85.199966430699988
 31
0.0
  0
LINE
  5
554
  8
LAYER1$C$L1
 62
     3
 10
-125.5
 20
85.4999542236
 30
0.0
 11
-125.5
 21
73.999954223599985
 31
0.0
  0
LINE
  5
555
  8
LAYER1$C$L1
 62
     3
 10
-125.0
 20
84.999954223599985
 30
0.0
 11
-124.0000152588
 21
84.999954223599985
 31
0.0
  0
LINE
  5
556
  8
LAYER1$C$L1
 62
     3
 10
-124.0000152588
 20
85.999954223600014
 30
0.0
 11
-120.30000305179991
 21
85.999954223600014
 31
0.0
  0
LINE
  5
557
  8
LAYER1$C$L1
 62
     3
 10
-124.0000152588
 20
85.999954223600014
 30
0.0
 11
-124.0000152588
 21
61.9999542236
 31
0.0
  0
LINE
  5
558
  8
LAYER1$C$L1
 62
     3
 10
-139.5
 20
91.9999542236
 30
0.0
 11
-126.0
 21
91.9999542236
 31
0.0
  0
LINE
  5
559
  8
LAYER1$C$L1
 62
     3
 10
-139.5
 20
92.499954223599985
 30
0.0
 11
-126.0
 21
92.499954223599985
 31
0.0
  0
LINE
  5
55A
  8
LAYER1$C$L1
 62
     3
 10
-125.5
 20
91.9999542236
 30
0.0
 11
-125.5
 21
85.4999542236
 31
0.0
  0
LINE
  5
55B
  8
LAYER1$C$L1
 62
     3
 10
-139.5
 20
92.499954223599985
 30
0.0
 11
-139.5
 21
73.999954223599985
 31
0.0
  0
LINE
  5
55C
  8
LAYER1$C$L1
 62
     3
 10
-109.1033325195
 20
71.900039672899993
 30
0.0
 11
-110.1999969481999
 21
71.900039672899993
 31
0.0
  0
LINE
  5
55D
  8
LAYER1$C$L1
 62
     3
 10
-107.7835693359
 20
69.300033569299998
 30
0.0
 11
-110.1999969481999
 21
69.300033569299998
 31
0.0
  0
LINE
  5
55E
  8
LAYER1$C$L1
 62
     3
 10
-106.5444488525
 20
67.0000457764
 30
0.0
 11
-110.1999969481999
 21
67.0000457764
 31
0.0
  0
LINE
  5
55F
  8
LAYER1$C$L1
 62
     3
 10
-105.4999999999999
 20
65.0000457764
 30
0.0
 11
-110.1999969481999
 21
65.0000457764
 31
0.0
  0
LINE
  5
560
  8
LAYER1$C$L1
 62
     3
 10
-105.4999999999999
 20
63.300033569299998
 30
0.0
 11
-110.1999969481999
 21
63.300033569299998
 31
0.0
  0
LINE
  5
561
  8
LAYER1$C$L1
 62
     3
 10
-105.4999999999999
 20
61.9000396729
 30
0.0
 11
-110.1999969481999
 21
61.9000396729
 31
0.0
  0
LINE
  5
562
  8
LAYER1$C$L1
 62
     3
 10
-105.4999999999999
 20
60.800033569299998
 30
0.0
 11
-110.1999969481999
 21
60.800033569299998
 31
0.0
  0
LINE
  5
563
  8
LAYER1$C$L1
 62
     3
 10
-105.4999999999999
 20
60.0000457764
 30
0.0
 11
-110.1999969481999
 21
60.0000457764
 31
0.0
  0
LINE
  5
564
  8
LAYER1$C$L1
 62
     3
 10
-98.000006929400016
 20
60.300046750500002
 30
0.0
 11
-98.300000774200015
 21
60.00005290579999
 31
0.0
  0
LINE
  5
565
  8
LAYER1$C$L1
 62
     3
 10
-104.9999927813999
 20
60.000031326599988
 30
0.0
 11
-105.4999933121999
 21
59.500030795800001
 31
0.0
  0
LINE
  5
566
  8
LAYER1$C$L1
 62
     3
 10
-98.300003051800005
 20
60.0000457764
 30
0.0
 11
-105.0
 21
60.0000457764
 31
0.0
  0
LINE
  5
567
  8
LAYER1$C$L1
 62
     3
 10
-105.0
 20
74.0000457764
 30
0.0
 11
-105.0
 21
60.0000457764
 31
0.0
  0
LINE
  5
568
  8
LAYER1$C$L1
 62
     3
 10
-98.300003051800005
 20
74.0000457764
 30
0.0
 11
-98.300003051800005
 21
60.0000457764
 31
0.0
  0
LINE
  5
569
  8
LAYER1$C$L1
 62
     3
 10
-98.0
 20
74.0000457764
 30
0.0
 11
-98.0
 21
60.300033569299998
 31
0.0
  0
LINE
  5
56A
  8
LAYER1$C$L1
 62
     3
 10
-105.4999999999999
 20
59.5000457764
 30
0.0
 11
-110.1999969481999
 21
59.5000457764
 31
0.0
  0
LINE
  5
56B
  8
LAYER1$C$L1
 62
     3
 10
-105.4999999999999
 20
74.0000457764
 30
0.0
 11
-105.4999999999999
 21
59.5000457764
 31
0.0
  0
LINE
  5
56C
  8
LAYER1$C$L1
 62
     3
 10
-110.2000061573999
 20
59.500033782700001
 30
0.0
 11
-111.0000058907
 21
60.500033449300012
 31
0.0
  0
LINE
  5
56D
  8
LAYER1$C$L1
 62
     3
 10
-111.0
 20
73.999984741199995
 30
0.0
 11
-111.0
 21
60.499984741200002
 31
0.0
  0
LINE
  5
56E
  8
LAYER1$C$L1
 62
     3
 10
-106.5966644287
 20
76.100036621100003
 30
0.0
 11
-105.4999999999999
 21
76.100036621100003
 31
0.0
  0
LINE
  5
56F
  8
LAYER1$C$L1
 62
     3
 10
-107.9544372559
 20
78.700042724599996
 30
0.0
 11
-105.4999999999999
 21
78.700042724599996
 31
0.0
  0
LINE
  5
570
  8
LAYER1$C$L1
 62
     3
 10
-109.1555480957
 20
81.000030517599996
 30
0.0
 11
-105.4999999999999
 21
81.000030517599996
 31
0.0
  0
LINE
  5
571
  8
LAYER1$C$L1
 62
     3
 10
-110.1999969481999
 20
83.000030517599996
 30
0.0
 11
-105.4999999999999
 21
83.000030517599996
 31
0.0
  0
LINE
  5
572
  8
LAYER1$C$L1
 62
     3
 10
-110.1999969481999
 20
84.700042724599996
 30
0.0
 11
-105.4999999999999
 21
84.700042724599996
 31
0.0
  0
LINE
  5
573
  8
LAYER1$C$L1
 62
     3
 10
-110.1999969481999
 20
86.100036621100017
 30
0.0
 11
-105.4999999999999
 21
86.100036621100017
 31
0.0
  0
LINE
  5
574
  8
LAYER1$C$L1
 62
     3
 10
-110.1999969481999
 20
87.200042724599996
 30
0.0
 11
-105.4999999999999
 21
87.200042724599996
 31
0.0
  0
LINE
  5
575
  8
LAYER1$C$L1
 62
     3
 10
-110.1999969481999
 20
88.000045776400015
 30
0.0
 11
-105.4999999999999
 21
88.000045776400015
 31
0.0
  0
LINE
  5
576
  8
LAYER1$C$L1
 62
     3
 10
-98.299993356299993
 20
88.000025310599995
 30
0.0
 11
-97.999988722000012
 21
87.700020676299985
 31
0.0
  0
LINE
  5
577
  8
LAYER1$C$L1
 62
     3
 10
-105.4999865687
 20
88.500025167000004
 30
0.0
 11
-104.9999860379
 21
88.000024636200024
 31
0.0
  0
LINE
  5
578
  8
LAYER1$C$L1
 62
     3
 10
-105.0
 20
88.000045776400015
 30
0.0
 11
-98.300003051800005
 21
88.000045776400015
 31
0.0
  0
LINE
  5
579
  8
LAYER1$C$L1
 62
     3
 10
-105.0
 20
88.000045776400015
 30
0.0
 11
-105.0
 21
74.0000457764
 31
0.0
  0
LINE
  5
57A
  8
LAYER1$C$L1
 62
     3
 10
-98.300003051800005
 20
88.000045776400015
 30
0.0
 11
-98.300003051800005
 21
74.0000457764
 31
0.0
  0
LINE
  5
57B
  8
LAYER1$C$L1
 62
     3
 10
-98.0
 20
87.700042724599996
 30
0.0
 11
-98.0
 21
74.0000457764
 31
0.0
  0
LINE
  5
57C
  8
LAYER1$C$L1
 62
     3
 10
-110.1999969481999
 20
88.5000457764
 30
0.0
 11
-105.4999999999999
 21
88.5000457764
 31
0.0
  0
LINE
  5
57D
  8
LAYER1$C$L1
 62
     3
 10
-105.4999999999999
 20
88.5000457764
 30
0.0
 11
-105.4999999999999
 21
74.0000457764
 31
0.0
  0
LINE
  5
57E
  8
LAYER1$C$L1
 62
     3
 10
-110.9999951670999
 20
87.500028320799984
 30
0.0
 11
-110.1999956943999
 21
88.500027661600015
 31
0.0
  0
LINE
  5
587
  8
LAYER1$C$L1
 62
     3
 10
-110.1999969481999
 20
88.5000457764
 30
0.0
 11
-110.1999969481999
 21
74.0000457764
 31
0.0
  0
LINE
  5
588
  8
LAYER1$C$L1
 62
     3
 10
-111.0
 20
87.499984741200009
 30
0.0
 11
-111.0
 21
73.999984741199995
 31
0.0
  0
INSERT
  5
59B
  8
LAYER8$C$L8
 62
     3
 66
     1
  2
CADRA_ATTR_5
 10
0.0
 20
0.0
 30
0.0
  0
ATTRIB
  5
59C
  8
LAYER8$C$L8
 62
     3
 10
-41.97645
 20
18.5
 30
0.0
 40
0.156
  1
ç?^HV  é
  2
20
 70
    11
  0
SEQEND
  5
59D
  8
LAYER8$C$L8
 62
     3
  0
INSERT
  5
5C0
  8
0
  2
*U30
 10
0.0
 20
0.0
 30
0.0
  0
ENDSEC
  0
EOF
